<svg width="291" height="89" viewBox="0 0 291 89" fill="none" xmlns="http://www.w3.org/2000/svg">
<path d="M236.732 78.9868C234.642 75.7559 233.332 72.0835 232.906 68.2595C232.479 64.4356 232.947 60.5648 234.273 56.9528C235.313 54.3049 249.358 55.0614 250.824 56.9528C252.29 58.8441 251.534 61.6811 252.858 65.1328C254.749 69.8612 265.011 66.2676 259.998 60.4044C257.072 57.297 253.692 54.6506 249.973 52.5554C241.414 47.0232 238.387 39.0323 241.177 31.3724C242.53 27.9118 244.562 24.7569 247.152 22.0934C249.743 19.4299 252.841 17.3116 256.263 15.8634C266.288 11.6552 285.677 15.4851 289.365 26.6913C291.351 32.649 291.02 40.5454 286.812 43.9498C278.914 50.4749 265.2 44.5172 268.511 36.0535C268.511 35.2969 270.355 34.8713 269.929 34.2093C267.47 30.5212 257.303 35.6279 262.032 41.9166C265.474 45.7779 269.456 49.1222 273.854 51.8461C276.095 53.3038 277.95 55.2827 279.26 57.6134C280.569 59.9442 281.295 62.5576 281.374 65.2298C281.453 67.902 280.883 70.5535 279.713 72.9576C278.544 75.3616 276.809 77.4466 274.658 79.0342C263.261 88.8691 244.582 89.8148 236.827 79.0342L236.732 78.9868ZM177.857 54.825C178.33 48.0161 182.917 5.60285 186.511 1.96202C187.882 0.543512 202.778 1.96202 203.109 5.36644C203.913 13.4046 199.657 36.9991 197.624 49.7657C196.678 55.7707 198.144 57.993 200.13 58.7022C202.116 59.4115 204.481 58.7022 206.23 53.0755C207.46 49.1982 212.331 6.69036 214.506 5.79197C216.681 4.89358 231.814 6.45393 231.152 13.0263C229.544 28.9609 227.322 43.4297 224.626 59.2224C220.89 81.3983 194.408 81.8711 182.775 70.7122C180.842 68.6295 179.41 66.1321 178.591 63.4113C177.771 60.6904 177.585 57.8181 178.046 55.0141L177.857 54.825ZM119.88 73.2656C118.792 72.6036 115.151 9.00726 120.211 4.13706C124.562 0.070673 135.675 -1.06412 139.411 4.37349C143.146 9.81109 146.22 25.1309 148.443 32.3653C148.443 21.8683 149.058 19.2205 148.727 9.19639C148.396 -0.827714 162.913 -2.48262 166.271 3.38054C167.59 5.99106 168.287 8.87203 168.304 11.797C168.919 22.2939 167.359 67.7807 162.204 72.84C159.792 75.2515 148.017 74.4949 146.409 71.9889C142.532 65.1801 141.681 55.6288 138.701 49.482C138.37 54.2103 139.269 70.2867 138.701 71.847C137.614 74.6841 122.623 75.0623 119.786 73.2656H119.88ZM88.1962 54.3522C89.3395 46.1206 88.9224 37.7474 86.9667 29.6702C83.7038 18.4167 77.5088 22.1521 76.7522 32.5072C76.3576 40.1668 77.4001 47.8326 79.826 55.1087C83.42 65.4638 86.7302 64.8018 88.1962 54.3522ZM63.7004 63.336C56.0868 48.489 55.472 23.145 63.7004 11.3241C69.3751 3.42779 88.6691 1.86745 95.5261 8.72356C105.741 19.2205 109.287 42.6258 105.741 56.3853C99.4511 81.1619 74.7187 85.2283 63.5112 63.1942L63.7004 63.336ZM27.6186 32.8854C25.9634 31.5615 22.8896 32.5544 20.1941 33.642C21.329 38.3703 22.464 43.0987 23.5517 47.827C30.0303 45.0373 33.0095 37.1882 27.6186 32.8381V32.8854ZM37.0764 65.2746C35.1849 60.8773 30.2195 61.3028 26.3417 62.2958L28.9899 73.171C32.442 73.171 39.5355 71.0432 37.0764 65.2746ZM19.6266 88.9164C9.22299 89.5311 -0.140276 30.143 0.00159162 28.9136C0.211167 27.371 0.739867 25.8889 1.55407 24.5619C2.36827 23.235 3.45011 22.0921 4.73053 21.2064C13.1578 15.8646 23.287 13.8897 33.1041 15.6742C38.1923 17.3016 42.5793 20.6038 45.5504 25.0429C48.5216 29.4819 49.9018 34.7961 49.4662 40.1198C48.539 44.9321 45.881 49.2383 41.9945 52.2244C43.9377 52.2676 45.8513 52.7097 47.6165 53.523C49.3818 54.3364 50.961 55.5038 52.2563 56.9528C54.6314 60.0293 55.8719 63.8311 55.7686 67.7162C55.6652 71.6013 54.2242 75.3317 51.6888 78.2776C44.5481 86.3631 29.6047 88.1599 19.5794 88.7273L19.6266 88.9164Z" fill="url(#paint0_radial_4_3289)"/>
<path fill-rule="evenodd" clip-rule="evenodd" d="M270.024 36.6209C269.625 37.6881 269.625 38.8635 270.024 39.9307C270.612 41.1775 271.497 42.2607 272.602 43.0851C273.707 43.9096 274.998 44.4501 276.361 44.6591C277.992 45.038 279.688 45.0479 281.325 44.6879C282.961 44.328 284.496 43.6074 285.818 42.5786C287.095 41.0944 288.022 39.3421 288.529 37.4514C289.037 35.5607 289.112 33.58 288.75 31.6561C288.617 30.0491 288.299 28.4626 287.805 26.9277C287.617 26.3564 287.38 25.8026 287.095 25.2728C282.366 16.3362 265.626 13.4992 256.972 17.0928C253.766 18.4561 250.862 20.4408 248.427 22.9323C245.992 25.4237 244.074 28.3726 242.785 31.6088C242.07 33.6069 241.796 35.7361 241.981 37.8502C242.33 40.5731 243.295 43.1806 244.803 45.4746C246.31 47.7687 248.321 49.689 250.682 51.0896C254.56 53.2714 258.084 56.0295 261.133 59.2697C261.966 60.1109 262.525 61.1844 262.736 62.349C262.947 63.5137 262.8 64.715 262.316 65.7948C261.759 66.7999 260.944 67.6377 259.955 68.2211C258.965 68.8045 257.837 69.1122 256.688 69.1122C255.539 69.1122 254.411 68.8045 253.422 68.2211C252.432 67.6377 251.617 66.7999 251.061 65.7948C250.503 64.2727 250.153 62.6822 250.02 61.0665C250.008 60.1043 249.799 59.1549 249.406 58.2767C248.645 57.9784 247.851 57.7721 247.041 57.662C245.479 57.3958 243.897 57.2535 242.312 57.2365C240.74 57.0861 239.156 57.0861 237.583 57.2365C236.834 57.3141 236.1 57.5054 235.408 57.8039C234.219 61.1351 233.806 64.6934 234.199 68.2084C234.592 71.7234 235.782 75.1024 237.678 78.0886C238.522 79.2474 239.525 80.2819 240.657 81.1619C245.242 84.3177 250.846 85.6342 256.357 84.8501C262.527 84.1695 268.355 81.6675 273.098 77.6629C275.186 76.0885 276.838 74.007 277.897 71.6158C278.957 69.2245 279.388 66.6025 279.151 63.998C278.434 59.6294 276.021 55.7206 272.436 53.1228C267.906 50.2937 263.799 46.8395 260.235 42.8623C259.477 41.939 258.976 40.8313 258.785 39.6519C258.594 38.4724 258.719 37.2635 259.147 36.148C259.734 34.7835 260.703 33.6178 261.937 32.7909C264.491 31.0414 268.889 30.1431 270.922 33.1692C271.194 33.554 271.312 34.026 271.253 34.4931C271.253 35.5334 270.497 36.0534 269.74 36.5736L270.024 36.6209ZM215.594 7.06868C215.357 7.68337 215.121 8.77088 214.979 9.19643C214.553 10.9932 214.222 12.79 213.891 14.5867C212.993 19.5515 212.284 24.6109 211.527 29.6702C210.77 34.7295 210.108 39.7888 209.352 44.8482L208.5 50.3804C208.353 51.4659 208.132 52.5401 207.838 53.5957C207.28 55.7109 206.189 57.648 204.67 59.2224C204.115 59.775 203.431 60.1809 202.679 60.4038C201.928 60.6266 201.134 60.6594 200.367 60.4991H199.563C195.165 58.9387 195.354 53.4065 195.969 49.6711C196.962 43.2878 198.049 36.9046 199.042 30.7577C199.799 26.0293 200.508 21.0646 200.981 16.1944C200.981 14.2085 201.36 12.2226 201.454 10.2367C201.549 8.8513 201.549 7.4611 201.454 6.07573C200.852 5.58628 200.162 5.21706 199.421 4.9882C197.881 4.49356 196.297 4.14527 194.692 3.94795C193.125 3.71623 191.546 3.57417 189.963 3.52242C189.145 3.45572 188.322 3.45572 187.504 3.52242C187.122 4.315 186.806 5.13728 186.558 5.98115C185.991 7.96705 185.565 10.0003 185.139 11.9862C184.052 17.5656 183.201 23.287 182.444 28.961C181.687 34.635 181.025 39.7416 180.41 45.1792C180.079 48.489 179.654 51.8462 179.465 55.156C179.096 57.6987 179.299 60.2916 180.06 62.7457C180.82 65.1998 182.12 67.4531 183.863 69.3411C188.208 73.2702 193.762 75.6046 199.61 75.9607C203.977 76.3586 208.371 75.5747 212.331 73.6911C215.169 72.2548 217.613 70.1472 219.451 67.5514C221.288 64.9557 222.464 61.9504 222.876 58.7969C225.477 43.477 227.605 28.1571 229.355 12.6954C229.425 12.3681 229.425 12.0297 229.355 11.7024C228.598 9.62197 225.004 8.39261 223.113 7.87249C221.457 7.43656 219.762 7.16729 218.053 7.06868C217.236 6.97614 216.411 6.97614 215.594 7.06868ZM121.299 72.0835C122.092 72.2781 122.898 72.4202 123.711 72.5091C125.506 72.6277 127.306 72.6277 129.101 72.5091C130.928 72.4472 132.746 72.2417 134.54 71.8943C135.431 71.7471 136.292 71.4599 137.093 71.0433C137.117 70.6654 137.117 70.2864 137.093 69.9085V67.2606C137.093 64.8018 137.093 62.3431 137.093 59.8844C137.093 57.8985 137.093 55.8653 137.093 53.8321C137.093 51.7989 137.093 50.7114 137.093 49.1037L137.566 42.3422L140.356 48.5364C141.259 50.6368 142.002 52.8022 142.579 55.0142C143.241 57.3783 143.856 59.7425 144.518 62.1067C145.33 65.145 146.488 68.08 147.97 70.8541C148.6 71.2726 149.308 71.5619 150.051 71.7052C151.505 72.075 152.996 72.2812 154.496 72.32C155.957 72.4859 157.433 72.4859 158.894 72.32C159.675 72.2348 160.431 71.9935 161.116 71.6107C162.665 68.3665 163.64 64.8793 164.001 61.3029C165.041 54.7778 165.562 48.1107 165.987 41.5383C166.413 34.9659 166.649 29.7175 166.744 23.807C166.744 21.4428 166.744 19.0787 166.744 16.7618C166.744 15.1069 166.744 13.4992 166.744 12.0334C166.744 9.37564 166.129 6.75385 164.947 4.37352C163.434 1.82021 159.083 1.72562 156.577 2.38759C154.921 2.63262 153.405 3.45524 152.297 4.70992C151.19 5.9646 150.561 7.57054 150.524 9.24372C150.524 13.0264 150.524 16.7618 150.524 20.4972C150.524 24.2326 150.24 28.4881 150.193 32.5072V43.1933L147.071 32.98C146.409 30.9468 145.889 28.8664 145.369 26.8332C144.849 24.8 144.092 22.1049 143.43 19.5043C142.768 16.9037 141.87 13.9721 140.924 11.2769C140.259 9.25332 139.354 7.31665 138.228 5.50832C135.155 0.779966 125.224 2.15119 121.63 5.50832C121.107 6.54852 120.756 7.66613 120.589 8.81815C120.156 11.3831 119.887 13.9733 119.786 16.5726C119.36 23.9016 119.407 31.3724 119.786 38.7014C120.164 46.0303 120.258 53.7848 120.731 61.2556C120.731 63.9034 121.11 66.5514 121.346 69.152L121.63 71.658C121.614 71.8468 121.614 72.0365 121.63 72.2254L121.299 72.0835ZM65.2136 62.6268C67.2075 66.8305 70.2739 70.4347 74.104 73.0764C77.1832 75.1533 80.8434 76.1967 84.5549 76.0553C88.9598 75.7566 93.1082 73.8758 96.2354 70.7596C100.229 66.6336 102.954 61.4474 104.085 55.818C105.67 48.0967 105.67 40.134 104.085 32.4127C102.946 24.0778 99.4889 16.2303 94.1074 9.76384C88.0544 3.47513 69.9426 5.03546 64.8826 12.1753C59.8226 19.3151 58.6404 32.1762 59.3497 41.1128C59.8064 48.4596 61.6686 55.6506 64.8353 62.2958L65.2136 62.6268ZM89.8986 54.6359C89.5203 57.3783 88.5272 64.0926 84.9333 64.0926C81.3393 64.0926 79.1167 58.1349 78.2182 55.5343C75.6873 48.0529 74.6118 40.1564 75.0498 32.2708C75.1673 29.6121 75.8271 27.0054 76.9887 24.6108C77.3912 23.6445 78.0392 22.8002 78.8687 22.1615C79.6982 21.5229 80.6804 21.1121 81.7176 20.97C85.7372 20.6863 87.8179 25.9348 88.7164 29.0555C90.7462 37.362 91.1795 45.9786 89.9932 54.4468L89.8986 54.6359ZM1.56216 29.1973V30.0957L1.84589 32.2708C2.2242 34.635 2.64978 36.9992 3.07538 39.3633C4.25762 46.1722 5.6763 52.981 7.28413 59.6479C8.18263 63.2888 9.1284 66.8823 10.2161 70.4286C11.141 73.5417 12.2302 76.6036 13.479 79.6016C14.3337 81.7843 15.4619 83.8498 16.8366 85.7485C17.3095 86.3159 18.3499 87.498 19.2011 87.4507C28.6589 86.8833 43.4605 85.1338 50.1756 77.5211C52.4505 74.8753 53.7442 71.5265 53.8389 68.0386C53.9337 64.5508 52.8237 61.1367 50.6958 58.3713C49.5418 57.0898 48.1451 56.0498 46.5867 55.3113C45.0283 54.5727 43.3389 54.1504 41.6162 54.0685L37.502 53.7848L40.6704 51.0896C44.2015 48.3484 46.6476 44.4453 47.5747 40.0726C47.9543 35.1662 46.6731 30.2747 43.9371 26.1842C41.2012 22.0936 37.1693 19.0415 32.4894 17.5183C23.1429 15.832 13.504 17.7225 5.48711 22.8141C4.40617 23.5407 3.487 24.4827 2.78719 25.5812C2.08736 26.6796 1.62197 27.9107 1.42023 29.1973H1.56216ZM25.7743 60.6882C30.5032 59.4588 36.2253 59.3642 38.4951 64.66C38.948 65.554 39.184 66.5421 39.184 67.5443C39.184 68.5464 38.948 69.5345 38.4951 70.4286C37.3979 71.8846 35.9647 73.0536 34.3178 73.8357C32.6709 74.6179 30.8592 74.9901 29.0373 74.9205H27.7604L27.4767 73.6439C26.5782 70.0503 25.6797 66.4095 24.8285 62.8159L24.4029 61.161L26.058 60.7354L25.7743 60.6882ZM21.8965 48.3472C20.8089 43.6188 19.674 38.8905 18.539 34.1621L18.208 32.6963L19.5794 32.1762C22.2749 31.136 26.1053 29.6229 28.6589 31.6561C29.5746 32.3456 30.3432 33.2111 30.9198 34.2017C31.4964 35.1923 31.8692 36.2881 32.0164 37.4247C32.1722 40.0035 31.5051 42.5651 30.1113 44.7405C28.7176 46.9159 26.669 48.5927 24.261 49.5293L22.3694 50.3804L21.8965 48.3944V48.3472Z" fill="url(#paint1_radial_4_3289)"/>
<path style="mix-blend-mode:screen" fill-rule="evenodd" clip-rule="evenodd" d="M270.97 37.3301C270.758 38.0558 270.758 38.8267 270.97 39.5524C271.526 40.5897 272.315 41.4839 273.275 42.1649C274.235 42.8458 275.34 43.295 276.502 43.477C277.965 43.8155 279.485 43.8214 280.95 43.494C282.415 43.1666 283.788 42.5145 284.967 41.5857C286.101 40.2321 286.919 38.6426 287.361 36.933C287.803 35.2234 287.857 33.4368 287.521 31.7033C287.385 30.2397 287.084 28.7962 286.622 27.4006C286.467 26.8928 286.261 26.4017 286.008 25.9347C281.562 17.5656 265.437 14.9178 257.303 18.3222C254.25 19.6184 251.483 21.5055 249.162 23.875C246.84 26.2446 245.011 29.0497 243.778 32.129C243.105 33.9565 242.847 35.9106 243.022 37.8502C243.407 40.3826 244.366 42.7936 245.825 44.8995C247.284 47.0053 249.204 48.7505 251.439 50.0021L252.101 50.4277C260.661 52.8864 268.842 55.6289 276.455 58.655C275.347 56.8105 273.884 55.2035 272.152 53.9267C267.52 51.0289 263.331 47.4775 259.715 43.3824C258.834 42.309 258.256 41.0201 258.04 39.6486C257.824 38.2771 257.977 36.8728 258.485 35.5806C259.144 34.0216 260.246 32.69 261.654 31.7507C263.153 30.4493 265.104 29.7893 267.086 29.9131C269.067 30.0369 270.921 30.9347 272.246 32.4126C272.669 33.001 272.855 33.7268 272.767 34.4458C272.708 35.0315 272.51 35.5947 272.189 36.0883C271.868 36.5818 271.434 36.9914 270.922 37.2828L270.97 37.3301ZM188.355 4.23163C188.355 4.79903 187.882 5.60287 187.74 6.02843C187.173 7.96705 186.747 9.95296 186.369 11.9389C185.234 17.5183 184.43 23.1923 183.626 28.819C183.248 31.8452 182.822 34.8714 182.491 37.8502C187.22 38.2758 191.949 38.7486 196.442 39.316C196.962 36.2426 197.435 33.1691 197.908 29.8593C198.664 25.1309 199.373 20.4026 199.846 15.3905C200.083 13.4046 200.272 11.466 200.319 9.4801C200.319 8.29802 200.319 7.11593 200.319 5.93384C199.909 5.71168 199.482 5.52199 199.042 5.36646C197.597 4.88077 196.108 4.53248 194.597 4.32622C193.084 4.32622 191.523 3.99522 189.868 3.94794L188.355 4.23163ZM224.248 43.6661C225.856 33.311 227.274 22.9086 228.315 12.5062C228.35 12.424 228.368 12.3356 228.368 12.2462C228.368 12.1568 228.35 12.0684 228.315 11.9862C227.794 10.4258 224.342 9.2437 222.876 8.86543C221.33 8.45387 219.745 8.20041 218.147 8.10891H216.587C216.587 8.58175 216.587 9.05455 216.256 9.4801C215.83 11.2296 215.499 12.9791 215.168 14.7759C214.27 19.788 213.513 24.8 212.804 29.812C212.236 33.642 211.716 37.5192 211.149 41.3965C215.641 42.1057 220.039 42.8623 224.39 43.7134L224.248 43.6661ZM165.041 36.9046C165.278 32.6018 165.42 28.299 165.514 23.9962C165.514 21.632 165.514 19.2678 165.514 16.9509C165.514 15.3433 165.514 13.7672 165.514 12.2226C165.523 9.74656 164.957 7.30234 163.859 5.08273C162.63 3.00226 158.752 3.04954 156.766 3.56966C155.352 3.75022 154.05 4.4315 153.095 5.48987C152.141 6.54824 151.598 7.9136 151.564 9.33826C151.564 13.0737 151.564 16.8563 151.564 20.639C151.564 24.4217 151.28 28.63 151.233 32.6491V36.6209C155.962 36.6209 160.691 36.6209 165.089 36.9991L165.041 36.9046ZM146.693 36.479L145.747 33.311C145.085 31.2778 144.565 29.1973 143.998 27.1168C143.43 25.0364 142.768 22.3885 142.106 19.7879C141.444 17.1874 140.546 14.3503 139.6 11.6552C138.999 9.71341 138.157 7.85476 137.093 6.12298C136.046 5.10544 134.767 4.35837 133.366 3.94642C131.966 3.53448 130.485 3.47009 129.054 3.7588C126.588 3.90993 124.22 4.78126 122.245 6.26482C121.893 7.14867 121.639 8.06829 121.488 9.00728C121.054 11.5404 120.786 14.0992 120.684 16.6672C120.258 23.476 120.306 30.3321 120.684 37.1882C128.77 36.7154 137.046 36.479 145.416 36.479H146.693ZM104.133 38.4177C104.133 36.5263 103.66 34.6823 103.376 32.9328C102.319 24.8273 99.046 17.1704 93.9183 10.8041C88.3381 5.03548 71.0775 6.64311 66.3958 13.121C61.194 20.3553 60.3901 32.649 61.0994 41.4911C61.0994 42.6732 61.0994 43.8552 61.4778 45.0373C65.6865 44.1389 69.9898 43.3351 74.3877 42.5786C74.0812 39.2284 74.0812 35.8574 74.3877 32.5072C74.5292 29.6843 75.2368 26.9186 76.4685 24.3745C76.9481 23.2546 77.7099 22.2782 78.6797 21.5406C79.6494 20.803 80.7939 20.3295 82.0013 20.1662C82.8581 20.1184 83.7147 20.2638 84.5076 20.5918C85.9675 21.5559 87.221 22.8006 88.1953 24.2537C89.1695 25.7067 89.845 27.339 90.1824 29.0555C91.136 32.629 91.7378 36.2873 91.9794 39.978C96.1408 39.4578 100.35 38.985 104.606 38.6068L104.133 38.4177ZM2.69704 29.1973C2.72013 29.4332 2.72013 29.6708 2.69704 29.9066C2.69704 30.6159 2.69708 31.3251 3.0281 32.0816C3.40642 34.3985 3.78473 36.81 4.21034 39.1269C5.43986 45.8884 6.81122 52.65 8.46635 59.3642C8.46635 59.8371 8.46639 60.3572 8.79741 60.8773C19.0128 56.5638 29.5024 52.9308 40.1975 50.0021C43.4197 47.4542 45.6455 43.8565 46.487 39.8361C46.8431 35.2198 45.6382 30.6176 43.0657 26.7678C40.4931 22.918 36.7019 20.0437 32.3002 18.6059C27.8122 17.6365 23.1689 17.6365 18.6809 18.6059C14.2547 19.3124 10.0212 20.9219 6.24375 23.3342C5.3048 23.9688 4.50285 24.7855 3.88548 25.7358C3.26812 26.6861 2.84794 27.7506 2.64978 28.8664L2.69704 29.1973ZM20.8089 48.5363C19.6739 43.808 18.5862 39.0796 17.4513 34.3513L16.8839 31.9398L19.2011 31.0414C20.336 30.6158 21.4709 30.1903 22.6532 29.8593C23.7623 29.4738 24.9456 29.35 26.1105 29.4977C27.2754 29.6453 28.3904 30.0604 29.3682 30.7104C31.3766 32.2141 32.7309 34.4314 33.1514 36.9046C33.3451 39.7388 32.6284 42.5609 31.1058 44.9594C29.5832 47.3579 27.3342 49.2075 24.6866 50.2385L21.5655 51.6097L20.8089 48.2999V48.5363Z" fill="url(#paint2_radial_4_3289)"/>
<path style="mix-blend-mode:screen" fill-rule="evenodd" clip-rule="evenodd" d="M64.6934 35.9589C66.7472 28.9051 69.3237 22.0142 72.4016 15.3433C73.3001 13.6411 74.766 11.5606 75.6172 9.85836C75.7093 9.70912 75.7581 9.53725 75.7581 9.36191C75.7581 9.18656 75.7093 9.01465 75.6172 8.86541C74.2459 8.01431 68.6185 11.3714 67.2943 12.79C63.0856 17.5183 61.5723 28.4881 62.2344 34.8241C62.66 38.8432 63.2275 40.64 64.788 35.9589H64.6934Z" fill="url(#paint3_radial_4_3289)"/>
<path style="mix-blend-mode:screen" fill-rule="evenodd" clip-rule="evenodd" d="M244.913 32.1762C243.967 34.7768 243.967 37.803 244.913 38.3231C245.859 38.8432 246.71 37.6138 248.555 35.2024C252.572 29.5459 257.935 24.9795 264.16 21.9157C265.862 20.97 267.801 20.4499 269.456 19.5043C269.74 19.5043 270.024 18.9368 269.882 18.6531C269.766 18.4321 269.598 18.2431 269.392 18.1029C269.186 17.9626 268.948 17.8755 268.7 17.8493C263.726 17.1179 258.653 18.1314 254.342 20.7174C250.032 23.3034 246.75 27.3024 245.055 32.0344L244.913 32.1762Z" fill="url(#paint4_radial_4_3289)"/>
<path style="mix-blend-mode:screen" fill-rule="evenodd" clip-rule="evenodd" d="M123.001 6.64307C122.574 7.17515 122.296 7.8118 122.197 8.48713C121.164 15.4026 120.768 22.3985 121.015 29.3865C121.015 31.7979 122.245 32.8854 122.859 30.0957C124.373 23.3342 124.845 16.4308 126.832 9.62196C127.309 8.15542 128.156 6.83642 129.291 5.79197C129.858 5.13 129.574 4.27892 128.581 4.37348C126.531 4.53407 124.581 5.32708 123.001 6.64307Z" fill="url(#paint5_radial_4_3289)"/>
<path style="mix-blend-mode:screen" fill-rule="evenodd" clip-rule="evenodd" d="M153.503 5.79199C153.06 6.33827 152.767 6.98992 152.652 7.68333C152.382 10.417 152.303 13.166 152.415 15.9107C152.415 20.1189 152.415 24.3744 152.415 28.4881C152.415 30.8995 153.597 31.987 154.259 29.1973C155.773 22.4358 155.347 15.5797 157.333 8.81813C157.781 7.3378 158.633 6.01156 159.792 4.98817C160.36 4.32621 160.076 3.42783 159.036 3.5224C157.012 3.73448 155.092 4.52211 153.503 5.79199Z" fill="url(#paint6_radial_4_3289)"/>
<path style="mix-blend-mode:screen" fill-rule="evenodd" clip-rule="evenodd" d="M189.443 5.31912C188.934 5.73056 188.569 6.2938 188.402 6.92678C186.571 13.6451 185.336 20.5122 184.714 27.4478C184.477 29.8593 185.47 31.3251 186.369 28.7717C188.686 22.5303 190.01 15.8161 192.706 9.85834C193.297 8.57952 194.294 7.53217 195.543 6.87949C196.158 6.40665 196.016 5.46098 195.023 5.17728C193.183 4.64507 191.219 4.74495 189.443 5.46097V5.31912Z" fill="url(#paint7_radial_4_3289)"/>
<path style="mix-blend-mode:screen" fill-rule="evenodd" clip-rule="evenodd" d="M217.816 9.43283C217.315 9.82228 216.964 10.3738 216.823 10.9932C215.091 17.8115 213.998 24.7766 213.56 31.7979C213.277 34.2094 214.27 35.6752 215.215 33.1218C217.485 26.9277 218.431 19.9298 221.127 13.7829C221.883 12.0807 223.018 12.0334 223.964 11.6079C224.91 11.1823 224.815 10.3785 223.964 9.85836C223.032 9.36966 222.008 9.07953 220.958 9.00628C219.908 8.93304 218.855 9.07829 217.864 9.43283H217.816Z" fill="url(#paint8_radial_4_3289)"/>
<path style="mix-blend-mode:screen" fill-rule="evenodd" clip-rule="evenodd" d="M3.87932 27.4478C3.59186 28.0686 3.46191 28.7507 3.501 29.4337C4.1614 36.4095 5.45943 43.3102 7.37876 50.0493C7.99352 52.3662 9.36493 53.1228 9.31764 50.0493C9.31764 43.0986 7.99353 36.2898 8.27727 29.1973C8.31962 27.3867 8.72148 25.6027 9.45951 23.9488C9.83782 23.1923 9.45945 22.3884 8.3718 22.7667C7.36561 23.1727 6.45028 23.7748 5.67901 24.5378C4.90774 25.3009 4.29596 26.2097 3.87932 27.2114V27.4478Z" fill="url(#paint9_radial_4_3289)"/>
<defs>
<radialGradient id="paint0_radial_4_3289" cx="0" cy="0" r="1" gradientUnits="userSpaceOnUse" gradientTransform="translate(148.254 391.625) scale(398.129 398.08)">
<stop offset="0.78" stop-color="#FCEA10"/>
<stop offset="1" stop-color="#FF6633"/>
</radialGradient>
<radialGradient id="paint1_radial_4_3289" cx="0" cy="0" r="1" gradientUnits="userSpaceOnUse" gradientTransform="translate(128.014 505.863) scale(504.105 504.042)">
<stop offset="0.85" stop-color="#FF3C00"/>
<stop offset="1" stop-color="#B5008E"/>
</radialGradient>
<radialGradient id="paint2_radial_4_3289" cx="0" cy="0" r="1" gradientUnits="userSpaceOnUse" gradientTransform="translate(136.715 687.952) scale(685.175 685.092)">
<stop offset="0.91"/>
<stop offset="0.92" stop-color="#060104"/>
<stop offset="0.93" stop-color="#19030F"/>
<stop offset="0.94" stop-color="#370821"/>
<stop offset="0.96" stop-color="#600E3B"/>
<stop offset="0.97" stop-color="#96155C"/>
<stop offset="0.99" stop-color="#D61E83"/>
<stop offset="1" stop-color="#FF249C"/>
</radialGradient>
<radialGradient id="paint3_radial_4_3289" cx="0" cy="0" r="1" gradientUnits="userSpaceOnUse" gradientTransform="translate(59.2078 3.56966) scale(46.2018 46.196)">
<stop stop-color="#FFD621"/>
<stop offset="1"/>
</radialGradient>
<radialGradient id="paint4_radial_4_3289" cx="0" cy="0" r="1" gradientUnits="userSpaceOnUse" gradientTransform="translate(6083.76 2640.72) scale(271.045 219.477)">
<stop stop-color="#FFD621"/>
<stop offset="1"/>
</radialGradient>
<radialGradient id="paint5_radial_4_3289" cx="0" cy="0" r="1" gradientUnits="userSpaceOnUse" gradientTransform="translate(1831.17 3419.99) scale(83.5119 264.783)">
<stop stop-color="#FFD621"/>
<stop offset="1"/>
</radialGradient>
<radialGradient id="paint6_radial_4_3289" cx="0" cy="0" r="1" gradientUnits="userSpaceOnUse" gradientTransform="translate(1734.8 3427.95) scale(61.7887 218.948)">
<stop stop-color="#FFD621"/>
<stop offset="1"/>
</radialGradient>
<radialGradient id="paint7_radial_4_3289" cx="0" cy="0" r="1" gradientUnits="userSpaceOnUse" gradientTransform="translate(2568.01 3174.07) scale(90.9883 204.695)">
<stop stop-color="#FFD621"/>
<stop offset="1"/>
</radialGradient>
<radialGradient id="paint8_radial_4_3289" cx="0" cy="0" r="1" gradientUnits="userSpaceOnUse" gradientTransform="translate(2648.85 3208.68) scale(89.9091 205.824)">
<stop stop-color="#FFD621"/>
<stop offset="1"/>
</radialGradient>
<radialGradient id="paint9_radial_4_3289" cx="0" cy="0" r="1" gradientUnits="userSpaceOnUse" gradientTransform="translate(1059.31 3839.26) scale(51.8562 249.694)">
<stop stop-color="#FFD621"/>
<stop offset="1"/>
</radialGradient>
</defs>
</svg>
