<svg width="140" height="44" viewBox="0 0 140 44" fill="none" xmlns="http://www.w3.org/2000/svg">
<g filter="url(#filter0_d_5_3322)">
<path d="M32.8203 16.7656V30.7812C32.2422 31.4219 31.3516 32.1094 30.1484 32.8438C28.9609 33.5625 27.4609 34.1797 25.6484 34.6953C23.8359 35.2109 21.7031 35.4688 19.25 35.4688C16.9844 35.4688 14.9297 35.1094 13.0859 34.3906C11.2422 33.6562 9.65625 32.5859 8.32812 31.1797C7.01562 29.7578 6 28.0234 5.28125 25.9766C4.57812 23.9141 4.22656 21.5547 4.22656 18.8984V17C4.22656 14.3438 4.58594 11.9844 5.30469 9.92188C6.02344 7.85938 7.03125 6.125 8.32812 4.71875C9.64062 3.29687 11.1797 2.21875 12.9453 1.48438C14.7266 0.75 16.6797 0.382812 18.8047 0.382812C21.9453 0.382812 24.5 0.882812 26.4688 1.88281C28.4375 2.86719 29.9297 4.23437 30.9453 5.98438C31.9609 7.71875 32.5781 9.72656 32.7969 12.0078H24.8984C24.7422 10.8828 24.4453 9.92969 24.0078 9.14844C23.5859 8.35156 22.9766 7.75 22.1797 7.34375C21.3828 6.92188 20.3516 6.71094 19.0859 6.71094C18.1016 6.71094 17.2031 6.92188 16.3906 7.34375C15.5938 7.76562 14.9141 8.40625 14.3516 9.26562C13.7891 10.1094 13.3516 11.1719 13.0391 12.4531C12.7422 13.7344 12.5938 15.2344 12.5938 16.9531V18.8984C12.5938 20.6016 12.7344 22.0938 13.0156 23.375C13.3125 24.6562 13.75 25.7266 14.3281 26.5859C14.9219 27.4297 15.6719 28.0703 16.5781 28.5078C17.5 28.9297 18.5859 29.1406 19.8359 29.1406C20.7109 29.1406 21.4609 29.0703 22.0859 28.9297C22.7109 28.7734 23.2266 28.5859 23.6328 28.3672C24.0547 28.1328 24.375 27.9141 24.5938 27.7109V22.4141H18.875V16.7656H32.8203ZM52.0859 8.04688L43.7656 35H34.9297L47.4688 0.875H53.0703L52.0859 8.04688ZM58.9766 35L50.6328 8.04688L49.5547 0.875H55.2266L67.8359 35H58.9766ZM58.6484 22.2734V28.625H41.1406V22.2734H58.6484ZM74.4219 0.875H81.125L88.7422 24.6172L96.3594 0.875H103.062L91.4609 35H86.0234L74.4219 0.875ZM70.3438 0.875H77.2812L78.5703 27.0312V35H70.3438V0.875ZM100.203 0.875H107.164V35H98.9141V27.0312L100.203 0.875ZM135.922 28.6719V35H117.734V28.6719H135.922ZM120.664 0.875V35H112.438V0.875H120.664ZM133.578 14.4219V20.5391H117.734V14.4219H133.578ZM135.992 0.875V7.22656H117.734V0.875H135.992Z" fill="url(#paint0_linear_5_3322)"/>
<path d="M32.8203 16.7656H34.8203V14.7656H32.8203V16.7656ZM32.8203 30.7812L34.3051 32.1212L34.8203 31.5503V30.7812H32.8203ZM30.1484 32.8438L31.184 34.5548L31.1904 34.5509L30.1484 32.8438ZM13.0859 34.3906L12.3459 36.2487L12.3527 36.2514L12.3595 36.254L13.0859 34.3906ZM8.32812 31.1797L6.85852 32.5362L6.86626 32.5446L6.8741 32.5529L8.32812 31.1797ZM5.28125 25.9766L3.38823 26.6219L3.39118 26.6306L3.39421 26.6392L5.28125 25.9766ZM8.32812 4.71875L6.85852 3.36219L6.85789 3.36287L8.32812 4.71875ZM12.9453 1.48438L12.183 -0.364655L12.1772 -0.362262L12.9453 1.48438ZM26.4688 1.88281L25.563 3.66601L25.5743 3.67167L26.4688 1.88281ZM30.9453 5.98438L29.2155 6.98828L29.2194 6.99502L30.9453 5.98438ZM32.7969 12.0078V14.0078H34.9978L34.7877 11.8169L32.7969 12.0078ZM24.8984 12.0078L22.9175 12.2829L23.157 14.0078H24.8984V12.0078ZM24.0078 9.14844L22.2402 10.0842L22.2513 10.1051L22.2628 10.1256L24.0078 9.14844ZM22.1797 7.34375L21.2439 9.11133L21.2576 9.11855L21.2713 9.12556L22.1797 7.34375ZM16.3906 7.34375L15.469 5.56876L15.4619 5.57244L15.4548 5.57617L16.3906 7.34375ZM14.3516 9.26562L16.0157 10.375L16.0203 10.368L16.025 10.3609L14.3516 9.26562ZM13.0391 12.4531L11.096 11.9792L11.0933 11.9904L11.0907 12.0017L13.0391 12.4531ZM13.0156 23.375L11.0621 23.8038L11.0646 23.8151L11.0672 23.8265L13.0156 23.375ZM14.3281 26.5859L12.6687 27.7023L12.6804 27.7197L12.6925 27.7369L14.3281 26.5859ZM16.5781 28.5078L15.7086 30.3089L15.7272 30.3179L15.7459 30.3264L16.5781 28.5078ZM22.0859 28.9297L22.525 30.8809L22.548 30.8757L22.571 30.87L22.0859 28.9297ZM23.6328 28.3672L24.581 30.1281L24.5926 30.1219L24.6041 30.1155L23.6328 28.3672ZM24.5938 27.7109L25.9547 29.1765L26.5938 28.5831V27.7109H24.5938ZM24.5938 22.4141H26.5938V20.4141H24.5938V22.4141ZM18.875 22.4141H16.875V24.4141H18.875V22.4141ZM18.875 16.7656V14.7656H16.875V16.7656H18.875ZM30.8203 16.7656V30.7812H34.8203V16.7656H30.8203ZM31.3355 29.4413C30.942 29.8774 30.2351 30.4477 29.1064 31.1366L31.1904 34.5509C32.4681 33.771 33.5424 32.9664 34.3051 32.1212L31.3355 29.4413ZM29.1128 31.1328C28.1212 31.7329 26.7989 32.2887 25.1012 32.7716L26.1957 36.619C28.123 36.0707 29.8006 35.3921 31.184 34.5547L29.1128 31.1328ZM25.1012 32.7716C23.5109 33.224 21.5705 33.4688 19.25 33.4688V37.4688C21.8357 37.4688 24.1609 37.1978 26.1957 36.619L25.1012 32.7716ZM19.25 33.4688C17.1973 33.4688 15.3935 33.1436 13.8124 32.5272L12.3595 36.254C14.4658 37.0751 16.7715 37.4688 19.25 37.4688V33.4688ZM13.826 32.5326C12.2454 31.903 10.9051 30.9955 9.78215 29.8064L6.8741 32.5529C8.40738 34.1764 10.2389 35.4095 12.3459 36.2487L13.826 32.5326ZM9.79773 29.8231C8.69142 28.6246 7.80763 27.1346 7.16829 25.3139L3.39421 26.6392C4.19237 28.9122 5.33983 30.891 6.85852 32.5362L9.79773 29.8231ZM7.17427 25.3312C6.55554 23.5163 6.22656 21.3816 6.22656 18.8984H2.22656C2.22656 21.7278 2.60071 24.3118 3.38823 26.6219L7.17427 25.3312ZM6.22656 18.8984V17H2.22656V18.8984H6.22656ZM6.22656 17C6.22656 14.521 6.56226 12.3908 7.19329 10.58L3.41608 9.26372C2.60962 11.5779 2.22656 14.1665 2.22656 17H6.22656ZM7.19329 10.58C7.83459 8.73978 8.71182 7.25281 9.79836 6.07463L6.85789 3.36287C5.35068 4.99719 4.21228 6.97897 3.41608 9.26372L7.19329 10.58ZM9.79773 6.07531C10.9169 4.86289 12.2175 3.9532 13.7134 3.33101L12.1772 -0.362262C10.1419 0.4843 8.36436 1.73086 6.85852 3.36219L9.79773 6.07531ZM13.7076 3.3334C15.2233 2.7085 16.9142 2.38281 18.8047 2.38281V-1.61719C16.4452 -1.61719 14.2298 -1.2085 12.183 -0.364645L13.7076 3.3334ZM18.8047 2.38281C21.7549 2.38281 23.968 2.85579 25.563 3.66597L27.3745 0.0996552C25.032 -1.09016 22.1358 -1.61719 18.8047 -1.61719V2.38281ZM25.5743 3.67167C27.226 4.4975 28.413 5.60549 29.2155 6.98827L32.6751 4.98048C31.4464 2.86326 29.649 1.23688 27.3632 0.0939579L25.5743 3.67167ZM29.2194 6.99502C30.069 8.44571 30.6111 10.1662 30.806 12.1987L34.7877 11.8169C34.5451 9.28697 33.8529 6.99179 32.6712 4.97373L29.2194 6.99502ZM32.7969 10.0078H24.8984V14.0078H32.7969V10.0078ZM26.8794 11.7327C26.6977 10.4245 26.3398 9.21943 25.7528 8.17123L22.2628 10.1256C22.5508 10.6399 22.7866 11.3412 22.9175 12.2829L26.8794 11.7327ZM25.7754 8.21266C25.1626 7.05524 24.2547 6.1567 23.0881 5.56194L21.2713 9.12556C21.6984 9.3433 22.0092 9.64789 22.2402 10.0842L25.7754 8.21266ZM23.1155 5.57617C21.9376 4.95259 20.5537 4.71094 19.0859 4.71094V8.71094C20.1495 8.71094 20.828 8.89116 21.2439 9.11133L23.1155 5.57617ZM19.0859 4.71094C17.8055 4.71094 16.5874 4.98806 15.469 5.56876L17.3123 9.11874C17.8189 8.85569 18.3976 8.71094 19.0859 8.71094V4.71094ZM15.4548 5.57617C14.3198 6.17709 13.3997 7.06797 12.6782 8.17031L16.025 10.3609C16.4284 9.74453 16.8677 9.35416 17.3264 9.11133L15.4548 5.57617ZM12.6875 8.15623C11.9634 9.24238 11.448 10.536 11.096 11.9792L14.9821 12.927C15.2551 11.8078 15.6148 10.9764 16.0157 10.375L12.6875 8.15623ZM11.0907 12.0017C10.7509 13.4681 10.5938 15.1259 10.5938 16.9531H14.5938C14.5938 15.3428 14.7335 14.0007 14.9874 12.9046L11.0907 12.0017ZM10.5938 16.9531V18.8984H14.5938V16.9531H10.5938ZM10.5938 18.8984C10.5938 20.7055 10.7424 22.3472 11.0621 23.8038L14.9691 22.9462C14.7264 21.8403 14.5938 20.4976 14.5938 18.8984H10.5938ZM11.0672 23.8265C11.4049 25.2838 11.9234 26.5944 12.6687 27.7023L15.9876 25.4696C15.5766 24.8587 15.2201 24.0287 14.964 22.9235L11.0672 23.8265ZM12.6925 27.7369C13.477 28.8517 14.4879 29.7196 15.7086 30.3089L17.4476 26.7067C16.8559 26.421 16.3668 26.0077 15.9637 25.435L12.6925 27.7369ZM15.7459 30.3264C16.9824 30.8923 18.364 31.1406 19.8359 31.1406V27.1406C18.8079 27.1406 18.0176 26.9671 17.4104 26.6892L15.7459 30.3264ZM19.8359 31.1406C20.809 31.1406 21.7144 31.0633 22.525 30.8809L21.6469 26.9785C21.2075 27.0773 20.6129 27.1406 19.8359 27.1406V31.1406ZM22.571 30.87C23.2988 30.688 23.9835 30.4498 24.581 30.1281L22.6846 26.6062C22.4696 26.722 22.123 26.8589 21.6009 26.9894L22.571 30.87ZM24.6041 30.1155C25.0918 29.8446 25.5683 29.5353 25.9547 29.1765L23.2328 26.2453C23.1817 26.2928 23.0176 26.4211 22.6615 26.6189L24.6041 30.1155ZM26.5938 27.7109V22.4141H22.5938V27.7109H26.5938ZM24.5938 20.4141H18.875V24.4141H24.5938V20.4141ZM20.875 22.4141V16.7656H16.875V22.4141H20.875ZM18.875 18.7656H32.8203V14.7656H18.875V18.7656ZM52.0859 8.04688L53.997 8.6368L54.0451 8.48069L54.0674 8.31883L52.0859 8.04688ZM43.7656 35V37H45.2414L45.6766 35.5899L43.7656 35ZM34.9297 35L33.0524 34.3102L32.0641 37H34.9297V35ZM47.4688 0.875V-1.125H46.0729L45.5915 0.185203L47.4688 0.875ZM53.0703 0.875L55.0517 1.14696L55.3636 -1.125H53.0703V0.875ZM58.9766 35L57.066 35.5914L57.5021 37H58.9766V35ZM50.6328 8.04688L48.655 8.34419L48.6775 8.49379L48.7223 8.63832L50.6328 8.04688ZM49.5547 0.875V-1.125H47.2316L47.5769 1.17231L49.5547 0.875ZM55.2266 0.875L57.1026 0.181798L56.6197 -1.125H55.2266V0.875ZM67.8359 35V37H70.7071L69.712 34.3068L67.8359 35ZM58.6484 22.2734H60.6484V20.2734H58.6484V22.2734ZM58.6484 28.625V30.625H60.6484V28.625H58.6484ZM41.1406 28.625H39.1406V30.625H41.1406V28.625ZM41.1406 22.2734V20.2734H39.1406V22.2734H41.1406ZM50.1749 7.45695L41.8546 34.4101L45.6766 35.5899L53.997 8.6368L50.1749 7.45695ZM43.7656 33H34.9297V37H43.7656V33ZM36.807 35.6898L49.346 1.5648L45.5915 0.185203L33.0524 34.3102L36.807 35.6898ZM47.4688 2.875H53.0703V-1.125H47.4688V2.875ZM51.0889 0.60304L50.1045 7.77492L54.0674 8.31883L55.0517 1.14696L51.0889 0.60304ZM60.8871 34.4086L52.5434 7.45543L48.7223 8.63832L57.066 35.5914L60.8871 34.4086ZM52.6106 7.74956L51.5325 0.577687L47.5769 1.17231L48.655 8.34419L52.6106 7.74956ZM49.5547 2.875H55.2266V-1.125H49.5547V2.875ZM53.3505 1.5682L65.9599 35.6932L69.712 34.3068L57.1026 0.181798L53.3505 1.5682ZM67.8359 33H58.9766V37H67.8359V33ZM56.6484 22.2734V28.625H60.6484V22.2734H56.6484ZM58.6484 26.625H41.1406V30.625H58.6484V26.625ZM43.1406 28.625V22.2734H39.1406V28.625H43.1406ZM41.1406 24.2734H58.6484V20.2734H41.1406V24.2734ZM74.4219 0.875V-1.125H71.6295L72.5283 1.51876L74.4219 0.875ZM81.125 0.875L83.0294 0.264016L82.5838 -1.125H81.125V0.875ZM88.7422 24.6172L86.8378 25.2282L88.7422 31.164L90.6466 25.2282L88.7422 24.6172ZM96.3594 0.875V-1.125H94.9006L94.455 0.264016L96.3594 0.875ZM103.062 0.875L104.956 1.51876L105.855 -1.125H103.062V0.875ZM91.4609 35V37H92.8934L93.3545 35.6438L91.4609 35ZM86.0234 35L84.1299 35.6438L84.591 37H86.0234V35ZM70.3438 0.875V-1.125H68.3438V0.875H70.3438ZM77.2812 0.875L79.2788 0.776553L79.1851 -1.125H77.2812V0.875ZM78.5703 27.0312H80.5703V26.982L80.5679 26.9328L78.5703 27.0312ZM78.5703 35V37H80.5703V35H78.5703ZM70.3438 35H68.3438V37H70.3438V35ZM100.203 0.875V-1.125H98.2993L98.2056 0.776553L100.203 0.875ZM107.164 0.875H109.164V-1.125H107.164V0.875ZM107.164 35V37H109.164V35H107.164ZM98.9141 35H96.9141V37H98.9141V35ZM98.9141 27.0312L96.9165 26.9328L96.9141 26.982V27.0312H98.9141ZM74.4219 2.875H81.125V-1.125H74.4219V2.875ZM79.2206 1.48598L86.8378 25.2282L90.6466 24.0062L83.0294 0.264016L79.2206 1.48598ZM90.6466 25.2282L98.2638 1.48598L94.455 0.264016L86.8378 24.0062L90.6466 25.2282ZM96.3594 2.875H103.062V-1.125H96.3594V2.875ZM101.169 0.231241L89.5674 34.3562L93.3545 35.6438L104.956 1.51876L101.169 0.231241ZM91.4609 33H86.0234V37H91.4609V33ZM87.917 34.3562L76.3154 0.231241L72.5283 1.51876L84.1299 35.6438L87.917 34.3562ZM70.3438 2.875H77.2812V-1.125H70.3438V2.875ZM75.2837 0.973447L76.5727 27.1297L80.5679 26.9328L79.2788 0.776553L75.2837 0.973447ZM76.5703 27.0312V35H80.5703V27.0312H76.5703ZM78.5703 33H70.3438V37H78.5703V33ZM72.3438 35V0.875H68.3438V35H72.3438ZM100.203 2.875H107.164V-1.125H100.203V2.875ZM105.164 0.875V35H109.164V0.875H105.164ZM107.164 33H98.9141V37H107.164V33ZM100.914 35V27.0312H96.9141V35H100.914ZM100.912 27.1297L102.201 0.973447L98.2056 0.776553L96.9165 26.9328L100.912 27.1297ZM135.922 28.6719H137.922V26.6719H135.922V28.6719ZM135.922 35V37H137.922V35H135.922ZM117.734 35H115.734V37H117.734V35ZM117.734 28.6719V26.6719H115.734V28.6719H117.734ZM120.664 0.875H122.664V-1.125H120.664V0.875ZM120.664 35V37H122.664V35H120.664ZM112.438 35H110.438V37H112.438V35ZM112.438 0.875V-1.125H110.438V0.875H112.438ZM133.578 14.4219H135.578V12.4219H133.578V14.4219ZM133.578 20.5391V22.5391H135.578V20.5391H133.578ZM117.734 20.5391H115.734V22.5391H117.734V20.5391ZM117.734 14.4219V12.4219H115.734V14.4219H117.734ZM135.992 0.875H137.992V-1.125H135.992V0.875ZM135.992 7.22656V9.22656H137.992V7.22656H135.992ZM117.734 7.22656H115.734V9.22656H117.734V7.22656ZM117.734 0.875V-1.125H115.734V0.875H117.734ZM133.922 28.6719V35H137.922V28.6719H133.922ZM135.922 33H117.734V37H135.922V33ZM119.734 35V28.6719H115.734V35H119.734ZM117.734 30.6719H135.922V26.6719H117.734V30.6719ZM118.664 0.875V35H122.664V0.875H118.664ZM120.664 33H112.438V37H120.664V33ZM114.438 35V0.875H110.438V35H114.438ZM112.438 2.875H120.664V-1.125H112.438V2.875ZM131.578 14.4219V20.5391H135.578V14.4219H131.578ZM133.578 18.5391H117.734V22.5391H133.578V18.5391ZM119.734 20.5391V14.4219H115.734V20.5391H119.734ZM117.734 16.4219H133.578V12.4219H117.734V16.4219ZM133.992 0.875V7.22656H137.992V0.875H133.992ZM135.992 5.22656H117.734V9.22656H135.992V5.22656ZM119.734 7.22656V0.875H115.734V7.22656H119.734ZM117.734 2.875H135.992V-1.125H117.734V2.875Z" fill="white"/>
</g>
<defs>
<filter id="filter0_d_5_3322" x="0.226562" y="0.382812" width="139.766" height="43.0859" filterUnits="userSpaceOnUse" color-interpolation-filters="sRGB">
<feFlood flood-opacity="0" result="BackgroundImageFix"/>
<feColorMatrix in="SourceAlpha" type="matrix" values="0 0 0 0 0 0 0 0 0 0 0 0 0 0 0 0 0 0 127 0" result="hardAlpha"/>
<feOffset dy="4"/>
<feGaussianBlur stdDeviation="2"/>
<feComposite in2="hardAlpha" operator="out"/>
<feColorMatrix type="matrix" values="0 0 0 0 0 0 0 0 0 0 0 0 0 0 0 0 0 0 0.25 0"/>
<feBlend mode="normal" in2="BackgroundImageFix" result="effect1_dropShadow_5_3322"/>
<feBlend mode="normal" in="SourceGraphic" in2="effect1_dropShadow_5_3322" result="shape"/>
</filter>
<linearGradient id="paint0_linear_5_3322" x1="69.5" y1="-9" x2="69.5" y2="47" gradientUnits="userSpaceOnUse">
<stop stop-color="#00FFF0"/>
<stop offset="1" stop-color="#0092A6"/>
</linearGradient>
</defs>
</svg>
