<svg width="67" height="68" viewBox="0 0 67 68" fill="none" xmlns="http://www.w3.org/2000/svg">
<g clip-path="url(#clip0_5_3367)">
<path d="M19.9206 3.23536L24.5556 11.7737C26.2944 14.98 28.9754 17.5752 32.2365 19.2088C35.4977 20.8423 39.1817 21.4354 42.7908 20.908L47.3985 20.2339C48.107 20.1302 48.7803 19.8586 49.3625 19.4417C49.9447 19.0248 50.4187 18.4746 50.7451 17.8373C51.0714 17.1999 51.2406 16.4937 51.2385 15.7777C51.2364 15.0616 51.0632 14.3564 50.7332 13.721L48.5932 9.60078C46.9162 6.37349 44.2918 3.73673 41.0724 2.04469C37.853 0.352659 34.1929 -0.313621 30.5837 0.135412L20.8927 1.33927C20.6849 1.36644 20.4869 1.44369 20.3155 1.56437C20.1441 1.68505 20.0045 1.84557 19.9089 2.03209C19.8132 2.21862 19.7644 2.42556 19.7665 2.63516C19.7685 2.84476 19.8214 3.05075 19.9206 3.23536Z" fill="#CE581E"/>
<path d="M30.5837 0.13541L22.7225 1.11053C22.4637 1.14364 22.2289 1.16772 22.0152 1.1918C21.8171 1.21321 21.6312 1.29795 21.485 1.43339C21.3388 1.56884 21.2401 1.74779 21.2036 1.94373C21.1671 2.13967 21.1947 2.34217 21.2824 2.52116C21.37 2.70015 21.5131 2.84611 21.6903 2.93741L31.0201 7.75285L38.9896 10.3442L48.8791 16.9383L50.715 17.8833C51.0511 17.2433 51.2267 16.5311 51.2267 15.8082C51.2267 15.0852 51.0511 14.3731 50.715 13.733L48.5751 9.61279C46.9009 6.38644 44.2802 3.74932 41.0643 2.05527C37.8483 0.361226 34.1912 -0.308696 30.5837 0.13541Z" fill="#FF9624"/>
<path d="M50.2334 18.413C49.9947 18.4139 49.7611 18.3437 49.5623 18.2114C49.1921 17.9676 48.8279 17.7178 48.4667 17.456C42.0046 12.7595 34.7969 9.18613 27.1467 6.88607C26.8354 6.79308 26.5738 6.58024 26.4194 6.29436C26.2651 6.00848 26.2306 5.67297 26.3236 5.36167C26.4166 5.05037 26.6294 4.78879 26.9152 4.63442C27.2011 4.48005 27.5367 4.44554 27.848 4.53853C35.7636 6.91908 43.2215 10.6166 49.9084 15.4756C50.2364 15.7134 50.5705 15.9451 50.9106 16.1678C51.1296 16.3134 51.296 16.5256 51.3851 16.773C51.4742 17.0205 51.4815 17.29 51.4055 17.5418C51.3296 17.7936 51.1746 18.0143 50.9635 18.1712C50.7524 18.3281 50.4964 18.4129 50.2334 18.413Z" fill="#AA412D"/>
<path d="M16.8959 13.107C13.4629 14.4231 10.3456 16.4473 7.74674 19.0481C-3.00962 29.8046 -2.50408 47.7481 8.87226 59.1245C20.2486 70.501 38.1949 71.0066 48.9513 60.2501C51.5516 57.6522 53.5759 54.5358 54.8923 51.1039L16.8959 13.107Z" fill="#E53557"/>
<path d="M53.2371 32.0016C51.5821 29.7274 49.4574 27.8357 47.0071 26.4548C44.7258 25.1591 42.8375 23.2706 41.5418 20.9893C40.1636 18.5397 38.2738 16.4159 36.001 14.7623C26.4425 7.84014 12.6434 11.1899 5.18262 22.2624C-2.27821 33.3349 -0.580753 47.9286 8.98079 54.8508C9.79831 55.4434 10.6617 55.9697 11.5629 56.4249C12.0174 57.3275 12.5437 58.192 13.1369 59.0102C20.059 68.5688 34.6618 70.2723 45.7371 62.8113C56.8125 55.3504 60.1682 41.5632 53.2371 32.0016Z" fill="#F17018"/>
<path d="M45.734 62.8204C34.6617 70.2813 20.0681 68.5809 13.14 59.0192C12.5448 58.2018 12.0173 57.3372 11.5629 56.4339C10.6616 55.9788 9.79827 55.4524 8.98074 54.8599C-0.5808 47.9377 -2.28127 33.3349 5.17655 22.2624C12.6344 11.1899 26.4364 7.81608 35.995 14.7624L36.1003 14.8376C36.9704 15.4725 37.593 16.3896 37.862 17.4326C38.131 18.4755 38.0295 19.5795 37.575 20.5559C36.9203 21.9313 36.7056 23.4751 36.9602 24.977C37.2147 26.4788 37.9262 27.8657 38.9975 28.9485C40.0688 30.0314 41.448 30.7576 42.947 31.0282C44.4461 31.2988 45.992 31.1006 47.3743 30.4607C48.3482 29.993 49.4541 29.8772 50.5037 30.1329C51.5534 30.3886 52.482 31 53.1317 31.8632C53.1678 31.9083 53.2009 31.9564 53.237 32.0046C60.1652 41.5632 56.8094 55.3595 45.734 62.8204Z" fill="#FFC840"/>
<path d="M56.6079 40.2119C55.5786 44.6903 52.9753 49.0814 49.0839 52.4883C38.7639 62.3298 21.9462 61.7129 11.2259 50.9835C3.71997 43.4804 1.14976 32.8473 3.70191 24.2337C-2.63633 34.9541 -0.842717 49.4184 8.85426 59.1155C20.0771 70.3355 37.6805 70.9826 48.482 60.6805C54.7811 55.1729 57.7185 47.3839 56.6079 40.2119Z" fill="#FC9A2C"/>
<path d="M61.2818 64.1386L65.4953 53.6049C67.0836 49.6543 67.4207 45.3113 66.461 41.163C65.5013 37.0147 63.2911 33.2611 60.1291 30.4095L56.0932 26.7708C55.4726 26.2103 54.7269 25.8064 53.9184 25.593C53.1099 25.3795 52.2621 25.3627 51.4457 25.5439C50.6294 25.7251 49.8682 26.099 49.2259 26.6345C48.5835 27.1699 48.0787 27.8513 47.7535 28.6218L45.6468 33.6118C43.9949 37.5214 43.5785 41.8427 44.4532 45.9958C45.328 50.1489 47.4521 53.9351 50.5405 56.8463L58.838 64.6713C59.0161 64.8428 59.2338 64.9678 59.4718 65.0352C59.7097 65.1025 59.9605 65.1102 60.2021 65.0575C60.4437 65.0049 60.6686 64.8935 60.857 64.7332C61.0453 64.5729 61.1912 64.3687 61.2818 64.1386Z" fill="#CE581E"/>
<path d="M50.5405 56.8553L57.273 63.1966C57.4927 63.4043 57.6883 63.5969 57.8749 63.7715C58.0425 63.9303 58.2563 64.0314 58.4854 64.0601C58.7144 64.0888 58.9467 64.0436 59.1483 63.931C59.3498 63.8185 59.5103 63.6445 59.606 63.4344C59.7018 63.2244 59.7279 62.9892 59.6807 62.7632L57.0473 50.7969L53.4357 41.7017L52.0002 27.8994L51.4824 25.5459C50.656 25.7185 49.8839 26.0895 49.2327 26.6269C48.5815 27.1643 48.0708 27.852 47.7445 28.6308L45.6378 33.6208C43.987 37.5312 43.572 41.8531 44.4484 46.0063C45.3247 50.1595 47.4505 53.9452 50.5405 56.8553Z" fill="#FF9624"/>
<path d="M57.8568 56.9124C57.5759 56.913 57.3011 56.8308 57.0666 56.6761C56.8322 56.5214 56.6486 56.3011 56.5386 56.0427C53.3069 48.401 51.209 40.3281 50.3116 32.0798C49.8927 28.3766 50.6285 24.6344 52.4183 21.3655L54.3265 17.8773C54.5085 17.5445 54.8152 17.2975 55.1793 17.1908C55.5433 17.0842 55.9348 17.1265 56.2676 17.3085C56.6005 17.4905 56.8474 17.7973 56.9541 18.1613C57.0607 18.5254 57.0185 18.9168 56.8365 19.2497L54.9284 22.7379C53.4203 25.4927 52.8001 28.6461 53.1528 31.7669C54.019 39.7437 56.0469 47.551 59.172 54.9411C59.2645 55.1585 59.3016 55.3954 59.2802 55.6307C59.2587 55.866 59.1793 56.0922 59.049 56.2893C58.9187 56.4864 58.7417 56.6481 58.5337 56.76C58.3256 56.8719 58.093 56.9305 57.8568 56.9305V56.9124Z" fill="#AA412D"/>
<path d="M42.8719 27.1922C42.4636 27.1921 42.0645 27.0709 41.7251 26.8441C41.3856 26.6172 41.1211 26.2948 40.9649 25.9176C40.8086 25.5404 40.7677 25.1253 40.8473 24.7249C40.9269 24.3245 41.1235 23.9566 41.4122 23.6679L43.9704 21.1097C45.5999 19.4708 47.5383 18.1715 49.6735 17.2871C51.8086 16.4026 54.0981 15.9506 56.4091 15.9572H58.7686C59.3021 15.9775 59.8071 16.2038 60.1773 16.5885C60.5476 16.9732 60.7544 17.4863 60.7544 18.0203C60.7544 18.5542 60.5476 19.0674 60.1773 19.4521C59.8071 19.8367 59.3021 20.063 58.7686 20.0834H56.4091C54.6399 20.0788 52.8872 20.4252 51.2527 21.1025C49.6181 21.7797 48.1342 22.7745 46.8867 24.029L44.3285 26.5872C44.1376 26.7791 43.9106 26.9314 43.6606 27.0352C43.4106 27.139 43.1426 27.1924 42.8719 27.1922Z" fill="#AA412D"/>
<path d="M14.0308 31.2973C15.5458 29.7782 17.3498 28.5779 19.3363 27.7674C21.3227 26.9568 23.4515 26.5525 25.5968 26.5782C26.2707 26.5833 26.9367 26.4332 27.5433 26.1397C28.15 25.8462 28.6809 25.417 29.0952 24.8855C29.5094 24.354 29.796 23.7342 29.9325 23.0743C30.069 22.4144 30.0518 21.7319 29.8824 21.0796C29.8824 21.0465 29.8673 21.0134 29.8583 20.9803C29.5922 19.9652 28.9717 19.0789 28.109 18.4816C27.2462 17.8843 26.1981 17.6155 25.1543 17.7238C20.7905 18.1686 16.6612 19.9151 13.3026 22.7365C9.94402 25.5579 7.51119 29.3239 6.32012 33.5455C6.17704 34.0592 6.19985 34.6049 6.38522 35.1048C6.57059 35.6047 6.90912 36.0333 7.35247 36.3295L7.39156 36.3566C7.68932 36.5552 8.02578 36.6883 8.37879 36.7473C8.7318 36.8062 9.09337 36.7896 9.43951 36.6986C9.78564 36.6076 10.1086 36.4442 10.3869 36.2193C10.6653 35.9943 10.8926 35.7128 11.0542 35.3935C11.8236 33.8793 12.8283 32.4968 14.0308 31.2973Z" fill="#FFE783"/>
<path d="M15.635 31.3365C15.3704 30.0781 15.6165 28.7662 16.3192 27.6893C17.0219 26.6124 18.1235 25.8587 19.3818 25.5941L22.5721 24.9259C23.195 24.7945 23.8378 24.7873 24.4635 24.9045C25.0892 25.0218 25.6856 25.2613 26.2187 25.6093C26.7518 25.9574 27.211 26.4071 27.5701 26.9328C27.9292 27.4585 28.1812 28.0498 28.3115 28.6729C28.4429 29.2959 28.4501 29.9386 28.3328 30.5643C28.2155 31.1901 27.976 31.7865 27.628 32.3196C27.28 32.8527 26.8304 33.3119 26.3047 33.671C25.779 34.0301 25.1876 34.282 24.5645 34.4123L21.3742 35.0835C20.1163 35.3472 18.8053 35.1006 17.729 34.398C16.6528 33.6954 15.8996 32.5942 15.635 31.3365Z" fill="white"/>
</g>
<defs>
<clipPath id="clip0_5_3367">
<rect width="67" height="68" fill="white"/>
</clipPath>
</defs>
</svg>
