<svg width="60" height="60" viewBox="0 0 60 60" fill="none" xmlns="http://www.w3.org/2000/svg">
<g clip-path="url(#clip0_5_3505)">
<path d="M51.2128 51.2128C48.4273 53.9989 45.1202 56.209 41.4805 57.7169C37.8408 59.2247 33.9397 60.0008 30 60.0008C26.0603 60.0008 22.1591 59.2247 18.5194 57.7169C14.8797 56.209 11.5726 53.9989 8.78716 51.2128C6.00105 48.4273 3.79095 45.1203 2.28308 41.4805C0.775213 37.8408 -0.000854492 33.9397 -0.000854492 30C-0.000854492 26.0603 0.775213 22.1592 2.28308 18.5194C3.79095 14.8797 6.00105 11.5727 8.78716 8.78719C11.5726 6.00108 14.8797 3.79097 18.5194 2.28311C22.1591 0.775239 26.0603 -0.000827789 30 -0.000827789C33.9397 -0.000827789 37.8408 0.775239 41.4805 2.28311C45.1202 3.79097 48.4273 6.00108 51.2128 8.78719C53.9989 11.5727 56.2089 14.8797 57.7168 18.5194C59.2247 22.1592 60.0009 26.0603 60.0009 30C60.0009 33.9397 59.2247 37.8408 57.7168 41.4805C56.2089 45.1203 53.9989 48.4273 51.2128 51.2128Z" fill="#F99027"/>
<path d="M30.0014 4.46518e-05C36.8066 -0.00816155 43.4112 2.30453 48.7247 6.5563C49.0542 6.82378 49.3237 7.15754 49.5157 7.53592C49.7078 7.91429 49.8181 8.32883 49.8396 8.75262C49.861 9.17641 49.7931 9.59996 49.6403 9.99581C49.4874 10.3917 49.2531 10.751 48.9524 11.0504L11.053 48.9497C10.7534 49.2505 10.3939 49.4849 9.99782 49.6377C9.60176 49.7906 9.17798 49.8585 8.75398 49.837C8.32998 49.8156 7.91523 49.7053 7.53663 49.5132C7.15802 49.3211 6.82402 49.0515 6.55629 48.7221C3.02911 44.3083 0.820204 38.9882 0.183899 33.3742C-0.452406 27.7602 0.509727 22.0806 2.9596 16.9894C5.40948 11.8983 9.24744 7.60251 14.0316 4.59681C18.8157 1.59112 24.3514 -0.0022781 30.0014 4.46518e-05Z" fill="#FFE783"/>
<path d="M40.2026 5.58403L5.58673 40.1999C5.28598 40.5026 4.91261 40.723 4.5023 40.8401C4.092 40.9572 3.65849 40.967 3.2433 40.8687C2.8281 40.7703 2.44512 40.567 2.13095 40.2783C1.81677 39.9896 1.58192 39.6251 1.44891 39.2197C-0.241144 33.9647 -0.449269 28.3454 0.84742 22.9797C2.14411 17.6141 4.89539 12.71 8.79869 8.80671C12.702 4.90341 17.6061 2.15213 22.9718 0.855438C28.3374 -0.441251 33.9567 -0.233126 39.2117 1.45692C39.6154 1.59016 39.9784 1.8243 40.2663 2.13714C40.5541 2.44997 40.7573 2.83114 40.8566 3.24451C40.9558 3.65789 40.9478 4.08978 40.8334 4.49921C40.719 4.90864 40.5018 5.28202 40.2026 5.58403Z" fill="#FFC840"/>
<path d="M8.78717 51.2128C11.5726 53.9989 14.8797 56.209 18.5194 57.7169C22.1592 59.2247 26.0603 60.0008 30 60.0008C33.9397 60.0008 37.8408 59.2247 41.4805 57.7169C45.1203 56.209 48.4273 53.9989 51.2128 51.2128C53.9989 48.4273 56.2089 45.1203 57.7168 41.4805C59.2247 37.8408 60.0009 33.9397 60.0009 30C60.0009 26.0603 59.2247 22.1592 57.7168 18.5194C56.2089 14.8797 53.9989 11.5727 51.2128 8.78719L8.78717 51.2128Z" fill="#F99027"/>
<path d="M59.9999 29.9987C60.0024 35.2501 58.6262 40.4101 56.0089 44.9628C53.3916 49.5155 49.6249 53.3013 45.0855 55.9416C40.5461 58.5819 35.3931 59.9843 30.1418 60.0084C24.8904 60.0325 19.7248 58.6776 15.1613 56.0791C14.7972 55.8728 14.4856 55.5854 14.2507 55.239C14.0158 54.8927 13.8639 54.4969 13.8069 54.0823C13.7499 53.6677 13.7893 53.2455 13.9221 52.8486C14.0548 52.4518 14.2772 52.0909 14.5721 51.794L51.7993 14.5668C52.0912 14.2718 52.4471 14.0477 52.8394 13.9121C53.2317 13.7765 53.6499 13.7329 54.0618 13.7847C54.4736 13.8364 54.868 13.9822 55.2146 14.2107C55.5611 14.4392 55.8505 14.7443 56.0603 15.1025C58.6492 19.6397 60.0073 24.7748 59.9999 29.9987Z" fill="#FFC840"/>
<path d="M21.4498 55.0721C21.1525 55.3693 20.9393 55.74 20.8318 56.1464C20.7243 56.5527 20.7262 56.9804 20.8375 57.3858C20.9488 57.7911 21.1654 58.1598 21.4653 58.4544C21.7653 58.7489 22.1378 58.9588 22.5452 59.0627C27.5922 60.3556 32.889 60.3117 37.9138 58.9352C42.9387 57.5588 47.5185 54.8973 51.2021 51.2128C54.887 47.5295 57.549 42.9499 58.9259 37.925C60.3028 32.9001 60.3472 27.6032 59.0546 22.5559C58.9503 22.1486 58.74 21.776 58.4452 21.4762C58.1504 21.1763 57.7815 20.9598 57.376 20.8486C56.9705 20.7374 56.5428 20.7354 56.1363 20.8429C55.7298 20.9503 55.3589 21.1634 55.0613 21.4605L21.4498 55.0721Z" fill="#F99027"/>
<path d="M14.856 14.8534C18.8737 10.8383 24.3213 8.58286 30.0013 8.58286C35.6814 8.58286 41.1289 10.8383 45.1466 14.8534C49.1616 18.8711 51.4171 24.3187 51.4171 29.9987C51.4171 35.6787 49.1616 41.1262 45.1466 45.1439C41.1289 49.159 35.6814 51.4145 30.0013 51.4145C24.3213 51.4145 18.8737 49.159 14.856 45.1439C10.841 41.1262 8.58551 35.6787 8.58551 29.9987C8.58551 24.3187 10.841 18.8711 14.856 14.8534Z" fill="#FFD45A"/>
<path d="M48.1462 28.3757C49.0878 27.4332 49.7182 26.2251 49.9528 24.9137C50.1874 23.6023 50.0149 22.2505 49.4585 21.04C48.3996 18.7383 46.9395 16.6435 45.1466 14.8534C41.1289 10.8383 35.6814 8.58286 30.0013 8.58286C24.3213 8.58286 18.8737 10.8383 14.856 14.8534C10.841 18.8711 8.58551 24.3187 8.58551 29.9987C8.58551 35.6787 10.841 41.1262 14.856 45.1439C16.6442 46.9379 18.7384 48.3982 21.04 49.4559C22.2507 50.0132 23.6031 50.1863 24.9152 49.9516C26.2272 49.717 27.4358 49.086 28.3783 48.1436L48.1462 28.3757Z" fill="#F28033"/>
<path d="M14.856 14.8534C11.4148 18.2955 9.24814 22.8067 8.71267 27.6444C8.1772 32.4822 9.30484 37.358 11.91 41.4694C12.2212 41.9556 12.6376 42.3658 13.1285 42.6696C13.6193 42.9735 14.1721 43.1632 14.746 43.2249C15.32 43.2866 15.9006 43.2186 16.4448 43.0261C16.989 42.8335 17.483 42.5212 17.8904 42.1122L42.1176 17.8851C42.5261 17.4775 42.8379 16.9833 43.0302 16.4392C43.2225 15.895 43.2903 15.3147 43.2286 14.7409C43.1669 14.1671 42.9774 13.6144 42.6739 13.1236C42.3703 12.6327 41.9605 12.2162 41.4747 11.9046C37.3628 9.29916 32.4862 8.17156 27.6479 8.70753C22.8096 9.2435 18.298 11.4111 14.856 14.8534Z" fill="#D56132"/>
<path d="M30.0013 47.0027C25.4918 47.0019 21.1672 45.2102 17.9785 42.0215C14.7898 38.8328 12.9981 34.5082 12.9974 29.9987C12.9981 25.4894 14.7898 21.165 17.9786 17.9767C21.1674 14.7885 25.4921 12.9974 30.0013 12.9974C34.5104 12.9974 38.8347 14.7886 42.023 17.9769C45.2114 21.1653 47.0026 25.4897 47.0026 29.9987C47.0026 34.508 45.2115 38.8326 42.0232 42.0213C38.8349 45.2101 34.5106 47.0019 30.0013 47.0027Z" fill="#FC9A2C"/>
<path d="M39.1822 33.2232C38.4626 32.4198 37.5581 31.8039 36.5469 31.4288C35.2947 30.981 34.0121 30.623 32.709 30.3575C31.6906 30.1703 30.6918 29.8888 29.7255 29.5166C29.1068 29.2488 28.7988 28.8417 28.7988 28.3007C28.8004 28.0314 28.8736 27.7673 29.0111 27.5357C29.1485 27.3041 29.3452 27.1134 29.5808 26.983C30.1022 26.6456 30.9325 26.4768 32.0716 26.4768C33.6822 26.4996 35.269 26.8696 36.7236 27.5615C36.8513 27.6191 36.9893 27.6504 37.1293 27.6536C37.2694 27.6568 37.4087 27.6318 37.5389 27.5801C37.669 27.5283 37.7874 27.4509 37.8871 27.3525C37.9868 27.2541 38.0656 27.1366 38.119 27.0071L38.9037 25.1136C39.0721 24.7097 39.1302 24.2683 39.0724 23.8345C39.0145 23.4007 38.8427 22.99 38.5743 22.6443L37.3718 21.0909L35.0123 22.1622L35.0284 22.2559C34.7097 22.1997 34.3882 22.1515 34.0615 22.114C33.9296 22.0984 33.8077 22.0356 33.7186 21.9371C33.6295 21.8386 33.5791 21.7112 33.5767 21.5783V20.041C33.5772 19.3307 33.3343 18.6416 32.8884 18.0886L31.536 16.4068L29.305 18.6886L30.1647 19.2456C30.124 19.3214 30.1028 19.4061 30.1031 19.4921V21.6533C30.1044 21.7833 30.0584 21.9093 29.9736 22.0079C29.8889 22.1064 29.7711 22.1708 29.6424 22.189C27.607 22.4996 25.3359 23.2094 24.2217 24.3128C23.6453 24.8635 23.1885 25.5269 22.8798 26.2619C22.571 26.9968 22.417 27.7875 22.4274 28.5846C22.4274 29.9969 22.7942 31.1173 23.5281 31.9457C24.2395 32.7616 25.1462 33.3836 26.1634 33.7535C27.1865 34.1312 29.155 34.4847 30.6816 34.8114C31.7148 35.0147 32.7277 35.3105 33.708 35.6952C34.3347 35.9756 34.648 36.4049 34.648 36.9834C34.648 38.0833 33.5481 38.6341 31.3484 38.6359C30.1491 38.6293 28.9575 38.4434 27.8132 38.0842C26.8946 37.8102 26.0104 37.4319 25.1779 36.9567C25.1119 36.9163 25.0379 36.8908 24.9611 36.8817C24.8843 36.8727 24.8065 36.8804 24.7329 36.9044C24.6594 36.9283 24.5919 36.9678 24.5351 37.0203C24.4783 37.0728 24.4335 37.137 24.4038 37.2084L24.3583 37.3102L21.2811 37.7949L22.3524 39.9884C22.6654 40.6322 23.1823 41.1547 23.8227 41.4748C24.5202 41.82 25.2459 42.1049 25.992 42.3264C26.7686 42.5602 27.5606 42.7392 28.3622 42.8621L29.5621 44.6539C29.7301 44.9019 29.9564 45.1048 30.2212 45.2449C30.486 45.385 30.7811 45.458 31.0806 45.4573H32.6447C32.8926 45.4573 33.1303 45.3588 33.3056 45.1835C33.4809 45.0083 33.5794 44.7705 33.5794 44.5226V43.4299C33.5775 43.3023 33.6213 43.1782 33.7029 43.08C33.7844 42.9818 33.8983 42.9159 34.024 42.8942C35.9881 42.5372 37.5057 41.814 38.577 40.7249C39.1293 40.1838 39.5665 39.5368 39.8625 38.8225C40.1584 38.1082 40.3069 37.3414 40.2991 36.5683C40.2973 35.1595 39.925 34.0445 39.1822 33.2232Z" fill="#E0692B"/>
<path d="M36.7558 37.8619C35.6845 38.9492 34.1669 39.6724 32.2029 40.0312C32.0776 40.0535 31.9643 40.1196 31.8833 40.2177C31.8024 40.3159 31.759 40.4397 31.7609 40.5669V42.771C31.7609 42.8425 31.7467 42.9133 31.7189 42.9792C31.6912 43.045 31.6505 43.1047 31.5994 43.1546C31.5482 43.2045 31.4875 43.2437 31.421 43.2698C31.3544 43.2959 31.2834 43.3085 31.2119 43.3067H28.8337C28.6916 43.3067 28.5553 43.2502 28.4549 43.1498C28.3544 43.0493 28.298 42.9131 28.298 42.771V40.7248C28.2945 40.5889 28.2409 40.459 28.1475 40.3601C28.0541 40.2613 27.9274 40.2004 27.7919 40.1892C26.5687 40.081 25.3598 39.8477 24.1842 39.4929C23.2057 39.2068 22.2651 38.8039 21.3828 38.2931C21.2677 38.2237 21.1818 38.1146 21.1414 37.9864C21.1009 37.8582 21.1088 37.7196 21.1633 37.5967L22.5988 34.3829C22.6284 34.3114 22.6732 34.2473 22.73 34.1948C22.7868 34.1423 22.8543 34.1027 22.9279 34.0788C23.0014 34.0549 23.0792 34.0472 23.1561 34.0562C23.2329 34.0652 23.3068 34.0908 23.3728 34.1311C24.2055 34.6079 25.0907 34.9863 26.0108 35.2586C27.1542 35.6178 28.3449 35.8038 29.5434 35.8104C31.7448 35.8104 32.8456 35.2604 32.8456 34.1605C32.8456 33.5794 32.5296 33.1509 31.9029 32.8697C30.9229 32.4849 29.9099 32.19 28.8765 31.9886C27.5801 31.7225 26.3033 31.3691 25.0547 30.9307C24.0382 30.558 23.1319 29.9353 22.4193 29.1202C21.6855 28.29 21.3186 27.1704 21.3186 25.7617C21.3081 24.9646 21.462 24.1738 21.7708 23.4389C22.0795 22.7039 22.5364 22.0405 23.113 21.49C24.2271 20.383 25.8019 19.675 27.8374 19.3661C27.9661 19.3479 28.0837 19.2836 28.1685 19.185C28.2532 19.0865 28.2993 18.9604 28.298 18.8305V16.6477C28.2962 16.5763 28.3088 16.5052 28.3349 16.4386C28.361 16.3721 28.4002 16.3115 28.4501 16.2603C28.5 16.2092 28.5597 16.1685 28.6255 16.1407C28.6914 16.113 28.7622 16.0987 28.8337 16.0987H31.2119C31.2845 16.0969 31.3567 16.1098 31.4242 16.1368C31.4916 16.1637 31.5529 16.2041 31.6043 16.2554C31.6556 16.3068 31.6959 16.3681 31.7229 16.4355C31.7498 16.5029 31.7628 16.5751 31.7609 16.6477V18.7314C31.7604 18.8659 31.8106 18.9957 31.9014 19.0949C31.9922 19.1942 32.117 19.2556 32.2511 19.267C33.1569 19.3725 34.0526 19.5517 34.9293 19.8027C35.7106 20.0205 36.4679 20.3166 37.1897 20.6865C37.3144 20.7475 37.4115 20.8536 37.4612 20.9833C37.5109 21.113 37.5096 21.2567 37.4575 21.3855L36.1184 24.6396C36.0911 24.7094 36.0495 24.7728 35.9961 24.8256C35.9428 24.8783 35.8789 24.9193 35.8087 24.9458C35.7385 24.9723 35.6635 24.9838 35.5886 24.9795C35.5137 24.9752 35.4405 24.9551 35.3738 24.9207C33.796 24.1005 32.0498 23.6569 30.2719 23.6245C29.1336 23.6245 28.3034 23.7959 27.7811 24.1333C27.5462 24.2639 27.3501 24.4544 27.2127 24.6854C27.0754 24.9164 27.0016 25.1796 26.9991 25.4484C26.9991 25.984 27.3098 26.3964 27.9258 26.6669C28.8922 27.0379 29.891 27.3186 30.9093 27.5052C32.2121 27.7663 33.4946 28.1198 34.7472 28.5631C35.7584 28.9382 36.6629 29.5541 37.3825 30.3575C38.1235 31.1806 38.4949 32.2956 38.4967 33.7026C38.5032 34.4776 38.3523 35.2459 38.0531 35.9609C37.7538 36.6758 37.3125 37.3226 36.7558 37.8619Z" fill="#FFE783"/>
</g>
<defs>
<clipPath id="clip0_5_3505">
<rect width="60" height="60" fill="white"/>
</clipPath>
</defs>
</svg>
