<svg width="64" height="70" viewBox="0 0 64 70" fill="none" xmlns="http://www.w3.org/2000/svg">
<g clip-path="url(#clip0_5_3331)">
<path d="M1.38639 9.33132L18.6135 18.7177C21.0459 20.0443 23.7814 20.7064 26.5473 20.6378C29.3132 20.5693 32.013 19.7725 34.3776 18.3269L36.0839 17.2868C37.1049 16.662 37.9635 15.8016 38.5886 14.7768C39.2138 13.7519 39.5875 12.592 39.6789 11.393C39.7703 10.194 39.5767 8.99033 39.1142 7.88153C38.6517 6.77273 37.9335 5.79064 37.0191 5.0165L35.507 3.73967C33.3974 1.95406 30.861 0.753595 28.149 0.256972C25.4369 -0.239651 22.643 -0.0152076 20.0436 0.908103L1.5422 7.48213C1.35777 7.54644 1.19584 7.66318 1.07602 7.81824C0.956204 7.97331 0.883631 8.16001 0.867134 8.35573C0.850637 8.55146 0.89094 8.74782 0.983095 8.92097C1.07525 9.09413 1.21535 9.23667 1.38639 9.33132Z" fill="#FF9624"/>
<path d="M35.2308 3.51955L35.5043 3.73692L37.0163 5.01651C37.9083 5.76586 38.6144 6.71411 39.0786 7.786C39.5428 8.85789 39.7524 10.0239 39.6907 11.1915C30.555 7.40068 20.4465 6.68253 10.8722 9.14419L3.41263 8.55255C3.22038 8.53596 3.03952 8.45387 2.89992 8.31983C2.76031 8.18579 2.67033 8.00783 2.64483 7.81536C2.61933 7.62289 2.65983 7.42744 2.75965 7.26127C2.85948 7.09511 3.01265 6.96818 3.19386 6.90148L3.66691 6.73362L20.0409 0.913617C22.5839 0.0110057 25.3137 -0.223408 27.9719 0.232623C30.6301 0.688655 33.1286 1.82003 35.2308 3.51955Z" fill="#CE581E"/>
<path d="M42.827 12.8839H42.7122L42.0204 12.8288C40.4445 12.7029 38.8805 12.4563 37.3418 12.0914C29.0545 10.1241 20.4974 9.57434 12.0289 10.4651C11.841 10.4862 11.6508 10.4697 11.4693 10.4167C11.2878 10.3636 11.1184 10.275 10.971 10.1559C10.8236 10.0368 10.701 9.88958 10.6102 9.72269C10.5195 9.5558 10.4624 9.37254 10.4423 9.18339C10.4221 8.99423 10.4393 8.80293 10.4927 8.62047C10.5462 8.438 10.635 8.26797 10.754 8.12012C10.8729 7.97228 11.0197 7.84955 11.186 7.75895C11.3522 7.66835 11.5345 7.61166 11.7226 7.59217C20.5149 6.66668 29.3993 7.23692 38.0035 9.27902C39.3989 9.61147 40.8178 9.83504 42.2474 9.94772L42.9392 10.0027C43.3067 10.035 43.6478 10.2083 43.8917 10.4868C44.1356 10.7653 44.2635 11.1275 44.2491 11.4985C44.2347 11.8694 44.0789 12.2205 43.8142 12.4789C43.5494 12.7374 43.1959 12.8834 42.827 12.8866V12.8839Z" fill="#AA412D"/>
<path d="M22.6878 31.5905H16.6993C7.47655 31.5905 0 39.1145 0 48.3957V48.3985C0 57.6797 7.47655 65.2036 16.6993 65.2036H22.6878C31.9106 65.2036 39.3871 57.6797 39.3871 48.3985V48.3957C39.3871 39.1145 31.9106 31.5905 22.6878 31.5905Z" fill="#FF9624"/>
<path d="M39.3024 46.6676C38.627 40.0248 31.1646 36.5575 25.6301 40.2229C23.8709 41.3846 21.8127 42.0036 19.7086 42.0036C17.6045 42.0036 15.5463 41.3846 13.7871 40.2229C8.24164 36.5575 0.776568 40.0248 0.114829 46.6676C0.0566338 47.2418 0.0274768 47.8186 0.0273743 48.3957C0.0273743 52.8535 1.78704 57.1286 4.91929 60.2807C8.05154 63.4328 12.2997 65.2036 16.7294 65.2036H22.7152C27.1444 65.2029 31.3919 63.4317 34.5235 60.2797C37.6552 57.1277 39.4145 52.853 39.4145 48.3957C39.4062 47.8181 39.3688 47.2413 39.3024 46.6676Z" fill="#FFC840"/>
<path d="M9.61162 42.1436C12.6072 44.1219 16.112 45.1758 19.6949 45.1758C23.2779 45.1758 26.7827 44.1219 29.7782 42.1436C30.9166 41.3739 32.257 40.9629 33.6284 40.9631H33.6694C33.8513 40.966 34.0286 40.9052 34.1709 40.7911C34.3132 40.6769 34.4116 40.5166 34.4494 40.3375C34.4872 40.1584 34.4619 39.9716 34.378 39.8092C34.2941 39.6467 34.1567 39.5186 33.9894 39.4469C32.6391 38.8682 31.167 38.6362 29.7055 38.7716C28.2441 38.9071 26.839 39.4058 25.6164 40.2229C23.8573 41.3846 21.799 42.0035 19.6949 42.0035C17.5908 42.0035 15.5326 41.3846 13.7735 40.2229C12.5504 39.4058 11.1448 38.9071 9.68292 38.7716C8.22103 38.6362 6.74862 38.8682 5.39784 39.4469C5.23046 39.5186 5.09303 39.6467 5.0091 39.8092C4.92518 39.9716 4.89995 40.1584 4.93774 40.3375C4.97553 40.5166 5.07404 40.6769 5.21632 40.7911C5.35861 40.9052 5.53583 40.966 5.71775 40.9631H5.76155C7.13296 40.9629 8.4733 41.3739 9.61162 42.1436Z" fill="#FFE783"/>
<path d="M25.2418 36.065C24.792 36.0655 24.3558 36.2209 24.0058 36.5053C22.7851 37.4968 21.2637 38.0376 19.6949 38.0376C18.1262 38.0376 16.6048 37.4968 15.3841 36.5053C15.033 36.2209 14.596 36.0656 14.1453 36.065C12.3051 36.065 11.4573 38.4012 12.8875 39.568C14.8109 41.1433 17.215 42.0033 19.6949 42.0033C22.1748 42.0033 24.5789 41.1433 26.5023 39.568C26.8146 39.308 27.0395 38.9573 27.146 38.5638C27.2526 38.1703 27.2358 37.7533 27.0978 37.3698C26.9598 36.9863 26.7073 36.6551 26.3751 36.4215C26.0429 36.188 25.6471 36.0634 25.2418 36.065Z" fill="#CE581E"/>
<path d="M35.157 37.2207C36.6503 39.3913 37.4488 41.9692 37.4457 44.6092C37.4457 48.062 36.0827 51.3734 33.6566 53.8149C31.2305 56.2563 27.94 57.628 24.5089 57.628H14.8782C11.4476 57.6272 8.15781 56.2553 5.7323 53.8139C3.30678 51.3725 1.94418 48.0615 1.94418 44.6092C1.94006 41.9695 2.73771 39.3915 4.23021 37.2207C1.50095 40.2945 -0.00530398 44.2736 1.40339e-05 48.3957C1.40339e-05 52.8534 1.75968 57.1286 4.89193 60.2807C8.02418 63.4328 12.2724 65.2036 16.7021 65.2036H22.6878C27.117 65.2029 31.3645 63.4317 34.4962 60.2797C37.6278 57.1277 39.3872 52.853 39.3872 48.3957C39.3925 44.2736 37.8862 40.2945 35.157 37.2207Z" fill="#FF9624"/>
<path d="M11.575 51.7006C10.9154 52.2025 10.0853 52.4217 9.26572 52.3104C8.44618 52.199 7.70363 51.7662 7.19986 51.1062L5.92282 49.4249C5.41861 48.7603 5.19732 47.9214 5.30757 47.0927C5.41782 46.264 5.85061 45.5132 6.51077 45.0055C7.16981 44.5026 7.99983 44.2825 8.81957 44.3933C9.63931 44.5042 10.3822 44.9369 10.8859 45.5971L12.1629 47.2812C12.6671 47.9458 12.8884 48.7847 12.7781 49.6134C12.6679 50.4421 12.2352 51.1929 11.575 51.7006Z" fill="white"/>
<path d="M47.3007 70H41.315C36.886 70 32.6385 68.2295 29.5067 65.0779C26.375 61.9263 24.6156 57.6518 24.6156 53.1948C24.6156 48.7376 26.3749 44.4628 29.5065 41.3108C32.6382 38.1588 36.8858 36.3876 41.315 36.3869H47.3007C51.7303 36.3869 55.9786 38.1577 59.1108 41.3098C62.2431 44.4619 64.0028 48.7371 64.0028 53.1948C64.002 57.6521 62.242 61.9265 59.1098 65.078C55.9777 68.2295 51.7299 70 47.3007 70Z" fill="#FF9624"/>
<path d="M63.9125 51.4612C63.2371 44.8184 55.772 41.3511 50.2265 45.0165C48.4673 46.1782 46.4091 46.7972 44.305 46.7972C42.2009 46.7972 40.1427 46.1782 38.3835 45.0165C32.8381 41.3511 25.373 44.8184 24.7112 51.4612C24.6517 52.0362 24.6225 52.614 24.6238 53.1921C24.6238 57.6491 26.3832 61.9236 29.5149 65.0751C32.6466 68.2267 36.8941 69.9973 41.3231 69.9973H47.3088C51.738 69.9973 55.9859 68.2268 59.118 65.0753C62.2502 61.9238 64.0102 57.6494 64.0109 53.1921C64.0072 52.6138 63.9743 52.0361 63.9125 51.4612Z" fill="#FFC840"/>
<path d="M34.2244 46.94C37.22 48.9183 40.7248 49.9722 44.3078 49.9722C47.8907 49.9722 51.3955 48.9183 54.3911 46.94C55.5294 46.1703 56.8698 45.7593 58.2412 45.7595H58.2822C58.4632 45.7615 58.6393 45.7004 58.7808 45.5867C58.9222 45.473 59.0202 45.3136 59.0581 45.1354C59.0961 44.9573 59.0717 44.7715 58.9891 44.6094C58.9065 44.4473 58.7708 44.3189 58.6049 44.246C57.5029 43.7756 56.3183 43.5323 55.1212 43.5306C53.3807 43.5328 51.6793 44.0505 50.2292 45.0192C48.4701 46.181 46.4119 46.7999 44.3078 46.7999C42.2037 46.7999 40.1454 46.181 38.3863 45.0192C36.9362 44.0505 35.2349 43.5328 33.4944 43.5306C32.2973 43.5323 31.1127 43.7756 30.0107 44.246C29.8448 44.3189 29.709 44.4473 29.6264 44.6094C29.5438 44.7715 29.5194 44.9573 29.5574 45.1354C29.5953 45.3136 29.6933 45.473 29.8348 45.5867C29.9762 45.7004 30.1523 45.7615 30.3333 45.7595H30.3744C31.7458 45.7593 33.0861 46.1703 34.2244 46.94Z" fill="#FFE783"/>
<path d="M49.8546 40.8613C49.4043 40.862 48.968 41.0184 48.6186 41.3043C47.3979 42.2959 45.8765 42.8367 44.3077 42.8367C42.739 42.8367 41.2176 42.2959 39.9969 41.3043C39.6478 41.018 39.2113 40.8615 38.7609 40.8613C38.3557 40.8607 37.9602 40.9859 37.6283 41.2198C37.2965 41.4537 37.0443 41.785 36.9065 42.1684C36.7686 42.5519 36.7517 42.9688 36.8579 43.3623C36.9642 43.7557 37.1885 44.1066 37.5003 44.3671C39.4244 45.9409 41.8282 46.8 44.3077 46.8C46.7872 46.8 49.1911 45.9409 51.1152 44.3671C51.4269 44.1066 51.6513 43.7557 51.7576 43.3623C51.8639 42.9688 51.8469 42.5519 51.709 42.1684C51.5711 41.785 51.3191 41.4537 50.9872 41.2198C50.6553 40.9859 50.2598 40.8607 49.8546 40.8613Z" fill="#CE581E"/>
<path d="M59.7726 42.0171C61.2646 44.1881 62.0621 46.7659 62.0585 49.4056C62.0585 52.8584 60.6956 56.1698 58.2695 58.6112C55.8434 61.0527 52.5528 62.4243 49.1218 62.4243H39.4938C36.0628 62.4243 32.7723 61.0527 30.3462 58.6112C27.9201 56.1698 26.557 52.8584 26.557 49.4056C26.5535 46.7659 27.3511 44.1881 28.8431 42.0171C26.1142 45.092 24.6089 49.0722 24.6156 53.1948C24.6156 57.6518 26.375 61.9263 29.5067 65.0779C32.6385 68.2295 36.886 70 41.315 70H47.3007C51.7299 70 55.9777 68.2295 59.1098 65.078C62.242 61.9265 64.002 57.6521 64.0028 53.1948C64.0088 49.0718 62.5025 45.0916 59.7726 42.0171Z" fill="#FF9624"/>
<path d="M36.1906 56.497C35.5299 57.0037 34.6965 57.2259 33.8732 57.115C33.0499 57.0041 32.3039 56.569 31.799 55.9053L30.522 54.2212C30.0215 53.5583 29.8024 52.7228 29.9126 51.8976C30.0228 51.0725 30.4533 50.3249 31.1099 49.8184C31.4365 49.5669 31.8092 49.3826 32.2067 49.2762C32.6042 49.1698 33.0185 49.1433 33.4262 49.1983C33.8338 49.2532 34.2267 49.3885 34.5823 49.5965C34.938 49.8044 35.2494 50.0809 35.4987 50.41L36.7784 52.0941C37.2775 52.7576 37.4957 53.5927 37.3856 54.4174C37.2755 55.2421 36.846 55.9896 36.1906 56.497Z" fill="white"/>
<path d="M44.1424 45.1101C43.7413 45.1096 43.3506 44.9823 43.0253 44.7463C42.7 44.5103 42.4566 44.1775 42.3294 43.7947L40.0598 36.9373C38.271 31.5465 37.6045 25.8429 38.102 20.1816L38.3071 17.7793L28.865 23.4232C26.799 24.6537 25.0682 26.3802 23.8275 28.4485C22.5868 30.5168 21.8749 32.8623 21.7554 35.2752L21.5995 38.404C21.5422 38.8889 21.3039 39.3338 20.933 39.6487C20.562 39.9636 20.0861 40.125 19.6015 40.1002C19.1168 40.0753 18.6596 39.8662 18.3224 39.515C17.9851 39.1638 17.7931 38.6969 17.7849 38.2086L17.9408 35.0826C18.0912 32.0365 18.9894 29.0754 20.555 26.464C22.1206 23.8527 24.3049 21.6725 26.9125 20.1183L42.756 10.6494L41.9028 20.5146C41.4507 25.6536 42.0567 30.8311 43.683 35.7237L45.9526 42.5812C46.1112 43.0647 46.073 43.5918 45.8465 44.0471C45.62 44.5024 45.2236 44.849 44.7439 45.011C44.5501 45.077 44.3469 45.1105 44.1424 45.1101Z" fill="#CE581E"/>
<path d="M41.4298 36.8217C41.0175 36.8218 40.6162 36.6879 40.2856 36.44C39.955 36.1921 39.7128 35.8434 39.595 35.4458C38.9803 33.3201 38.535 31.1485 38.2633 28.9516C38.2103 28.6914 38.2114 28.423 38.2664 28.1633C38.3215 27.9035 38.4292 27.658 38.5831 27.4422C38.7369 27.2264 38.9334 27.045 39.1603 26.9093C39.3871 26.7735 39.6393 26.6865 39.9012 26.6536C40.1631 26.6206 40.4289 26.6426 40.682 26.718C40.935 26.7934 41.1698 26.9206 41.3717 27.0917C41.5735 27.2628 41.738 27.4741 41.8548 27.7122C41.9716 27.9504 42.0383 28.2102 42.0505 28.4755C42.2999 30.4704 42.7059 32.4422 43.2646 34.3726C43.4044 34.8616 43.3462 35.3863 43.1029 35.8322C42.8595 36.2782 42.4507 36.6092 41.9657 36.7529C41.7915 36.8026 41.6109 36.8258 41.4298 36.8217Z" fill="#E0692B"/>
<path d="M21.0116 31.7749C20.7681 31.7745 20.5268 31.7279 20.3006 31.6373C19.8315 31.4465 19.4566 31.0765 19.2577 30.6083C19.0589 30.1401 19.0524 29.6117 19.2396 29.1387C20.748 25.3674 23.4445 22.1985 26.9152 20.1183L39.5594 12.5619C39.9916 12.3469 40.4885 12.304 40.9508 12.4418C41.4131 12.5795 41.8067 12.8877 42.053 13.3049C42.2993 13.722 42.3801 14.2172 42.2792 14.6917C42.1784 15.1661 41.9034 15.5848 41.5091 15.8641L28.8649 23.4177C26.1148 25.069 23.9785 27.5823 22.7835 30.5724C22.6405 30.9274 22.3954 31.2315 22.0798 31.4457C21.7642 31.6599 21.3923 31.7745 21.0116 31.7749Z" fill="#E0692B"/>
<path d="M40.0052 22.2703C39.9505 22.2703 39.893 22.2703 39.8383 22.2703C39.3345 22.2248 38.869 21.9804 38.5436 21.5906C38.2182 21.2008 38.0595 20.6972 38.102 20.1899L38.6325 14.0561C38.6364 13.7915 38.6946 13.5305 38.8032 13.2895C38.9119 13.0484 39.0688 12.8325 39.2641 12.6552C39.4593 12.4779 39.6889 12.343 39.9383 12.2589C40.1877 12.1748 40.4516 12.1433 40.7136 12.1665C40.9756 12.1896 41.2301 12.2668 41.4611 12.3933C41.6921 12.5198 41.8948 12.6929 42.0564 12.9017C42.218 13.1105 42.3352 13.3506 42.4005 13.607C42.4658 13.8633 42.4779 14.1306 42.4361 14.3919L41.9056 20.5228C41.8614 20.9997 41.6422 21.443 41.2909 21.7661C40.9395 22.0891 40.4811 22.2689 40.0052 22.2703Z" fill="#AA412D"/>
<path d="M27.8915 23.6929C27.4736 23.6914 27.0676 23.5523 26.7357 23.2968C26.4037 23.0413 26.164 22.6836 26.053 22.2781C25.942 21.8726 25.966 21.4418 26.1212 21.0513C26.2764 20.6608 26.5543 20.3322 26.9125 20.1156L47.2897 7.94167C47.7219 7.7267 48.2189 7.68381 48.6812 7.82155C49.1435 7.95928 49.5371 8.26749 49.7834 8.6846C50.0296 9.10172 50.1104 9.59699 50.0096 10.0714C49.9087 10.5459 49.6337 10.9646 49.2394 11.2438L28.865 23.4177C28.5713 23.5967 28.2348 23.6919 27.8915 23.6929Z" fill="#CE581E"/>
<path d="M51.8207 9.989L44.6482 14.4854C44.4141 14.6326 44.1321 14.6819 43.8623 14.6228C43.5926 14.5636 43.3565 14.4008 43.2044 14.169L41.6184 11.7666C41.4656 11.5353 41.4087 11.2531 41.4598 10.9801C41.5109 10.7071 41.6659 10.465 41.8919 10.3054L48.7909 5.399C48.9063 5.31598 49.0371 5.25715 49.1755 5.22601C49.3139 5.19486 49.4572 5.19204 49.5968 5.21771C49.7363 5.24338 49.8692 5.297 49.9878 5.37542C50.1063 5.45384 50.2079 5.55544 50.2867 5.67418L52.1434 8.4865C52.2232 8.60554 52.2782 8.73959 52.3052 8.88059C52.3322 9.02159 52.3306 9.16665 52.3004 9.307C52.2703 9.44735 52.2122 9.58013 52.1298 9.69733C52.0474 9.81453 51.9422 9.91374 51.8207 9.989Z" fill="#AA412D"/>
</g>
<defs>
<clipPath id="clip0_5_3331">
<rect width="64" height="70" fill="white"/>
</clipPath>
</defs>
</svg>
