<svg width="80" height="60" viewBox="0 0 80 60" fill="none" xmlns="http://www.w3.org/2000/svg">
<g clip-path="url(#clip0_5_3381)">
<path d="M79.99 19.1256C79.9413 19.9201 79.6092 20.67 79.0549 21.2369L42.3178 59.0505C41.8616 59.5081 41.2801 59.8176 40.648 59.9394C40.4414 59.9827 40.2309 60.0041 40.02 60.0034C39.8091 60.0037 39.5987 59.9823 39.3921 59.9394C38.7603 59.8169 38.179 59.5074 37.7223 59.0505L0.985187 21.2369C0.431915 20.669 0.0990067 19.9199 0.0467834 19.1256H79.99Z" fill="#FFC840"/>
<path d="M79.99 19.1256C79.9413 19.9201 79.6092 20.67 79.0549 21.2369L42.3178 59.0505C41.8616 59.5081 41.2801 59.8176 40.648 59.9394C40.4414 59.9827 40.2309 60.0041 40.02 60.0034V19.1256H79.99Z" fill="#CE581E"/>
<path d="M57.8543 19.1256L40.6311 59.9394C40.4246 59.9827 40.2142 60.0041 40.0033 60.0034C39.7924 60.0037 39.5821 59.9823 39.3755 59.9394L22.1524 19.1256H57.8543Z" fill="#F99027"/>
<path d="M79.99 19.1256H57.8543L65.6792 0.582525C66.4441 0.957961 67.1162 1.50095 67.6463 2.17183L79.2819 16.8225C79.7962 17.4735 80.0489 18.2955 79.99 19.1256Z" fill="#F99027"/>
<path d="M22.1459 19.1256H0.00667957C-0.0495594 18.2916 0.20807 17.4668 0.728114 16.8157L12.3504 2.17183C12.8834 1.50247 13.5561 0.959827 14.3208 0.582525L22.1459 19.1256Z" fill="#F99027"/>
<path d="M65.6792 0.582528L57.8543 19.1256H22.1459L14.3208 0.582528C15.1037 0.199972 15.9623 0.000838853 16.8323 1.03527e-05H63.1644C64.0357 -0.000841927 64.8956 0.198363 65.6792 0.582528Z" fill="#CE581E"/>
<path d="M40 0L22.1458 19.1257H57.8542L40 0Z" fill="#FFC840"/>
<path d="M1.71332 19.1256L19.2368 18.3613C19.3841 18.3547 19.5279 18.3136 19.6567 18.2412C19.7855 18.1688 19.8958 18.0671 19.9788 17.9442C20.0618 17.8213 20.1152 17.6805 20.1349 17.5332C20.1545 17.3858 20.1397 17.2359 20.0918 17.0953L14.6915 1.46473L22.2026 15.974C22.2955 16.1541 22.4295 16.3094 22.5935 16.4271C22.7575 16.5449 22.9468 16.6217 23.146 16.6513C23.3452 16.6808 23.5485 16.6623 23.7393 16.5973C23.93 16.5322 24.1027 16.4225 24.2432 16.277L39.1917 0.838436L26.4774 16.7821C26.3665 16.921 26.2964 17.0884 26.2749 17.2654C26.2534 17.4424 26.2813 17.6219 26.3556 17.7837C26.4299 17.9455 26.5476 18.0831 26.6954 18.181C26.8433 18.2789 27.0154 18.3332 27.1922 18.3377L54.805 19.1324L26.4172 20.5264C26.1805 20.5358 25.9493 20.602 25.7429 20.7193C25.5365 20.8366 25.3608 21.0018 25.2302 21.2012C25.0997 21.4006 25.0182 21.6285 24.9923 21.866C24.9664 22.1034 24.9969 22.3437 25.0813 22.5669L38.7477 58.707L22.1692 22.577C21.9153 22.0237 21.5202 21.5483 21.0244 21.1992C20.5286 20.8502 19.9497 20.6401 19.347 20.5904L1.71332 19.1256Z" fill="white"/>
</g>
<defs>
<clipPath id="clip0_5_3381">
<rect width="80" height="60" fill="white"/>
</clipPath>
</defs>
</svg>
