<svg width="50" height="58" viewBox="0 0 50 58" fill="none" xmlns="http://www.w3.org/2000/svg">
<g clip-path="url(#clip0_5_3467)">
<path d="M10.9808 58C10.5382 57.9996 10.1091 57.8467 9.76472 57.5665C9.42037 57.2864 9.18152 56.8959 9.08786 56.4601C5.74829 40.9206 14.8025 31.4972 21.9039 25.7582C22.3048 25.4344 22.8169 25.2843 23.3276 25.341C23.8382 25.3977 24.3056 25.6564 24.6269 26.0604C24.9483 26.4643 25.0972 26.9803 25.0409 27.4948C24.9847 28.0094 24.7279 28.4804 24.3271 28.8042C14.1812 36.9994 10.6521 45.272 12.8761 55.6381C12.9851 56.1443 12.8902 56.6735 12.6121 57.1091C12.3341 57.5448 11.8958 57.8513 11.3934 57.9613C11.2576 57.9884 11.1193 58.0013 10.9808 58Z" fill="#D56132"/>
<path d="M39.4295 40.6619C38.7961 38.3822 37.0975 36.1195 34.0291 33.4361C32.1506 31.7946 30.3416 30.5133 30.2649 30.4601L27.8178 28.7292C27.7075 28.651 27.6152 28.5499 27.5469 28.4328C27.4786 28.3156 27.436 28.1851 27.4219 28.0499C27.4076 27.9099 27.4245 27.7684 27.4713 27.6357C27.5181 27.5031 27.5936 27.3826 27.6924 27.283C27.7912 27.1835 27.9108 27.1073 28.0425 27.0602C28.1741 27.013 28.3145 26.996 28.4535 27.0104C28.9642 27.0632 29.4474 27.2696 29.8402 27.6027L31.666 29.1426C31.7236 29.191 32.8391 30.129 34.3506 31.2265C35.5221 32.1006 36.7499 32.8953 38.026 33.6053C40.4252 34.9276 42.4164 35.4981 44.2637 35.4135H44.2853C44.3861 35.4135 44.4868 35.4135 44.5876 35.3942H44.6188C46.1783 35.2482 47.617 34.4859 48.6204 33.2742C49.6238 32.0624 50.1103 30.4996 49.9736 28.9275C49.9736 28.8985 49.9736 28.8695 49.9736 28.8404L49.9593 28.6881C49.9593 28.6616 49.9592 28.6349 49.9472 28.6083C49.9352 28.5818 49.9328 28.5044 49.9232 28.4512V28.4101C49.726 27.2885 49.2147 26.2469 48.4496 25.4083C47.6845 24.5697 46.6975 23.9689 45.6048 23.6767H45.6168L45.8016 23.5873L45.8711 23.5486L45.9959 23.4809L46.0727 23.4374L46.1854 23.3697L46.267 23.3189L46.3702 23.2513C46.3983 23.2341 46.4255 23.2156 46.4517 23.1957L46.5501 23.1255L46.6316 23.0675L46.7252 22.995L46.8044 22.9345L46.8956 22.8572L46.9724 22.7919L47.0611 22.7146L47.1355 22.6469L47.2194 22.5647L47.2914 22.4946L47.3754 22.41L47.4426 22.3374L47.5217 22.248L47.5889 22.1755C47.6129 22.144 47.6393 22.1126 47.6657 22.0836C47.6921 22.0546 47.7065 22.0328 47.7281 22.0062L47.8024 21.9095L47.86 21.8346L47.932 21.7331L47.9872 21.6557C48.0112 21.6195 48.0351 21.5856 48.0567 21.5493L48.1071 21.4744L48.1791 21.3535C48.1941 21.3319 48.2077 21.3092 48.2199 21.2858C48.2511 21.2375 48.2774 21.1867 48.3062 21.1335L48.3278 21.0949L48.4286 20.9014C48.4286 20.8821 48.4454 20.8652 48.4526 20.8458C48.4598 20.8265 48.4982 20.7492 48.5198 20.7008C48.5414 20.6525 48.5413 20.6501 48.5533 20.6259C48.5653 20.6017 48.5893 20.5413 48.6061 20.4977C48.6229 20.4542 48.6277 20.4422 48.6397 20.4131C48.6517 20.3841 48.6685 20.3334 48.6853 20.2923C48.7021 20.2512 48.7045 20.2318 48.7165 20.2004C48.7285 20.169 48.7429 20.123 48.7549 20.0819L48.7836 19.9877C48.7956 19.949 48.8077 19.9079 48.8173 19.8692C48.8269 19.8305 48.8364 19.8039 48.8436 19.7725C48.8508 19.7411 48.8652 19.6927 48.8748 19.6541L48.8964 19.5525C48.8964 19.5138 48.9132 19.4727 48.9204 19.4341C48.9276 19.3954 48.9348 19.3664 48.9396 19.3325L48.9612 19.2116L48.9756 19.1101C48.9756 19.069 48.9756 19.0279 48.9924 18.9868C49.0092 18.9457 48.9924 18.9191 48.9924 18.8829C48.9924 18.8466 48.9924 18.8007 48.9924 18.7596C48.9924 18.7185 48.9924 18.6919 48.9924 18.6556C48.9924 18.6194 48.9924 18.5734 48.9924 18.5299C48.9924 18.4864 48.9924 18.4622 48.9924 18.426V18.2979C48.9924 18.264 48.9924 18.2302 48.9924 18.1963C48.9936 18.1851 48.9936 18.1737 48.9924 18.1625C48.9924 18.1431 48.9924 18.1214 48.9924 18.102C48.9924 18.0319 48.9924 17.9618 48.9924 17.8941C48.9924 17.8651 48.9924 17.8385 48.9924 17.8119C48.9924 17.7853 48.9924 17.7684 48.9924 17.7442C48.9924 17.7201 48.9924 17.6645 48.9804 17.6234L48.966 17.5049C48.966 17.4276 48.9444 17.3526 48.9324 17.2777C48.9338 17.2591 48.9338 17.2406 48.9324 17.2221C48.7526 16.1988 48.3107 15.2405 47.6505 14.4421C46.9902 13.6437 46.1346 13.0329 45.1682 12.67L44.9883 12.6071L44.9115 12.5805C44.3591 12.3982 43.7822 12.302 43.2009 12.2952H43.1817C43.1026 12.2952 43.021 12.2952 42.9418 12.2952H42.7739H42.6683H42.582H42.5004H42.426C40.2284 12.537 37.9996 13.7288 35.339 16.1149C34.5305 16.8401 33.7388 17.6137 32.9711 18.4235L32.9351 18.4646C31.7835 19.6734 30.9774 20.6404 30.9318 20.696L29.0701 22.9297C28.9361 23.0904 28.7649 23.2155 28.5716 23.2939C28.3783 23.3723 28.1689 23.4016 27.9617 23.3794C27.6703 23.3492 27.3981 23.2188 27.191 23.0101C26.9839 22.8014 26.8544 22.5271 26.8245 22.2335V22.1392C26.8033 21.9307 26.8331 21.72 26.9113 21.5258C26.9895 21.3315 27.1138 21.1595 27.2732 21.0247L29.4324 19.185C29.5044 19.1246 31.1958 17.6886 32.9255 15.8876C35.7517 12.948 37.2439 10.545 37.6805 8.21698C38.3259 4.75757 36.0012 1.37794 32.5368 0.991147C31.3027 0.853679 30.0569 1.10983 28.9749 1.7235C27.8929 2.33718 27.0292 3.27746 26.5055 4.41188C26.1867 3.20278 25.4989 2.12518 24.5393 1.33134C23.5797 0.537502 22.3969 0.0675803 21.1578 -0.0120803C17.6719 -0.239323 14.8074 2.68339 14.8457 6.20323C14.8721 8.56994 15.9301 11.2001 18.2045 14.5894C19.5984 16.666 21.0163 18.3776 21.0835 18.4574L22.6765 20.3745C23.0008 20.7645 23.2014 21.2437 23.2523 21.75C23.2665 21.89 23.2497 22.0316 23.2029 22.1642C23.1561 22.2969 23.0805 22.4173 22.9817 22.5169C22.8829 22.6164 22.7633 22.6926 22.6317 22.7397C22.5 22.7869 22.3596 22.8039 22.2206 22.7895H22.2015C22.0677 22.7753 21.9385 22.7323 21.8226 22.6635C21.7067 22.5947 21.6069 22.5016 21.5297 22.3906L19.7759 19.8692C19.7208 19.7943 18.4492 17.9715 16.8202 16.0786C14.1596 12.9842 11.9116 11.2727 9.64928 10.6344C6.23533 9.66746 2.75178 11.6643 2.05844 15.1696C1.81379 16.3961 1.95779 17.6691 2.47008 18.8087C2.98237 19.9482 3.83709 20.8968 4.91342 21.5203C3.69023 21.7356 2.56503 22.3326 1.69675 23.2271C0.828476 24.1215 0.260955 25.2682 0.0743629 26.5052C-0.463039 30.0371 2.13282 33.1097 5.66912 33.3829C8.01066 33.5642 10.7073 32.7277 14.2532 30.7382C16.4268 29.5294 18.2429 28.2482 18.3197 28.1926L20.4597 26.6865C20.8787 26.39 21.3899 26.2561 21.8992 26.3094H22.0143C22.5019 26.3596 22.9574 26.5777 23.3039 26.9269C23.6505 27.2762 23.8669 27.7351 23.9168 28.2264C23.9689 28.7391 23.8369 29.2537 23.5449 29.6769L22.0047 31.8961C21.952 31.9735 20.6852 33.8011 19.4785 35.9913C17.504 39.5692 16.6763 42.2768 16.8562 44.6435C17.1225 48.1512 20.2294 50.8128 23.6817 50.281C24.9091 50.092 26.0465 49.5195 26.9337 48.6442C27.8209 47.7689 28.4129 46.635 28.6263 45.4025C29.2455 46.4868 30.1869 47.3479 31.3176 47.8644C32.4483 48.381 33.7113 48.5269 34.9287 48.2817C38.4075 47.6121 40.3843 44.1044 39.4295 40.6619Z" fill="#D56132"/>
<path d="M23.6049 50.3221C24.8475 50.1476 26.0031 49.5803 26.9054 48.7019C27.8078 47.8235 28.4103 46.6793 28.6262 45.434L26.6422 34.1009C26.5399 33.5174 26.2659 32.9783 25.8557 32.5538C25.4455 32.1292 24.9181 31.8387 24.342 31.7201C23.7658 31.6015 23.1676 31.6602 22.625 31.8886C22.0824 32.117 21.6206 32.5046 21.2994 33.0009C18.5692 37.2218 16.2972 41.7038 16.9521 45.4461C17.2098 46.9731 18.05 48.338 19.2932 49.2492C20.5363 50.1603 22.0838 50.5454 23.6049 50.3221Z" fill="#FFC840"/>
<path d="M28.6263 45.434C29.3176 46.6436 30.4075 47.5711 31.7067 48.0554C33.0059 48.5397 34.4324 48.5503 35.7386 48.0852C37.0447 47.6202 38.148 46.709 38.8568 45.5097C39.5657 44.3104 39.8353 42.8988 39.619 41.5201C39.0144 37.744 35.231 34.2024 31.2773 31.2048C30.8075 30.8499 30.2426 30.6457 29.6561 30.6185C29.0695 30.5914 28.4885 30.7427 27.9884 31.0526C27.4883 31.3626 27.0922 31.817 26.8518 32.3567C26.6113 32.8964 26.5374 33.4965 26.6398 34.0791L28.6263 45.4412V45.434Z" fill="#F99027"/>
<path d="M21.0834 0.00968454C22.3361 0.0740415 23.5362 0.53728 24.511 1.33271C25.4858 2.12815 26.185 3.21473 26.5079 4.43606L25.5146 15.9021C25.4636 16.493 25.2374 17.0547 24.8652 17.5142C24.4931 17.9737 23.9923 18.3097 23.428 18.4784C22.8638 18.6472 22.2622 18.6409 21.7015 18.4603C21.1409 18.2798 20.6471 17.9334 20.2845 17.4662C17.1992 13.5016 14.5483 9.24685 14.8769 5.45142C15.0022 3.90764 15.7214 2.47437 16.881 1.45763C18.0406 0.44089 19.5488 -0.078746 21.0834 0.00968454Z" fill="#FFC840"/>
<path d="M26.5103 4.43847C27.0929 3.17118 28.0979 2.14977 29.3506 1.55193C30.6033 0.954095 32.0243 0.817647 33.3665 1.16632C34.7087 1.515 35.8871 2.32675 36.6968 3.46036C37.5065 4.59396 37.8961 5.97769 37.7981 7.37086C37.5222 11.1856 34.0603 15.0463 30.38 18.38C29.9426 18.7746 29.3977 19.0274 28.8158 19.1058C28.234 19.1842 27.6422 19.0846 27.1174 18.8197C26.5925 18.5549 26.1588 18.1371 25.8725 17.6207C25.5863 17.1043 25.4607 16.5131 25.5122 15.9239L26.5079 4.43605L26.5103 4.43847Z" fill="#F99027"/>
<path d="M49.9904 29.1354C49.9265 27.8731 49.4668 26.6638 48.6774 25.6815C47.8881 24.6993 46.8097 23.9948 45.5976 23.6695L34.221 24.6727C33.6344 24.7237 33.0767 24.9513 32.6203 25.3262C32.164 25.701 31.8302 26.2056 31.6625 26.7742C31.4947 27.3429 31.5008 27.9493 31.6799 28.5144C31.8589 29.0796 32.2027 29.5773 32.6664 29.9428C36.6009 33.0493 40.8354 35.7206 44.59 35.3894C46.122 35.2632 47.5444 34.5385 48.5534 33.37C49.5625 32.2015 50.0782 30.6818 49.9904 29.1354Z" fill="#F99027"/>
<path d="M45.5976 23.6719C46.8528 23.0827 47.8637 22.0694 48.455 20.8077C49.0462 19.546 49.1805 18.1156 48.8346 16.7646C48.4886 15.4135 47.6843 14.2272 46.561 13.4112C45.4377 12.5953 44.0665 12.2014 42.6851 12.2977C38.8993 12.5733 35.0679 16.0617 31.7595 19.7725C29.9866 21.7597 31.5556 24.9097 34.1971 24.6776L45.5976 23.6719Z" fill="#FFC840"/>
<path d="M0.0600035 26.597C0.233556 25.3451 0.796624 24.1808 1.66828 23.2716C2.53993 22.3625 3.67527 21.7552 4.91101 21.5372L16.158 23.5365C16.7378 23.639 17.2735 23.915 17.6954 24.3286C18.1173 24.7421 18.4059 25.274 18.5237 25.8551C18.6414 26.4362 18.5829 27.0395 18.3557 27.5867C18.1284 28.1338 17.7431 28.5993 17.2497 28.9226C13.0608 31.6737 8.61284 33.9606 4.899 33.3031C3.38365 33.0423 2.02944 32.1951 1.12537 30.9422C0.22131 29.6893 -0.160988 28.13 0.0600035 26.597Z" fill="#F99027"/>
<path d="M4.91102 21.5373C3.70931 20.8417 2.78752 19.7437 2.30602 18.4342C1.82453 17.1247 1.81377 15.6866 2.27557 14.3699C2.73737 13.0532 3.64251 11.9413 4.83365 11.2275C6.02479 10.5136 7.42657 10.2431 8.79518 10.4628C12.5426 11.072 16.0573 14.882 19.0322 18.8684C20.6276 21.003 18.7923 24.0031 16.1797 23.5389L4.90382 21.5373H4.91102Z" fill="#FFC840"/>
<path d="M23.3914 6.22741C23.3914 4.71737 22.1766 3.49325 20.678 3.49325C19.1794 3.49325 17.9646 4.71737 17.9646 6.22741V7.65372C17.9646 9.16376 19.1794 10.3879 20.678 10.3879C22.1766 10.3879 23.3914 9.16376 23.3914 7.65372V6.22741Z" fill="white"/>
<path d="M12.0484 17.5508C11.8678 18.2525 11.4182 18.8533 10.7984 19.2214C10.1785 19.5894 9.43912 19.6946 8.74242 19.5138L7.37013 19.156C6.67385 18.974 6.07774 18.5209 5.71289 17.8962C5.34804 17.2716 5.24428 16.5265 5.42442 15.8247C5.5133 15.477 5.66936 15.1503 5.88368 14.8633C6.09801 14.5764 6.36641 14.3348 6.67347 14.1525C6.98053 13.9702 7.32028 13.8506 7.67324 13.8008C8.02619 13.7509 8.38541 13.7716 8.73041 13.8618L10.1003 14.2196C10.797 14.401 11.3937 14.8539 11.759 15.4787C12.1243 16.1034 12.2285 16.8488 12.0484 17.5508Z" fill="white"/>
</g>
<defs>
<clipPath id="clip0_5_3467">
<rect width="50" height="58" fill="white"/>
</clipPath>
</defs>
</svg>
