<svg width="47" height="65" viewBox="0 0 47 65" fill="none" xmlns="http://www.w3.org/2000/svg">
<g clip-path="url(#clip0_5_3422)">
<path d="M45.7507 48.9999C47.9517 44.6473 46.2021 39.3373 41.8429 37.1396C37.4837 34.9419 32.1656 36.6888 29.9645 41.0413C27.7635 45.3939 29.513 50.704 33.8722 52.9017C38.2314 55.0994 43.5496 53.3525 45.7507 48.9999Z" fill="#CE581E"/>
<path d="M32.7462 37.876C32.4356 38.0949 32.1394 38.3334 31.8594 38.5901C27.9545 42.2035 30.1119 48.8065 35.421 49.1683L35.6833 49.1803C37.2603 49.221 38.8 48.6973 40.0241 47.7038C41.2482 46.7102 42.0762 45.3123 42.3584 43.7626C42.3727 43.6745 42.387 43.5889 42.3989 43.5032C43.1213 38.2474 37.0827 34.7935 32.7462 37.876Z" fill="#FF9624"/>
<path d="M37.9696 41.8107C37.9189 42.3 37.7241 42.7633 37.4098 43.142C37.0955 43.5208 36.6758 43.798 36.2037 43.9386C35.7317 44.0792 35.2284 44.077 34.7577 43.9321C34.2869 43.7872 33.8697 43.5062 33.5589 43.1246C33.248 42.743 33.0574 42.278 33.0112 41.7883C32.965 41.2986 33.0653 40.8062 33.2993 40.3734C33.5333 39.9405 33.8906 39.5867 34.3259 39.3565C34.7613 39.1264 35.2552 39.0303 35.7453 39.0804C36.0709 39.1137 36.3868 39.2108 36.6749 39.3661C36.963 39.5213 37.2175 39.7318 37.4241 39.9853C37.6307 40.2389 37.7852 40.5306 37.8788 40.8438C37.9723 41.157 38.0032 41.4856 37.9696 41.8107Z" fill="#FF9624"/>
<path d="M31.168 10.2974L32.6771 12.354C33.4046 13.3443 33.9297 14.4679 34.2224 15.6608C34.515 16.8537 34.5695 18.0926 34.3826 19.3065C34.1958 20.5204 33.7713 21.6857 33.1334 22.7358C32.4956 23.786 31.6568 24.7003 30.665 25.4268L28.6052 26.9336C26.9752 28.1281 24.9886 28.7375 22.968 28.6628C20.9475 28.588 19.0115 27.8335 17.4745 26.5218L4.92527 15.8102C4.76919 15.6774 4.64969 15.5069 4.57812 15.3149C4.50655 15.123 4.48526 14.916 4.51631 14.7136C4.54735 14.5111 4.62968 14.32 4.75549 14.1582C4.8813 13.9965 5.04641 13.8695 5.23517 13.7893L20.4401 7.35765C22.2988 6.57098 24.3688 6.43326 26.3156 6.96672C28.2623 7.50018 29.9719 8.67365 31.168 10.2974Z" fill="#E0692B"/>
<path d="M25.2081 21.6944L27.3298 22.0086C29.3939 22.3132 31.4945 21.7866 33.1698 20.5447C34.845 19.3029 35.9575 17.4474 36.2626 15.3865L36.5749 13.268C36.8244 11.5902 36.4983 9.87751 35.6496 8.4082C34.8008 6.93889 33.4793 5.79939 31.8999 5.17487L19.0264 0.07137C18.8666 0.00729793 18.6929 -0.014798 18.5221 0.0071542C18.3512 0.0291065 18.1889 0.0943836 18.0505 0.19678C17.9121 0.299176 17.8022 0.43526 17.7314 0.59207C17.6607 0.748879 17.6313 0.921186 17.6461 1.09255L18.8119 14.8843C18.9539 16.5729 19.6628 18.164 20.8237 19.4001C21.9846 20.6361 23.5295 21.4446 25.2081 21.6944Z" fill="#AA412D"/>
<path d="M19.2887 16.9885L34.477 19.3212C35.0488 20.6726 35.2281 22.1575 34.9943 23.6059L34.6558 25.7196C34.3883 27.3938 33.5619 28.9287 32.3108 30.0751C31.0597 31.2214 29.4573 31.912 27.7637 32.0346L13.9367 33.0391C13.7649 33.0516 13.5929 33.0201 13.4367 32.9475C13.2806 32.875 13.1456 32.7638 13.0446 32.6246C12.9436 32.4853 12.8799 32.3226 12.8595 32.1519C12.8392 31.9812 12.8628 31.8081 12.9283 31.649L18.1897 18.8452C18.466 18.1774 18.8361 17.5522 19.2887 16.9885Z" fill="#CE581E"/>
<path d="M29.9761 19.5259C29.7208 19.5281 29.4711 19.4516 29.2609 19.3069C29.0797 19.1808 24.8005 16.153 23.2342 8.46922C23.1711 8.148 23.2378 7.81492 23.4197 7.54259C23.6016 7.27026 23.8839 7.08078 24.2051 7.01544C24.5263 6.9501 24.8604 7.01421 25.1345 7.19379C25.4086 7.37338 25.6005 7.6539 25.6683 7.97414C27.02 14.6177 30.6412 17.2455 30.6746 17.2717C30.8888 17.4242 31.0491 17.6407 31.1324 17.8899C31.2158 18.1391 31.2179 18.4082 31.1384 18.6587C31.0589 18.9091 30.902 19.128 30.6902 19.2838C30.4784 19.4396 30.2225 19.5244 29.9594 19.5259H29.9761Z" fill="#CE581E"/>
<path d="M20.3377 25.7601C20.1015 25.7608 19.87 25.694 19.6705 25.5677C19.471 25.4415 19.3118 25.2609 19.2116 25.0473C19.1114 24.8338 19.0744 24.596 19.105 24.3622C19.1355 24.1283 19.2324 23.908 19.3841 23.7273C24.4214 17.7098 29.6352 17.079 29.8473 17.0623C30.1689 17.0366 30.4879 17.1368 30.7368 17.3417C30.9857 17.5467 31.145 17.8402 31.1809 18.1604C31.2169 18.4805 31.1267 18.802 30.9294 19.0569C30.7321 19.3118 30.4432 19.48 30.1239 19.526C30.0738 19.526 25.6373 20.1282 21.2865 25.3245C21.1696 25.4616 21.0241 25.5717 20.8603 25.6469C20.6964 25.7221 20.518 25.7608 20.3377 25.7601Z" fill="#70A950"/>
<path d="M38.9279 21.7563C38.8641 21.7563 38.8003 21.7515 38.7372 21.742L38.1602 21.654C36.8406 21.451 35.5383 21.1478 34.2648 20.747C27.4209 18.5927 20.2631 17.6022 13.0904 17.8168C12.7616 17.8279 12.4419 17.7081 12.2016 17.4838C11.9613 17.2595 11.8201 16.949 11.809 16.6207C11.798 16.2925 11.918 15.9732 12.1426 15.7333C12.3673 15.4933 12.6782 15.3523 13.0069 15.3413C20.4623 15.113 27.9029 16.1415 35.0158 18.3834C36.1666 18.7472 37.3438 19.0217 38.5369 19.2046L39.1138 19.2926C39.4261 19.336 39.7101 19.4966 39.908 19.7416C40.1059 19.9866 40.2029 20.2977 40.1792 20.6116C40.1555 20.9255 40.0129 21.2186 39.7804 21.4313C39.548 21.6439 39.2431 21.7601 38.9279 21.7563Z" fill="#AA412D"/>
<path d="M32.1216 30.4469C31.8158 30.4462 31.5153 30.367 31.2489 30.217C30.9826 30.067 30.7592 29.8512 30.6003 29.5903C30.4414 29.3294 30.3523 29.0321 30.3415 28.727C30.3307 28.4218 30.3986 28.1191 30.5387 27.8476L31.888 25.2411C32.918 23.2373 34.3359 21.4575 36.0595 20.0046C37.7831 18.5516 39.7782 17.4545 41.9293 16.7766L44.051 16.1006C44.5018 15.957 44.9913 15.9981 45.4118 16.2148C45.8323 16.4315 46.1493 16.8061 46.2931 17.2563C46.437 17.7064 46.3959 18.1951 46.1788 18.615C45.9617 19.0348 45.5865 19.3514 45.1357 19.495L43.0116 20.1686C41.3075 20.7064 39.727 21.5761 38.3615 22.7274C36.996 23.8788 35.8727 25.2889 35.0563 26.8764L33.707 29.4829C33.5568 29.7734 33.3295 30.0171 33.0498 30.1871C32.7702 30.3572 32.4491 30.447 32.1216 30.4469Z" fill="#AA412D"/>
<path d="M32.2815 57.2101C34.5334 52.8835 32.8461 47.5534 28.5129 45.3049C24.1798 43.0565 18.8415 44.7411 16.5896 49.0677C14.3378 53.3943 16.025 58.7245 20.3582 60.9729C24.6914 63.2214 30.0297 61.5367 32.2815 57.2101Z" fill="#CE581E"/>
<path d="M19.3197 45.993C19.0083 46.2118 18.7113 46.4503 18.4305 46.7071C14.5279 50.318 16.6854 56.9235 22.0064 57.2829C22.0923 57.2829 22.1805 57.2948 22.2687 57.2972C23.8459 57.3374 25.3856 56.8131 26.6097 55.8192C27.8338 54.8253 28.6617 53.4271 28.9438 51.8772C28.9581 51.7915 28.9724 51.7058 28.9843 51.6201C29.6924 46.3619 23.6562 42.9104 19.3197 45.993Z" fill="#FF9624"/>
<path d="M24.543 49.9253C24.4928 50.4147 24.2984 50.8783 23.9843 51.2574C23.6703 51.6365 23.2506 51.9141 22.7786 52.0551C22.3065 52.1961 21.8032 52.1941 21.3322 52.0494C20.8613 51.9048 20.4438 51.6239 20.1327 51.2424C19.8217 50.8609 19.6309 50.3958 19.5845 49.906C19.5381 49.4162 19.6383 48.9236 19.8723 48.4907C20.1063 48.0577 20.4636 47.7038 20.899 47.4736C21.3345 47.2434 21.8286 47.1473 22.3187 47.1975C22.976 47.2647 23.5795 47.5899 23.9966 48.1015C24.4137 48.613 24.6103 49.2691 24.543 49.9253Z" fill="#FFC840"/>
<path d="M33.707 27.4906C33.5281 29.2275 32.8375 30.8725 31.7223 32.2175C30.6072 33.5625 29.1177 34.5471 27.4421 35.0469C25.7666 35.5466 23.9802 35.5391 22.3089 35.0252C20.6376 34.5114 19.1565 33.5142 18.0528 32.1599C16.9491 30.8055 16.2723 29.1548 16.1081 27.4165C15.9439 25.6781 16.2997 23.9302 17.1304 22.3937C17.9611 20.8572 19.2294 19.6012 20.775 18.7844C22.3206 17.9676 24.0741 17.6267 25.8137 17.805C28.1466 18.0446 30.2887 19.1995 31.7689 21.0159C33.2491 22.8322 33.9462 25.1612 33.707 27.4906Z" fill="#CE581E"/>
<path d="M19.787 19.395C19.4756 19.6139 19.1786 19.8524 18.8978 20.1091C14.9952 23.7225 17.1527 30.3256 22.4737 30.6874L22.736 30.6993C24.313 30.74 25.8526 30.2163 27.0768 29.2228C28.3009 28.2293 29.1289 26.8314 29.4111 25.2816C29.4278 25.1936 29.4421 25.1078 29.4516 25.0222C30.1597 19.7664 24.1234 16.3149 19.787 19.395Z" fill="#FF9624"/>
<path d="M25.0079 23.3298C24.9576 23.8193 24.7631 24.2829 24.4489 24.662C24.1347 25.0411 23.7149 25.3186 23.2427 25.4595C22.7705 25.6003 22.2671 25.5982 21.7961 25.4533C21.3251 25.3084 20.9078 25.0273 20.5968 24.6456C20.2859 24.2638 20.0953 23.7985 20.0492 23.3086C20.0032 22.8187 20.1037 22.3261 20.338 21.8933C20.5724 21.4604 20.93 21.1067 21.3658 20.8768C21.8015 20.6469 22.2958 20.5512 22.786 20.6019C23.1113 20.6351 23.4269 20.7322 23.7147 20.8873C24.0024 21.0424 24.2568 21.2527 24.4631 21.506C24.6695 21.7594 24.8238 22.0508 24.9173 22.3637C25.0107 22.6767 25.0415 23.005 25.0079 23.3298Z" fill="#FFC840"/>
<path d="M46.9547 35.2934C46.7759 37.0303 46.0852 38.6752 44.9701 40.0202C43.8549 41.3652 42.3654 42.3498 40.6899 42.8496C39.0143 43.3494 37.2279 43.3419 35.5566 42.828C33.8854 42.3141 32.4042 41.317 31.3005 39.9626C30.1968 38.6083 29.52 36.9576 29.3558 35.2192C29.1917 33.4809 29.5474 31.7329 30.3781 30.1964C31.2088 28.66 32.4771 27.404 34.0227 26.5872C35.5683 25.7704 37.3218 25.4295 39.0614 25.6077C41.3943 25.8473 43.5364 27.0023 45.0166 28.8186C46.4968 30.6349 47.194 32.9639 46.9547 35.2934Z" fill="#CE581E"/>
<path d="M33.0347 27.1954C32.7233 27.4143 32.4263 27.6528 32.1455 27.9095C28.2429 31.5205 30.398 38.1259 35.7214 38.4854C35.8072 38.4854 35.8954 38.4973 35.9837 38.4997C37.561 38.5403 39.1009 38.0163 40.3251 37.0222C41.5493 36.0282 42.3771 34.6298 42.6588 33.0796C42.6755 32.9939 42.6874 32.9082 42.6993 32.8225C43.4073 27.5667 37.3664 24.1153 33.0347 27.1954Z" fill="#FF9624"/>
<path d="M38.2556 31.1301C38.2054 31.6196 38.011 32.0831 37.6969 32.4622C37.3828 32.8413 36.9633 33.1189 36.4912 33.2599C36.0191 33.4009 35.5158 33.3989 35.0448 33.2543C34.5739 33.1096 34.1565 32.8288 33.8454 32.4472C33.5343 32.0657 33.3435 31.6006 33.2971 31.1108C33.2508 30.621 33.3509 30.1285 33.5849 29.6955C33.8189 29.2625 34.1762 28.9086 34.6117 28.6784C35.0471 28.4482 35.5412 28.3521 36.0314 28.4022C36.6886 28.4695 37.2921 28.7947 37.7092 29.3062C38.1264 29.8178 38.3229 30.4739 38.2556 31.1301Z" fill="#FFC840"/>
<path d="M23.5894 30.2351C23.4105 31.9721 22.7197 33.6171 21.6044 34.9621C20.4892 36.3071 18.9995 37.2917 17.3238 37.7913C15.6481 38.291 13.8617 38.2833 12.1903 37.7692C10.519 37.2551 9.03797 36.2577 7.93438 34.9031C6.8308 33.5485 6.15428 31.8976 5.99039 30.1591C5.82651 28.4207 6.18262 26.6727 7.01368 25.1363C7.84473 23.5999 9.11343 22.3441 10.6593 21.5277C12.2052 20.7112 13.9588 20.3708 15.6984 20.5494C18.0312 20.789 20.1731 21.9441 21.6529 23.7605C23.1327 25.5769 23.8293 27.9059 23.5894 30.2351Z" fill="#CE581E"/>
<path d="M9.66935 22.1396C9.35874 22.3584 9.06253 22.5969 8.78252 22.8537C4.87758 26.467 7.03509 33.0725 12.3442 33.4319H12.6064C14.1834 33.4726 15.7231 32.9489 16.9472 31.9554C18.1714 30.9619 18.9993 29.564 19.2815 28.0142C19.2958 27.9285 19.3102 27.8404 19.3221 27.7548C20.0444 22.5109 14.0034 19.0594 9.66935 22.1396Z" fill="#FFC840"/>
<path d="M14.8927 26.0742C14.8425 26.5637 14.648 27.0273 14.334 27.4064C14.0199 27.7855 13.6003 28.0631 13.1282 28.2041C12.6562 28.345 12.1528 28.3431 11.6819 28.1984C11.2109 28.0538 10.7935 27.7729 10.4824 27.3913C10.1713 27.0098 9.98055 26.5447 9.93418 26.0549C9.88782 25.5651 9.98795 25.0726 10.2219 24.6396C10.4559 24.2067 10.8132 23.8527 11.2487 23.6225C11.6842 23.3923 12.1783 23.2962 12.6684 23.3464C13.3256 23.4137 13.9292 23.7388 14.3463 24.2504C14.7634 24.762 14.9599 25.418 14.8927 26.0742Z" fill="white"/>
<path d="M32.613 43.7284C35.5892 39.8626 34.8633 34.3198 30.9916 31.3481C27.12 28.3765 21.5687 29.1013 18.5925 32.967C15.6163 36.8328 16.3422 42.3756 20.2138 45.3473C24.0855 48.319 29.6368 47.5941 32.613 43.7284Z" fill="#CE581E"/>
<path d="M20.4807 31.1611C20.1689 31.3793 19.8718 31.6178 19.5915 31.8752C15.6865 35.4885 17.844 42.0916 23.1531 42.4534L23.4154 42.4653C24.9924 42.5061 26.532 41.9823 27.7561 40.9888C28.9803 39.9953 29.8083 38.5974 30.0905 37.0476C30.1048 36.9596 30.1191 36.8739 30.131 36.7882C30.8534 31.5347 24.8148 28.0809 20.4807 31.1611Z" fill="#FFC840"/>
<path d="M25.7016 35.0981C25.6509 35.5874 25.4562 36.0507 25.1419 36.4295C24.8275 36.8082 24.4078 37.0854 23.9358 37.226C23.4637 37.3667 22.9605 37.3644 22.4897 37.2195C22.019 37.0746 21.6018 36.7936 21.2909 36.412C20.9801 36.0305 20.7895 35.5654 20.7433 35.0757C20.6971 34.586 20.7973 34.0936 21.0313 33.6608C21.2653 33.228 21.6226 32.8741 22.058 32.644C22.4933 32.4139 22.9873 32.3178 23.4773 32.3679C23.8031 32.4009 24.1192 32.4977 24.4074 32.6529C24.6956 32.8081 24.9503 33.0185 25.1569 33.2721C25.3636 33.5258 25.518 33.8176 25.6115 34.131C25.705 34.4443 25.7356 34.773 25.7016 35.0981Z" fill="white"/>
<path d="M22.5095 44.5981C22.3306 46.335 21.6398 47.9801 20.5245 49.3251C19.4093 50.6701 17.9196 51.6546 16.2439 52.1543C14.5682 52.654 12.7817 52.6463 11.1104 52.1322C9.43912 51.6181 7.95804 50.6207 6.85446 49.2661C5.75087 47.9115 5.07435 46.2606 4.91047 44.5222C4.74658 42.7837 5.1027 41.0357 5.93375 39.4993C6.76481 37.9629 8.0335 36.7071 9.57938 35.8906C11.1253 35.0742 12.8789 34.7338 14.6185 34.9124C16.9513 35.152 19.0931 36.3071 20.573 38.1235C22.0528 39.9399 22.7494 42.2688 22.5095 44.5981Z" fill="#CE581E"/>
<path d="M8.59185 36.5001C8.28006 36.7184 7.98298 36.957 7.7026 37.2142C3.80004 40.8252 5.95515 47.4307 11.2786 47.7901C11.3644 47.7901 11.4526 47.7901 11.5384 47.8044C13.1158 47.845 14.6557 47.321 15.8799 46.327C17.1041 45.333 17.9318 43.9345 18.2136 42.3843C18.2302 42.2986 18.2421 42.213 18.2541 42.1273C18.9645 36.8739 12.9259 33.42 8.59185 36.5001Z" fill="#FFC840"/>
<path d="M13.8127 40.4444C13.7625 40.9338 13.5681 41.3974 13.2541 41.7765C12.94 42.1556 12.5204 42.4332 12.0483 42.5742C11.5762 42.7151 11.0729 42.7132 10.602 42.5685C10.131 42.4239 9.71359 42.143 9.40249 41.7615C9.0914 41.38 8.90062 40.9149 8.85426 40.4251C8.80789 39.9353 8.90802 39.4428 9.14201 39.0098C9.376 38.5768 9.73332 38.2228 10.1688 37.9926C10.6043 37.7624 11.0983 37.6664 11.5885 37.7165C12.2457 37.7838 12.8493 38.109 13.2664 38.6206C13.6835 39.1321 13.88 39.7882 13.8127 40.4444Z" fill="white"/>
<path d="M17.639 57.0735C17.4601 58.8104 16.7693 60.4554 15.654 61.8004C14.5388 63.1454 13.0491 64.13 11.3734 64.6297C9.69773 65.1294 7.91128 65.1217 6.23997 64.6076C4.56866 64.0935 3.08756 63.096 1.98398 61.7414C0.880392 60.3869 0.203897 58.736 0.040014 56.9975C-0.123869 55.259 0.232244 53.5111 1.0633 51.9747C1.89436 50.4383 3.16302 49.1825 4.7089 48.366C6.25477 47.5496 8.00843 47.2091 9.74806 47.3878C12.0808 47.6274 14.2227 48.7825 15.7025 50.5989C17.1824 52.4153 17.8789 54.7443 17.639 57.0735Z" fill="#CE581E"/>
<path d="M3.71898 48.978C3.40837 49.1968 3.11216 49.4353 2.83215 49.6921C-1.07279 53.3054 1.08469 59.9085 6.39379 60.2703H6.65605C8.23342 60.3109 9.77332 59.7869 10.9975 58.7929C12.2217 57.7988 13.0495 56.4004 13.3312 54.8502C13.3455 54.7646 13.3598 54.6788 13.3717 54.5932C14.094 49.3469 8.05543 45.8954 3.71898 48.978Z" fill="#FF9624"/>
<path d="M8.9423 52.9126C8.89165 53.4018 8.69687 53.8652 8.38257 54.2439C8.06826 54.6227 7.64856 54.8999 7.1765 55.0405C6.70444 55.1811 6.2012 55.1789 5.73043 55.034C5.25966 54.8891 4.84249 54.6081 4.53163 54.2265C4.22078 53.845 4.03019 53.3799 3.98398 52.8902C3.93777 52.4005 4.03801 51.9081 4.27202 51.4753C4.50603 51.0424 4.8633 50.6886 5.29868 50.4584C5.73406 50.2283 6.22798 50.1322 6.71804 50.1823C7.04381 50.2153 7.35987 50.3122 7.64808 50.4674C7.9363 50.6225 8.19102 50.833 8.39764 51.0866C8.60427 51.3402 8.75874 51.6321 8.8522 51.9454C8.94567 52.2587 8.97628 52.5874 8.9423 52.9126Z" fill="#FFE783"/>
</g>
<defs>
<clipPath id="clip0_5_3422">
<rect width="47" height="65" fill="white"/>
</clipPath>
</defs>
</svg>
