<svg width="55" height="59" viewBox="0 0 55 59" fill="none" xmlns="http://www.w3.org/2000/svg">
<g clip-path="url(#clip0_5_3488)">
<path d="M15.6521 56.414L22.0916 49.9105L14.9361 33.2495C14.2282 31.595 13.8636 29.8179 13.8636 28.0228C13.8636 26.2277 14.2282 24.4506 14.9361 22.796C17.1399 17.6614 21.836 14.5975 27.5013 14.5975C33.1665 14.5975 37.8626 17.6614 40.069 22.796C40.7756 24.4509 41.1396 26.2279 41.1396 28.0228C41.1396 29.8177 40.7756 31.5946 40.069 33.2495L32.9109 49.9105L39.353 56.414C39.7977 56.8629 40.3484 57.1966 40.9559 57.3854C41.5635 57.5743 42.2092 57.6124 42.8353 57.4963C43.4615 57.3803 44.0488 57.1137 44.5449 56.7203C45.0409 56.3269 45.4304 55.819 45.6786 55.2417L52.8417 38.5659C54.2658 35.2309 54.9993 31.65 54.9993 28.0328C54.9993 24.4155 54.2658 20.8347 52.8417 17.4997C50.6859 12.392 46.98 8.06328 42.2298 5.1048C37.808 2.401 32.7053 0.968056 27.4987 0.968056C22.2922 0.968056 17.1895 2.401 12.7676 5.1048C8.01839 8.06427 4.31268 12.3926 2.1558 17.4997C0.731721 20.8347 -0.00183105 24.4155 -0.00183105 28.0328C-0.00183105 31.65 0.731721 35.2309 2.1558 38.5659L9.31888 55.2417C9.5671 55.82 9.957 56.3288 10.4537 56.7228C10.9504 57.1168 11.5386 57.3838 12.1657 57.4999C12.7928 57.6159 13.4393 57.5775 14.0477 57.388C14.656 57.1986 15.2072 56.8639 15.6521 56.414Z" fill="#F99027"/>
<path d="M52.8442 38.5659L50.9111 43.0684C50.5984 43.7965 50.012 44.3776 49.2742 44.6906C48.5364 45.0037 47.7042 45.0244 46.9513 44.7484L39.7881 42.1201C39.3953 41.9744 39.0364 41.7522 38.733 41.4668C38.4296 41.1813 38.188 40.8385 38.0226 40.4589C37.8572 40.0793 37.7714 39.6709 37.7704 39.2579C37.7695 38.8449 37.8533 38.436 38.017 38.0557L40.0791 33.2545C40.7865 31.5998 41.1509 29.8228 41.1509 28.0278C41.1509 26.2327 40.7865 24.4557 40.0791 22.801C37.8753 17.6689 33.1791 14.605 27.5139 14.605C21.8487 14.605 17.1525 17.6689 14.9487 22.801C14.2412 24.4557 13.8768 26.2327 13.8768 28.0278C13.8768 29.8228 14.2412 31.5998 14.9487 33.2545L17.0108 38.0557C17.1745 38.436 17.2583 38.8449 17.2574 39.2579C17.2564 39.6709 17.1706 40.0793 17.0052 40.4589C16.8398 40.8385 16.5982 41.1813 16.2948 41.4668C15.9914 41.7522 15.6325 41.9744 15.2397 42.1201L8.07652 44.7484C7.32359 45.0244 6.49144 45.0037 5.75365 44.6906C5.01585 44.3776 4.42942 43.7965 4.11671 43.0684L2.18356 38.5659C0.416678 34.4515 -0.287494 29.971 0.133853 25.5238C0.5552 21.0767 2.08898 16.8013 4.59836 13.079C7.10774 9.35664 10.5147 6.30317 14.5154 4.19084C18.516 2.07851 22.986 0.973038 27.5266 0.973038C32.0671 0.973038 36.537 2.07851 40.5377 4.19084C44.5384 6.30317 47.9453 9.35664 50.4547 13.079C52.9641 16.8013 54.4979 21.0767 54.9192 25.5238C55.3406 29.971 54.6364 34.4515 52.8695 38.5659H52.8442Z" fill="#FFC840"/>
<path d="M44.9246 58.8059L32.1594 54.1242C31.666 53.9419 31.2661 53.5749 31.0471 53.1033C30.828 52.6318 30.8077 52.0941 30.9905 51.6079L33.6624 44.5617C33.8467 44.0756 34.2196 43.6813 34.6994 43.4657C35.1791 43.25 35.7262 43.2306 36.2205 43.4118L48.9856 48.096C49.2304 48.1852 49.455 48.3211 49.6463 48.4958C49.8376 48.6705 49.992 48.8806 50.1006 49.1142C50.2092 49.3477 50.2699 49.6001 50.2792 49.8567C50.2884 50.1134 50.2461 50.3693 50.1546 50.6098L47.4902 57.656C47.399 57.8976 47.2602 58.119 47.0818 58.3077C46.9033 58.4964 46.6887 58.6486 46.4503 58.7554C46.2119 58.8623 45.9544 58.9217 45.6925 58.9304C45.4307 58.939 45.1697 58.8967 44.9246 58.8059Z" fill="#FFE783"/>
<path d="M45.1625 58.893L31.9216 54.0371C31.492 53.8774 31.1442 53.5567 30.9545 53.1452C30.7648 52.7337 30.7487 52.2651 30.9095 51.8419L32.7566 46.9711C32.919 46.5484 33.2451 46.2063 33.6634 46.0197C34.0817 45.8331 34.5581 45.8172 34.9883 45.9755L48.2291 50.8339C48.6587 50.9936 49.0065 51.3143 49.1962 51.7258C49.3859 52.1373 49.4021 52.606 49.2412 53.0291L47.3941 57.8974C47.2318 58.3201 46.9057 58.6622 46.4874 58.8488C46.0691 59.0354 45.5927 59.0513 45.1625 58.893Z" fill="#F99027"/>
<path d="M34.9807 45.968C34.5505 45.8097 34.074 45.8256 33.6557 46.0122C33.2374 46.1989 32.9114 46.541 32.749 46.9636L31.8406 49.3629C31.6644 49.8286 31.6832 50.3441 31.8929 50.7963C32.1025 51.2484 32.486 51.6003 32.959 51.7747L39.9956 54.3557C41.6012 54.9445 43.3704 54.9353 44.9695 54.3296C46.5686 53.724 47.8873 52.5638 48.6769 51.0678C48.5393 50.9619 48.3856 50.8779 48.2215 50.8189L34.9807 45.968Z" fill="#FFC840"/>
<path d="M10.078 58.8059L22.8431 54.1242C23.3369 53.9424 23.7373 53.5755 23.9564 53.1038C24.1755 52.632 24.1956 52.0941 24.0121 51.6079L21.3401 44.5617C21.1559 44.0756 20.7829 43.6813 20.3032 43.4657C19.8234 43.25 19.2763 43.2306 18.7821 43.4118L6.01696 48.096C5.77234 48.1855 5.54801 48.3215 5.35685 48.4963C5.16569 48.671 5.01144 48.8812 4.90288 49.1146C4.79431 49.3481 4.73358 49.6003 4.72416 49.8569C4.71475 50.1134 4.75679 50.3692 4.84796 50.6098L7.51232 57.656C7.60349 57.8976 7.74231 58.119 7.92076 58.3077C8.09922 58.4964 8.31381 58.6486 8.55221 58.7554C8.79062 58.8623 9.04815 58.9217 9.30999 58.9304C9.57183 58.939 9.8328 58.8967 10.078 58.8059Z" fill="#FFE783"/>
<path d="M9.84014 58.893L23.0809 54.0371C23.5106 53.8774 23.8584 53.5567 24.0481 53.1452C24.2378 52.7337 24.2539 52.2651 24.0931 51.8419L22.246 46.9711C22.0836 46.5484 21.7575 46.2063 21.3392 46.0197C20.9209 45.8331 20.4445 45.8172 20.0143 45.9755L6.77352 50.8339C6.34387 50.9936 5.99609 51.3143 5.80639 51.7258C5.61668 52.1373 5.60052 52.606 5.76142 53.0291L7.60845 57.8974C7.77083 58.3201 8.09692 58.6622 8.51522 58.8488C8.93352 59.0354 9.40994 59.0513 9.84014 58.893Z" fill="#F99027"/>
<path d="M20.0218 45.968C20.452 45.8097 20.9285 45.8256 21.3468 46.0122C21.7651 46.1989 22.0911 46.541 22.2535 46.9636L23.1619 49.3629C23.2495 49.5935 23.29 49.8388 23.2812 50.0848C23.2724 50.3308 23.2144 50.5727 23.1106 50.7967C23.0067 51.0206 22.859 51.2223 22.6759 51.3901C22.4928 51.5579 22.2779 51.6886 22.0435 51.7747L15.0069 54.3557C13.4013 54.944 11.6323 54.9344 10.0333 54.3288C8.43434 53.7232 7.11563 52.5634 6.32562 51.0678C6.46324 50.9619 6.61694 50.8779 6.78108 50.8189L20.0218 45.968Z" fill="#FFC840"/>
<path d="M45.3623 41.8214C44.8043 41.8216 44.2549 41.6858 43.7632 41.4263C43.2715 41.1668 42.8528 40.7916 42.5443 40.3342C42.2359 39.8767 42.0474 39.3513 41.9956 38.8048C41.9438 38.2582 42.0304 37.7076 42.2476 37.202L43.3432 34.6558C44.2325 32.5708 44.6905 30.3324 44.6905 28.0714C44.6905 25.8103 44.2325 23.5719 43.3432 21.4869C42.1863 18.7271 40.3013 16.3213 37.8829 14.5179C37.5196 14.2586 37.2124 13.9308 36.9793 13.5535C36.7462 13.1762 36.5918 12.757 36.5252 12.3204C36.4585 11.8838 36.4809 11.4386 36.591 11.0106C36.7012 10.5826 36.8968 10.1805 37.1666 9.82763C37.4364 9.47481 37.775 9.17836 38.1625 8.9556C38.55 8.73284 38.9787 8.58823 39.4237 8.53018C39.8686 8.47214 40.3208 8.5018 40.7539 8.6175C41.1871 8.7332 41.5925 8.93262 41.9465 9.20406C45.3235 11.7118 47.9559 15.0635 49.5701 18.9109C50.8101 21.8152 51.4488 24.9337 51.4488 28.0838C51.4488 31.2339 50.8101 34.3524 49.5701 37.2567L48.477 39.8029C48.2167 40.403 47.7825 40.9145 47.2286 41.2734C46.6747 41.6324 46.0256 41.823 45.3623 41.8214Z" fill="#F99027"/>
<path d="M45.6963 37.7197C45.2191 37.521 44.8416 37.1441 44.6466 36.6719C44.4516 36.1997 44.4552 35.6706 44.6564 35.2009C44.8584 34.7315 45.2415 34.3602 45.7215 34.1684C46.2016 33.9766 46.7394 33.9801 47.217 34.178C47.6941 34.3767 48.0716 34.7535 48.2666 35.2258C48.4616 35.698 48.4581 36.227 48.2569 36.6968C48.1072 37.0451 47.8565 37.3422 47.5361 37.5512C47.2157 37.7601 46.8398 37.8715 46.4553 37.8715C46.1946 37.8709 45.9366 37.8194 45.6963 37.7197ZM46.1239 28.0378C46.1233 27.5279 46.3283 27.0387 46.6941 26.6775C47.0599 26.3163 47.5565 26.1127 48.0747 26.1113C48.3315 26.1107 48.5858 26.1599 48.8232 26.256C49.0606 26.3521 49.2765 26.4932 49.4583 26.6715C49.6402 26.8497 49.7846 27.0615 49.8832 27.2946C49.9819 27.5278 50.0328 27.7778 50.0332 28.0303C50.0335 28.2826 49.9832 28.5325 49.8854 28.7658C49.7875 28.999 49.6439 29.2111 49.4628 29.3897C49.2816 29.5684 49.0665 29.7102 48.8296 29.8071C48.5928 29.9039 48.3389 29.9539 48.0823 29.9542C47.8258 29.9549 47.5717 29.9059 47.3344 29.8099C47.0972 29.714 46.8815 29.573 46.6996 29.395C46.5177 29.2171 46.3733 29.0056 46.2745 28.7727C46.1758 28.5399 46.1246 28.2901 46.1239 28.0378ZM44.6285 20.8771C44.4252 20.4084 44.4195 19.8796 44.6126 19.4067C44.8058 18.9339 45.1819 18.5559 45.6583 18.3559C46.1352 18.1558 46.6732 18.1501 47.1543 18.34C47.6354 18.53 48.0201 18.9001 48.224 19.3689C48.4273 19.8376 48.433 20.3664 48.2399 20.8393C48.0468 21.3121 47.6707 21.6901 47.1942 21.8901C46.9543 21.9915 46.6963 22.0448 46.4351 22.0469C46.0505 22.048 45.674 21.9376 45.3528 21.7296C45.0315 21.5216 44.7796 21.2251 44.6285 20.8771ZM40.4485 14.8241C40.2644 14.6483 40.1173 14.4385 40.0156 14.2067C39.9139 13.975 39.8596 13.7258 39.8558 13.4734C39.8521 13.221 39.8989 12.9703 39.9936 12.7357C40.0884 12.5011 40.2292 12.2872 40.4081 12.1061C40.5866 11.9251 40.7996 11.7804 41.035 11.6804C41.2704 11.5804 41.5236 11.527 41.78 11.5233C42.0363 11.5196 42.2909 11.5657 42.5292 11.6589C42.7675 11.752 42.9847 11.8905 43.1686 12.0663C43.3527 12.2422 43.4999 12.4519 43.6016 12.6837C43.7033 12.9154 43.7576 13.1646 43.7613 13.417C43.7651 13.6694 43.7182 13.9201 43.6235 14.1547C43.5287 14.3893 43.3879 14.6032 43.2091 14.7842C43.0277 14.9689 42.8102 15.1157 42.5698 15.2157C42.3294 15.3158 42.0709 15.3672 41.8099 15.3667C41.3016 15.3672 40.8131 15.1725 40.4485 14.8241Z" fill="#9E382B"/>
<path d="M9.64023 41.8214C8.97566 41.8213 8.32588 41.6286 7.77195 41.2674C7.21802 40.9062 6.78452 40.3925 6.52555 39.7904L5.43246 37.2443C4.19245 34.3399 3.55374 31.2214 3.55374 28.0713C3.55374 24.9212 4.19245 21.8028 5.43246 18.8984C7.04665 15.0511 9.67906 11.6993 13.0561 9.19159C13.41 8.92014 13.8155 8.72079 14.2486 8.60509C14.6818 8.48939 15.134 8.45966 15.5789 8.51771C16.0238 8.57575 16.4526 8.72036 16.8401 8.94312C17.2276 9.16588 17.5661 9.46234 17.8359 9.81516C18.1057 10.168 18.3014 10.5701 18.4115 10.9981C18.5217 11.4261 18.5441 11.8714 18.4774 12.308C18.4107 12.7446 18.2563 13.1638 18.0232 13.5411C17.7901 13.9184 17.4829 14.2462 17.1197 14.5055C14.7014 16.3083 12.817 18.7144 11.6619 21.4745C10.7714 23.5592 10.3127 25.7976 10.3127 28.0589C10.3127 30.3201 10.7714 32.5587 11.6619 34.6434L12.755 37.1895C12.9722 37.6951 13.0587 38.2458 13.007 38.7923C12.9552 39.3389 12.7667 39.8643 12.4582 40.3217C12.1498 40.7791 11.7311 41.1544 11.2394 41.4139C10.7477 41.6734 10.1982 41.8091 9.64023 41.809V41.8214Z" fill="#F99027"/>
<path d="M6.75323 36.6968C6.55203 36.227 6.54856 35.698 6.74353 35.2258C6.93851 34.7535 7.31602 34.3767 7.79319 34.178C8.2707 33.9801 8.80852 33.9766 9.28861 34.1684C9.76869 34.3602 10.1518 34.7315 10.3538 35.2009C10.4537 35.4334 10.5061 35.6831 10.508 35.9356C10.5098 36.188 10.461 36.4384 10.3645 36.6723C10.2679 36.9063 10.1254 37.1192 9.94514 37.2989C9.76486 37.4786 9.55036 37.6216 9.31387 37.7197C9.07359 37.8194 8.81555 37.8709 8.5548 37.8715C8.17038 37.8715 7.79448 37.7601 7.47407 37.5512C7.15366 37.3422 6.90292 37.0451 6.75323 36.6968ZM6.9278 29.9542C6.67128 29.9539 6.41733 29.9039 6.18047 29.8071C5.9436 29.7102 5.7285 29.5684 5.54735 29.3897C5.3662 29.2111 5.22255 28.999 5.12469 28.7658C5.02683 28.5325 4.97666 28.2826 4.97699 28.0303C4.97732 27.7778 5.02829 27.5278 5.12692 27.2946C5.22555 27.0615 5.36991 26.8497 5.5518 26.6715C5.73368 26.4932 5.94954 26.3521 6.18695 26.256C6.42436 26.1599 6.67867 26.1107 6.9354 26.1113C7.45369 26.1127 7.95026 26.3163 8.31604 26.6775C8.68182 27.0387 8.88688 27.5279 8.88621 28.0378C8.8842 28.5467 8.67725 29.0342 8.31067 29.3934C7.94409 29.7526 7.44775 29.9542 6.93034 29.9542H6.9278ZM7.81845 21.8901C7.58233 21.7913 7.3683 21.6477 7.18861 21.4675C7.00892 21.2873 6.86714 21.074 6.77127 20.8399C6.6754 20.6057 6.62731 20.3553 6.62987 20.1029C6.63242 19.8505 6.68551 19.6011 6.78609 19.3689C6.98997 18.9001 7.37475 18.53 7.85583 18.34C8.33691 18.1501 8.87498 18.1558 9.3518 18.3559C9.5877 18.4549 9.80144 18.5987 9.98078 18.779C10.1601 18.9594 10.3015 19.1728 10.3969 19.407C10.4924 19.6412 10.5399 19.8915 10.5368 20.1438C10.5337 20.3961 10.4802 20.6453 10.3791 20.8771C10.2285 21.2239 9.9778 21.5196 9.65801 21.7275C9.33822 21.9355 8.96341 22.0465 8.58006 22.0469C8.31549 22.0467 8.05373 21.9934 7.81086 21.8901H7.81845ZM11.8011 14.7842C11.6222 14.6032 11.4814 14.3893 11.3867 14.1547C11.2919 13.9201 11.245 13.6694 11.2488 13.417C11.2526 13.1646 11.3068 12.9154 11.4086 12.6837C11.5103 12.4519 11.6574 12.2422 11.8416 12.0663C12.0254 11.8905 12.2427 11.752 12.4809 11.6589C12.7192 11.5657 12.9738 11.5196 13.2302 11.5233C13.4866 11.527 13.7397 11.5804 13.9751 11.6804C14.2105 11.7804 14.4236 11.9251 14.6021 12.1061C14.7809 12.2872 14.9217 12.5011 15.0165 12.7357C15.1113 12.9703 15.1581 13.221 15.1543 13.4734C15.1506 13.7258 15.0963 13.975 14.9946 14.2067C14.8929 14.4385 14.7458 14.6483 14.5616 14.8241C14.1978 15.1721 13.7103 15.3668 13.2028 15.3667C12.9401 15.3684 12.6798 15.3176 12.4375 15.2175C12.1953 15.1174 11.9761 14.97 11.7935 14.7842H11.8011Z" fill="#9E382B"/>
<path d="M27.5013 1.34969e-05C24.4628 -0.00111943 21.4429 0.466696 18.5518 1.38636C18.2225 1.50036 17.9511 1.73545 17.7944 2.04226C17.6378 2.34907 17.6082 2.70366 17.7118 3.03151L21.4818 15.5658C21.5231 15.724 21.5962 15.8725 21.6969 16.0024C21.7975 16.1323 21.9237 16.241 22.0679 16.322C22.2121 16.403 22.3713 16.4547 22.5362 16.474C22.7011 16.4933 22.8683 16.4799 23.0278 16.4344C25.9421 15.5483 29.0605 15.5483 31.9748 16.4344C32.1343 16.4799 32.3015 16.4933 32.4664 16.474C32.6312 16.4547 32.7905 16.403 32.9347 16.322C33.0788 16.241 33.2051 16.1323 33.3057 16.0024C33.4064 15.8725 33.4795 15.724 33.5208 15.5658L37.2908 3.02902C37.3944 2.70116 37.3648 2.34657 37.2082 2.03977C37.0515 1.73296 36.78 1.49787 36.4508 1.38387C33.5593 0.466009 30.5396 -0.000939282 27.5013 1.34969e-05Z" fill="#F99027"/>
<path d="M27.3242 0.00250244C24.3452 0.0181701 21.3864 0.484933 18.5518 1.38636C18.2225 1.50036 17.9511 1.73545 17.7944 2.04225C17.6378 2.34906 17.6082 2.70365 17.7118 3.03151L21.4818 15.5658C21.5231 15.724 21.5962 15.8725 21.6969 16.0024C21.7975 16.1323 21.9237 16.241 22.0679 16.322C22.2121 16.403 22.3713 16.4547 22.5362 16.474C22.7011 16.4933 22.8683 16.4798 23.0278 16.4344C24.4208 16.0072 25.8702 15.7849 27.3293 15.7748L27.3242 0.00250244Z" fill="#FFE783"/>
<path d="M27.5013 1.82639e-05C25.4394 7.66218e-05 23.3823 0.193445 21.3578 0.577466C21.1742 0.613069 21.0003 0.686317 20.8474 0.792513C20.6946 0.898709 20.5662 1.03544 20.4707 1.19374C20.3752 1.35205 20.3147 1.52841 20.2931 1.71128C20.2716 1.89414 20.2895 2.07941 20.3457 2.255L24.3789 14.9485C24.4708 15.2376 24.6618 15.4863 24.9192 15.6524C25.1767 15.8185 25.4847 15.8917 25.7908 15.8595C26.9348 15.7433 28.088 15.7433 29.232 15.8595C29.5381 15.8917 29.8461 15.8185 30.1035 15.6524C30.361 15.4863 30.5519 15.2376 30.6438 14.9485L34.6771 2.255C34.7333 2.07941 34.7512 1.89414 34.7296 1.71128C34.7081 1.52841 34.6476 1.35205 34.552 1.19374C34.4565 1.03544 34.3282 0.898709 34.1754 0.792513C34.0225 0.686317 33.8486 0.613069 33.665 0.577466C31.6338 0.192063 29.5698 -0.00131232 27.5013 1.82639e-05Z" fill="#FFC840"/>
<path d="M27.5013 9.38574C28.8036 9.38574 29.8594 8.34719 29.8594 7.06606C29.8594 5.78494 28.8036 4.74638 27.5013 4.74638C26.1989 4.74638 25.1431 5.78494 25.1431 7.06606C25.1431 8.34719 26.1989 9.38574 27.5013 9.38574Z" fill="#AA412D"/>
</g>
<defs>
<clipPath id="clip0_5_3488">
<rect width="55" height="59" fill="white"/>
</clipPath>
</defs>
</svg>
