<svg width="59" height="62" viewBox="0 0 59 62" fill="none" xmlns="http://www.w3.org/2000/svg">
<g clip-path="url(#clip0_5_3480)">
<path d="M49.2652 0.831067C49.0734 0.835854 48.8854 0.886901 48.7169 0.98002C48.5485 1.07314 48.4044 1.20567 48.2964 1.36658C47.8527 1.93992 47.2748 2.39157 46.6152 2.68044C45.6598 3.15184 44.6123 3.39982 43.5499 3.40612C42.2521 3.38504 40.9612 3.21023 39.7034 2.88525C38.2731 2.53996 36.7871 2.15959 35.2454 1.74407C33.7037 1.32855 32.0995 0.938395 30.4328 0.573597C28.7127 0.193353 26.9567 0.004911 25.1963 0.0117215C22.1205 0.0117215 19.7772 0.499419 18.1663 1.47481C17.2129 2.03337 16.3356 2.71607 15.5567 3.50557C15.4769 3.58408 15.3763 3.63755 15.2672 3.65945C15.1582 3.68135 15.0453 3.67076 14.942 3.62902C14.8387 3.58728 14.7494 3.51618 14.685 3.4242C14.6207 3.33221 14.5839 3.22329 14.5792 3.11058V2.15664C14.5792 1.81051 14.4437 1.47852 14.2025 1.23377C13.9613 0.989025 13.6342 0.851571 13.2931 0.851571H1.29758C0.956228 0.85157 0.62882 0.988966 0.38718 1.23363C0.14554 1.4783 0.00933908 1.81024 0.00857544 2.15664V23.8806C0.00933908 24.227 0.14554 24.559 0.38718 24.8036C0.62882 25.0483 0.956228 25.1857 1.29758 25.1857H13.3306C13.6636 25.1837 13.9831 25.0515 14.2227 24.8166C14.4622 24.5818 14.6033 24.2622 14.6166 23.9245C14.6415 22.8637 14.7906 21.8097 15.0607 20.7847C15.2884 19.8656 15.7338 19.0168 16.3583 18.3121C16.8392 17.7866 17.4637 17.4189 18.1519 17.2558C18.7954 17.1163 19.4518 17.0466 20.1098 17.048C20.7865 17.0946 21.4574 17.2054 22.1138 17.3787C23.075 17.601 24.1679 17.8712 25.3924 18.1892C26.6208 18.5082 27.8608 18.7745 29.1209 18.9998C30.2573 19.2083 31.409 19.3189 32.5638 19.3304C34.0898 19.3342 35.6 19.0163 36.9986 18.397L37.0419 18.3765C37.1799 18.3157 37.3348 18.3064 37.4789 18.3504C37.623 18.3943 37.7471 18.4886 37.8293 18.6165C37.9115 18.7444 37.9464 18.8977 37.9279 19.0493C37.9094 19.2008 37.8386 19.3409 37.7281 19.4446C36.4478 20.6414 35.1763 21.7854 33.8614 22.8184C31.3296 24.8101 28.916 26.7551 26.6207 28.6532C24.3821 30.4949 22.2478 32.4635 20.228 34.5495C18.2376 36.6192 16.5316 38.9519 15.1559 41.4845C13.6649 44.2703 12.5459 47.245 11.8282 50.3304C11.057 53.7263 10.6577 57.1983 10.6374 60.6833C10.6339 60.8571 10.6646 61.0299 10.7276 61.1916C10.7907 61.3533 10.8848 61.5007 11.0044 61.6252C11.1241 61.7496 11.2669 61.8487 11.4247 61.9166C11.5825 61.9845 11.7521 62.0198 11.9234 62.0205H35.5367C35.8756 62.0183 36.2001 61.8812 36.4405 61.6388C36.681 61.3965 36.8183 61.0681 36.8228 60.7242C36.9035 55.857 37.4504 51.5341 38.4635 47.7554C39.4574 43.928 40.8322 40.2131 42.5667 36.668C44.1249 33.5179 45.9148 30.4915 47.9214 27.6144C49.8572 24.8619 51.6421 22.1308 53.2761 19.4211C54.9027 16.7286 56.2774 13.8876 57.3823 10.9352C58.3874 8.14044 58.9367 5.19808 59.0087 2.22393C59.0149 2.04813 58.986 1.87286 58.924 1.70857C58.8621 1.54427 58.7682 1.39426 58.6479 1.26757C58.5277 1.14087 58.3835 1.04005 58.224 0.97109C58.0645 0.902126 57.893 0.866496 57.7197 0.866216L49.2652 0.831067Z" fill="#FC9A2C"/>
<path d="M25.1963 4.06741C26.6657 4.06229 28.1314 4.21824 29.5678 4.53263C31.1768 4.89548 32.7397 5.27885 34.2161 5.67681C35.7933 6.10111 37.3273 6.49322 38.772 6.84729C40.3355 7.24283 41.9387 7.45391 43.5499 7.47639C45.2058 7.47027 46.8393 7.08832 48.3309 6.35857C49.0667 6.0124 49.7533 5.56761 50.3724 5.036C50.471 4.94955 50.5968 4.90174 50.7271 4.90133H54.0951C54.176 4.90119 54.2559 4.9189 54.3294 4.95313C54.4029 4.98735 54.4681 5.03728 54.5208 5.09958C54.5734 5.16188 54.6122 5.23504 54.6342 5.31397C54.6563 5.3929 54.6612 5.47573 54.6487 5.5568C54.433 6.88952 54.0903 8.19785 53.6251 9.46328C52.6079 12.1801 51.3432 14.7947 49.8477 17.2733C48.2704 19.8922 46.5201 22.5696 44.6573 25.2354C42.5358 28.28 40.6418 31.4814 38.9912 34.8129C37.1342 38.6041 35.6609 42.5767 34.5938 46.6697C33.6881 50.175 33.1335 53.7641 32.9386 57.3825C32.9305 57.5321 32.8662 57.6727 32.7589 57.7756C32.6517 57.8785 32.5095 57.9357 32.3619 57.9355H15.3837C15.3036 57.9358 15.2244 57.9192 15.1511 57.8867C15.0777 57.8542 15.0117 57.8066 14.9575 57.7469C14.9032 57.6872 14.8619 57.6166 14.836 57.5398C14.8101 57.4629 14.8002 57.3815 14.807 57.3005C14.951 55.2736 15.2557 53.2616 15.7181 51.2843C16.3523 48.5501 17.3405 45.9132 18.6565 43.4422C19.8579 41.2285 21.3476 39.1891 23.0856 37.3791C25.0009 35.4041 27.0224 33.5383 29.141 31.7901C31.4161 29.9115 33.8296 27.9685 36.3094 26.0138C37.5465 25.0423 38.8182 23.9333 40.4387 22.4146C41.1252 21.7718 41.6048 20.9339 41.8149 20.0103C42.025 19.0867 41.9559 18.1203 41.6165 17.2372C41.2771 16.3541 40.6832 15.5953 39.9124 15.0599C39.1416 14.5245 38.2296 14.2374 37.2956 14.2359C36.6566 14.236 36.0246 14.3695 35.4386 14.628L35.3954 14.6455C34.4994 15.0403 33.5318 15.2397 32.5551 15.2308C31.6293 15.2196 30.7062 15.1286 29.7956 14.9587C28.6422 14.7568 27.4888 14.508 26.3757 14.2154C25.1185 13.8906 23.9824 13.6097 22.9934 13.3814C21.1409 12.8483 19.1852 12.801 17.3098 13.2439C15.8517 13.5705 14.5227 14.3305 13.4921 15.4269C12.4045 16.6051 11.6201 18.0373 11.2083 19.5967C11.1189 19.8893 11.041 20.2199 10.9718 20.5535C10.9377 20.7052 10.8539 20.8406 10.7338 20.9374C10.6138 21.0342 10.4648 21.0866 10.3114 21.0861H4.68855C4.59956 21.0861 4.51156 21.0683 4.42934 21.0337C4.34713 20.9992 4.27234 20.9485 4.20942 20.8847C4.14649 20.8208 4.09662 20.745 4.06256 20.6616C4.02851 20.5782 4.01103 20.4888 4.01103 20.3985V5.33154C4.01103 5.21409 4.05674 5.10139 4.13831 5.01807C4.21989 4.93474 4.33063 4.88753 4.44638 4.88676H10.6575C10.7397 4.88821 10.8199 4.91275 10.8891 4.9577C10.9584 5.00265 11.0139 5.06619 11.0496 5.1413C11.3754 5.80495 11.8531 6.37983 12.4427 6.81778C13.0323 7.25573 13.7166 7.54404 14.4385 7.65863C15.1604 7.77323 15.8987 7.71071 16.5919 7.47639C17.2851 7.24207 17.913 6.84275 18.4229 6.31177C18.9605 5.77589 19.5631 5.31177 20.2164 4.93062C20.7614 4.60289 22.134 4.05277 25.1963 4.05277V4.06741ZM25.1963 -2.67029e-05C22.1205 -2.67029e-05 19.7772 0.487671 18.1663 1.46307C17.2129 2.02163 16.3356 2.7044 15.5567 3.49389C15.5032 3.55007 15.4391 3.59476 15.3683 3.62541C15.2975 3.65607 15.2213 3.67204 15.1443 3.67235C15.0679 3.67479 14.9919 3.66132 14.9209 3.63277C14.8498 3.60422 14.7853 3.56123 14.7312 3.50639C14.6772 3.45156 14.6347 3.38604 14.6066 3.31393C14.5785 3.24183 14.5652 3.16463 14.5676 3.08711V2.13317C14.5676 1.78705 14.4322 1.45513 14.191 1.21038C13.9498 0.965633 13.6227 0.828106 13.2816 0.828106H1.29758C0.956497 0.828106 0.629351 0.965633 0.388169 1.21038C0.146987 1.45513 0.0115356 1.78705 0.0115356 2.13317V23.8572C0.0115356 24.2033 0.146987 24.5353 0.388169 24.78C0.629351 25.0248 0.956497 25.1622 1.29758 25.1622H13.3335C13.6666 25.1602 13.9861 25.0281 14.2256 24.7932C14.4651 24.5584 14.6062 24.2388 14.6196 23.9011C14.6445 22.8403 14.7935 21.7864 15.0636 20.7613C15.2913 19.8422 15.7368 18.9933 16.3612 18.2886C16.8421 17.7632 17.4666 17.3954 18.1547 17.2323C18.7983 17.0929 19.4546 17.0232 20.1126 17.0246C20.7893 17.0713 21.4603 17.1819 22.1168 17.3552C23.0779 17.5776 24.1707 17.8478 25.3952 18.1658C26.6236 18.4847 27.8636 18.751 29.1237 18.9763C30.2601 19.1849 31.4118 19.2955 32.5666 19.3069C34.0926 19.3107 35.6028 18.9929 37.0015 18.3735L37.0448 18.3531C37.1278 18.3171 37.2169 18.2981 37.3071 18.2974C37.4343 18.3002 37.5579 18.3413 37.6619 18.4156C37.766 18.49 37.8458 18.594 37.8913 18.7146C37.9368 18.8352 37.9459 18.9669 37.9173 19.0927C37.8888 19.2185 37.8239 19.3328 37.7311 19.4211C36.4508 20.6179 35.1791 21.7621 33.8642 22.795C31.3325 24.7868 28.919 26.7317 26.6237 28.6298C24.385 30.4715 22.2507 32.44 20.2309 34.526C18.2406 36.5957 16.5344 38.9285 15.1587 41.4611C13.6677 44.2469 12.5487 47.2216 11.8311 50.307C11.0598 53.7029 10.6605 57.1749 10.6402 60.6598C10.6368 60.8337 10.6674 61.0065 10.7305 61.1682C10.7935 61.33 10.8876 61.4773 11.0073 61.6017C11.127 61.7262 11.2699 61.8253 11.4277 61.8931C11.5855 61.961 11.7549 61.9963 11.9262 61.9971H35.5396C35.8785 61.9948 36.203 61.8578 36.4435 61.6155C36.6839 61.3731 36.8211 61.0447 36.8256 60.7008C36.9063 55.8336 37.4532 51.5106 38.4663 47.7319C39.4602 43.9046 40.8351 40.1897 42.5696 36.6446C44.1277 33.4944 45.9178 30.468 47.9244 27.591C49.8602 24.8384 51.6451 22.1073 53.2791 19.3977C54.9056 16.7052 56.2803 13.8642 57.3851 10.9117C58.3902 8.11698 58.9396 5.17462 59.0115 2.20047C59.0177 2.02466 58.989 1.8494 58.927 1.6851C58.8651 1.5208 58.7712 1.37087 58.6509 1.24417C58.5306 1.11748 58.3864 1.01666 58.227 0.947697C58.0675 0.878733 57.896 0.843032 57.7226 0.842752H49.2767C49.085 0.847538 48.897 0.898585 48.7285 0.991704C48.56 1.08482 48.4158 1.21736 48.3078 1.37827C47.8641 1.9516 47.2863 2.40325 46.6268 2.69212C45.6714 3.16352 44.6238 3.4115 43.5615 3.41781C42.2637 3.39673 40.9728 3.22192 39.7149 2.89694C38.2847 2.55165 36.7987 2.1712 35.257 1.75568C33.7152 1.34017 32.1111 0.950008 30.4444 0.58521C28.7242 0.204966 26.9683 0.0165952 25.2078 0.0234056L25.1963 -2.67029e-05Z" fill="#E0692B"/>
<path d="M54.0951 4.89551C54.176 4.89537 54.2559 4.91308 54.3294 4.9473C54.4029 4.98152 54.4681 5.03145 54.5208 5.09375C54.5734 5.15605 54.6122 5.22921 54.6342 5.30814C54.6563 5.38708 54.6613 5.46997 54.6487 5.55104C54.4352 6.88454 54.0913 8.19311 53.6222 9.45745C52.6058 12.1755 51.3431 14.7919 49.8505 17.2733C48.2732 19.8864 46.5171 22.5667 44.6601 25.2354C42.5364 28.2775 40.6423 31.4781 38.994 34.81C38.5644 35.6703 38.152 36.5656 37.757 37.4786C37.2807 38.581 36.4983 39.5188 35.5053 40.1772C34.5124 40.8356 33.3519 41.1861 32.1658 41.1861H20.3751L29.1526 31.7901C31.4277 29.9086 33.8441 27.9656 36.3239 26.0138C37.5552 25.0365 38.8297 23.9274 40.4473 22.4146C41.1387 21.7732 41.6228 20.9347 41.8362 20.0091C42.0495 19.0835 41.9821 18.114 41.6429 17.228C41.3036 16.3419 40.7082 15.5806 39.935 15.0441C39.1617 14.5075 38.2468 14.2207 37.3101 14.2213C36.6693 14.2214 36.0353 14.3549 35.4473 14.6134L35.4069 14.6339C34.5116 15.0322 33.5442 15.2365 32.5666 15.2337C31.6417 15.2216 30.7195 15.1296 29.8099 14.9587C28.6565 14.7539 27.5031 14.5051 26.3872 14.2154C25.1299 13.8906 23.9909 13.6097 23.0048 13.3814C21.1533 12.8483 19.1988 12.801 17.3243 13.2439C15.865 13.5673 14.535 14.3278 13.5064 15.4269C12.4176 16.6035 11.6322 18.0349 11.2199 19.5938C11.1305 19.8864 11.0497 20.2199 10.9805 20.5535C10.9469 20.7055 10.8631 20.8412 10.743 20.9381C10.6229 21.035 10.4736 21.0872 10.3202 21.0861H4.69728C4.51756 21.0861 4.34523 21.0137 4.21815 20.8847C4.09107 20.7558 4.01962 20.5809 4.01962 20.3985V5.32865C4.01962 5.21068 4.06583 5.09751 4.14803 5.0141C4.23023 4.93068 4.34168 4.88386 4.45793 4.88386H10.6691C10.7513 4.88531 10.8314 4.90986 10.9007 4.9548C10.9699 4.99975 11.0254 5.0633 11.0612 5.1384C11.5775 6.18479 12.4612 6.99708 13.5382 7.4152C14.6153 7.83332 15.8076 7.82695 16.8802 7.39741C17.4808 7.14994 18.0203 6.77129 18.4604 6.28837C18.9917 5.76466 19.5855 5.31053 20.228 4.93651C20.7701 4.61171 22.1427 4.05866 25.205 4.05866C26.6752 4.0539 28.1416 4.20892 29.5793 4.52102C31.1883 4.88679 32.7512 5.2701 34.2304 5.66513C35.8077 6.09235 37.3418 6.48446 38.7835 6.8356C40.3461 7.23077 41.9484 7.44184 43.5587 7.4647C45.2166 7.46035 46.8524 7.07841 48.3454 6.34695C49.0782 5.99857 49.7627 5.55387 50.3812 5.02431C50.4801 4.93615 50.607 4.88731 50.7387 4.88679L54.0951 4.89551Z" fill="#FFE783"/>
<path d="M50.8569 8.60882C50.6672 8.60919 50.4807 8.65853 50.3149 8.7522C50.09 8.87803 49.8563 8.998 49.6199 9.11212C47.7251 10.0378 45.65 10.5208 43.5471 10.5255C41.6996 10.505 39.8607 10.2643 38.0684 9.80852C36.5978 9.45737 35.0407 9.05654 33.4375 8.62347C31.9957 8.23721 30.4819 7.86557 28.9132 7.5115C27.6879 7.24509 26.4378 7.1136 25.1847 7.11937C22.5896 7.11937 21.7476 7.57002 21.7245 7.57587C21.2972 7.81656 20.9018 8.11156 20.548 8.45373C19.1448 9.91128 17.2292 10.7444 15.2213 10.7702C13.2135 10.796 11.2777 10.0123 9.83866 8.59125C9.41102 8.17151 8.83893 7.93743 8.24398 7.93871H4.00809V20.4014C4.00809 20.5837 4.07953 20.7586 4.20661 20.8876C4.33369 21.0165 4.50603 21.089 4.68575 21.089H10.3086C10.4639 21.0891 10.6145 21.0351 10.7353 20.936C10.856 20.8369 10.9394 20.6988 10.9718 20.5447C11.041 20.2141 11.1218 19.8981 11.2083 19.5967C11.6207 18.0378 12.4061 16.6063 13.4949 15.4297C14.5234 14.3306 15.8535 13.5701 17.3128 13.2468C19.1872 12.8039 21.1419 12.8512 22.9934 13.3843C23.9795 13.6125 25.1185 13.8935 26.3758 14.2183C27.4975 14.5109 28.6508 14.7567 29.7984 14.9616C30.7079 15.1324 31.6302 15.2244 32.5551 15.2366C33.5327 15.2394 34.5001 15.0351 35.3954 14.6367L35.4358 14.6163C36.0238 14.3578 36.6577 14.2243 37.2986 14.2242C38.2353 14.2236 39.1503 14.5104 39.9236 15.0469C40.6968 15.5835 41.292 16.3448 41.6313 17.2309C41.9706 18.1169 42.038 19.0863 41.8246 20.0119C41.6113 20.9375 41.1272 21.7761 40.4358 22.4175C38.8181 23.9303 37.5523 25.0511 36.3124 26.0167C33.8326 27.9685 31.4104 29.9114 29.141 31.793L20.3636 41.1889H32.1514C33.3397 41.1884 34.502 40.8363 35.4961 40.1758C36.4901 39.5152 37.2729 38.5748 37.7484 37.4698C38.1329 36.5568 38.5433 35.6712 38.9797 34.8128C40.6279 31.481 42.522 28.2803 44.6458 25.2383C46.5143 22.5696 48.2704 19.8892 49.8362 17.2761C51.3288 14.7948 52.5914 12.1783 53.6078 9.46032L53.9279 8.61175L50.8569 8.60882Z" fill="#FFC840"/>
<path d="M41.8632 19.8044C41.7531 20.4233 41.5173 21.0122 41.1711 21.5338C41.5099 21.0092 41.7423 20.4213 41.8545 19.8044H41.8632Z" fill="#FF9BB2"/>
<path d="M43.4924 21.4372V21.4665C43.4785 22.2063 43.313 22.9351 43.0068 23.6065C42.7005 24.278 42.26 24.8776 41.7133 25.3671C40.8741 26.1367 39.8072 27.0731 39.1181 27.6408C38.7922 27.91 38.4721 28.1733 38.1491 28.425C35.6837 30.3621 33.2904 32.2876 31.0297 34.1545C28.9984 35.8308 27.0597 37.6194 25.2223 39.5122C23.6722 41.1259 22.3442 42.9449 21.2746 44.9198C20.0879 47.1557 19.1969 49.5406 18.6247 52.0129C18.4084 52.8908 17.4195 56.9085 17.2753 57.9297H15.3721C15.2921 57.93 15.2129 57.9134 15.1395 57.8809C15.0662 57.8484 15.0002 57.8008 14.9459 57.741C14.8917 57.6813 14.8503 57.6108 14.8244 57.5339C14.7985 57.4571 14.7886 57.3756 14.7954 57.2947C14.9395 55.2677 15.2443 53.2558 15.7067 51.2784C16.3427 48.5457 17.3306 45.9101 18.645 43.4392C19.8474 41.2271 21.337 39.1888 23.074 37.379C24.9879 35.4025 27.0095 33.5366 29.1295 31.7901C30.8394 30.3767 32.6329 28.9283 34.4668 27.4681C34.7552 27.2282 35.0666 26.9853 35.3723 26.7453L36.3008 26.0138C37.5321 25.0364 38.8066 23.9274 40.4242 22.4146C40.5194 22.3209 40.6146 22.2302 40.7126 22.122C40.8106 22.0137 40.8683 21.9435 40.9404 21.8528C40.9404 21.8528 40.9548 21.8527 40.9548 21.8323C41.0348 21.7341 41.1081 21.6305 41.174 21.5221C41.5203 21.0005 41.7559 20.4116 41.866 19.7927C42.0185 18.9317 41.9337 18.0446 41.6209 17.2294C41.5092 16.9469 41.3701 16.6763 41.2057 16.4218C42.3106 17.3661 43.0695 18.661 43.3597 20.0971C43.4502 20.5378 43.4946 20.987 43.4924 21.4372Z" fill="#FFE783"/>
<path d="M18.6305 52.01C18.7496 51.5301 18.8747 51.059 19.0054 50.5967C19.1113 50.23 19.0779 49.8364 18.9119 49.4936C18.7459 49.1507 18.4592 48.8834 18.1085 48.7444H18.0798C17.8902 48.6638 17.6859 48.6252 17.4804 48.6313C17.275 48.6375 17.0731 48.688 16.8885 48.7797C16.7039 48.8715 16.5408 49.0022 16.4101 49.1631C16.2793 49.3241 16.184 49.5116 16.1305 49.713C15.9805 50.228 15.8412 50.7546 15.7124 51.2931C15.25 53.2704 14.9453 55.2823 14.8012 57.3093C14.7944 57.3902 14.8043 57.4717 14.8302 57.5486C14.8561 57.6254 14.8975 57.6959 14.9517 57.7557C15.0059 57.8154 15.0719 57.863 15.1453 57.8955C15.2187 57.928 15.2979 57.9446 15.3779 57.9443H32.3561C32.5037 57.9445 32.6459 57.8873 32.7532 57.7844C32.8605 57.6815 32.9247 57.5408 32.9328 57.3913C32.9559 57.0196 32.9818 56.6509 33.0107 56.2881C33.025 56.1102 33.0029 55.9312 32.9456 55.7625C32.8884 55.5938 32.7972 55.439 32.678 55.3078C32.5587 55.1766 32.414 55.072 32.2529 55.0004C32.0918 54.9289 31.9178 54.8921 31.742 54.8923H18.8871C18.7884 54.8916 18.6909 54.8691 18.6016 54.8264C18.5123 54.7837 18.4332 54.7218 18.3698 54.645C18.3065 54.5681 18.2604 54.4782 18.2347 54.3814C18.209 54.2847 18.2043 54.1834 18.221 54.0847C18.3335 53.3502 18.4748 52.6596 18.6305 52.01Z" fill="#FFE783"/>
</g>
<defs>
<clipPath id="clip0_5_3480">
<rect width="59" height="62" fill="white"/>
</clipPath>
</defs>
</svg>
