<svg width="116" height="108" viewBox="0 0 116 108" fill="none" xmlns="http://www.w3.org/2000/svg">
<g clip-path="url(#clip0_4_2870)">
<path fill-rule="evenodd" clip-rule="evenodd" d="M49.0986 108V69.127L20.3009 53.0677L20.8287 89.0736L49.0986 108Z" fill="url(#paint0_radial_4_2870)"/>
<path fill-rule="evenodd" clip-rule="evenodd" d="M49.0986 69.127V108L100.836 96.7603L101.575 59.5055L49.0986 69.127Z" fill="url(#paint1_radial_4_2870)"/>
<path fill-rule="evenodd" clip-rule="evenodd" d="M26.2821 74.2456C25.4515 73.1072 24.8537 71.8161 24.5229 70.4463C24.386 69.8679 24.386 69.2656 24.5229 68.6873C24.8572 67.7199 25.8775 68.3355 26.2821 69.7603C26.5811 68.7049 27.6015 69.3205 28.0413 70.7101C28.1763 71.2886 28.1763 71.8905 28.0413 72.469C27.9707 72.8902 27.7781 73.2813 27.4872 73.594C27.1964 73.9067 26.8202 74.1271 26.4052 74.228L26.2821 74.2456ZM31.9818 77.7635C31.1551 76.6034 30.558 75.2959 30.2226 73.9114C30.0919 73.3324 30.0919 72.7315 30.2226 72.1524C30.5569 71.185 31.5772 71.8006 31.9818 73.243C32.2809 72.17 33.3188 72.7857 33.741 74.1752C33.876 74.7538 33.876 75.3556 33.741 75.9342C33.6608 76.3541 33.4627 76.7425 33.1699 77.054C32.8771 77.3655 32.5016 77.5872 32.0874 77.6931L31.9818 77.7635ZM37.6991 81.2814C36.8554 80.1117 36.257 78.7835 35.94 77.3765C35.8115 76.7973 35.8115 76.1969 35.94 75.6176C36.2918 74.615 37.3121 75.2306 37.6991 76.6906C38.0158 75.6176 39.0361 76.2156 39.4583 77.6404C39.5909 78.2192 39.5909 78.8205 39.4583 79.3993C39.3864 79.8343 39.193 80.2402 38.9005 80.5701C38.6079 80.9 38.228 81.1404 37.8047 81.2638L37.6991 81.2814ZM43.3989 84.7994C42.5623 83.6126 41.9648 82.2743 41.6397 80.8593C41.5059 80.2806 41.5059 79.679 41.6397 79.1003C41.9739 78.0801 42.9943 78.6782 43.3109 80.1733C43.6276 79.0651 44.6479 79.6808 45.0701 81.1231C45.2003 81.7022 45.2003 82.303 45.0701 82.8821C44.998 83.3257 44.8033 83.7403 44.508 84.0791C44.2127 84.4179 43.8285 84.6674 43.3989 84.7994V84.7994ZM23.5554 82.6534C22.7318 81.4979 22.1349 80.1968 21.7962 78.8189C21.6472 78.242 21.6472 77.6368 21.7962 77.0599C22.1304 76.1101 23.1508 76.7609 23.5554 78.1681C23.8544 77.1479 24.8748 77.7811 25.2266 79.1883C25.3756 79.7651 25.3756 80.3704 25.2266 80.9472C25.1699 81.3738 24.982 81.7723 24.6889 82.0874C24.3958 82.4025 24.012 82.6188 23.5906 82.7062L23.5554 82.6534ZM29.2375 86.3121C28.4142 85.1371 27.8176 83.8187 27.4783 82.4247C27.342 81.8463 27.342 81.2442 27.4783 80.6658C27.8126 79.6984 28.8153 80.3316 29.1496 81.7739C29.4662 80.7362 30.4689 81.3694 30.9087 82.7765C31.0407 83.3554 31.0407 83.9566 30.9087 84.5355C30.8382 84.9566 30.6455 85.3478 30.3547 85.6605C30.0639 85.9731 29.6876 86.1936 29.2727 86.2944L29.2375 86.3121ZM34.9196 89.9531C34.0899 88.7754 33.4928 87.45 33.1605 86.0482C33.0285 85.4693 33.0285 84.8681 33.1605 84.2892C33.4947 83.3042 34.515 83.9375 34.9196 85.3974C35.2187 84.342 36.239 84.9753 36.5909 86.4C36.7291 86.9782 36.7291 87.5808 36.5909 88.159C36.5225 88.581 36.3306 88.9733 36.0394 89.2863C35.7482 89.5994 35.3708 89.8192 34.9548 89.9179L34.9196 89.9531ZM40.5842 93.6293C39.7508 92.4279 39.1538 91.0788 38.825 89.6541C38.6874 89.0758 38.6874 88.4734 38.825 87.8951C39.1593 86.8749 40.1796 87.5257 40.4962 89.0033C40.8129 87.9127 41.8332 88.5459 42.2554 89.9883C42.3774 90.5682 42.3774 91.1672 42.2554 91.7472C42.1811 92.182 41.9844 92.5866 41.6884 92.9137C41.3925 93.2408 41.0094 93.4768 40.5842 93.5941V93.6293ZM46.2663 97.2704C45.458 96.0526 44.8907 94.6913 44.5951 93.2599C44.4716 92.6801 44.4716 92.0808 44.5951 91.501C44.9469 90.4808 45.9673 91.114 46.3543 92.6267C46.6709 91.5186 47.6737 92.1518 48.0255 93.6117C48.166 94.2193 48.166 94.851 48.0255 95.4586C47.9573 95.8998 47.7635 96.3119 47.467 96.6457C47.1706 96.9795 46.7843 97.2208 46.3543 97.3407L46.2663 97.2704ZM23.2915 62.4606C22.4608 61.3482 21.8625 60.08 21.5323 58.7316C21.3886 58.1541 21.3886 57.5501 21.5323 56.9726C21.8666 56.0228 22.9045 56.6033 23.2915 58.0104C23.5906 56.9551 24.6109 57.5355 25.0507 58.9075C25.1996 59.4844 25.1996 60.0896 25.0507 60.6665C24.9705 61.0864 24.7724 61.4748 24.4796 61.7863C24.1867 62.0977 23.8113 62.3194 23.397 62.4254L23.2915 62.4606ZM29.0616 65.7323C28.2205 64.6131 27.6215 63.3312 27.3024 61.9681C27.1615 61.3902 27.1615 60.787 27.3024 60.2091C27.6367 59.2241 28.6746 59.8046 29.0616 61.2293C29.3606 60.1563 30.3986 60.7544 30.8208 62.1264C30.959 62.7046 30.959 63.3072 30.8208 63.8854C30.7246 64.3152 30.5081 64.7088 30.1966 65.0203C29.8851 65.3317 29.4915 65.5482 29.0616 65.6443V65.7323ZM34.7965 69.0743C33.963 67.9311 33.365 66.6336 33.0373 65.2573C32.9004 64.679 32.9004 64.0767 33.0373 63.4984C33.3716 62.5134 34.4095 63.0938 34.7965 64.5362C35.0955 63.4456 36.1335 64.026 36.5557 65.4332C36.6913 66.0117 36.6913 66.6137 36.5557 67.1922C36.4815 67.6309 36.2854 68.04 35.9899 68.3728C35.6945 68.7056 35.3114 68.9486 34.8845 69.0743H34.7965ZM40.5314 72.4163C39.6911 71.2575 39.0928 69.9415 38.7722 68.5466C38.6292 67.969 38.6292 67.3652 38.7722 66.7876C39.1065 65.7674 40.1444 66.3479 40.5314 67.8078C40.8481 66.7173 41.886 67.2977 42.2906 68.7225C42.4152 69.3022 42.4152 69.9017 42.2906 70.4814C42.2106 70.9374 42.0028 71.3612 41.6914 71.7038C41.38 72.0463 40.9777 72.2934 40.5314 72.4163V72.4163ZM46.2663 75.7583C45.4263 74.58 44.8283 73.2468 44.5071 71.8358C44.3734 71.2572 44.3734 70.6556 44.5071 70.0769C44.8414 69.0391 45.8793 69.6195 46.2663 71.0971C46.583 69.9713 47.6209 70.5518 48.0255 71.9941C48.1612 72.5726 48.1612 73.1746 48.0255 73.7531C47.9487 74.2162 47.743 74.6483 47.4318 74.9999C47.1207 75.3514 46.7167 75.6082 46.2663 75.7407V75.7583ZM20.6 70.7629C21.0181 70.6685 21.398 70.45 21.6899 70.1362C21.9818 69.8224 22.1721 69.4277 22.236 69.0039C22.3736 68.4257 22.3736 67.8232 22.236 67.245C21.8666 65.873 20.8462 65.2749 20.4768 66.2951V70.7101L20.6 70.7629ZM22.4999 87.4378C22.148 86.0482 21.1277 85.3798 20.8287 86.3824V89.0736L22.1304 89.9355C22.2868 89.6993 22.4 89.4373 22.4647 89.1616C22.6136 88.5847 22.6136 87.9795 22.4647 87.4026L22.4999 87.4378ZM47.4626 84.2541C47.7767 85.6836 48.3749 87.0355 49.2217 88.2293V83.4801C48.8875 81.9674 47.8672 81.3694 47.4626 82.3896C47.318 83.0027 47.318 83.641 47.4626 84.2541V84.2541ZM49.2217 105.098C48.8875 103.585 47.8848 102.917 47.4626 103.937C47.3176 104.544 47.3176 105.177 47.4626 105.784C47.5529 106.236 47.6704 106.682 47.8144 107.121L49.1338 108V105.133L49.2217 105.098ZM28.2524 92.9257C28.3933 92.3479 28.3933 91.7446 28.2524 91.1668C27.9005 89.7772 26.8802 89.1088 26.5811 90.129C26.2469 88.6866 25.2442 88.0358 24.822 88.9681C24.6782 89.5456 24.6782 90.1495 24.822 90.727C24.9146 91.1556 25.0321 91.5785 25.1738 91.9935L27.8126 93.7524C27.9615 93.4998 28.0741 93.2274 28.1468 92.9433L28.2524 92.9257ZM30.5569 92.7147C30.4231 93.2933 30.4231 93.8949 30.5569 94.4736C30.645 94.9109 30.7686 95.3404 30.9263 95.7576L33.5475 97.5166C33.7069 97.263 33.8201 96.9831 33.8817 96.6899C34.0113 96.1107 34.0113 95.5101 33.8817 94.9309C33.5299 93.5062 32.5096 92.8378 32.2105 93.8932C31.8763 92.4332 30.8735 91.7648 30.4513 92.7322L30.5569 92.7147ZM36.2214 96.4436C36.087 97.0223 36.087 97.624 36.2214 98.2026C36.3141 98.637 36.4316 99.0657 36.5733 99.4866L39.1944 101.246C39.3596 100.987 39.4787 100.701 39.5463 100.401C39.673 99.8218 39.673 99.2218 39.5463 98.6423C39.1944 97.2 38.1741 96.5316 37.875 97.6046C37.5584 96.127 36.5381 95.4586 36.1159 96.4261L36.2214 96.4436ZM41.886 100.19C41.7522 100.769 41.7522 101.37 41.886 101.949C41.974 102.392 42.0976 102.828 42.2554 103.251C43.1174 103.849 44.0146 104.429 44.8766 105.01C45.036 104.75 45.149 104.464 45.2108 104.165C45.3606 103.559 45.3606 102.925 45.2108 102.319C44.8766 100.876 43.8563 100.208 43.5572 101.281C43.2405 99.7857 42.2202 99.1348 41.798 100.12L41.886 100.19Z" fill="url(#paint2_radial_4_2870)"/>
<path opacity="0.75" fill-rule="evenodd" clip-rule="evenodd" d="M54.3409 76.4091C53.6852 76.2626 53.0698 75.974 52.5378 75.5637C52.0059 75.1534 51.5705 74.6314 51.2623 74.0345C51.0316 73.4709 51.0316 72.8392 51.2623 72.2756C51.8956 70.9036 53.7604 70.5166 54.3409 71.7655C54.939 70.3407 56.8038 70.0065 57.4371 71.1322C57.6659 71.6962 57.6659 72.3272 57.4371 72.8912C56.7903 74.3482 55.7169 75.5748 54.3585 76.4091H54.3409ZM64.808 74.4215C64.1544 74.2815 63.5403 73.9972 63.0107 73.5894C62.4811 73.1816 62.0494 72.6606 61.747 72.0645C61.6309 71.7858 61.5711 71.4869 61.5711 71.185C61.5711 70.8831 61.6309 70.5842 61.747 70.3055C62.3979 68.9511 64.2626 68.5466 64.8432 69.7954C65.4413 68.3883 67.306 68.0365 67.9393 69.1446C68.0564 69.423 68.1167 69.722 68.1167 70.0241C68.1167 70.3261 68.0564 70.6251 67.9393 70.9036C67.2945 72.3618 66.2206 73.5889 64.8608 74.4215H64.808ZM75.2575 72.4163C74.6094 72.28 73.9999 72.0009 73.4734 71.5992C72.9469 71.1976 72.5167 70.6835 72.2141 70.0945C72.0951 69.8165 72.0337 69.5173 72.0337 69.215C72.0337 68.9126 72.0951 68.6134 72.2141 68.3355C72.865 66.9987 74.7297 66.5765 75.3102 67.8078C75.8908 66.4358 77.7731 66.0488 78.3888 67.1922C78.512 67.469 78.5757 67.7686 78.5757 68.0716C78.5757 68.3747 78.512 68.6743 78.3888 68.9511C77.7356 70.4149 76.6488 71.6428 75.2751 72.469L75.2575 72.4163ZM85.8125 70.4287C85.1656 70.2955 84.5566 70.0195 84.0301 69.6209C83.5035 69.2222 83.0727 68.7109 82.7692 68.1244C82.647 67.8473 82.584 67.5478 82.584 67.245C82.584 66.9421 82.647 66.6426 82.7692 66.3655C83.4201 65.0287 85.2848 64.6065 85.8477 65.8554C86.4634 64.4658 88.3281 64.0964 88.9439 65.2046C89.0629 65.4825 89.1243 65.7817 89.1243 66.084C89.1243 66.3864 89.0629 66.6856 88.9439 66.9635C88.285 68.4236 87.1995 69.65 85.8301 70.4814L85.8125 70.4287ZM96.262 68.441C95.6222 68.3074 95.0202 68.0328 94.4998 67.6372C93.9794 67.2417 93.5538 66.7351 93.2539 66.1544C93.1296 65.8778 93.0653 65.5781 93.0653 65.2749C93.0653 64.9717 93.1296 64.672 93.2539 64.3954C93.9047 63.0586 95.7695 62.6365 96.3324 63.8677C96.9481 62.4958 98.8128 62.1088 99.4285 63.2345C99.5496 63.5119 99.6121 63.8113 99.6121 64.114C99.6121 64.4167 99.5496 64.7161 99.4285 64.9935C98.7468 66.4211 97.6571 67.6147 96.2972 68.4235L96.262 68.441ZM59.6184 86.1538C58.9678 86.0122 58.3563 85.7292 57.8273 85.3249C57.2984 84.9206 56.8648 84.4049 56.5575 83.8143C56.3268 83.2507 56.3268 82.619 56.5575 82.0554C57.1908 80.701 59.0555 80.2964 59.636 81.5101C60.2165 80.1029 62.0813 79.7511 62.7146 80.8417C62.838 81.1339 62.9015 81.4479 62.9015 81.7651C62.9015 82.0824 62.838 82.3964 62.7146 82.6886C62.0605 84.1409 60.9888 85.3655 59.636 86.2065L59.6184 86.1538ZM70.0327 84.0606C69.3867 83.9251 68.7788 83.6482 68.2526 83.2498C67.7263 82.8514 67.2949 82.3414 66.9894 81.7564C66.8723 81.4779 66.812 81.1789 66.812 80.8769C66.812 80.5748 66.8723 80.2758 66.9894 79.9974C67.6403 78.643 69.505 78.2384 70.0679 79.4521C70.666 78.0449 72.5308 77.6932 73.1465 78.7837C73.3772 79.3473 73.3772 79.979 73.1465 80.5427C72.485 81.9956 71.4075 83.2198 70.0503 84.0606H70.0327ZM80.4646 81.985C79.8198 81.8526 79.2124 81.5789 78.6861 81.1834C78.1599 80.788 77.7279 80.2808 77.4213 79.6984C77.1887 79.1351 77.1887 78.5027 77.4213 77.9394C78.0546 76.585 79.9193 76.1804 80.4998 77.3941C81.098 76.0046 82.9627 75.6352 83.5784 76.7257C83.6984 77.0034 83.7604 77.3027 83.7604 77.6052C83.7604 77.9077 83.6984 78.207 83.5784 78.4847C82.909 79.9325 81.8333 81.1547 80.4822 82.0026L80.4646 81.985ZM90.879 79.8918C90.2396 79.7633 89.6367 79.4947 89.1136 79.1054C88.5904 78.7161 88.1599 78.2158 87.8532 77.6404C87.6206 77.0771 87.6206 76.4447 87.8532 75.8814C88.5041 74.5622 90.3688 74.1225 90.9317 75.3538C91.5298 73.9642 93.3946 73.5948 94.0103 74.6853C94.1324 74.9625 94.1955 75.262 94.1955 75.5648C94.1955 75.8677 94.1324 76.1672 94.0103 76.4443C93.3495 77.9032 92.2644 79.1291 90.8965 79.9622L90.879 79.8918ZM54.3937 97.9563C53.7419 97.8237 53.1284 97.5462 52.5985 97.1442C52.0687 96.7423 51.6361 96.2263 51.3327 95.6345C51.102 95.0709 51.102 94.4392 51.3327 93.8756C51.966 92.5036 53.8131 92.1166 54.3937 93.3127C54.9742 91.8879 56.8389 91.5538 57.4546 92.6091C57.6873 93.1724 57.6873 93.8048 57.4546 94.3681C56.8073 95.8138 55.7489 97.0373 54.4113 97.886L54.3937 97.9563ZM64.7728 95.7928C64.1259 95.6597 63.5169 95.3837 62.9904 94.985C62.4638 94.5864 62.033 94.0751 61.7294 93.4886C61.6124 93.2102 61.552 92.9112 61.552 92.6091C61.552 92.3071 61.6124 92.0081 61.7294 91.7296C62.3627 90.3577 64.2275 89.9707 64.7904 91.1492C65.3709 89.742 67.2357 89.3902 67.8514 90.4632C67.9694 90.7414 68.0303 91.0405 68.0303 91.3427C68.0303 91.6449 67.9694 91.944 67.8514 92.2222C67.1958 93.668 66.1318 94.8908 64.7904 95.7401L64.7728 95.7928ZM75.1519 93.6117C74.5092 93.486 73.9031 93.2166 73.3792 92.8237C72.8552 92.4307 72.4269 91.9244 72.1261 91.3427C72.0091 91.0642 71.9488 90.7652 71.9488 90.4632C71.9488 90.1612 72.0091 89.8622 72.1261 89.5837C72.7595 88.2293 74.6242 87.8247 75.1871 89.0208C75.7852 87.6313 77.6324 87.2619 78.2657 88.3348C78.4983 88.8981 78.4983 89.5306 78.2657 90.0938C77.6089 91.5443 76.5378 92.7683 75.1871 93.6117H75.1519ZM85.5311 91.4482C84.8931 91.3219 84.2916 91.0541 83.771 90.6644C83.2504 90.2747 82.8238 89.7732 82.5229 89.1967C82.4038 88.9188 82.3424 88.6196 82.3424 88.3173C82.3424 88.0149 82.4038 87.7157 82.5229 87.4378C83.1738 86.101 85.0209 85.6788 85.6014 86.8749C86.182 85.4853 88.0467 85.116 88.6624 86.1889C88.7805 86.4671 88.8413 86.7662 88.8413 87.0684C88.8413 87.3706 88.7805 87.6697 88.6624 87.9479C87.9905 89.394 86.9154 90.6155 85.5662 91.4658L85.5311 91.4482ZM95.9102 89.3023C95.2743 89.1828 94.6741 88.9194 94.1558 88.5322C93.6374 88.145 93.2146 87.6442 92.9196 87.0684C92.7953 86.7918 92.7311 86.4921 92.7311 86.1889C92.7311 85.8857 92.7953 85.586 92.9196 85.3094C93.5705 83.9726 95.4352 83.5505 95.9806 84.7466C96.5963 83.357 98.4434 82.9876 99.0591 84.043C99.1802 84.3204 99.2427 84.6198 99.2427 84.9225C99.2427 85.2251 99.1802 85.5245 99.0591 85.8019C98.403 87.2584 97.3243 88.484 95.963 89.3199L95.9102 89.3023ZM52.2475 104.429C51.6318 103.321 49.767 103.708 49.2041 105.133V108.035L51.5966 107.508C51.8625 107.128 52.0755 106.713 52.2299 106.276C52.4625 105.713 52.4625 105.081 52.2299 104.517L52.2475 104.429ZM49.2041 88.2645C50.5455 87.4152 51.6095 86.1925 52.2651 84.7466C52.3935 84.4557 52.4598 84.1411 52.4598 83.8231C52.4598 83.5051 52.3935 83.1906 52.2651 82.8997C51.6318 81.7739 49.767 82.1257 49.2041 83.5681V88.3173V88.2645ZM98.3203 73.8234C98.196 74.1 98.1317 74.3997 98.1317 74.7029C98.1317 75.0061 98.196 75.3059 98.3203 75.5824C98.6174 76.1584 99.0406 76.6599 99.5583 77.0497C100.076 77.4396 100.675 77.7076 101.311 77.8339L101.416 73.2782C100.853 72.1348 98.9888 72.4866 98.3379 73.8059L98.3203 73.8234ZM100.994 94.0163C100.431 92.8905 98.5841 93.2775 97.9332 94.6143C97.8111 94.8915 97.748 95.191 97.748 95.4938C97.748 95.7967 97.8111 96.0962 97.9332 96.3733C98.0778 96.7149 98.2868 97.0255 98.549 97.2879L100.959 96.7603V93.9811L100.994 94.0163ZM56.5047 103.515C56.3876 103.793 56.3273 104.092 56.3273 104.394C56.3273 104.696 56.3876 104.995 56.5047 105.274C56.6504 105.634 56.8656 105.963 57.138 106.241L61.9405 105.203C62.2084 104.822 62.4271 104.408 62.5914 103.972C62.7188 103.681 62.7846 103.366 62.7846 103.049C62.7846 102.731 62.7188 102.416 62.5914 102.125C61.9757 101.035 60.111 101.421 59.5305 102.846C58.9675 101.668 57.1204 102.072 56.4871 103.444L56.5047 103.515ZM66.8662 101.281C66.7491 101.559 66.6888 101.858 66.6888 102.16C66.6888 102.462 66.7491 102.761 66.8662 103.04C67.0018 103.396 67.2117 103.72 67.4819 103.99L72.3021 102.952C72.565 102.576 72.7779 102.168 72.9354 101.738C73.0525 101.46 73.1128 101.161 73.1128 100.859C73.1128 100.557 73.0525 100.258 72.9354 99.9792C72.3197 98.8886 70.4725 99.2756 69.8744 100.7C69.3115 99.5218 67.4468 99.9264 66.831 101.281H66.8662ZM77.2278 99.0645C77.1087 99.3424 77.0473 99.6416 77.0473 99.944C77.0473 100.246 77.1087 100.546 77.2278 100.823C77.3743 101.173 77.5896 101.491 77.8611 101.756L82.6636 100.718C82.9281 100.341 83.1466 99.9333 83.3145 99.5042C83.5471 98.941 83.5471 98.3085 83.3145 97.7453C82.6988 96.6723 80.8517 97.0769 80.2536 98.4665C79.6906 97.3231 77.8435 97.7101 77.2102 99.0645H77.2278ZM87.5717 96.8482C87.4536 97.1264 87.3928 97.4255 87.3928 97.7277C87.3928 98.0299 87.4536 98.329 87.5717 98.6072C87.7182 98.9572 87.9336 99.2742 88.205 99.5394L93.0076 98.484C93.2849 98.1212 93.5044 97.7178 93.6585 97.2879C93.785 97.012 93.8504 96.712 93.8504 96.4085C93.8504 96.1049 93.785 95.8049 93.6585 95.529C93.0603 94.4736 91.2132 94.8606 90.6151 96.2502C90.0522 95.1068 88.205 95.4938 87.5541 96.8482H87.5717Z" fill="url(#paint3_radial_4_2870)"/>
<path style="mix-blend-mode:multiply" opacity="0.5" fill-rule="evenodd" clip-rule="evenodd" d="M25.7543 91.4658C22.4119 88.9857 21.2684 87.2091 20.7758 84.43V89.0385L49.0458 107.965V102.688C48.4652 104.13 46.4598 104.271 44.8062 103.55C39.6342 101.281 30.3457 94.755 25.7015 91.3778L25.7543 91.4658Z" fill="url(#paint4_radial_4_2870)"/>
<path style="mix-blend-mode:multiply" fill-rule="evenodd" clip-rule="evenodd" d="M49.0986 102.776V108.053L100.853 96.813L100.977 89.1967C100.203 92.2397 98.6897 93.9811 94.2918 95.9687C85.8829 99.7681 68.2208 103.796 59.1083 104.764C54.552 105.238 49.855 105.168 49.1513 102.811L49.0986 102.776Z" fill="url(#paint5_radial_4_2870)"/>
<path style="mix-blend-mode:multiply" opacity="0.4" fill-rule="evenodd" clip-rule="evenodd" d="M20.3536 56.8495V53.0677L49.1513 69.127V76.0046C47.2162 69.4788 25.9126 55.2665 20.4064 56.8495H20.3536Z" fill="url(#paint6_radial_4_2870)"/>
<path style="mix-blend-mode:multiply" opacity="0.75" fill-rule="evenodd" clip-rule="evenodd" d="M49.0985 76.0046C54.0242 67.2098 90.6855 60.7192 101.522 62.6892V59.5055L49.0458 69.127V76.0046H49.0985Z" fill="url(#paint7_radial_4_2870)"/>
<path fill-rule="evenodd" clip-rule="evenodd" d="M48.9227 69.127L101.381 59.4879L70.3142 44.2378L20.3009 53.0678L48.9227 69.127Z" fill="url(#paint8_radial_4_2870)"/>
<path fill-rule="evenodd" clip-rule="evenodd" d="M70.1911 65.2221L101.575 59.5055L70.3142 44.2378L70.1911 45.0997V65.2221Z" fill="url(#paint9_radial_4_2870)"/>
<path d="M70.1911 45.1173L98.8305 59.1889L49.081 68.1948L22.5878 53.4196L70.1911 45.0645V45.1173ZM70.3318 44.185L20.3009 52.9798L48.9578 69.0743L101.575 59.4176L70.3318 44.1498V44.185Z" fill="#FF80DB"/>
<path style="mix-blend-mode:multiply" fill-rule="evenodd" clip-rule="evenodd" d="M36.6788 99.9791L42.5896 65.6619L40.549 64.5361L28.6393 94.5088L36.6788 99.9791Z" fill="url(#paint10_linear_4_2870)"/>
<path fill-rule="evenodd" clip-rule="evenodd" d="M22.0073 32.9453L34.4974 49.1277L10.5902 102.143L0 82.5479L22.0073 32.9453Z" fill="url(#paint11_radial_4_2870)"/>
<path fill-rule="evenodd" clip-rule="evenodd" d="M34.4974 49.1277L47.832 54.0352L34.3743 37.5362L22.0073 32.9453L34.4974 49.1277Z" fill="url(#paint12_radial_4_2870)"/>
<path fill-rule="evenodd" clip-rule="evenodd" d="M47.8319 54.0352L34.4974 49.1277L10.5902 102.143L24.0127 106.769L47.8319 54.0352Z" fill="url(#paint13_radial_4_2870)"/>
<path fill-rule="evenodd" clip-rule="evenodd" d="M1.7768 85.4678C2.1143 84.9219 2.36919 84.3292 2.53323 83.7088C2.92025 82.3192 2.53324 81.6156 1.88234 82.6182C2.30455 81.1935 1.88235 80.4899 1.28423 81.4222C0.938694 81.9638 0.683219 82.5578 0.527771 83.1811C0.527771 83.2691 0.527771 83.357 0.527771 83.4098L1.74161 85.6612L1.84715 85.4853L1.7768 85.4678ZM3.41282 85.3622C3.07098 85.908 2.81024 86.5005 2.63878 87.1212C2.64381 87.1914 2.64381 87.262 2.63878 87.3323L3.85261 89.5661L3.95816 89.4254C4.30111 88.8803 4.56193 88.2876 4.7322 87.6665C5.13681 86.2593 4.73221 85.5733 4.08131 86.5935C4.52111 85.1336 4.08132 84.4476 3.4832 85.3798L3.41282 85.3622ZM5.54143 89.2495C5.20417 89.7977 4.94373 90.3895 4.76739 91.0085C4.76205 91.0846 4.76205 91.161 4.76739 91.2371L5.98122 93.471L6.08677 93.3127C6.42045 92.7604 6.68624 92.1698 6.87839 91.5537C7.283 90.1114 6.87838 89.4254 6.2099 90.4632C6.64969 89.0033 6.2099 88.2997 5.61179 89.2495H5.54143ZM7.67002 93.1368C7.33739 93.6897 7.07165 94.2801 6.87839 94.8958C6.88595 94.9659 6.88595 95.0367 6.87839 95.1068L8.09223 97.3583L8.19777 97.1824C8.54574 96.6353 8.81797 96.0436 9.00701 95.4234C9.41162 93.9811 9.00699 93.2951 8.35609 94.3329C8.79589 92.8554 8.35611 92.1694 7.7404 93.1192L7.67002 93.1368ZM9.81621 97.0417C9.46274 97.5857 9.19017 98.1782 9.00701 98.8006C9.00167 98.8768 9.00167 98.9532 9.00701 99.0293L10.2208 101.281L10.3264 101.105C10.6723 100.557 10.9444 99.9653 11.1356 99.3459C11.5578 97.886 11.1356 97.2 10.4847 98.273C10.9421 96.7779 10.4847 96.0743 9.88659 97.0593L9.81621 97.0417ZM14.1614 94.2449C14.865 92.6971 15.5511 91.1492 16.2548 89.5837C16.9585 88.0182 16.2548 87.4378 15.6391 88.4228C15.2845 88.9663 15.0119 89.5589 14.8299 90.1818C14.4068 91.4774 14.1814 92.8294 14.1614 94.1922V94.2449ZM11.98 90.4456C12.8188 90.1162 13.5075 89.4903 13.9151 88.6866C14.255 88.1352 14.5268 87.5446 14.7243 86.9277C15.1465 85.5029 14.7243 84.8169 14.0558 85.8899C14.4956 84.4124 14.0558 83.744 13.4225 84.7114C13.0829 85.2606 12.8168 85.852 12.6309 86.4704C12.2198 87.7623 12.0005 89.1076 11.98 90.4632V90.4456ZM9.79863 86.6287C10.645 86.3186 11.3344 85.6862 11.7161 84.8697C12.062 84.3215 12.3341 83.7301 12.5254 83.1107C12.93 81.686 12.5254 81.0176 11.8393 82.0554C12.2791 80.5954 11.8393 79.927 11.2236 80.8945C10.8765 81.4397 10.6098 82.0321 10.4319 82.6534C10.0331 83.9357 9.81979 85.2684 9.79863 86.6111V86.6287ZM7.63485 82.8117C8.04891 82.6568 8.4283 82.4216 8.7513 82.1198C9.07431 81.818 9.33457 81.4554 9.51716 81.0528C9.86195 80.5063 10.1284 79.9142 10.3088 79.2938C10.7134 77.8866 10.3088 77.2183 9.64031 78.2384C10.0625 76.8137 9.64031 76.1453 9.00701 77.0775C8.67205 77.6269 8.41174 78.2184 8.23297 78.8365C7.83319 80.1055 7.63146 81.4285 7.63485 82.759V82.8117ZM7.31819 77.3414C7.66157 76.7942 7.92794 76.2023 8.10981 75.5824C8.47924 74.1752 8.10981 73.5244 7.42373 74.527C7.84594 73.1023 7.42373 72.4339 6.79043 73.3661C6.45687 73.914 6.20223 74.5061 6.034 75.1251C5.64657 76.3784 5.45085 77.683 5.45347 78.9948C6.2669 78.7079 6.93603 78.1146 7.31819 77.3414V77.3414ZM5.1368 73.5596C5.4743 73.0138 5.72922 72.4211 5.89326 71.8007C6.26269 70.4287 5.89325 69.7603 5.22476 70.7629C4.57387 72.2052 3.92299 73.6652 3.28969 75.1251C3.68984 74.9919 4.05934 74.7802 4.37653 74.5023C4.69372 74.2244 4.9522 73.886 5.1368 73.5068V73.5596ZM9.35884 63.2873C8.97247 64.5159 8.7883 65.799 8.8135 67.0866C9.62259 66.7851 10.2925 66.1966 10.6958 65.4332C11.0287 64.885 11.2834 64.293 11.4523 63.6743C11.8393 62.3023 11.4523 61.6515 10.7662 62.6717C11.1708 61.2469 10.7662 60.6137 10.1153 61.5284C9.78129 62.076 9.52662 62.6682 9.35884 63.2873V63.2873ZM11.6282 66.9283C11.2374 68.1744 11.0474 69.4747 11.0652 70.7805C11.8936 70.4481 12.5701 69.8218 12.9651 69.0215C13.3053 68.4748 13.5659 67.8826 13.7392 67.2625C14.1262 65.873 13.7392 65.2397 13.0355 66.2599C13.4577 64.8352 13.0355 64.2019 12.4022 65.1342C12.0672 65.6836 11.8069 66.2751 11.6282 66.8932V66.9283ZM13.8975 70.5694C13.5006 71.8209 13.2989 73.1261 13.2994 74.4391C14.1465 74.1232 14.8394 73.4933 15.2345 72.6801C15.5857 72.1372 15.8526 71.5441 16.0261 70.9212C16.4307 69.514 16.0261 68.8808 15.3224 69.9186C15.7622 68.4762 15.3224 67.8254 14.6891 68.7928C14.342 69.338 14.0754 69.9305 13.8975 70.5518V70.5694ZM16.1668 74.2104C15.7651 75.4794 15.5576 76.8018 15.5511 78.1329C16.3992 77.8115 17.096 77.1839 17.5038 76.3739C17.8516 75.8267 18.1238 75.2351 18.313 74.615C18.7176 73.1902 18.313 72.557 17.6094 73.6124C18.0492 72.1349 17.6094 71.5016 16.9585 72.4867C16.624 73.0386 16.3582 73.6293 16.1668 74.2456V74.2104ZM19.263 75.9694C18.9146 76.5162 18.6424 77.108 18.4538 77.7283C18.0431 79.0083 17.8238 80.3419 17.8029 81.686C18.6523 81.3596 19.353 80.734 19.7731 79.927C20.1219 79.378 20.3997 78.7869 20.6 78.1681C21.0046 76.7257 20.5999 76.0749 19.8963 77.1479C20.3537 75.6879 19.8963 75.0371 19.263 76.0221V75.9694ZM23.7137 72.9792L25.8247 68.3003C26.2645 66.8404 25.8247 66.2072 25.1562 67.2274C24.8079 67.7742 24.5356 68.366 24.347 68.9863C23.9332 70.259 23.7196 71.5882 23.7137 72.9264V72.9792ZM21.3916 69.4612C22.2487 69.0952 22.9516 68.4422 23.3795 67.6143C23.7194 67.0629 23.9911 66.4723 24.1887 65.8554C24.5933 64.4482 24.1887 63.815 23.4674 64.9055C23.9072 63.428 23.4674 62.8124 22.7989 63.7974C22.4574 64.348 22.1856 64.9388 21.9897 65.5564C21.5912 66.8196 21.3894 68.1366 21.3916 69.4612V69.4612ZM21.0221 64.1844C21.3629 63.6357 21.6291 63.0442 21.8138 62.4254C22.2184 61.0182 21.8138 60.385 21.0925 61.458C21.5323 60.0156 21.0925 59.3824 20.424 60.3674C20.0909 60.9177 19.8307 61.509 19.65 62.1264C19.2487 63.3765 19.0527 64.6833 19.0695 65.9961C19.9041 65.653 20.594 65.0314 21.0221 64.2371V64.1844ZM18.6825 60.6665C19.0162 60.1164 19.2764 59.5251 19.4565 58.9075C19.8435 57.5003 19.4565 56.8847 18.7352 57.9401C19.1574 56.4977 18.7352 55.8821 18.0667 56.8495C17.7318 57.3989 17.4715 57.9904 17.2927 58.6085C16.9056 59.8433 16.7157 61.1314 16.7298 62.4254C17.5779 62.1041 18.2746 61.4764 18.6825 60.6665V60.6665ZM16.3252 57.1485C16.6624 56.6004 16.9229 56.0085 17.0992 55.3896C17.4862 54 17.0992 53.3844 16.3779 54.4221C16.7825 52.9974 16.3779 52.3818 15.7095 53.3316C15.3685 53.8778 15.1078 54.4702 14.9354 55.0906C14.5639 56.316 14.3858 57.592 14.4077 58.8723C15.2482 58.5526 15.9343 57.9231 16.3252 57.1134V57.1485ZM13.9854 53.6306C14.3184 53.0824 14.573 52.4904 14.7419 51.8717C15.1113 50.5173 14.7419 49.9016 14.0206 50.9042C13.3697 52.3642 12.7189 53.8241 12.0856 55.284C12.9112 54.9475 13.5864 54.3224 13.9854 53.5251V53.6306ZM18.1899 43.3759C17.8226 44.5839 17.6504 45.8427 17.6797 47.1049C18.5126 46.766 19.1983 46.1427 19.6148 45.3459C19.9505 44.797 20.2109 44.2053 20.3889 43.587C20.7407 42.215 20.3889 41.6169 19.6324 42.6547C20.037 41.2476 19.6324 40.6671 18.9463 41.6169C18.6067 42.1617 18.3517 42.7547 18.1899 43.3759ZM21.374 44.9941C21.0429 45.5433 20.7884 46.135 20.6175 46.7531C20.2366 47.9765 20.0583 49.2539 20.0898 50.5349C20.914 50.1823 21.5956 49.5628 22.0249 48.7759C22.3707 48.23 22.6372 47.6378 22.8165 47.017C23.2035 45.6274 22.8165 45.0469 22.0777 46.0847C22.4823 44.6775 22.0777 44.0795 21.374 45.0293V44.9941ZM23.8193 48.3362C23.477 48.8817 23.2162 49.4743 23.0452 50.0951C22.6434 51.3201 22.4589 52.6059 22.4999 53.8945C23.3387 53.551 24.0342 52.9301 24.4701 52.1355C24.8078 51.5853 25.0739 50.9942 25.2618 50.3765C25.6312 48.987 25.2618 48.3889 24.5053 49.4443C24.9275 48.0195 24.5053 47.4215 23.8193 48.3889V48.3362ZM26.2645 51.6958C25.9195 52.2444 25.6474 52.8357 25.4553 53.4547C25.0671 54.7014 24.8772 56.0013 24.8924 57.3068C25.7519 56.927 26.4541 56.2623 26.8802 55.4248C27.239 54.8837 27.512 54.2903 27.6894 53.6658C28.0765 52.2586 27.6894 51.6606 26.9506 52.7336C27.3728 51.2912 26.9506 50.6932 26.2645 51.6958V51.6958ZM28.6922 55.0378C28.3506 55.5884 28.0788 56.1792 27.8829 56.7968C27.4844 58.0475 27.2884 59.3539 27.3024 60.6665C28.1682 60.2807 28.8759 59.6103 29.3079 58.7668C29.6596 58.2193 29.9376 57.6279 30.1347 57.0078C30.5393 55.5831 30.1347 55.0026 29.3782 56.0932C29.818 54.6156 29.3782 54.0176 28.6922 55.0378V55.0378ZM33.2836 51.8189L34.4974 49.1101L33.7938 48.1778C33.4403 49.3587 33.2683 50.5864 33.2836 51.8189V51.8189ZM30.8208 48.5648C31.6285 48.194 32.2993 47.5787 32.7383 46.8059L31.3133 45.0469C30.9699 46.1874 30.8038 47.3739 30.8208 48.5648ZM28.3227 45.3283C29.126 44.9575 29.7911 44.3417 30.2227 43.5694L28.7801 41.8104C28.4424 42.9515 28.288 44.1389 28.3227 45.3283V45.3283ZM25.8423 42.0567C26.6454 41.6922 27.3067 41.0743 27.7246 40.2977L26.2821 38.5388C25.9532 39.6813 25.8048 40.8683 25.8423 42.0567V42.0567ZM23.3619 38.785C24.1474 38.4523 24.8023 37.8716 25.2266 37.1316L23.7841 35.2847C23.4558 36.4272 23.3133 37.6149 23.3619 38.8026V38.785ZM20.8814 35.5134C21.6317 35.1849 22.2509 34.6154 22.6406 33.8951L22.0249 33.0156L20.899 35.5485L20.8814 35.5134Z" fill="url(#paint14_radial_4_2870)"/>
<path fill-rule="evenodd" clip-rule="evenodd" d="M13.4753 100.806C12.9982 101.274 12.7049 101.899 12.6484 102.565V102.776L15.3752 103.726L18.0843 104.658L18.2602 104.5C18.7412 104.034 19.0353 103.408 19.087 102.741C19.07 102.416 18.9548 102.105 18.7567 101.848C18.5585 101.591 18.2868 101.4 17.9776 101.3C17.6684 101.201 17.3364 101.198 17.0255 101.292C16.7147 101.386 16.4397 101.572 16.2372 101.826C16.243 101.503 16.1485 101.186 15.9669 100.918C15.7852 100.651 15.5252 100.446 15.2225 100.333C14.9199 100.219 14.5894 100.202 14.2766 100.283C13.9637 100.365 13.6838 100.541 13.4753 100.788V100.806ZM23.1683 104.165C22.7016 104.638 22.4205 105.262 22.3767 105.924C22.3687 106 22.3687 106.077 22.3767 106.153L24.0303 106.716C24.4525 105.766 24.8923 104.799 25.3321 103.849C24.996 103.648 24.6024 103.564 24.2137 103.612C23.8249 103.66 23.4632 103.836 23.1859 104.113L23.1683 104.165ZM23.6961 97.587C25.2384 97.4117 26.6795 96.7315 27.7949 95.6521C28.2815 95.1903 28.5766 94.5624 28.6217 93.8932C26.7261 93.3103 24.854 92.6531 23.01 91.9231C22.5313 92.3888 22.2429 93.0157 22.2008 93.6821C22.1812 94.3966 22.3032 95.108 22.5599 95.7751C22.8165 96.4423 23.2027 97.0521 23.6961 97.5694V97.587ZM14.1613 94.2449C15.7063 94.0919 17.1525 93.4154 18.2602 92.3277C18.7363 91.8564 19.0346 91.2349 19.1046 90.5687C19.087 90.2472 18.9728 89.9385 18.7769 89.6829C18.581 89.4273 18.3126 89.2366 18.0067 89.136C17.7008 89.0353 17.3717 89.0292 17.0622 89.1185C16.7528 89.2078 16.4775 89.3883 16.2723 89.6365L14.1613 94.2977V94.2449ZM22.9572 79.6104C22.4853 80.0808 22.1982 80.705 22.148 81.3694C22.1241 82.083 22.2425 82.7941 22.4962 83.4615C22.7499 84.1289 23.1338 84.7391 23.6257 85.2567C25.1669 85.1029 26.6112 84.4336 27.7246 83.357C28.2094 82.892 28.5094 82.2671 28.569 81.598C26.6659 81.0244 24.7929 80.3552 22.9572 79.5928V79.6104ZM32.6502 83.1283C32.1716 83.594 31.8832 84.2209 31.841 84.8873C31.7778 85.8836 32.0302 86.8745 32.5623 87.7192L34.7789 82.8293C34.4465 82.6303 34.0576 82.5465 33.6727 82.591C33.2879 82.6355 32.9284 82.8059 32.6502 83.0756V83.1283ZM33.1604 76.5323C34.6984 76.3667 36.139 75.6991 37.2593 74.6326C37.743 74.1687 38.0376 73.542 38.0861 72.8736C38.0718 72.5506 37.9599 72.2396 37.7653 71.9813C37.5707 71.7231 37.3025 71.5299 36.9959 71.4271C36.6893 71.3243 36.3588 71.3167 36.0479 71.4054C35.7369 71.494 35.4601 71.6747 35.2538 71.9238C35.2571 71.602 35.1622 71.2868 34.9818 71.0204C34.8014 70.7539 34.544 70.5487 34.244 70.4321C33.944 70.3156 33.6157 70.2932 33.3026 70.368C32.9896 70.4428 32.7068 70.6112 32.4919 70.8508C32.0133 71.3164 31.7249 71.9434 31.6827 72.6098C31.6463 74.0597 32.1764 75.4667 33.1604 76.5323V76.5323ZM23.6609 73.1199C25.201 72.9495 26.6418 72.2755 27.7597 71.2026C28.2368 70.734 28.5301 70.11 28.5866 69.4437C28.5722 69.1207 28.4604 68.8096 28.2658 68.5514C28.0712 68.2931 27.8029 68.0999 27.4964 67.9971C27.1898 67.8943 26.8593 67.8867 26.5483 67.9754C26.2373 68.064 25.9605 68.2448 25.7543 68.4938C25.0506 70.0593 24.3469 71.6072 23.6609 73.1726V73.1199ZM32.4567 58.4853C31.9874 58.9575 31.7007 59.5807 31.6475 60.2443C31.6074 61.6948 32.138 63.1032 33.1252 64.1668C34.661 64.0061 36.1014 63.3448 37.2241 62.2847C37.7051 61.8189 37.9992 61.1933 38.0509 60.5257C36.1577 59.92 34.2912 59.2333 32.4567 58.4678V58.4853ZM42.1322 62.0033C41.6536 62.4689 41.3652 63.0958 41.323 63.7622C41.2596 64.7641 41.5119 65.7606 42.0443 66.6117C42.7655 64.9759 43.522 63.3577 44.2432 61.7218C43.9145 61.5248 43.5304 61.4405 43.1493 61.4818C42.7683 61.5231 42.4111 61.6876 42.1322 61.9505V62.0033ZM42.6424 55.3896C44.1077 55.2304 45.4861 54.6151 46.5829 53.6306L43.8562 52.628L41.1647 51.6254C41.1885 53.0013 41.714 54.3211 42.6424 55.3368V55.3896ZM33.1604 51.8717C34.6221 51.7183 35.9966 51.102 37.0834 50.1127L34.3743 49.1101L33.1604 51.8189V51.8717Z" fill="url(#paint15_radial_4_2870)"/>
<path fill-rule="evenodd" clip-rule="evenodd" d="M31.5244 36.9557C30.5393 36.7095 30.0116 36.8326 29.8708 36.9557C30.8817 37.6693 31.953 38.2932 33.0725 38.8202C33.5638 39.0556 34.0763 39.244 34.603 39.3831C35.465 39.5765 34.99 38.9785 33.7762 38.398C34.6909 38.6091 34.216 38.0287 33.0373 37.4482C32.5529 37.211 32.0461 37.0224 31.5244 36.8853V36.9557ZM35.6937 40.8078C35.2032 40.5705 34.6906 40.382 34.1632 40.245C33.1605 39.9811 32.6151 40.1042 32.404 40.245C33.4341 40.9574 34.5229 41.5812 35.6585 42.1094C36.1525 42.3571 36.6715 42.5517 37.2066 42.6899C38.1038 42.8834 37.6288 42.3029 36.3798 41.7049C37.3121 41.9336 36.8372 41.3355 35.6409 40.755L35.6937 40.8078ZM38.3676 44.0971C37.8653 43.8544 37.3411 43.66 36.802 43.5166C35.7816 43.2528 35.2187 43.3759 35.0428 43.5166C36.0773 44.2516 37.1787 44.8876 38.3325 45.4163C38.8381 45.6655 39.3688 45.8601 39.9157 45.9968C40.8129 46.1902 40.3379 45.6098 39.0713 45.0117C40.0389 45.2404 39.5463 44.6423 38.35 44.0619L38.3676 44.0971ZM41.024 47.3863C40.5158 47.1432 39.9857 46.9488 39.4407 46.8059C38.4028 46.5244 37.8399 46.63 37.6815 46.8059C38.729 47.5401 39.842 48.176 41.0064 48.7055C41.5181 48.9593 42.0545 49.1597 42.6072 49.3036C43.522 49.5147 43.047 48.9166 41.7628 48.3186C42.748 48.5472 42.273 47.9668 41.0416 47.3687L41.024 47.3863ZM43.6803 50.6756C43.1672 50.4296 42.631 50.2352 42.0795 50.0951C41.024 49.8137 40.4435 49.9016 40.3203 50.0951C41.3813 50.8325 42.5058 51.4741 43.6803 52.0124C44.2036 52.2676 44.7519 52.468 45.3164 52.6104C46.2312 52.8215 45.7562 52.241 44.472 51.6254C45.4571 51.8717 44.9821 51.2736 43.7331 50.6756H43.6803ZM36.2566 49.7609C37.2593 50.0072 36.802 49.4267 35.5705 48.8287C35.0513 48.5828 34.5093 48.3884 33.9521 48.2482H33.7938L34.4974 49.1805L36.2566 49.8137V49.7609ZM32.9142 46.9114C33.4362 47.1552 33.9775 47.3553 34.5326 47.5095C35.465 47.7029 35.0076 47.1225 33.741 46.5244C34.7262 46.7707 34.2687 46.1902 33.0373 45.5922C32.5304 45.3461 32 45.1517 31.4541 45.0117H31.2958L32.7207 46.8762L32.9142 46.9642V46.9114ZM30.4162 43.6749C30.923 43.9214 31.4534 44.1159 31.9994 44.2554C32.9142 44.4665 32.4744 43.886 31.2078 43.2879C32.1753 43.5166 31.7356 42.9362 30.5217 42.3557C30.0159 42.1069 29.4852 41.9123 28.9384 41.7752H28.7977L30.2227 43.5342L30.4162 43.6222V43.6749ZM27.9181 40.4384C28.4168 40.6896 28.9419 40.8843 29.4838 41.0189C30.381 41.2124 29.9236 40.6319 28.6746 40.0515C29.6421 40.2625 29.1847 39.6821 27.9885 39.1016C27.4899 38.8691 26.9719 38.6808 26.4404 38.5388H26.2997L27.7246 40.2977L27.9181 40.3857V40.4384ZM25.4025 37.202C25.8999 37.4419 26.4181 37.6362 26.9506 37.7824C27.8302 37.9583 27.3904 37.3778 26.159 36.7974C27.0913 37.0261 26.6515 36.4456 25.4729 35.8651C24.9792 35.6355 24.4673 35.4472 23.9424 35.3023H23.7841L25.2266 37.1492H25.4025V37.202ZM22.9045 33.9655C23.3958 34.2008 23.9082 34.3893 24.435 34.5283C25.297 34.7218 24.8396 34.1414 23.6258 33.5609L22.0249 33.0156L22.7286 33.9479H22.9221L22.9045 33.9655Z" fill="white"/>
<path style="mix-blend-mode:screen" opacity="0.2" fill-rule="evenodd" clip-rule="evenodd" d="M22.0249 33.0156L34.5326 49.1805L10.6078 102.143L8.84863 98.8886C11.1883 99.7857 30.5744 58.9603 30.4865 50.4469C30.3985 42.3909 24.9275 36.0411 22.4471 35.6365C22.0606 35.5363 21.6515 35.5705 21.2871 35.7335C20.9226 35.8965 20.6245 36.1787 20.4416 36.5336L22.0249 33.0156Z" fill="url(#paint16_radial_4_2870)"/>
<path style="mix-blend-mode:multiply" opacity="0.3" fill-rule="evenodd" clip-rule="evenodd" d="M12.2791 102.723C24.5933 106.769 49.8198 57.4652 41.1647 51.5726L47.8495 54.0352L24.0127 106.804L12.2791 102.723Z" fill="url(#paint17_radial_4_2870)"/>
<path d="M95.9982 29.3218C95.2208 28.1199 94.7335 26.7537 94.5747 25.3312C94.416 23.9087 94.5901 22.4688 95.0834 21.1251C95.4704 20.1401 100.695 20.4215 101.241 21.1251C101.786 21.8287 101.504 22.884 101.997 24.1681C102.701 25.927 106.518 24.5902 104.653 22.4091C103.565 21.2532 102.307 20.2687 100.924 19.4892C97.7398 17.4313 96.6139 14.4586 97.6518 11.6091C98.155 10.3218 98.9107 9.14815 99.8745 8.15731C100.838 7.16648 101.991 6.3785 103.264 5.83974C106.993 4.27427 114.206 5.69902 115.578 9.86775C116.317 12.084 116.193 15.0215 114.628 16.288C111.69 18.7153 106.588 16.499 107.82 13.3505C107.82 13.0691 108.506 12.9107 108.348 12.6645C107.433 11.2925 103.651 13.1922 105.41 15.5316C106.69 16.968 108.172 18.2121 109.808 19.2254C110.641 19.7677 111.331 20.5038 111.819 21.3709C112.306 22.2379 112.576 23.2101 112.605 24.2042C112.634 25.1982 112.422 26.1846 111.987 27.0789C111.552 27.9732 110.907 28.7489 110.107 29.3394C105.867 32.9981 98.9184 33.3498 96.0334 29.3394L95.9982 29.3218ZM74.0964 20.3335C74.2724 17.8006 75.9787 2.0228 77.3157 0.668405C77.8259 0.140718 83.3673 0.668407 83.4904 1.93486C83.7895 4.92508 82.2062 13.7023 81.4498 18.4515C81.098 20.6853 81.6433 21.5121 82.3821 21.7759C83.121 22.0397 84.0006 21.7759 84.6515 19.6827C85.1089 18.2404 86.9208 2.42736 87.7301 2.09316C88.5393 1.75895 94.1686 2.33941 93.9223 4.78436C93.3242 10.712 92.4974 16.0945 91.4947 21.9694C90.1049 30.2189 80.2536 30.3948 75.926 26.2436C75.2067 25.4689 74.6743 24.5398 74.3694 23.5277C74.0645 22.5155 73.9952 21.447 74.1668 20.4039L74.0964 20.3335ZM52.5289 27.1935C52.1243 26.9472 50.7698 3.28925 52.6521 1.47752C54.2705 -0.0351795 58.4046 -0.457324 59.7943 1.56548C61.1841 3.58828 62.3276 9.28728 63.1544 11.9785C63.1544 8.0736 63.3831 7.0886 63.2599 3.35961C63.1368 -0.369382 68.5374 -0.98501 69.7864 1.1961C70.2773 2.16722 70.5363 3.23895 70.5429 4.32704C70.7716 8.23193 70.1911 25.1531 68.2736 27.0352C67.3764 27.9323 62.996 27.6508 62.3979 26.7186C60.9554 24.1857 60.6388 20.6326 59.5305 18.3459C59.4073 20.1049 59.7416 26.0853 59.5305 26.6658C59.1259 27.7212 53.5493 27.8619 52.4938 27.1935H52.5289ZM40.7425 20.1577C41.1678 17.0955 41.0126 13.9806 40.2851 10.9759C39.0713 6.78958 36.7667 8.17917 36.4853 12.0313C36.3385 14.8807 36.7263 17.7324 37.6287 20.4391C38.9657 24.2912 40.1971 24.045 40.7425 20.1577V20.1577ZM31.63 23.4997C28.7977 17.9765 28.569 8.54853 31.63 4.15113C33.741 1.21367 40.9184 0.633227 43.4692 3.18372C47.269 7.0886 48.5884 15.7954 47.269 20.914C44.9293 30.1309 35.7288 31.6436 31.5596 23.4469L31.63 23.4997ZM18.2075 12.172C17.5917 11.6795 16.4483 12.0489 15.4455 12.4534C15.8677 14.2124 16.29 15.9713 16.6946 17.7303C19.1046 16.6925 20.2129 13.7726 18.2075 12.1544V12.172ZM21.7258 24.2208C21.0221 22.585 19.175 22.7433 17.7325 23.1127L18.7176 27.1583C20.0018 27.1583 22.6406 26.3668 21.7258 24.2208V24.2208ZM15.2344 33.0156C11.3643 33.2443 7.88111 11.1518 7.93388 10.6945C8.01184 10.1206 8.20852 9.56927 8.51141 9.07563C8.81429 8.58199 9.21674 8.15685 9.69306 7.82735C12.828 5.84021 16.5961 5.10552 20.2481 5.76937C22.1409 6.37476 23.7729 7.60321 24.8782 9.25454C25.9834 10.9059 26.4969 12.8828 26.3348 14.8632C25.9899 16.6534 25.0011 18.2553 23.5553 19.3661C24.2782 19.3822 24.9901 19.5466 25.6467 19.8492C26.3034 20.1518 26.8909 20.5861 27.3727 21.1251C28.2563 22.2696 28.7178 23.6838 28.6793 25.1291C28.6409 26.5744 28.1048 27.9621 27.1617 29.058C24.5053 32.0658 18.9463 32.7342 15.2169 32.9453L15.2344 33.0156Z" fill="url(#paint18_radial_4_2870)"/>
<path fill-rule="evenodd" clip-rule="evenodd" d="M108.383 13.5616C108.234 13.9586 108.234 14.3958 108.383 14.7928C108.602 15.2566 108.931 15.6596 109.342 15.9663C109.753 16.273 110.233 16.474 110.74 16.5518C111.347 16.6928 111.978 16.6964 112.587 16.5625C113.195 16.4286 113.767 16.1606 114.258 15.7778C114.733 15.2257 115.078 14.5739 115.267 13.8705C115.456 13.1672 115.484 12.4304 115.349 11.7147C115.299 11.1168 115.181 10.5267 114.997 9.9557C114.928 9.74316 114.839 9.53714 114.733 9.34006C112.974 6.01563 106.747 4.96026 103.527 6.29707C102.335 6.80424 101.254 7.54256 100.349 8.46938C99.4428 9.39621 98.7295 10.4932 98.2499 11.6971C97.9838 12.4404 97.8818 13.2324 97.9509 14.0189C98.0806 15.0318 98.4396 16.0018 99.0004 16.8552C99.5613 17.7086 100.309 18.423 101.188 18.944C102.63 19.7556 103.941 20.7816 105.076 21.987C105.385 22.2999 105.593 22.6993 105.672 23.1325C105.75 23.5658 105.696 24.0126 105.515 24.4143C105.308 24.7882 105.005 25.0999 104.637 25.3169C104.269 25.5339 103.849 25.6484 103.422 25.6484C102.995 25.6484 102.575 25.5339 102.207 25.3169C101.839 25.0999 101.535 24.7882 101.328 24.4143C101.121 23.8481 100.991 23.2564 100.941 22.6554C100.937 22.2975 100.859 21.9443 100.713 21.6176V21.6176C100.43 21.5066 100.134 21.4299 99.8332 21.3889C99.2519 21.2899 98.6636 21.237 98.074 21.2306C97.4889 21.1747 96.8999 21.1747 96.3148 21.2306C96.0359 21.2595 95.7631 21.3307 95.5056 21.4417C95.0634 22.6809 94.9096 24.0046 95.0559 25.3122C95.2022 26.6198 95.6448 27.8768 96.35 28.9876C96.6641 29.4187 97.0372 29.8036 97.4583 30.131C99.1639 31.3049 101.249 31.7946 103.299 31.5029C105.594 31.2498 107.762 30.319 109.526 28.8293C110.303 28.2436 110.918 27.4693 111.312 26.5798C111.706 25.6902 111.866 24.7148 111.778 23.7459C111.511 22.1208 110.614 20.6667 109.28 19.7003C107.595 18.6479 106.067 17.3629 104.741 15.8834C104.459 15.5399 104.273 15.1278 104.202 14.6891C104.131 14.2504 104.177 13.8006 104.337 13.3857C104.555 12.8781 104.915 12.4444 105.375 12.1368C106.325 11.486 107.961 11.1518 108.717 12.2775C108.818 12.4207 108.862 12.5963 108.84 12.77C108.84 13.157 108.559 13.3505 108.277 13.544L108.383 13.5616ZM88.1347 2.56809C88.0467 2.79675 87.9587 3.20131 87.906 3.35961C87.7476 4.02802 87.6245 4.69642 87.5013 5.36482C87.1671 7.21173 86.9032 9.09382 86.6218 10.9759C86.3403 12.858 86.094 14.7401 85.8125 16.6221L85.4959 18.6801C85.441 19.084 85.3587 19.4836 85.2496 19.8762C85.0419 20.6631 84.6361 21.3837 84.071 21.9694C83.8644 22.175 83.6099 22.326 83.3305 22.4089C83.051 22.4918 82.7554 22.5039 82.4701 22.4443H82.1711C80.535 21.8639 80.6054 19.8059 80.8341 18.4163C81.2035 16.0417 81.6081 13.6671 81.9775 11.3805C82.259 9.6215 82.5229 7.77459 82.6988 5.96286C82.6988 5.2241 82.8395 4.48535 82.8747 3.74658C82.9099 3.23122 82.9099 2.71407 82.8747 2.19871C82.6508 2.01663 82.394 1.87928 82.1183 1.79414C81.5454 1.61014 80.9564 1.48057 80.3591 1.40717C79.7762 1.32097 79.1889 1.26812 78.5999 1.24887C78.2955 1.22405 77.9896 1.22405 77.6851 1.24887C77.5433 1.54371 77.4256 1.8496 77.3333 2.16352C77.1222 2.90228 76.9639 3.65864 76.8056 4.3974C76.401 6.47297 76.0843 8.60132 75.8028 10.7121C75.5214 12.8228 75.2751 14.7225 75.0464 16.7453C74.9232 17.9766 74.7649 19.2254 74.6946 20.4567C74.5572 21.4026 74.6328 22.3671 74.9159 23.2801C75.1989 24.193 75.6822 25.0312 76.3306 25.7336C77.9473 27.1952 80.0131 28.0636 82.1886 28.1961C83.8132 28.3441 85.4477 28.0525 86.9208 27.3518C87.9765 26.8175 88.8857 26.0334 89.5694 25.0678C90.2531 24.1022 90.6905 22.9842 90.8438 21.8111C91.8113 16.1121 92.603 10.413 93.2539 4.66124C93.28 4.5395 93.28 4.4136 93.2539 4.29186C92.9724 3.51792 91.6354 3.06059 90.9317 2.86711C90.3158 2.70494 89.6853 2.60477 89.0494 2.56809C88.7455 2.53366 88.4386 2.53366 88.1347 2.56809V2.56809ZM53.0567 26.7538C53.352 26.8261 53.6517 26.879 53.9539 26.9121C54.6216 26.9562 55.2916 26.9562 55.9593 26.9121C56.6386 26.889 57.3151 26.8126 57.9824 26.6834C58.3138 26.6286 58.6344 26.5218 58.9323 26.3668C58.9411 26.2262 58.9411 26.0852 58.9323 25.9446V24.9596C58.9323 24.045 58.9323 23.1303 58.9323 22.2156C58.9323 21.4769 58.9323 20.7205 58.9323 19.9642C58.9323 19.2078 58.9323 18.8033 58.9323 18.2052L59.1083 15.6899L60.1462 17.9942C60.4819 18.7755 60.7583 19.581 60.973 20.4039C61.2193 21.2834 61.448 22.1629 61.6943 23.0424C61.9964 24.1726 62.4272 25.2644 62.9784 26.2964C63.213 26.4521 63.4761 26.5597 63.7525 26.613C64.2935 26.7506 64.8481 26.8273 65.4061 26.8417C65.9497 26.9034 66.4985 26.9034 67.0421 26.8417C67.3326 26.81 67.6138 26.7203 67.869 26.5778C68.4448 25.371 68.8079 24.0738 68.942 22.7433C69.3291 20.316 69.5226 17.8358 69.6809 15.3909C69.8392 12.9459 69.9272 10.9935 69.9624 8.79478C69.9624 7.91531 69.9624 7.03584 69.9624 6.17395C69.9624 5.55832 69.9624 4.96026 69.9624 4.41498C69.9626 3.42628 69.7338 2.45097 69.2939 1.56548C68.7309 0.615643 67.1125 0.580454 66.1802 0.826708C65.5642 0.917862 65.0003 1.22388 64.5882 1.69062C64.1762 2.15736 63.9425 2.75478 63.9284 3.3772C63.9284 4.78437 63.9284 6.17394 63.9284 7.56352C63.9284 8.9531 63.8229 10.5362 63.8053 12.0313V16.0065L62.6442 12.2072C62.3979 11.4508 62.2044 10.6769 62.0109 9.92052C61.8174 9.16416 61.5359 8.16158 61.2897 7.19415C61.0434 6.22673 60.7091 5.13616 60.3573 4.13356C60.1099 3.38077 59.7733 2.66033 59.3546 1.98763C58.2111 0.228669 54.5168 0.738767 53.1799 1.98763C52.9855 2.37458 52.8548 2.79034 52.7928 3.21889C52.6314 4.17306 52.5316 5.1366 52.4938 6.10358C52.3355 8.82997 52.353 11.6091 52.4938 14.3355C52.6345 17.0619 52.6697 19.9466 52.8456 22.7257C52.8456 23.7107 52.9863 24.6958 53.0743 25.6632L53.1799 26.5955C53.1741 26.6657 53.1741 26.7363 53.1799 26.8065L53.0567 26.7538ZM32.1929 23.2358C32.9346 24.7996 34.0753 26.1404 35.5001 27.1231C36.6456 27.8957 38.0072 28.2839 39.3879 28.2313C41.0265 28.1202 42.5698 27.4205 43.7331 26.2612C45.2188 24.7264 46.2324 22.7971 46.6533 20.7029C47.2429 17.8306 47.2429 14.8684 46.6533 11.9961C46.2295 8.89551 44.9434 5.97622 42.9414 3.57069C40.6897 1.23128 33.9521 1.81172 32.0698 4.46775C30.1874 7.12378 29.7476 11.9081 30.0115 15.2326C30.1814 17.9656 30.8741 20.6407 32.0521 23.1127L32.1929 23.2358ZM41.3758 20.2632C41.235 21.2834 40.8656 23.7811 39.5286 23.7811C38.1917 23.7811 37.3649 21.5648 37.0306 20.5974C36.0891 17.8143 35.6891 14.8768 35.852 11.9433C35.8957 10.9543 36.1411 9.98458 36.5732 9.0938C36.723 8.73432 36.9641 8.42023 37.2726 8.18265C37.5812 7.94508 37.9466 7.79229 38.3324 7.73943C39.8277 7.63389 40.6017 9.58632 40.936 10.7472C41.6911 13.8373 41.8522 17.0426 41.411 20.1929L41.3758 20.2632ZM8.51441 10.8V11.1342L8.61996 11.9433C8.76069 12.8228 8.91901 13.7023 9.07733 14.5818C9.51712 17.1147 10.0449 19.6476 10.643 22.1277C10.9772 23.4821 11.3291 24.8189 11.7337 26.1381C12.0778 27.2962 12.483 28.4352 12.9475 29.5505C13.2654 30.3625 13.6851 31.1308 14.1965 31.8371C14.3725 32.0482 14.7595 32.488 15.0761 32.4704C18.5945 32.2593 24.1007 31.6085 26.5987 28.7765C27.445 27.7923 27.9262 26.5466 27.9615 25.249C27.9967 23.9515 27.5838 22.6815 26.7922 21.6528C26.3629 21.1761 25.8434 20.7892 25.2636 20.5144C24.6839 20.2397 24.0554 20.0826 23.4146 20.0521L21.8841 19.9466L23.0628 18.944C24.3764 17.9242 25.2863 16.4723 25.6312 14.8456C25.7724 13.0204 25.2958 11.2008 24.278 9.67909C23.2602 8.15739 21.7603 7.02199 20.0194 6.45537C16.5425 5.82806 12.9568 6.53132 9.9745 8.42542C9.57239 8.69573 9.23046 9.04615 8.97012 9.45477C8.70979 9.86338 8.53666 10.3214 8.46161 10.8H8.51441ZM17.5214 22.5147C19.2806 22.0573 21.4092 22.0221 22.2536 23.9922C22.422 24.3248 22.5098 24.6923 22.5098 25.0651C22.5098 25.438 22.422 25.8055 22.2536 26.1381C21.8454 26.6797 21.3122 27.1146 20.6996 27.4056C20.0869 27.6966 19.413 27.835 18.7352 27.8091H18.2602L18.1547 27.3342C17.8204 25.9974 17.4862 24.643 17.1695 23.3062L17.0112 22.6906L17.6269 22.5322L17.5214 22.5147ZM16.0788 17.9238C15.6742 16.1648 15.252 14.4059 14.8298 12.6469L14.7067 12.1016L15.2169 11.9081C16.2196 11.5212 17.6445 10.9583 18.5945 11.7147C18.9351 11.9712 19.221 12.2931 19.4355 12.6616C19.65 13.0301 19.7887 13.4378 19.8435 13.8606C19.9014 14.8199 19.6533 15.7728 19.1348 16.5821C18.6163 17.3913 17.8542 18.0151 16.9584 18.3635L16.2548 18.6801L16.0788 17.9414V17.9238Z" fill="url(#paint19_radial_4_2870)"/>
<path style="mix-blend-mode:screen" fill-rule="evenodd" clip-rule="evenodd" d="M108.735 13.8254C108.656 14.0954 108.656 14.3822 108.735 14.6521C108.941 15.038 109.235 15.3706 109.592 15.6239C109.949 15.8773 110.36 16.0443 110.793 16.112C111.337 16.238 111.902 16.2402 112.447 16.1184C112.992 15.9966 113.503 15.754 113.942 15.4085C114.364 14.905 114.668 14.3136 114.832 13.6777C114.996 13.0417 115.017 12.3771 114.892 11.7322C114.841 11.1877 114.729 10.6508 114.557 10.1316C114.5 9.94269 114.423 9.76001 114.329 9.5863C112.675 6.47295 106.676 5.48795 103.651 6.7544C102.515 7.23659 101.485 7.93861 100.622 8.82008C99.7585 9.70156 99.0779 10.7451 98.6193 11.8906C98.369 12.5704 98.2728 13.2973 98.3379 14.0189C98.4814 14.9609 98.8381 15.8578 99.3807 16.6412C99.9234 17.4246 100.638 18.0738 101.469 18.5394L101.715 18.6977C104.9 19.6124 107.943 20.6326 110.775 21.7583C110.363 21.0722 109.819 20.4744 109.174 19.9994C107.451 18.9214 105.893 17.6002 104.548 16.0769C104.22 15.6775 104.005 15.1981 103.925 14.6879C103.844 14.1777 103.901 13.6553 104.09 13.1746C104.335 12.5946 104.745 12.0993 105.269 11.7498C105.827 11.2657 106.553 11.0202 107.29 11.0663C108.027 11.1123 108.716 11.4463 109.21 11.9961C109.367 12.215 109.436 12.485 109.403 12.7524C109.381 12.9703 109.308 13.1798 109.188 13.3634C109.069 13.547 108.907 13.6994 108.717 13.8078L108.735 13.8254ZM78.0018 1.51269C78.0018 1.72377 77.8259 2.0228 77.7731 2.1811C77.562 2.90228 77.4037 3.64104 77.2629 4.3798C76.8407 6.45537 76.5417 8.56611 76.2426 10.6593C76.1019 11.785 75.9436 12.9107 75.8204 14.0189C77.5796 14.1772 79.3388 14.3531 81.01 14.5642C81.2035 13.4208 81.3794 12.2775 81.5553 11.0462C81.8368 9.28728 82.1007 7.52833 82.2766 5.66383C82.3645 4.92507 82.4349 4.2039 82.4525 3.46514C82.4525 3.0254 82.4525 2.58566 82.4525 2.14592C82.2999 2.06327 82.1411 1.99271 81.9775 1.93485C81.4397 1.75417 80.8861 1.62461 80.3239 1.54788C79.761 1.54788 79.1804 1.42475 78.5647 1.40716L78.0018 1.51269ZM91.3539 16.1824C91.9521 12.3303 92.4798 8.46057 92.8668 4.59087C92.8799 4.56029 92.8866 4.52739 92.8866 4.49414C92.8866 4.46088 92.8799 4.42797 92.8668 4.39739C92.6733 3.81694 91.3891 3.37719 90.8438 3.23648C90.2684 3.08338 89.679 2.98909 89.0846 2.95505H88.5041C88.5041 3.13095 88.5041 3.30683 88.3809 3.46514C88.2226 4.11595 88.0995 4.76678 87.9763 5.43519C87.6421 7.29968 87.3606 9.16416 87.0967 11.0287C86.8856 12.4534 86.6921 13.8958 86.481 15.3381C88.1522 15.6019 89.7883 15.8834 91.4067 16.2L91.3539 16.1824ZM69.3291 13.6671C69.417 12.0664 69.4698 10.4658 69.505 8.86515C69.505 7.98567 69.505 7.10618 69.505 6.24429C69.505 5.64625 69.505 5.05993 69.505 4.48533C69.5083 3.56426 69.2975 2.655 68.8893 1.8293C68.4319 1.05536 66.9894 1.07295 66.2505 1.26644C65.7246 1.33361 65.2402 1.58704 64.8851 1.98076C64.5301 2.37448 64.328 2.88239 64.3154 3.41237C64.3154 4.80195 64.3154 6.20911 64.3154 7.61628C64.3154 9.02344 64.2099 10.5889 64.1923 12.084V13.5616C65.9515 13.5616 67.7106 13.5616 69.3466 13.7023L69.3291 13.6671ZM62.5035 13.5088L62.1516 12.3303C61.9053 11.5739 61.7118 10.8 61.5007 10.026C61.2896 9.2521 61.0433 8.2671 60.7971 7.29968C60.5508 6.33225 60.2165 5.27687 59.8647 4.27427C59.6414 3.55193 59.3281 2.86051 58.9323 2.21628C58.5428 1.83775 58.067 1.55984 57.5459 1.40659C57.0248 1.25335 56.4742 1.2294 55.9417 1.3368C55.0243 1.39302 54.1435 1.71715 53.4085 2.26904C53.2778 2.59784 53.1834 2.93994 53.1271 3.28924C52.9657 4.23159 52.8658 5.18344 52.828 6.13876C52.6697 8.67166 52.6873 11.2221 52.828 13.7726C55.8362 13.5967 58.9148 13.5088 62.0285 13.5088H62.5035ZM46.6709 14.23C46.6709 13.5264 46.495 12.8404 46.3894 12.1896C45.996 9.17432 44.7786 6.32593 42.8711 3.95765C40.7953 1.81173 34.3743 2.40977 32.6327 4.81954C30.6976 7.51075 30.3985 12.084 30.6624 15.3733C30.6624 15.813 30.6624 16.2528 30.8031 16.6925C32.3688 16.3583 33.9697 16.0593 35.6057 15.7778C35.4917 14.5316 35.4917 13.2775 35.6057 12.0313C35.6583 10.9811 35.9215 9.95228 36.3797 9.00587C36.5582 8.58927 36.8416 8.22604 37.2023 7.95166C37.563 7.67729 37.9888 7.50113 38.438 7.4404C38.7567 7.42259 39.0753 7.47669 39.3703 7.5987C39.9134 7.95734 40.3797 8.4204 40.7421 8.96094C41.1045 9.50147 41.3558 10.1087 41.4813 10.7472C41.8361 12.0766 42.06 13.4375 42.1498 14.8104C43.6979 14.6169 45.2636 14.441 46.8468 14.3003L46.6709 14.23ZM8.93659 10.8C8.94518 10.8877 8.94518 10.9761 8.93659 11.0638C8.93659 11.3277 8.9366 11.5915 9.05974 11.873C9.20048 12.7348 9.34121 13.6319 9.49954 14.4938C9.95692 17.0091 10.4671 19.5244 11.0828 22.0221C11.0828 22.198 11.0828 22.3915 11.2059 22.585C15.0061 20.9804 18.9082 19.6289 22.8869 18.5394C24.0855 17.5916 24.9135 16.2532 25.2266 14.7576C25.359 13.0403 24.9108 11.3283 23.9538 9.89619C22.9968 8.46405 21.5865 7.39481 19.949 6.85994C18.2795 6.49934 16.5522 6.49934 14.8826 6.85994C13.2361 7.12278 11.6612 7.72151 10.256 8.61889C9.90668 8.85497 9.60835 9.15876 9.37869 9.51228C9.14903 9.86579 8.99272 10.2618 8.91901 10.6769L8.93659 10.8ZM15.6742 17.9941C15.252 16.2352 14.8474 14.4762 14.4252 12.7173L14.2141 11.8202L15.0761 11.486C15.4983 11.3277 15.9205 11.1694 16.3603 11.0462C16.7729 10.9028 17.2131 10.8568 17.6465 10.9117C18.0798 10.9666 18.4946 11.1211 18.8583 11.3629C19.6054 11.9222 20.1092 12.7471 20.2657 13.6671C20.3377 14.7215 20.0711 15.7713 19.5047 16.6635C18.9383 17.5558 18.1017 18.2438 17.1168 18.6274L15.9557 19.1375L15.6742 17.9062V17.9941Z" fill="url(#paint20_radial_4_2870)"/>
<path style="mix-blend-mode:screen" fill-rule="evenodd" clip-rule="evenodd" d="M31.9994 13.3153C32.7634 10.6913 33.7219 8.12786 34.8668 5.64626C35.2011 5.01303 35.7464 4.23909 36.0631 3.60586C36.0973 3.55035 36.1155 3.48641 36.1155 3.42118C36.1155 3.35595 36.0973 3.292 36.0631 3.23648C35.5529 2.91987 33.4595 4.16873 32.9669 4.69642C31.4013 6.45538 30.8383 10.5362 31.0846 12.8932C31.2429 14.3883 31.454 15.0567 32.0346 13.3153H31.9994Z" fill="url(#paint21_radial_4_2870)"/>
<path style="mix-blend-mode:screen" fill-rule="evenodd" clip-rule="evenodd" d="M99.0416 11.9082C98.6898 12.8756 98.6898 14.0013 99.0416 14.1948C99.3934 14.3883 99.7101 13.931 100.396 13.0339C101.891 10.9297 103.886 9.23095 106.201 8.09122C106.835 7.73943 107.556 7.54596 108.172 7.19416C108.277 7.19416 108.383 6.98308 108.33 6.87754C108.287 6.79532 108.224 6.725 108.148 6.67283C108.071 6.62066 107.983 6.58826 107.89 6.57852C106.04 6.30643 104.153 6.68344 102.549 7.64545C100.946 8.60745 99.7249 10.0951 99.0944 11.8554L99.0416 11.9082Z" fill="url(#paint22_radial_4_2870)"/>
<path style="mix-blend-mode:screen" fill-rule="evenodd" clip-rule="evenodd" d="M53.69 2.40977C53.531 2.6077 53.4277 2.84454 53.391 3.09576C53.0064 5.66834 52.8592 8.27083 52.9512 10.8704C52.9512 11.7674 53.4085 12.172 53.6372 11.1342C54.2002 8.61889 54.3761 6.05082 55.1149 3.51792C55.2925 2.97237 55.6075 2.48169 56.0297 2.09316C56.2408 1.8469 56.1352 1.5303 55.7658 1.56548C55.0031 1.62521 54.2778 1.92022 53.69 2.40977V2.40977Z" fill="url(#paint23_radial_4_2870)"/>
<path style="mix-blend-mode:screen" fill-rule="evenodd" clip-rule="evenodd" d="M65.0367 2.09316C64.8721 2.29638 64.763 2.53879 64.72 2.79674C64.6197 3.81366 64.5903 4.83632 64.6321 5.85732C64.6321 7.4228 64.6321 9.00587 64.6321 10.5362C64.6321 11.4332 65.0718 11.8378 65.3181 10.8C65.8811 8.28468 65.7227 5.7342 66.4616 3.21889C66.6282 2.6682 66.945 2.17484 67.3764 1.79414C67.5875 1.54788 67.4819 1.21369 67.0949 1.24886C66.3422 1.32776 65.6279 1.62076 65.0367 2.09316V2.09316Z" fill="url(#paint24_radial_4_2870)"/>
<path style="mix-blend-mode:screen" fill-rule="evenodd" clip-rule="evenodd" d="M78.4064 1.91726C78.217 2.07031 78.0814 2.27984 78.0194 2.51531C77.338 5.01456 76.8789 7.56911 76.6473 10.1492C76.5593 11.0462 76.9287 11.5915 77.263 10.6417C78.1249 8.31986 78.6175 5.82214 79.6203 3.60586C79.8402 3.13013 80.2113 2.74052 80.6758 2.49772C80.9045 2.32182 80.8517 1.97003 80.4822 1.86449C79.798 1.66651 79.0671 1.70366 78.4064 1.97002V1.91726Z" fill="url(#paint25_radial_4_2870)"/>
<path style="mix-blend-mode:screen" fill-rule="evenodd" clip-rule="evenodd" d="M88.9615 3.44756C88.7748 3.59243 88.6442 3.79758 88.592 4.028C87.9476 6.56445 87.5412 9.15548 87.3782 11.7674C87.2726 12.6645 87.6421 13.2098 87.9939 12.2599C88.8383 9.95569 89.1902 7.35244 90.1929 5.06579C90.4744 4.43257 90.8966 4.41498 91.2484 4.25667C91.6002 4.09837 91.5651 3.79934 91.2484 3.60585C90.9016 3.42406 90.5209 3.31613 90.1303 3.28888C89.7397 3.26163 89.3477 3.31567 88.9791 3.44756H88.9615Z" fill="url(#paint26_radial_4_2870)"/>
<path style="mix-blend-mode:screen" fill-rule="evenodd" clip-rule="evenodd" d="M9.37642 10.1492C9.26948 10.3801 9.22114 10.6339 9.23568 10.8879C9.48135 13.483 9.96422 16.05 10.6782 18.557C10.9069 19.4189 11.4171 19.7003 11.3995 18.557C11.3995 15.9713 10.9069 13.4384 11.0125 10.8C11.0282 10.1265 11.1777 9.46278 11.4523 8.84754C11.593 8.56611 11.4522 8.26708 11.0476 8.4078C10.6733 8.55882 10.3328 8.7828 10.0459 9.06666C9.75899 9.35052 9.53141 9.68859 9.37642 10.0612V10.1492Z" fill="url(#paint27_radial_4_2870)"/>
<path d="M114 16L100.5 59.5L47.9999 68.5C37.8332 58.8334 29.5001 44.5 16.5 25.5C8.13045 13.2676 77.9998 9.83336 114 16Z" fill="url(#paint28_linear_4_2870)"/>
</g>
<defs>
<radialGradient id="paint0_radial_4_2870" cx="0" cy="0" r="1" gradientUnits="userSpaceOnUse" gradientTransform="translate(20.9518 61.8274) scale(55.6075 55.6007)">
<stop stop-color="#FF78D2"/>
<stop offset="1" stop-color="#FC51A7"/>
</radialGradient>
<radialGradient id="paint1_radial_4_2870" cx="0" cy="0" r="1" gradientUnits="userSpaceOnUse" gradientTransform="translate(37.4352 43.1824) scale(93.1307 93.1192)">
<stop stop-color="#F74FA9"/>
<stop offset="1" stop-color="#940066"/>
</radialGradient>
<radialGradient id="paint2_radial_4_2870" cx="0" cy="0" r="1" gradientUnits="userSpaceOnUse" gradientTransform="translate(23.4498 57.5531) scale(93.7113 93.6997)">
<stop stop-color="white"/>
<stop offset="1" stop-color="#FFBAF6"/>
</radialGradient>
<radialGradient id="paint3_radial_4_2870" cx="0" cy="0" r="1" gradientUnits="userSpaceOnUse" gradientTransform="translate(10704.7 7557.89) scale(1333.5 1161.03)">
<stop stop-color="white"/>
<stop offset="1" stop-color="#FFBAF6"/>
</radialGradient>
<radialGradient id="paint4_radial_4_2870" cx="0" cy="0" r="1" gradientUnits="userSpaceOnUse" gradientTransform="translate(46.7588 76.7257) scale(33.266 33.2619)">
<stop offset="0.54" stop-color="white"/>
<stop offset="0.58" stop-color="#F9F5FA"/>
<stop offset="0.66" stop-color="#EADAEE"/>
<stop offset="0.76" stop-color="#D1ADDB"/>
<stop offset="0.87" stop-color="#AE70BF"/>
<stop offset="1" stop-color="#82239D"/>
</radialGradient>
<radialGradient id="paint5_radial_4_2870" cx="0" cy="0" r="1" gradientUnits="userSpaceOnUse" gradientTransform="translate(10441.8 3057.89) scale(1997.82 726.146)">
<stop offset="0.54" stop-color="white"/>
<stop offset="0.58" stop-color="#F9F5FA"/>
<stop offset="0.66" stop-color="#EADAEE"/>
<stop offset="0.76" stop-color="#D1ADDB"/>
<stop offset="0.87" stop-color="#AE70BF"/>
<stop offset="1" stop-color="#82239D"/>
</radialGradient>
<radialGradient id="paint6_radial_4_2870" cx="0" cy="0" r="1" gradientUnits="userSpaceOnUse" gradientTransform="translate(13.704 99.7681) scale(52.5289 52.5225)">
<stop offset="0.54" stop-color="white"/>
<stop offset="0.58" stop-color="#F9F5F8"/>
<stop offset="0.66" stop-color="#EADAE4"/>
<stop offset="0.75" stop-color="#D1ADC3"/>
<stop offset="0.87" stop-color="#AF7096"/>
<stop offset="1" stop-color="#82205C"/>
</radialGradient>
<radialGradient id="paint7_radial_4_2870" cx="0" cy="0" r="1" gradientUnits="userSpaceOnUse" gradientTransform="translate(11309.4 3028.84) scale(1340.77 421.55)">
<stop offset="0.54" stop-color="white"/>
<stop offset="0.58" stop-color="#F9F5F8"/>
<stop offset="0.66" stop-color="#EADAE4"/>
<stop offset="0.75" stop-color="#D1ADC3"/>
<stop offset="0.87" stop-color="#AF7096"/>
<stop offset="1" stop-color="#82205C"/>
</radialGradient>
<radialGradient id="paint8_radial_4_2870" cx="0" cy="0" r="1" gradientUnits="userSpaceOnUse" gradientTransform="translate(41.2175 80.1381) scale(70.3846 70.3759)">
<stop stop-color="#940066"/>
<stop offset="1" stop-color="#F74FA9"/>
</radialGradient>
<radialGradient id="paint9_radial_4_2870" cx="0" cy="0" r="1" gradientUnits="userSpaceOnUse" gradientTransform="translate(78.2833 74.5094) scale(49.8198 49.8137)">
<stop stop-color="#FC51A7"/>
<stop offset="1" stop-color="#FF78D2"/>
</radialGradient>
<linearGradient id="paint10_linear_4_2870" x1="35.6233" y1="99.9791" x2="35.6233" y2="64.5361" gradientUnits="userSpaceOnUse">
<stop stop-color="#EBB6CA"/>
<stop offset="1" stop-color="#6E1259"/>
</linearGradient>
<radialGradient id="paint11_radial_4_2870" cx="0" cy="0" r="1" gradientUnits="userSpaceOnUse" gradientTransform="translate(4.34516 35.1792) scale(79.5675 79.5577)">
<stop stop-color="#FF69CD"/>
<stop offset="1" stop-color="#ED288B"/>
</radialGradient>
<radialGradient id="paint12_radial_4_2870" cx="0" cy="0" r="1" gradientUnits="userSpaceOnUse" gradientTransform="translate(735.802 493.76) scale(502.807 410.62)">
<stop stop-color="#FF78D2"/>
<stop offset="1" stop-color="#FC51A7"/>
</radialGradient>
<radialGradient id="paint13_radial_4_2870" cx="0" cy="0" r="1" gradientUnits="userSpaceOnUse" gradientTransform="translate(-154.391 1494.76) scale(1677.37 2596.15)">
<stop stop-color="#F74FA9"/>
<stop offset="1" stop-color="#940066"/>
</radialGradient>
<radialGradient id="paint14_radial_4_2870" cx="0" cy="0" r="1" gradientUnits="userSpaceOnUse" gradientTransform="translate(6039.99 10100.8) scale(1087.71 2185.85)">
<stop stop-color="white"/>
<stop offset="1" stop-color="#FFBAF6"/>
</radialGradient>
<radialGradient id="paint15_radial_4_2870" cx="0" cy="0" r="1" gradientUnits="userSpaceOnUse" gradientTransform="translate(5305.75 8954.97) scale(1425.25 2419.45)">
<stop stop-color="white"/>
<stop offset="1" stop-color="#FFBAF6"/>
</radialGradient>
<radialGradient id="paint16_radial_4_2870" cx="0" cy="0" r="1" gradientUnits="userSpaceOnUse" gradientTransform="translate(-13.5633 57.5003) scale(61.5887 61.5811)">
<stop/>
<stop offset="1" stop-color="#FFD9E2"/>
</radialGradient>
<radialGradient id="paint17_radial_4_2870" cx="0" cy="0" r="1" gradientUnits="userSpaceOnUse" gradientTransform="translate(20.9342 72.6098) scale(67.218 67.2097)">
<stop stop-color="#8A1F1F"/>
<stop offset="1" stop-color="#4A2121"/>
</radialGradient>
<radialGradient id="paint18_radial_4_2870" cx="0" cy="0" r="1" gradientUnits="userSpaceOnUse" gradientTransform="translate(63.084 145.624) scale(148.105 148.087)">
<stop offset="0.78" stop-color="#FCEA10"/>
<stop offset="1" stop-color="#FF6633"/>
</radialGradient>
<radialGradient id="paint19_radial_4_2870" cx="0" cy="0" r="1" gradientUnits="userSpaceOnUse" gradientTransform="translate(55.5547 188.121) scale(187.528 187.505)">
<stop offset="0.85" stop-color="#FF3C00"/>
<stop offset="1" stop-color="#B5008E"/>
</radialGradient>
<radialGradient id="paint20_radial_4_2870" cx="0" cy="0" r="1" gradientUnits="userSpaceOnUse" gradientTransform="translate(58.7916 255.858) scale(254.887 254.856)">
<stop offset="0.91"/>
<stop offset="0.92" stop-color="#060104"/>
<stop offset="0.93" stop-color="#19030F"/>
<stop offset="0.94" stop-color="#370821"/>
<stop offset="0.96" stop-color="#600E3B"/>
<stop offset="0.97" stop-color="#96155C"/>
<stop offset="0.99" stop-color="#D61E83"/>
<stop offset="1" stop-color="#FF249C"/>
</radialGradient>
<radialGradient id="paint21_radial_4_2870" cx="0" cy="0" r="1" gradientUnits="userSpaceOnUse" gradientTransform="translate(29.9587 1.26645) scale(17.1872 17.185)">
<stop stop-color="#FFD621"/>
<stop offset="1"/>
</radialGradient>
<radialGradient id="paint22_radial_4_2870" cx="0" cy="0" r="1" gradientUnits="userSpaceOnUse" gradientTransform="translate(2271.11 982.293) scale(100.829 81.6459)">
<stop stop-color="#FFD621"/>
<stop offset="1"/>
</radialGradient>
<radialGradient id="paint23_radial_4_2870" cx="0" cy="0" r="1" gradientUnits="userSpaceOnUse" gradientTransform="translate(689.132 1272.18) scale(31.0666 98.5)">
<stop stop-color="#FFD621"/>
<stop offset="1"/>
</radialGradient>
<radialGradient id="paint24_radial_4_2870" cx="0" cy="0" r="1" gradientUnits="userSpaceOnUse" gradientTransform="translate(653.285 1275.15) scale(22.9855 81.449)">
<stop stop-color="#FFD621"/>
<stop offset="1"/>
</radialGradient>
<radialGradient id="paint25_radial_4_2870" cx="0" cy="0" r="1" gradientUnits="userSpaceOnUse" gradientTransform="translate(963.239 1180.7) scale(33.8479 76.1469)">
<stop stop-color="#FFD621"/>
<stop offset="1"/>
</radialGradient>
<radialGradient id="paint26_radial_4_2870" cx="0" cy="0" r="1" gradientUnits="userSpaceOnUse" gradientTransform="translate(993.31 1193.57) scale(33.4464 76.5669)">
<stop stop-color="#FFD621"/>
<stop offset="1"/>
</radialGradient>
<radialGradient id="paint27_radial_4_2870" cx="0" cy="0" r="1" gradientUnits="userSpaceOnUse" gradientTransform="translate(401.998 1428.15) scale(19.2906 92.8869)">
<stop stop-color="#FFD621"/>
<stop offset="1"/>
</radialGradient>
<linearGradient id="paint28_linear_4_2870" x1="70.4884" y1="9.82816" x2="70.4884" y2="65.5" gradientUnits="userSpaceOnUse">
<stop offset="0.276042" stop-color="#FFD84F" stop-opacity="0"/>
<stop offset="1" stop-color="#FFC147"/>
</linearGradient>
<clipPath id="clip0_4_2870">
<rect width="116" height="108" fill="white"/>
</clipPath>
</defs>
</svg>
