<svg width="95" height="94" viewBox="0 0 95 94" fill="none" xmlns="http://www.w3.org/2000/svg">
<g style="mix-blend-mode:luminosity" clip-path="url(#clip0_9_2329)">
<path d="M64.1346 48.1176C64.2736 42.5643 63.9001 37.0102 63.0189 31.526C66.0303 31.282 69.0605 31.4397 72.0299 31.9949C72.3532 32.0636 72.6868 32.0672 73.0116 32.0055C73.3363 31.9437 73.6455 31.818 73.9212 31.6354C74.1968 31.4529 74.4334 31.2173 74.6171 30.9424C74.8008 30.6675 74.928 30.3587 74.9911 30.0342C75.0543 29.7097 75.0522 29.3758 74.985 29.0522C74.9178 28.7285 74.7868 28.4215 74.5997 28.1491C74.4126 27.8767 74.1731 27.6443 73.8952 27.4656C73.6173 27.2868 73.3065 27.1652 72.9811 27.1079C66.137 25.777 58.5742 26.4083 51.1074 28.9301C44.867 31.0379 38.6593 34.4135 32.1295 39.2531C30.8822 40.1792 29.5912 41.2051 28.7068 42.7089C28.373 43.278 28.2787 43.9563 28.4444 44.5947C28.6101 45.2331 29.0223 45.7794 29.5906 46.1138L29.6175 46.1292C30.1855 46.4541 30.8589 46.5417 31.4915 46.3732C32.1241 46.2046 32.6648 45.7934 32.9965 45.2288C33.3973 44.5279 34.2224 43.8957 35.0907 43.2503C41.203 38.7161 46.9575 35.5833 52.6962 33.6436C54.4634 33.0502 56.266 32.568 58.0933 32.1999C58.9387 37.4148 59.2975 42.6973 59.1651 47.9792C59.0851 51.1206 58.8135 54.7413 57.4035 57.7801C57.1415 58.3455 57.101 58.9884 57.2898 59.5819C57.4786 60.1755 57.883 60.6765 58.4232 60.9861C58.4837 61.0207 58.5475 61.0572 58.6097 61.0928C59.2084 61.3699 59.8928 61.3978 60.5123 61.1703C61.1319 60.9428 61.6359 60.4785 61.9135 59.8796C63.7023 56.0224 64.0389 51.7698 64.1346 48.1176Z" fill="url(#paint0_linear_9_2329)"/>
<path d="M60.6032 54.3439C59.4175 49.9858 55.0283 47.1838 50.6331 48.1968C48.31 48.731 46.1236 49.744 44.2134 51.1709C42.3032 52.5979 40.7113 54.4076 39.5394 56.4843C35.0914 64.3409 37.5897 74.5504 45.1708 79.4453C48.145 81.3678 51.6398 82.3261 55.1792 82.1894C58.7186 82.0528 62.1305 80.8279 64.9499 78.6818C67.7693 76.5356 69.8592 73.5724 70.9347 70.1961C72.0103 66.8197 72.0193 63.1942 70.9605 59.8137C69.5957 55.5116 64.9552 53.1569 60.6032 54.3439Z" fill="url(#paint1_linear_9_2329)"/>
<path opacity="0.2" d="M48.8757 72.939C42.3347 68.7237 39.5924 60.547 41.8077 53.3362C40.9288 54.2975 40.1611 55.3549 39.5193 56.4884C35.0713 64.345 37.5695 74.5545 45.1507 79.4494C47.3837 80.8964 49.9217 81.8059 52.5658 82.1066C55.2098 82.4073 57.8878 82.091 60.3898 81.1825C62.8918 80.274 65.1496 78.798 66.986 76.8704C68.8225 74.9428 70.1876 72.6159 70.9744 70.0724C68.2249 73.0896 64.4949 75.0337 60.4483 75.5586C56.4016 76.0836 52.3008 75.1553 48.8757 72.939Z" fill="#2B003A"/>
<g opacity="0.3">
<path opacity="0.3" d="M66.993 63.9417C65.765 64.3703 64.2525 63.2266 63.6136 61.3892C62.9747 59.5518 63.4522 57.715 64.6802 57.2864C65.9082 56.8578 67.4225 58.0025 68.0614 59.8399C68.7002 61.6772 68.2201 63.5148 66.993 63.9417Z" fill="#F2F2F2"/>
</g>
<g opacity="0.3">
<path opacity="0.3" d="M66.9177 67.6947C67.5865 68.0771 68.439 67.8446 68.8217 67.1753C69.2044 66.5061 68.9725 65.6534 68.3036 65.271C67.6347 64.8885 66.7823 65.121 66.3996 65.7903C66.0169 66.4596 66.2488 67.3122 66.9177 67.6947Z" fill="#F2F2F2"/>
</g>
<path d="M34.6819 39.5216C33.4979 35.1644 29.1087 32.3624 24.7136 33.3754C22.3903 33.9093 20.2037 34.9221 18.2935 36.3491C16.3833 37.7761 14.7915 39.586 13.6199 41.6629C9.17184 49.5195 11.6701 59.729 19.2512 64.6239C22.2256 66.5394 25.718 67.4917 29.2536 67.3513C32.7891 67.211 36.1963 65.9849 39.0118 63.8396C41.8273 61.6944 43.9145 58.7342 44.9895 55.3615C46.0646 51.9888 46.0753 48.3673 45.0203 44.9894C43.6744 40.6892 39.034 38.3346 34.6819 39.5216Z" fill="url(#paint2_linear_9_2329)"/>
<path opacity="0.2" d="M22.9594 58.1195C16.4184 53.9042 13.6761 45.7275 15.8914 38.5167C15.0127 39.4782 14.2445 40.5352 13.6014 41.6679C9.15333 49.5246 11.6532 59.735 19.2344 64.6299C21.4681 66.073 24.0057 66.9793 26.6486 67.2778C29.2914 67.5763 31.9677 67.2589 34.4682 66.3505C36.9686 65.4421 39.2253 63.9673 41.0616 62.0415C42.8979 60.1158 44.264 57.7913 45.0531 55.25C42.304 58.2661 38.5752 60.2097 34.5298 60.7351C30.4844 61.2605 26.3845 60.3337 22.9594 58.1195Z" fill="#2B003A"/>
<g opacity="0.3">
<path opacity="0.3" d="M41.0717 49.1193C39.8437 49.5479 38.3295 48.4032 37.6906 46.5658C37.0517 44.7285 37.5292 42.8916 38.7589 42.464C39.9886 42.0364 41.4995 43.1791 42.1384 45.0165C42.7773 46.8539 42.2988 48.6924 41.0717 49.1193Z" fill="#F2F2F2"/>
</g>
<g opacity="0.3">
<path opacity="0.3" d="M40.9964 52.8723C41.6653 53.2548 42.5177 53.0222 42.9004 52.353C43.2832 51.6837 43.0512 50.8311 42.3823 50.4486C41.7135 50.0661 40.861 50.2986 40.4783 50.9679C40.0956 51.6372 40.3276 52.4898 40.9964 52.8723Z" fill="#F2F2F2"/>
</g>
<path d="M73.7379 27.398C74.2441 27.6932 74.6297 28.1577 74.8269 28.7096C75.0241 29.2615 75.0203 29.8655 74.816 30.4151C74.6118 30.9646 74.2203 31.4246 73.7104 31.7139C73.2006 32.0032 72.6051 32.1033 72.0289 31.9966C69.0596 31.4414 66.0293 31.2837 63.018 31.5277C63.8991 37.0118 64.2726 42.5659 64.1336 48.1193C64.1005 50.1134 63.931 52.103 63.6261 54.0741C64.8807 54.1821 66.0967 54.5609 67.1905 55.1845C68.984 56.1959 70.3264 57.8507 70.9466 59.8147C71.9983 63.148 72.0082 66.7235 70.9748 70.0637C70.7928 70.6509 70.579 71.2278 70.3344 71.7918C70.3304 71.8006 70.3256 71.8091 70.32 71.817C70.2094 72.0727 70.0902 72.328 69.966 72.5803C69.9477 72.6122 69.9294 72.6442 69.9112 72.6761C69.7706 72.9571 69.6214 73.2375 69.4628 73.5148C68.8656 74.5607 68.1606 75.5412 67.3596 76.4405C65.3363 78.7039 62.7524 80.3938 59.8686 81.3397C56.9847 82.2857 53.9029 82.4543 50.934 81.8286C50.6496 81.7685 50.3646 81.7015 50.0802 81.6259C49.7531 81.5392 49.4294 81.4388 49.1052 81.3315C48.0067 80.9672 46.9472 80.4944 45.9425 79.92C45.6749 79.767 45.41 79.6066 45.1478 79.4388C40.1369 76.2077 37.3655 70.6507 37.3332 64.985C33.6212 67.172 29.227 67.8929 25.0127 67.0062C24.7283 66.9461 24.4434 66.8792 24.159 66.8035C23.8319 66.7168 23.5064 66.6155 23.1822 66.5082C22.0842 66.1443 21.0253 65.6718 20.0212 65.0976C19.7536 64.9446 19.4887 64.7842 19.2265 64.6164C13.4334 60.8823 10.6222 54.0423 11.5942 47.5168C11.8944 45.4565 12.5721 43.469 13.5935 41.6545C13.5935 41.6545 13.6021 41.6393 13.6059 41.6326C13.7645 41.3553 13.9222 41.0797 14.098 40.8189C14.1211 40.7786 14.1432 40.7399 14.1747 40.7044C14.3301 40.4676 14.4879 40.2344 14.6532 40.0078C14.6638 39.9893 14.6734 39.9725 14.6839 39.954C15.054 39.4498 15.4507 38.9656 15.8723 38.5035C18.2206 35.9375 21.2921 34.1449 24.6804 33.3631C26.6926 32.9 28.8051 33.2176 30.5915 34.2519C32.0641 35.0964 33.2565 36.3544 34.0213 37.8703C39.8555 33.7638 45.458 30.8227 51.0827 28.9226C58.5444 26.398 66.1122 25.7696 72.9563 27.1004C73.2236 27.1531 73.4805 27.2488 73.7171 27.3838L73.7379 27.398ZM40.0934 39.799C40.4933 39.9537 40.881 40.1382 41.2534 40.3508C43.0476 41.3621 44.3907 43.0174 45.0111 44.982C45.5317 46.6353 45.8009 48.3576 45.8097 50.0912C47.3043 49.2196 48.9214 48.5782 50.6067 48.1884C52.6168 47.7266 54.7267 48.0444 56.5109 49.0777C57.4525 49.6175 58.2849 50.3287 58.965 51.1746C59.0643 50.085 59.117 49.0067 59.1416 47.9814C59.274 42.6995 58.9151 37.4169 58.0697 32.202C56.2424 32.5702 54.4398 33.0524 52.6726 33.6457C48.5297 35.0438 44.3753 37.082 40.0905 39.8041L40.0934 39.799ZM74.9502 25.2274C74.4788 24.9585 73.967 24.7676 73.4347 24.6619C66.1626 23.2491 58.1597 23.9097 50.2797 26.5654C45.1004 28.3143 39.9707 30.8922 34.6615 34.4158C33.8495 33.4891 32.8892 32.704 31.8196 32.0926C29.489 30.7489 26.736 30.3371 24.1134 30.9401C20.2323 31.8315 16.7145 33.8852 14.029 36.8272C13.5444 37.355 13.0901 37.9099 12.6685 38.4893L12.6416 38.5363C12.4443 38.8072 12.262 39.0754 12.0847 39.3464C12.0597 39.3902 12.0314 39.4319 11.9996 39.4718C11.8067 39.7741 11.6225 40.0769 11.4504 40.3777L11.4254 40.4214C10.2492 42.5038 9.46871 44.7859 9.12348 47.1523C7.97459 54.868 11.408 62.5455 17.8696 66.7087C18.1657 66.9004 18.4699 67.0855 18.7756 67.2603C19.9224 67.9182 21.1319 68.4604 22.3861 68.8788C22.7929 69.0132 23.1593 69.1247 23.5078 69.2169C23.8563 69.3091 24.1549 69.3794 24.488 69.4517C28.0551 70.2089 31.7631 69.9584 35.1972 68.7283C35.6855 71.336 36.6993 73.8168 38.1769 76.0195C39.6545 78.2222 41.565 80.1007 43.7921 81.5407C44.0882 81.7323 44.3924 81.9175 44.6981 82.0923C45.8449 82.7503 47.0543 83.2924 48.3086 83.7108C48.717 83.8462 49.0818 83.9566 49.4303 84.0489C49.7788 84.1411 50.079 84.2124 50.4105 84.2837C54.1484 85.0802 58.0379 84.7701 61.6036 83.3911C65.1693 82.0122 68.2568 79.6243 70.4887 76.5192C70.8946 75.9563 71.2702 75.3723 71.614 74.7695C71.7918 74.4585 71.9641 74.1378 72.129 73.8105L72.1919 73.677C72.3267 73.4061 72.4618 73.1154 72.5892 72.8224C72.5969 72.809 72.6075 72.7905 72.618 72.772C72.8923 72.133 73.1332 71.4801 73.3397 70.8161C74.5282 66.9929 74.5175 62.8979 73.309 59.0824C72.4985 56.5221 70.7505 54.3634 68.4152 53.0389C67.7681 52.67 67.0855 52.3672 66.3778 52.1348C66.5248 50.6576 66.5772 49.307 66.6066 48.1953C66.7254 43.4262 66.4772 38.6553 65.8644 33.9248C67.7674 33.9236 69.6661 34.102 71.5354 34.4577C72.693 34.6834 73.8933 34.4903 74.9222 33.913C75.9511 33.3356 76.7417 32.4115 77.153 31.3055C77.5643 30.1995 77.5694 28.9835 77.1677 27.8745C76.7659 26.7654 75.9832 25.8354 74.9593 25.2504L74.9502 25.2274ZM44.7706 39.9221C47.5497 38.3522 50.4677 37.0425 53.4874 36.0096C54.3138 35.7313 55.157 35.4767 56.0171 35.2459C56.4935 38.9414 56.7204 42.665 56.6963 46.3913C54.61 45.4772 52.2844 45.2603 50.0644 45.7728C49.3484 45.9395 48.6421 46.1454 47.9486 46.3896C47.8042 45.6632 47.6193 44.9454 47.3949 44.2396C46.8813 42.6069 45.9784 41.1238 44.7639 39.9182L44.7706 39.9221Z" fill="url(#paint3_linear_9_2329)"/>
<path d="M74.974 25.2365C75.9979 25.8215 76.7806 26.7515 77.1824 27.8606C77.5842 28.9696 77.579 30.1856 77.1677 31.2916C76.7564 32.3976 75.9658 33.3217 74.9369 33.8991C73.908 34.4764 72.7077 34.6695 71.5501 34.4438C69.6808 34.0881 67.7821 33.9097 65.8791 33.9109C66.4922 38.6408 66.7407 43.4112 66.6223 48.1797C66.5929 49.2914 66.5479 50.6485 66.3934 52.1192C67.1011 52.3516 67.7837 52.6544 68.4308 53.0232C70.7661 54.3477 72.5142 56.5065 73.3246 59.0668C74.5332 62.8824 74.5439 66.9773 73.3554 70.8005C73.1489 71.4645 72.908 72.1174 72.6337 72.7564C72.6241 72.7732 72.6126 72.7934 72.6049 72.8068C72.4775 73.0998 72.3424 73.3905 72.2076 73.6614L72.1446 73.7949C71.9798 74.1221 71.8075 74.4429 71.6297 74.7539C71.2859 75.3567 70.9102 75.9407 70.5043 76.5036C68.2725 79.6087 65.185 81.9966 61.6193 83.3755C58.0536 84.7545 54.1641 85.0646 50.4261 84.2681C50.0997 84.1997 49.774 84.1183 49.446 84.0333C49.1179 83.9482 48.7327 83.8306 48.3242 83.6952C47.07 83.2768 45.8606 82.7346 44.7138 82.0767C44.4081 81.9019 44.099 81.7251 43.8077 81.5251C41.5807 80.0851 39.6702 78.2065 38.1926 76.0038C36.7149 73.8011 35.7011 71.3204 35.2129 68.7127C31.779 69.9436 28.0707 70.1941 24.5036 69.4361C24.1764 69.3665 23.8497 69.2882 23.5235 69.2013C23.175 69.109 22.8085 68.9976 22.4018 68.8632C21.1476 68.4448 19.9381 67.9026 18.7913 67.2447C18.4856 67.0699 18.1765 66.8932 17.8853 66.6931C11.4237 62.5299 7.99026 54.8524 9.13915 47.1366C9.48438 44.7703 10.2649 42.4882 11.4411 40.4058L11.4661 40.3621C11.6381 40.0613 11.8224 39.7585 12.0153 39.4562C12.0403 39.4125 12.0653 39.3688 12.1004 39.3308C12.2777 39.0598 12.46 38.7916 12.6572 38.5207L12.6841 38.4737C13.1058 37.8943 13.56 37.3394 14.0447 36.8116C16.7301 33.8696 20.248 31.8159 24.1291 30.9245C26.7516 30.3215 29.5046 30.7333 31.8353 32.077C32.9047 32.6886 33.8651 33.4736 34.6772 34.4002C39.9864 30.8766 45.116 28.2987 50.2953 26.5498C58.1703 23.8912 66.1732 23.2306 73.4503 24.6463C73.9827 24.752 74.4944 24.9429 74.9659 25.2118L74.974 25.2365ZM75.4032 24.447C74.8488 24.131 74.247 23.9066 73.621 23.7826C66.198 22.3415 58.0385 23.0107 50.0195 25.7185C44.9549 27.4304 39.9754 29.8979 34.8192 33.2592C34.0626 32.5005 33.2078 31.8467 32.2776 31.3151C29.7542 29.8606 26.7737 29.4152 23.9344 30.0683C19.8805 31.0014 16.206 33.1471 13.4 36.2199C12.8947 36.7724 12.4198 37.3518 11.9773 37.9557L11.959 37.9876C11.7402 38.2885 11.5504 38.5658 11.3654 38.8504C11.3481 38.8806 11.3089 38.9296 11.2765 38.9824C11.0761 39.2938 10.8832 39.6118 10.7035 39.9261L10.6785 39.9698C9.4476 42.1475 8.63067 44.5343 8.26909 47.0094C7.06984 55.0666 10.6603 63.097 17.4093 67.4358C17.7155 67.6332 18.0332 67.826 18.3557 68.0104C19.5548 68.6952 20.8191 69.2589 22.1298 69.6935C22.551 69.8339 22.9355 69.949 23.301 70.0465C23.6298 70.1341 23.9766 70.2098 24.3215 70.2888C27.7162 71.0098 31.2388 70.8578 34.5598 69.847C35.7613 74.967 38.9066 79.4178 43.3306 82.2582C43.6368 82.4556 43.9545 82.6484 44.277 82.8328C45.476 83.5177 46.7403 84.0815 48.0511 84.5159C48.4799 84.6585 48.8627 84.7725 49.2239 84.8698C49.5527 84.9574 49.8996 85.0331 50.2445 85.1121C54.5116 86.0182 58.957 85.5437 62.9383 83.757C66.9196 81.9703 70.2308 78.9641 72.3932 75.1726C72.5797 74.8466 72.7606 74.5107 72.9305 74.1707C72.9613 74.1169 72.9901 74.0665 73.0072 74.0093C73.1362 73.7485 73.279 73.4443 73.4131 73.1396L73.4506 73.0741C75.3938 68.5499 75.6475 63.4787 74.1656 58.7849C73.2903 56.013 71.3987 53.6756 68.8708 52.2422C68.3769 51.9607 67.8635 51.7148 67.3345 51.5064C67.4392 50.2281 67.4804 49.0763 67.5044 48.1845C67.6172 43.7188 67.4107 39.2509 66.8867 34.8149C68.3985 34.8623 69.9041 35.0289 71.3895 35.3133C72.752 35.579 74.1647 35.3518 75.3758 34.6723C76.5868 33.9928 77.5175 32.9052 78.0016 31.6035C78.4857 30.3017 78.4919 28.8705 78.019 27.5651C77.5461 26.2597 76.6249 25.1651 75.4197 24.4766L75.4032 24.447Z" fill="#683600"/>
<path d="M69.2551 37.4931C69.2551 40.1785 67.0782 42.3554 64.3928 42.3554C61.7074 42.3554 59.5305 40.1785 59.5305 37.4931C59.5305 34.8077 61.7074 32.6307 64.3928 32.6307C67.0782 32.6307 69.2551 34.8077 69.2551 37.4931Z" fill="#C4C4C4" fill-opacity="0.43" stroke="black"/>
<path d="M64.0319 40.3201L64.9636 40.3201C65.2292 40.3201 65.4479 40.2733 65.6198 40.1795C65.7956 40.0858 65.9245 39.9529 66.0065 39.7811C66.0925 39.6092 66.1354 39.408 66.1354 39.1775C66.1354 38.9783 66.0964 38.8006 66.0182 38.6443C65.9401 38.4881 65.821 38.365 65.6608 38.2752C65.5046 38.1815 65.3015 38.1346 65.0515 38.1346C64.8718 38.1346 64.6999 38.1717 64.5358 38.2459C64.3757 38.3162 64.2448 38.4197 64.1432 38.5565C64.0417 38.6893 63.9909 38.8494 63.9909 39.0369L62.1569 39.0369C62.1569 38.5604 62.2858 38.1483 62.5436 37.8006C62.8054 37.4529 63.1511 37.1854 63.5807 36.9979C64.0143 36.8065 64.487 36.7108 64.9987 36.7108C65.5886 36.7108 66.1061 36.8045 66.5515 36.992C67.0007 37.1756 67.3483 37.449 67.5944 37.8123C67.8444 38.1717 67.9694 38.617 67.9694 39.1483C67.9694 39.4256 67.903 39.6932 67.7702 39.951C67.6413 40.2049 67.4557 40.4315 67.2136 40.6307C66.9753 40.826 66.6901 40.9822 66.3581 41.0994C66.03 41.2127 65.6647 41.2693 65.2624 41.2693L64.0319 41.2693L64.0319 40.3201ZM64.0319 41.6971L64.0319 40.7654L65.2624 40.7654C65.7077 40.7654 66.1061 40.8162 66.4577 40.9178C66.8093 41.0193 67.1081 41.1658 67.3542 41.3572C67.6003 41.5486 67.7878 41.7811 67.9167 42.0545C68.0456 42.3279 68.11 42.6326 68.11 42.9686C68.11 43.367 68.0319 43.7225 67.8757 44.035C67.7194 44.3475 67.5007 44.6111 67.2194 44.826C66.9382 45.0408 66.6081 45.2049 66.2292 45.3182C65.8503 45.4275 65.4401 45.4822 64.9987 45.4822C64.6432 45.4822 64.2897 45.4334 63.9382 45.3358C63.5866 45.2381 63.2682 45.0897 62.9831 44.8904C62.6979 44.6873 62.4694 44.4315 62.2975 44.1229C62.1257 43.8104 62.0397 43.4393 62.0397 43.0096L63.8737 43.0096C63.8737 43.2088 63.9245 43.3885 64.0261 43.5486C64.1315 43.7049 64.2741 43.8299 64.4538 43.9236C64.6374 44.0135 64.8366 44.0584 65.0514 44.0584C65.3093 44.0584 65.528 44.0115 65.7077 43.9178C65.8913 43.8201 66.03 43.6873 66.1237 43.5193C66.2214 43.3514 66.2702 43.158 66.2702 42.9393C66.2702 42.6424 66.2175 42.4041 66.112 42.2244C66.0104 42.0408 65.862 41.908 65.6667 41.826C65.4714 41.74 65.237 41.6971 64.9636 41.6971L64.0319 41.6971Z" fill="black"/>
</g>
<defs>
<linearGradient id="paint0_linear_9_2329" x1="43.6684" y1="54.175" x2="62.6166" y2="21.0385" gradientUnits="userSpaceOnUse">
<stop stop-color="#3D6B00"/>
<stop offset="0.06" stop-color="#437303"/>
<stop offset="0.16" stop-color="#538A0A"/>
<stop offset="0.29" stop-color="#6DAF17"/>
<stop offset="0.43" stop-color="#92E228"/>
<stop offset="0.5" stop-color="#A6FF31"/>
<stop offset="0.69" stop-color="#84D21C"/>
<stop offset="0.89" stop-color="#61A408"/>
<stop offset="1" stop-color="#549300"/>
</linearGradient>
<linearGradient id="paint1_linear_9_2329" x1="45.9641" y1="79.9368" x2="61.8627" y2="52.1335" gradientUnits="userSpaceOnUse">
<stop stop-color="#6B0000"/>
<stop offset="0.06" stop-color="#730303"/>
<stop offset="0.16" stop-color="#8A0A0A"/>
<stop offset="0.29" stop-color="#AF1717"/>
<stop offset="0.43" stop-color="#E22828"/>
<stop offset="0.5" stop-color="#FF3131"/>
<stop offset="0.69" stop-color="#D21C1C"/>
<stop offset="0.89" stop-color="#A40808"/>
<stop offset="1" stop-color="#930000"/>
</linearGradient>
<linearGradient id="paint2_linear_9_2329" x1="47302.7" y1="85432" x2="49932" y2="80833.8" gradientUnits="userSpaceOnUse">
<stop stop-color="#6B0000"/>
<stop offset="0.06" stop-color="#730303"/>
<stop offset="0.16" stop-color="#8A0A0A"/>
<stop offset="0.29" stop-color="#AF1717"/>
<stop offset="0.43" stop-color="#E22828"/>
<stop offset="0.5" stop-color="#FF3131"/>
<stop offset="0.69" stop-color="#D21C1C"/>
<stop offset="0.89" stop-color="#A40808"/>
<stop offset="1" stop-color="#930000"/>
</linearGradient>
<linearGradient id="paint3_linear_9_2329" x1="31.7685" y1="74.6854" x2="63.7232" y2="18.8031" gradientUnits="userSpaceOnUse">
<stop stop-color="#BE6D00"/>
<stop offset="0.03" stop-color="#C67D0F"/>
<stop offset="0.12" stop-color="#DAA837"/>
<stop offset="0.21" stop-color="#EAC956"/>
<stop offset="0.29" stop-color="#F6E16D"/>
<stop offset="0.37" stop-color="#FDF07A"/>
<stop offset="0.43" stop-color="#FFF57F"/>
<stop offset="0.57" stop-color="#E8C653"/>
<stop offset="0.7" stop-color="#D69F2F"/>
<stop offset="0.82" stop-color="#C98415"/>
<stop offset="0.92" stop-color="#C17306"/>
<stop offset="1" stop-color="#BE6D00"/>
</linearGradient>
<clipPath id="clip0_9_2329">
<rect width="71.0508" height="66.1354" fill="white" transform="translate(33.3211 0.403641) rotate(29.7619)"/>
</clipPath>
</defs>
</svg>
