<svg width="89" height="53" viewBox="0 0 89 53" fill="none" xmlns="http://www.w3.org/2000/svg">
<g style="mix-blend-mode:luminosity" clip-path="url(#clip0_9_2319)">
<path d="M82.1388 14.1329C84.435 14.1329 85.7807 14.7616 86.1758 16.0189C86.3727 16.549 86.4704 17.4753 86.469 18.7978C86.4676 20.1203 86.0408 21.7653 85.1887 23.7327C84.3104 25.7512 83.2824 27.7001 82.1135 29.5628C80.9182 31.4821 79.7125 33.4169 78.4962 35.3674C75.6094 40.0961 74.166 43.8998 74.166 46.7787C74.1796 47.3178 74.1464 47.8571 74.0668 48.3904C73.9801 48.7845 73.8127 49.156 73.5754 49.4811C73.2552 49.8971 72.7884 50.1727 72.2719 50.2508C71.4517 50.401 70.6186 50.4672 69.7852 50.4486C68.9525 50.4673 68.12 50.401 67.3005 50.2508C67.0421 50.2117 66.7939 50.1215 66.5702 49.9854C66.3465 49.8493 66.1517 49.67 65.997 49.4577C65.7607 49.1245 65.6007 48.7425 65.5288 48.3394C65.4696 47.7879 65.4449 47.2333 65.455 46.6788C65.4711 44.4275 65.8369 42.1928 66.5391 40.0557C67.1942 37.9435 68.068 35.9067 69.1461 33.9789C70.1683 32.1901 71.1857 30.5444 72.1981 29.0419C73.2105 27.5394 74.0802 26.2495 74.8072 25.1722C75.5264 24.0985 75.8892 23.3458 75.8892 22.9142H64.6682C63.3563 22.9142 62.4051 22.749 61.8145 22.4187C61.2463 22.1161 60.8207 21.5983 60.6312 20.9793C60.4118 20.1722 60.3123 19.3367 60.3359 18.5001C60.3126 17.6629 60.4121 16.8268 60.6312 16.0189C60.8295 15.3916 61.1416 14.9558 61.5677 14.7304C62.2567 14.3335 63.208 14.1343 64.4215 14.1329H82.1388Z" fill="url(#paint0_linear_9_2319)"/>
<path d="M24.3318 14.1329C26.628 14.1329 27.9737 14.7616 28.3688 16.0189C28.5643 16.549 28.6627 17.4753 28.6641 18.7978C28.6655 20.1203 28.2387 21.7653 27.3838 23.7327C26.5047 25.7508 25.4767 27.6996 24.3086 29.5628C23.1106 31.4821 21.9048 33.4169 20.6913 35.3674C17.8045 40.0961 16.3611 43.8998 16.3611 46.7787C16.3736 47.3178 16.3405 47.857 16.262 48.3904C16.1743 48.7842 16.007 49.1555 15.7705 49.4811C15.5076 49.8624 15.0724 50.119 14.4649 50.2508C13.6454 50.401 12.813 50.4673 11.9803 50.4486C11.1476 50.4674 10.3151 50.4011 9.49565 50.2508C8.9734 50.1713 8.50382 49.886 8.19005 49.4577C7.95444 49.1243 7.79522 48.7423 7.72391 48.3394C7.66473 47.7879 7.64008 47.2333 7.65009 46.6788C7.66648 44.4277 8.03155 42.1931 8.73211 40.0557C9.38698 37.9431 10.2615 35.9062 11.3412 33.9789C12.3578 32.1929 13.3745 30.5472 14.3911 29.0419C15.4077 27.5365 16.2774 26.2466 17.0002 25.1722C17.7215 24.0977 18.0822 23.3451 18.0822 22.9142H6.86336C5.54862 22.9142 4.59667 22.749 4.0075 22.4187C3.72644 22.2688 3.47745 22.0645 3.27478 21.8175C3.0721 21.5706 2.91972 21.2857 2.82634 20.9793C2.60693 20.1722 2.50742 19.3367 2.53105 18.5001C2.50774 17.6629 2.60724 16.8268 2.82634 16.0189C3.02461 15.3916 3.33466 14.9558 3.76072 14.7304C4.44973 14.3335 5.40168 14.1343 6.61658 14.1329H24.3318Z" fill="url(#paint1_linear_9_2319)"/>
<path d="M82.1388 14.1329C84.435 14.1329 85.7807 14.7616 86.1758 16.0189C86.3726 16.549 86.4704 17.4753 86.469 18.7978C86.4676 20.1203 86.0408 21.7653 85.1887 23.7327C84.3104 25.7512 83.2824 27.7001 82.1134 29.5628C80.9182 31.4821 79.7125 33.4169 78.4962 35.3674C75.6094 40.0989 74.166 43.9027 74.166 46.7787C74.1796 47.3178 74.1464 47.8571 74.0668 48.3904C73.9801 48.7845 73.8127 49.156 73.5754 49.4811C73.2552 49.8971 72.7884 50.1727 72.2719 50.2508C71.4517 50.401 70.6186 50.4672 69.7852 50.4486C68.9524 50.4672 68.12 50.401 67.3005 50.2508C67.0421 50.2117 66.7939 50.1215 66.5702 49.9854C66.3465 49.8493 66.1517 49.67 65.997 49.4577C65.7607 49.1245 65.6007 48.7425 65.5288 48.3393C65.4696 47.7879 65.4449 47.2333 65.455 46.6788C65.471 44.4275 65.8369 42.1927 66.5391 40.0556C67.1942 37.9435 68.068 35.9067 69.1461 33.9789C70.1683 32.1901 71.1857 30.5444 72.1981 29.0419C73.2105 27.5394 74.0802 26.2495 74.8072 25.1722C75.5264 24.0985 75.8892 23.3458 75.8892 22.9142H64.6682C63.3563 22.9142 62.4029 22.7504 61.8145 22.4187C61.2463 22.116 60.8207 21.5983 60.6312 20.9793C60.4118 20.1722 60.3123 19.3367 60.3359 18.5001C60.3126 17.6629 60.4121 16.8268 60.6312 16.0189C60.8295 15.3916 61.1416 14.9558 61.5677 14.7304C62.2567 14.3335 63.208 14.1343 64.4214 14.1329H82.1388ZM82.1388 11.5815H64.4214C62.7573 11.5815 61.4222 11.8834 60.3359 12.5C59.6357 12.8891 58.7139 13.6779 58.2267 15.2492C57.9224 16.3048 57.7801 17.4011 57.8049 18.5001C57.7806 19.5977 57.9229 20.6926 58.2267 21.7469C58.6101 22.9888 59.4592 24.0309 60.5932 24.6513C61.5888 25.2062 62.8859 25.4656 64.6767 25.4656H71.559L70.1142 27.6046C69.0596 29.1631 68.005 30.8789 66.9504 32.7075C65.7852 34.7909 64.8394 36.9914 64.1283 39.2732C63.3481 41.6631 62.9418 44.1608 62.9239 46.6767C62.9119 47.3514 62.945 48.0263 63.023 48.6966C63.1475 49.477 63.4437 50.2195 63.8899 50.8695C64.3308 51.535 65.185 52.3983 66.7669 52.7427C67.7614 52.9334 68.773 53.0189 69.7852 52.9979C70.798 53.0189 71.8103 52.9334 72.8055 52.7427C74.36 52.4047 75.2121 51.5754 75.6509 50.9397C76.0919 50.3213 76.3995 49.6165 76.5536 48.8709C76.6641 48.1786 76.7121 47.4776 76.697 46.7766C76.697 45.1352 77.3825 42.0564 80.6518 36.7026C81.854 34.7699 83.0584 32.8372 84.2564 30.9214C85.4916 28.9508 86.5788 26.8897 87.5088 24.7554C88.5128 22.4421 89 20.4924 89 18.8021C89 17.1542 88.8671 16.038 88.5782 15.1875C88.0361 13.5269 86.469 11.573 82.1493 11.573L82.1388 11.5815Z" fill="url(#paint2_linear_9_2319)"/>
<path d="M24.3317 14.1329C26.6279 14.1329 27.9736 14.7616 28.3687 16.0189C28.5642 16.549 28.6626 17.4753 28.664 18.7978C28.6654 20.1203 28.2386 21.7653 27.3837 23.7327C26.5046 25.7508 25.4766 27.6996 24.3085 29.5628C23.1105 31.4821 21.9047 33.4169 20.6912 35.3674C17.8044 40.0989 16.361 43.9027 16.361 46.7787C16.3735 47.3178 16.3404 47.857 16.2619 48.3904C16.1742 48.7842 16.0069 49.1555 15.7704 49.4811C15.5075 49.8624 15.0723 50.119 14.4648 50.2508C13.6453 50.401 12.8129 50.4672 11.9802 50.4486C11.1475 50.4673 10.315 50.4011 9.49555 50.2508C8.9733 50.1713 8.50372 49.886 8.18995 49.4577C7.95433 49.1243 7.79512 48.7423 7.72381 48.3393C7.66463 47.7879 7.63998 47.2333 7.64999 46.6788C7.66637 44.4277 8.03144 42.1931 8.73201 40.0556C9.38688 37.9431 10.2614 35.9062 11.3411 33.9789C12.3577 32.1929 13.3744 30.5472 14.391 29.0419C15.4076 27.5365 16.2773 26.2466 17.0001 25.1722C17.7214 24.0977 18.0821 23.3451 18.0821 22.9142H6.86326C5.54852 22.9142 4.59656 22.749 4.00739 22.4187C3.72633 22.2688 3.47735 22.0645 3.27467 21.8175C3.072 21.5705 2.91961 21.2857 2.82624 20.9793C2.60683 20.1722 2.50732 19.3367 2.53095 18.5001C2.50764 17.6629 2.60714 16.8268 2.82624 16.0189C3.0245 15.3916 3.33456 14.9558 3.76062 14.7304C4.44963 14.3335 5.40157 14.1343 6.61648 14.1329H24.3338H24.3317ZM24.3338 11.5815H6.61648C4.95231 11.5815 3.61508 11.8834 2.53095 12.5C1.83069 12.8869 0.906861 13.6779 0.421744 15.2492C0.118488 16.305 -0.0237513 17.4012 -9.68538e-05 18.5001C-0.0243418 19.5977 0.117913 20.6926 0.421744 21.7469C0.80454 22.9891 1.65379 24.0314 2.78827 24.6513C3.78171 25.2062 5.08098 25.4656 6.8717 25.4656H13.7519L12.3092 27.6046C11.2546 29.1631 10.2 30.8789 9.14542 32.7075C7.97852 34.79 7.03259 36.9908 6.3233 39.2732C5.54312 41.6631 5.13681 44.1608 5.11895 46.6767C5.1069 47.3514 5.14002 48.0263 5.21808 48.6966C5.34193 49.4772 5.63819 50.2198 6.08496 50.8695C6.52367 51.535 7.38001 52.3983 8.95981 52.7427C9.95506 52.9334 10.9673 53.0189 11.9802 52.9979C12.993 53.0187 14.0053 52.9332 15.0006 52.7427C16.555 52.4047 17.4051 51.5754 17.8459 50.9418C18.2852 50.3219 18.5919 49.6166 18.7465 48.8709C18.859 48.1788 18.9077 47.4777 18.892 46.7766C18.892 45.1352 19.5775 42.0564 22.8468 36.7026C24.0491 34.7699 25.2534 32.8372 26.4514 30.9214C27.6847 28.9496 28.7718 26.8887 29.7038 24.7554C30.7078 22.44 31.195 20.4903 31.195 18.8021C31.195 17.1542 31.0622 16.038 30.7627 15.1875C30.2206 13.5269 28.6535 11.573 24.3317 11.573L24.3338 11.5815Z" fill="url(#paint3_linear_9_2319)"/>
<path d="M56.0205 2.55145C59.0521 2.55145 60.8266 3.38068 61.3441 5.03912C61.6028 5.73652 61.7329 6.95837 61.7343 8.7047C61.7357 10.451 61.1732 12.6205 60.0469 15.213C58.8876 17.8751 57.5318 20.4459 55.9909 22.9035C54.4118 25.4337 52.8215 27.9852 51.2199 30.5579C47.4121 36.7948 45.5082 41.8112 45.5082 45.6072C45.5253 46.3183 45.4823 47.0296 45.3795 47.7334C45.264 48.2533 45.0428 48.7435 44.7299 49.1728C44.3819 49.6767 43.8103 50.0127 43.0109 50.187C41.9292 50.3856 40.8303 50.4733 39.7311 50.4486C38.6325 50.4733 37.5344 50.3857 36.4534 50.187C35.6519 50.0127 35.0789 49.664 34.7344 49.1409C34.4218 48.7025 34.2106 48.199 34.1164 47.6675C34.0388 46.9395 34.0064 46.2074 34.0193 45.4754C34.0441 42.5062 34.5287 39.5592 35.4557 36.7409C36.3204 33.9547 37.4734 31.268 38.8958 28.7251C40.2373 26.3692 41.5787 24.1991 42.9202 22.2146C44.2616 20.2302 45.409 18.5292 46.3624 17.1117C47.3115 15.6943 47.7868 14.702 47.7882 14.135H32.99C31.2591 14.135 30.0041 13.9174 29.2251 13.4823C28.4769 13.0821 27.9164 12.3994 27.6664 11.5836C27.4077 10.7558 27.2783 9.66574 27.2783 8.31347C27.2783 6.9612 27.4077 5.87047 27.6664 5.04125C27.928 4.21415 28.3371 3.64433 28.9003 3.34028C29.8101 2.81723 31.065 2.555 32.6652 2.55358L56.0205 2.55145Z" fill="url(#paint4_linear_9_2319)"/>
<path d="M56.0205 2.55145C59.0521 2.55145 60.8267 3.38067 61.3441 5.03912C61.6028 5.73793 61.7329 6.95979 61.7343 8.7047C61.7357 10.4496 61.1733 12.619 60.047 15.213C58.888 17.8747 57.5322 20.4447 55.991 22.9014C54.4119 25.4344 52.8215 27.9859 51.2199 30.5557C47.4121 36.7926 45.5082 41.8091 45.5082 45.605C45.526 46.3163 45.4822 47.0277 45.3774 47.7313C45.2637 48.2514 45.0431 48.7418 44.7299 49.1707C44.3826 49.6725 43.8096 50.0106 43.0109 50.1849C41.9293 50.3846 40.8303 50.4722 39.7311 50.4464C38.6325 50.4722 37.5342 50.3846 36.4534 50.1849C35.6519 50.0106 35.0789 49.6618 34.7344 49.1388C34.4218 48.7003 34.2106 48.1969 34.1164 47.6653C34.0388 46.9374 34.0064 46.2052 34.0194 45.4732C34.0444 42.5048 34.529 39.5586 35.4557 36.7409C36.3204 33.9547 37.4735 31.268 38.8958 28.7251C40.2373 26.3692 41.5788 24.1991 42.9202 22.2146C44.2617 20.2302 45.4091 18.5292 46.3624 17.1117C47.3116 15.6943 47.7868 14.702 47.7883 14.135H32.9901C31.2591 14.135 30.0041 13.9174 29.2251 13.4823C28.4769 13.0821 27.9164 12.3994 27.6664 11.5836C27.4077 10.7558 27.2784 9.66574 27.2784 8.31347C27.2784 6.9612 27.4077 5.87047 27.6664 5.04124C27.928 4.21415 28.3372 3.64433 28.9003 3.34028C29.8101 2.81723 31.0651 2.555 32.6653 2.55358H56.0205V2.55145ZM56.0205 0.00212828H32.6547C30.6003 0.00212828 28.9657 0.365715 27.6601 1.10989C26.8671 1.54789 25.8167 2.4494 25.243 4.26943C24.9013 5.36655 24.7368 6.68693 24.7368 8.30923C24.7368 9.93152 24.9013 11.2583 25.243 12.349C25.6877 13.7868 26.6715 14.9929 27.9849 15.7106C29.1745 16.3761 30.7606 16.6844 32.9795 16.6844H43.5804C42.7761 17.8793 41.8558 19.2436 40.8194 20.7773C39.4421 22.8142 38.0543 25.0616 36.6917 27.4557C35.181 30.1537 33.9559 33.0043 33.0365 35.9606C32.0331 39.0319 31.5101 42.2419 31.4862 45.4753C31.4712 46.3276 31.5121 47.18 31.6085 48.0268C31.7555 48.9356 32.1029 49.7995 32.6252 50.5549C33.123 51.3075 34.1016 52.2856 35.9177 52.6811C37.1737 52.9204 38.451 53.0273 39.729 53C41.0077 53.0272 42.2857 52.9203 43.5424 52.6811C44.983 52.3664 46.0735 51.6775 46.8033 50.6335C47.3182 49.9107 47.6775 49.0872 47.8579 48.216C47.9949 47.3536 48.0535 46.4804 48.0329 45.6072C48.0329 42.3073 49.8279 37.6956 53.3692 31.8953C54.9596 29.3438 56.5457 26.7994 58.1276 24.2622C59.7341 21.6954 61.149 19.0118 62.3608 16.2336C63.6389 13.2867 64.259 10.8224 64.259 8.7047C64.259 6.64865 64.0924 5.21771 63.7317 4.20989C63.099 2.27504 61.2492 0 56.0142 0L56.0205 0.00212828Z" fill="url(#paint5_linear_9_2319)"/>
<path d="M57.4848 11.7778C57.4848 14.5075 55.2901 16.7137 52.5909 16.7137C49.8917 16.7137 47.697 14.5075 47.697 11.7778C47.697 9.04809 49.8917 6.84187 52.5909 6.84187C55.2901 6.84187 57.4848 9.04809 57.4848 11.7778Z" fill="#C4C4C4" fill-opacity="0.43" stroke="black"/>
<path d="M54.6927 11.0697V19.6068H52.8588V13.1557L50.8783 13.7592V12.3412L54.5111 11.0697H54.6927Z" fill="black"/>
</g>
<defs>
<linearGradient id="paint0_linear_9_2319" x1="73.4024" y1="50.4486" x2="73.4024" y2="14.1329" gradientUnits="userSpaceOnUse">
<stop stop-color="#900093"/>
<stop offset="0.11" stop-color="#A108A4"/>
<stop offset="0.31" stop-color="#CE1CD2"/>
<stop offset="0.5" stop-color="#FB31FF"/>
<stop offset="0.57" stop-color="#DF28E2"/>
<stop offset="0.71" stop-color="#AC17AF"/>
<stop offset="0.84" stop-color="#880A8A"/>
<stop offset="0.94" stop-color="#710373"/>
<stop offset="1" stop-color="#69006B"/>
</linearGradient>
<linearGradient id="paint1_linear_9_2319" x1="-11187.8" y1="30415.8" x2="-11187.8" y2="24212.6" gradientUnits="userSpaceOnUse">
<stop stop-color="#900093"/>
<stop offset="0.11" stop-color="#A108A4"/>
<stop offset="0.31" stop-color="#CE1CD2"/>
<stop offset="0.5" stop-color="#FB31FF"/>
<stop offset="0.57" stop-color="#DF28E2"/>
<stop offset="0.71" stop-color="#AC17AF"/>
<stop offset="0.84" stop-color="#880A8A"/>
<stop offset="0.94" stop-color="#710373"/>
<stop offset="1" stop-color="#69006B"/>
</linearGradient>
<linearGradient id="paint2_linear_9_2319" x1="73.4024" y1="53" x2="73.4024" y2="11.5815" gradientUnits="userSpaceOnUse">
<stop stop-color="#BE6D00"/>
<stop offset="0.03" stop-color="#C67D0F"/>
<stop offset="0.12" stop-color="#DAA837"/>
<stop offset="0.21" stop-color="#EAC956"/>
<stop offset="0.29" stop-color="#F6E16D"/>
<stop offset="0.37" stop-color="#FDF07A"/>
<stop offset="0.43" stop-color="#FFF57F"/>
<stop offset="0.57" stop-color="#E8C653"/>
<stop offset="0.7" stop-color="#D69F2F"/>
<stop offset="0.82" stop-color="#C98415"/>
<stop offset="0.92" stop-color="#C17306"/>
<stop offset="1" stop-color="#BE6D00"/>
</linearGradient>
<linearGradient id="paint3_linear_9_2319" x1="-13357.3" y1="35187.3" x2="-13357.3" y2="27117.1" gradientUnits="userSpaceOnUse">
<stop stop-color="#BE6D00"/>
<stop offset="0.03" stop-color="#C67D0F"/>
<stop offset="0.12" stop-color="#DAA837"/>
<stop offset="0.21" stop-color="#EAC956"/>
<stop offset="0.29" stop-color="#F6E16D"/>
<stop offset="0.37" stop-color="#FDF07A"/>
<stop offset="0.43" stop-color="#FFF57F"/>
<stop offset="0.57" stop-color="#E8C653"/>
<stop offset="0.7" stop-color="#D69F2F"/>
<stop offset="0.82" stop-color="#C98415"/>
<stop offset="0.92" stop-color="#C17306"/>
<stop offset="1" stop-color="#BE6D00"/>
</linearGradient>
<linearGradient id="paint4_linear_9_2319" x1="-10003.5" y1="40099.7" x2="-10003.5" y2="29309" gradientUnits="userSpaceOnUse">
<stop stop-color="#900093"/>
<stop offset="0.11" stop-color="#A108A4"/>
<stop offset="0.31" stop-color="#CE1CD2"/>
<stop offset="0.5" stop-color="#FB31FF"/>
<stop offset="0.57" stop-color="#DF28E2"/>
<stop offset="0.71" stop-color="#AC17AF"/>
<stop offset="0.84" stop-color="#880A8A"/>
<stop offset="0.94" stop-color="#710373"/>
<stop offset="1" stop-color="#69006B"/>
</linearGradient>
<linearGradient id="paint5_linear_9_2319" x1="-11481" y1="45004.8" x2="-11481" y2="31792.4" gradientUnits="userSpaceOnUse">
<stop stop-color="#BE6D00"/>
<stop offset="0.03" stop-color="#C67D0F"/>
<stop offset="0.12" stop-color="#DAA837"/>
<stop offset="0.21" stop-color="#EAC956"/>
<stop offset="0.29" stop-color="#F6E16D"/>
<stop offset="0.37" stop-color="#FDF07A"/>
<stop offset="0.43" stop-color="#FFF57F"/>
<stop offset="0.57" stop-color="#E8C653"/>
<stop offset="0.7" stop-color="#D69F2F"/>
<stop offset="0.82" stop-color="#C98415"/>
<stop offset="0.92" stop-color="#C17306"/>
<stop offset="1" stop-color="#BE6D00"/>
</linearGradient>
<clipPath id="clip0_9_2319">
<rect width="89" height="53" fill="white"/>
</clipPath>
</defs>
</svg>
