<svg width="141" height="123" viewBox="0 0 141 123" fill="none" xmlns="http://www.w3.org/2000/svg">
<g style="mix-blend-mode:luminosity">
<path d="M18.2097 108.769C27.7579 108.769 37.3004 108.451 46.8429 108.202C55.7147 107.941 64.9048 107.095 73.7539 107.946C83.7511 108.911 93.9869 110.216 103.808 112.514C107.337 113.336 110.833 114.324 114.334 115.277C130.003 103.521 140.006 85.6718 140.006 65.6836C140.006 30.2915 108.662 1.60564 70.0029 1.60564C31.3441 1.60564 0 30.2688 0 65.6609C0 82.2619 6.89969 97.3878 18.2097 108.769Z" fill="url(#paint0_linear_9_2362)"/>
<g style="mix-blend-mode:screen">
<g style="mix-blend-mode:screen">
<path d="M50.3268 19.6818C50.3268 19.7953 50.1961 19.8861 50.0369 19.8861C49.8778 19.8861 49.7471 19.7953 49.7471 19.6818C49.7471 19.5683 49.8778 19.4719 50.0369 19.4719C50.1961 19.4719 50.3268 19.5627 50.3268 19.6818Z" fill="#F9F9F9"/>
</g>
<g style="mix-blend-mode:screen">
<path d="M96.175 25.5881C96.379 25.5881 96.5444 25.4687 96.5444 25.3214C96.5444 25.1741 96.379 25.0547 96.175 25.0547C95.971 25.0547 95.8056 25.1741 95.8056 25.3214C95.8056 25.4687 95.971 25.5881 96.175 25.5881Z" fill="#F9F9F9"/>
</g>
<g style="mix-blend-mode:screen">
<path d="M50.4746 51.0116C50.4746 51.2045 50.2529 51.3633 49.9858 51.3633C49.7187 51.3633 49.4913 51.2045 49.4913 51.0116C49.4913 50.8187 49.713 50.6541 49.9858 50.6541C50.2586 50.6541 50.4746 50.813 50.4746 51.0116Z" fill="#F9F9F9"/>
</g>
<g style="mix-blend-mode:screen">
<path d="M118.659 40.5154C118.659 40.6856 118.465 40.8274 118.221 40.8274C117.977 40.8274 117.789 40.6856 117.789 40.5154C117.789 40.3452 117.982 40.1976 118.221 40.1976C118.46 40.1976 118.659 40.3111 118.659 40.5154Z" fill="#F9F9F9"/>
</g>
<g style="mix-blend-mode:screen">
<path d="M52.6911 38.0984C52.6911 38.331 52.4296 38.5183 52.1227 38.5183C51.8158 38.5183 51.5544 38.331 51.5544 38.0984C51.5544 37.8658 51.8158 37.6786 52.1227 37.6786C52.4296 37.6786 52.6911 37.8658 52.6911 38.0984Z" fill="#F9F9F9"/>
</g>
<g style="mix-blend-mode:screen">
<path d="M32.4069 44.0557C32.4069 44.328 32.1 44.555 31.7192 44.555C31.3385 44.555 31.0316 44.328 31.0316 44.0557C31.0316 43.7834 31.3441 43.5564 31.7192 43.5564C32.0944 43.5564 32.4069 43.7834 32.4069 44.0557Z" fill="#F9F9F9"/>
</g>
<g style="mix-blend-mode:screen">
<path d="M110.344 40.3452C110.344 40.4189 110.264 40.4757 110.168 40.4757C110.071 40.4757 109.986 40.4189 109.986 40.3452C109.986 40.2714 110.065 40.2147 110.168 40.2147C110.27 40.2147 110.344 40.2771 110.344 40.3452Z" fill="#F9F9F9"/>
</g>
<g style="mix-blend-mode:screen">
<path d="M63.2168 43.1423C63.2168 43.3806 62.9497 43.5735 62.62 43.5735C62.2904 43.5735 62.0176 43.3806 62.0176 43.1423C62.0176 42.904 62.2904 42.7111 62.62 42.7111C62.9497 42.7111 63.2168 42.904 63.2168 43.1423Z" fill="#F9F9F9"/>
</g>
<g style="mix-blend-mode:screen">
<path d="M24.956 32.7765C24.956 32.9808 24.7229 33.1453 24.4388 33.1453C24.1546 33.1453 23.9216 32.9808 23.9216 32.7765C23.9216 32.5723 24.1546 32.4021 24.4388 32.4021C24.7229 32.4021 24.956 32.5723 24.956 32.7765Z" fill="#F9F9F9"/>
</g>
<g style="mix-blend-mode:screen">
<path d="M65.1833 53.9505C65.1833 54.2172 64.882 54.4328 64.5126 54.4328C64.1432 54.4328 63.842 54.2172 63.842 53.9505C63.842 53.6839 64.1375 53.4626 64.5126 53.4626C64.8877 53.4626 65.1833 53.6782 65.1833 53.9505Z" fill="#F9F9F9"/>
</g>
<g style="mix-blend-mode:screen">
<path d="M98.977 54.603C98.977 54.8583 98.6928 55.0626 98.3404 55.0626C97.988 55.0626 97.6982 54.8583 97.6982 54.603C97.6982 54.3477 97.988 54.1434 98.3404 54.1434C98.6928 54.1434 98.977 54.3477 98.977 54.603Z" fill="#F9F9F9"/>
</g>
<g style="mix-blend-mode:screen">
<path d="M77.2947 10.7629C77.2947 10.865 77.181 10.9501 77.039 10.9501C76.8969 10.9501 76.7832 10.865 76.7832 10.7629C76.7832 10.6607 76.8969 10.5813 77.039 10.5813C77.181 10.5813 77.2947 10.6607 77.2947 10.7629Z" fill="#F9F9F9"/>
</g>
<g style="mix-blend-mode:screen">
<path d="M12.2193 35.4375C12.2193 35.619 12.0148 35.7665 11.7647 35.7665C11.5146 35.7665 11.31 35.619 11.31 35.4375C11.31 35.2559 11.5146 35.1084 11.7647 35.1084C12.0148 35.1084 12.2193 35.2559 12.2193 35.4375Z" fill="#F9F9F9"/>
</g>
<g style="mix-blend-mode:screen">
<path d="M72.9298 59.3121C72.9298 59.4312 72.7934 59.5334 72.6229 59.5334C72.4524 59.5334 72.3217 59.4312 72.3217 59.3121C72.3217 59.193 72.4581 59.0908 72.6229 59.0908C72.7877 59.0908 72.9298 59.1873 72.9298 59.3121Z" fill="#F9F9F9"/>
</g>
<g style="mix-blend-mode:screen">
<path d="M40.8696 77.9613C40.8696 78.0975 40.7161 78.2053 40.5286 78.2053C40.341 78.2053 40.1932 78.0975 40.1932 77.9613C40.1932 77.8251 40.341 77.7173 40.5286 77.7173C40.7161 77.7173 40.8696 77.8365 40.8696 77.9613Z" fill="#F9F9F9"/>
</g>
<g style="mix-blend-mode:screen">
<path d="M67.6954 60.0553C67.6954 60.3447 67.3714 60.5773 66.9679 60.5773C66.5644 60.5773 66.2461 60.3447 66.2461 60.0553C66.2461 59.766 66.5701 59.5277 66.9679 59.5277C67.3657 59.5277 67.6954 59.766 67.6954 60.0553Z" fill="#F9F9F9"/>
</g>
<g style="mix-blend-mode:screen">
<path d="M45.9108 102.585C45.9108 102.783 45.6891 102.948 45.4106 102.948C45.1321 102.948 44.9105 102.783 44.9105 102.585C44.9105 102.386 45.1321 102.222 45.4106 102.222C45.6891 102.222 45.9108 102.386 45.9108 102.585Z" fill="#F9F9F9"/>
</g>
<g style="mix-blend-mode:screen">
<path d="M83.4953 73.7118C83.4953 73.882 83.3078 74.0181 83.0748 74.0181C82.8417 74.0181 82.6542 73.882 82.6542 73.7118C82.6542 73.5416 82.8417 73.4111 83.0748 73.4111C83.3078 73.4111 83.4953 73.5472 83.4953 73.7118Z" fill="#F9F9F9"/>
</g>
<g style="mix-blend-mode:screen">
<path d="M106.894 34.6999C107.208 34.6999 107.462 34.517 107.462 34.2914C107.462 34.0658 107.208 33.8829 106.894 33.8829C106.58 33.8829 106.326 34.0658 106.326 34.2914C106.326 34.517 106.58 34.6999 106.894 34.6999Z" fill="#F9F9F9"/>
</g>
<g style="mix-blend-mode:screen">
<path d="M61.2901 14.8082C61.2901 14.9954 61.0855 15.1486 60.8241 15.1486C60.5626 15.1486 60.358 14.9954 60.358 14.8082C60.358 14.6209 60.5683 14.4734 60.8241 14.4734C61.0798 14.4734 61.2901 14.6209 61.2901 14.8082Z" fill="#F9F9F9"/>
</g>
<g style="mix-blend-mode:screen">
<path d="M78.062 66.7048C78.062 66.8977 77.846 67.0509 77.5789 67.0509C77.3117 67.0509 77.1014 66.8977 77.1014 66.7048C77.1014 66.5119 77.3174 66.3587 77.5789 66.3587C77.8403 66.3587 78.062 66.5176 78.062 66.7048Z" fill="#F9F9F9"/>
</g>
<g style="mix-blend-mode:screen">
<path d="M74.5211 98.1935C74.5211 98.3637 74.3336 98.4942 74.1063 98.4942C73.8789 98.4942 73.6857 98.3637 73.6857 98.1935C73.6857 98.0232 73.8732 97.8927 74.1063 97.8927C74.3393 97.8927 74.5211 98.0289 74.5211 98.1935Z" fill="#F9F9F9"/>
</g>
<g style="mix-blend-mode:screen">
<path d="M76.3569 18.6606C76.3569 18.7513 76.2546 18.8251 76.1352 18.8251C76.0159 18.8251 75.9079 18.7513 75.9079 18.6606C75.9079 18.5698 76.0102 18.5017 76.1352 18.5017C76.2603 18.5017 76.3569 18.5755 76.3569 18.6606Z" fill="#F9F9F9"/>
</g>
<g style="mix-blend-mode:screen">
<path d="M87.2691 57.4171C87.2691 57.5306 87.1441 57.6214 86.9849 57.6214C86.8258 57.6214 86.7007 57.5306 86.7007 57.4171C86.7007 57.3036 86.8315 57.2129 86.9849 57.2129C87.1384 57.2129 87.2691 57.3036 87.2691 57.4171Z" fill="#F9F9F9"/>
</g>
<g style="mix-blend-mode:screen">
<path d="M110.259 64.5999C110.259 64.7474 110.094 64.8723 109.889 64.8723C109.685 64.8723 109.514 64.7474 109.514 64.5999C109.514 64.4524 109.679 64.3276 109.889 64.3276C110.099 64.3276 110.259 64.4524 110.259 64.5999Z" fill="#F9F9F9"/>
</g>
<g style="mix-blend-mode:screen">
<path d="M52.7138 83.2491C52.7138 83.4931 52.441 83.6917 52.1 83.6917C51.759 83.6917 51.4862 83.4931 51.4862 83.2491C51.4862 83.0052 51.759 82.8066 52.1 82.8066C52.441 82.8066 52.7138 83.0052 52.7138 83.2491Z" fill="#F9F9F9"/>
</g>
<g style="mix-blend-mode:screen">
<path d="M16.6127 82.6591C16.9642 82.6591 17.2492 82.4533 17.2492 82.1995C17.2492 81.9457 16.9642 81.7399 16.6127 81.7399C16.2611 81.7399 15.9761 81.9457 15.9761 82.1995C15.9761 82.4533 16.2611 82.6591 16.6127 82.6591Z" fill="#F9F9F9"/>
</g>
<g style="mix-blend-mode:screen">
<path d="M12.5433 58.7391C12.5433 58.9093 12.3501 59.0511 12.1171 59.0511C11.884 59.0511 11.6851 58.9093 11.6851 58.7391C11.6851 58.5689 11.8784 58.427 12.1171 58.427C12.3558 58.427 12.5433 58.5632 12.5433 58.7391Z" fill="#F9F9F9"/>
</g>
<g style="mix-blend-mode:screen">
<path d="M37.272 66.1885C37.272 66.336 37.1015 66.4609 36.8968 66.4609C36.6922 66.4609 36.5161 66.336 36.5161 66.1885C36.5161 66.041 36.6866 65.9105 36.8968 65.9105C37.1071 65.9105 37.272 66.0467 37.272 66.1885Z" fill="#F9F9F9"/>
</g>
<g style="mix-blend-mode:screen">
<path d="M84.4672 18.2237C84.4672 18.4223 84.2398 18.5868 83.9613 18.5868C83.6829 18.5868 83.4555 18.4223 83.4555 18.2237C83.4555 18.0251 83.6829 17.8549 83.9613 17.8549C84.2398 17.8549 84.4672 18.0194 84.4672 18.2237Z" fill="#F9F9F9"/>
</g>
<g style="mix-blend-mode:screen">
<path d="M136.567 72.0267C136.567 72.3274 136.226 72.5941 135.811 72.5941C135.396 72.5941 135.055 72.3444 135.055 72.0267C135.055 71.709 135.396 71.4593 135.811 71.4593C136.226 71.4593 136.567 71.7203 136.567 72.0267Z" fill="#F9F9F9"/>
</g>
<g style="mix-blend-mode:screen">
<path d="M69.9744 63.3177C69.9744 63.5276 69.7414 63.6978 69.4459 63.6978C69.1503 63.6978 68.9173 63.5276 68.9173 63.3177C68.9173 63.1078 69.156 62.9319 69.4459 62.9319C69.7357 62.9319 69.9744 63.1021 69.9744 63.3177Z" fill="#F9F9F9"/>
</g>
<g style="mix-blend-mode:screen">
<path d="M71.2021 21.5882C71.2021 21.7186 71.0543 21.8264 70.8724 21.8264C70.6906 21.8264 70.5485 21.7186 70.5485 21.5882C70.5485 21.4577 70.6962 21.3499 70.8724 21.3499C71.0486 21.3499 71.2021 21.4577 71.2021 21.5882Z" fill="#F9F9F9"/>
</g>
<g style="mix-blend-mode:screen">
<path d="M45.0071 16.3627C45.0071 16.5443 44.8025 16.6975 44.5467 16.6975C44.291 16.6975 44.0864 16.5443 44.0864 16.3627C44.0864 16.1812 44.2966 16.028 44.5467 16.028C44.7968 16.028 45.0071 16.1812 45.0071 16.3627Z" fill="#F9F9F9"/>
</g>
<g style="mix-blend-mode:screen">
<path d="M40.7161 118.244C40.7161 118.545 40.3751 118.811 39.9545 118.811C39.534 118.811 39.1929 118.562 39.1929 118.244C39.1929 117.926 39.534 117.677 39.9545 117.677C40.3751 117.677 40.7161 117.909 40.7161 118.244Z" fill="#F9F9F9"/>
</g>
<g style="mix-blend-mode:screen">
<path d="M83.7965 107.078C83.7965 107.351 83.4896 107.572 83.1145 107.572C82.7394 107.572 82.4268 107.351 82.4268 107.078C82.4268 106.806 82.7337 106.585 83.1145 106.585C83.4953 106.585 83.7965 106.806 83.7965 107.078Z" fill="#F9F9F9"/>
</g>
<g style="mix-blend-mode:screen">
<path d="M67.252 80.5088C67.252 80.7017 67.0417 80.8548 66.7803 80.8548C66.5189 80.8548 66.3086 80.7017 66.3086 80.5088C66.3086 80.3159 66.5189 80.1684 66.7803 80.1684C67.0417 80.1684 67.252 80.3215 67.252 80.5088Z" fill="#F9F9F9"/>
</g>
<g style="mix-blend-mode:screen">
<path d="M71.7079 77.5018C71.7079 77.7003 71.4919 77.8592 71.2191 77.8592C70.9463 77.8592 70.7246 77.7003 70.7246 77.5018C70.7246 77.3032 70.9463 77.15 71.2191 77.15C71.4919 77.15 71.7079 77.3089 71.7079 77.5018Z" fill="#F9F9F9"/>
</g>
<g style="mix-blend-mode:screen">
<path d="M93.3561 14.6323C93.3561 14.7514 93.2253 14.8479 93.0605 14.8479C92.8957 14.8479 92.7593 14.7514 92.7593 14.6323C92.7593 14.5131 92.8957 14.4167 93.0605 14.4167C93.2253 14.4167 93.3561 14.5131 93.3561 14.6323Z" fill="#F9F9F9"/>
</g>
<g style="mix-blend-mode:screen">
<path d="M80.6934 12.5614C80.6934 12.8281 80.3922 13.0493 80.0228 13.0493C79.6533 13.0493 79.3578 12.8281 79.3578 12.5614C79.3578 12.2947 79.6533 12.0792 80.0228 12.0792C80.3922 12.0792 80.6934 12.2947 80.6934 12.5614Z" fill="#F9F9F9"/>
</g>
<g style="mix-blend-mode:screen">
<path d="M51.0599 44.1805C51.0599 44.3621 50.8553 44.5096 50.6053 44.5096C50.3552 44.5096 50.1506 44.3621 50.1506 44.1805C50.1506 43.999 50.3552 43.8515 50.6053 43.8515C50.8553 43.8515 51.0599 43.999 51.0599 44.1805Z" fill="#F9F9F9"/>
</g>
<g style="mix-blend-mode:screen">
<path d="M103.149 52.0952C103.149 52.396 102.808 52.6626 102.393 52.6626C101.978 52.6626 101.637 52.4186 101.637 52.0952C101.637 51.7719 101.972 51.5279 102.393 51.5279C102.813 51.5279 103.149 51.7945 103.149 52.0952Z" fill="#F9F9F9"/>
</g>
<g style="mix-blend-mode:screen">
<path d="M79.6533 85.9441C79.6533 86.2959 79.2554 86.5852 78.7723 86.5852C78.2893 86.5852 77.8914 86.2959 77.8914 85.9441C77.8914 85.5923 78.2836 85.3087 78.7723 85.3087C79.2611 85.3087 79.6533 85.598 79.6533 85.9441Z" fill="#F9F9F9"/>
</g>
<g style="mix-blend-mode:screen">
<path d="M75.9534 25.9114C75.9534 26.0817 75.7658 26.2178 75.5328 26.2178C75.2998 26.2178 75.1179 26.0817 75.1179 25.9114C75.1179 25.7412 75.3055 25.6107 75.5328 25.6107C75.7601 25.6107 75.9534 25.7639 75.9534 25.9114Z" fill="#F9F9F9"/>
</g>
<g style="mix-blend-mode:screen">
<path d="M70.0483 19.2506C70.3119 19.2506 70.5257 19.0957 70.5257 18.9045C70.5257 18.7134 70.3119 18.5584 70.0483 18.5584C69.7846 18.5584 69.5709 18.7134 69.5709 18.9045C69.5709 19.0957 69.7846 19.2506 70.0483 19.2506Z" fill="#F9F9F9"/>
</g>
<g style="mix-blend-mode:screen">
<path d="M59.7215 32.7141C59.7215 32.9014 59.5055 33.0546 59.2497 33.0546C58.994 33.0546 58.7723 32.9014 58.7723 32.7141C58.7723 32.5269 58.9883 32.368 59.2497 32.368C59.5112 32.368 59.7215 32.5212 59.7215 32.7141Z" fill="#F9F9F9"/>
</g>
<g style="mix-blend-mode:screen">
<path d="M63.6828 30.0646C63.9559 30.0646 64.1773 29.9045 64.1773 29.7071C64.1773 29.5097 63.9559 29.3497 63.6828 29.3497C63.4097 29.3497 63.1884 29.5097 63.1884 29.7071C63.1884 29.9045 63.4097 30.0646 63.6828 30.0646Z" fill="#F9F9F9"/>
</g>
<g style="mix-blend-mode:screen">
<path d="M72.1284 38.1495C72.1284 38.5012 71.7363 38.7849 71.2475 38.7849C70.7587 38.7849 70.3666 38.5012 70.3666 38.1495C70.3666 37.7977 70.7587 37.5084 71.2475 37.5084C71.7363 37.5084 72.1284 37.7977 72.1284 38.1495Z" fill="#F9F9F9"/>
</g>
<g style="mix-blend-mode:screen">
<path d="M73.7709 12.5784C73.7709 12.7486 73.5834 12.8848 73.3504 12.8848C73.1173 12.8848 72.9355 12.7486 72.9355 12.5784C72.9355 12.4082 73.123 12.2777 73.3504 12.2777C73.5777 12.2777 73.7709 12.4139 73.7709 12.5784Z" fill="#F9F9F9"/>
</g>
<g style="mix-blend-mode:screen">
<path d="M67.8658 5.91759C68.1295 5.91759 68.3432 5.76264 68.3432 5.5715C68.3432 5.38036 68.1295 5.22541 67.8658 5.22541C67.6022 5.22541 67.3884 5.38036 67.3884 5.5715C67.3884 5.76264 67.6022 5.91759 67.8658 5.91759Z" fill="#F9F9F9"/>
</g>
<g style="mix-blend-mode:screen">
<path d="M57.0674 19.7215C57.3279 19.7215 57.5391 19.5691 57.5391 19.3811C57.5391 19.1931 57.3279 19.0407 57.0674 19.0407C56.8068 19.0407 56.5956 19.1931 56.5956 19.3811C56.5956 19.5691 56.8068 19.7215 57.0674 19.7215Z" fill="#F9F9F9"/>
</g>
<g style="mix-blend-mode:screen">
<path d="M61.9949 16.3741C61.9949 16.567 61.7732 16.7259 61.5004 16.7259C61.2276 16.7259 61.0117 16.567 61.0117 16.3741C61.0117 16.1812 61.2276 16.0167 61.5004 16.0167C61.7732 16.0167 61.9949 16.1755 61.9949 16.3741Z" fill="#F9F9F9"/>
</g>
<g style="mix-blend-mode:screen">
<path d="M68.5763 31.0801C68.5763 31.4319 68.1784 31.7156 67.6953 31.7156C67.2122 31.7156 66.8144 31.4319 66.8144 31.0801C66.8144 30.7284 67.2066 30.4447 67.6953 30.4447C68.1841 30.4447 68.5763 30.7284 68.5763 31.0801Z" fill="#F9F9F9"/>
</g>
<g style="mix-blend-mode:screen">
<path d="M44.4444 13.282C44.4444 13.4522 44.2569 13.5827 44.0238 13.5827C43.7908 13.5827 43.6089 13.4522 43.6089 13.282C43.6089 13.1117 43.7965 12.9813 44.0238 12.9813C44.2512 12.9813 44.4444 13.1061 44.4444 13.282Z" fill="#F9F9F9"/>
</g>
<g style="mix-blend-mode:screen">
<path d="M27.7352 20.408C27.9957 20.408 28.2069 20.2556 28.2069 20.0676C28.2069 19.8796 27.9957 19.7272 27.7352 19.7272C27.4746 19.7272 27.2634 19.8796 27.2634 20.0676C27.2634 20.2556 27.4746 20.408 27.7352 20.408Z" fill="#F9F9F9"/>
</g>
<g style="mix-blend-mode:screen">
<path d="M32.6684 17.0606C32.6684 17.2592 32.4467 17.418 32.1739 17.418C31.9011 17.418 31.6851 17.2592 31.6851 17.0606C31.6851 16.862 31.9011 16.7088 32.1739 16.7088C32.4467 16.7088 32.6684 16.8677 32.6684 17.0606Z" fill="#F9F9F9"/>
</g>
<g style="mix-blend-mode:screen">
<path d="M37.9824 22.5413C37.9824 22.8931 37.5902 23.1824 37.1014 23.1824C36.6127 23.1824 36.2205 22.8931 36.2205 22.5413C36.2205 22.1896 36.6127 21.9059 37.1014 21.9059C37.5902 21.9059 37.9824 22.1896 37.9824 22.5413Z" fill="#F9F9F9"/>
</g>
<g style="mix-blend-mode:screen">
<path d="M57.4368 102.159C57.4368 102.318 57.2663 102.443 57.0503 102.443C56.8343 102.443 56.6638 102.318 56.6638 102.159C56.6638 102 56.8343 101.881 57.0503 101.881C57.2663 101.881 57.4368 102.006 57.4368 102.159Z" fill="#F9F9F9"/>
</g>
<g style="mix-blend-mode:screen">
<path d="M124.928 48.328C124.928 48.4755 124.763 48.5946 124.558 48.5946C124.353 48.5946 124.194 48.4755 124.194 48.328C124.194 48.1804 124.359 48.067 124.558 48.067C124.757 48.067 124.928 48.1804 124.928 48.328Z" fill="#F9F9F9"/>
</g>
<g style="mix-blend-mode:screen">
<path d="M88.7752 47.528C88.7752 47.7039 88.582 47.8514 88.3376 47.8514C88.0932 47.8514 87.8943 47.7039 87.8943 47.528C87.8943 47.3521 88.0932 47.2103 88.3376 47.2103C88.582 47.2103 88.7752 47.3521 88.7752 47.528Z" fill="#F9F9F9"/>
</g>
<g style="mix-blend-mode:screen">
<path d="M76.0727 30.8191C76.0727 30.9667 75.9136 31.0801 75.7147 31.0801C75.5158 31.0801 75.3566 30.9667 75.3566 30.8191C75.3566 30.6716 75.5158 30.5638 75.7147 30.5638C75.9136 30.5638 76.0727 30.6773 76.0727 30.8191Z" fill="#F9F9F9"/>
</g>
<g style="mix-blend-mode:screen">
<path d="M69.7073 49.8939C69.7073 50.0017 69.5879 50.0811 69.4458 50.0811C69.3037 50.0811 69.1901 50.0017 69.1901 49.8939C69.1901 49.7861 69.3037 49.7123 69.4458 49.7123C69.5879 49.7123 69.7073 49.7918 69.7073 49.8939Z" fill="#F9F9F9"/>
</g>
<g style="mix-blend-mode:screen">
<path d="M104.825 14.9046C104.825 15.1429 104.552 15.3415 104.223 15.3415C103.893 15.3415 103.62 15.1429 103.62 14.9046C103.62 14.6663 103.893 14.4734 104.223 14.4734C104.552 14.4734 104.825 14.6663 104.825 14.9046Z" fill="#F9F9F9"/>
</g>
<g style="mix-blend-mode:screen">
<path d="M106.797 25.7129C106.797 25.9795 106.496 26.2008 106.127 26.2008C105.757 26.2008 105.456 25.9795 105.456 25.7129C105.456 25.4462 105.752 25.2249 106.127 25.2249C106.502 25.2249 106.797 25.4462 106.797 25.7129Z" fill="#F9F9F9"/>
</g>
<g style="mix-blend-mode:screen">
<path d="M109.298 31.8177C109.298 32.1071 108.974 32.3397 108.571 32.3397C108.167 32.3397 107.849 32.1071 107.849 31.8177C107.849 31.5283 108.173 31.2901 108.571 31.2901C108.968 31.2901 109.298 31.5283 109.298 31.8177Z" fill="#F9F9F9"/>
</g>
<g style="mix-blend-mode:screen">
<path d="M111.31 21.6619C111.31 21.764 111.191 21.8491 111.049 21.8491C110.906 21.8491 110.793 21.764 110.793 21.6619C110.793 21.5598 110.906 21.4747 111.049 21.4747C111.191 21.4747 111.31 21.5598 111.31 21.6619Z" fill="#F9F9F9"/>
</g>
<g style="mix-blend-mode:screen">
<path d="M3.14292 59.1589C3.14292 59.3972 2.87581 59.5901 2.54617 59.5901C2.21653 59.5901 1.94373 59.3972 1.94373 59.1589C1.94373 58.9206 2.21085 58.722 2.54617 58.722C2.88149 58.722 3.14292 58.9206 3.14292 59.1589Z" fill="#F9F9F9"/>
</g>
<g style="mix-blend-mode:screen">
<path d="M5.10936 69.9672C5.10936 70.2338 4.80815 70.4494 4.43305 70.4494C4.05794 70.4494 3.76239 70.2338 3.76239 69.9672C3.76239 69.7005 4.06363 69.4792 4.43305 69.4792C4.80247 69.4792 5.10936 69.6948 5.10936 69.9672Z" fill="#F9F9F9"/>
</g>
<g style="mix-blend-mode:screen">
<path d="M7.62146 76.0663C7.62146 76.3613 7.29182 76.594 6.89398 76.594C6.49614 76.594 6.1665 76.3613 6.1665 76.0663C6.1665 75.7713 6.49046 75.5443 6.89398 75.5443C7.29751 75.5443 7.62146 75.777 7.62146 76.0663Z" fill="#F9F9F9"/>
</g>
<g style="mix-blend-mode:screen">
<path d="M9.6107 65.9105C9.6107 66.0183 9.49703 66.0978 9.35494 66.0978C9.21285 66.0978 9.09351 66.0183 9.09351 65.9105C9.09351 65.8027 9.21285 65.7233 9.35494 65.7233C9.49703 65.7233 9.6107 65.8084 9.6107 65.9105Z" fill="#F9F9F9"/>
</g>
<g style="mix-blend-mode:screen">
<path d="M38.9145 85.337C39.1907 85.337 39.4146 85.1744 39.4146 84.9739C39.4146 84.7734 39.1907 84.6108 38.9145 84.6108C38.6382 84.6108 38.4143 84.7734 38.4143 84.9739C38.4143 85.1744 38.6382 85.337 38.9145 85.337Z" fill="#F9F9F9"/>
</g>
<g style="mix-blend-mode:screen">
<path d="M132.373 87.7313C132.373 87.8675 132.219 87.9753 132.037 87.9753C131.856 87.9753 131.696 87.8675 131.696 87.7313C131.696 87.5951 131.85 87.4873 132.037 87.4873C132.225 87.4873 132.373 87.6065 132.373 87.7313Z" fill="#F9F9F9"/>
</g>
<g style="mix-blend-mode:screen">
<path d="M30.1051 81.0875C30.1051 81.3712 29.7869 81.6038 29.3947 81.6038C29.0025 81.6038 28.6843 81.3712 28.6843 81.0875C28.6843 80.8038 29.0025 80.5768 29.3947 80.5768C29.7869 80.5768 30.1051 80.7981 30.1051 81.0875Z" fill="#F9F9F9"/>
</g>
<g style="mix-blend-mode:screen">
<path d="M44.74 67.658C45.0256 67.658 45.2572 67.4904 45.2572 67.2835C45.2572 67.0767 45.0256 66.9091 44.74 66.9091C44.4543 66.9091 44.2228 67.0767 44.2228 67.2835C44.2228 67.4904 44.4543 67.658 44.74 67.658Z" fill="#F9F9F9"/>
</g>
<g style="mix-blend-mode:screen">
<path d="M38.4314 102.176C38.4314 102.494 38.0733 102.744 37.6357 102.744C37.1981 102.744 36.84 102.488 36.84 102.176C36.84 101.864 37.1981 101.609 37.6357 101.609C38.0733 101.609 38.4314 101.859 38.4314 102.176Z" fill="#F9F9F9"/>
</g>
<g style="mix-blend-mode:screen">
<path d="M30.4575 41.0147C30.7714 41.0147 31.0258 40.8292 31.0258 40.6005C31.0258 40.3717 30.7714 40.1863 30.4575 40.1863C30.1436 40.1863 29.8892 40.3717 29.8892 40.6005C29.8892 40.8292 30.1436 41.0147 30.4575 41.0147Z" fill="#F9F9F9"/>
</g>
<g style="mix-blend-mode:screen">
<path d="M99.9432 90.5908C100.1 90.5908 100.227 90.4993 100.227 90.3865C100.227 90.2737 100.1 90.1823 99.9432 90.1823C99.7862 90.1823 99.659 90.2737 99.659 90.3865C99.659 90.4993 99.7862 90.5908 99.9432 90.5908Z" fill="#F9F9F9"/>
</g>
<g style="mix-blend-mode:screen">
<path d="M35.8568 105.076C35.8568 105.24 35.6692 105.376 35.4362 105.376C35.2032 105.376 35.0156 105.24 35.0156 105.076C35.0156 104.911 35.2032 104.769 35.4362 104.769C35.6692 104.769 35.8568 104.905 35.8568 105.076Z" fill="#F9F9F9"/>
</g>
<g style="mix-blend-mode:screen">
<path d="M27.8602 59.3461C27.8602 59.5164 27.6669 59.6582 27.4282 59.6582C27.1895 59.6582 26.9906 59.5164 26.9906 59.3461C26.9906 59.1759 27.1838 59.0284 27.4282 59.0284C27.6726 59.0284 27.8602 59.1703 27.8602 59.3461Z" fill="#F9F9F9"/>
</g>
<g style="mix-blend-mode:screen">
<path d="M33.14 25.9682C33.14 26.0533 33.0491 26.1214 32.9298 26.1214C32.8104 26.1214 32.7195 26.0533 32.7195 25.9682C32.7195 25.8831 32.8161 25.815 32.9298 25.815C33.0434 25.815 33.14 25.8831 33.14 25.9682Z" fill="#F9F9F9"/>
</g>
<g style="mix-blend-mode:screen">
<path d="M89.2469 39.9764C89.2469 40.2544 88.94 40.4757 88.5535 40.4757C88.1671 40.4757 87.8602 40.2544 87.8602 39.9764C87.8602 39.6984 88.1728 39.4714 88.5535 39.4714C88.9343 39.4714 89.2469 39.6984 89.2469 39.9764Z" fill="#F9F9F9"/>
</g>
<g style="mix-blend-mode:screen">
<path d="M97.4993 87.1696C97.4993 87.4249 97.2151 87.6348 96.8627 87.6348C96.5104 87.6348 96.2205 87.4249 96.2205 87.1696C96.2205 86.9143 96.5104 86.7101 96.8627 86.7101C97.2151 86.7101 97.4993 86.9143 97.4993 87.1696Z" fill="#F9F9F9"/>
</g>
<g style="mix-blend-mode:screen">
<path d="M85.7687 89.9837C85.7687 90.0972 85.6379 90.188 85.4845 90.188C85.331 90.188 85.2003 90.0972 85.2003 89.9837C85.2003 89.8702 85.3254 89.7794 85.4845 89.7794C85.6436 89.7794 85.7687 89.8759 85.7687 89.9837Z" fill="#F9F9F9"/>
</g>
<g style="mix-blend-mode:screen">
<path d="M101.682 84.6675C101.682 84.9682 101.341 85.2349 100.926 85.2349C100.511 85.2349 100.17 84.9909 100.17 84.6675C100.17 84.3441 100.506 84.1002 100.926 84.1002C101.347 84.1002 101.682 84.3611 101.682 84.6675Z" fill="#F9F9F9"/>
</g>
<g style="mix-blend-mode:screen">
<path d="M87.2975 80.1003C87.2975 80.2761 87.1043 80.418 86.8599 80.418C86.6155 80.418 86.4166 80.2761 86.4166 80.1003C86.4166 79.9244 86.6155 79.7825 86.8599 79.7825C87.1043 79.7825 87.2975 79.9244 87.2975 80.1003Z" fill="#F9F9F9"/>
</g>
<g style="mix-blend-mode:screen">
<path d="M87.7693 72.543C87.7693 72.821 87.4624 73.048 87.0759 73.048C86.6894 73.048 86.3825 72.821 86.3825 72.543C86.3825 72.265 86.6951 72.0437 87.0759 72.0437C87.4567 72.0437 87.7693 72.2877 87.7693 72.543Z" fill="#F9F9F9"/>
</g>
<g style="mix-blend-mode:screen">
<path d="M79.6476 109.132C79.6476 109.302 79.46 109.439 79.2327 109.439C79.0054 109.439 78.8121 109.302 78.8121 109.132C78.8121 108.962 78.9997 108.832 79.2327 108.832C79.4657 108.832 79.6476 108.968 79.6476 109.132Z" fill="#F9F9F9"/>
</g>
<g style="mix-blend-mode:screen">
<path d="M75.8113 121.365C75.8113 121.716 75.4191 122.006 74.9304 122.006C74.4416 122.006 74.0551 121.716 74.0551 121.365C74.0551 121.013 74.4473 120.729 74.9304 120.729C75.4134 120.729 75.8113 121.018 75.8113 121.365Z" fill="#F9F9F9"/>
</g>
<g style="mix-blend-mode:screen">
<path d="M87.2975 121.569C87.4545 121.569 87.5817 121.477 87.5817 121.365C87.5817 121.252 87.4545 121.16 87.2975 121.16C87.1406 121.16 87.0134 121.252 87.0134 121.365C87.0134 121.477 87.1406 121.569 87.2975 121.569Z" fill="#F9F9F9"/>
</g>
<g style="mix-blend-mode:screen">
<path d="M83.4612 115.521C83.4612 115.697 83.2623 115.838 83.0179 115.838C82.7735 115.838 82.5803 115.697 82.5803 115.521C82.5803 115.345 82.7792 115.197 83.0179 115.197C83.2566 115.197 83.4612 115.345 83.4612 115.521Z" fill="#F9F9F9"/>
</g>
<g style="mix-blend-mode:screen">
<path d="M83.9329 107.963C83.9329 108.241 83.626 108.468 83.2395 108.468C82.853 108.468 82.5461 108.241 82.5461 107.963C82.5461 107.685 82.8587 107.464 83.2395 107.464C83.6203 107.464 83.9329 107.685 83.9329 107.963Z" fill="#F9F9F9"/>
</g>
<g style="mix-blend-mode:screen">
<path d="M77.7323 66.8977C77.7323 67.153 77.4481 67.3573 77.0958 67.3573C76.7434 67.3573 76.4592 67.153 76.4592 66.8977C76.4592 66.6424 76.7434 66.4382 77.0958 66.4382C77.4481 66.4382 77.7323 66.6424 77.7323 66.8977Z" fill="#F9F9F9"/>
</g>
<g style="mix-blend-mode:screen">
<path d="M51.6681 71.6069C51.6681 71.726 51.5317 71.8281 51.3612 71.8281C51.1907 71.8281 51.0599 71.726 51.0599 71.6069C51.0599 71.4877 51.1963 71.3856 51.3612 71.3856C51.526 71.3856 51.6681 71.482 51.6681 71.6069Z" fill="#F9F9F9"/>
</g>
<g style="mix-blend-mode:screen">
<path d="M62.2449 86.0065C62.2449 86.1767 62.0574 86.3129 61.8244 86.3129C61.5914 86.3129 61.4038 86.1767 61.4038 86.0065C61.4038 85.8363 61.5914 85.7058 61.8244 85.7058C62.0574 85.7058 62.2449 85.8419 62.2449 86.0065Z" fill="#F9F9F9"/>
</g>
<g style="mix-blend-mode:screen">
<path d="M56.3342 79.3457C56.5978 79.3457 56.8116 79.1907 56.8116 78.9996C56.8116 78.8085 56.5978 78.6535 56.3342 78.6535C56.0705 78.6535 55.8568 78.8085 55.8568 78.9996C55.8568 79.1907 56.0705 79.3457 56.3342 79.3457Z" fill="#F9F9F9"/>
</g>
<g style="mix-blend-mode:screen">
<path d="M53.2765 110.488C53.2765 110.658 53.0946 110.789 52.8616 110.789C52.6286 110.789 52.441 110.658 52.441 110.488C52.441 110.318 52.6286 110.188 52.8616 110.188C53.0946 110.188 53.2765 110.301 53.2765 110.488Z" fill="#F9F9F9"/>
</g>
<g style="mix-blend-mode:screen">
<path d="M66.0244 69.7119C66.0244 69.8253 65.8994 69.9161 65.7402 69.9161C65.5811 69.9161 65.4561 69.8253 65.4561 69.7119C65.4561 69.5984 65.5868 69.5076 65.7402 69.5076C65.8937 69.5076 66.0244 69.5984 66.0244 69.7119Z" fill="#F9F9F9"/>
</g>
<g style="mix-blend-mode:screen">
<path d="M89.0139 76.8947C89.0139 77.0422 88.8491 77.167 88.6445 77.167C88.4399 77.167 88.2694 77.0422 88.2694 76.8947C88.2694 76.7472 88.4342 76.6223 88.6445 76.6223C88.8548 76.6223 89.0139 76.7472 89.0139 76.8947Z" fill="#F9F9F9"/>
</g>
<g style="mix-blend-mode:screen">
<path d="M48.7297 75.6124C48.7297 75.8224 48.4967 75.9926 48.2012 75.9926C47.9056 75.9926 47.6726 75.8224 47.6726 75.6124C47.6726 75.4025 47.9113 75.2266 48.2012 75.2266C48.491 75.2266 48.7297 75.3968 48.7297 75.6124Z" fill="#F9F9F9"/>
</g>
<g style="mix-blend-mode:screen">
<path d="M62.5518 119.379C62.5518 119.651 62.2449 119.872 61.8698 119.872C61.4947 119.872 61.1821 119.651 61.1821 119.379C61.1821 119.106 61.489 118.885 61.8698 118.885C62.2506 118.885 62.5518 119.101 62.5518 119.379Z" fill="#F9F9F9"/>
</g>
<g style="mix-blend-mode:screen">
<path d="M50.4688 89.7965C50.4688 89.9951 50.2472 90.1539 49.9744 90.1539C49.7016 90.1539 49.4799 89.9951 49.4799 89.7965C49.4799 89.5979 49.7016 89.4447 49.9744 89.4447C50.2472 89.4447 50.4688 89.6036 50.4688 89.7965Z" fill="#F9F9F9"/>
</g>
<g style="mix-blend-mode:screen">
<path d="M81.1481 64.9347C81.5655 64.9347 81.904 64.6908 81.904 64.39C81.904 64.0892 81.5655 63.8453 81.1481 63.8453C80.7306 63.8453 80.3922 64.0892 80.3922 64.39C80.3922 64.6908 80.7306 64.9347 81.1481 64.9347Z" fill="#F9F9F9"/>
</g>
<g style="mix-blend-mode:screen">
<path d="M58.4086 98.2388C58.4086 98.5906 58.0108 98.88 57.5277 98.88C57.0446 98.88 56.6468 98.5906 56.6468 98.2388C56.6468 97.8871 57.0389 97.6034 57.5277 97.6034C58.0165 97.6034 58.4086 97.8927 58.4086 98.2388Z" fill="#F9F9F9"/>
</g>
<g style="mix-blend-mode:screen">
<path d="M67.5362 59.8057C67.5362 59.9816 67.3373 60.1291 67.0929 60.1291C66.8485 60.1291 66.6496 59.9816 66.6496 59.8057C66.6496 59.6298 66.8485 59.488 67.0929 59.488C67.3373 59.488 67.5362 59.6468 67.5362 59.8057Z" fill="#F9F9F9"/>
</g>
<g style="mix-blend-mode:screen">
<path d="M48.2011 62.3759C48.3455 62.3759 48.4626 62.292 48.4626 62.1886C48.4626 62.0852 48.3455 62.0014 48.2011 62.0014C48.0567 62.0014 47.9397 62.0852 47.9397 62.1886C47.9397 62.292 48.0567 62.3759 48.2011 62.3759Z" fill="#F9F9F9"/>
</g>
<g style="mix-blend-mode:screen">
<path d="M78.6985 102.886C78.8554 102.886 78.9827 102.794 78.9827 102.681C78.9827 102.568 78.8554 102.477 78.6985 102.477C78.5415 102.477 78.4143 102.568 78.4143 102.681C78.4143 102.794 78.5415 102.886 78.6985 102.886Z" fill="#F9F9F9"/>
</g>
<g style="mix-blend-mode:screen">
<path d="M76.2546 99.4644C76.2546 99.7197 75.9704 99.9296 75.6181 99.9296C75.2657 99.9296 74.9758 99.7197 74.9758 99.4644C74.9758 99.209 75.2657 99.0048 75.6181 99.0048C75.9704 99.0048 76.2546 99.209 76.2546 99.4644Z" fill="#F9F9F9"/>
</g>
<g style="mix-blend-mode:screen">
<path d="M64.5467 102.278C64.5467 102.392 64.4217 102.483 64.2626 102.483C64.1034 102.483 63.9784 102.392 63.9784 102.278C63.9784 102.165 64.1091 102.074 64.2626 102.074C64.416 102.074 64.5467 102.165 64.5467 102.278Z" fill="#F9F9F9"/>
</g>
<g style="mix-blend-mode:screen">
<path d="M80.4262 96.9623C80.4262 97.263 80.0852 97.5296 79.6703 97.5296C79.2554 97.5296 78.9144 97.2857 78.9144 96.9623C78.9144 96.6389 79.2497 96.3949 79.6703 96.3949C80.0909 96.3949 80.4262 96.6843 80.4262 96.9623Z" fill="#F9F9F9"/>
</g>
<g style="mix-blend-mode:screen">
<path d="M66.0529 92.395C66.0529 92.5709 65.8596 92.7127 65.6152 92.7127C65.3709 92.7127 65.1719 92.5709 65.1719 92.395C65.1719 92.2191 65.3709 92.0773 65.6152 92.0773C65.8596 92.0773 66.0529 92.2191 66.0529 92.395Z" fill="#F9F9F9"/>
</g>
<g style="mix-blend-mode:screen">
<path d="M66.5246 84.8377C66.5246 85.1157 66.2177 85.3427 65.8312 85.3427C65.4447 85.3427 65.1378 85.1157 65.1378 84.8377C65.1378 84.5597 65.4504 84.3384 65.8312 84.3384C66.212 84.3384 66.5246 84.5597 66.5246 84.8377Z" fill="#F9F9F9"/>
</g>
<g style="mix-blend-mode:screen">
<path d="M103.853 113.552C103.853 113.739 103.637 113.892 103.376 113.892C103.115 113.892 102.904 113.739 102.904 113.552C102.904 113.365 103.115 113.206 103.376 113.206C103.637 113.206 103.853 113.359 103.853 113.552Z" fill="#F9F9F9"/>
</g>
<g style="mix-blend-mode:screen">
<path d="M108.309 110.545C108.309 110.738 108.088 110.897 107.815 110.897C107.542 110.897 107.32 110.738 107.32 110.545C107.32 110.352 107.542 110.188 107.815 110.188C108.088 110.188 108.309 110.346 108.309 110.545Z" fill="#F9F9F9"/>
</g>
<g style="mix-blend-mode:screen">
<path d="M98.8406 119.044C98.8406 119.214 98.6531 119.35 98.42 119.35C98.187 119.35 98.0051 119.214 98.0051 119.044C98.0051 118.874 98.1927 118.743 98.42 118.743C98.6474 118.743 98.8406 118.88 98.8406 119.044Z" fill="#F9F9F9"/>
</g>
<g style="mix-blend-mode:screen">
<path d="M103.126 117.875C103.126 118.153 102.813 118.38 102.432 118.38C102.052 118.38 101.733 118.153 101.733 117.875C101.733 117.597 102.046 117.376 102.432 117.376C102.819 117.376 103.126 117.603 103.126 117.875Z" fill="#F9F9F9"/>
</g>
<g style="mix-blend-mode:screen">
<path d="M58.4086 121.427C58.4086 121.597 58.2211 121.733 57.9881 121.733C57.7551 121.733 57.5675 121.597 57.5675 121.427C57.5675 121.257 57.7551 121.126 57.9881 121.126C58.2211 121.126 58.4086 121.262 58.4086 121.427Z" fill="#F9F9F9"/>
</g>
<g style="mix-blend-mode:screen">
<path d="M66.445 121.365C66.445 121.643 66.1381 121.87 65.7516 121.87C65.3651 121.87 65.0582 121.643 65.0582 121.365C65.0582 121.087 65.3708 120.865 65.7516 120.865C66.1324 120.865 66.445 121.081 66.445 121.365Z" fill="#F9F9F9"/>
</g>
<g style="mix-blend-mode:screen">
<path d="M122.66 94.7553C122.66 94.9255 122.472 95.0616 122.245 95.0616C122.018 95.0616 121.824 94.9255 121.824 94.7553C121.824 94.5851 122.012 94.4546 122.245 94.4546C122.478 94.4546 122.66 94.5907 122.66 94.7553Z" fill="#F9F9F9"/>
</g>
<g style="mix-blend-mode:screen">
<path d="M117.943 107.629C118.429 107.629 118.824 107.344 118.824 106.993C118.824 106.642 118.429 106.358 117.943 106.358C117.456 106.358 117.062 106.642 117.062 106.993C117.062 107.344 117.456 107.629 117.943 107.629Z" fill="#F9F9F9"/>
</g>
<g style="mix-blend-mode:screen">
<path d="M124.984 111.033C124.984 111.141 124.854 111.237 124.7 111.237C124.547 111.237 124.416 111.141 124.416 111.033C124.416 110.925 124.541 110.823 124.7 110.823C124.859 110.823 124.984 110.919 124.984 111.033Z" fill="#F9F9F9"/>
</g>
<g style="mix-blend-mode:screen">
<path d="M126.473 101.144C126.473 101.32 126.275 101.461 126.03 101.461C125.786 101.461 125.593 101.32 125.593 101.144C125.593 100.968 125.791 100.826 126.03 100.826C126.269 100.826 126.473 100.968 126.473 101.144Z" fill="#F9F9F9"/>
</g>
<g style="mix-blend-mode:screen">
<path d="M126.945 93.5921C126.945 93.8645 126.633 94.0914 126.252 94.0914C125.871 94.0914 125.558 93.8645 125.558 93.5921C125.558 93.3198 125.871 93.0872 126.252 93.0872C126.633 93.0872 126.945 93.3141 126.945 93.5921Z" fill="#F9F9F9"/>
</g>
<g style="mix-blend-mode:screen">
<path d="M20.1137 105.87C20.1137 106.04 19.9261 106.176 19.6931 106.176C19.4601 106.176 19.2782 106.04 19.2782 105.87C19.2782 105.7 19.4657 105.569 19.6931 105.569C19.9204 105.569 20.1137 105.705 20.1137 105.87Z" fill="#F9F9F9"/>
</g>
<g style="mix-blend-mode:screen">
<path d="M13.7823 107.634C13.7823 107.986 13.3901 108.27 12.907 108.27C12.424 108.27 12.0261 107.986 12.0261 107.634C12.0261 107.283 12.4183 106.999 12.907 106.999C13.3958 106.999 13.7823 107.283 13.7823 107.634Z" fill="#F9F9F9"/>
</g>
<g style="mix-blend-mode:screen">
<path d="M19.9261 111.668C19.9261 111.782 19.7954 111.873 19.6419 111.873C19.4884 111.873 19.3577 111.782 19.3577 111.668C19.3577 111.555 19.4828 111.464 19.6419 111.464C19.801 111.464 19.9261 111.561 19.9261 111.668Z" fill="#F9F9F9"/>
</g>
<g style="mix-blend-mode:screen">
<path d="M23.9273 112.258C23.9273 112.434 23.7283 112.576 23.484 112.576C23.2396 112.576 23.0406 112.434 23.0406 112.258C23.0406 112.082 23.2396 111.941 23.484 111.941C23.7283 111.941 23.9273 112.082 23.9273 112.258Z" fill="#F9F9F9"/>
</g>
<g style="mix-blend-mode:screen">
<path d="M24.3876 104.701C24.3876 104.979 24.075 105.206 23.6942 105.206C23.3134 105.206 23.0009 104.979 23.0009 104.701C23.0009 104.423 23.3078 104.202 23.6942 104.202C24.0807 104.202 24.3876 104.429 24.3876 104.701Z" fill="#F9F9F9"/>
</g>
</g>
<g style="mix-blend-mode:screen">
<g style="mix-blend-mode:screen">
<path d="M97.5902 6.7119C97.5902 6.82538 97.4595 6.92183 97.3004 6.92183C97.1412 6.92183 97.0105 6.82538 97.0105 6.7119C97.0105 6.59843 97.1412 6.50198 97.3004 6.50198C97.4595 6.50198 97.5902 6.59843 97.5902 6.7119Z" fill="#F9F9F9"/>
</g>
<g style="mix-blend-mode:screen">
<path d="M97.2492 38.3991C97.5223 38.3991 97.7437 38.2391 97.7437 38.0417C97.7437 37.8443 97.5223 37.6842 97.2492 37.6842C96.9761 37.6842 96.7548 37.8443 96.7548 38.0417C96.7548 38.2391 96.9761 38.3991 97.2492 38.3991Z" fill="#F9F9F9"/>
</g>
<g style="mix-blend-mode:screen">
<path d="M99.9773 25.1285C99.9773 25.3611 99.7158 25.5483 99.4089 25.5483C99.102 25.5483 98.8406 25.3611 98.8406 25.1285C98.8406 24.8959 99.0963 24.7143 99.4089 24.7143C99.7215 24.7143 99.9773 24.9016 99.9773 25.1285Z" fill="#F9F9F9"/>
</g>
<g style="mix-blend-mode:screen">
<path d="M79.6761 31.0858C79.6761 31.3638 79.3635 31.5851 78.9884 31.5851C78.6133 31.5851 78.3007 31.3638 78.3007 31.0858C78.3007 30.8078 78.6076 30.5922 78.9884 30.5922C79.3692 30.5922 79.6761 30.8135 79.6761 31.0858Z" fill="#F9F9F9"/>
</g>
<g style="mix-blend-mode:screen">
<path d="M110.486 30.1724C110.486 30.4163 110.213 30.6092 109.883 30.6092C109.554 30.6092 109.315 30.4163 109.315 30.1724C109.315 29.9284 109.582 29.7411 109.883 29.7411C110.185 29.7411 110.486 29.9341 110.486 30.1724Z" fill="#F9F9F9"/>
</g>
<g style="mix-blend-mode:screen">
<path d="M72.2194 19.8066C72.2194 20.0109 71.992 20.1811 71.7022 20.1811C71.4123 20.1811 71.1907 20.0109 71.1907 19.8066C71.1907 19.6024 71.418 19.4322 71.7022 19.4322C71.9863 19.4322 72.2194 19.6024 72.2194 19.8066Z" fill="#F9F9F9"/>
</g>
<g style="mix-blend-mode:screen">
<path d="M112.447 40.9806C112.447 41.2473 112.146 41.4685 111.776 41.4685C111.407 41.4685 111.105 41.2473 111.105 40.9806C111.105 40.714 111.407 40.4984 111.776 40.4984C112.146 40.4984 112.447 40.714 112.447 40.9806Z" fill="#F9F9F9"/>
</g>
<g style="mix-blend-mode:screen">
<path d="M59.4828 22.4676C59.4828 22.6548 59.2839 22.7966 59.0282 22.7966C58.7724 22.7966 58.5735 22.6548 58.5735 22.4676C58.5735 22.2803 58.7781 22.1385 59.0282 22.1385C59.2782 22.1385 59.4828 22.286 59.4828 22.4676Z" fill="#F9F9F9"/>
</g>
<g style="mix-blend-mode:screen">
<path d="M120.193 46.3422C120.193 46.467 120.057 46.5635 119.886 46.5635C119.716 46.5635 119.585 46.467 119.585 46.3422C119.585 46.2174 119.722 46.1209 119.886 46.1209C120.051 46.1209 120.193 46.223 120.193 46.3422Z" fill="#F9F9F9"/>
</g>
<g style="mix-blend-mode:screen">
<path d="M88.1443 65.0027C88.1443 65.1389 87.9909 65.2524 87.8033 65.2524C87.6158 65.2524 87.468 65.1389 87.468 65.0027C87.468 64.8666 87.6158 64.7588 87.8033 64.7588C87.9909 64.7588 88.1443 64.8723 88.1443 65.0027Z" fill="#F9F9F9"/>
</g>
<g style="mix-blend-mode:screen">
<path d="M114.231 47.6074C114.633 47.6074 114.959 47.3737 114.959 47.0854C114.959 46.7972 114.633 46.5635 114.231 46.5635C113.83 46.5635 113.504 46.7972 113.504 47.0854C113.504 47.3737 113.83 47.6074 114.231 47.6074Z" fill="#F9F9F9"/>
</g>
<g style="mix-blend-mode:screen">
<path d="M92.6741 89.978C92.9503 89.978 93.1742 89.8155 93.1742 89.6149C93.1742 89.4144 92.9503 89.2518 92.6741 89.2518C92.3979 89.2518 92.174 89.4144 92.174 89.6149C92.174 89.8155 92.3979 89.978 92.6741 89.978Z" fill="#F9F9F9"/>
</g>
<g style="mix-blend-mode:screen">
<path d="M130.753 60.7475C130.753 60.9121 130.566 61.0482 130.332 61.0482C130.099 61.0482 129.912 60.9121 129.912 60.7475C129.912 60.583 130.099 60.4411 130.332 60.4411C130.566 60.4411 130.753 60.5773 130.753 60.7475Z" fill="#F9F9F9"/>
</g>
<g style="mix-blend-mode:screen">
<path d="M125.325 53.7406C125.325 53.9278 125.109 54.0867 124.848 54.0867C124.587 54.0867 124.365 53.9278 124.365 53.7406C124.365 53.5534 124.581 53.3945 124.848 53.3945C125.115 53.3945 125.325 53.5647 125.325 53.7406Z" fill="#F9F9F9"/>
</g>
<g style="mix-blend-mode:screen">
<path d="M121.79 85.2235C121.79 85.3937 121.603 85.5299 121.37 85.5299C121.137 85.5299 120.955 85.3937 120.955 85.2235C120.955 85.0533 121.137 84.9229 121.37 84.9229C121.603 84.9229 121.79 85.059 121.79 85.2235Z" fill="#F9F9F9"/>
</g>
<g style="mix-blend-mode:screen">
<path d="M134.533 44.4472C134.533 44.5607 134.408 44.6515 134.248 44.6515C134.089 44.6515 133.97 44.5607 133.97 44.4472C133.97 44.3337 134.095 44.243 134.248 44.243C134.402 44.243 134.533 44.3337 134.533 44.4472Z" fill="#F9F9F9"/>
</g>
<g style="mix-blend-mode:screen">
<path d="M99.9773 70.2792C99.9773 70.5232 99.7045 70.7218 99.3635 70.7218C99.0224 70.7218 98.7496 70.5232 98.7496 70.2792C98.7496 70.0352 99.0281 69.8367 99.3635 69.8367C99.6988 69.8367 99.9773 70.0182 99.9773 70.2792Z" fill="#F9F9F9"/>
</g>
<g style="mix-blend-mode:screen">
<path d="M64.5127 69.2296C64.5127 69.4849 64.2285 69.6892 63.8761 69.6892C63.5237 69.6892 63.2396 69.4849 63.2396 69.2296C63.2396 68.9743 63.5237 68.77 63.8761 68.77C64.2285 68.77 64.5127 68.9743 64.5127 69.2296Z" fill="#F9F9F9"/>
</g>
<g style="mix-blend-mode:screen">
<path d="M59.8125 45.7692C59.8125 45.9394 59.6193 46.0812 59.3806 46.0812C59.1419 46.0812 58.9486 45.9394 58.9486 45.7692C58.9486 45.599 59.1419 45.4571 59.3806 45.4571C59.6193 45.4571 59.8125 45.6216 59.8125 45.7692Z" fill="#F9F9F9"/>
</g>
<g style="mix-blend-mode:screen">
<path d="M84.5411 53.2186C84.5411 53.3718 84.3706 53.491 84.1603 53.491C83.95 53.491 83.7795 53.3718 83.7795 53.2186C83.7795 53.0654 83.95 52.9463 84.1603 52.9463C84.3706 52.9463 84.5411 53.0654 84.5411 53.2186Z" fill="#F9F9F9"/>
</g>
<g style="mix-blend-mode:screen">
<path d="M116.709 50.7279C117.001 50.7279 117.238 50.5577 117.238 50.3478C117.238 50.1378 117.001 49.9676 116.709 49.9676C116.417 49.9676 116.181 50.1378 116.181 50.3478C116.181 50.5577 116.417 50.7279 116.709 50.7279Z" fill="#F9F9F9"/>
</g>
<g style="mix-blend-mode:screen">
<path d="M91.8102 3.72758C92.0645 3.72758 92.2706 3.57771 92.2706 3.39283C92.2706 3.20796 92.0645 3.05809 91.8102 3.05809C91.556 3.05809 91.3499 3.20796 91.3499 3.39283C91.3499 3.57771 91.556 3.72758 91.8102 3.72758Z" fill="#F9F9F9"/>
</g>
<g style="mix-blend-mode:screen">
<path d="M87.218 105.796C87.6386 105.796 87.9796 105.55 87.9796 105.246C87.9796 104.942 87.6386 104.695 87.218 104.695C86.7974 104.695 86.4564 104.942 86.4564 105.246C86.4564 105.55 86.7974 105.796 87.218 105.796Z" fill="#F9F9F9"/>
</g>
<g style="mix-blend-mode:screen">
<path d="M131.06 94.1141C131.06 94.3865 130.753 94.6077 130.378 94.6077C130.003 94.6077 129.69 94.3865 129.69 94.1141C129.69 93.8418 129.997 93.6149 130.378 93.6149C130.759 93.6149 131.06 93.8475 131.06 94.1141Z" fill="#F9F9F9"/>
</g>
<g style="mix-blend-mode:screen">
<path d="M114.521 67.5445C114.521 67.7318 114.305 67.8849 114.044 67.8849C113.782 67.8849 113.572 67.7318 113.572 67.5445C113.572 67.3573 113.782 67.2041 114.044 67.2041C114.305 67.2041 114.521 67.3573 114.521 67.5445Z" fill="#F9F9F9"/>
</g>
<g style="mix-blend-mode:screen">
<path d="M118.977 64.5375C118.977 64.7361 118.755 64.8949 118.483 64.8949C118.21 64.8949 117.988 64.7361 117.988 64.5375C117.988 64.3389 118.21 64.1801 118.483 64.1801C118.755 64.1801 118.977 64.3446 118.977 64.5375Z" fill="#F9F9F9"/>
</g>
<g style="mix-blend-mode:screen">
<path d="M98.3234 31.2163C98.3234 31.3979 98.1188 31.5454 97.8687 31.5454C97.6187 31.5454 97.4141 31.3979 97.4141 31.2163C97.4141 31.0347 97.6187 30.8872 97.8687 30.8872C98.1188 30.8872 98.3234 31.0347 98.3234 31.2163Z" fill="#F9F9F9"/>
</g>
<g style="mix-blend-mode:screen">
<path d="M126.917 72.9799C126.917 73.3316 126.519 73.6153 126.036 73.6153C125.553 73.6153 125.155 73.3316 125.155 72.9799C125.155 72.6281 125.547 72.3444 126.036 72.3444C126.525 72.3444 126.917 72.6281 126.917 72.9799Z" fill="#F9F9F9"/>
</g>
<g style="mix-blend-mode:screen">
<path d="M106.985 19.7442C106.985 19.9315 106.775 20.0846 106.513 20.0846C106.252 20.0846 106.036 19.9315 106.036 19.7442C106.036 19.557 106.252 19.4038 106.513 19.4038C106.775 19.4038 106.985 19.557 106.985 19.7442Z" fill="#F9F9F9"/>
</g>
<g style="mix-blend-mode:screen">
<path d="M111.441 16.7372C111.441 16.9358 111.219 17.0946 110.946 17.0946C110.673 17.0946 110.458 16.9358 110.458 16.7372C110.458 16.5386 110.673 16.3798 110.946 16.3798C111.219 16.3798 111.441 16.5386 111.441 16.7372Z" fill="#F9F9F9"/>
</g>
<g style="mix-blend-mode:screen">
<path d="M119.381 25.1966C119.381 25.5483 118.988 25.832 118.5 25.832C118.011 25.832 117.596 25.5313 117.596 25.1966C117.596 24.8618 117.994 24.5611 118.477 24.5611C118.96 24.5611 119.381 24.8278 119.381 25.1966Z" fill="#F9F9F9"/>
</g>
<g style="mix-blend-mode:screen">
<path d="M115.84 18.1102C115.84 18.462 115.448 18.7457 114.959 18.7457C114.47 18.7457 114.078 18.462 114.078 18.1102C114.078 17.7584 114.47 17.4748 114.959 17.4748C115.448 17.4748 115.84 17.7584 115.84 18.1102Z" fill="#F9F9F9"/>
</g>
<g style="mix-blend-mode:screen">
<path d="M91.7079 0.300702C91.7079 0.47091 91.5204 0.607082 91.293 0.607082C91.0657 0.607082 90.8724 0.47091 90.8724 0.300702C90.8724 0.130493 91.06 0 91.293 0C91.526 0 91.7079 0.136166 91.7079 0.300702Z" fill="#F9F9F9"/>
</g>
<g style="mix-blend-mode:screen">
<path d="M75.0043 7.4438C75.2648 7.4438 75.476 7.29139 75.476 7.10338C75.476 6.91537 75.2648 6.76296 75.0043 6.76296C74.7437 6.76296 74.5325 6.91537 74.5325 7.10338C74.5325 7.29139 74.7437 7.4438 75.0043 7.4438Z" fill="#F9F9F9"/>
</g>
<g style="mix-blend-mode:screen">
<path d="M79.9318 4.09636C79.9318 4.28926 79.7102 4.4538 79.4374 4.4538C79.1646 4.4538 78.9486 4.28926 78.9486 4.09636C78.9486 3.90345 79.1703 3.73891 79.4374 3.73891C79.7045 3.73891 79.9318 3.89778 79.9318 4.09636Z" fill="#F9F9F9"/>
</g>
<g style="mix-blend-mode:screen">
<path d="M85.2458 9.57709C85.2458 9.92885 84.8536 10.2125 84.3649 10.2125C83.8761 10.2125 83.4839 9.92885 83.4839 9.57709C83.4839 9.22532 83.8818 8.94164 84.3649 8.94164C84.848 8.94164 85.2458 9.22532 85.2458 9.57709Z" fill="#F9F9F9"/>
</g>
<g style="mix-blend-mode:screen">
<path d="M104.314 89.4731C104.527 89.4731 104.7 89.3486 104.7 89.1951C104.7 89.0416 104.527 88.9171 104.314 88.9171C104.1 88.9171 103.927 89.0416 103.927 89.1951C103.927 89.3486 104.1 89.4731 104.314 89.4731Z" fill="#F9F9F9"/>
</g>
<g style="mix-blend-mode:screen">
<path d="M116.971 36.9296C116.971 37.0318 116.857 37.1169 116.709 37.1169C116.562 37.1169 116.454 37.0318 116.454 36.9296C116.454 36.8275 116.567 36.7424 116.709 36.7424C116.851 36.7424 116.971 36.8275 116.971 36.9296Z" fill="#F9F9F9"/>
</g>
<g style="mix-blend-mode:screen">
<path d="M50.4064 46.189C50.4064 46.4273 50.1393 46.6259 49.838 46.6259C49.5368 46.6259 49.2356 46.4273 49.2356 46.189C49.2356 45.9507 49.5084 45.7578 49.838 45.7578C50.1677 45.7578 50.4064 45.9507 50.4064 46.189Z" fill="#F9F9F9"/>
</g>
<g style="mix-blend-mode:screen">
<path d="M52.3728 56.9972C52.3728 57.2639 52.0716 57.4795 51.7022 57.4795C51.3328 57.4795 51.0316 57.2639 51.0316 56.9972C51.0316 56.7306 51.3271 56.5093 51.7022 56.5093C52.0773 56.5093 52.3728 56.7306 52.3728 56.9972Z" fill="#F9F9F9"/>
</g>
<g style="mix-blend-mode:screen">
<path d="M54.1575 63.6241C54.5592 63.6241 54.8849 63.3904 54.8849 63.1021C54.8849 62.8138 54.5592 62.5801 54.1575 62.5801C53.7557 62.5801 53.43 62.8138 53.43 63.1021C53.43 63.3904 53.7557 63.6241 54.1575 63.6241Z" fill="#F9F9F9"/>
</g>
<g style="mix-blend-mode:screen">
<path d="M56.8969 52.9463C56.8969 53.0484 56.7775 53.1335 56.6354 53.1335C56.4934 53.1335 56.3797 53.0484 56.3797 52.9463C56.3797 52.8442 56.4934 52.7591 56.6354 52.7591C56.7775 52.7591 56.8969 52.8442 56.8969 52.9463Z" fill="#F9F9F9"/>
</g>
<g style="mix-blend-mode:screen">
<path d="M86.1779 72.3671C86.4541 72.3671 86.678 72.2045 86.678 72.004C86.678 71.8034 86.4541 71.6409 86.1779 71.6409C85.9017 71.6409 85.6777 71.8034 85.6777 72.004C85.6777 72.2045 85.9017 72.3671 86.1779 72.3671Z" fill="#F9F9F9"/>
</g>
<g style="mix-blend-mode:screen">
<path d="M77.3686 68.1232C77.3686 68.4069 77.0503 68.6339 76.6582 68.6339C76.266 68.6339 75.9478 68.4069 75.9478 68.1232C75.9478 67.8396 76.266 67.6069 76.6582 67.6069C77.0503 67.6069 77.3686 67.8396 77.3686 68.1232Z" fill="#F9F9F9"/>
</g>
<g style="mix-blend-mode:screen">
<path d="M92.5206 54.3193C92.5206 54.5236 92.2933 54.6938 92.0091 54.6938C91.725 54.6938 91.4919 54.5236 91.4919 54.3193C91.4919 54.115 91.7193 53.9449 92.0091 53.9449C92.299 53.9449 92.5206 54.1321 92.5206 54.3193Z" fill="#F9F9F9"/>
</g>
<g style="mix-blend-mode:screen">
<path d="M85.6948 89.2064C85.6948 89.5242 85.3368 89.7738 84.8991 89.7738C84.4615 89.7738 84.1035 89.5128 84.1035 89.2064C84.1035 88.9001 84.4615 88.6391 84.8991 88.6391C85.3368 88.6391 85.6948 88.8944 85.6948 89.2064Z" fill="#F9F9F9"/>
</g>
<g style="mix-blend-mode:screen">
<path d="M77.7209 28.0447C78.0348 28.0447 78.2893 27.8593 78.2893 27.6306C78.2893 27.4018 78.0348 27.2164 77.7209 27.2164C77.407 27.2164 77.1526 27.4018 77.1526 27.6306C77.1526 27.8593 77.407 28.0447 77.7209 28.0447Z" fill="#F9F9F9"/>
</g>
<g style="mix-blend-mode:screen">
<path d="M83.1202 92.1057C83.1202 92.2759 82.9327 92.412 82.6996 92.412C82.4666 92.412 82.2791 92.2759 82.2791 92.1057C82.2791 91.9355 82.4666 91.805 82.6996 91.805C82.9327 91.805 83.1202 91.9411 83.1202 92.1057Z" fill="#F9F9F9"/>
</g>
<g style="mix-blend-mode:screen">
<path d="M75.1236 46.3762C75.1236 46.5464 74.9304 46.6883 74.6917 46.6883C74.453 46.6883 74.254 46.5464 74.254 46.3762C74.254 46.206 74.453 46.0642 74.6917 46.0642C74.9304 46.0642 75.1236 46.189 75.1236 46.3762Z" fill="#F9F9F9"/>
</g>
<g style="mix-blend-mode:screen">
<path d="M80.4092 13.004C80.4092 13.0834 80.3126 13.1571 80.1933 13.1571C80.0739 13.1571 79.983 13.0834 79.983 13.004C79.983 12.9245 80.0796 12.8508 80.1933 12.8508C80.3069 12.8508 80.4092 12.9188 80.4092 13.004Z" fill="#F9F9F9"/>
</g>
<g style="mix-blend-mode:screen">
<path d="M133.055 77.0195C133.055 77.133 132.93 77.2238 132.771 77.2238C132.612 77.2238 132.487 77.133 132.487 77.0195C132.487 76.906 132.617 76.8152 132.771 76.8152C132.924 76.8152 133.055 76.906 133.055 77.0195Z" fill="#F9F9F9"/>
</g>
<g style="mix-blend-mode:screen">
<path d="M134.567 67.1303C134.567 67.3062 134.368 67.4481 134.123 67.4481C133.879 67.4481 133.68 67.3062 133.68 67.1303C133.68 66.9545 133.879 66.8126 134.123 66.8126C134.368 66.8126 134.567 66.9545 134.567 67.1303Z" fill="#F9F9F9"/>
</g>
<g style="mix-blend-mode:screen">
<path d="M135.038 59.5788C135.038 59.8511 134.726 60.078 134.339 60.078C133.953 60.078 133.646 59.8511 133.646 59.5788C133.646 59.3064 133.959 59.0738 134.339 59.0738C134.72 59.0738 135.038 59.3007 135.038 59.5788Z" fill="#F9F9F9"/>
</g>
<g style="mix-blend-mode:screen">
<path d="M126.917 96.168C126.917 96.3325 126.729 96.4687 126.496 96.4687C126.263 96.4687 126.076 96.3325 126.076 96.168C126.076 96.0034 126.263 95.8616 126.496 95.8616C126.729 95.8616 126.917 95.9978 126.917 96.168Z" fill="#F9F9F9"/>
</g>
<g style="mix-blend-mode:screen">
<path d="M123.08 108.4C123.08 108.752 122.683 109.036 122.199 109.036C121.716 109.036 121.319 108.752 121.319 108.4C121.319 108.049 121.711 107.765 122.199 107.765C122.688 107.765 123.08 108.032 123.08 108.4Z" fill="#F9F9F9"/>
</g>
<g style="mix-blend-mode:screen">
<path d="M131.196 94.9822C131.196 95.2545 130.89 95.4815 130.503 95.4815C130.117 95.4815 129.81 95.2545 129.81 94.9822C129.81 94.7098 130.122 94.4772 130.503 94.4772C130.884 94.4772 131.196 94.7212 131.196 94.9822Z" fill="#F9F9F9"/>
</g>
<g style="mix-blend-mode:screen">
<path d="M67.3771 92.9056C67.3771 93.0702 67.1895 93.2063 66.9622 93.2063C66.7349 93.2063 66.5416 93.0702 66.5416 92.9056C66.5416 92.7411 66.7292 92.5993 66.9622 92.5993C67.1952 92.5993 67.3771 92.7127 67.3771 92.9056Z" fill="#F9F9F9"/>
</g>
<g style="mix-blend-mode:screen">
<path d="M61.0515 94.6645C61.0515 95.0162 60.6536 95.2999 60.1705 95.2999C59.6874 95.2999 59.2896 95.0162 59.2896 94.6645C59.2896 94.3127 59.6818 94.029 60.1705 94.029C60.6593 94.029 61.0515 94.3127 61.0515 94.6645Z" fill="#F9F9F9"/>
</g>
<g style="mix-blend-mode:screen">
<path d="M67.1896 98.7041C67.1896 98.8176 67.0645 98.9084 66.9054 98.9084C66.7463 98.9084 66.6212 98.8176 66.6212 98.7041C66.6212 98.5906 66.7519 98.4998 66.9054 98.4998C67.0588 98.4998 67.1896 98.5906 67.1896 98.7041Z" fill="#F9F9F9"/>
</g>
<g style="mix-blend-mode:screen">
<path d="M71.1907 99.2885C71.1907 99.4643 70.9918 99.6119 70.7474 99.6119C70.503 99.6119 70.3098 99.4643 70.3098 99.2885C70.3098 99.1126 70.503 98.9707 70.7474 98.9707C70.9918 98.9707 71.1907 99.1126 71.1907 99.2885Z" fill="#F9F9F9"/>
</g>
<g style="mix-blend-mode:screen">
<path d="M71.6624 91.7369C71.6624 92.0149 71.3498 92.2362 70.969 92.2362C70.5882 92.2362 70.2756 92.0149 70.2756 91.7369C70.2756 91.4589 70.5825 91.2319 70.969 91.2319C71.3555 91.2319 71.6624 91.4589 71.6624 91.7369Z" fill="#F9F9F9"/>
</g>
</g>
<g style="mix-blend-mode:screen">
<path d="M21.2844 43.7834L15.5101 42.5352L13.0889 47.4258L12.782 41.9338L7.27478 42.0019L12.5376 39.7324L10.9974 34.1269L15.2543 39.1423L19.6533 35.2275L16.6695 40.521L21.2844 43.7834Z" fill="#FFCD49"/>
</g>
<g style="mix-blend-mode:screen">
<path d="M21.2844 43.7834L15.5101 42.5352L13.0889 47.4258L12.782 41.9338L7.27478 42.0019L12.5376 39.7324L10.9974 34.1269L15.2543 39.1423L19.6533 35.2275L16.6695 40.521L21.2844 43.7834Z" fill="#FFCD49"/>
</g>
<path d="M72.8163 14.7514C72.8163 18.2346 69.9875 21.0598 66.4961 21.0598C63.0048 21.0598 60.176 18.2346 60.176 14.7514C60.176 11.2682 63.0048 8.44308 66.4961 8.44308C69.9875 8.44308 72.8163 11.2682 72.8163 14.7514Z" fill="#C4C4C4" fill-opacity="0.43" stroke="black"/>
<path d="M67.8849 13.2428V21.7799H66.0509V15.3287L64.0704 15.9322V14.5143L67.7032 13.2428H67.8849Z" fill="black"/>
</g>
<defs>
<linearGradient id="paint0_linear_9_2362" x1="66.8144" y1="118.006" x2="74.3078" y2="-5.4596" gradientUnits="userSpaceOnUse">
<stop stop-color="#4FABC0"/>
<stop offset="0.14" stop-color="#50A6BA"/>
<stop offset="0.32" stop-color="#5499A9"/>
<stop offset="0.53" stop-color="#5B848D"/>
<stop offset="0.76" stop-color="#646667"/>
<stop offset="1" stop-color="#6F4036"/>
</linearGradient>
</defs>
</svg>
