<svg width="151" height="100" viewBox="0 0 151 100" fill="none" xmlns="http://www.w3.org/2000/svg">
<g style="mix-blend-mode:luminosity">
<path d="M141.673 24.8068C141.673 24.8068 146.667 36.3503 146.315 37.6837C145.962 39.0171 139.612 43.3167 139.612 43.3167L141.667 49.9401C141.667 49.9401 149.53 39.9695 149.086 38.3041C148.641 36.6387 143.001 23.5278 143.001 23.5278L141.673 24.8068Z" fill="#780C0A"/>
<path d="M144.781 25.2026C146.193 23.4336 145.908 20.8511 144.146 19.4343C142.383 18.0176 139.81 18.3032 138.398 20.0722C136.987 21.8411 137.271 24.4237 139.034 25.8404C140.796 27.2571 143.369 26.9715 144.781 25.2026Z" fill="#CA1C18"/>
<g style="mix-blend-mode:screen">
<path d="M144.514 21.5522C144.567 22.017 144.481 22.4871 144.268 22.903C144.054 23.3189 143.723 23.6621 143.315 23.8891C142.908 24.1161 142.442 24.2168 141.978 24.1786C141.513 24.1403 141.07 23.9647 140.705 23.6741C140.34 23.3834 140.068 22.9906 139.925 22.5453C139.782 22.1001 139.774 21.6222 139.901 21.1722C140.029 20.7222 140.286 20.3201 140.641 20.0167C140.996 19.7134 141.432 19.5223 141.895 19.4677C142.518 19.3957 143.144 19.5749 143.635 19.9658C144.126 20.3566 144.442 20.9273 144.514 21.5522Z" fill="#CA1C18"/>
</g>
<path d="M78.4923 11.3857L75 88.8484L105.644 100L151 89.4089L147.524 59.176L131.868 24.3115L143.419 0L99.7549 1.85044L78.4923 11.3857Z" fill="#CA1C18"/>
<path d="M90.2434 27.7294L99.7766 1.85044H99.7549L78.4923 11.3857L75 88.8484L105.633 99.9945L103.583 67.3887L90.2434 27.7294Z" fill="#9C0100"/>
<path d="M104.505 7.55415L98.2148 23.8435L127.27 22.2543L134.298 6.53641L104.505 7.55415Z" fill="#9C0100"/>
<path d="M98.4697 32.9106L107.753 60.8468L140.518 55.9051L129.163 30.1676L98.4697 32.9106Z" fill="#641508"/>
<path d="M109.228 62.5993C109.248 62.7732 109.216 62.9489 109.136 63.1046C109.057 63.2602 108.933 63.3891 108.782 63.4751C108.63 63.561 108.456 63.6004 108.282 63.5881C108.109 63.5759 107.942 63.5127 107.804 63.4063C107.665 63.3 107.561 63.1552 107.504 62.9899C107.447 62.8246 107.44 62.6461 107.483 62.4767C107.526 62.3072 107.618 62.1542 107.747 62.0367C107.876 61.9191 108.037 61.8423 108.209 61.8156C108.448 61.7847 108.689 61.8497 108.88 61.9965C109.071 62.1434 109.196 62.3601 109.228 62.5993Z" fill="#FFCD49"/>
<path d="M105.937 62.9803C105.957 63.1542 105.926 63.3303 105.847 63.4866C105.769 63.6429 105.646 63.7725 105.494 63.8593C105.343 63.9461 105.169 63.9862 104.995 63.9747C104.821 63.9632 104.654 63.9005 104.515 63.7945C104.376 63.6884 104.272 63.5438 104.214 63.3784C104.156 63.2131 104.149 63.0345 104.192 62.8647C104.234 62.695 104.326 62.5416 104.455 62.4238C104.584 62.3059 104.745 62.2288 104.917 62.202C105.155 62.171 105.396 62.2353 105.586 62.381C105.777 62.5267 105.903 62.742 105.937 62.9803Z" fill="#FFCD49"/>
<path d="M112.759 62.0551C112.776 62.1712 112.771 62.2897 112.742 62.4037C112.714 62.5177 112.664 62.625 112.595 62.7195C112.525 62.814 112.438 62.8938 112.337 62.9545C112.237 63.0151 112.126 63.0553 112.01 63.0728C111.895 63.0903 111.777 63.0848 111.663 63.0565C111.549 63.0282 111.442 62.9778 111.348 62.9081C111.254 62.8383 111.175 62.7506 111.114 62.65C111.054 62.5494 111.014 62.4379 110.996 62.3217C110.979 62.2056 110.984 62.0871 111.013 61.9731C111.041 61.8591 111.091 61.7518 111.16 61.6573C111.23 61.5628 111.317 61.483 111.418 61.4224C111.518 61.3617 111.629 61.3215 111.745 61.304C111.86 61.2865 111.978 61.292 112.092 61.3203C112.206 61.3486 112.312 61.399 112.407 61.4687C112.501 61.5385 112.58 61.6262 112.641 61.7268C112.701 61.8274 112.741 61.9389 112.759 62.0551Z" fill="#FFCD49"/>
<path d="M116.283 61.538C116.301 61.6542 116.295 61.7726 116.267 61.8866C116.239 62.0006 116.189 62.1079 116.119 62.2025C116.05 62.297 115.962 62.3768 115.862 62.4374C115.762 62.498 115.651 62.5383 115.535 62.5558C115.419 62.5733 115.301 62.5678 115.188 62.5395C115.074 62.5112 114.967 62.4608 114.873 62.391C114.779 62.3213 114.699 62.2336 114.639 62.133C114.579 62.0324 114.539 61.9209 114.521 61.8047C114.504 61.6886 114.509 61.5701 114.537 61.4561C114.565 61.3421 114.616 61.2348 114.685 61.1403C114.755 61.0458 114.842 60.9659 114.942 60.9053C115.043 60.8447 115.154 60.8045 115.269 60.787C115.385 60.7695 115.503 60.775 115.617 60.8033C115.73 60.8315 115.837 60.882 115.931 60.9517C116.026 61.0215 116.105 61.1091 116.166 61.2097C116.226 61.3103 116.266 61.4219 116.283 61.538Z" fill="#FFCD49"/>
<path d="M119.814 61.0047C119.833 61.1785 119.801 61.3542 119.721 61.5099C119.642 61.6656 119.519 61.7944 119.367 61.8804C119.215 61.9664 119.042 62.0057 118.868 61.9935C118.694 61.9813 118.527 61.918 118.389 61.8117C118.251 61.7053 118.146 61.5605 118.089 61.3952C118.032 61.2299 118.025 61.0515 118.068 60.882C118.111 60.7125 118.203 60.5595 118.332 60.442C118.461 60.3245 118.622 60.2476 118.794 60.221C119.033 60.19 119.274 60.2551 119.465 60.4019C119.656 60.5487 119.781 60.7654 119.814 61.0047Z" fill="#FFCD49"/>
<path d="M123.339 60.4713C123.359 60.6455 123.328 60.8219 123.249 60.9784C123.17 61.135 123.047 61.2647 122.895 61.3515C122.744 61.4383 122.57 61.4783 122.395 61.4664C122.221 61.4546 122.054 61.3915 121.915 61.2849C121.776 61.1784 121.672 61.0332 121.615 60.8674C121.558 60.7016 121.551 60.5227 121.594 60.3528C121.638 60.183 121.73 60.0299 121.86 59.9125C121.99 59.7952 122.152 59.7189 122.324 59.693C122.562 59.6621 122.801 59.7266 122.991 59.8724C123.181 60.0182 123.306 60.2335 123.339 60.4713Z" fill="#FFCD49"/>
<path d="M126.869 59.9434C126.888 60.1172 126.856 60.2929 126.776 60.4486C126.697 60.6043 126.574 60.7331 126.422 60.8191C126.27 60.9051 126.097 60.9444 125.923 60.9322C125.749 60.92 125.582 60.8567 125.444 60.7504C125.306 60.644 125.201 60.4992 125.144 60.3339C125.087 60.1687 125.08 59.9902 125.123 59.8207C125.166 59.6513 125.258 59.4983 125.387 59.3807C125.516 59.2632 125.677 59.1863 125.849 59.1597C125.967 59.1436 126.088 59.1512 126.203 59.1819C126.318 59.2127 126.427 59.266 126.521 59.3388C126.616 59.4117 126.696 59.5026 126.755 59.6063C126.815 59.7101 126.853 59.8246 126.869 59.9434Z" fill="#FFCD49"/>
<path d="M130.399 59.41C130.419 59.5853 130.388 59.7627 130.309 59.9202C130.229 60.0776 130.105 60.2081 129.952 60.2953C129.8 60.3825 129.625 60.4226 129.449 60.4106C129.274 60.3985 129.106 60.3349 128.966 60.2276C128.827 60.1203 128.722 59.9741 128.664 59.8072C128.607 59.6404 128.6 59.4603 128.644 59.2895C128.688 59.1187 128.781 58.9647 128.912 58.8467C129.043 58.7288 129.205 58.6521 129.379 58.6263C129.618 58.5968 129.858 58.6624 130.049 58.809C130.239 58.9556 130.365 59.1714 130.399 59.41Z" fill="#FFCD49"/>
<path d="M133.924 58.8767C133.944 59.0506 133.913 59.2267 133.834 59.383C133.756 59.5393 133.633 59.6689 133.481 59.7557C133.33 59.8425 133.156 59.8826 132.982 59.871C132.808 59.8595 132.641 59.7969 132.502 59.6908C132.363 59.5848 132.258 59.4401 132.201 59.2748C132.143 59.1095 132.136 58.9308 132.178 58.7611C132.221 58.5913 132.313 58.438 132.442 58.3202C132.571 58.2023 132.732 58.1252 132.904 58.0984C133.022 58.0823 133.142 58.0896 133.257 58.12C133.372 58.1505 133.48 58.2033 133.575 58.2756C133.669 58.3478 133.749 58.4381 133.809 58.5413C133.869 58.6444 133.908 58.7584 133.924 58.8767Z" fill="#FFCD49"/>
<path d="M137.454 58.3488C137.474 58.524 137.443 58.7015 137.364 58.8589C137.284 59.0163 137.16 59.1468 137.008 59.234C136.855 59.3213 136.68 59.3613 136.504 59.3493C136.329 59.3372 136.161 59.2736 136.021 59.1663C135.882 59.059 135.777 58.9128 135.719 58.746C135.662 58.5791 135.655 58.3991 135.699 58.2282C135.743 58.0574 135.836 57.9034 135.967 57.7854C136.098 57.6675 136.261 57.5908 136.434 57.565C136.553 57.549 136.673 57.5565 136.788 57.5873C136.904 57.618 137.012 57.6714 137.107 57.7442C137.201 57.817 137.281 57.9079 137.34 58.0117C137.4 58.1154 137.439 58.23 137.454 58.3488Z" fill="#FFCD49"/>
<path d="M140.979 57.8154C140.998 57.9892 140.966 58.1649 140.886 58.3206C140.807 58.4763 140.684 58.6051 140.532 58.6911C140.38 58.7771 140.207 58.8164 140.033 58.8042C139.859 58.792 139.692 58.7288 139.554 58.6224C139.416 58.516 139.312 58.3712 139.254 58.2059C139.197 58.0407 139.19 57.8622 139.233 57.6927C139.276 57.5233 139.368 57.3703 139.497 57.2527C139.626 57.1352 139.787 57.0583 139.959 57.0317C140.198 57.0007 140.439 57.0658 140.63 57.2126C140.821 57.3594 140.946 57.5761 140.979 57.8154Z" fill="#FFCD49"/>
<path d="M144.574 57.4018C144.593 57.5756 144.561 57.7513 144.482 57.907C144.402 58.0627 144.279 58.1915 144.127 58.2775C143.975 58.3635 143.802 58.4028 143.628 58.3906C143.454 58.3783 143.288 58.3151 143.149 58.2088C143.011 58.1024 142.907 57.9576 142.85 57.7923C142.793 57.627 142.785 57.4486 142.829 57.2791C142.872 57.1096 142.963 56.9566 143.093 56.8391C143.222 56.7216 143.382 56.6447 143.555 56.6181C143.673 56.602 143.793 56.6096 143.908 56.6403C144.024 56.671 144.132 56.7244 144.227 56.7972C144.321 56.87 144.401 56.9609 144.46 57.0647C144.52 57.1684 144.559 57.283 144.574 57.4018Z" fill="#FFCD49"/>
<path d="M141.966 52.8627C142.133 52.7868 142.319 52.7626 142.5 52.793C142.682 52.8234 142.85 52.9072 142.983 53.0336C143.117 53.1601 143.21 53.3236 143.251 53.5033C143.292 53.683 143.279 53.8709 143.214 54.0432C143.148 54.2154 143.033 54.3642 142.883 54.4707C142.733 54.5772 142.555 54.6365 142.371 54.6413C142.188 54.646 142.007 54.5959 141.851 54.4972C141.696 54.3986 141.574 54.2559 141.499 54.0873C141.45 53.9762 141.422 53.8563 141.419 53.7346C141.415 53.6128 141.436 53.4916 141.479 53.3778C141.522 53.264 141.588 53.16 141.671 53.0716C141.755 52.9832 141.855 52.9122 141.966 52.8627Z" fill="#FFCD49"/>
<path d="M140.447 49.4666C140.615 49.3907 140.801 49.3665 140.982 49.3969C141.163 49.4273 141.331 49.5111 141.465 49.6375C141.599 49.764 141.692 49.9275 141.733 50.1072C141.774 50.2869 141.761 50.4748 141.695 50.6471C141.63 50.8193 141.515 50.9681 141.365 51.0746C141.215 51.1811 141.036 51.2404 140.853 51.2452C140.669 51.2499 140.488 51.1997 140.333 51.1011C140.178 51.0025 140.055 50.8598 139.981 50.6912C139.882 50.4666 139.875 50.2119 139.963 49.9825C140.05 49.7531 140.224 49.5677 140.447 49.4666Z" fill="#FFCD49"/>
<path d="M138.945 46.0705C139.113 45.9946 139.299 45.9704 139.48 46.0008C139.661 46.0312 139.829 46.115 139.963 46.2414C140.097 46.3679 140.19 46.5314 140.231 46.7111C140.272 46.8908 140.259 47.0787 140.193 47.251C140.127 47.4232 140.012 47.572 139.862 47.6785C139.712 47.7849 139.534 47.8443 139.351 47.849C139.167 47.8538 138.986 47.8037 138.831 47.705C138.676 47.6064 138.553 47.4637 138.479 47.2951C138.38 47.0705 138.373 46.8158 138.461 46.5864C138.548 46.357 138.722 46.1716 138.945 46.0705Z" fill="#FFCD49"/>
<path d="M137.449 42.6744C137.616 42.5995 137.802 42.5762 137.983 42.6075C138.164 42.6388 138.332 42.7233 138.465 42.8503C138.598 42.9773 138.69 43.1411 138.73 43.3209C138.771 43.5007 138.757 43.6884 138.691 43.8603C138.624 44.0321 138.509 44.1804 138.359 44.2863C138.208 44.3922 138.03 44.4509 137.847 44.4551C137.663 44.4592 137.482 44.4086 137.328 44.3096C137.173 44.2106 137.051 44.0677 136.977 43.899C136.927 43.7876 136.9 43.6674 136.897 43.5454C136.894 43.4234 136.915 43.302 136.959 43.1882C137.003 43.0744 137.068 42.9704 137.152 42.8822C137.237 42.794 137.337 42.7234 137.449 42.6744Z" fill="#FFCD49"/>
<path d="M135.946 39.2783C136.114 39.2024 136.3 39.1782 136.481 39.2086C136.662 39.239 136.83 39.3228 136.964 39.4492C137.098 39.5757 137.191 39.7391 137.232 39.9189C137.273 40.0986 137.26 40.2865 137.194 40.4588C137.129 40.631 137.014 40.7798 136.864 40.8863C136.714 40.9928 136.536 41.0521 136.352 41.0568C136.168 41.0616 135.987 41.0114 135.832 40.9128C135.677 40.8142 135.554 40.6715 135.48 40.5029C135.381 40.2783 135.375 40.0236 135.462 39.7942C135.549 39.5648 135.723 39.3794 135.946 39.2783Z" fill="#FFCD49"/>
<path d="M135.198 37.5808C135.663 37.3726 135.871 36.8233 135.663 36.3539C135.454 35.8845 134.908 35.6727 134.443 35.8809C133.978 36.0891 133.77 36.6383 133.979 37.1077C134.187 37.5772 134.733 37.7889 135.198 37.5808Z" fill="#FFCD49"/>
<path d="M133.698 34.1773C134.163 33.9691 134.371 33.4199 134.162 32.9505C133.954 32.4811 133.408 32.2693 132.943 32.4774C132.478 32.6856 132.27 33.2349 132.478 33.7043C132.687 34.1737 133.233 34.3855 133.698 34.1773Z" fill="#FFCD49"/>
<path d="M131.446 29.0846C131.613 29.0087 131.799 28.9844 131.98 29.0148C132.161 29.0453 132.33 29.129 132.463 29.2555C132.597 29.3819 132.69 29.5454 132.731 29.7252C132.772 29.9049 132.759 30.0928 132.693 30.265C132.628 30.4372 132.513 30.586 132.363 30.6925C132.213 30.799 132.035 30.8584 131.851 30.8631C131.667 30.8678 131.486 30.8177 131.331 30.7191C131.176 30.6204 131.053 30.4778 130.979 30.3091C130.929 30.198 130.902 30.0782 130.899 29.9564C130.895 29.8347 130.916 29.7134 130.959 29.5997C131.002 29.4859 131.068 29.3818 131.151 29.2934C131.235 29.205 131.335 29.1341 131.446 29.0846Z" fill="#FFCD49"/>
<path d="M126.115 27.1688C126.1 26.9879 126.138 26.8064 126.225 26.6473C126.313 26.4883 126.445 26.3587 126.606 26.275C126.766 26.1912 126.948 26.1571 127.128 26.1768C127.308 26.1965 127.478 26.2692 127.616 26.3858C127.755 26.5023 127.856 26.6575 127.907 26.8318C127.958 27.006 127.957 27.1915 127.903 27.3649C127.849 27.5382 127.745 27.6918 127.605 27.806C127.464 27.9203 127.293 27.9902 127.113 28.007C126.87 28.0281 126.628 27.9518 126.441 27.7947C126.254 27.6376 126.137 27.4126 126.115 27.1688Z" fill="#FFCD49"/>
<path d="M129.602 26.7606C129.587 26.5788 129.627 26.3968 129.715 26.2376C129.804 26.0784 129.938 25.9493 130.1 25.8666C130.262 25.784 130.445 25.7516 130.625 25.7735C130.806 25.7954 130.976 25.8706 131.113 25.9896C131.251 26.1086 131.35 26.2661 131.399 26.4419C131.447 26.6177 131.442 26.804 131.385 26.977C131.327 27.1501 131.22 27.3021 131.076 27.4138C130.933 27.5255 130.759 27.5918 130.578 27.6042C130.338 27.6193 130.101 27.5395 129.919 27.3819C129.736 27.2243 129.623 27.0013 129.602 26.7606Z" fill="#FFCD49"/>
<path d="M122.444 27.4954C122.428 27.3144 122.467 27.133 122.554 26.9739C122.642 26.8148 122.774 26.6852 122.934 26.6015C123.095 26.5178 123.277 26.4836 123.456 26.5033C123.636 26.523 123.806 26.5958 123.945 26.7123C124.084 26.8289 124.185 26.9841 124.236 27.1583C124.287 27.3325 124.286 27.518 124.232 27.6914C124.178 27.8648 124.074 28.0183 123.934 28.1325C123.793 28.2468 123.622 28.3167 123.442 28.3335C123.199 28.3547 122.957 28.2784 122.77 28.1213C122.583 27.9642 122.466 27.7391 122.444 27.4954Z" fill="#FFCD49"/>
<path d="M118.805 27.8219C118.79 27.641 118.828 27.4595 118.915 27.3004C119.003 27.1414 119.135 27.0118 119.296 26.928C119.456 26.8443 119.638 26.8102 119.818 26.8299C119.998 26.8496 120.168 26.9223 120.306 27.0389C120.445 27.1554 120.546 27.3106 120.597 27.4849C120.649 27.6591 120.647 27.8446 120.593 28.018C120.539 28.1913 120.435 28.3448 120.295 28.4591C120.154 28.5734 119.983 28.6433 119.803 28.6601C119.56 28.6812 119.318 28.6049 119.131 28.4478C118.944 28.2907 118.827 28.0657 118.805 27.8219Z" fill="#FFCD49"/>
<path d="M115.15 28.1485C115.135 27.9675 115.173 27.7861 115.261 27.627C115.348 27.4679 115.48 27.3383 115.641 27.2546C115.801 27.1709 115.983 27.1367 116.163 27.1564C116.343 27.1761 116.513 27.2489 116.652 27.3654C116.79 27.482 116.892 27.6372 116.943 27.8114C116.994 27.9856 116.992 28.1711 116.938 28.3445C116.884 28.5179 116.781 28.6714 116.64 28.7857C116.499 28.8999 116.328 28.9698 116.148 28.9866C115.905 29.0078 115.664 28.9314 115.477 28.7744C115.29 28.6173 115.172 28.3922 115.15 28.1485Z" fill="#FFCD49"/>
<path d="M111.495 28.475C111.48 28.2941 111.518 28.1126 111.606 27.9535C111.693 27.7945 111.825 27.6649 111.986 27.5812C112.146 27.4974 112.328 27.4633 112.508 27.483C112.688 27.5027 112.858 27.5754 112.997 27.692C113.135 27.8085 113.237 27.9637 113.288 28.138C113.339 28.3122 113.337 28.4977 113.283 28.6711C113.229 28.8445 113.126 28.9979 112.985 29.1122C112.844 29.2265 112.673 29.2964 112.493 29.3132C112.25 29.3343 112.009 29.258 111.822 29.1009C111.635 28.9438 111.517 28.7188 111.495 28.475Z" fill="#FFCD49"/>
<path d="M107.84 28.8016C107.825 28.6206 107.863 28.4392 107.951 28.2801C108.038 28.121 108.17 27.9915 108.331 27.9077C108.491 27.824 108.673 27.7898 108.853 27.8095C109.033 27.8293 109.203 27.902 109.342 28.0185C109.48 28.1351 109.582 28.2903 109.633 28.4645C109.684 28.6387 109.682 28.8242 109.628 28.9976C109.574 29.171 109.471 29.3245 109.33 29.4388C109.189 29.553 109.018 29.623 108.838 29.6397C108.595 29.6609 108.354 29.5846 108.167 29.4275C107.98 29.2704 107.862 29.0453 107.84 28.8016Z" fill="#FFCD49"/>
<path d="M104.185 29.1281C104.17 28.9471 104.208 28.7657 104.296 28.6066C104.383 28.4476 104.515 28.318 104.676 28.2342C104.836 28.1505 105.018 28.1163 105.198 28.1361C105.378 28.1558 105.548 28.2285 105.687 28.3451C105.825 28.4616 105.927 28.6168 105.978 28.791C106.029 28.9653 106.027 29.1508 105.973 29.3241C105.92 29.4975 105.816 29.651 105.675 29.7653C105.534 29.8795 105.363 29.9495 105.183 29.9663C104.94 29.9874 104.699 29.9111 104.512 29.754C104.325 29.5969 104.207 29.3719 104.185 29.1281Z" fill="#FFCD49"/>
<path d="M100.53 29.4547C100.515 29.2737 100.553 29.0923 100.641 28.9332C100.728 28.7741 100.86 28.6445 101.021 28.5608C101.182 28.4771 101.363 28.4429 101.543 28.4626C101.723 28.4823 101.893 28.5551 102.032 28.6716C102.17 28.7882 102.272 28.9434 102.323 29.1176C102.374 29.2918 102.372 29.4773 102.318 29.6507C102.265 29.8241 102.161 29.9776 102.02 30.0918C101.88 30.2061 101.708 30.276 101.528 30.2928C101.408 30.304 101.286 30.2912 101.171 30.2551C101.055 30.2189 100.948 30.1602 100.855 30.0823C100.763 30.0044 100.686 29.9088 100.63 29.8011C100.575 29.6934 100.541 29.5756 100.53 29.4547Z" fill="#FFCD49"/>
<path d="M96.8754 29.7812C96.8601 29.6003 96.8986 29.4188 96.9859 29.2597C97.0732 29.1007 97.2054 28.9711 97.366 28.8873C97.5265 28.8036 97.7082 28.7694 97.8881 28.7892C98.068 28.8089 98.238 28.8816 98.3768 28.9982C98.5156 29.1147 98.6168 29.2699 98.6679 29.4441C98.7189 29.6184 98.7174 29.8039 98.6635 29.9772C98.6097 30.1506 98.5059 30.3041 98.3652 30.4184C98.2246 30.5327 98.0534 30.6026 97.8732 30.6193C97.7528 30.6305 97.6313 30.6177 97.5158 30.5816C97.4003 30.5455 97.2932 30.4867 97.2004 30.4088C97.1076 30.3309 97.0312 30.2353 96.9754 30.1276C96.9196 30.0199 96.8856 29.9022 96.8754 29.7812Z" fill="#FFCD49"/>
<path d="M93.1283 30.2166C93.113 30.0356 93.1514 29.8542 93.2387 29.6951C93.326 29.5361 93.4583 29.4065 93.6189 29.3227C93.7794 29.239 93.9611 29.2048 94.141 29.2246C94.3209 29.2443 94.4909 29.317 94.6296 29.4336C94.7684 29.5501 94.8697 29.7053 94.9207 29.8795C94.9717 30.0538 94.9702 30.2393 94.9164 30.4126C94.8625 30.586 94.7587 30.7395 94.6181 30.8538C94.4774 30.968 94.3063 31.038 94.1261 31.0547C93.8831 31.0759 93.6417 30.9996 93.4547 30.8425C93.2677 30.6854 93.1503 30.4604 93.1283 30.2166Z" fill="#FFCD49"/>
<path d="M95.4818 34.8427C95.3009 34.9134 95.103 34.928 94.9137 34.8847C94.7244 34.8414 94.5525 34.7421 94.42 34.5997C94.2875 34.4573 94.2006 34.2782 94.1706 34.0858C94.1405 33.8933 94.1686 33.6962 94.2513 33.5199C94.334 33.3436 94.4675 33.1963 94.6345 33.0969C94.8015 32.9976 94.9943 32.9507 95.1881 32.9625C95.3819 32.9742 95.5677 33.044 95.7215 33.1628C95.8754 33.2817 95.9902 33.444 96.0511 33.629C96.1349 33.8658 96.1221 34.1262 96.0155 34.3536C95.9088 34.5809 95.717 34.7567 95.4818 34.8427Z" fill="#FFCD49"/>
<path d="M96.7127 38.5382C96.5333 38.6135 96.3354 38.6329 96.1448 38.594C95.9542 38.5551 95.7797 38.4596 95.6438 38.3199C95.5079 38.1803 95.417 38.0028 95.3827 37.8107C95.3485 37.6185 95.3726 37.4205 95.4519 37.2422C95.5312 37.064 95.662 36.9137 95.8274 36.811C95.9928 36.7082 96.1851 36.6577 96.3795 36.666C96.5738 36.6743 96.7612 36.741 96.9173 36.8574C97.0734 36.9738 97.191 37.1347 97.255 37.319C97.3419 37.553 97.3338 37.8119 97.2323 38.0399C97.1309 38.2679 96.9443 38.4469 96.7127 38.5382Z" fill="#FFCD49"/>
<path d="M97.9383 42.2227C97.7574 42.2934 97.5595 42.308 97.3703 42.2647C97.181 42.2214 97.009 42.1221 96.8765 41.9797C96.7441 41.8373 96.6572 41.6583 96.6271 41.4658C96.5971 41.2733 96.6252 41.0762 96.7079 40.8999C96.7906 40.7236 96.9241 40.5763 97.0911 40.4769C97.258 40.3776 97.4509 40.3307 97.6447 40.3425C97.8384 40.3542 98.0242 40.424 98.1781 40.5428C98.3319 40.6617 98.4467 40.824 98.5077 41.009C98.5499 41.1262 98.5687 41.2507 98.5629 41.3751C98.5571 41.4996 98.5269 41.6217 98.474 41.7345C98.4211 41.8473 98.3466 41.9484 98.2546 42.0322C98.1627 42.116 98.0552 42.1807 97.9383 42.2227Z" fill="#FFCD49"/>
<path d="M99.1638 45.9127C98.9843 45.9884 98.7861 46.0082 98.5952 45.9694C98.4043 45.9306 98.2294 45.8351 98.0933 45.6952C97.9572 45.5554 97.8662 45.3776 97.8321 45.1852C97.798 44.9927 97.8224 44.7943 97.9021 44.616C97.9818 44.4376 98.1131 44.2874 98.279 44.1849C98.4449 44.0824 98.6377 44.0324 98.8323 44.0414C99.0268 44.0504 99.2142 44.1179 99.3701 44.2352C99.5259 44.3524 99.643 44.5141 99.7061 44.699C99.7943 44.9322 99.7867 45.1909 99.685 45.4184C99.5834 45.6459 99.3959 45.8237 99.1638 45.9127Z" fill="#FFCD49"/>
<path d="M100.395 49.6027C100.215 49.678 100.017 49.6975 99.8269 49.6585C99.6363 49.6196 99.4617 49.5241 99.3259 49.3845C99.19 49.2448 99.099 49.0674 99.0648 48.8752C99.0306 48.6831 99.0547 48.485 99.134 48.3068C99.2133 48.1285 99.3441 47.9783 99.5095 47.8755C99.6749 47.7728 99.8672 47.7223 100.062 47.7306C100.256 47.7388 100.443 47.8055 100.599 47.922C100.755 48.0384 100.873 48.1992 100.937 48.3836C101.024 48.6176 101.016 48.8764 100.914 49.1044C100.813 49.3325 100.626 49.5114 100.395 49.6027Z" fill="#FFCD49"/>
<path d="M101.62 53.2873C101.441 53.363 101.243 53.3828 101.052 53.344C100.861 53.3052 100.686 53.2096 100.55 53.0698C100.414 52.9299 100.323 52.7522 100.289 52.5597C100.255 52.3672 100.279 52.1689 100.359 51.9905C100.438 51.8121 100.57 51.6619 100.736 51.5595C100.901 51.457 101.094 51.407 101.289 51.416C101.483 51.4249 101.671 51.4924 101.827 51.6097C101.982 51.727 102.1 51.8886 102.163 52.0736C102.248 52.3069 102.239 52.5644 102.138 52.7912C102.036 53.0179 101.851 53.1959 101.62 53.2873Z" fill="#FFCD49"/>
<path d="M102.851 56.9773C102.672 57.053 102.474 57.0728 102.283 57.034C102.092 56.9952 101.917 56.8996 101.781 56.7598C101.645 56.6199 101.554 56.4422 101.52 56.2497C101.485 56.0572 101.51 55.8589 101.59 55.6805C101.669 55.5021 101.801 55.3519 101.966 55.2495C102.132 55.147 102.325 55.097 102.52 55.106C102.714 55.1149 102.902 55.1824 103.058 55.2997C103.213 55.417 103.33 55.5786 103.394 55.7636C103.48 55.9968 103.472 56.2549 103.37 56.4821C103.269 56.7092 103.082 56.8871 102.851 56.9773Z" fill="#FFCD49"/>
<path d="M104.077 60.6672C103.897 60.7425 103.7 60.762 103.509 60.7231C103.318 60.6842 103.144 60.5887 103.008 60.449C102.872 60.3094 102.781 60.1319 102.747 59.9398C102.713 59.7476 102.737 59.5496 102.816 59.3713C102.895 59.193 103.026 59.0428 103.192 58.9401C103.357 58.8373 103.549 58.7868 103.744 58.7951C103.938 58.8034 104.125 58.8701 104.281 58.9865C104.438 59.1029 104.555 59.2638 104.619 59.4481C104.706 59.6821 104.698 59.941 104.596 60.169C104.495 60.397 104.308 60.576 104.077 60.6672Z" fill="#FFCD49"/>
<path d="M102.195 39.409L108.014 53.8859L116.603 52.7158L110.286 38.6633L102.195 39.409Z" fill="#B1A19A"/>
<path d="M102.195 39.4089L108.014 53.8859L114.895 52.9117L108.572 38.8647L102.195 39.4089Z" fill="#FFF4E7"/>
<path d="M104.549 42.5275L105.178 44.0731L108.524 43.8282C108.28 46.3886 108.512 48.9721 109.207 51.4477L110.91 51.2463C110.91 51.2463 109.191 46.8162 109.771 43.6269L109.353 42.1846L104.549 42.5275Z" fill="#7D6F6D"/>
<path d="M111.989 38.2715L117.807 52.7485L126.397 51.5783L120.079 37.5313L111.989 38.2715Z" fill="#B1A19A"/>
<path d="M111.989 38.2715L117.807 52.7484L124.689 51.7797L118.366 37.7272L111.989 38.2715Z" fill="#FFF4E7"/>
<path d="M114.31 41.3737L114.939 42.9248L118.284 42.6799C118.036 45.2399 118.266 47.8239 118.962 50.2993L120.67 50.1034C120.67 50.1034 118.946 45.6678 119.532 42.484L119.114 41.0417L114.31 41.3737Z" fill="#7D6F6D"/>
<path d="M121.782 37.1394L127.595 51.6164L136.19 50.4463L129.868 36.3938L121.782 37.1394Z" fill="#B1A19A"/>
<path d="M121.782 37.1394L127.595 51.6164L134.477 50.6422L128.159 36.5952L121.782 37.1394Z" fill="#FFF4E7"/>
<path d="M124.114 40.2852L124.748 41.8308L128.094 41.5859C127.847 44.146 128.077 46.7298 128.772 49.2054L130.48 49.004C130.48 49.004 128.756 44.5739 129.341 41.3846L128.924 39.9369L124.114 40.2852Z" fill="#7D6F6D"/>
<path d="M109.234 5.74725L108.095 5.23566L106.815 5.80712L107.173 4.63699L106.241 3.79885L107.688 3.57026L108.496 2.35659L108.974 3.53216L110.389 3.67911L109.196 4.58256L109.234 5.74725Z" fill="#FFCD49"/>
<path d="M115.383 5.58942L114.245 5.07783L112.965 5.64929L113.323 4.4846L112.39 3.64102L113.838 3.41788L114.646 2.19876L115.123 3.37978L116.538 3.52128L115.345 4.43018L115.383 5.58942Z" fill="#FFCD49"/>
<path d="M121.533 5.43703L120.394 4.92544L119.114 5.4969L119.472 4.32677L118.539 3.48863L119.987 3.26004L120.795 2.04637L121.272 3.22195L122.688 3.36889L121.495 4.27234L121.533 5.43703Z" fill="#FFCD49"/>
<path d="M127.682 5.27919L126.543 4.77304L125.264 5.33906L125.621 4.17437L124.689 3.33079L126.137 3.10765L126.945 1.88853L127.422 3.06955L128.832 3.21106L127.644 4.11995L127.682 5.27919Z" fill="#FFCD49"/>
<path d="M133.832 5.12681L132.693 4.61521L131.413 5.18667L131.771 4.01654L130.838 3.1784L132.286 2.94982L133.094 1.73615L133.571 2.91172L134.981 3.05867L133.794 3.96212L133.832 5.12681Z" fill="#FFCD49"/>
<path d="M119.158 69.0541C119.342 70.1426 117.531 71.378 115.085 71.7753C112.639 72.1726 110.519 71.6393 110.335 70.5399C110.15 69.4405 111.962 68.2105 114.407 67.8186C116.853 67.4268 118.968 67.9547 119.158 69.0541Z" fill="#FFCD49"/>
<path d="M117.97 69.2555C118.106 70.061 116.772 70.959 114.993 71.2638C113.214 71.5685 111.658 71.1603 111.522 70.3603C111.387 69.5603 112.715 68.6568 114.499 68.352C116.283 68.0472 117.829 68.45 117.97 69.2555Z" fill="#E79D00"/>
<path d="M131.483 66.8717C131.673 67.9602 129.857 69.201 127.411 69.5929C124.965 69.9848 122.85 69.4623 122.666 68.3629C122.482 67.2635 124.293 66.0335 126.739 65.6145C129.184 65.1954 131.299 65.7723 131.483 66.8717Z" fill="#FFCD49"/>
<path d="M130.296 67.073C130.437 67.8785 129.103 68.7765 127.324 69.0813C125.546 69.3861 123.989 68.9833 123.854 68.1779C123.718 67.3724 125.047 66.4798 126.825 66.175C128.604 65.8702 130.16 66.273 130.296 67.073Z" fill="#E79D00"/>
<path d="M143.815 64.6892C144.005 65.7777 142.188 67.0186 139.742 67.4377C137.297 67.8567 135.182 67.3016 134.992 66.2022C134.802 65.1028 136.619 63.8729 139.065 63.481C141.51 63.0891 143.63 63.5898 143.815 64.6892Z" fill="#FFCD49"/>
<path d="M142.627 64.896C142.763 65.6961 141.434 66.5941 139.65 66.8989C137.866 67.2036 136.321 66.8009 136.185 66.0009C136.049 65.2008 137.378 64.2974 139.157 63.9926C140.935 63.6878 142.508 64.0906 142.627 64.896Z" fill="#E79D00"/>
<path d="M108.805 76.8532L109.294 81.931L122.324 79.6724L121.739 74.5945L108.805 76.8532Z" fill="#FFCD49"/>
<path d="M110.112 77.4682L110.416 80.7663L120.996 79.0519L120.616 75.7592L110.112 77.4682Z" fill="#E79D00"/>
<path d="M133.663 72.4502L134.152 77.5226L147.182 75.2694L146.597 70.1916L133.663 72.4502Z" fill="#FFCD49"/>
<path d="M134.97 73.0652L135.274 76.3633L145.854 74.649L145.474 71.3563L134.97 73.0652Z" fill="#E79D00"/>
<path d="M109.212 88.8756L109.711 93.2187L146.846 84.9407L146.543 80.652L109.212 88.8756Z" fill="#94A9A9"/>
<g style="mix-blend-mode:multiply" opacity="0.55">
<path d="M89.1263 91.1832C89.8746 90.7804 90.6121 90.3396 91.3442 89.8715C92.0763 89.4035 92.6402 88.9953 93.2584 88.5382L93.6543 88.2388C94.2454 87.7816 94.8256 87.3081 95.3733 86.8183L95.574 86.6333C96.1162 86.1652 96.588 85.6863 97.0652 85.191L97.2821 84.9733C97.7973 84.4291 98.2853 83.8848 98.7517 83.3406L98.9198 83.1338C99.8629 81.9737 100.725 80.7499 101.501 79.471C101.501 79.4274 101.55 79.3839 101.577 79.3404C102.353 78.0503 103.039 76.7083 103.632 75.3238C103.773 75.0082 103.892 74.6871 104.017 74.3659L103.578 67.4159L92.9222 35.7244C88.3759 32.7082 83.0579 31.0753 77.6083 31.0221L75 88.8701L85.7316 92.7778C86.8924 92.3114 88.0258 91.779 89.1263 91.1832Z" fill="#9D7A6F"/>
</g>
<path d="M103.425 22.7273C103.425 26.2176 100.601 29.0455 97.1194 29.0455C93.6375 29.0455 90.8134 26.2176 90.8134 22.7273C90.8134 19.237 93.6375 16.4091 97.1194 16.4091C100.601 16.4091 103.425 19.237 103.425 22.7273Z" fill="#C4C4C4" fill-opacity="0.43" stroke="black"/>
<path d="M100.168 28.3262V29.75H94.2731V28.543L97.027 25.625C97.2848 25.3281 97.4899 25.0664 97.6422 24.8398C97.7985 24.6133 97.9117 24.4082 97.9821 24.2246C98.0524 24.0371 98.0875 23.8652 98.0875 23.709C98.0875 23.4551 98.0465 23.2402 97.9645 23.0645C97.8864 22.8887 97.7711 22.7539 97.6188 22.6602C97.4664 22.5664 97.2809 22.5195 97.0621 22.5195C96.8278 22.5195 96.6266 22.5801 96.4586 22.7012C96.2906 22.8223 96.1617 22.9902 96.0719 23.2051C95.9821 23.416 95.9371 23.6562 95.9371 23.9258H94.0973C94.0973 23.4062 94.2223 22.9336 94.4723 22.5078C94.7223 22.0781 95.0719 21.7363 95.5211 21.4824C95.9703 21.2246 96.4957 21.0957 97.0973 21.0957C97.7145 21.0957 98.2321 21.1934 98.65 21.3887C99.068 21.584 99.3844 21.8633 99.5992 22.2266C99.8141 22.5898 99.9215 23.0273 99.9215 23.5391C99.9215 23.8281 99.8746 24.1074 99.7809 24.377C99.691 24.6465 99.5602 24.9141 99.3883 25.1797C99.2164 25.4453 99.0094 25.7168 98.7672 25.9941C98.525 26.2676 98.2516 26.5566 97.9469 26.8613L96.6578 28.3262H100.168Z" fill="black"/>
</g>
<g style="mix-blend-mode:luminosity" clip-path="url(#clip0_107_2)">
<path d="M71.8019 92.6244C63.647 97.7799 54.866 100 44.9007 100C40.314 100 32.3101 99.0091 27.7461 97.4893C9.12796 91.2611 2.24047 75.2062 5.37115 54.279C8.81112 31.4148 29.0813 12.9164 51.1997 12.0447C68.4977 11.3518 84.9884 23.0037 90.8424 39.4683C96.025 54.0332 92.6982 79.4304 71.8019 92.6244Z" fill="#CC692E"/>
<g style="mix-blend-mode:multiply">
<path d="M75.5436 68.8513C68.4751 65.7447 61.6781 66.9963 54.2399 66.4003C41.7775 65.4094 32.2346 57.5645 23.5215 49.295C19.3951 45.3688 15.427 41.3011 11.3534 37.3376C8.31974 42.5807 6.29172 48.3316 5.37115 54.3014C2.24047 75.1615 9.14306 91.2536 27.7461 97.5117C32.3101 99.0017 40.314 100.022 44.9007 100.022C54.866 100.022 63.647 97.7873 71.8019 92.6468C79.4065 87.8538 85.3654 80.9016 88.8961 72.703C81.4353 75.1317 80.2736 70.9374 75.5436 68.8513Z" fill="#CC692E"/>
</g>
<path d="M84.8452 52.5432C83.2459 77.4934 61.5423 98.6739 36.9646 98.6739C12.9376 98.6739 -3.10053 78.3278 0.505413 54.3089C3.93784 31.4149 24.208 12.9164 46.3265 12.0298C68.9051 11.1284 86.3765 28.7999 84.8452 52.5432Z" fill="#94260D"/>
<path d="M48.6273 12.0447C70.0819 12.3874 86.3463 29.6492 84.8376 52.5804C83.2383 77.4412 61.6932 98.5472 37.2211 98.7037H37.4776C62.4098 98.7037 84.4302 77.5232 86.0596 52.573C87.5986 29.3661 70.7382 11.9851 48.6273 12.0447Z" fill="#EDA086"/>
<g style="mix-blend-mode:screen" opacity="0.55">
<path d="M45.4287 23.6295C54.7755 23.041 64.1374 22.5269 73.4841 21.9235C69.8774 18.5361 65.6084 15.9114 60.9386 14.2102C56.2689 12.509 51.2967 11.7671 46.3265 12.0298C35.7123 12.4545 25.5282 16.9468 17.4261 24.0169C26.7352 24.2255 35.9688 24.2181 45.4287 23.6295Z" fill="#B1604E"/>
</g>
<g style="mix-blend-mode:screen" opacity="0.55">
<path d="M23.0991 37.6952C32.295 37.4047 40.8195 35.0132 49.8569 33.851C60.0637 32.5398 70.4591 32.6143 80.6658 31.616C80.0128 30.3336 79.2848 29.0899 78.4857 27.8909C66.657 28.7179 54.8132 29.381 42.977 30.0813C32.4157 30.6922 21.9901 30.5059 11.4892 30.1781C9.59371 32.4787 7.90266 34.9364 6.43481 37.5239C11.9946 37.6654 17.5468 37.874 23.0991 37.6952Z" fill="#B1604E"/>
</g>
<g style="mix-blend-mode:screen" opacity="0.55">
<path d="M30.4694 81.4866C41.4985 78.6779 52.3464 75.3925 63.2472 72.0176C69.3577 70.1253 75.5059 68.382 81.6692 66.7132C83.0474 63.1901 84.0019 59.5194 84.5132 55.7765L76.7054 57.49C61.7008 60.7978 46.7414 64.2994 31.6991 67.3911C21.8242 69.425 11.9268 71.9506 1.93121 73.5076C3.47052 78.3372 6.00275 82.8011 9.3694 86.6197C16.0834 84.0569 23.4914 83.2672 30.4694 81.4866Z" fill="#B1604E"/>
</g>
<path d="M80.2132 52.8486C78.7874 75.0721 59.4602 93.9357 37.5681 93.9357C16.1663 93.9357 1.88591 75.8097 5.09203 54.4504C8.14727 34.0596 26.2147 17.5875 45.904 16.7978C66.0158 15.9634 81.5711 31.6979 80.2132 52.8486Z" fill="#401A00"/>
<path d="M77.1731 52.7071C75.702 73.1127 57.9213 90.3522 37.8548 90.4341C18.1579 90.5086 4.82048 73.9397 7.67959 54.1598C10.3878 35.1473 27.2029 19.7257 45.5947 19.0477C64.2807 18.3549 78.5913 33.106 77.1731 52.7071Z" fill="#CD7F33"/>
<path d="M72.0886 52.8114C70.7382 70.2296 55.545 84.8987 38.4432 85.0105C21.6054 85.1148 10.1011 71.0193 12.4397 54.063C14.7028 37.6729 29.1794 24.3373 45.0591 23.786C61.1727 23.2198 73.3861 35.9892 72.0886 52.8114Z" fill="#316D4E"/>
<path d="M60.5918 53.02C59.6412 63.748 50.2568 72.7253 39.7482 72.8445C29.2397 72.9637 22.0882 64.3515 23.431 53.8022C24.7361 43.469 33.8414 35.0206 43.8672 34.7226C53.8929 34.4246 61.5272 42.5899 60.5918 53.02Z" fill="#D2822C"/>
<g style="mix-blend-mode:screen" opacity="0.32">
<path d="M41.6191 50.7254C43.1279 48.237 44.7197 45.7562 46.334 43.2753C47.4505 41.5618 48.4236 39.5503 49.6382 37.8144C47.7279 37.0323 45.6699 36.664 43.6032 36.7342C40.7317 36.8482 37.9353 37.6731 35.4709 39.1331C36.2206 41.0587 37.1394 42.9159 38.2169 44.6834C39.4993 46.6353 40.563 48.6766 41.6191 50.7254Z" fill="#D79132"/>
</g>
<g style="mix-blend-mode:screen" opacity="0.32">
<path d="M43.1581 54.9197C42.3307 54.7489 41.4947 54.6221 40.6535 54.5398C39.4993 55.9851 33.8641 66.3407 32.5213 67.7487C34.7971 69.0969 37.4118 69.7838 40.0651 69.7304C42.3374 69.6789 44.5754 69.172 46.6433 68.2404C46.6433 68.2404 44.1614 58.0264 43.1581 54.9197Z" fill="#D79132"/>
</g>
<path d="M67.4039 55.8212C67.1101 57.382 66.6888 58.9168 66.144 60.4104L71.5605 62.6827C72.4222 60.4239 73.0515 58.0852 73.4389 55.702L67.4039 55.8212Z" fill="#CA1C18"/>
<path d="M18.4596 46.7396L13.526 44.6312C12.5855 46.7672 11.8554 48.9876 11.3458 51.2618L17.0414 51.1351C17.3976 49.6357 17.8718 48.1661 18.4596 46.7396Z" fill="#CA1C18"/>
<path d="M67.8791 50.04L73.9141 49.9059C73.8896 47.6335 73.6165 45.3705 73.0994 43.1561L67.3737 45.5699C67.6752 47.0423 67.8443 48.5381 67.8791 50.04Z" fill="#CA1C18"/>
<path d="M16.2795 56.8269L10.5537 56.9387C10.4257 59.1917 10.5395 61.4517 10.8932 63.681L16.5284 61.2746C16.3192 59.8016 16.2359 58.3138 16.2795 56.8269Z" fill="#CA1C18"/>
<path d="M17.9467 66.6089L12.2737 69.0301C13.0133 71.0817 13.9958 73.0397 15.2007 74.8635L19.9081 70.4382C19.1323 69.2264 18.4755 67.9441 17.9467 66.6089Z" fill="#CA1C18"/>
<path d="M59.8676 32.9048L64.3562 28.6807C62.7667 27.3179 61.0164 26.1498 59.1434 25.2015L56.4276 30.573C57.6463 31.2411 58.7982 32.0219 59.8676 32.9048Z" fill="#CA1C18"/>
<path d="M24.0873 37.8219L20.6247 33.8808C19.0124 35.6068 17.563 37.4746 16.2946 39.4609L21.2207 41.532C22.0837 40.2282 23.0418 38.9882 24.0873 37.8219Z" fill="#CA1C18"/>
<path d="M51.5317 28.5987L54.255 23.2496C52.196 22.6727 50.0781 22.3253 47.9408 22.214L47.3373 27.8909C48.7546 27.9982 50.1588 28.2352 51.5317 28.5987Z" fill="#CA1C18"/>
<path d="M41.8681 28.0698L42.5017 22.4077C40.2829 22.6812 38.0987 23.1805 35.9839 23.8977L37.5379 29.0606C38.9516 28.6145 40.3998 28.2832 41.8681 28.0698Z" fill="#CA1C18"/>
<path d="M65.6386 40.3549L71.2964 37.9411C70.4138 35.9876 69.2996 34.1445 67.9772 32.4504L63.4509 36.7118C64.2979 37.8533 65.0306 39.0734 65.6386 40.3549Z" fill="#CA1C18"/>
<path d="M32.2723 31.2956L30.7636 26.1253C28.7085 27.2072 26.759 28.4741 24.9398 29.9099L28.425 33.8212C29.6417 32.8855 30.9277 32.0413 32.2723 31.2956Z" fill="#CA1C18"/>
<path d="M41.8303 80.2722L41.1589 86.6644C43.5408 86.4232 45.8885 85.9235 48.1596 85.1744L46.417 79.2814C44.9211 79.7463 43.3861 80.0779 41.8303 80.2722Z" fill="#CA1C18"/>
<path d="M51.9994 76.9272L53.7797 82.7978C55.9833 81.6268 58.0631 80.2417 59.9883 78.6631L56.073 74.193C54.7893 75.2078 53.4273 76.122 51.9994 76.9272Z" fill="#CA1C18"/>
<path d="M31.7292 79.4304L28.757 85.316C30.8977 86.0393 33.1191 86.5045 35.3729 86.7017L36.0744 80.3244C34.5999 80.1677 33.1445 79.8683 31.7292 79.4304Z" fill="#CA1C18"/>
<path d="M60.5692 69.9018L64.4919 74.3122C66.1521 72.4326 67.6249 70.3992 68.89 68.2404L63.466 65.9235C62.6065 67.3219 61.638 68.652 60.5692 69.9018Z" fill="#CA1C18"/>
<path d="M23.348 74.5804L18.6256 79.0505C20.1631 80.5833 21.889 81.9198 23.763 83.0288L26.7805 77.1879C25.5502 76.4354 24.4001 75.5618 23.348 74.5804Z" fill="#CA1C18"/>
<path d="M38.9335 80.466C37.9786 80.4718 37.024 80.4245 36.0744 80.3244L35.3729 86.7017C36.3083 86.7836 37.2664 86.8283 38.2471 86.8209C39.2277 86.8134 40.1934 86.7613 41.159 86.6644L41.8304 80.2722C40.8694 80.3929 39.9021 80.4576 38.9335 80.466Z" fill="#3C3C3C"/>
<path d="M44.6216 27.8313C45.5273 27.8025 46.4339 27.8223 47.3374 27.8909L47.9409 22.214C47.0507 22.1693 46.1454 22.1693 45.2251 22.214C44.3123 22.214 43.3995 22.3183 42.5018 22.4301L41.8681 28.0921C42.7805 27.9565 43.6997 27.8695 44.6216 27.8313Z" fill="#3C3C3C"/>
<path d="M56.0731 74.2154L59.9883 78.6854C61.6143 77.359 63.128 75.9039 64.5146 74.3345L60.5918 69.9241C59.2317 71.4974 57.7181 72.9348 56.0731 74.2154Z" fill="#3C3C3C"/>
<path d="M28.425 33.8212L24.9247 29.9248C23.3948 31.1426 21.9576 32.4698 20.6248 33.8957L24.0874 37.8368C25.4031 36.3674 26.8553 35.023 28.425 33.8212Z" fill="#3C3C3C"/>
<path d="M67.8036 52.9008C67.7201 53.8803 67.5866 54.855 67.4038 55.8212L73.4389 55.702C73.5973 54.7335 73.718 53.7575 73.7934 52.7741C73.8689 51.7907 73.8915 50.8222 73.8839 49.8686L67.8489 50.0027C67.8861 50.9688 67.871 51.9362 67.8036 52.9008Z" fill="#3C3C3C"/>
<path d="M16.5134 53.9736C16.6392 53.019 16.8154 52.0715 17.0414 51.1351L11.3459 51.2618C11.1346 52.193 10.9611 53.1392 10.8253 54.0928C10.6896 55.0464 10.6066 56 10.5538 56.9387L16.2795 56.8269C16.3097 55.8882 16.355 54.9346 16.5134 53.9736Z" fill="#3C3C3C"/>
<path d="M63.4735 36.7044L67.9998 32.4429C66.9239 31.0605 65.7109 29.7877 64.3788 28.6434L59.8676 32.9048C61.2209 34.0224 62.4318 35.2983 63.4735 36.7044Z" fill="#3C3C3C"/>
<path d="M19.9081 70.4382L15.2007 74.8635C16.1961 76.3677 17.3436 77.768 18.6256 79.043L23.3481 74.573C22.0309 73.3421 20.8753 71.953 19.9081 70.4382Z" fill="#3C3C3C"/>
<path d="M56.4276 30.5357L59.1434 25.1642C57.5828 24.3663 55.9452 23.7248 54.255 23.2496L51.5317 28.5987C53.2373 29.0455 54.8814 29.696 56.4276 30.5357Z" fill="#3C3C3C"/>
<path d="M26.7503 77.1805L23.7328 83.0213C25.3128 83.9543 26.9864 84.7233 28.7268 85.316L31.699 79.4304C29.9607 78.8878 28.2981 78.1319 26.7503 77.1805Z" fill="#3C3C3C"/>
<path d="M37.5379 29.0457L35.9688 23.8828C34.1649 24.4858 32.414 25.2333 30.7334 26.1179L32.2422 31.2882C33.9276 30.3689 35.7017 29.6177 37.5379 29.0457Z" fill="#3C3C3C"/>
<path d="M46.417 79.3038L48.1596 85.1968C50.0994 84.5584 51.9798 83.7558 53.7797 82.7978L51.9994 76.9272C50.228 77.9103 48.357 78.7069 46.417 79.3038Z" fill="#3C3C3C"/>
<path d="M21.2207 41.532L16.2946 39.4609C15.2359 41.11 14.3102 42.8388 13.526 44.6312L18.4596 46.7396C19.2119 44.9218 20.1364 43.1781 21.2207 41.532Z" fill="#3C3C3C"/>
<path d="M63.4659 65.9235L68.8899 68.2404C69.931 66.4623 70.8241 64.6036 71.5604 62.6827L66.144 60.4104C65.4357 62.33 64.5387 64.1765 63.4659 65.9235Z" fill="#3C3C3C"/>
<path d="M16.5284 61.2746L10.8932 63.681C11.182 65.503 11.6442 67.2939 12.2737 69.0301L17.9467 66.6089C17.2679 64.8905 16.792 63.1006 16.5284 61.2746Z" fill="#3C3C3C"/>
<path d="M67.3737 45.5699L73.0692 43.1412C72.6443 41.3521 72.0508 39.6061 71.2964 37.9262L65.6386 40.34C66.4211 42.0107 67.0034 43.7659 67.3737 45.5699Z" fill="#3C3C3C"/>
<path d="M47.9408 50.785L42.1849 52.0813L41.8379 53.5191L45.9266 57.2889C45.9266 57.2889 49.8645 54.875 47.9408 50.785Z" fill="#E0D4C6"/>
<g style="mix-blend-mode:multiply" opacity="0.55">
<path d="M44.7573 55.5828C46.7489 54.3237 46.6131 52.9082 46.1454 51.1723L42.1849 52.0589L41.8379 53.4968L44.4028 55.8584C44.5128 55.7567 44.6314 55.6645 44.7573 55.5828Z" fill="#E4B97D"/>
</g>
<path d="M52.5803 63.45L51.0715 64.8805L31.5708 42.8209L33.0418 41.45L52.5803 63.45Z" fill="#FFC400"/>
<path d="M33.9395 40.6082C34.2764 41.0553 34.4281 41.6124 34.3636 42.1661C34.2991 42.7197 34.0234 43.2283 33.5925 43.5882C33.4083 43.7878 33.1851 43.9486 32.9363 44.0609C32.6876 44.1731 32.4185 44.2346 32.1451 44.2415C31.8717 44.2485 31.5997 44.2008 31.3454 44.1013C31.0912 44.0019 30.8599 43.8527 30.6655 43.6627C30.3286 43.2145 30.1783 42.6558 30.2457 42.1015C30.313 41.5472 30.5928 41.0395 31.0276 40.6827C31.2105 40.4835 31.4324 40.3231 31.6799 40.211C31.9273 40.0989 32.1953 40.0375 32.4674 40.0305C32.7396 40.0236 33.0104 40.0712 33.2634 40.1704C33.5164 40.2697 33.7464 40.4187 33.9395 40.6082Z" fill="#FFC400"/>
<path d="M53.4931 62.5709C53.8556 63.0346 54.0268 63.6167 53.9722 64.2C53.9176 64.7834 53.6413 65.3246 53.1989 65.7149C53.0075 65.9197 52.7759 66.084 52.5182 66.1978C52.2605 66.3115 51.9821 66.3723 51.6998 66.3765C51.4176 66.3807 51.1374 66.3282 50.8764 66.2221C50.6154 66.116 50.3789 65.9587 50.1814 65.7596C49.8212 65.2953 49.6528 64.7133 49.7102 64.1311C49.7676 63.549 50.0465 63.01 50.4907 62.6231C50.6814 62.42 50.9116 62.2571 51.1677 62.1441C51.4237 62.0311 51.7002 61.9703 51.9806 61.9654C52.261 61.9606 52.5395 62.0117 52.7994 62.1157C53.0593 62.2198 53.2953 62.3746 53.4931 62.5709Z" fill="#FFC400"/>
<path d="M53.4101 40.9062L54.6171 42.2174L30.228 65.2083L29.0511 63.83L53.4101 40.9062Z" fill="#FFC400"/>
<path d="M28.3345 62.9956C28.5211 62.7833 28.7508 62.6122 29.0087 62.4933C29.2666 62.3744 29.5469 62.3104 29.8315 62.3055C30.1161 62.3006 30.3985 62.3548 30.6605 62.4648C30.9224 62.5747 31.1581 62.7378 31.352 62.9435C31.6929 63.4139 31.8439 63.9929 31.7755 64.5674C31.7072 65.1419 31.4244 65.6705 30.9824 66.0501C30.7959 66.2629 30.566 66.4344 30.3078 66.5534C30.0495 66.6723 29.7687 66.7359 29.4838 66.7402C29.1988 66.7444 28.9162 66.6891 28.6545 66.5779C28.3927 66.4666 28.1577 66.302 27.9649 66.0948C27.6245 65.6256 27.4737 65.0478 27.5421 64.4745C27.6105 63.9013 27.8931 63.3739 28.3345 62.9956Z" fill="#FFC400"/>
<path d="M52.6708 40.1016C52.8596 39.902 53.0866 39.7414 53.3387 39.6291C53.5909 39.5168 53.8631 39.455 54.1396 39.4474C54.416 39.4398 54.6913 39.4864 54.9494 39.5846C55.2075 39.6829 55.4433 39.8307 55.643 40.0196C55.9924 40.4575 56.1575 41.0114 56.1041 41.5664C56.0507 42.1213 55.7829 42.6346 55.3564 42.9997C55.1681 43.2017 54.9405 43.3643 54.6873 43.4778C54.4341 43.5913 54.1604 43.6534 53.8824 43.6603C53.6045 43.6673 53.3279 43.619 53.0692 43.5183C52.8105 43.4176 52.575 43.2666 52.3766 43.0742C52.0322 42.6352 51.8708 42.0828 51.9255 41.5301C51.9802 40.9775 52.2468 40.4664 52.6708 40.1016Z" fill="#FFC400"/>
<path d="M44.1915 50.785C44.6751 51.4157 44.8981 52.2043 44.8155 52.9912C44.7329 53.7781 44.3508 54.5047 43.7464 55.024C43.4862 55.3083 43.1699 55.537 42.8168 55.696C42.4638 55.8551 42.0815 55.941 41.6936 55.9487C41.3056 55.9564 40.9202 55.8856 40.561 55.7407C40.2018 55.5957 39.8764 55.3797 39.6049 55.106C39.1262 54.4731 38.9083 53.6845 38.9951 52.8992C39.0819 52.1139 39.467 51.3904 40.0726 50.8744C40.3321 50.5931 40.6467 50.3668 40.9973 50.2092C41.348 50.0516 41.7275 49.9661 42.1127 49.9577C42.4978 49.9493 42.8807 50.0184 43.2381 50.1606C43.5955 50.3028 43.9198 50.5152 44.1915 50.785Z" fill="#FFC400"/>
<path d="M42.2377 50.785C42.6298 50.7435 43.0231 50.8516 43.3372 51.087C43.6513 51.3224 43.8624 51.6674 43.9275 52.0515C43.9773 52.2301 43.9903 52.4167 43.9658 52.6004C43.9413 52.784 43.8797 52.9609 43.7848 53.1207C43.6898 53.2804 43.5634 53.4197 43.413 53.5304C43.2626 53.6411 43.0913 53.7208 42.9091 53.765C42.5175 53.8024 42.1261 53.6917 41.8139 53.4553C41.5016 53.2188 41.2919 52.8743 41.2268 52.491C41.177 52.3134 41.1638 52.1277 41.1879 51.945C41.212 51.7623 41.273 51.5861 41.3673 51.4271C41.4615 51.268 41.5871 51.1292 41.7366 51.019C41.8861 50.9087 42.0565 50.8291 42.2377 50.785Z" fill="#FFF3D9"/>
<g style="mix-blend-mode:multiply" opacity="0.55">
<path d="M77.9426 58.4511C67.7509 62.9211 56.3145 67.9499 44.8705 66.7728C26.0789 64.8358 16.9585 50.1443 14.8009 33.5903C9.56151 39.8279 6.13081 47.3506 4.87329 55.3593C1.65209 76.8602 16.0079 95.0681 37.5153 95.0681C58.2457 95.0681 76.6903 78.231 79.9417 57.5943C79.2627 57.8774 78.5989 58.1605 77.9426 58.4511Z" fill="#9D7A6F"/>
</g>
<path d="M82.8006 57.1282C82.8006 60.5853 79.9645 63.3974 76.454 63.3974C72.9435 63.3974 70.1074 60.5853 70.1074 57.1282C70.1074 53.6712 72.9435 50.859 76.454 50.859C79.9645 50.859 82.8006 53.6712 82.8006 57.1282Z" fill="#C4C4C4" fill-opacity="0.43" stroke="black"/>
<path d="M75.351 59.1346H76.2826C76.5482 59.1346 76.767 59.0877 76.9388 58.9939C77.1146 58.9002 77.2435 58.7674 77.3256 58.5955C77.4115 58.4236 77.4545 58.2225 77.4545 57.992C77.4545 57.7928 77.4154 57.615 77.3373 57.4588C77.2592 57.3025 77.14 57.1795 76.9799 57.0896C76.8236 56.9959 76.6205 56.949 76.3705 56.949C76.1908 56.949 76.0189 56.9861 75.8549 57.0603C75.6947 57.1307 75.5638 57.2342 75.4623 57.3709C75.3607 57.5037 75.3099 57.6639 75.3099 57.8514H73.476C73.476 57.3748 73.6049 56.9627 73.8627 56.615C74.1244 56.2674 74.4701 55.9998 74.8998 55.8123C75.3334 55.6209 75.806 55.5252 76.3177 55.5252C76.9076 55.5252 77.4252 55.6189 77.8705 55.8064C78.3197 55.99 78.6674 56.2635 78.9135 56.6268C79.1635 56.9861 79.2885 57.4314 79.2885 57.9627C79.2885 58.24 79.222 58.5076 79.0892 58.7654C78.9603 59.0193 78.7748 59.2459 78.5326 59.4451C78.2943 59.6404 78.0092 59.7967 77.6771 59.9139C77.349 60.0271 76.9838 60.0838 76.5814 60.0838H75.351V59.1346ZM75.351 60.5115V59.5799H76.5814C77.0267 59.5799 77.4252 59.6307 77.7767 59.7322C78.1283 59.8338 78.4271 59.9803 78.6732 60.1717C78.9193 60.3631 79.1068 60.5955 79.2357 60.8689C79.3646 61.1424 79.4291 61.4471 79.4291 61.783C79.4291 62.1814 79.351 62.5369 79.1947 62.8494C79.0385 63.1619 78.8197 63.4256 78.5385 63.6404C78.2572 63.8553 77.9271 64.0193 77.5482 64.1326C77.1693 64.242 76.7592 64.2967 76.3177 64.2967C75.9623 64.2967 75.6088 64.2478 75.2572 64.1502C74.9056 64.0525 74.5873 63.9041 74.3021 63.7049C74.017 63.5018 73.7885 63.2459 73.6166 62.9373C73.4447 62.6248 73.3588 62.2537 73.3588 61.824H75.1927C75.1927 62.0232 75.2435 62.2029 75.3451 62.3631C75.4506 62.5193 75.5931 62.6443 75.7728 62.7381C75.9564 62.8279 76.1556 62.8728 76.3705 62.8728C76.6283 62.8728 76.847 62.826 77.0267 62.7322C77.2103 62.6346 77.349 62.5018 77.4427 62.3338C77.5404 62.1658 77.5892 61.9725 77.5892 61.7537C77.5892 61.4568 77.5365 61.2186 77.431 61.0389C77.3295 60.8553 77.181 60.7225 76.9857 60.6404C76.7904 60.5545 76.556 60.5115 76.2826 60.5115H75.351Z" fill="black"/>
</g>
<defs>
<clipPath id="clip0_107_2">
<rect width="93" height="88" fill="white" transform="translate(0 12)"/>
</clipPath>
</defs>
</svg>
