<svg width="93" height="88" viewBox="0 0 93 88" fill="none" xmlns="http://www.w3.org/2000/svg">
<g style="mix-blend-mode:luminosity" clip-path="url(#clip0_9_2641)">
<path d="M71.8019 80.6244C63.647 85.7799 54.866 88 44.9007 88C40.314 88 32.3101 87.0091 27.7461 85.4893C9.12796 79.2611 2.24047 63.2062 5.37115 42.279C8.81112 19.4148 29.0813 0.916355 51.1997 0.0446994C68.4977 -0.648155 84.9884 11.0037 90.8424 27.4683C96.025 42.0332 92.6982 67.4304 71.8019 80.6244Z" fill="#CC692E"/>
<g style="mix-blend-mode:multiply">
<path d="M75.5436 56.8513C68.4751 53.7447 61.6781 54.9963 54.2399 54.4003C41.7775 53.4094 32.2346 45.5645 23.5215 37.295C19.3951 33.3688 15.427 29.3011 11.3534 25.3376C8.31974 30.5807 6.29172 36.3316 5.37115 42.3014C2.24047 63.1615 9.14306 79.2536 27.7461 85.5117C32.3101 87.0017 40.314 88.0223 44.9007 88.0223C54.866 88.0223 63.647 85.7873 71.8019 80.6468C79.4065 75.8538 85.3654 68.9016 88.8961 60.703C81.4353 63.1317 80.2736 58.9374 75.5436 56.8513Z" fill="#CC692E"/>
</g>
<path d="M84.8452 40.5432C83.2459 65.4934 61.5423 86.6739 36.9646 86.6739C12.9376 86.6739 -3.10053 66.3278 0.505413 42.3089C3.93784 19.4149 24.208 0.916371 46.3265 0.0298142C68.9051 -0.871642 86.3765 16.7999 84.8452 40.5432Z" fill="#94260D"/>
<path d="M48.6273 0.0446932C70.0819 0.387396 86.3463 17.6492 84.8376 40.5804C83.2383 65.4412 61.6932 86.5472 37.2211 86.7037H37.4776C62.4098 86.7037 84.4302 65.5232 86.0596 40.573C87.5986 17.3661 70.7382 -0.0149072 48.6273 0.0446932Z" fill="#EDA086"/>
<g style="mix-blend-mode:screen" opacity="0.55">
<path d="M45.4287 11.6295C54.7755 11.041 64.1374 10.5269 73.4842 9.92347C69.8774 6.53609 65.6084 3.91144 60.9386 2.21023C56.2689 0.509023 51.2967 -0.232928 46.3265 0.0298041C35.7123 0.454457 25.5282 4.94683 17.4261 12.0169C26.7352 12.2255 35.9688 12.2181 45.4287 11.6295Z" fill="#B1604E"/>
</g>
<g style="mix-blend-mode:screen" opacity="0.55">
<path d="M23.0991 25.6952C32.295 25.4047 40.8195 23.0132 49.8569 21.851C60.0637 20.5398 70.4591 20.6143 80.6658 19.616C80.0128 18.3336 79.2848 17.0899 78.4857 15.8909C66.657 16.7179 54.8132 17.381 42.977 18.0813C32.4157 18.6922 21.9901 18.5059 11.4892 18.1781C9.59371 20.4787 7.90266 22.9364 6.43481 25.5239C11.9946 25.6654 17.5468 25.874 23.0991 25.6952Z" fill="#B1604E"/>
</g>
<g style="mix-blend-mode:screen" opacity="0.55">
<path d="M30.4694 69.4866C41.4985 66.6779 52.3464 63.3925 63.2472 60.0176C69.3577 58.1253 75.5059 56.382 81.6692 54.7132C83.0474 51.1901 84.0019 47.5194 84.5132 43.7765L76.7054 45.49C61.7008 48.7978 46.7414 52.2994 31.6991 55.3911C21.8242 57.425 11.9268 59.9506 1.93121 61.5076C3.47052 66.3372 6.00275 70.8011 9.3694 74.6197C16.0834 72.0569 23.4914 71.2672 30.4694 69.4866Z" fill="#B1604E"/>
</g>
<path d="M80.2132 40.8486C78.7874 63.0721 59.4602 81.9357 37.5681 81.9357C16.1663 81.9357 1.88591 63.8097 5.09203 42.4504C8.14727 22.0596 26.2147 5.58754 45.904 4.79783C66.0158 3.96343 81.5711 19.6979 80.2132 40.8486Z" fill="#401A00"/>
<path d="M77.1731 40.7071C75.702 61.1127 57.9213 78.3522 37.8548 78.4341C18.1579 78.5086 4.82048 61.9397 7.67959 42.1598C10.3878 23.1473 27.2029 7.72569 45.5947 7.04773C64.2807 6.35488 78.5913 21.106 77.1731 40.7071Z" fill="#CD7F33"/>
<path d="M72.0886 40.8114C70.7382 58.2296 55.545 72.8987 38.4432 73.0105C21.6054 73.1148 10.1011 59.0193 12.4397 42.063C14.7028 25.6729 29.1794 12.3373 45.0591 11.786C61.1727 11.2198 73.3861 23.9892 72.0886 40.8114Z" fill="#316D4E"/>
<path d="M60.5918 41.02C59.6412 51.748 50.2568 60.7253 39.7482 60.8445C29.2397 60.9637 22.0882 52.3515 23.431 41.8022C24.7361 31.469 33.8414 23.0206 43.8672 22.7226C53.8929 22.4246 61.5272 30.5899 60.5918 41.02Z" fill="#D2822C"/>
<g style="mix-blend-mode:screen" opacity="0.32">
<path d="M41.6191 38.7254C43.1279 36.237 44.7197 33.7562 46.334 31.2753C47.4505 29.5618 48.4236 27.5503 49.6382 25.8144C47.7279 25.0323 45.6699 24.664 43.6032 24.7342C40.7317 24.8482 37.9353 25.6731 35.4709 27.1331C36.2206 29.0587 37.1394 30.9159 38.2169 32.6834C39.4993 34.6353 40.563 36.6766 41.6191 38.7254Z" fill="#D79132"/>
</g>
<g style="mix-blend-mode:screen" opacity="0.32">
<path d="M43.1581 42.9197C42.3307 42.7489 41.4947 42.6221 40.6535 42.5398C39.4993 43.9851 33.8641 54.3407 32.5213 55.7487C34.7971 57.0969 37.4118 57.7838 40.0651 57.7304C42.3374 57.6789 44.5754 57.172 46.6433 56.2404C46.6433 56.2404 44.1614 46.0264 43.1581 42.9197Z" fill="#D79132"/>
</g>
<path d="M67.4039 43.8212C67.1101 45.382 66.6888 46.9168 66.144 48.4104L71.5605 50.6827C72.4222 48.4239 73.0515 46.0852 73.4389 43.702L67.4039 43.8212Z" fill="#CA1C18"/>
<path d="M18.4596 34.7396L13.526 32.6312C12.5855 34.7672 11.8554 36.9876 11.3458 39.2618L17.0414 39.1351C17.3976 37.6357 17.8718 36.1661 18.4596 34.7396V34.7396Z" fill="#CA1C18"/>
<path d="M67.8791 38.04L73.9141 37.9059C73.8896 35.6335 73.6165 33.3705 73.0994 31.1561L67.3737 33.5699C67.6752 35.0423 67.8443 36.5381 67.8791 38.04Z" fill="#CA1C18"/>
<path d="M16.2795 44.8269L10.5537 44.9387C10.4257 47.1917 10.5395 49.4517 10.8932 51.681L16.5284 49.2746C16.3192 47.8016 16.2359 46.3138 16.2795 44.8269V44.8269Z" fill="#CA1C18"/>
<path d="M17.9467 54.6089L12.2737 57.0301C13.0133 59.0817 13.9958 61.0397 15.2007 62.8635L19.9081 58.4382C19.1323 57.2264 18.4755 55.9441 17.9467 54.6089V54.6089Z" fill="#CA1C18"/>
<path d="M59.8676 20.9048L64.3562 16.6807C62.7667 15.3179 61.0164 14.1498 59.1434 13.2015L56.4276 18.573C57.6463 19.2411 58.7982 20.0219 59.8676 20.9048V20.9048Z" fill="#CA1C18"/>
<path d="M24.0873 25.8219L20.6247 21.8808C19.0124 23.6068 17.563 25.4746 16.2946 27.4609L21.2207 29.532C22.0837 28.2282 23.0418 26.9882 24.0873 25.8219Z" fill="#CA1C18"/>
<path d="M51.5317 16.5987L54.255 11.2496C52.196 10.6727 50.0781 10.3253 47.9408 10.214L47.3373 15.8909C48.7546 15.9982 50.1588 16.2352 51.5317 16.5987V16.5987Z" fill="#CA1C18"/>
<path d="M41.8681 16.0698L42.5017 10.4077C40.2829 10.6812 38.0987 11.1805 35.9839 11.8977L37.5379 17.0606C38.9516 16.6145 40.3998 16.2832 41.8681 16.0698Z" fill="#CA1C18"/>
<path d="M65.6386 28.3549L71.2964 25.9411C70.4138 23.9876 69.2996 22.1445 67.9772 20.4504L63.4509 24.7118C64.2979 25.8533 65.0306 27.0734 65.6386 28.3549Z" fill="#CA1C18"/>
<path d="M32.2723 19.2956L30.7636 14.1253C28.7085 15.2072 26.759 16.4741 24.9398 17.9099L28.425 21.8212C29.6417 20.8855 30.9277 20.0413 32.2723 19.2956V19.2956Z" fill="#CA1C18"/>
<path d="M41.8303 68.2722L41.1589 74.6644C43.5408 74.4232 45.8885 73.9235 48.1596 73.1744L46.417 67.2814C44.9211 67.7463 43.3861 68.0779 41.8303 68.2722V68.2722Z" fill="#CA1C18"/>
<path d="M51.9994 64.9272L53.7797 70.7978C55.9833 69.6268 58.0631 68.2417 59.9883 66.6631L56.073 62.193C54.7893 63.2078 53.4273 64.122 51.9994 64.9272V64.9272Z" fill="#CA1C18"/>
<path d="M31.7292 67.4304L28.757 73.316C30.8977 74.0393 33.1191 74.5045 35.3729 74.7017L36.0744 68.3244C34.5999 68.1677 33.1445 67.8683 31.7292 67.4304V67.4304Z" fill="#CA1C18"/>
<path d="M60.5692 57.9018L64.4919 62.3122C66.1521 60.4326 67.6249 58.3992 68.89 56.2404L63.466 53.9235C62.6065 55.3219 61.638 56.652 60.5692 57.9018V57.9018Z" fill="#CA1C18"/>
<path d="M23.348 62.5804L18.6256 67.0505C20.1631 68.5833 21.889 69.9198 23.763 71.0288L26.7805 65.1879C25.5502 64.4354 24.4001 63.5618 23.348 62.5804V62.5804Z" fill="#CA1C18"/>
<path d="M38.9335 68.466C37.9786 68.4718 37.024 68.4245 36.0744 68.3244L35.3729 74.7017C36.3083 74.7836 37.2664 74.8283 38.2471 74.8209C39.2277 74.8134 40.1934 74.7613 41.159 74.6644L41.8304 68.2722C40.8694 68.3929 39.9021 68.4576 38.9335 68.466V68.466Z" fill="#3C3C3C"/>
<path d="M44.6216 15.8313C45.5273 15.8025 46.4339 15.8223 47.3374 15.8909L47.9409 10.214C47.0507 10.1693 46.1454 10.1693 45.2251 10.214C44.3123 10.214 43.3995 10.3183 42.5018 10.4301L41.8681 16.0921C42.7805 15.9565 43.6997 15.8695 44.6216 15.8313Z" fill="#3C3C3C"/>
<path d="M56.0731 62.2154L59.9883 66.6854C61.6143 65.359 63.128 63.9039 64.5146 62.3345L60.5918 57.9241C59.2317 59.4974 57.7181 60.9348 56.0731 62.2154V62.2154Z" fill="#3C3C3C"/>
<path d="M28.425 21.8212L24.9247 17.9248C23.3948 19.1426 21.9576 20.4698 20.6248 21.8957L24.0874 25.8368C25.4031 24.3674 26.8553 23.023 28.425 21.8212Z" fill="#3C3C3C"/>
<path d="M67.8036 40.9008C67.7201 41.8803 67.5867 42.855 67.4038 43.8212L73.4389 43.702C73.5973 42.7335 73.718 41.7575 73.7934 40.7741C73.8689 39.7907 73.8915 38.8222 73.8839 37.8686L67.8489 38.0027C67.8861 38.9688 67.871 39.9362 67.8036 40.9008V40.9008Z" fill="#3C3C3C"/>
<path d="M16.5134 41.9736C16.6392 41.019 16.8154 40.0715 17.0414 39.1351L11.3459 39.2618C11.1346 40.193 10.9611 41.1392 10.8253 42.0928C10.6896 43.0464 10.6066 44 10.5538 44.9387L16.2795 44.8269C16.3097 43.8882 16.355 42.9346 16.5134 41.9736Z" fill="#3C3C3C"/>
<path d="M63.4735 24.7044L67.9998 20.4429C66.9239 19.0605 65.7109 17.7877 64.3788 16.6434L59.8676 20.9048C61.2209 22.0224 62.4318 23.2983 63.4735 24.7044V24.7044Z" fill="#3C3C3C"/>
<path d="M19.9081 58.4382L15.2007 62.8635C16.1961 64.3677 17.3436 65.768 18.6256 67.043L23.3481 62.573C22.0309 61.3421 20.8753 59.953 19.9081 58.4382V58.4382Z" fill="#3C3C3C"/>
<path d="M56.4276 18.5357L59.1434 13.1642C57.5828 12.3663 55.9452 11.7248 54.255 11.2496L51.5317 16.5987C53.2373 17.0455 54.8814 17.696 56.4276 18.5357V18.5357Z" fill="#3C3C3C"/>
<path d="M26.7503 65.1805L23.7328 71.0213C25.3128 71.9543 26.9864 72.7233 28.7268 73.316L31.699 67.4304C29.9607 66.8878 28.2981 66.1319 26.7503 65.1805V65.1805Z" fill="#3C3C3C"/>
<path d="M37.5379 17.0457L35.9688 11.8828C34.1649 12.4858 32.414 13.2333 30.7334 14.1179L32.2422 19.2882C33.9276 18.3689 35.7017 17.6177 37.5379 17.0457V17.0457Z" fill="#3C3C3C"/>
<path d="M46.417 67.3038L48.1596 73.1968C50.0994 72.5584 51.9798 71.7558 53.7797 70.7978L51.9994 64.9272C50.228 65.9103 48.357 66.7069 46.417 67.3038Z" fill="#3C3C3C"/>
<path d="M21.2207 29.532L16.2946 27.4609C15.2359 29.11 14.3102 30.8388 13.526 32.6312L18.4596 34.7396C19.2119 32.9218 20.1364 31.1781 21.2207 29.532V29.532Z" fill="#3C3C3C"/>
<path d="M63.4659 53.9235L68.8899 56.2404C69.931 54.4623 70.8241 52.6036 71.5604 50.6827L66.144 48.4104C65.4357 50.33 64.5387 52.1765 63.4659 53.9235V53.9235Z" fill="#3C3C3C"/>
<path d="M16.5284 49.2746L10.8932 51.681C11.182 53.503 11.6442 55.2939 12.2737 57.0301L17.9467 54.6089C17.2679 52.8905 16.792 51.1006 16.5284 49.2746V49.2746Z" fill="#3C3C3C"/>
<path d="M67.3737 33.5699L73.0692 31.1412C72.6443 29.3521 72.0508 27.6061 71.2964 25.9262L65.6386 28.34C66.4211 30.0107 67.0034 31.7659 67.3737 33.5699V33.5699Z" fill="#3C3C3C"/>
<path d="M47.9408 38.785L42.1849 40.0813L41.8379 41.5191L45.9266 45.2889C45.9266 45.2889 49.8645 42.875 47.9408 38.785Z" fill="#E0D4C6"/>
<g style="mix-blend-mode:multiply" opacity="0.55">
<path d="M44.7573 43.5828C46.7489 42.3237 46.6131 40.9082 46.1454 39.1723L42.1849 40.0589L41.8379 41.4968L44.4028 43.8584C44.5128 43.7567 44.6314 43.6645 44.7573 43.5828V43.5828Z" fill="#E4B97D"/>
</g>
<path d="M52.5803 51.45L51.0715 52.8805L31.5708 30.8209L33.0418 29.45L52.5803 51.45Z" fill="#FFC400"/>
<path d="M33.9395 28.6082C34.2764 29.0553 34.4281 29.6124 34.3636 30.1661C34.2992 30.7197 34.0234 31.2283 33.5925 31.5882C33.4083 31.7878 33.1851 31.9486 32.9363 32.0609C32.6876 32.1731 32.4185 32.2346 32.1451 32.2415C31.8717 32.2485 31.5997 32.2008 31.3454 32.1013C31.0912 32.0019 30.8599 31.8527 30.6655 31.6627C30.3286 31.2145 30.1783 30.6558 30.2457 30.1015C30.313 29.5472 30.5928 29.0395 31.0276 28.6827C31.2105 28.4835 31.4324 28.3231 31.6799 28.211C31.9273 28.0989 32.1953 28.0375 32.4674 28.0305C32.7396 28.0236 33.0104 28.0712 33.2634 28.1704C33.5164 28.2697 33.7464 28.4187 33.9395 28.6082V28.6082Z" fill="#FFC400"/>
<path d="M53.4931 50.5709C53.8556 51.0346 54.0268 51.6167 53.9722 52.2C53.9176 52.7834 53.6413 53.3246 53.1989 53.7149C53.0075 53.9197 52.7759 54.084 52.5182 54.1978C52.2605 54.3115 51.9821 54.3723 51.6998 54.3765C51.4176 54.3807 51.1374 54.3282 50.8764 54.2221C50.6154 54.116 50.3789 53.9587 50.1814 53.7596C49.8212 53.2953 49.6528 52.7133 49.7102 52.1311C49.7676 51.549 50.0465 51.01 50.4907 50.6231C50.6814 50.42 50.9116 50.2571 51.1677 50.1441C51.4237 50.0311 51.7002 49.9703 51.9806 49.9654C52.261 49.9606 52.5395 50.0117 52.7994 50.1157C53.0593 50.2198 53.2953 50.3746 53.4931 50.5709V50.5709Z" fill="#FFC400"/>
<path d="M53.4101 28.9062L54.6171 30.2174L30.228 53.2083L29.0511 51.83L53.4101 28.9062Z" fill="#FFC400"/>
<path d="M28.3345 50.9956C28.5211 50.7833 28.7508 50.6122 29.0087 50.4933C29.2666 50.3744 29.5469 50.3104 29.8315 50.3055C30.1161 50.3006 30.3985 50.3548 30.6605 50.4648C30.9224 50.5747 31.1581 50.7378 31.352 50.9435C31.6929 51.4139 31.8439 51.9929 31.7755 52.5674C31.7072 53.1419 31.4244 53.6705 30.9824 54.0501C30.7959 54.2629 30.566 54.4344 30.3078 54.5534C30.0495 54.6723 29.7687 54.7359 29.4838 54.7402C29.1988 54.7444 28.9162 54.6891 28.6545 54.5779C28.3927 54.4666 28.1577 54.302 27.9649 54.0948C27.6245 53.6256 27.4737 53.0478 27.5421 52.4745C27.6105 51.9013 27.8931 51.3739 28.3345 50.9956V50.9956Z" fill="#FFC400"/>
<path d="M52.6708 28.1016C52.8596 27.902 53.0866 27.7414 53.3387 27.6291C53.5909 27.5168 53.8631 27.455 54.1396 27.4474C54.416 27.4398 54.6913 27.4864 54.9494 27.5846C55.2075 27.6829 55.4433 27.8307 55.643 28.0196C55.9924 28.4575 56.1575 29.0114 56.1041 29.5664C56.0507 30.1213 55.7829 30.6346 55.3564 30.9997C55.1681 31.2017 54.9405 31.3643 54.6873 31.4778C54.4341 31.5913 54.1604 31.6534 53.8824 31.6603C53.6045 31.6673 53.3279 31.619 53.0692 31.5183C52.8105 31.4176 52.575 31.2666 52.3766 31.0742C52.0322 30.6352 51.8708 30.0828 51.9255 29.5301C51.9802 28.9775 52.2468 28.4664 52.6708 28.1016V28.1016Z" fill="#FFC400"/>
<path d="M44.1915 38.785C44.6751 39.4157 44.8981 40.2043 44.8155 40.9912C44.7329 41.7781 44.3508 42.5047 43.7464 43.024C43.4862 43.3083 43.1699 43.537 42.8168 43.696C42.4638 43.8551 42.0815 43.941 41.6936 43.9487C41.3056 43.9564 40.9202 43.8856 40.561 43.7407C40.2018 43.5957 39.8764 43.3797 39.6049 43.106C39.1262 42.4731 38.9083 41.6845 38.9951 40.8992C39.0819 40.1139 39.467 39.3904 40.0726 38.8744C40.3321 38.5931 40.6467 38.3668 40.9973 38.2092C41.348 38.0516 41.7275 37.9661 42.1127 37.9577C42.4978 37.9493 42.8807 38.0184 43.2381 38.1606C43.5955 38.3028 43.9198 38.5152 44.1915 38.785V38.785Z" fill="#FFC400"/>
<path d="M42.2377 38.785C42.6298 38.7435 43.0231 38.8516 43.3372 39.087C43.6513 39.3224 43.8624 39.6674 43.9275 40.0515C43.9773 40.2301 43.9903 40.4167 43.9658 40.6004C43.9413 40.784 43.8797 40.9609 43.7848 41.1207C43.6898 41.2804 43.5634 41.4197 43.413 41.5304C43.2626 41.6411 43.0913 41.7208 42.9091 41.765C42.5175 41.8024 42.1261 41.6917 41.8139 41.4553C41.5016 41.2188 41.2919 40.8743 41.2268 40.491C41.177 40.3134 41.1638 40.1277 41.1879 39.945C41.212 39.7623 41.273 39.5861 41.3673 39.4271C41.4615 39.268 41.5871 39.1292 41.7366 39.019C41.8861 38.9087 42.0565 38.8291 42.2377 38.785V38.785Z" fill="#FFF3D9"/>
<g style="mix-blend-mode:multiply" opacity="0.55">
<path d="M77.9426 46.4511C67.7509 50.9211 56.3145 55.9499 44.8705 54.7728C26.0789 52.8358 16.9585 38.1443 14.8009 21.5903C9.56151 27.8279 6.13081 35.3506 4.87329 43.3593C1.65209 64.8602 16.0079 83.0681 37.5153 83.0681C58.2457 83.0681 76.6903 66.231 79.9417 45.5943C79.2627 45.8774 78.5989 46.1605 77.9426 46.4511Z" fill="#9D7A6F"/>
</g>
<path d="M82.8006 45.1282C82.8006 48.5853 79.9645 51.3974 76.454 51.3974C72.9435 51.3974 70.1074 48.5853 70.1074 45.1282C70.1074 41.6712 72.9435 38.859 76.454 38.859C79.9645 38.859 82.8006 41.6712 82.8006 45.1282Z" fill="#C4C4C4" fill-opacity="0.43" stroke="black"/>
<path d="M75.351 47.1346H76.2826C76.5482 47.1346 76.767 47.0877 76.9388 46.9939C77.1146 46.9002 77.2435 46.7674 77.3256 46.5955C77.4115 46.4236 77.4545 46.2225 77.4545 45.992C77.4545 45.7928 77.4154 45.615 77.3373 45.4588C77.2592 45.3025 77.14 45.1795 76.9799 45.0896C76.8236 44.9959 76.6205 44.949 76.3705 44.949C76.1908 44.949 76.0189 44.9861 75.8549 45.0603C75.6947 45.1307 75.5638 45.2342 75.4623 45.3709C75.3607 45.5037 75.3099 45.6639 75.3099 45.8514H73.476C73.476 45.3748 73.6049 44.9627 73.8627 44.615C74.1244 44.2674 74.4701 43.9998 74.8998 43.8123C75.3334 43.6209 75.806 43.5252 76.3177 43.5252C76.9076 43.5252 77.4252 43.6189 77.8705 43.8064C78.3197 43.99 78.6674 44.2635 78.9135 44.6268C79.1635 44.9861 79.2885 45.4314 79.2885 45.9627C79.2885 46.24 79.222 46.5076 79.0892 46.7654C78.9603 47.0193 78.7748 47.2459 78.5326 47.4451C78.2943 47.6404 78.0092 47.7967 77.6771 47.9139C77.349 48.0271 76.9838 48.0838 76.5814 48.0838H75.351V47.1346ZM75.351 48.5115V47.5799H76.5814C77.0267 47.5799 77.4252 47.6307 77.7767 47.7322C78.1283 47.8338 78.4271 47.9803 78.6732 48.1717C78.9193 48.3631 79.1068 48.5955 79.2357 48.8689C79.3646 49.1424 79.4291 49.4471 79.4291 49.783C79.4291 50.1814 79.351 50.5369 79.1947 50.8494C79.0385 51.1619 78.8197 51.4256 78.5385 51.6404C78.2572 51.8553 77.9271 52.0193 77.5482 52.1326C77.1693 52.242 76.7592 52.2967 76.3177 52.2967C75.9623 52.2967 75.6088 52.2478 75.2572 52.1502C74.9056 52.0525 74.5873 51.9041 74.3021 51.7049C74.017 51.5018 73.7885 51.2459 73.6166 50.9373C73.4447 50.6248 73.3588 50.2537 73.3588 49.824H75.1927C75.1927 50.0232 75.2435 50.2029 75.3451 50.3631C75.4506 50.5193 75.5931 50.6443 75.7728 50.7381C75.9564 50.8279 76.1556 50.8728 76.3705 50.8728C76.6283 50.8728 76.847 50.826 77.0267 50.7322C77.2103 50.6346 77.349 50.5018 77.4427 50.3338C77.5404 50.1658 77.5892 49.9725 77.5892 49.7537C77.5892 49.4568 77.5365 49.2186 77.431 49.0389C77.3295 48.8553 77.181 48.7225 76.9857 48.6404C76.7904 48.5545 76.556 48.5115 76.2826 48.5115H75.351Z" fill="black"/>
</g>
<defs>
<clipPath id="clip0_9_2641">
<rect width="93" height="88" fill="white"/>
</clipPath>
</defs>
</svg>
