<svg width="141" height="123" viewBox="0 0 141 123" fill="none" xmlns="http://www.w3.org/2000/svg">
<g style="mix-blend-mode:luminosity">
<g clip-path="url(#clip0_9_2216)">
<path d="M136.616 86.1036H124.428V49.8512H136.616C136.616 49.8512 139.072 52.3058 139.072 67.7879C139.072 83.2699 136.616 86.1036 136.616 86.1036Z" fill="url(#paint0_linear_9_2216)"/>
<path style="mix-blend-mode:multiply" d="M132.501 56.7367C132.501 56.7367 132.164 55.6969 130.814 56.2827C129.298 56.9423 129.43 58.1993 129.43 58.1993L136.587 84.4334L137.76 83.8786L132.501 56.7367Z" fill="url(#paint1_linear_9_2216)"/>
<path d="M129.232 56.3419C129.232 56.3419 129.007 57.6822 130.899 58.0077C133.348 58.4289 133.622 56.9087 133.622 56.9087L139.444 30.4403L137.822 29.996L129.232 56.3419Z" fill="url(#paint2_linear_9_2216)"/>
<path d="M138.926 66.1024C138.926 69.5077 136.166 72.2682 132.76 72.2682C129.355 72.2682 126.595 69.5077 126.595 66.1024C126.595 62.6971 129.355 59.9366 132.76 59.9366C136.166 59.9366 138.926 62.6971 138.926 66.1024Z" fill="#C4C4C4" fill-opacity="0.43" stroke="black"/>
<path d="M135.879 71.7902V73.214H129.984V72.007L132.738 69.089C132.996 68.7922 133.201 68.5304 133.353 68.3039C133.509 68.0773 133.623 67.8722 133.693 67.6886C133.763 67.5011 133.799 67.3293 133.799 67.173C133.799 66.9191 133.758 66.7043 133.675 66.5285C133.597 66.3527 133.482 66.2179 133.33 66.1242C133.177 66.0304 132.992 65.9836 132.773 65.9836C132.539 65.9836 132.338 66.0441 132.17 66.1652C132.002 66.2863 131.873 66.4543 131.783 66.6691C131.693 66.8801 131.648 67.1203 131.648 67.3898H129.808C129.808 66.8703 129.933 66.3976 130.183 65.9718C130.433 65.5422 130.783 65.2004 131.232 64.9465C131.681 64.6886 132.207 64.5597 132.808 64.5597C133.425 64.5597 133.943 64.6574 134.361 64.8527C134.779 65.048 135.095 65.3273 135.31 65.6906C135.525 66.0539 135.633 66.4914 135.633 67.0031C135.633 67.2922 135.586 67.5715 135.492 67.841C135.402 68.1105 135.271 68.3781 135.099 68.6437C134.927 68.9093 134.72 69.1808 134.478 69.4582C134.236 69.7316 133.963 70.0207 133.658 70.3254L132.369 71.7902H135.879Z" fill="black"/>
</g>
<path d="M122.731 103.85H16.9407C16.0187 103.847 15.1358 103.478 14.4859 102.824C13.8359 102.17 13.4722 101.285 13.4746 100.363V40.2001V40.0218C13.3205 31.8083 16.7322 23.9061 23.3411 17.1703C33.8905 6.41845 51.2693 -3.05176e-05 69.8358 -3.05176e-05C100.565 -3.05176e-05 125.84 17.4181 126.197 38.8282V38.8735C126.197 39.0336 126.197 39.1999 126.197 39.3661V100.363C126.199 101.285 125.836 102.17 125.186 102.824C124.536 103.478 123.653 103.847 122.731 103.85ZM15.0339 39.224V40.0067V100.363C15.0307 100.87 15.2287 101.357 15.5845 101.718C15.9404 102.079 16.4248 102.284 16.9316 102.288H122.722C123.228 102.283 123.712 102.078 124.068 101.717C124.424 101.356 124.622 100.869 124.62 100.363V38.8674C124.465 28.9768 118.694 19.6362 108.368 12.5771C97.9786 5.47562 84.2894 1.5653 69.8237 1.5653C51.6682 1.5653 34.7064 7.80852 24.444 18.2642C18.3519 24.4833 15.1064 31.7146 15.0339 39.224Z" fill="url(#paint3_linear_9_2216)"/>
<path d="M137.937 121.764C137.937 122.293 137.399 122.719 136.728 122.719H1.20875C0.546961 122.719 0 122.293 0 121.764V115.85C0 115.324 0.540917 114.898 1.20875 114.898H136.734C137.248 114.898 137.943 115.324 137.943 115.85L137.937 121.764Z" fill="url(#paint4_linear_9_2216)"/>
<path d="M138.52 114.43H0.81897L15.5114 102.696H124.61L138.52 114.43Z" fill="url(#paint5_linear_9_2216)"/>
<path d="M125.411 100.363C125.415 100.718 125.348 101.07 125.215 101.399C125.082 101.728 124.886 102.027 124.637 102.28C124.388 102.533 124.091 102.734 123.764 102.871C123.437 103.009 123.086 103.081 122.731 103.082H16.9408C16.5859 103.081 16.2349 103.009 15.9078 102.871C15.5808 102.734 15.2842 102.533 15.0351 102.28C14.786 102.027 14.5893 101.728 14.4564 101.399C14.3234 101.07 14.2568 100.718 14.2604 100.363V38.8735C14.2568 38.5186 14.3234 38.1665 14.4564 37.8375C14.5893 37.5085 14.786 37.209 15.0351 36.9562C15.2842 36.7035 15.5808 36.5025 15.9078 36.3648C16.2349 36.227 16.5859 36.1553 16.9408 36.1538H122.731C123.086 36.1553 123.437 36.227 123.764 36.3648C124.091 36.5025 124.388 36.7035 124.637 36.9562C124.886 37.209 125.082 37.5085 125.215 37.8375C125.348 38.1665 125.415 38.5186 125.411 38.8735V100.363Z" fill="url(#paint6_linear_9_2216)"/>
<path d="M114.088 44.3642H25.5832C24.1363 44.3642 22.9633 45.5372 22.9633 46.9842V92.252C22.9633 93.699 24.1363 94.872 25.5832 94.872H114.088C115.535 94.872 116.708 93.699 116.708 92.252V46.9842C116.708 45.5372 115.535 44.3642 114.088 44.3642Z" fill="url(#paint7_linear_9_2216)"/>
<path d="M106.836 49.8217H32.8329C31.7214 49.8217 30.8203 50.7228 30.8203 51.8343V87.4079C30.8203 88.5195 31.7214 89.4205 32.8329 89.4205H106.836C107.947 89.4205 108.848 88.5195 108.848 87.4079V51.8343C108.848 50.7228 107.947 49.8217 106.836 49.8217Z" fill="url(#paint8_linear_9_2216)"/>
<path d="M54.403 52.9131H35.4769C34.9946 52.9131 34.6036 53.3041 34.6036 53.7865V85.3772C34.6036 85.8596 34.9946 86.2506 35.4769 86.2506H54.403C54.8853 86.2506 55.2763 85.8596 55.2763 85.3772V53.7865C55.2763 53.3041 54.8853 52.9131 54.403 52.9131Z" fill="url(#paint9_linear_9_2216)"/>
<path d="M54.1825 85.3772C54.194 85.5962 54.1186 85.8109 53.9725 85.9745C53.8265 86.1381 53.6217 86.2373 53.4028 86.2506H36.4803C36.2614 86.2373 36.0566 86.1381 35.9106 85.9745C35.7645 85.8109 35.6891 85.5962 35.7006 85.3772V53.7865C35.6899 53.5677 35.7656 53.3534 35.9115 53.19C36.0574 53.0266 36.2617 52.9272 36.4803 52.9131H53.4028C53.6214 52.9272 53.8257 53.0266 53.9716 53.19C54.1175 53.3534 54.1932 53.5677 54.1825 53.7865V85.3772Z" fill="url(#paint10_linear_9_2216)"/>
<path d="M52.8709 57.0622H37.003C36.5207 57.0622 36.1297 57.4532 36.1297 57.9355V81.2282C36.1297 81.7105 36.5207 82.1015 37.003 82.1015H52.8709C53.3533 82.1015 53.7443 81.7105 53.7443 81.2282V57.9355C53.7443 57.4532 53.3533 57.0622 52.8709 57.0622Z" fill="url(#paint11_linear_9_2216)"/>
<path style="mix-blend-mode:screen" d="M44.9022 67.3759C41.9373 67.3656 38.9816 67.7053 36.0964 68.3882V58.0685C36.0964 57.8368 36.1885 57.6147 36.3522 57.4509C36.516 57.2871 36.7381 57.1951 36.9698 57.1951H52.8377C53.0693 57.1951 53.2914 57.2871 53.4552 57.4509C53.619 57.6147 53.711 57.8368 53.711 58.0685V68.3822C50.8245 67.7015 47.8678 67.3638 44.9022 67.3759Z" fill="url(#paint12_linear_9_2216)"/>
<path d="M79.3004 52.9131H60.3743C59.892 52.9131 59.501 53.3041 59.501 53.7865V85.3772C59.501 85.8596 59.892 86.2506 60.3743 86.2506H79.3004C79.7827 86.2506 80.1737 85.8596 80.1737 85.3772V53.7865C80.1737 53.3041 79.7827 52.9131 79.3004 52.9131Z" fill="url(#paint13_linear_9_2216)"/>
<path d="M79.0798 85.3772C79.0914 85.5962 79.0159 85.8109 78.8699 85.9745C78.7238 86.1381 78.5191 86.2373 78.3002 86.2506H61.3776C61.1582 86.2381 60.9526 86.1392 60.806 85.9755C60.6593 85.8118 60.5834 85.5967 60.595 85.3772V53.7865C60.5842 53.5672 60.6604 53.3525 60.8069 53.189C60.9534 53.0255 61.1585 52.9264 61.3776 52.9131H78.3002C78.5188 52.9272 78.7231 53.0266 78.8689 53.19C79.0148 53.3534 79.0906 53.5677 79.0798 53.7865V85.3772Z" fill="url(#paint14_linear_9_2216)"/>
<path d="M77.7682 57.0622H61.9003C61.418 57.0622 61.027 57.4532 61.027 57.9355V81.2282C61.027 81.7105 61.418 82.1015 61.9003 82.1015H77.7682C78.2505 82.1015 78.6415 81.7105 78.6415 81.2282V57.9355C78.6415 57.4532 78.2505 57.0622 77.7682 57.0622Z" fill="url(#paint15_linear_9_2216)"/>
<path style="mix-blend-mode:screen" d="M69.7905 67.3759C66.8256 67.3656 63.8699 67.7053 60.9847 68.3882V58.0685C60.9847 57.9538 61.0073 57.8402 61.0512 57.7343C61.095 57.6283 61.1594 57.532 61.2405 57.4509C61.3216 57.3698 61.4178 57.3055 61.5238 57.2616C61.6298 57.2177 61.7433 57.1951 61.858 57.1951H77.7259C77.9575 57.1951 78.1797 57.2871 78.3435 57.4509C78.5073 57.6147 78.5993 57.8368 78.5993 58.0685V68.3822C75.7128 67.7015 72.7561 67.3638 69.7905 67.3759Z" fill="url(#paint16_linear_9_2216)"/>
<path d="M104.198 52.9131H85.2716C84.7893 52.9131 84.3983 53.3041 84.3983 53.7865V85.3772C84.3983 85.8596 84.7893 86.2506 85.2716 86.2506H104.198C104.68 86.2506 105.071 85.8596 105.071 85.3772V53.7865C105.071 53.3041 104.68 52.9131 104.198 52.9131Z" fill="url(#paint17_linear_9_2216)"/>
<path d="M103.977 85.3772C103.989 85.5962 103.913 85.8109 103.767 85.9745C103.621 86.1381 103.416 86.2373 103.197 86.2506H86.2749C86.0554 86.2381 85.8499 86.1392 85.7032 85.9755C85.5565 85.8118 85.4806 85.5967 85.4922 85.3772V53.7865C85.4814 53.5672 85.5576 53.3525 85.7041 53.189C85.8507 53.0255 86.0557 52.9264 86.2749 52.9131H103.197C103.416 52.9272 103.62 53.0266 103.766 53.19C103.912 53.3534 103.988 53.5677 103.977 53.7865V85.3772Z" fill="url(#paint18_linear_9_2216)"/>
<path d="M102.666 57.0622H86.7977C86.3154 57.0622 85.9244 57.4532 85.9244 57.9355V81.2282C85.9244 81.7105 86.3154 82.1015 86.7977 82.1015H102.666C103.148 82.1015 103.539 81.7105 103.539 81.2282V57.9355C103.539 57.4532 103.148 57.0622 102.666 57.0622Z" fill="url(#paint19_linear_9_2216)"/>
<path style="mix-blend-mode:screen" d="M94.6877 67.3759C91.7228 67.3658 88.7671 67.7055 85.8819 68.3882V58.0685C85.8819 57.8368 85.9739 57.6147 86.1377 57.4509C86.3015 57.2871 86.5236 57.1951 86.7552 57.1951H102.62C102.852 57.1951 103.074 57.2871 103.238 57.4509C103.401 57.6147 103.493 57.8368 103.493 58.0685V68.3822C100.608 67.7018 97.6523 67.364 94.6877 67.3759Z" fill="url(#paint20_linear_9_2216)"/>
<path d="M125.411 40.0067C125.822 18.3277 100.571 0.782593 69.8357 0.782593C39.1002 0.782593 13.6831 18.4395 14.2603 40.0067H125.411Z" fill="url(#paint21_linear_9_2216)"/>
<path d="M138.641 114.989H0.707178C0.622565 114.384 0.921737 114.318 1.18464 114.318H138.179C138.442 114.315 138.702 114.418 138.641 114.989Z" fill="url(#paint22_linear_9_2216)"/>
<path d="M95.5037 107.235V108.939C95.5037 110.849 101.067 112.399 107.927 112.399C114.786 112.399 120.347 110.849 120.347 108.939V107.235H95.5037Z" fill="url(#paint23_linear_9_2216)"/>
<path d="M120.347 107.241C120.347 109.15 114.786 110.701 107.924 110.701C101.061 110.701 95.5037 109.15 95.5037 107.241C95.5037 105.331 101.064 103.781 107.924 103.781C114.783 103.781 120.347 105.331 120.347 107.241Z" fill="url(#paint24_linear_9_2216)"/>
<path d="M97.483 102.992V106.494C97.483 108.162 102.158 109.516 107.93 109.516C113.701 109.516 118.373 108.162 118.373 106.494V102.992H97.483Z" fill="url(#paint25_linear_9_2216)"/>
<path d="M118.37 103.037C118.37 104.708 113.695 106.059 107.924 106.059C102.152 106.059 97.48 104.705 97.48 103.037C97.48 101.369 102.155 100.015 107.924 100.015C113.692 100.015 118.37 101.369 118.37 103.037Z" fill="url(#paint26_linear_9_2216)"/>
<path d="M18.8747 109.111V110.196C18.8747 111.405 22.4133 112.399 26.783 112.399C31.1526 112.399 34.6882 111.411 34.6882 110.196V109.111H18.8747Z" fill="url(#paint27_linear_9_2216)"/>
<path d="M34.6882 109.114C34.6882 110.323 31.1496 111.317 26.78 111.317C22.4103 111.317 18.8747 110.329 18.8747 109.114C18.8747 107.899 22.4133 106.914 26.78 106.914C31.1466 106.914 34.6882 107.899 34.6882 109.114Z" fill="url(#paint28_linear_9_2216)"/>
<path d="M20.1228 106.41V108.64C20.1228 109.7 23.0994 110.565 26.7709 110.565C30.4425 110.565 33.4191 109.7 33.4191 108.64V106.41H20.1228Z" fill="url(#paint29_linear_9_2216)"/>
<path d="M33.4191 106.44C33.4191 107.503 30.4425 108.365 26.7709 108.365C23.0994 108.365 20.1228 107.503 20.1228 106.44C20.1228 105.376 23.0994 104.515 26.7709 104.515C30.4425 104.515 33.4191 105.376 33.4191 106.44Z" fill="url(#paint30_linear_9_2216)"/>
<path d="M36.0149 109.111V110.196C36.0149 111.405 39.5565 112.399 43.9232 112.399C48.2898 112.399 51.8314 111.411 51.8314 110.196V109.111H36.0149Z" fill="url(#paint31_linear_9_2216)"/>
<path d="M51.8314 109.114C51.8314 110.323 48.2898 111.317 43.9232 111.317C39.5565 111.317 36.0149 110.329 36.0149 109.114C36.0149 107.899 39.5565 106.914 43.9232 106.914C48.2898 106.914 51.8314 107.899 51.8314 109.114Z" fill="url(#paint32_linear_9_2216)"/>
<path d="M37.275 106.41V108.64C37.275 109.7 40.2516 110.565 43.9232 110.565C47.5948 110.565 50.5713 109.7 50.5713 108.64V106.41H37.275Z" fill="url(#paint33_linear_9_2216)"/>
<path d="M50.5744 106.44C50.5744 107.503 47.5948 108.365 43.9262 108.365C40.2577 108.365 37.2781 107.503 37.2781 106.44C37.2781 105.376 40.2546 104.515 43.9262 104.515C47.5978 104.515 50.5744 105.376 50.5744 106.44Z" fill="url(#paint34_linear_9_2216)"/>
<path d="M53.158 109.111V110.196C53.158 111.405 56.6967 112.399 61.0633 112.399C65.4299 112.399 68.9716 111.411 68.9716 110.196V109.111H53.158Z" fill="url(#paint35_linear_9_2216)"/>
<path d="M68.9716 109.114C68.9716 110.323 65.4329 111.317 61.0633 111.317C56.6936 111.317 53.158 110.329 53.158 109.114C53.158 107.899 56.6967 106.914 61.0633 106.914C65.4299 106.914 68.9716 107.899 68.9716 109.114Z" fill="url(#paint36_linear_9_2216)"/>
<path d="M54.4151 106.41V108.64C54.4151 109.7 57.3917 110.565 61.0632 110.565C64.7348 110.565 67.7114 109.7 67.7114 108.64V106.41H54.4151Z" fill="url(#paint37_linear_9_2216)"/>
<path d="M67.7145 106.44C67.7145 107.503 64.7379 108.365 61.0664 108.365C57.3948 108.365 54.4182 107.503 54.4182 106.44C54.4182 105.376 57.3948 104.515 61.0664 104.515C64.7379 104.515 67.7145 105.376 67.7145 106.44Z" fill="url(#paint38_linear_9_2216)"/>
<path d="M18.781 38.8191C18.2135 38.8185 17.6589 38.6497 17.1872 38.334C16.7156 38.0183 16.3481 37.5699 16.1312 37.0455C15.9143 36.5211 15.8577 35.9441 15.9686 35.3875C16.0794 34.8309 16.3528 34.3196 16.7541 33.9183C17.1554 33.517 17.6666 33.2437 18.2232 33.1328C18.7798 33.0219 19.3568 33.0785 19.8813 33.2954C20.4057 33.5124 20.8541 33.8799 21.1698 34.3515C21.4854 34.8231 21.6542 35.3777 21.6548 35.9453C21.6573 36.3233 21.5846 36.6981 21.441 37.0479C21.2974 37.3976 21.0858 37.7154 20.8185 37.9827C20.5512 38.2501 20.2334 38.4617 19.8836 38.6052C19.5339 38.7488 19.1591 38.8215 18.781 38.8191ZM18.781 33.9659C18.2558 33.9659 17.752 34.1744 17.3804 34.5455C17.0087 34.9166 16.7995 35.42 16.7987 35.9453C16.7995 36.47 17.0083 36.973 17.3793 37.344C17.7503 37.715 18.2533 37.9238 18.778 37.9246C19.1715 37.9268 19.5567 37.8118 19.8844 37.594C20.2122 37.3763 20.4676 37.0659 20.6181 36.7023C20.7686 36.3387 20.8073 35.9386 20.7293 35.5529C20.6513 35.1672 20.4601 34.8136 20.1802 34.5371C19.9967 34.3544 19.7788 34.2099 19.5392 34.1119C19.2996 34.0139 19.0429 33.9643 18.7841 33.9659H18.781Z" fill="url(#paint39_linear_9_2216)"/>
<path d="M20.2014 37.3656C20.5315 37.0369 20.7374 36.604 20.784 36.1405C20.8306 35.6771 20.715 35.2118 20.4568 34.824C20.1987 34.4363 19.8141 34.1501 19.3686 34.0142C18.9231 33.8783 18.4442 33.9012 18.0136 34.0789C17.5831 34.2566 17.2275 34.5782 17.0075 34.9888C16.7875 35.3994 16.7168 35.8735 16.8073 36.3305C16.8979 36.7874 17.1441 37.1987 17.504 37.4944C17.8639 37.7901 18.3153 37.9517 18.7811 37.9518C19.3135 37.9522 19.8243 37.7414 20.2014 37.3656Z" fill="url(#paint40_radial_9_2216)"/>
<path d="M18.5574 52.6684C17.7958 52.6684 17.0652 52.366 16.5264 51.8278C15.9875 51.2895 15.6844 50.5593 15.6836 49.7976C15.683 49.2291 15.851 48.6732 16.1664 48.2002C16.4819 47.7272 16.9305 47.3584 17.4556 47.1404C17.9806 46.9224 18.5585 46.8651 19.1162 46.9756C19.6739 47.0862 20.1862 47.3596 20.5884 47.7614C20.9906 48.1632 21.2647 48.6753 21.3758 49.2328C21.4869 49.7904 21.4302 50.3684 21.2128 50.8937C20.9953 51.419 20.627 51.868 20.1543 52.1839C19.6817 52.4998 19.1259 52.6684 18.5574 52.6684ZM18.5574 47.8334C18.1661 47.8336 17.7836 47.9498 17.4582 48.1673C17.1329 48.3848 16.8794 48.6938 16.7296 49.0554C16.5799 49.417 16.5407 49.8148 16.617 50.1986C16.6933 50.5825 16.8817 50.9351 17.1583 51.2119C17.3413 51.3966 17.5592 51.5431 17.7995 51.6427C18.0397 51.7423 18.2974 51.7931 18.5574 51.7921C19.0821 51.7913 19.5851 51.5825 19.9561 51.2114C20.3271 50.8404 20.5359 50.3374 20.5367 49.8127C20.5359 49.288 20.3271 48.785 19.9561 48.414C19.5851 48.043 19.0821 47.8342 18.5574 47.8334Z" fill="url(#paint41_linear_9_2216)"/>
<path d="M19.9777 51.2239C20.3055 50.8954 20.5093 50.4633 20.5544 50.0014C20.5994 49.5394 20.4829 49.0762 20.2247 48.6905C19.9666 48.3048 19.5827 48.0205 19.1384 47.8861C18.6942 47.7517 18.2171 47.7754 17.7884 47.9533C17.3597 48.1312 17.0059 48.4521 16.7873 48.8616C16.5687 49.271 16.4988 49.7435 16.5895 50.1987C16.6802 50.6539 16.9258 51.0636 17.2847 51.3579C17.6435 51.6523 18.0933 51.8132 18.5574 51.8132C19.0903 51.8128 19.6011 51.6009 19.9777 51.2239Z" fill="url(#paint42_radial_9_2216)"/>
<path d="M18.5574 68.08C17.7958 68.08 17.0652 67.7776 16.5264 67.2393C15.9875 66.701 15.6844 65.9709 15.6836 65.2092C15.683 64.6407 15.851 64.0848 16.1664 63.6118C16.4819 63.1388 16.9305 62.77 17.4556 62.552C17.9806 62.334 18.5585 62.2767 19.1162 62.3872C19.6739 62.4978 20.1862 62.7712 20.5884 63.173C20.9906 63.5748 21.2647 64.0869 21.3758 64.6444C21.4869 65.202 21.4302 65.7799 21.2128 66.3052C20.9953 66.8305 20.627 67.2795 20.1543 67.5955C19.6817 67.9114 19.1259 68.08 18.5574 68.08ZM18.5574 63.245C18.1661 63.2452 17.7836 63.3613 17.4582 63.5788C17.1329 63.7964 16.8794 64.1054 16.7296 64.467C16.5799 64.8285 16.5407 65.2264 16.617 65.6102C16.6933 65.994 16.8817 66.3466 17.1583 66.6234C17.3413 66.8082 17.5592 66.9547 17.7995 67.0543C18.0397 67.1539 18.2974 67.2047 18.5574 67.2036C19.0821 67.2028 19.5851 66.994 19.9561 66.623C20.3271 66.252 20.5359 65.749 20.5367 65.2243C20.5359 64.6996 20.3271 64.1966 19.9561 63.8256C19.5851 63.4546 19.0821 63.2458 18.5574 63.245Z" fill="url(#paint43_linear_9_2216)"/>
<path d="M19.9777 66.6355C20.3055 66.307 20.5093 65.8749 20.5544 65.413C20.5994 64.9511 20.4829 64.4878 20.2247 64.1021C19.9666 63.7164 19.5827 63.4321 19.1384 63.2977C18.6942 63.1633 18.2171 63.187 17.7884 63.3649C17.3597 63.5428 17.0059 63.8638 16.7873 64.2732C16.5687 64.6826 16.4988 65.1552 16.5895 65.6103C16.6802 66.0655 16.9258 66.4752 17.2847 66.7696C17.6435 67.0639 18.0933 67.2248 18.5574 67.2248C19.0903 67.2244 19.6011 67.0125 19.9777 66.6355Z" fill="url(#paint44_radial_9_2216)"/>
<path d="M18.5574 83.4916C17.7957 83.49 17.0657 83.1867 16.5271 82.6481C15.9885 82.1095 15.6852 81.3795 15.6836 80.6178C15.6844 79.8558 15.9874 79.1254 16.5262 78.5866C17.065 78.0478 17.7955 77.7448 18.5574 77.744C19.3191 77.7456 20.0491 78.0489 20.5877 78.5875C21.1263 79.1261 21.4296 79.8561 21.4312 80.6178C21.4296 81.3795 21.1263 82.1095 20.5877 82.6481C20.0491 83.1867 19.3191 83.49 18.5574 83.4916ZM18.5574 78.6385C18.1658 78.638 17.7829 78.7538 17.4571 78.9711C17.1313 79.1883 16.8773 79.4974 16.7272 79.8591C16.5771 80.2207 16.5376 80.6188 16.6138 81.0029C16.69 81.387 16.8784 81.7399 17.1553 82.0169C17.3383 82.2017 17.5562 82.3482 17.7964 82.4478C18.0367 82.5474 18.2943 82.5982 18.5544 82.5971C18.9457 82.5969 19.3282 82.4808 19.6536 82.2633C19.9789 82.0457 20.2324 81.7367 20.3822 81.3751C20.5319 81.0136 20.5711 80.6157 20.4948 80.2319C20.4185 79.8481 20.2301 79.4955 19.9535 79.2187C19.7696 79.038 19.552 78.8954 19.3129 78.799C19.0739 78.7025 18.8182 78.6541 18.5604 78.6566L18.5574 78.6385Z" fill="url(#paint45_linear_9_2216)"/>
<path d="M19.9777 82.0502C20.3079 81.7216 20.5138 81.2886 20.5603 80.8251C20.6069 80.3617 20.4913 79.8964 20.2332 79.5087C19.9751 79.1209 19.5905 78.8347 19.145 78.6988C18.6994 78.5629 18.2205 78.5858 17.79 78.7635C17.3594 78.9413 17.0038 79.2628 16.7839 79.6734C16.5639 80.084 16.4931 80.5582 16.5837 81.0151C16.6742 81.472 16.9205 81.8833 17.2804 82.179C17.6403 82.4747 18.0917 82.6363 18.5575 82.6364C19.0898 82.6365 19.6005 82.4257 19.9777 82.0502Z" fill="url(#paint46_radial_9_2216)"/>
<path d="M18.5574 98.9032C17.7957 98.9016 17.0657 98.5983 16.5271 98.0597C15.9885 97.5211 15.6852 96.7911 15.6836 96.0294C15.6852 95.2677 15.9885 94.5377 16.5271 93.9991C17.0657 93.4605 17.7957 93.1572 18.5574 93.1556C19.3191 93.1572 20.0491 93.4605 20.5877 93.9991C21.1263 94.5377 21.4296 95.2677 21.4312 96.0294C21.4296 96.7911 21.1263 97.5211 20.5877 98.0597C20.0491 98.5983 19.3191 98.9016 18.5574 98.9032ZM18.5574 94.0501C18.1658 94.0497 17.7829 94.1654 17.4571 94.3827C17.1313 94.6 16.8773 94.909 16.7272 95.2707C16.5771 95.6324 16.5376 96.0304 16.6138 96.4145C16.69 96.7987 16.8784 97.1515 17.1553 97.4285C17.3383 97.6133 17.5562 97.7598 17.7964 97.8594C18.0367 97.959 18.2943 98.0098 18.5544 98.0087C18.9457 98.0086 19.3282 97.8924 19.6536 97.6749C19.9789 97.4574 20.2324 97.1483 20.3822 96.7867C20.5319 96.4252 20.5711 96.0273 20.4948 95.6435C20.4185 95.2597 20.2301 94.9071 19.9535 94.6303C19.7696 94.4496 19.552 94.307 19.3129 94.2106C19.0739 94.1141 18.8182 94.0657 18.5604 94.0682L18.5574 94.0501Z" fill="url(#paint47_linear_9_2216)"/>
<path d="M19.9777 97.4618C20.3079 97.1332 20.5138 96.7002 20.5603 96.2368C20.6069 95.7733 20.4913 95.308 20.2332 94.9203C19.9751 94.5325 19.5905 94.2463 19.145 94.1104C18.6994 93.9745 18.2205 93.9974 17.79 94.1751C17.3594 94.3529 17.0038 94.6744 16.7839 95.085C16.5639 95.4956 16.4931 95.9698 16.5837 96.4267C16.6742 96.8836 16.9205 97.2949 17.2804 97.5906C17.6403 97.8863 18.0917 98.0479 18.5575 98.048C19.0898 98.0482 19.6005 97.8374 19.9777 97.4618Z" fill="url(#paint48_radial_9_2216)"/>
<path d="M120.99 52.6684C120.423 52.6678 119.868 52.4989 119.396 52.1831C118.925 51.8673 118.557 51.4187 118.34 50.8941C118.123 50.3695 118.067 49.7923 118.178 49.2357C118.289 48.679 118.563 48.1677 118.965 47.7666C119.366 47.3654 119.878 47.0923 120.434 46.9817C120.991 46.8712 121.568 46.9282 122.093 47.1456C122.617 47.363 123.065 47.7309 123.381 48.203C123.696 48.675 123.864 49.2299 123.864 49.7976C123.866 50.1754 123.793 50.5498 123.649 50.8993C123.506 51.2487 123.294 51.5661 123.027 51.8331C122.759 52.1001 122.442 52.3114 122.092 52.4548C121.743 52.5982 121.368 52.6708 120.99 52.6684ZM120.99 47.8334C120.599 47.8335 120.217 47.9497 119.891 48.1672C119.566 48.3847 119.312 48.6938 119.163 49.0554C119.013 49.4169 118.974 49.8148 119.05 50.1986C119.126 50.5824 119.315 50.935 119.591 51.2118C119.774 51.3966 119.992 51.5431 120.232 51.6427C120.473 51.7423 120.73 51.7931 120.99 51.792C121.515 51.7912 122.018 51.5824 122.389 51.2114C122.76 50.8404 122.969 50.3374 122.97 49.8127C122.969 49.288 122.76 48.785 122.389 48.414C122.018 48.0429 121.515 47.8342 120.99 47.8334Z" fill="url(#paint49_linear_9_2216)"/>
<path d="M122.41 51.2239C122.691 50.9431 122.881 50.5856 122.958 50.1965C123.036 49.8074 122.996 49.4041 122.844 49.0377C122.692 48.6713 122.434 48.3582 122.105 48.1379C121.775 47.9176 121.387 47.8 120.99 47.8C120.594 47.8 120.206 47.9176 119.876 48.1379C119.546 48.3582 119.289 48.6713 119.137 49.0377C118.985 49.4041 118.945 49.8074 119.022 50.1965C119.099 50.5856 119.29 50.9431 119.57 51.2239C119.756 51.4107 119.978 51.5588 120.221 51.6599C120.465 51.761 120.726 51.8131 120.99 51.8131C121.254 51.8131 121.515 51.761 121.759 51.6599C122.003 51.5588 122.224 51.4107 122.41 51.2239Z" fill="url(#paint50_radial_9_2216)"/>
<path d="M120.99 68.08C120.423 68.0794 119.868 67.9105 119.396 67.5947C118.925 67.2789 118.557 66.8303 118.34 66.3057C118.123 65.7811 118.067 65.2039 118.178 64.6473C118.289 64.0906 118.563 63.5793 118.965 63.1781C119.366 62.777 119.878 62.5038 120.434 62.3933C120.991 62.2828 121.568 62.3398 122.093 62.5572C122.617 62.7746 123.065 63.1425 123.381 63.6146C123.696 64.0866 123.864 64.6415 123.864 65.2092C123.866 65.587 123.793 65.9614 123.649 66.3108C123.506 66.6602 123.294 66.9777 123.027 67.2447C122.759 67.5117 122.442 67.723 122.092 67.8664C121.743 68.0098 121.368 68.0824 120.99 68.08ZM120.99 63.2449C120.599 63.2451 120.217 63.3613 119.891 63.5788C119.566 63.7963 119.312 64.1054 119.163 64.4669C119.013 64.8285 118.974 65.2263 119.05 65.6102C119.126 65.994 119.315 66.3466 119.591 66.6234C119.774 66.8082 119.992 66.9547 120.232 67.0543C120.473 67.1539 120.73 67.2047 120.99 67.2036C121.515 67.2028 122.018 66.994 122.389 66.623C122.76 66.252 122.969 65.749 122.97 65.2243C122.969 64.6996 122.76 64.1966 122.389 63.8256C122.018 63.4545 121.515 63.2457 120.99 63.2449Z" fill="url(#paint51_linear_9_2216)"/>
<path d="M122.41 66.6355C122.691 66.3547 122.881 65.9972 122.958 65.6081C123.036 65.219 122.996 64.8157 122.844 64.4493C122.692 64.0829 122.434 63.7698 122.105 63.5495C121.775 63.3292 121.387 63.2116 120.99 63.2116C120.594 63.2116 120.206 63.3292 119.876 63.5495C119.546 63.7698 119.289 64.0829 119.137 64.4493C118.985 64.8157 118.945 65.219 119.022 65.6081C119.099 65.9972 119.29 66.3547 119.57 66.6355C119.756 66.8223 119.978 66.9704 120.221 67.0715C120.465 67.1726 120.726 67.2247 120.99 67.2247C121.254 67.2247 121.515 67.1726 121.759 67.0715C122.003 66.9704 122.224 66.8223 122.41 66.6355Z" fill="url(#paint52_radial_9_2216)"/>
<path d="M120.99 83.4916C120.423 83.491 119.868 83.3222 119.397 83.0066C118.925 82.6909 118.557 82.2425 118.341 81.7181C118.124 81.1936 118.067 80.6166 118.178 80.06C118.289 79.5034 118.562 78.9922 118.963 78.5909C119.365 78.1896 119.876 77.9162 120.433 77.8054C120.989 77.6945 121.566 77.7511 122.091 77.968C122.615 78.1849 123.063 78.5524 123.379 79.024C123.695 79.4957 123.864 80.0503 123.864 80.6178C123.866 80.9958 123.793 81.3704 123.65 81.7199C123.506 82.0695 123.294 82.3871 123.027 82.6544C122.76 82.9216 122.442 83.1332 122.093 83.277C121.743 83.4207 121.368 83.4936 120.99 83.4916ZM120.99 78.6385C120.599 78.6381 120.216 78.7538 119.89 78.9711C119.564 79.1884 119.31 79.4974 119.16 79.8591C119.01 80.2208 118.971 80.6189 119.047 81.003C119.123 81.3871 119.311 81.74 119.588 82.017C119.771 82.2017 119.989 82.3482 120.229 82.4478C120.47 82.5474 120.727 82.5982 120.987 82.5972C121.379 82.597 121.761 82.4808 122.087 82.2633C122.412 82.0458 122.665 81.7367 122.815 81.3752C122.965 81.0136 123.004 80.6158 122.928 80.2319C122.851 79.8481 122.663 79.4955 122.387 79.2187C122.203 79.038 121.985 78.8954 121.746 78.799C121.507 78.7025 121.251 78.6542 120.993 78.6566L120.99 78.6385Z" fill="url(#paint53_linear_9_2216)"/>
<path d="M122.411 82.0502C122.786 81.6726 122.996 81.162 122.996 80.6299C122.996 80.0977 122.786 79.5872 122.411 79.2096C122.13 78.9294 121.772 78.7387 121.383 78.6616C120.994 78.5845 120.591 78.6245 120.224 78.7765C119.858 78.9285 119.545 79.1856 119.325 79.5155C119.104 79.8454 118.987 80.2332 118.987 80.6299C118.987 81.0265 119.104 81.4143 119.325 81.7442C119.545 82.0741 119.858 82.3313 120.224 82.4833C120.591 82.6353 120.994 82.6752 121.383 82.5981C121.772 82.5211 122.13 82.3304 122.411 82.0502Z" fill="url(#paint54_radial_9_2216)"/>
<path d="M120.99 98.9032C120.423 98.9026 119.868 98.7338 119.397 98.4181C118.925 98.1025 118.557 97.6541 118.341 97.1296C118.124 96.6052 118.067 96.0282 118.178 95.4716C118.289 94.915 118.562 94.4038 118.963 94.0025C119.365 93.6012 119.876 93.3278 120.433 93.2169C120.989 93.1061 121.566 93.1627 122.091 93.3796C122.615 93.5965 123.063 93.964 123.379 94.4356C123.695 94.9073 123.864 95.4619 123.864 96.0294C123.866 96.4074 123.793 96.782 123.65 97.1315C123.506 97.4811 123.294 97.7987 123.027 98.066C122.76 98.3332 122.442 98.5448 122.093 98.6885C121.743 98.8322 121.368 98.9052 120.99 98.9032ZM120.99 94.0501C120.599 94.0497 120.216 94.1654 119.89 94.3827C119.564 94.6 119.31 94.909 119.16 95.2707C119.01 95.6324 118.971 96.0304 119.047 96.4146C119.123 96.7987 119.311 97.1515 119.588 97.4285C119.771 97.6133 119.989 97.7598 120.229 97.8594C120.47 97.959 120.727 98.0098 120.987 98.0087C121.379 98.0086 121.761 97.8924 122.087 97.6749C122.412 97.4574 122.665 97.1483 122.815 96.7867C122.965 96.4252 123.004 96.0273 122.928 95.6435C122.851 95.2597 122.663 94.9071 122.387 94.6303C122.203 94.4496 121.985 94.307 121.746 94.2106C121.507 94.1141 121.251 94.0657 120.993 94.0682L120.99 94.0501Z" fill="url(#paint55_linear_9_2216)"/>
<path d="M122.411 97.4618C122.786 97.0842 122.996 96.5737 122.996 96.0415C122.996 95.5094 122.786 94.9988 122.411 94.6212C122.13 94.341 121.772 94.1504 121.383 94.0733C120.994 93.9962 120.591 94.0361 120.224 94.1881C119.858 94.3401 119.545 94.5973 119.325 94.9272C119.104 95.2571 118.987 95.6449 118.987 96.0415C118.987 96.4382 119.104 96.826 119.325 97.1559C119.545 97.4858 119.858 97.7429 120.224 97.8949C120.591 98.0469 120.994 98.0869 121.383 98.0098C121.772 97.9327 122.13 97.742 122.411 97.4618Z" fill="url(#paint56_radial_9_2216)"/>
<path d="M23.4831 26.2511C22.9146 26.2511 22.3588 26.0824 21.8862 25.7665C21.4135 25.4506 21.0451 25.0016 20.8277 24.4763C20.6103 23.951 20.5536 23.373 20.6647 22.8155C20.7758 22.2579 21.0498 21.7459 21.4521 21.3441C21.8543 20.9423 22.3666 20.6688 22.9243 20.5583C23.4819 20.4477 24.0599 20.5051 24.5849 20.7231C25.11 20.941 25.5586 21.3098 25.874 21.7828C26.1894 22.2558 26.3575 22.8118 26.3569 23.3803C26.3585 23.758 26.2852 24.1322 26.1413 24.4815C25.9974 24.8307 25.7858 25.1479 25.5185 25.4149C25.2513 25.6818 24.9339 25.8931 24.5845 26.0367C24.2351 26.1802 23.8608 26.2531 23.4831 26.2511ZM23.4831 21.4009C23.0915 21.4003 22.7085 21.5159 22.3826 21.733C22.0567 21.9502 21.8025 22.2591 21.6522 22.6207C21.502 22.9823 21.4623 23.3804 21.5384 23.7646C21.6144 24.1487 21.8027 24.5017 22.0794 24.7788C22.3561 25.0559 22.7088 25.2447 23.0928 25.3213C23.4768 25.398 23.875 25.3589 24.2368 25.2092C24.5987 25.0595 24.908 24.8058 25.1256 24.4802C25.3432 24.1547 25.4594 23.7719 25.4594 23.3803C25.4586 22.8561 25.2502 22.3536 24.8798 21.9826C24.5095 21.6117 24.0072 21.4025 23.4831 21.4009Z" fill="url(#paint57_linear_9_2216)"/>
<path d="M24.9034 24.7975C25.2312 24.469 25.435 24.0369 25.48 23.575C25.5251 23.1131 25.4086 22.6498 25.1504 22.2641C24.8922 21.8784 24.5083 21.5941 24.0641 21.4597C23.6198 21.3253 23.1427 21.3491 22.714 21.5269C22.2853 21.7048 21.9316 22.0258 21.713 22.4352C21.4943 22.8446 21.4244 23.3172 21.5151 23.7723C21.6058 24.2275 21.8515 24.6372 22.2103 24.9316C22.5692 25.2259 23.019 25.3868 23.4831 25.3868C24.0159 25.3864 24.5268 25.1745 24.9034 24.7975Z" fill="url(#paint58_radial_9_2216)"/>
<path d="M34.4253 16.578C33.8578 16.5774 33.3032 16.4086 32.8315 16.0929C32.3599 15.7772 31.9924 15.3289 31.7755 14.8044C31.5586 14.28 31.502 13.703 31.6129 13.1464C31.7237 12.5898 31.9971 12.0786 32.3984 11.6772C32.7997 11.2759 33.311 11.0026 33.8675 10.8917C34.4241 10.7809 35.0011 10.8374 35.5256 11.0544C36.05 11.2713 36.4984 11.6388 36.8141 12.1104C37.1297 12.582 37.2986 13.1366 37.2992 13.7042C37.3016 14.0822 37.2289 14.457 37.0853 14.8068C36.9417 15.1565 36.7301 15.4743 36.4628 15.7416C36.1954 16.009 35.8777 16.2206 35.5279 16.3641C35.1782 16.5077 34.8034 16.5804 34.4253 16.578ZM34.4253 11.743C33.9681 11.7437 33.5254 11.903 33.1724 12.1936C32.8195 12.4842 32.5782 12.8882 32.4897 13.3368C32.4012 13.7853 32.471 14.2506 32.6871 14.6535C32.9032 15.0564 33.2524 15.3719 33.675 15.5462C34.0976 15.7206 34.5676 15.743 35.005 15.6097C35.4423 15.4764 35.8199 15.1956 36.0734 14.8151C36.3269 14.4346 36.4406 13.978 36.3952 13.5231C36.3498 13.0682 36.1481 12.643 35.8245 12.3202C35.6418 12.1341 35.4241 11.9861 35.184 11.8844C34.9439 11.7828 34.6861 11.7296 34.4253 11.7279V11.743Z" fill="url(#paint59_linear_9_2216)"/>
<path d="M35.8366 15.1245C36.1667 14.7958 36.3726 14.3629 36.4192 13.8994C36.4658 13.436 36.3501 12.9707 36.092 12.5829C35.8339 12.1952 35.4493 11.909 35.0038 11.7731C34.5583 11.6372 34.0794 11.6601 33.6488 11.8378C33.2183 12.0155 32.8627 12.3371 32.6427 12.7477C32.4227 13.1583 32.352 13.6324 32.4425 14.0893C32.533 14.5463 32.7793 14.9576 33.1392 15.2533C33.4991 15.549 33.9505 15.7106 34.4163 15.7107C34.6801 15.7121 34.9415 15.661 35.1853 15.5603C35.4292 15.4597 35.6506 15.3115 35.8366 15.1245Z" fill="url(#paint60_radial_9_2216)"/>
<path d="M47.4074 10.5735C46.6458 10.5719 45.9157 10.2686 45.3771 9.73003C44.8385 9.19143 44.5352 8.46139 44.5336 7.6997C44.5352 6.93801 44.8385 6.20797 45.3771 5.66937C45.9157 5.13077 46.6458 4.82748 47.4074 4.82588C48.1691 4.82748 48.8992 5.13077 49.4378 5.66937C49.9764 6.20797 50.2797 6.93801 50.2813 7.6997C50.2797 8.46139 49.9764 9.19143 49.4378 9.73003C48.8992 10.2686 48.1691 10.5719 47.4074 10.5735ZM47.4074 5.72036C47.016 5.72036 46.6333 5.83645 46.3078 6.05394C45.9823 6.27143 45.7286 6.58056 45.5788 6.94224C45.429 7.30391 45.3898 7.70189 45.4661 8.08584C45.5425 8.4698 45.731 8.82248 46.0078 9.0993C46.2846 9.37611 46.6373 9.56463 47.0213 9.641C47.4053 9.71737 47.8032 9.67817 48.1649 9.52836C48.5266 9.37855 48.8357 9.12485 49.0532 8.79935C49.2707 8.47385 49.3868 8.09117 49.3868 7.6997C49.386 7.17499 49.1772 6.672 48.8061 6.30098C48.4351 5.92995 47.9322 5.72116 47.4074 5.72036Z" fill="url(#paint61_linear_9_2216)"/>
<path d="M48.8307 9.12003C49.1608 8.79141 49.3667 8.35846 49.4133 7.89499C49.4599 7.43153 49.3443 6.96626 49.0862 6.57851C48.8281 6.19076 48.4435 5.90454 47.9979 5.76866C47.5524 5.63278 47.0735 5.65565 46.6429 5.83337C46.2124 6.01109 45.8568 6.33266 45.6368 6.74324C45.4168 7.15382 45.3461 7.628 45.4367 8.08491C45.5272 8.54183 45.7734 8.95319 46.1334 9.24885C46.4933 9.54452 46.9446 9.70618 47.4104 9.70627C47.9428 9.70638 48.4534 9.49559 48.8307 9.12003Z" fill="url(#paint62_radial_9_2216)"/>
<path d="M61.4288 7.69973C60.8613 7.69913 60.3067 7.53033 59.8351 7.21465C59.3634 6.89897 58.996 6.45059 58.779 5.92614C58.5621 5.4017 58.5055 4.82473 58.6164 4.26813C58.7273 3.71154 59.0006 3.20029 59.4019 2.79898C59.8032 2.39768 60.3145 2.12432 60.8711 2.01346C61.4277 1.90259 62.0047 1.95919 62.5291 2.1761C63.0535 2.393 63.5019 2.76049 63.8176 3.23213C64.1333 3.70376 64.3021 4.25838 64.3027 4.82591C64.3035 5.20353 64.2297 5.57759 64.0855 5.92662C63.9414 6.27564 63.7297 6.59276 63.4627 6.85978C63.1957 7.1268 62.8786 7.33845 62.5295 7.48259C62.1805 7.62673 61.8065 7.70052 61.4288 7.69973ZM61.4288 2.84658C60.9041 2.84738 60.4012 3.05617 60.0301 3.4272C59.6591 3.79822 59.4503 4.3012 59.4495 4.82591C59.4503 5.35062 59.6591 5.85361 60.0301 6.22463C60.4012 6.59565 60.9041 6.80445 61.4288 6.80525C61.9538 6.80525 62.4573 6.59671 62.8285 6.22552C63.1996 5.85432 63.4082 5.35086 63.4082 4.82591C63.4082 4.30096 63.1996 3.79751 62.8285 3.42631C62.4573 3.05511 61.9538 2.84658 61.4288 2.84658Z" fill="url(#paint63_linear_9_2216)"/>
<path d="M62.8492 6.24619C63.2242 5.8686 63.4346 5.35804 63.4346 4.8259C63.4346 4.29375 63.2242 3.7832 62.8492 3.40561C62.5684 3.1254 62.2109 2.93471 61.8218 2.85762C61.4327 2.78053 61.0294 2.82051 60.663 2.9725C60.2966 3.12449 59.9835 3.38167 59.7632 3.71156C59.5429 4.04144 59.4253 4.42922 59.4253 4.8259C59.4253 5.22257 59.5429 5.61036 59.7632 5.94024C59.9835 6.27012 60.2966 6.52731 60.663 6.6793C61.0294 6.83129 61.4327 6.87126 61.8218 6.79417C62.2109 6.71708 62.5684 6.52639 62.8492 6.24619Z" fill="url(#paint64_radial_9_2216)"/>
<path d="M31.2675 38.8191C30.7 38.8185 30.1453 38.6497 29.6737 38.334C29.2021 38.0183 28.8346 37.5699 28.6177 37.0455C28.4007 36.5211 28.3442 35.9441 28.455 35.3875C28.5659 34.8309 28.8392 34.3196 29.2406 33.9183C29.6419 33.517 30.1531 33.2437 30.7097 33.1328C31.2663 33.0219 31.8433 33.0785 32.3677 33.2954C32.8922 33.5124 33.3405 33.8799 33.6562 34.3515C33.9719 34.8231 34.1407 35.3777 34.1413 35.9453C34.1437 36.3233 34.071 36.6981 33.9274 37.0479C33.7839 37.3976 33.5723 37.7154 33.305 37.9827C33.0376 38.2501 32.7198 38.4617 32.3701 38.6052C32.0203 38.7488 31.6456 38.8215 31.2675 38.8191ZM31.2675 33.9659C30.7428 33.9667 30.2398 34.1755 29.8688 34.5466C29.4977 34.9176 29.289 35.4206 29.2882 35.9453C29.289 36.47 29.4977 36.973 29.8688 37.344C30.2398 37.715 30.7428 37.9238 31.2675 37.9246C31.7924 37.9246 32.2959 37.7161 32.6671 37.3449C33.0383 36.9737 33.2468 36.4702 33.2468 35.9453C33.2468 35.4203 33.0383 34.9169 32.6671 34.5457C32.2959 34.1745 31.7924 33.9659 31.2675 33.9659Z" fill="url(#paint65_linear_9_2216)"/>
<path d="M32.6847 37.3656C33.0602 36.9889 33.2711 36.4787 33.2711 35.9468C33.2711 35.4149 33.0602 34.9047 32.6847 34.528C32.3084 34.1517 31.7981 33.9404 31.2659 33.9404C30.7338 33.9404 30.2235 34.1517 29.8472 34.528C29.4705 34.9043 29.2587 35.4148 29.2584 35.9472C29.2581 36.4797 29.4694 36.9904 29.8456 37.3671C30.2219 37.7437 30.7324 37.9555 31.2649 37.9558C31.7973 37.9561 32.308 37.7449 32.6847 37.3686V37.3656Z" fill="url(#paint66_radial_9_2216)"/>
<path d="M43.9775 38.9309C43.2158 38.9293 42.4857 38.626 41.9471 38.0874C41.4085 37.5488 41.1053 36.8188 41.1037 36.0571C41.1053 35.2954 41.4085 34.5653 41.9471 34.0267C42.4857 33.4881 43.2158 33.1849 43.9775 33.1833C44.7392 33.1849 45.4692 33.4881 46.0078 34.0267C46.5464 34.5653 46.8497 35.2954 46.8513 36.0571C46.8497 36.8188 46.5464 37.5488 46.0078 38.0874C45.4692 38.626 44.7392 38.9293 43.9775 38.9309ZM43.9775 34.0777C43.5861 34.0779 43.2036 34.1941 42.8783 34.4116C42.553 34.6291 42.2994 34.9382 42.1497 35.2997C42 35.6613 41.9608 36.0591 42.0371 36.443C42.1134 36.8268 42.3018 37.1794 42.5784 37.4562C42.7614 37.641 42.9793 37.7874 43.2196 37.8871C43.4598 37.9867 43.7174 38.0374 43.9775 38.0364C44.5024 38.0364 45.0059 37.8279 45.3771 37.4567C45.7483 37.0855 45.9568 36.582 45.9568 36.0571C45.9568 35.5321 45.7483 35.0287 45.3771 34.6575C45.0059 34.2863 44.5024 34.0777 43.9775 34.0777Z" fill="url(#paint67_linear_9_2216)"/>
<path d="M45.3948 37.4774C45.7242 37.149 45.9296 36.7166 45.9758 36.2537C46.022 35.7909 45.9062 35.3264 45.6482 34.9394C45.3902 34.5524 45.006 34.2668 44.561 34.1315C44.116 33.9961 43.6379 34.0193 43.2081 34.1971C42.7782 34.3749 42.4234 34.6962 42.2041 35.1064C41.9847 35.5166 41.9145 35.9901 42.0053 36.4463C42.0961 36.9025 42.3422 37.313 42.7019 37.6079C43.0616 37.9029 43.5124 38.0639 43.9775 38.0636C44.5088 38.0629 45.0183 37.8522 45.3948 37.4774Z" fill="url(#paint68_radial_9_2216)"/>
<path d="M56.6876 38.9309C55.9259 38.9293 55.1959 38.626 54.6573 38.0874C54.1187 37.5488 53.8154 36.8188 53.8138 36.0571C53.8129 35.4885 53.9809 34.9324 54.2965 34.4594C54.612 33.9863 55.061 33.6177 55.5863 33.4001C56.1117 33.1826 56.6899 33.126 57.2475 33.2375C57.805 33.349 58.317 33.6236 58.7183 34.0264C58.986 34.2922 59.1982 34.6087 59.3424 34.9573C59.4867 35.306 59.5601 35.6798 59.5584 36.0571C59.5576 36.8185 59.255 37.5486 58.7169 38.0872C58.1787 38.6259 57.449 38.9293 56.6876 38.9309ZM56.6876 34.0778C56.2963 34.078 55.9138 34.1941 55.5884 34.4116C55.2631 34.6292 55.0096 34.9382 54.8598 35.2998C54.7101 35.6613 54.6709 36.0592 54.7472 36.443C54.8235 36.8268 55.0118 37.1794 55.2885 37.4562C55.4715 37.641 55.6894 37.7875 55.9297 37.8871C56.1699 37.9867 56.4275 38.0375 56.6876 38.0364C57.2126 38.0364 57.716 37.8279 58.0872 37.4567C58.4584 37.0855 58.6669 36.5821 58.6669 36.0571C58.6669 35.5322 58.4584 35.0287 58.0872 34.6575C57.716 34.2863 57.2126 34.0778 56.6876 34.0778Z" fill="url(#paint69_linear_9_2216)"/>
<path d="M58.1049 37.4774C58.4343 37.149 58.6396 36.7166 58.6859 36.2537C58.7321 35.7909 58.6163 35.3264 58.3583 34.9394C58.1003 34.5524 57.7161 34.2668 57.2711 34.1315C56.8261 33.9961 56.3479 34.0193 55.9181 34.1971C55.4883 34.3749 55.1335 34.6962 54.9142 35.1064C54.6948 35.5166 54.6246 35.9901 54.7153 36.4463C54.8061 36.9025 55.0524 37.313 55.412 37.6079C55.7717 37.9029 56.2225 38.0639 56.6876 38.0636C57.2189 38.0629 57.7283 37.8522 58.1049 37.4774Z" fill="url(#paint70_radial_9_2216)"/>
<path d="M69.3976 38.9309C68.8301 38.9303 68.2755 38.7615 67.8038 38.4458C67.3322 38.1301 66.9647 37.6817 66.7478 37.1573C66.5309 36.6329 66.4743 36.0559 66.5852 35.4993C66.696 34.9427 66.9694 34.4314 67.3707 34.0301C67.772 33.6288 68.2832 33.3555 68.8398 33.2446C69.3964 33.1337 69.9734 33.1903 70.4979 33.4073C71.0223 33.6242 71.4707 33.9917 71.7864 34.4633C72.102 34.9349 72.2708 35.4895 72.2714 36.0571C72.2734 36.435 72.2005 36.8096 72.0568 37.1592C71.913 37.5088 71.7014 37.8264 71.4342 38.0936C71.1669 38.3609 70.8493 38.5725 70.4997 38.7162C70.1502 38.8599 69.7756 38.9329 69.3976 38.9309ZM69.3976 34.0777C69.0063 34.0779 68.6238 34.1941 68.2984 34.4116C67.9731 34.6291 67.7195 34.9382 67.5698 35.2997C67.4201 35.6613 67.3809 36.0591 67.4572 36.443C67.5335 36.8268 67.7219 37.1794 67.9985 37.4562C68.1815 37.641 68.3995 37.7874 68.6397 37.8871C68.8799 37.9867 69.1376 38.0374 69.3976 38.0364C69.9226 38.0364 70.426 37.8279 70.7972 37.4567C71.1684 37.0855 71.3769 36.582 71.3769 36.0571C71.3769 35.5321 71.1684 35.0287 70.7972 34.6575C70.426 34.2863 69.9226 34.0777 69.3976 34.0777Z" fill="url(#paint71_linear_9_2216)"/>
<path d="M70.8149 37.4774C71.1443 37.149 71.3497 36.7166 71.3959 36.2537C71.4421 35.7909 71.3263 35.3264 71.0684 34.9394C70.8104 34.5524 70.4261 34.2668 69.9811 34.1315C69.5361 33.9961 69.058 34.0193 68.6282 34.1971C68.1984 34.3749 67.8435 34.6962 67.6242 35.1064C67.4048 35.5166 67.3346 35.9901 67.4254 36.4463C67.5162 36.9025 67.7624 37.313 68.122 37.6079C68.4817 37.9029 68.9325 38.0639 69.3976 38.0636C69.9289 38.0629 70.4384 37.8522 70.8149 37.4774Z" fill="url(#paint72_radial_9_2216)"/>
<path d="M82.1077 38.9309C81.5393 38.9309 80.9837 38.7623 80.5111 38.4466C80.0385 38.1308 79.6701 37.682 79.4526 37.1568C79.2351 36.6317 79.1782 36.0539 79.2891 35.4964C79.4 34.939 79.6737 34.4269 80.0756 34.025C80.4775 33.6231 80.9896 33.3494 81.547 33.2385C82.1045 33.1276 82.6823 33.1845 83.2075 33.402C83.7326 33.6195 84.1814 33.9879 84.4972 34.4605C84.813 34.9331 84.9815 35.4887 84.9815 36.0571C84.9839 36.4354 84.9111 36.8104 84.7674 37.1604C84.6236 37.5103 84.4118 37.8282 84.1441 38.0956C83.8765 38.363 83.5583 38.5745 83.2082 38.7179C82.8581 38.8613 82.483 38.9337 82.1047 38.9309H82.1077ZM82.1077 34.0777C81.7164 34.0779 81.3339 34.1941 81.0085 34.4116C80.6832 34.6291 80.4297 34.9382 80.2799 35.2997C80.1302 35.6613 80.091 36.0591 80.1673 36.443C80.2436 36.8268 80.4319 37.1794 80.7086 37.4562C80.8911 37.6408 81.1086 37.7871 81.3483 37.8867C81.588 37.9863 81.8451 38.0372 82.1047 38.0364C82.6294 38.0356 83.1324 37.8268 83.5034 37.4558C83.8744 37.0848 84.0832 36.5818 84.084 36.0571C84.0844 35.7973 84.0336 35.54 83.9344 35.2998C83.8353 35.0597 83.6898 34.8415 83.5062 34.6577C83.3227 34.4738 83.1047 34.328 82.8647 34.2285C82.6247 34.129 82.3675 34.0777 82.1077 34.0777Z" fill="url(#paint73_linear_9_2216)"/>
<path d="M83.5249 37.4774C83.8543 37.149 84.0596 36.7166 84.1058 36.2537C84.1521 35.7909 84.0363 35.3264 83.7783 34.9394C83.5203 34.5524 83.136 34.2668 82.6911 34.1315C82.2461 33.9961 81.7679 34.0193 81.3381 34.1971C80.9083 34.3749 80.5535 34.6962 80.3342 35.1064C80.1148 35.5166 80.0445 35.9901 80.1353 36.4463C80.2261 36.9025 80.4723 37.313 80.832 37.6079C81.1917 37.9029 81.6425 38.0639 82.1076 38.0636C82.6389 38.0629 83.1484 37.8522 83.5249 37.4774Z" fill="url(#paint74_radial_9_2216)"/>
<path d="M94.8177 38.9309C94.2493 38.9309 93.6937 38.7623 93.2211 38.4466C92.7485 38.1308 92.3802 37.682 92.1627 37.1568C91.9451 36.6317 91.8882 36.0539 91.9991 35.4964C92.11 34.939 92.3837 34.4269 92.7856 34.025C93.1875 33.6231 93.6996 33.3494 94.2571 33.2385C94.8145 33.1276 95.3924 33.1845 95.9175 33.402C96.4426 33.6195 96.8914 33.9879 97.2072 34.4605C97.523 34.9331 97.6915 35.4887 97.6915 36.0571C97.6939 36.4354 97.6212 36.8104 97.4774 37.1604C97.3336 37.5103 97.1218 37.8282 96.8541 38.0956C96.5864 38.363 96.2683 38.5745 95.9182 38.7179C95.5681 38.8613 95.193 38.9337 94.8147 38.9309H94.8177ZM94.8177 34.0777C94.2928 34.0777 93.7893 34.2863 93.4181 34.6575C93.0469 35.0287 92.8384 35.5321 92.8384 36.0571C92.838 36.3169 92.8888 36.5742 92.988 36.8143C93.0871 37.0544 93.2326 37.2727 93.4162 37.4565C93.5997 37.6403 93.8177 37.7862 94.0577 37.8857C94.2977 37.9852 94.5549 38.0364 94.8147 38.0364C95.3397 38.0364 95.8431 37.8279 96.2143 37.4567C96.5855 37.0855 96.794 36.582 96.794 36.0571C96.794 35.5321 96.5855 35.0287 96.2143 34.6575C95.8431 34.2863 95.3397 34.0777 94.8147 34.0777H94.8177Z" fill="url(#paint75_linear_9_2216)"/>
<path d="M96.2349 37.4774C96.5644 37.149 96.7697 36.7166 96.8159 36.2537C96.8621 35.7909 96.7464 35.3264 96.4884 34.9394C96.2304 34.5524 95.8461 34.2668 95.4011 34.1315C94.9562 33.9961 94.478 34.0193 94.0482 34.1971C93.6184 34.3749 93.2635 34.6962 93.0442 35.1064C92.8249 35.5166 92.7546 35.9901 92.8454 36.4463C92.9362 36.9025 93.1824 37.313 93.5421 37.6079C93.9017 37.9029 94.3526 38.0639 94.8177 38.0636C95.349 38.0629 95.8584 37.8522 96.2349 37.4774Z" fill="url(#paint76_radial_9_2216)"/>
<path d="M107.525 38.9309C106.956 38.9309 106.401 38.7623 105.928 38.4466C105.456 38.1308 105.087 37.682 104.87 37.1568C104.652 36.6317 104.595 36.0539 104.706 35.4964C104.817 34.939 105.091 34.4269 105.493 34.025C105.895 33.6231 106.407 33.3494 106.964 33.2385C107.522 33.1276 108.099 33.1845 108.625 33.402C109.15 33.6195 109.599 33.9879 109.914 34.4605C110.23 34.9331 110.399 35.4887 110.399 36.0571C110.402 36.4354 110.33 36.8105 110.186 37.1606C110.043 37.5108 109.832 37.8288 109.564 38.0963C109.297 38.3638 108.979 38.5754 108.628 38.7187C108.278 38.862 107.903 38.9341 107.525 38.9309ZM107.525 34.0777C107.068 34.0778 106.625 34.2364 106.271 34.5264C105.918 34.8164 105.676 35.2199 105.587 35.6683C105.498 36.1166 105.567 36.582 105.782 36.9852C105.997 37.3884 106.346 37.7045 106.768 37.8796C107.19 38.0547 107.66 38.078 108.098 37.9456C108.535 37.8131 108.913 37.5331 109.168 37.1532C109.422 36.7732 109.537 36.3169 109.492 35.862C109.448 35.407 109.247 34.9815 108.924 34.6579C108.553 34.2877 108.052 34.0791 107.528 34.0777H107.525Z" fill="url(#paint77_linear_9_2216)"/>
<path d="M108.945 37.4774C109.274 37.1491 109.48 36.7168 109.526 36.2541C109.572 35.7914 109.457 35.327 109.199 34.94C108.941 34.553 108.557 34.2674 108.112 34.1318C107.668 33.9962 107.19 34.0191 106.76 34.1965C106.33 34.3739 105.975 34.6949 105.755 35.1047C105.536 35.5146 105.465 35.9879 105.555 36.4441C105.645 36.9002 105.891 37.311 106.25 37.6063C106.609 37.9016 107.06 38.0632 107.525 38.0636C108.057 38.0637 108.568 37.8529 108.945 37.4774Z" fill="url(#paint78_radial_9_2216)"/>
<path d="M120.011 38.9309C119.632 38.9317 119.257 38.8577 118.907 38.7131C118.556 38.5686 118.238 38.3563 117.97 38.0885C117.702 37.8207 117.489 37.5026 117.344 37.1524C117.199 36.8023 117.125 36.427 117.125 36.048C117.125 35.4796 117.294 34.924 117.61 34.4514C117.925 33.9788 118.374 33.6105 118.899 33.393C119.424 33.1755 120.002 33.1185 120.56 33.2294C121.117 33.3403 121.629 33.614 122.031 34.0159C122.433 34.4178 122.707 34.9299 122.818 35.4874C122.929 36.0448 122.872 36.6227 122.654 37.1478C122.437 37.6729 122.068 38.1217 121.596 38.4375C121.123 38.7533 120.568 38.9218 119.999 38.9218L120.011 38.9309ZM120.011 34.0778C119.488 34.0778 118.986 34.285 118.615 34.6543C118.244 35.0235 118.034 35.5246 118.032 36.048C118.031 36.3078 118.082 36.5651 118.181 36.8053C118.281 37.0454 118.426 37.2636 118.61 37.4474C118.793 37.6313 119.011 37.7771 119.251 37.8766C119.491 37.9761 119.748 38.0274 120.008 38.0274C120.4 38.0272 120.782 37.911 121.107 37.6935C121.433 37.476 121.686 37.1669 121.836 36.8054C121.986 36.4438 122.025 36.046 121.949 35.6621C121.872 35.2783 121.684 34.9257 121.407 34.6489C121.224 34.4663 121.007 34.3219 120.768 34.2238C120.529 34.1258 120.273 34.0762 120.014 34.0778H120.011Z" fill="url(#paint79_linear_9_2216)"/>
<path d="M121.431 37.4774C121.761 37.149 121.966 36.7166 122.012 36.2537C122.059 35.7909 121.943 35.3264 121.685 34.9394C121.427 34.5524 121.043 34.2668 120.598 34.1315C120.153 33.9961 119.675 34.0193 119.245 34.1971C118.815 34.3749 118.46 34.6962 118.241 35.1064C118.021 35.5166 117.951 35.9901 118.042 36.4463C118.133 36.9025 118.379 37.313 118.739 37.6079C119.098 37.9029 119.549 38.0639 120.014 38.0636C120.546 38.0629 121.055 37.8522 121.431 37.4774Z" fill="url(#paint80_radial_9_2216)"/>
<path d="M115.769 26.2511C115.2 26.2517 114.644 26.0835 114.171 25.768C113.698 25.4524 113.329 25.0036 113.111 24.4784C112.893 23.9532 112.836 23.3751 112.947 22.8173C113.058 22.2596 113.331 21.7472 113.733 21.3452C114.135 20.9431 114.648 20.6693 115.206 20.5585C115.763 20.4477 116.341 20.5049 116.867 20.7228C117.392 20.9407 117.841 21.3095 118.156 21.7825C118.472 22.2556 118.64 22.8116 118.639 23.3803C118.64 23.7574 118.566 24.1309 118.422 24.4793C118.277 24.8278 118.066 25.1445 117.799 25.4111C117.533 25.6778 117.216 25.8892 116.868 26.0333C116.519 26.1775 116.146 26.2515 115.769 26.2511ZM115.769 21.4009C115.31 21.4004 114.865 21.559 114.51 21.8497C114.155 22.1404 113.912 22.5452 113.822 22.9951C113.733 23.445 113.801 23.912 114.017 24.3167C114.234 24.7215 114.583 25.0387 115.007 25.2144C115.431 25.3902 115.902 25.4135 116.341 25.2804C116.78 25.1474 117.16 24.8661 117.415 24.4847C117.669 24.1033 117.784 23.6453 117.739 23.1887C117.694 22.7322 117.492 22.3054 117.168 21.9811C116.797 21.6099 116.293 21.4012 115.769 21.4009Z" fill="url(#paint81_linear_9_2216)"/>
<path d="M117.186 24.7975C117.513 24.4692 117.716 24.0377 117.761 23.5764C117.805 23.1151 117.689 22.6526 117.431 22.2676C117.173 21.8827 116.789 21.5991 116.345 21.4652C115.902 21.3313 115.425 21.3554 114.997 21.5333C114.569 21.7112 114.216 22.032 113.999 22.441C113.781 22.85 113.711 23.3219 113.802 23.7764C113.893 24.2308 114.139 24.6397 114.497 24.9333C114.856 25.227 115.305 25.3872 115.769 25.3868C116.032 25.3877 116.293 25.3361 116.536 25.2349C116.78 25.1337 117.001 24.985 117.186 24.7975Z" fill="url(#paint82_radial_9_2216)"/>
<path d="M104.826 16.578C104.259 16.5774 103.704 16.4086 103.232 16.0929C102.761 15.7772 102.393 15.3289 102.176 14.8044C101.959 14.28 101.903 13.703 102.014 13.1464C102.125 12.5898 102.398 12.0786 102.799 11.6772C103.201 11.2759 103.712 11.0026 104.268 10.8917C104.825 10.7809 105.402 10.8374 105.926 11.0544C106.451 11.2713 106.899 11.6388 107.215 12.1104C107.531 12.582 107.699 13.1366 107.7 13.7042C107.702 14.0822 107.63 14.457 107.486 14.8068C107.343 15.1565 107.131 15.4743 106.864 15.7416C106.596 16.009 106.279 16.2206 105.929 16.3641C105.579 16.5077 105.204 16.5804 104.826 16.578ZM104.826 11.743C104.369 11.7437 103.926 11.903 103.573 12.1936C103.22 12.4842 102.979 12.8882 102.891 13.3368C102.802 13.7853 102.872 14.2506 103.088 14.6535C103.304 15.0564 103.653 15.3719 104.076 15.5462C104.499 15.7206 104.969 15.743 105.406 15.6097C105.843 15.4764 106.221 15.1956 106.474 14.8151C106.728 14.4346 106.841 13.978 106.796 13.5231C106.751 13.0682 106.549 12.643 106.225 12.3202C106.043 12.1341 105.825 11.9861 105.585 11.8844C105.345 11.7828 105.087 11.7296 104.826 11.7279V11.743Z" fill="url(#paint83_linear_9_2216)"/>
<path d="M106.246 15.1245C106.622 14.7478 106.833 14.2376 106.833 13.7057C106.833 13.1738 106.622 12.6636 106.246 12.2869C106.06 12.1002 105.839 11.9521 105.596 11.8511C105.352 11.75 105.091 11.698 104.828 11.698C104.564 11.698 104.303 11.75 104.06 11.8511C103.816 11.9521 103.595 12.1002 103.409 12.2869C103.033 12.6636 102.822 13.1738 102.822 13.7057C102.822 14.2376 103.033 14.7478 103.409 15.1245C103.786 15.5 104.296 15.7109 104.828 15.7109C105.36 15.7109 105.87 15.5 106.246 15.1245Z" fill="url(#paint84_radial_9_2216)"/>
<path d="M91.8442 10.5735C91.2757 10.5741 90.7198 10.4061 90.2468 10.0907C89.7738 9.77524 89.405 9.32662 89.187 8.80155C88.969 8.27648 88.9117 7.69856 89.0222 7.1409C89.1327 6.58324 89.4062 6.07089 89.808 5.66868C90.2098 5.26646 90.7219 4.99246 91.2794 4.88132C91.837 4.77019 92.4149 4.82693 92.9402 5.04435C93.4655 5.26177 93.9145 5.63012 94.2304 6.10278C94.5464 6.57544 94.715 7.13118 94.715 7.6997C94.717 8.07739 94.6441 8.45175 94.5006 8.80112C94.3571 9.15049 94.1457 9.46796 93.8788 9.73518C93.6119 10.0024 93.2946 10.2141 92.9454 10.358C92.5962 10.5018 92.2219 10.5751 91.8442 10.5735ZM91.8442 5.72036C91.4528 5.72055 91.0704 5.83673 90.745 6.05424C90.4197 6.27174 90.1661 6.5808 90.0164 6.94236C89.8667 7.30392 89.8275 7.70176 89.9038 8.08559C89.9801 8.46942 90.1684 8.82202 90.4451 9.09883C90.6281 9.2836 90.846 9.43007 91.0862 9.52968C91.3265 9.6293 91.5841 9.68007 91.8442 9.67903C92.3689 9.67823 92.8719 9.46944 93.2429 9.09841C93.6139 8.72739 93.8227 8.2244 93.8235 7.6997C93.8227 7.17499 93.6139 6.672 93.2429 6.30098C92.8719 5.92995 92.3689 5.72116 91.8442 5.72036Z" fill="url(#paint85_linear_9_2216)"/>
<path d="M93.2524 9.11999C93.6274 8.74241 93.8379 8.23185 93.8379 7.69971C93.8379 7.16756 93.6274 6.65701 93.2524 6.27942C92.9717 5.99922 92.6141 5.80852 92.225 5.73143C91.8359 5.65434 91.4327 5.69432 91.0663 5.84631C90.6999 5.9983 90.3867 6.25548 90.1664 6.58537C89.9461 6.91525 89.8286 7.30303 89.8286 7.69971C89.8286 8.09639 89.9461 8.48417 90.1664 8.81405C90.3867 9.14394 90.6999 9.40112 91.0663 9.55311C91.4327 9.7051 91.8359 9.74508 92.225 9.66799C92.6141 9.5909 92.9717 9.4002 93.2524 9.11999Z" fill="url(#paint86_radial_9_2216)"/>
<path d="M77.8226 7.6997C77.2542 7.6997 76.6986 7.53115 76.226 7.21537C75.7534 6.89959 75.3851 6.45077 75.1676 5.92564C74.9501 5.40052 74.8932 4.8227 75.0041 4.26523C75.115 3.70777 75.3887 3.1957 75.7906 2.79379C76.1925 2.39188 76.7045 2.11818 77.262 2.00729C77.8195 1.89641 78.3973 1.95332 78.9224 2.17083C79.4475 2.38834 79.8964 2.75668 80.2121 3.22928C80.5279 3.70188 80.6964 4.2575 80.6964 4.82588C80.6989 5.20395 80.6262 5.57873 80.4826 5.92849C80.339 6.27824 80.1275 6.596 79.8601 6.86334C79.5928 7.13068 79.275 7.34228 78.9253 7.48585C78.5755 7.62942 78.2007 7.70211 77.8226 7.6997ZM77.8226 2.84655C77.2974 2.84655 76.7937 3.05499 76.422 3.4261C76.0503 3.79721 75.8411 4.30065 75.8403 4.82588C75.8411 5.35059 76.0499 5.85358 76.4209 6.2246C76.7919 6.59562 77.2949 6.80442 77.8196 6.80522C78.211 6.80503 78.5935 6.68885 78.9188 6.47134C79.2441 6.25384 79.4977 5.94478 79.6474 5.58322C79.7972 5.22166 79.8363 4.82382 79.76 4.43999C79.6837 4.05616 79.4954 3.70356 79.2188 3.42675C78.8545 3.05843 78.3588 2.84975 77.8408 2.84655H77.8226Z" fill="url(#paint87_linear_9_2216)"/>
<path d="M79.2429 6.2462C79.573 5.91758 79.779 5.48463 79.8255 5.02116C79.8721 4.5577 79.7565 4.09243 79.4984 3.70468C79.2403 3.31693 78.8557 3.03071 78.4101 2.89483C77.9646 2.75895 77.4857 2.78182 77.0552 2.95954C76.6246 3.13727 76.269 3.45883 76.049 3.86942C75.8291 4.28 75.7583 4.75417 75.8489 5.21108C75.9394 5.668 76.1856 6.07936 76.5456 6.37502C76.9055 6.67069 77.3568 6.83236 77.8226 6.83245C78.355 6.83256 78.8657 6.62176 79.2429 6.2462Z" fill="url(#paint88_radial_9_2216)"/>
<g style="mix-blend-mode:screen">
<path style="mix-blend-mode:screen" d="M106.851 89.6411H32.8449C32.2521 89.6403 31.6838 89.4045 31.2646 88.9853C30.8454 88.5661 30.6095 87.9978 30.6087 87.4049V51.8313C30.6095 51.2388 30.8455 50.6707 31.2647 50.252C31.684 49.8333 32.2523 49.5981 32.8449 49.5981H106.851C107.443 49.5981 108.012 49.8333 108.431 50.252C108.85 50.6707 109.086 51.2388 109.087 51.8313V87.42C109.082 88.0102 108.845 88.5747 108.426 88.9906C108.007 89.4066 107.441 89.6403 106.851 89.6411ZM32.8449 50.0544C32.3709 50.0544 31.9164 50.2425 31.581 50.5773C31.2456 50.9122 31.0567 51.3664 31.0559 51.8404V87.42C31.0567 87.8942 31.2455 88.3488 31.5808 88.6841C31.9161 89.0195 32.3707 89.2082 32.8449 89.209H106.851C107.325 89.2082 107.78 89.0195 108.115 88.6841C108.45 88.3488 108.639 87.8942 108.64 87.42V51.8313C108.639 51.3574 108.45 50.9031 108.115 50.5683C107.779 50.2334 107.325 50.0454 106.851 50.0454L32.8449 50.0544Z" fill="url(#paint89_linear_9_2216)"/>
</g>
<circle cx="58.3256" cy="17.7754" r="6.16579" fill="#C4C4C4" fill-opacity="0.43" stroke="black"/>
<path d="M59.7915 16.3499V24.8871H57.9575V18.4359L55.9771 19.0394V17.6214L59.6099 16.3499H59.7915Z" fill="black"/>
</g>
<defs>
<linearGradient id="paint0_linear_9_2216" x1="131.752" y1="45.8878" x2="131.752" y2="91.9395" gradientUnits="userSpaceOnUse">
<stop stop-color="#B7761D"/>
<stop offset="0.18" stop-color="#FFA52D"/>
<stop offset="0.32" stop-color="#FFD784"/>
<stop offset="0.59" stop-color="#B7761D"/>
<stop offset="0.75" stop-color="#E09126"/>
<stop offset="0.9" stop-color="#84571E"/>
<stop offset="1" stop-color="#764E1D"/>
</linearGradient>
<linearGradient id="paint1_linear_9_2216" x1="129.074" y1="50.0171" x2="139.035" y2="69.9564" gradientUnits="userSpaceOnUse">
<stop stop-color="#787576"/>
<stop offset="1" stop-color="white"/>
</linearGradient>
<linearGradient id="paint2_linear_9_2216" x1="14725.2" y1="10170.8" x2="14883.5" y2="10186.2" gradientUnits="userSpaceOnUse">
<stop stop-color="#B7761D"/>
<stop offset="0.18" stop-color="#FFA52D"/>
<stop offset="0.32" stop-color="#FFD784"/>
<stop offset="0.59" stop-color="#B7761D"/>
<stop offset="0.75" stop-color="#E09126"/>
<stop offset="0.9" stop-color="#84571E"/>
<stop offset="1" stop-color="#764E1D"/>
</linearGradient>
<linearGradient id="paint3_linear_9_2216" x1="13.4686" y1="51.925" x2="126.197" y2="51.925" gradientUnits="userSpaceOnUse">
<stop offset="0.02" stop-color="#FA1826"/>
<stop offset="0.59" stop-color="#AA060F"/>
<stop offset="1" stop-color="#63040C"/>
</linearGradient>
<linearGradient id="paint4_linear_9_2216" x1="68.9715" y1="121.489" x2="68.9715" y2="113.432" gradientUnits="userSpaceOnUse">
<stop stop-color="#63040C"/>
<stop offset="0.41" stop-color="#AA060F"/>
<stop offset="0.98" stop-color="#FA1826"/>
</linearGradient>
<linearGradient id="paint5_linear_9_2216" x1="31745.1" y1="4073.24" x2="31745.1" y2="4624.39" gradientUnits="userSpaceOnUse">
<stop stop-color="#63040C"/>
<stop offset="0.41" stop-color="#AA060F"/>
<stop offset="0.98" stop-color="#FA1826"/>
</linearGradient>
<linearGradient id="paint6_linear_9_2216" x1="69.8359" y1="40.5869" x2="69.8359" y2="103.699" gradientUnits="userSpaceOnUse">
<stop stop-color="#C80D18"/>
<stop offset="0.59" stop-color="#AA060F"/>
<stop offset="1" stop-color="#63040C"/>
</linearGradient>
<linearGradient id="paint7_linear_9_2216" x1="69.8357" y1="36.3562" x2="69.8357" y2="129.868" gradientUnits="userSpaceOnUse">
<stop stop-color="#63040C"/>
<stop offset="1" stop-color="#AA060F"/>
</linearGradient>
<linearGradient id="paint8_linear_9_2216" x1="69.8359" y1="91.6748" x2="69.8359" y2="44.5969" gradientUnits="userSpaceOnUse">
<stop stop-color="#E0881C"/>
<stop offset="0.59" stop-color="#E0881C"/>
<stop offset="0.9" stop-color="#9B601D"/>
<stop offset="1" stop-color="#88551C"/>
</linearGradient>
<linearGradient id="paint9_linear_9_2216" x1="44.9384" y1="51.931" x2="44.9384" y2="90.2364" gradientUnits="userSpaceOnUse">
<stop stop-color="#793E0C"/>
<stop offset="1" stop-color="#5D3804"/>
</linearGradient>
<linearGradient id="paint10_linear_9_2216" x1="44.9385" y1="51.931" x2="44.9385" y2="90.2364" gradientUnits="userSpaceOnUse">
<stop stop-color="#9E3D00"/>
<stop offset="1" stop-color="#FFCF4F"/>
</linearGradient>
<linearGradient id="paint11_linear_9_2216" x1="44.9385" y1="54.9892" x2="44.9385" y2="87.5319" gradientUnits="userSpaceOnUse">
<stop stop-color="#959595"/>
<stop offset="0.01" stop-color="#999999"/>
<stop offset="0.07" stop-color="#BBBBBB"/>
<stop offset="0.13" stop-color="#D6D6D6"/>
<stop offset="0.19" stop-color="#E9E9E9"/>
<stop offset="0.25" stop-color="#F4F4F4"/>
<stop offset="0.32" stop-color="#F8F8F8"/>
<stop offset="0.4" stop-color="#F4F4F4"/>
<stop offset="0.47" stop-color="#E9E9E9"/>
<stop offset="0.55" stop-color="#D5D5D5"/>
<stop offset="0.63" stop-color="#BABABA"/>
<stop offset="0.7" stop-color="#959595"/>
<stop offset="0.81" stop-color="#B2B2B2"/>
<stop offset="1" stop-color="#777777"/>
</linearGradient>
<linearGradient id="paint12_linear_9_2216" x1="44.8931" y1="73.7007" x2="44.8931" y2="62.0241" gradientUnits="userSpaceOnUse">
<stop offset="0.1" stop-color="white"/>
<stop offset="0.41" stop-color="#DEDDDD"/>
<stop offset="1" stop-color="#231F20"/>
</linearGradient>
<linearGradient id="paint13_linear_9_2216" x1="4836.55" y1="5781.95" x2="4836.55" y2="10007.8" gradientUnits="userSpaceOnUse">
<stop stop-color="#793E0C"/>
<stop offset="1" stop-color="#5D3804"/>
</linearGradient>
<linearGradient id="paint14_linear_9_2216" x1="20831.1" y1="10839.6" x2="20831.1" y2="15065.4" gradientUnits="userSpaceOnUse">
<stop stop-color="#9E3D00"/>
<stop offset="1" stop-color="#FFCF4F"/>
</linearGradient>
<linearGradient id="paint15_linear_9_2216" x1="4131.4" y1="4613.47" x2="4131.4" y2="7309.96" gradientUnits="userSpaceOnUse">
<stop stop-color="#959595"/>
<stop offset="0.01" stop-color="#999999"/>
<stop offset="0.07" stop-color="#BBBBBB"/>
<stop offset="0.13" stop-color="#D6D6D6"/>
<stop offset="0.19" stop-color="#E9E9E9"/>
<stop offset="0.25" stop-color="#F4F4F4"/>
<stop offset="0.32" stop-color="#F8F8F8"/>
<stop offset="0.4" stop-color="#F4F4F4"/>
<stop offset="0.47" stop-color="#E9E9E9"/>
<stop offset="0.55" stop-color="#D5D5D5"/>
<stop offset="0.63" stop-color="#BABABA"/>
<stop offset="0.7" stop-color="#959595"/>
<stop offset="0.81" stop-color="#B2B2B2"/>
<stop offset="1" stop-color="#777777"/>
</linearGradient>
<linearGradient id="paint16_linear_9_2216" x1="19848.5" y1="2407.96" x2="19848.5" y2="2840.46" gradientUnits="userSpaceOnUse">
<stop offset="0.1" stop-color="white"/>
<stop offset="0.41" stop-color="#DEDDDD"/>
<stop offset="1" stop-color="#231F20"/>
</linearGradient>
<linearGradient id="paint17_linear_9_2216" x1="6564.67" y1="5781.95" x2="6564.67" y2="10007.8" gradientUnits="userSpaceOnUse">
<stop stop-color="#793E0C"/>
<stop offset="1" stop-color="#5D3804"/>
</linearGradient>
<linearGradient id="paint18_linear_9_2216" x1="22379.2" y1="10839.6" x2="22379.2" y2="15065.4" gradientUnits="userSpaceOnUse">
<stop stop-color="#9E3D00"/>
<stop offset="1" stop-color="#FFCF4F"/>
</linearGradient>
<linearGradient id="paint19_linear_9_2216" x1="5607.56" y1="4613.47" x2="5607.56" y2="7309.96" gradientUnits="userSpaceOnUse">
<stop stop-color="#959595"/>
<stop offset="0.01" stop-color="#999999"/>
<stop offset="0.07" stop-color="#BBBBBB"/>
<stop offset="0.13" stop-color="#D6D6D6"/>
<stop offset="0.19" stop-color="#E9E9E9"/>
<stop offset="0.25" stop-color="#F4F4F4"/>
<stop offset="0.32" stop-color="#F8F8F8"/>
<stop offset="0.4" stop-color="#F4F4F4"/>
<stop offset="0.47" stop-color="#E9E9E9"/>
<stop offset="0.55" stop-color="#D5D5D5"/>
<stop offset="0.63" stop-color="#BABABA"/>
<stop offset="0.7" stop-color="#959595"/>
<stop offset="0.81" stop-color="#B2B2B2"/>
<stop offset="1" stop-color="#777777"/>
</linearGradient>
<linearGradient id="paint20_linear_9_2216" x1="21321" y1="2407.96" x2="21321" y2="2840.46" gradientUnits="userSpaceOnUse">
<stop offset="0.1" stop-color="white"/>
<stop offset="0.41" stop-color="#DEDDDD"/>
<stop offset="1" stop-color="#231F20"/>
</linearGradient>
<linearGradient id="paint21_linear_9_2216" x1="124909" y1="6256.24" x2="124909" y2="16400.8" gradientUnits="userSpaceOnUse">
<stop offset="0.02" stop-color="#FA1826"/>
<stop offset="0.59" stop-color="#AA060F"/>
<stop offset="1" stop-color="#63040C"/>
</linearGradient>
<linearGradient id="paint22_linear_9_2216" x1="0.692068" y1="114.653" x2="138.65" y2="114.653" gradientUnits="userSpaceOnUse">
<stop stop-color="#FFB585"/>
<stop offset="0.18" stop-color="#F5746C"/>
<stop offset="0.54" stop-color="#F4726A"/>
<stop offset="0.67" stop-color="#EF6B65"/>
<stop offset="0.76" stop-color="#E75F5B"/>
<stop offset="0.84" stop-color="#DB4E4C"/>
<stop offset="0.9" stop-color="#CC383A"/>
<stop offset="0.96" stop-color="#BA1E23"/>
<stop offset="1" stop-color="#AA060F"/>
</linearGradient>
<linearGradient id="paint23_linear_9_2216" x1="75.9279" y1="109.815" x2="123.287" y2="109.815" gradientUnits="userSpaceOnUse">
<stop offset="0.02" stop-color="#3945E5"/>
<stop offset="0.59" stop-color="#181E76"/>
<stop offset="1" stop-color="#0A0D31"/>
</linearGradient>
<linearGradient id="paint24_linear_9_2216" x1="29772.1" y1="3444.12" x2="31229" y2="5716.65" gradientUnits="userSpaceOnUse">
<stop offset="0.02" stop-color="#3945E5"/>
<stop offset="0.59" stop-color="#181E76"/>
<stop offset="1" stop-color="#0A0D31"/>
</linearGradient>
<linearGradient id="paint25_linear_9_2216" x1="95.1471" y1="106.255" x2="122.468" y2="106.255" gradientUnits="userSpaceOnUse">
<stop stop-color="#AA560A"/>
<stop offset="0.05" stop-color="#AF5A0B"/>
<stop offset="0.11" stop-color="#BE640C"/>
<stop offset="0.18" stop-color="#D6750F"/>
<stop offset="0.25" stop-color="#F88C12"/>
<stop offset="0.26" stop-color="#FF9113"/>
<stop offset="0.28" stop-color="#EA8211"/>
<stop offset="0.32" stop-color="#CE6F0E"/>
<stop offset="0.36" stop-color="#BA610C"/>
<stop offset="0.4" stop-color="#AE590A"/>
<stop offset="0.44" stop-color="#AA560A"/>
<stop offset="0.6" stop-color="#B2510B"/>
<stop offset="0.64" stop-color="#933F0A"/>
<stop offset="0.74" stop-color="#561C07"/>
<stop offset="0.76" stop-color="#5A1F07"/>
<stop offset="0.78" stop-color="#652608"/>
<stop offset="0.81" stop-color="#783308"/>
<stop offset="0.82" stop-color="#8B4009"/>
<stop offset="0.92" stop-color="#AA560A"/>
<stop offset="1" stop-color="#8F4008"/>
</linearGradient>
<linearGradient id="paint26_linear_9_2216" x1="93.4126" y1="91.3576" x2="111.74" y2="106.107" gradientUnits="userSpaceOnUse">
<stop offset="0.2" stop-color="#AA560A"/>
<stop offset="0.68" stop-color="#FFDB66"/>
<stop offset="1" stop-color="#AA560A"/>
</linearGradient>
<linearGradient id="paint27_linear_9_2216" x1="14466.6" y1="1812.91" x2="16044.1" y2="1812.91" gradientUnits="userSpaceOnUse">
<stop offset="0.02" stop-color="#3945E5"/>
<stop offset="0.59" stop-color="#181E76"/>
<stop offset="1" stop-color="#0A0D31"/>
</linearGradient>
<linearGradient id="paint28_linear_9_2216" x1="14978.9" y1="2297.7" x2="15568.8" y2="3218.36" gradientUnits="userSpaceOnUse">
<stop offset="0.02" stop-color="#3945E5"/>
<stop offset="0.59" stop-color="#181E76"/>
<stop offset="1" stop-color="#0A0D31"/>
</linearGradient>
<linearGradient id="paint29_linear_9_2216" x1="12706.4" y1="2228.46" x2="13471.6" y2="2228.46" gradientUnits="userSpaceOnUse">
<stop stop-color="#AA560A"/>
<stop offset="0.05" stop-color="#AF5A0B"/>
<stop offset="0.11" stop-color="#BE640C"/>
<stop offset="0.18" stop-color="#D6750F"/>
<stop offset="0.25" stop-color="#F88C12"/>
<stop offset="0.26" stop-color="#FF9113"/>
<stop offset="0.28" stop-color="#EA8211"/>
<stop offset="0.32" stop-color="#CE6F0E"/>
<stop offset="0.36" stop-color="#BA610C"/>
<stop offset="0.4" stop-color="#AE590A"/>
<stop offset="0.44" stop-color="#AA560A"/>
<stop offset="0.6" stop-color="#B2510B"/>
<stop offset="0.64" stop-color="#933F0A"/>
<stop offset="0.74" stop-color="#561C07"/>
<stop offset="0.76" stop-color="#5A1F07"/>
<stop offset="0.78" stop-color="#652608"/>
<stop offset="0.81" stop-color="#783308"/>
<stop offset="0.82" stop-color="#8B4009"/>
<stop offset="0.92" stop-color="#AA560A"/>
<stop offset="1" stop-color="#8F4008"/>
</linearGradient>
<linearGradient id="paint30_linear_9_2216" x1="12647.2" y1="1947.45" x2="12744.2" y2="2216.9" gradientUnits="userSpaceOnUse">
<stop offset="0.2" stop-color="#AA560A"/>
<stop offset="0.68" stop-color="#FFDB66"/>
<stop offset="1" stop-color="#AA560A"/>
</linearGradient>
<linearGradient id="paint31_linear_9_2216" x1="15383.8" y1="1812.91" x2="16961.6" y2="1812.91" gradientUnits="userSpaceOnUse">
<stop offset="0.02" stop-color="#3945E5"/>
<stop offset="0.59" stop-color="#181E76"/>
<stop offset="1" stop-color="#0A0D31"/>
</linearGradient>
<linearGradient id="paint32_linear_9_2216" x1="15896.2" y1="2297.7" x2="16486" y2="3218.46" gradientUnits="userSpaceOnUse">
<stop offset="0.02" stop-color="#3945E5"/>
<stop offset="0.59" stop-color="#181E76"/>
<stop offset="1" stop-color="#0A0D31"/>
</linearGradient>
<linearGradient id="paint33_linear_9_2216" x1="13477.8" y1="2228.46" x2="14242.9" y2="2228.46" gradientUnits="userSpaceOnUse">
<stop stop-color="#AA560A"/>
<stop offset="0.05" stop-color="#AF5A0B"/>
<stop offset="0.11" stop-color="#BE640C"/>
<stop offset="0.18" stop-color="#D6750F"/>
<stop offset="0.25" stop-color="#F88C12"/>
<stop offset="0.26" stop-color="#FF9113"/>
<stop offset="0.28" stop-color="#EA8211"/>
<stop offset="0.32" stop-color="#CE6F0E"/>
<stop offset="0.36" stop-color="#BA610C"/>
<stop offset="0.4" stop-color="#AE590A"/>
<stop offset="0.44" stop-color="#AA560A"/>
<stop offset="0.6" stop-color="#B2510B"/>
<stop offset="0.64" stop-color="#933F0A"/>
<stop offset="0.74" stop-color="#561C07"/>
<stop offset="0.76" stop-color="#5A1F07"/>
<stop offset="0.78" stop-color="#652608"/>
<stop offset="0.81" stop-color="#783308"/>
<stop offset="0.82" stop-color="#8B4009"/>
<stop offset="0.92" stop-color="#AA560A"/>
<stop offset="1" stop-color="#8F4008"/>
</linearGradient>
<linearGradient id="paint34_linear_9_2216" x1="13418.7" y1="1947.45" x2="13515.6" y2="2216.9" gradientUnits="userSpaceOnUse">
<stop offset="0.2" stop-color="#AA560A"/>
<stop offset="0.68" stop-color="#FFDB66"/>
<stop offset="1" stop-color="#AA560A"/>
</linearGradient>
<linearGradient id="paint35_linear_9_2216" x1="16294.9" y1="1812.91" x2="17872.5" y2="1812.91" gradientUnits="userSpaceOnUse">
<stop offset="0.02" stop-color="#3945E5"/>
<stop offset="0.59" stop-color="#181E76"/>
<stop offset="1" stop-color="#0A0D31"/>
</linearGradient>
<linearGradient id="paint36_linear_9_2216" x1="16807.3" y1="2297.7" x2="17397.3" y2="3218.45" gradientUnits="userSpaceOnUse">
<stop offset="0.02" stop-color="#3945E5"/>
<stop offset="0.59" stop-color="#181E76"/>
<stop offset="1" stop-color="#0A0D31"/>
</linearGradient>
<linearGradient id="paint37_linear_9_2216" x1="14249.1" y1="2228.46" x2="15014.3" y2="2228.46" gradientUnits="userSpaceOnUse">
<stop stop-color="#AA560A"/>
<stop offset="0.05" stop-color="#AF5A0B"/>
<stop offset="0.11" stop-color="#BE640C"/>
<stop offset="0.18" stop-color="#D6750F"/>
<stop offset="0.25" stop-color="#F88C12"/>
<stop offset="0.26" stop-color="#FF9113"/>
<stop offset="0.28" stop-color="#EA8211"/>
<stop offset="0.32" stop-color="#CE6F0E"/>
<stop offset="0.36" stop-color="#BA610C"/>
<stop offset="0.4" stop-color="#AE590A"/>
<stop offset="0.44" stop-color="#AA560A"/>
<stop offset="0.6" stop-color="#B2510B"/>
<stop offset="0.64" stop-color="#933F0A"/>
<stop offset="0.74" stop-color="#561C07"/>
<stop offset="0.76" stop-color="#5A1F07"/>
<stop offset="0.78" stop-color="#652608"/>
<stop offset="0.81" stop-color="#783308"/>
<stop offset="0.82" stop-color="#8B4009"/>
<stop offset="0.92" stop-color="#AA560A"/>
<stop offset="1" stop-color="#8F4008"/>
</linearGradient>
<linearGradient id="paint38_linear_9_2216" x1="14190.1" y1="1947.45" x2="14287" y2="2216.83" gradientUnits="userSpaceOnUse">
<stop offset="0.2" stop-color="#AA560A"/>
<stop offset="0.68" stop-color="#FFDB66"/>
<stop offset="1" stop-color="#AA560A"/>
</linearGradient>
<linearGradient id="paint39_linear_9_2216" x1="16.754" y1="33.9177" x2="20.8139" y2="37.9776" gradientUnits="userSpaceOnUse">
<stop stop-color="#FF8611"/>
<stop offset="0.05" stop-color="#F47610"/>
<stop offset="0.17" stop-color="#DA530D"/>
<stop offset="0.31" stop-color="#C5350B"/>
<stop offset="0.45" stop-color="#B51F09"/>
<stop offset="0.6" stop-color="#A90F08"/>
<stop offset="0.77" stop-color="#A20507"/>
<stop offset="1" stop-color="#A00207"/>
</linearGradient>
<radialGradient id="paint40_radial_9_2216" cx="0" cy="0" r="1" gradientUnits="userSpaceOnUse" gradientTransform="translate(18.2372 35.3681) scale(2.39032)">
<stop offset="0.01" stop-color="#FFFFB5"/>
<stop offset="0.83" stop-color="#FF740B"/>
<stop offset="1" stop-color="#FF821C"/>
</radialGradient>
<linearGradient id="paint41_linear_9_2216" x1="4834.27" y1="-1837.21" x2="4943.47" y2="-1837.21" gradientUnits="userSpaceOnUse">
<stop stop-color="#FF8611"/>
<stop offset="0.05" stop-color="#F47610"/>
<stop offset="0.17" stop-color="#DA530D"/>
<stop offset="0.31" stop-color="#C5350B"/>
<stop offset="0.45" stop-color="#B51F09"/>
<stop offset="0.6" stop-color="#A90F08"/>
<stop offset="0.77" stop-color="#A20507"/>
<stop offset="1" stop-color="#A00207"/>
</linearGradient>
<radialGradient id="paint42_radial_9_2216" cx="0" cy="0" r="1" gradientUnits="userSpaceOnUse" gradientTransform="translate(3837.11 1310.39) scale(31.7434)">
<stop offset="0.01" stop-color="#FFFFB5"/>
<stop offset="0.83" stop-color="#FF740B"/>
<stop offset="1" stop-color="#FF821C"/>
</radialGradient>
<linearGradient id="paint43_linear_9_2216" x1="5041.53" y1="-1614.48" x2="5150.79" y2="-1614.48" gradientUnits="userSpaceOnUse">
<stop stop-color="#FF8611"/>
<stop offset="0.05" stop-color="#F47610"/>
<stop offset="0.17" stop-color="#DA530D"/>
<stop offset="0.31" stop-color="#C5350B"/>
<stop offset="0.45" stop-color="#B51F09"/>
<stop offset="0.6" stop-color="#A90F08"/>
<stop offset="0.77" stop-color="#A20507"/>
<stop offset="1" stop-color="#A00207"/>
</linearGradient>
<radialGradient id="paint44_radial_9_2216" cx="0" cy="0" r="1" gradientUnits="userSpaceOnUse" gradientTransform="translate(3837.11 1530.47) scale(31.7434)">
<stop offset="0.01" stop-color="#FFFFB5"/>
<stop offset="0.83" stop-color="#FF740B"/>
<stop offset="1" stop-color="#FF821C"/>
</radialGradient>
<linearGradient id="paint45_linear_9_2216" x1="5248.79" y1="-1391.81" x2="5358.05" y2="-1391.81" gradientUnits="userSpaceOnUse">
<stop stop-color="#FF8611"/>
<stop offset="0.05" stop-color="#F47610"/>
<stop offset="0.17" stop-color="#DA530D"/>
<stop offset="0.31" stop-color="#C5350B"/>
<stop offset="0.45" stop-color="#B51F09"/>
<stop offset="0.6" stop-color="#A90F08"/>
<stop offset="0.77" stop-color="#A20507"/>
<stop offset="1" stop-color="#A00207"/>
</linearGradient>
<radialGradient id="paint46_radial_9_2216" cx="0" cy="0" r="1" gradientUnits="userSpaceOnUse" gradientTransform="translate(3848.61 1755.57) scale(31.8389)">
<stop offset="0.01" stop-color="#FFFFB5"/>
<stop offset="0.83" stop-color="#FF740B"/>
<stop offset="1" stop-color="#FF821C"/>
</radialGradient>
<linearGradient id="paint47_linear_9_2216" x1="5456.1" y1="-1169.14" x2="5565.31" y2="-1169.14" gradientUnits="userSpaceOnUse">
<stop stop-color="#FF8611"/>
<stop offset="0.05" stop-color="#F47610"/>
<stop offset="0.17" stop-color="#DA530D"/>
<stop offset="0.31" stop-color="#C5350B"/>
<stop offset="0.45" stop-color="#B51F09"/>
<stop offset="0.6" stop-color="#A90F08"/>
<stop offset="0.77" stop-color="#A20507"/>
<stop offset="1" stop-color="#A00207"/>
</linearGradient>
<radialGradient id="paint48_radial_9_2216" cx="0" cy="0" r="1" gradientUnits="userSpaceOnUse" gradientTransform="translate(3848.61 1976.26) scale(31.8389)">
<stop offset="0.01" stop-color="#FFFFB5"/>
<stop offset="0.83" stop-color="#FF740B"/>
<stop offset="1" stop-color="#FF821C"/>
</radialGradient>
<linearGradient id="paint49_linear_9_2216" x1="6307.84" y1="-3211.45" x2="6416.99" y2="-3211.45" gradientUnits="userSpaceOnUse">
<stop stop-color="#FF8611"/>
<stop offset="0.05" stop-color="#F47610"/>
<stop offset="0.17" stop-color="#DA530D"/>
<stop offset="0.31" stop-color="#C5350B"/>
<stop offset="0.45" stop-color="#B51F09"/>
<stop offset="0.6" stop-color="#A90F08"/>
<stop offset="0.77" stop-color="#A20507"/>
<stop offset="1" stop-color="#A00207"/>
</linearGradient>
<radialGradient id="paint50_radial_9_2216" cx="0" cy="0" r="1" gradientUnits="userSpaceOnUse" gradientTransform="translate(5299.82 1310.39) scale(31.7434)">
<stop offset="0.01" stop-color="#FFFFB5"/>
<stop offset="0.83" stop-color="#FF740B"/>
<stop offset="1" stop-color="#FF821C"/>
</radialGradient>
<linearGradient id="paint51_linear_9_2216" x1="6514.94" y1="-2988.94" x2="6624.03" y2="-2988.94" gradientUnits="userSpaceOnUse">
<stop stop-color="#FF8611"/>
<stop offset="0.05" stop-color="#F47610"/>
<stop offset="0.17" stop-color="#DA530D"/>
<stop offset="0.31" stop-color="#C5350B"/>
<stop offset="0.45" stop-color="#B51F09"/>
<stop offset="0.6" stop-color="#A90F08"/>
<stop offset="0.77" stop-color="#A20507"/>
<stop offset="1" stop-color="#A00207"/>
</linearGradient>
<radialGradient id="paint52_radial_9_2216" cx="0" cy="0" r="1" gradientUnits="userSpaceOnUse" gradientTransform="translate(5299.82 1530.47) scale(31.7434)">
<stop offset="0.01" stop-color="#FFFFB5"/>
<stop offset="0.83" stop-color="#FF740B"/>
<stop offset="1" stop-color="#FF821C"/>
</radialGradient>
<linearGradient id="paint53_linear_9_2216" x1="6721.98" y1="-2766.48" x2="6831.13" y2="-2766.48" gradientUnits="userSpaceOnUse">
<stop stop-color="#FF8611"/>
<stop offset="0.05" stop-color="#F47610"/>
<stop offset="0.17" stop-color="#DA530D"/>
<stop offset="0.31" stop-color="#C5350B"/>
<stop offset="0.45" stop-color="#B51F09"/>
<stop offset="0.6" stop-color="#A90F08"/>
<stop offset="0.77" stop-color="#A20507"/>
<stop offset="1" stop-color="#A00207"/>
</linearGradient>
<radialGradient id="paint54_radial_9_2216" cx="0" cy="0" r="1" gradientUnits="userSpaceOnUse" gradientTransform="translate(5294.96 1750.55) scale(31.7136 31.7433)">
<stop offset="0.01" stop-color="#FFFFB5"/>
<stop offset="0.83" stop-color="#FF740B"/>
<stop offset="1" stop-color="#FF821C"/>
</radialGradient>
<linearGradient id="paint55_linear_9_2216" x1="6929.08" y1="-2544.02" x2="7038.17" y2="-2544.02" gradientUnits="userSpaceOnUse">
<stop stop-color="#FF8611"/>
<stop offset="0.05" stop-color="#F47610"/>
<stop offset="0.17" stop-color="#DA530D"/>
<stop offset="0.31" stop-color="#C5350B"/>
<stop offset="0.45" stop-color="#B51F09"/>
<stop offset="0.6" stop-color="#A90F08"/>
<stop offset="0.77" stop-color="#A20507"/>
<stop offset="1" stop-color="#A00207"/>
</linearGradient>
<radialGradient id="paint56_radial_9_2216" cx="0" cy="0" r="1" gradientUnits="userSpaceOnUse" gradientTransform="translate(5294.96 1970.62) scale(31.7136 31.7433)">
<stop offset="0.01" stop-color="#FFFFB5"/>
<stop offset="0.83" stop-color="#FF740B"/>
<stop offset="1" stop-color="#FF821C"/>
</radialGradient>
<linearGradient id="paint57_linear_9_2216" x1="21.4549" y1="21.3491" x2="25.517" y2="25.4111" gradientUnits="userSpaceOnUse">
<stop stop-color="#FFA11A"/>
<stop offset="0.11" stop-color="#EE7816"/>
<stop offset="0.23" stop-color="#DE5513"/>
<stop offset="0.35" stop-color="#D23711"/>
<stop offset="0.48" stop-color="#C8210F"/>
<stop offset="0.63" stop-color="#C1110D"/>
<stop offset="0.79" stop-color="#BD070C"/>
<stop offset="1" stop-color="#BC040C"/>
</linearGradient>
<radialGradient id="paint58_radial_9_2216" cx="0" cy="0" r="1" gradientUnits="userSpaceOnUse" gradientTransform="translate(22.9422 22.8031) scale(2.39031)">
<stop offset="0.01" stop-color="#FFFFD1"/>
<stop offset="0.83" stop-color="#FF8E12"/>
<stop offset="1" stop-color="#FF9C29"/>
</radialGradient>
<linearGradient id="paint59_linear_9_2216" x1="4573.26" y1="-2569.51" x2="4682.41" y2="-2569.51" gradientUnits="userSpaceOnUse">
<stop stop-color="#FFA11A"/>
<stop offset="0.11" stop-color="#EE7816"/>
<stop offset="0.23" stop-color="#DE5513"/>
<stop offset="0.35" stop-color="#D23711"/>
<stop offset="0.48" stop-color="#C8210F"/>
<stop offset="0.63" stop-color="#C1110D"/>
<stop offset="0.79" stop-color="#BD070C"/>
<stop offset="1" stop-color="#BC040C"/>
</linearGradient>
<radialGradient id="paint60_radial_9_2216" cx="0" cy="0" r="1" gradientUnits="userSpaceOnUse" gradientTransform="translate(4075.8 797.199) scale(31.8391)">
<stop offset="0.01" stop-color="#FFFFD1"/>
<stop offset="0.83" stop-color="#FF8E12"/>
<stop offset="1" stop-color="#FF9C29"/>
</radialGradient>
<linearGradient id="paint61_linear_9_2216" x1="4684.83" y1="-2833.58" x2="4794.03" y2="-2833.58" gradientUnits="userSpaceOnUse">
<stop stop-color="#FFA11A"/>
<stop offset="0.11" stop-color="#EE7816"/>
<stop offset="0.23" stop-color="#DE5513"/>
<stop offset="0.35" stop-color="#D23711"/>
<stop offset="0.48" stop-color="#C8210F"/>
<stop offset="0.63" stop-color="#C1110D"/>
<stop offset="0.79" stop-color="#BD070C"/>
<stop offset="1" stop-color="#BC040C"/>
</linearGradient>
<radialGradient id="paint62_radial_9_2216" cx="0" cy="0" r="1" gradientUnits="userSpaceOnUse" gradientTransform="translate(4261.75 711.21) scale(31.839)">
<stop offset="0.01" stop-color="#FFFFD1"/>
<stop offset="0.83" stop-color="#FF8E12"/>
<stop offset="1" stop-color="#FF9C29"/>
</radialGradient>
<linearGradient id="paint63_linear_9_2216" x1="4843.7" y1="-3060.49" x2="4952.84" y2="-3060.49" gradientUnits="userSpaceOnUse">
<stop stop-color="#FFA11A"/>
<stop offset="0.11" stop-color="#EE7816"/>
<stop offset="0.23" stop-color="#DE5513"/>
<stop offset="0.35" stop-color="#D23711"/>
<stop offset="0.48" stop-color="#C8210F"/>
<stop offset="0.63" stop-color="#C1110D"/>
<stop offset="0.79" stop-color="#BD070C"/>
<stop offset="1" stop-color="#BC040C"/>
</linearGradient>
<radialGradient id="paint64_radial_9_2216" cx="0" cy="0" r="1" gradientUnits="userSpaceOnUse" gradientTransform="translate(4445.21 668.065) scale(31.7139 31.7433)">
<stop offset="0.01" stop-color="#FFFFD1"/>
<stop offset="0.83" stop-color="#FF8E12"/>
<stop offset="1" stop-color="#FF9C29"/>
</radialGradient>
<linearGradient id="paint65_linear_9_2216" x1="4826.46" y1="-2206.05" x2="4935.61" y2="-2206.05" gradientUnits="userSpaceOnUse">
<stop stop-color="#FF8611"/>
<stop offset="0.05" stop-color="#F47610"/>
<stop offset="0.17" stop-color="#DA530D"/>
<stop offset="0.31" stop-color="#C5350B"/>
<stop offset="0.45" stop-color="#B51F09"/>
<stop offset="0.6" stop-color="#A90F08"/>
<stop offset="0.77" stop-color="#A20507"/>
<stop offset="1" stop-color="#A00207"/>
</linearGradient>
<radialGradient id="paint66_radial_9_2216" cx="0" cy="0" r="1" gradientUnits="userSpaceOnUse" gradientTransform="translate(4018.19 1113.09) scale(31.7403 31.7621)">
<stop offset="0.01" stop-color="#FFFFB5"/>
<stop offset="0.83" stop-color="#FF740B"/>
<stop offset="1" stop-color="#FF821C"/>
</radialGradient>
<linearGradient id="paint67_linear_9_2216" x1="5016.62" y1="-2377.72" x2="5125.83" y2="-2377.72" gradientUnits="userSpaceOnUse">
<stop stop-color="#FF8611"/>
<stop offset="0.05" stop-color="#F47610"/>
<stop offset="0.17" stop-color="#DA530D"/>
<stop offset="0.31" stop-color="#C5350B"/>
<stop offset="0.45" stop-color="#B51F09"/>
<stop offset="0.6" stop-color="#A90F08"/>
<stop offset="0.77" stop-color="#A20507"/>
<stop offset="1" stop-color="#A00207"/>
</linearGradient>
<radialGradient id="paint68_radial_9_2216" cx="0" cy="0" r="1" gradientUnits="userSpaceOnUse" gradientTransform="translate(4206.33 1115.67) scale(31.7912)">
<stop offset="0.01" stop-color="#FFFFB5"/>
<stop offset="0.83" stop-color="#FF740B"/>
<stop offset="1" stop-color="#FF821C"/>
</radialGradient>
<linearGradient id="paint69_linear_9_2216" x1="5197.62" y1="-2549.33" x2="5306.77" y2="-2549.33" gradientUnits="userSpaceOnUse">
<stop stop-color="#FF8611"/>
<stop offset="0.05" stop-color="#F47610"/>
<stop offset="0.17" stop-color="#DA530D"/>
<stop offset="0.31" stop-color="#C5350B"/>
<stop offset="0.45" stop-color="#B51F09"/>
<stop offset="0.6" stop-color="#A90F08"/>
<stop offset="0.77" stop-color="#A20507"/>
<stop offset="1" stop-color="#A00207"/>
</linearGradient>
<radialGradient id="paint70_radial_9_2216" cx="0" cy="0" r="1" gradientUnits="userSpaceOnUse" gradientTransform="translate(4388.07 1115.67) scale(31.7911)">
<stop offset="0.01" stop-color="#FFFFB5"/>
<stop offset="0.83" stop-color="#FF740B"/>
<stop offset="1" stop-color="#FF821C"/>
</radialGradient>
<linearGradient id="paint71_linear_9_2216" x1="5378.37" y1="-2716.7" x2="5487.46" y2="-2716.7" gradientUnits="userSpaceOnUse">
<stop stop-color="#FF8611"/>
<stop offset="0.05" stop-color="#F47610"/>
<stop offset="0.17" stop-color="#DA530D"/>
<stop offset="0.31" stop-color="#C5350B"/>
<stop offset="0.45" stop-color="#B51F09"/>
<stop offset="0.6" stop-color="#A90F08"/>
<stop offset="0.77" stop-color="#A20507"/>
<stop offset="1" stop-color="#A00207"/>
</linearGradient>
<radialGradient id="paint72_radial_9_2216" cx="0" cy="0" r="1" gradientUnits="userSpaceOnUse" gradientTransform="translate(4569.84 1115.67) scale(31.7912)">
<stop offset="0.01" stop-color="#FFFFB5"/>
<stop offset="0.83" stop-color="#FF740B"/>
<stop offset="1" stop-color="#FF821C"/>
</radialGradient>
<linearGradient id="paint73_linear_9_2216" x1="5567.65" y1="-2890.56" x2="5676.85" y2="-2890.56" gradientUnits="userSpaceOnUse">
<stop stop-color="#FF8611"/>
<stop offset="0.05" stop-color="#F47610"/>
<stop offset="0.17" stop-color="#DA530D"/>
<stop offset="0.31" stop-color="#C5350B"/>
<stop offset="0.45" stop-color="#B51F09"/>
<stop offset="0.6" stop-color="#A90F08"/>
<stop offset="0.77" stop-color="#A20507"/>
<stop offset="1" stop-color="#A00207"/>
</linearGradient>
<radialGradient id="paint74_radial_9_2216" cx="0" cy="0" r="1" gradientUnits="userSpaceOnUse" gradientTransform="translate(4751.58 1115.67) scale(31.7911)">
<stop offset="0.01" stop-color="#FFFFB5"/>
<stop offset="0.83" stop-color="#FF740B"/>
<stop offset="1" stop-color="#FF821C"/>
</radialGradient>
<linearGradient id="paint75_linear_9_2216" x1="5751.26" y1="-3061.5" x2="5860.46" y2="-3061.5" gradientUnits="userSpaceOnUse">
<stop stop-color="#FF8611"/>
<stop offset="0.05" stop-color="#F47610"/>
<stop offset="0.17" stop-color="#DA530D"/>
<stop offset="0.31" stop-color="#C5350B"/>
<stop offset="0.45" stop-color="#B51F09"/>
<stop offset="0.6" stop-color="#A90F08"/>
<stop offset="0.77" stop-color="#A20507"/>
<stop offset="1" stop-color="#A00207"/>
</linearGradient>
<radialGradient id="paint76_radial_9_2216" cx="0" cy="0" r="1" gradientUnits="userSpaceOnUse" gradientTransform="translate(4933.34 1115.67) scale(31.7912)">
<stop offset="0.01" stop-color="#FFFFB5"/>
<stop offset="0.83" stop-color="#FF740B"/>
<stop offset="1" stop-color="#FF821C"/>
</radialGradient>
<linearGradient id="paint77_linear_9_2216" x1="5934.98" y1="-3232.45" x2="6044.19" y2="-3232.45" gradientUnits="userSpaceOnUse">
<stop stop-color="#FF8611"/>
<stop offset="0.05" stop-color="#F47610"/>
<stop offset="0.17" stop-color="#DA530D"/>
<stop offset="0.31" stop-color="#C5350B"/>
<stop offset="0.45" stop-color="#B51F09"/>
<stop offset="0.6" stop-color="#A90F08"/>
<stop offset="0.77" stop-color="#A20507"/>
<stop offset="1" stop-color="#A00207"/>
</linearGradient>
<radialGradient id="paint78_radial_9_2216" cx="0" cy="0" r="1" gradientUnits="userSpaceOnUse" gradientTransform="translate(5115.09 1115.67) scale(31.7911)">
<stop offset="0.01" stop-color="#FFFFB5"/>
<stop offset="0.83" stop-color="#FF740B"/>
<stop offset="1" stop-color="#FF821C"/>
</radialGradient>
<linearGradient id="paint79_linear_9_2216" x1="6115.3" y1="-3405.76" x2="6224.5" y2="-3405.76" gradientUnits="userSpaceOnUse">
<stop stop-color="#FF8611"/>
<stop offset="0.05" stop-color="#F47610"/>
<stop offset="0.17" stop-color="#DA530D"/>
<stop offset="0.31" stop-color="#C5350B"/>
<stop offset="0.45" stop-color="#B51F09"/>
<stop offset="0.6" stop-color="#A90F08"/>
<stop offset="0.77" stop-color="#A20507"/>
<stop offset="1" stop-color="#A00207"/>
</linearGradient>
<radialGradient id="paint80_radial_9_2216" cx="0" cy="0" r="1" gradientUnits="userSpaceOnUse" gradientTransform="translate(5293.65 1115.67) scale(31.7912)">
<stop offset="0.01" stop-color="#FFFFB5"/>
<stop offset="0.83" stop-color="#FF740B"/>
<stop offset="1" stop-color="#FF821C"/>
</radialGradient>
<linearGradient id="paint81_linear_9_2216" x1="2996.04" y1="1828.47" x2="3073.26" y2="1905.69" gradientUnits="userSpaceOnUse">
<stop stop-color="#FFA11A"/>
<stop offset="0.11" stop-color="#EE7816"/>
<stop offset="0.23" stop-color="#DE5513"/>
<stop offset="0.35" stop-color="#D23711"/>
<stop offset="0.48" stop-color="#C8210F"/>
<stop offset="0.63" stop-color="#C1110D"/>
<stop offset="0.79" stop-color="#BD070C"/>
<stop offset="1" stop-color="#BC040C"/>
</linearGradient>
<radialGradient id="paint82_radial_9_2216" cx="0" cy="0" r="1" gradientUnits="userSpaceOnUse" gradientTransform="translate(2779.61 931.657) scale(31.6955 31.6956)">
<stop offset="0.01" stop-color="#FFFFD1"/>
<stop offset="0.83" stop-color="#FF8E12"/>
<stop offset="1" stop-color="#FF9C29"/>
</radialGradient>
<linearGradient id="paint83_linear_9_2216" x1="3316.91" y1="1628.43" x2="3394.09" y2="1705.61" gradientUnits="userSpaceOnUse">
<stop stop-color="#FFA11A"/>
<stop offset="0.11" stop-color="#EE7816"/>
<stop offset="0.23" stop-color="#DE5513"/>
<stop offset="0.35" stop-color="#D23711"/>
<stop offset="0.48" stop-color="#C8210F"/>
<stop offset="0.63" stop-color="#C1110D"/>
<stop offset="0.79" stop-color="#BD070C"/>
<stop offset="1" stop-color="#BC040C"/>
</linearGradient>
<radialGradient id="paint84_radial_9_2216" cx="0" cy="0" r="1" gradientUnits="userSpaceOnUse" gradientTransform="translate(2988.61 794.804) scale(31.7218 31.7416)">
<stop offset="0.01" stop-color="#FFFFD1"/>
<stop offset="0.83" stop-color="#FF8E12"/>
<stop offset="1" stop-color="#FF9C29"/>
</radialGradient>
<linearGradient id="paint85_linear_9_2216" x1="3701.02" y1="1502.21" x2="3778.28" y2="1579.47" gradientUnits="userSpaceOnUse">
<stop stop-color="#FFA11A"/>
<stop offset="0.11" stop-color="#EE7816"/>
<stop offset="0.23" stop-color="#DE5513"/>
<stop offset="0.35" stop-color="#D23711"/>
<stop offset="0.48" stop-color="#C8210F"/>
<stop offset="0.63" stop-color="#C1110D"/>
<stop offset="0.79" stop-color="#BD070C"/>
<stop offset="1" stop-color="#BC040C"/>
</linearGradient>
<radialGradient id="paint86_radial_9_2216" cx="0" cy="0" r="1" gradientUnits="userSpaceOnUse" gradientTransform="translate(3233.33 709.103) scale(31.7136 31.7433)">
<stop offset="0.01" stop-color="#FFFFD1"/>
<stop offset="0.83" stop-color="#FF8E12"/>
<stop offset="1" stop-color="#FF9C29"/>
</radialGradient>
<linearGradient id="paint87_linear_9_2216" x1="4109.68" y1="1435.64" x2="4186.9" y2="1512.86" gradientUnits="userSpaceOnUse">
<stop stop-color="#FFA11A"/>
<stop offset="0.11" stop-color="#EE7816"/>
<stop offset="0.23" stop-color="#DE5513"/>
<stop offset="0.35" stop-color="#D23711"/>
<stop offset="0.48" stop-color="#C8210F"/>
<stop offset="0.63" stop-color="#C1110D"/>
<stop offset="0.79" stop-color="#BD070C"/>
<stop offset="1" stop-color="#BC040C"/>
</linearGradient>
<radialGradient id="paint88_radial_9_2216" cx="0" cy="0" r="1" gradientUnits="userSpaceOnUse" gradientTransform="translate(3511.56 670.057) scale(31.839)">
<stop offset="0.01" stop-color="#FFFFD1"/>
<stop offset="0.83" stop-color="#FF8E12"/>
<stop offset="1" stop-color="#FF9C29"/>
</radialGradient>
<linearGradient id="paint89_linear_9_2216" x1="69.8358" y1="89.6411" x2="69.8358" y2="49.5981" gradientUnits="userSpaceOnUse">
<stop offset="0.01" stop-color="#1C75BC"/>
<stop offset="0.54" stop-color="#3D3831"/>
<stop offset="1" stop-color="#231F20"/>
</linearGradient>
<clipPath id="clip0_9_2216">
<rect width="16.109" height="56.1037" fill="white" transform="translate(124.428 29.996)"/>
</clipPath>
</defs>
</svg>
