<svg width="76" height="100" viewBox="0 0 76 100" fill="none" xmlns="http://www.w3.org/2000/svg">
<g style="mix-blend-mode:luminosity">
<path d="M66.6729 24.8068C66.6729 24.8068 71.6672 36.3503 71.3147 37.6837C70.9623 39.0171 64.6122 43.3167 64.6122 43.3167L66.6674 49.9401C66.6674 49.9401 74.5304 39.9695 74.0858 38.3041C73.6411 36.6387 68.0014 23.5278 68.0014 23.5278L66.6729 24.8068Z" fill="#780C0A"/>
<path d="M69.7811 25.2026C71.1927 23.4336 70.9081 20.8511 69.1456 19.4343C67.383 18.0176 64.8098 18.3032 63.3982 20.0722C61.9866 21.8411 62.2711 24.4237 64.0337 25.8404C65.7963 27.2571 68.3695 26.9715 69.7811 25.2026Z" fill="#CA1C18"/>
<g style="mix-blend-mode:screen">
<path d="M69.5144 21.5522C69.5669 22.017 69.481 22.4871 69.2676 22.903C69.0541 23.3189 68.7227 23.6621 68.3151 23.8891C67.9076 24.1161 67.4421 24.2168 66.9775 24.1786C66.513 24.1403 66.0701 23.9647 65.7048 23.6741C65.3396 23.3834 65.0683 22.9906 64.9253 22.5453C64.7823 22.1001 64.774 21.6222 64.9013 21.1722C65.0287 20.7222 65.286 20.3201 65.6409 20.0167C65.9957 19.7134 66.4322 19.5223 66.8951 19.4677C67.5179 19.3957 68.1436 19.5749 68.6347 19.9658C69.1259 20.3566 69.4423 20.9273 69.5144 21.5522Z" fill="#CA1C18"/>
</g>
<path d="M3.49226 11.3857L0 88.8484L30.644 100L76 89.4089L72.524 59.176L56.8685 24.3115L68.419 0L24.7549 1.85044L3.49226 11.3857Z" fill="#CA1C18"/>
<path d="M15.2434 27.7294L24.7766 1.85044H24.7549L3.49226 11.3857L0 88.8484L30.6332 99.9945L28.5834 67.3887L15.2434 27.7294Z" fill="#9C0100"/>
<path d="M29.5052 7.55415L23.2148 23.8435L52.27 22.2543L59.2979 6.53641L29.5052 7.55415Z" fill="#9C0100"/>
<path d="M23.4697 32.9106L32.7535 60.8468L65.5178 55.9051L54.1626 30.1676L23.4697 32.9106Z" fill="#641508"/>
<path d="M34.2284 62.5993C34.2477 62.7732 34.2156 62.9489 34.1361 63.1046C34.0567 63.2602 33.9334 63.3891 33.7817 63.4751C33.6299 63.561 33.4563 63.6004 33.2824 63.5881C33.1085 63.5759 32.9421 63.5127 32.8037 63.4063C32.6654 63.3 32.5612 63.1552 32.5042 62.9899C32.4471 62.8246 32.4398 62.6461 32.4829 62.4767C32.5261 62.3072 32.6179 62.1542 32.747 62.0367C32.8761 61.9191 33.0367 61.8423 33.209 61.8156C33.4476 61.7847 33.6887 61.8497 33.8797 61.9965C34.0707 62.1434 34.1961 62.3601 34.2284 62.5993Z" fill="#FFCD49"/>
<path d="M30.9369 62.9803C30.9572 63.1542 30.926 63.3303 30.8473 63.4866C30.7686 63.6429 30.6459 63.7725 30.4943 63.8593C30.3428 63.9461 30.1691 63.9862 29.995 63.9747C29.8209 63.9632 29.654 63.9005 29.5152 63.7945C29.3763 63.6884 29.2715 63.5438 29.214 63.3784C29.1564 63.2131 29.1486 63.0345 29.1915 62.8647C29.2344 62.695 29.3261 62.5416 29.4551 62.4238C29.5842 62.3059 29.745 62.2288 29.9174 62.202C30.1552 62.171 30.3956 62.2353 30.5864 62.381C30.7773 62.5267 30.9032 62.742 30.9369 62.9803V62.9803Z" fill="#FFCD49"/>
<path d="M37.7587 62.0551C37.7761 62.1712 37.7706 62.2897 37.7424 62.4037C37.7143 62.5177 37.664 62.625 37.5945 62.7195C37.525 62.814 37.4377 62.8938 37.3375 62.9545C37.2372 63.0151 37.1261 63.0553 37.0103 63.0728C36.8946 63.0903 36.7766 63.0848 36.663 63.0565C36.5494 63.0282 36.4425 62.9778 36.3483 62.9081C36.2542 62.8383 36.1746 62.7506 36.1142 62.65C36.0538 62.5494 36.0137 62.4379 35.9963 62.3217C35.9788 62.2056 35.9843 62.0871 36.0125 61.9731C36.0407 61.8591 36.0909 61.7518 36.1604 61.6573C36.2299 61.5628 36.3173 61.483 36.4175 61.4224C36.5178 61.3617 36.6289 61.3215 36.7446 61.304C36.8604 61.2865 36.9784 61.292 37.092 61.3203C37.2056 61.3486 37.3125 61.399 37.4066 61.4687C37.5008 61.5385 37.5804 61.6262 37.6408 61.7268C37.7012 61.8274 37.7412 61.9389 37.7587 62.0551V62.0551Z" fill="#FFCD49"/>
<path d="M41.2835 61.538C41.3009 61.6542 41.2954 61.7726 41.2672 61.8866C41.2391 62.0006 41.1888 62.1079 41.1193 62.2025C41.0498 62.297 40.9625 62.3768 40.8622 62.4374C40.762 62.498 40.6508 62.5383 40.5351 62.5558C40.4194 62.5733 40.3014 62.5678 40.1878 62.5395C40.0742 62.5112 39.9673 62.4608 39.8731 62.391C39.7789 62.3213 39.6994 62.2336 39.639 62.133C39.5786 62.0324 39.5385 61.9209 39.5211 61.8047C39.5036 61.6886 39.5091 61.5701 39.5373 61.4561C39.5655 61.3421 39.6157 61.2348 39.6852 61.1403C39.7547 61.0458 39.8421 60.9659 39.9423 60.9053C40.0425 60.8447 40.1537 60.8045 40.2694 60.787C40.3851 60.7695 40.5032 60.775 40.6167 60.8033C40.7303 60.8315 40.8372 60.882 40.9314 60.9517C41.0256 61.0215 41.1051 61.1091 41.1655 61.2097C41.2259 61.3103 41.266 61.4219 41.2835 61.538V61.538Z" fill="#FFCD49"/>
<path d="M44.8137 61.0047C44.8329 61.1785 44.8008 61.3542 44.7214 61.5099C44.6419 61.6656 44.5187 61.7944 44.3669 61.8804C44.2151 61.9664 44.0415 62.0057 43.8677 61.9935C43.6938 61.9813 43.5274 61.918 43.389 61.8117C43.2507 61.7053 43.1465 61.5605 43.0895 61.3952C43.0324 61.2299 43.025 61.0515 43.0682 60.882C43.1113 60.7125 43.2032 60.5595 43.3323 60.442C43.4613 60.3245 43.622 60.2476 43.7942 60.221C44.0328 60.19 44.2739 60.2551 44.4649 60.4019C44.6559 60.5487 44.7813 60.7654 44.8137 61.0047V61.0047Z" fill="#FFCD49"/>
<path d="M48.3385 60.4713C48.359 60.6455 48.3279 60.8219 48.2491 60.9784C48.1703 61.135 48.0473 61.2647 47.8954 61.3515C47.7436 61.4383 47.5696 61.4783 47.3953 61.4664C47.2209 61.4546 47.0539 61.3915 46.9151 61.2849C46.7763 61.1784 46.6718 61.0332 46.6147 60.8674C46.5577 60.7016 46.5505 60.5227 46.5942 60.3528C46.6379 60.183 46.7304 60.0299 46.8603 59.9125C46.9902 59.7952 47.1516 59.7189 47.3245 59.693C47.5616 59.6621 47.8014 59.7266 47.9914 59.8724C48.1814 60.0182 48.3062 60.2335 48.3385 60.4713V60.4713Z" fill="#FFCD49"/>
<path d="M51.8687 59.9434C51.8879 60.1172 51.8558 60.2929 51.7764 60.4486C51.6969 60.6043 51.5737 60.7331 51.4219 60.8191C51.2701 60.9051 51.0965 60.9444 50.9227 60.9322C50.7488 60.92 50.5824 60.8567 50.444 60.7504C50.3057 60.644 50.2015 60.4992 50.1444 60.3339C50.0874 60.1687 50.08 59.9902 50.1232 59.8207C50.1663 59.6513 50.2582 59.4983 50.3873 59.3807C50.5163 59.2632 50.677 59.1863 50.8492 59.1597C50.9675 59.1436 51.0877 59.1512 51.2031 59.1819C51.3184 59.2127 51.4265 59.266 51.5213 59.3388C51.616 59.4117 51.6955 59.5026 51.7551 59.6063C51.8147 59.7101 51.8533 59.8246 51.8687 59.9434V59.9434Z" fill="#FFCD49"/>
<path d="M55.3989 59.41C55.4194 59.5853 55.388 59.7627 55.3086 59.9202C55.2292 60.0776 55.1053 60.2081 54.9525 60.2953C54.7996 60.3825 54.6246 60.4226 54.4491 60.4106C54.2737 60.3985 54.1057 60.3349 53.9661 60.2276C53.8266 60.1203 53.7216 59.9741 53.6643 59.8072C53.607 59.6404 53.6 59.4603 53.6441 59.2895C53.6882 59.1187 53.7814 58.9647 53.9122 58.8467C54.043 58.7288 54.2055 58.6521 54.3794 58.6263C54.6178 58.5968 54.8582 58.6624 55.0488 58.809C55.2395 58.9556 55.3652 59.1714 55.3989 59.41Z" fill="#FFCD49"/>
<path d="M58.9237 58.8767C58.944 59.0506 58.9129 59.2267 58.8342 59.383C58.7555 59.5393 58.6327 59.6689 58.4812 59.7557C58.3296 59.8424 58.156 59.8826 57.9819 59.871C57.8078 59.8595 57.6409 59.7969 57.5021 59.6908C57.3632 59.5848 57.2584 59.4401 57.2009 59.2748C57.1433 59.1095 57.1355 58.9308 57.1784 58.7611C57.2213 58.5913 57.3129 58.438 57.442 58.3202C57.5711 58.2023 57.7318 58.1252 57.9043 58.0984C58.0221 58.0823 58.142 58.0896 58.257 58.12C58.372 58.1505 58.48 58.2033 58.5747 58.2756C58.6693 58.3478 58.7489 58.4381 58.8088 58.5413C58.8687 58.6444 58.9077 58.7584 58.9237 58.8767V58.8767Z" fill="#FFCD49"/>
<path d="M62.4539 58.3488C62.4744 58.524 62.443 58.7015 62.3636 58.8589C62.2842 59.0163 62.1604 59.1468 62.0075 59.234C61.8547 59.3213 61.6796 59.3613 61.5042 59.3493C61.3288 59.3373 61.1608 59.2736 61.0212 59.1663C60.8816 59.059 60.7766 58.9128 60.7193 58.746C60.6621 58.5791 60.655 58.3991 60.6991 58.2282C60.7432 58.0574 60.8365 57.9034 60.9672 57.7854C61.098 57.6675 61.2605 57.5908 61.4345 57.565C61.5527 57.549 61.673 57.5565 61.7883 57.5873C61.9036 57.618 62.0118 57.6714 62.1065 57.7442C62.2013 57.817 62.2808 57.9079 62.3404 58.0117C62.4 58.1154 62.4386 58.23 62.4539 58.3488V58.3488Z" fill="#FFCD49"/>
<path d="M65.9787 57.8154C65.998 57.9892 65.9659 58.1649 65.8864 58.3206C65.807 58.4763 65.6837 58.6051 65.532 58.6911C65.3802 58.7771 65.2066 58.8164 65.0327 58.8042C64.8588 58.792 64.6924 58.7288 64.554 58.6224C64.4157 58.516 64.3115 58.3712 64.2545 58.2059C64.1974 58.0407 64.1901 57.8622 64.2332 57.6927C64.2764 57.5233 64.3682 57.3703 64.4973 57.2527C64.6264 57.1352 64.787 57.0583 64.9593 57.0317C65.1979 57.0007 65.439 57.0658 65.63 57.2126C65.821 57.3594 65.9464 57.5761 65.9787 57.8154Z" fill="#FFCD49"/>
<path d="M69.574 57.4018C69.5932 57.5756 69.5611 57.7513 69.4817 57.907C69.4023 58.0627 69.279 58.1915 69.1272 58.2775C68.9755 58.3635 68.8018 58.4028 68.628 58.3906C68.4541 58.3783 68.2877 58.3151 68.1493 58.2088C68.011 58.1024 67.9068 57.9576 67.8498 57.7923C67.7927 57.627 67.7853 57.4486 67.8285 57.2791C67.8717 57.1096 67.9635 56.9566 68.0926 56.8391C68.2216 56.7216 68.3823 56.6447 68.5545 56.6181C68.6728 56.602 68.793 56.6096 68.9084 56.6403C69.0237 56.671 69.1319 56.7244 69.2266 56.7972C69.3214 56.87 69.4008 56.9609 69.4605 57.0647C69.5201 57.1684 69.5587 57.283 69.574 57.4018V57.4018Z" fill="#FFCD49"/>
<path d="M66.9657 52.8627C67.1331 52.7868 67.3193 52.7626 67.5004 52.793C67.6816 52.8234 67.8498 52.9072 67.9834 53.0336C68.1171 53.1601 68.2104 53.3236 68.2514 53.5033C68.2924 53.683 68.2792 53.8709 68.2136 54.0432C68.148 54.2154 68.0329 54.3642 67.883 54.4707C67.733 54.5772 67.5549 54.6365 67.3712 54.6413C67.1875 54.646 67.0067 54.5959 66.8514 54.4972C66.6962 54.3986 66.5737 54.2559 66.4994 54.0873C66.4496 53.9762 66.4222 53.8563 66.4188 53.7346C66.4153 53.6128 66.4358 53.4916 66.4791 53.3778C66.5225 53.264 66.5878 53.16 66.6713 53.0716C66.7548 52.9832 66.8548 52.9122 66.9657 52.8627V52.8627Z" fill="#FFCD49"/>
<path d="M65.4473 49.4666C65.6148 49.3907 65.8009 49.3665 65.9821 49.3969C66.1633 49.4273 66.3314 49.5111 66.4651 49.6375C66.5987 49.764 66.692 49.9275 66.733 50.1072C66.7739 50.2869 66.7608 50.4748 66.6952 50.6471C66.6296 50.8193 66.5145 50.9681 66.3645 51.0746C66.2146 51.1811 66.0365 51.2404 65.8528 51.2452C65.6692 51.2499 65.4882 51.1997 65.333 51.1011C65.1778 51.0025 65.0553 50.8598 64.981 50.6912C64.882 50.4666 64.8755 50.2119 64.9628 49.9825C65.0502 49.7531 65.2243 49.5677 65.4473 49.4666V49.4666Z" fill="#FFCD49"/>
<path d="M63.9452 46.0705C64.1126 45.9946 64.2987 45.9704 64.4799 46.0008C64.6611 46.0312 64.8292 46.115 64.9629 46.2414C65.0966 46.3679 65.1898 46.5314 65.2308 46.7111C65.2718 46.8908 65.2586 47.0787 65.1931 47.251C65.1275 47.4232 65.0124 47.572 64.8624 47.6785C64.7124 47.7849 64.5343 47.8443 64.3507 47.849C64.167 47.8538 63.9861 47.8037 63.8309 47.705C63.6757 47.6064 63.5531 47.4637 63.4788 47.2951C63.3799 47.0705 63.3734 46.8158 63.4607 46.5864C63.5481 46.357 63.7222 46.1716 63.9452 46.0705Z" fill="#FFCD49"/>
<path d="M62.4485 42.6744C62.6162 42.5995 62.8023 42.5762 62.9833 42.6075C63.1642 42.6388 63.3318 42.7233 63.4648 42.8503C63.5978 42.9773 63.6903 43.1411 63.7305 43.3209C63.7707 43.5007 63.7568 43.6884 63.6906 43.8603C63.6244 44.0321 63.5088 44.1804 63.3586 44.2863C63.2083 44.3922 63.0301 44.4509 62.8466 44.4551C62.663 44.4592 62.4824 44.4086 62.3275 44.3096C62.1727 44.2106 62.0506 44.0677 61.9767 43.899C61.9272 43.7876 61.9001 43.6674 61.897 43.5454C61.8939 43.4234 61.9149 43.302 61.9587 43.1882C62.0026 43.0744 62.0684 42.9704 62.1525 42.8822C62.2365 42.794 62.3371 42.7234 62.4485 42.6744Z" fill="#FFCD49"/>
<path d="M60.9464 39.2783C61.1139 39.2024 61.3 39.1782 61.4812 39.2086C61.6624 39.239 61.8304 39.3228 61.9641 39.4492C62.0978 39.5757 62.1911 39.7391 62.2321 39.9189C62.273 40.0986 62.2599 40.2865 62.1943 40.4588C62.1287 40.631 62.0136 40.7798 61.8636 40.8863C61.7137 40.9928 61.5356 41.0521 61.3519 41.0568C61.1683 41.0616 60.9873 41.0114 60.8321 40.9128C60.6769 40.8142 60.5543 40.6715 60.48 40.5029C60.3811 40.2783 60.3746 40.0236 60.4619 39.7942C60.5493 39.5648 60.7234 39.3794 60.9464 39.2783V39.2783Z" fill="#FFCD49"/>
<path d="M60.1984 37.5808C60.6633 37.3726 60.8712 36.8233 60.6625 36.3539C60.4539 35.8845 59.9078 35.6727 59.4429 35.8809C58.9779 36.0891 58.7701 36.6383 58.9787 37.1077C59.1873 37.5772 59.7334 37.7889 60.1984 37.5808Z" fill="#FFCD49"/>
<path d="M58.6981 34.1773C59.163 33.9691 59.3709 33.4199 59.1622 32.9505C58.9536 32.4811 58.4075 32.2693 57.9426 32.4774C57.4776 32.6856 57.2698 33.2349 57.4784 33.7043C57.687 34.1737 58.2331 34.3855 58.6981 34.1773Z" fill="#FFCD49"/>
<path d="M56.4455 29.0846C56.613 29.0087 56.7991 28.9844 56.9803 29.0148C57.1615 29.0453 57.3296 29.129 57.4633 29.2555C57.597 29.3819 57.6902 29.5454 57.7312 29.7252C57.7722 29.9049 57.759 30.0928 57.6934 30.265C57.6278 30.4372 57.5128 30.586 57.3628 30.6925C57.2128 30.799 57.0347 30.8584 56.851 30.8631C56.6674 30.8678 56.4865 30.8177 56.3313 30.7191C56.176 30.6204 56.0535 30.4778 55.9792 30.3091C55.9295 30.198 55.9021 30.0782 55.8986 29.9564C55.8952 29.8347 55.9157 29.7134 55.959 29.5997C56.0023 29.4859 56.0676 29.3818 56.1511 29.2934C56.2346 29.205 56.3346 29.1341 56.4455 29.0846Z" fill="#FFCD49"/>
<path d="M51.115 27.1688C51.0997 26.9879 51.1381 26.8064 51.2254 26.6473C51.3127 26.4883 51.445 26.3587 51.6055 26.275C51.7661 26.1912 51.9478 26.1571 52.1277 26.1768C52.3075 26.1965 52.4776 26.2692 52.6163 26.3858C52.7551 26.5023 52.8564 26.6575 52.9074 26.8318C52.9584 27.006 52.9569 27.1915 52.9031 27.3649C52.8492 27.5382 52.7454 27.6918 52.6048 27.806C52.4641 27.9203 52.2929 27.9902 52.1127 28.007C51.8698 28.0281 51.6284 27.9518 51.4414 27.7947C51.2544 27.6376 51.137 27.4126 51.115 27.1688V27.1688Z" fill="#FFCD49"/>
<path d="M54.6018 26.7606C54.5872 26.5788 54.6267 26.3968 54.7154 26.2376C54.8041 26.0784 54.938 25.9493 55.1 25.8666C55.262 25.784 55.4449 25.7516 55.6253 25.7735C55.8057 25.7954 55.9756 25.8706 56.1133 25.9896C56.251 26.1086 56.3503 26.2661 56.3987 26.4419C56.447 26.6177 56.4422 26.804 56.3848 26.977C56.3274 27.1501 56.2201 27.3021 56.0764 27.4138C55.9327 27.5255 55.7592 27.5918 55.5779 27.6042C55.3377 27.6193 55.1011 27.5395 54.9187 27.3819C54.7363 27.2243 54.6226 27.0013 54.6018 26.7606V26.7606Z" fill="#FFCD49"/>
<path d="M47.4438 27.4954C47.4285 27.3144 47.4669 27.133 47.5542 26.9739C47.6415 26.8148 47.7738 26.6852 47.9343 26.6015C48.0949 26.5178 48.2766 26.4836 48.4565 26.5033C48.6363 26.523 48.8064 26.5958 48.9451 26.7123C49.0839 26.8289 49.1852 26.9841 49.2362 27.1583C49.2872 27.3325 49.2857 27.518 49.2318 27.6914C49.178 27.8648 49.0742 28.0183 48.9336 28.1325C48.7929 28.2468 48.6217 28.3167 48.4416 28.3335C48.1986 28.3547 47.9572 28.2784 47.7702 28.1213C47.5832 27.9642 47.4658 27.7391 47.4438 27.4954V27.4954Z" fill="#FFCD49"/>
<path d="M43.805 27.8219C43.7897 27.641 43.8282 27.4595 43.9155 27.3004C44.0028 27.1414 44.135 27.0118 44.2956 26.928C44.4562 26.8443 44.6379 26.8102 44.8177 26.8299C44.9976 26.8496 45.1677 26.9223 45.3064 27.0389C45.4452 27.1554 45.5465 27.3106 45.5975 27.4849C45.6485 27.6591 45.647 27.8446 45.5931 28.018C45.5393 28.1913 45.4355 28.3448 45.2948 28.4591C45.1542 28.5734 44.983 28.6433 44.8028 28.6601C44.5599 28.6812 44.3185 28.6049 44.1315 28.4478C43.9445 28.2907 43.8271 28.0657 43.805 27.8219V27.8219Z" fill="#FFCD49"/>
<path d="M40.1501 28.1485C40.1348 27.9675 40.1733 27.7861 40.2606 27.627C40.3479 27.4679 40.4801 27.3383 40.6407 27.2546C40.8013 27.1709 40.9829 27.1367 41.1628 27.1564C41.3427 27.1761 41.5128 27.2489 41.6515 27.3654C41.7903 27.482 41.8915 27.6372 41.9426 27.8114C41.9936 27.9856 41.9921 28.1711 41.9382 28.3445C41.8844 28.5179 41.7806 28.6714 41.6399 28.7857C41.4993 28.8999 41.3281 28.9698 41.1479 28.9866C40.905 29.0078 40.6635 28.9314 40.4765 28.7744C40.2895 28.6173 40.1722 28.3922 40.1501 28.1485Z" fill="#FFCD49"/>
<path d="M36.4952 28.475C36.4799 28.2941 36.5183 28.1126 36.6056 27.9535C36.6929 27.7945 36.8252 27.6649 36.9857 27.5812C37.1463 27.4974 37.328 27.4633 37.5079 27.483C37.6877 27.5027 37.8578 27.5754 37.9965 27.692C38.1353 27.8085 38.2366 27.9637 38.2876 28.138C38.3386 28.3122 38.3371 28.4977 38.2832 28.6711C38.2294 28.8445 38.1256 28.9979 37.985 29.1122C37.8443 29.2265 37.6731 29.2964 37.493 29.3132C37.25 29.3343 37.0086 29.258 36.8216 29.1009C36.6346 28.9438 36.5172 28.7188 36.4952 28.475V28.475Z" fill="#FFCD49"/>
<path d="M32.8403 28.8016C32.825 28.6206 32.8634 28.4392 32.9507 28.2801C33.038 28.121 33.1703 27.9915 33.3308 27.9077C33.4914 27.824 33.6731 27.7898 33.8529 27.8095C34.0328 27.8293 34.2028 27.902 34.3416 28.0185C34.4804 28.1351 34.5816 28.2903 34.6327 28.4645C34.6837 28.6387 34.6822 28.8242 34.6283 28.9976C34.5745 29.171 34.4707 29.3245 34.3301 29.4388C34.1894 29.553 34.0182 29.623 33.838 29.6397C33.5951 29.6609 33.3537 29.5846 33.1667 29.4275C32.9797 29.2704 32.8623 29.0453 32.8403 28.8016Z" fill="#FFCD49"/>
<path d="M29.1853 29.1281C29.17 28.9471 29.2084 28.7657 29.2957 28.6066C29.383 28.4476 29.5153 28.318 29.6759 28.2342C29.8364 28.1505 30.0181 28.1163 30.198 28.1361C30.3779 28.1558 30.5479 28.2285 30.6866 28.3451C30.8254 28.4616 30.9267 28.6168 30.9777 28.791C31.0287 28.9653 31.0272 29.1508 30.9734 29.3241C30.9195 29.4975 30.8157 29.651 30.6751 29.7653C30.5344 29.8795 30.3632 29.9495 30.1831 29.9663C29.9401 29.9874 29.6987 29.9111 29.5117 29.754C29.3247 29.5969 29.2073 29.3719 29.1853 29.1281Z" fill="#FFCD49"/>
<path d="M25.5304 29.4547C25.5151 29.2737 25.5535 29.0923 25.6408 28.9332C25.7281 28.7741 25.8604 28.6445 26.021 28.5608C26.1815 28.4771 26.3632 28.4429 26.543 28.4626C26.7229 28.4823 26.893 28.5551 27.0317 28.6716C27.1705 28.7882 27.2718 28.9434 27.3228 29.1176C27.3738 29.2918 27.3723 29.4773 27.3185 29.6507C27.2646 29.8241 27.1608 29.9776 27.0202 30.0918C26.8795 30.2061 26.7083 30.276 26.5281 30.2928C26.4077 30.304 26.2863 30.2912 26.1708 30.2551C26.0553 30.2189 25.9481 30.1602 25.8553 30.0823C25.7626 30.0044 25.6861 29.9088 25.6303 29.8011C25.5746 29.6934 25.5406 29.5756 25.5304 29.4547Z" fill="#FFCD49"/>
<path d="M21.8754 29.7812C21.8601 29.6003 21.8986 29.4188 21.9859 29.2597C22.0732 29.1007 22.2054 28.9711 22.366 28.8873C22.5265 28.8036 22.7082 28.7694 22.8881 28.7892C23.068 28.8089 23.238 28.8816 23.3768 28.9982C23.5156 29.1147 23.6168 29.2699 23.6679 29.4441C23.7189 29.6184 23.7174 29.8039 23.6635 29.9772C23.6097 30.1506 23.5059 30.3041 23.3652 30.4184C23.2246 30.5327 23.0534 30.6026 22.8732 30.6193C22.7528 30.6305 22.6313 30.6177 22.5158 30.5816C22.4003 30.5455 22.2932 30.4867 22.2004 30.4088C22.1076 30.3309 22.0312 30.2353 21.9754 30.1276C21.9196 30.0199 21.8856 29.9022 21.8754 29.7812Z" fill="#FFCD49"/>
<path d="M18.1283 30.2166C18.113 30.0356 18.1514 29.8542 18.2387 29.6951C18.326 29.5361 18.4583 29.4065 18.6189 29.3227C18.7794 29.239 18.9611 29.2048 19.141 29.2246C19.3209 29.2443 19.4909 29.317 19.6296 29.4336C19.7684 29.5501 19.8697 29.7053 19.9207 29.8795C19.9717 30.0538 19.9702 30.2393 19.9164 30.4126C19.8625 30.586 19.7587 30.7395 19.6181 30.8538C19.4774 30.968 19.3063 31.038 19.1261 31.0547C18.8831 31.0759 18.6417 30.9996 18.4547 30.8425C18.2677 30.6854 18.1503 30.4604 18.1283 30.2166V30.2166Z" fill="#FFCD49"/>
<path d="M20.4818 34.8427C20.3009 34.9134 20.103 34.928 19.9137 34.8847C19.7244 34.8414 19.5525 34.7421 19.42 34.5997C19.2875 34.4573 19.2006 34.2782 19.1706 34.0858C19.1405 33.8933 19.1686 33.6962 19.2513 33.5199C19.334 33.3436 19.4675 33.1963 19.6345 33.0969C19.8015 32.9976 19.9943 32.9507 20.1881 32.9625C20.3819 32.9742 20.5677 33.044 20.7215 33.1628C20.8754 33.2817 20.9902 33.444 21.0511 33.629C21.1349 33.8658 21.1221 34.1262 21.0155 34.3536C20.9088 34.5809 20.717 34.7567 20.4818 34.8427Z" fill="#FFCD49"/>
<path d="M21.7127 38.5382C21.5333 38.6135 21.3354 38.6329 21.1448 38.594C20.9542 38.5551 20.7797 38.4596 20.6438 38.3199C20.5079 38.1803 20.417 38.0028 20.3827 37.8107C20.3485 37.6185 20.3726 37.4205 20.4519 37.2422C20.5312 37.064 20.662 36.9137 20.8274 36.811C20.9928 36.7082 21.1851 36.6577 21.3795 36.666C21.5738 36.6743 21.7612 36.741 21.9173 36.8574C22.0734 36.9738 22.191 37.1347 22.255 37.319C22.3419 37.553 22.3338 37.8119 22.2323 38.0399C22.1309 38.2679 21.9443 38.4469 21.7127 38.5382V38.5382Z" fill="#FFCD49"/>
<path d="M22.9383 42.2227C22.7574 42.2934 22.5595 42.308 22.3703 42.2647C22.181 42.2214 22.009 42.1221 21.8765 41.9797C21.7441 41.8373 21.6572 41.6583 21.6271 41.4658C21.5971 41.2733 21.6252 41.0762 21.7079 40.8999C21.7906 40.7236 21.9241 40.5763 22.0911 40.4769C22.258 40.3776 22.4509 40.3307 22.6447 40.3425C22.8384 40.3542 23.0242 40.424 23.1781 40.5428C23.3319 40.6617 23.4467 40.824 23.5077 41.009C23.5499 41.1262 23.5687 41.2507 23.5629 41.3751C23.5571 41.4996 23.5269 41.6217 23.474 41.7345C23.4211 41.8473 23.3466 41.9484 23.2546 42.0322C23.1627 42.116 23.0552 42.1807 22.9383 42.2227V42.2227Z" fill="#FFCD49"/>
<path d="M24.1638 45.9127C23.9843 45.9884 23.7861 46.0082 23.5952 45.9694C23.4043 45.9306 23.2294 45.8351 23.0933 45.6952C22.9572 45.5554 22.8662 45.3776 22.8321 45.1852C22.798 44.9927 22.8224 44.7943 22.9021 44.616C22.9818 44.4376 23.1131 44.2874 23.279 44.1849C23.4449 44.0824 23.6377 44.0324 23.8323 44.0414C24.0268 44.0504 24.2142 44.1179 24.3701 44.2352C24.5259 44.3524 24.643 44.5141 24.7061 44.699C24.7943 44.9322 24.7867 45.1909 24.685 45.4184C24.5834 45.6459 24.3959 45.8237 24.1638 45.9127V45.9127Z" fill="#FFCD49"/>
<path d="M25.3948 49.6027C25.2154 49.678 25.0175 49.6975 24.8269 49.6585C24.6363 49.6196 24.4617 49.5241 24.3259 49.3845C24.19 49.2448 24.099 49.0674 24.0648 48.8752C24.0306 48.6831 24.0547 48.485 24.134 48.3068C24.2133 48.1285 24.3441 47.9783 24.5095 47.8755C24.6749 47.7728 24.8672 47.7223 25.0616 47.7306C25.2559 47.7388 25.4432 47.8055 25.5994 47.922C25.7555 48.0384 25.8731 48.1992 25.9371 48.3836C26.024 48.6176 26.0158 48.8764 25.9144 49.1044C25.813 49.3325 25.6264 49.5114 25.3948 49.6027V49.6027Z" fill="#FFCD49"/>
<path d="M26.6203 53.2873C26.4408 53.363 26.2426 53.3828 26.0517 53.344C25.8608 53.3052 25.6859 53.2096 25.5498 53.0698C25.4137 52.9299 25.3227 52.7522 25.2886 52.5597C25.2545 52.3672 25.2789 52.1689 25.3586 51.9905C25.4383 51.8121 25.5696 51.6619 25.7355 51.5595C25.9014 51.457 26.0942 51.407 26.2888 51.416C26.4834 51.4249 26.6708 51.4924 26.8266 51.6097C26.9825 51.727 27.0995 51.8886 27.1626 52.0736C27.2479 52.3069 27.2389 52.5644 27.1376 52.7912C27.0363 53.0179 26.8506 53.1959 26.6203 53.2873Z" fill="#FFCD49"/>
<path d="M27.8513 56.9773C27.6717 57.053 27.4736 57.0728 27.2827 57.034C27.0918 56.9952 26.9169 56.8996 26.7808 56.7598C26.6447 56.6199 26.5537 56.4422 26.5196 56.2497C26.4855 56.0572 26.5098 55.8589 26.5895 55.6805C26.6692 55.5021 26.8006 55.3519 26.9665 55.2495C27.1324 55.147 27.3251 55.097 27.5197 55.106C27.7143 55.1149 27.9017 55.1824 28.0576 55.2997C28.2134 55.417 28.3305 55.5786 28.3936 55.7636C28.4803 55.9968 28.472 56.2549 28.3705 56.4821C28.269 56.7092 28.0825 56.8871 27.8513 56.9773V56.9773Z" fill="#FFCD49"/>
<path d="M29.0769 60.6672C28.8974 60.7425 28.6996 60.762 28.509 60.7231C28.3184 60.6842 28.1438 60.5887 28.0079 60.449C27.872 60.3094 27.7811 60.1319 27.7469 59.9398C27.7127 59.7476 27.7368 59.5496 27.8161 59.3713C27.8953 59.193 28.0262 59.0428 28.1916 58.9401C28.3569 58.8373 28.5493 58.7868 28.7436 58.7951C28.9379 58.8034 29.1253 58.8701 29.2814 58.9865C29.4375 59.1029 29.5552 59.2638 29.6191 59.4481C29.706 59.6821 29.6979 59.941 29.5965 60.169C29.495 60.397 29.3084 60.576 29.0769 60.6672V60.6672Z" fill="#FFCD49"/>
<path d="M27.1951 39.409L33.0138 53.8859L41.6034 52.7158L35.2859 38.6633L27.1951 39.409Z" fill="#B1A19A"/>
<path d="M27.1951 39.4089L33.0138 53.8859L39.8952 52.9117L33.5723 38.8647L27.1951 39.4089Z" fill="#FFF4E7"/>
<path d="M29.5486 42.5275L30.1777 44.0731L33.5235 43.8282C33.2802 46.3886 33.5119 48.9721 34.2068 51.4477L35.9095 51.2463C35.9095 51.2463 34.1905 46.8162 34.7708 43.6269L34.3532 42.1846L29.5486 42.5275Z" fill="#7D6F6D"/>
<path d="M36.9886 38.2715L42.8073 52.7485L51.3969 51.5783L45.0794 37.5313L36.9886 38.2715Z" fill="#B1A19A"/>
<path d="M36.9886 38.2715L42.8073 52.7484L49.6888 51.7797L43.3658 37.7272L36.9886 38.2715Z" fill="#FFF4E7"/>
<path d="M39.3096 41.3737L39.9386 42.9248L43.2845 42.6799C43.0364 45.2399 43.2662 47.8239 43.9623 50.2993L45.6705 50.1034C45.6705 50.1034 43.946 45.6678 44.5317 42.484L44.1141 41.0417L39.3096 41.3737Z" fill="#7D6F6D"/>
<path d="M46.7822 37.1394L52.5954 51.6164L61.1904 50.4463L54.8675 36.3938L46.7822 37.1394Z" fill="#B1A19A"/>
<path d="M46.7822 37.1394L52.5954 51.6164L59.4769 50.6422L53.1593 36.5952L46.7822 37.1394Z" fill="#FFF4E7"/>
<path d="M49.114 40.2852L49.7484 41.8308L53.0942 41.5859C52.8474 44.146 53.0773 46.7298 53.7721 49.2054L55.4803 49.004C55.4803 49.004 53.7558 44.5738 54.3415 41.3846L53.9239 39.9369L49.114 40.2852Z" fill="#7D6F6D"/>
<path d="M34.2339 5.74725L33.0951 5.23566L31.8154 5.80712L32.1733 4.63699L31.2405 3.79885L32.6884 3.57026L33.4964 2.35659L33.9736 3.53216L35.389 3.67911L34.1959 4.58256L34.2339 5.74725Z" fill="#FFCD49"/>
<path d="M40.3833 5.58942L39.2445 5.07783L37.9648 5.64929L38.3227 4.4846L37.39 3.64102L38.8378 3.41788L39.6458 2.19876L40.123 3.37978L41.5384 3.52128L40.3454 4.43018L40.3833 5.58942Z" fill="#FFCD49"/>
<path d="M46.5327 5.43703L45.394 4.92544L44.1142 5.4969L44.4721 4.32677L43.5394 3.48863L44.9872 3.26004L45.7952 2.04637L46.2724 3.22195L47.6878 3.36889L46.4948 4.27234L46.5327 5.43703Z" fill="#FFCD49"/>
<path d="M52.6821 5.27919L51.5434 4.77304L50.2636 5.33906L50.6215 4.17437L49.6888 3.33079L51.1367 3.10765L51.9446 1.88853L52.4218 3.06955L53.8318 3.21106L52.6442 4.11995L52.6821 5.27919Z" fill="#FFCD49"/>
<path d="M58.8316 5.12681L57.6928 4.61521L56.413 5.18667L56.7709 4.01654L55.8382 3.1784L57.2861 2.94982L58.0941 1.73615L58.5713 2.91172L59.9812 3.05867L58.7936 3.96212L58.8316 5.12681Z" fill="#FFCD49"/>
<path d="M44.1575 69.0541C44.3419 70.1426 42.5307 71.378 40.085 71.7753C37.6394 72.1726 35.5191 71.6393 35.3347 70.5399C35.1503 69.4405 36.9615 68.2105 39.4072 67.8186C41.8529 67.4268 43.9677 67.9547 44.1575 69.0541Z" fill="#FFCD49"/>
<path d="M42.9699 69.2555C43.1055 70.061 41.7715 70.959 39.9929 71.2638C38.2142 71.5685 36.6578 71.1603 36.5223 70.3603C36.3867 69.5603 37.7153 68.6568 39.4994 68.352C41.2835 68.0472 42.829 68.45 42.9699 69.2555Z" fill="#E79D00"/>
<path d="M56.4835 66.8717C56.6733 67.9602 54.8566 69.201 52.411 69.5929C49.9653 69.9848 47.8504 69.4623 47.6661 68.3629C47.4817 67.2635 49.2929 66.0335 51.7386 65.6145C54.1842 65.1954 56.2991 65.7723 56.4835 66.8717Z" fill="#FFCD49"/>
<path d="M55.2959 67.073C55.4369 67.8785 54.1029 68.7765 52.3242 69.0813C50.5455 69.3861 48.9892 68.9833 48.8536 68.1779C48.7181 67.3724 50.0467 66.4798 51.8253 66.175C53.604 65.8702 55.1603 66.273 55.2959 67.073Z" fill="#E79D00"/>
<path d="M68.8148 64.6892C69.0046 65.7777 67.188 67.0186 64.7424 67.4377C62.2967 67.8567 60.1818 67.3016 59.992 66.2022C59.8022 65.1028 61.6188 63.8729 64.0645 63.481C66.5102 63.0891 68.6304 63.5898 68.8148 64.6892Z" fill="#FFCD49"/>
<path d="M67.6272 64.896C67.7628 65.6961 66.4342 66.5941 64.6501 66.8989C62.866 67.2036 61.3206 66.8009 61.185 66.0009C61.0494 65.2008 62.378 64.2974 64.1567 63.9926C65.9353 63.6878 67.5079 64.0906 67.6272 64.896Z" fill="#E79D00"/>
<path d="M33.8055 76.8532L34.2935 81.931L47.3244 79.6724L46.7388 74.5945L33.8055 76.8532Z" fill="#FFCD49"/>
<path d="M35.1124 77.4682L35.416 80.7663L45.9959 79.0519L45.6163 75.7592L35.1124 77.4682Z" fill="#E79D00"/>
<path d="M58.6635 72.4502L59.1515 77.5226L72.1824 75.2694L71.5967 70.1916L58.6635 72.4502Z" fill="#FFCD49"/>
<path d="M59.9703 73.0652L60.274 76.3633L70.8538 74.649L70.4742 71.3563L59.9703 73.0652Z" fill="#E79D00"/>
<path d="M34.2122 88.8756L34.7111 93.2187L71.8462 84.9407L71.5425 80.652L34.2122 88.8756Z" fill="#94A9A9"/>
<g style="mix-blend-mode:multiply" opacity="0.55">
<path d="M14.1263 91.1832C14.8746 90.7804 15.6121 90.3396 16.3442 89.8715C17.0763 89.4035 17.6402 88.9953 18.2584 88.5381L18.6543 88.2388C19.2454 87.7816 19.8256 87.3081 20.3733 86.8183L20.574 86.6333C21.1162 86.1652 21.588 85.6863 22.0652 85.191L22.2821 84.9733C22.7973 84.4291 23.2853 83.8848 23.7517 83.3406L23.9198 83.1338C24.8629 81.9737 25.7253 80.7499 26.501 79.471C26.501 79.4274 26.5498 79.3839 26.577 79.3404C27.3527 78.0503 28.0394 76.7083 28.6322 75.3238V75.3238C28.7732 75.0082 28.8925 74.6871 29.0172 74.3659L28.578 67.4159L17.9222 35.7244C13.3759 32.7082 8.05788 31.0753 2.60835 31.0221L0 88.8701L10.7316 92.7778C11.8924 92.3114 13.0258 91.779 14.1263 91.1832Z" fill="#9D7A6F"/>
</g>
<path d="M28.4254 22.7273C28.4254 26.2176 25.6012 29.0455 22.1194 29.0455C18.6375 29.0455 15.8134 26.2176 15.8134 22.7273C15.8134 19.237 18.6375 16.4091 22.1194 16.4091C25.6012 16.4091 28.4254 19.237 28.4254 22.7273Z" fill="#C4C4C4" fill-opacity="0.43" stroke="black"/>
<path d="M25.1676 28.3262V29.75H19.2731V28.543L22.027 25.625C22.2848 25.3281 22.4899 25.0664 22.6422 24.8398C22.7985 24.6133 22.9117 24.4082 22.9821 24.2246C23.0524 24.0371 23.0875 23.8652 23.0875 23.709C23.0875 23.4551 23.0465 23.2402 22.9645 23.0645C22.8864 22.8887 22.7711 22.7539 22.6188 22.6602C22.4664 22.5664 22.2809 22.5195 22.0621 22.5195C21.8278 22.5195 21.6266 22.5801 21.4586 22.7012C21.2906 22.8223 21.1617 22.9902 21.0719 23.2051C20.9821 23.416 20.9371 23.6562 20.9371 23.9258H19.0973C19.0973 23.4062 19.2223 22.9336 19.4723 22.5078C19.7223 22.0781 20.0719 21.7363 20.5211 21.4824C20.9703 21.2246 21.4957 21.0957 22.0973 21.0957C22.7145 21.0957 23.2321 21.1934 23.65 21.3887C24.068 21.584 24.3844 21.8633 24.5992 22.2266C24.8141 22.5898 24.9215 23.0273 24.9215 23.5391C24.9215 23.8281 24.8746 24.1074 24.7809 24.377C24.691 24.6465 24.5602 24.9141 24.3883 25.1797C24.2164 25.4453 24.0094 25.7168 23.7672 25.9941C23.525 26.2676 23.2516 26.5566 22.9469 26.8613L21.6578 28.3262H25.1676Z" fill="black"/>
</g>
</svg>
