<svg width="76" height="79" viewBox="0 0 76 79" fill="none" xmlns="http://www.w3.org/2000/svg">
<g style="mix-blend-mode:luminosity" clip-path="url(#clip0_9_2348)">
<path d="M59.3094 42.6044C63.7068 26.3584 54.1305 9.66829 37.9164 5.32551L21.9899 64.1579C38.2031 68.5018 54.9111 58.8516 59.3094 42.6044Z" fill="url(#paint0_linear_9_2348)"/>
<path d="M55.0744 41.4698C56.881 34.7933 55.967 27.6818 52.5336 21.6993C49.1003 15.7167 43.4286 11.3531 36.7661 9.56822L23.1378 59.9133C29.8004 61.6972 36.9078 60.7563 42.8969 57.2976C48.8859 53.8388 53.2662 48.1456 55.0744 41.4698V41.4698Z" fill="url(#paint1_linear_9_2348)"/>
<path opacity="0.2" d="M51.9073 40.6224C48.4363 53.4495 35.9956 61.4631 23.1943 59.7086L23.139 59.9142C26.4553 60.8533 29.9274 61.1225 33.3534 60.7061C36.7795 60.2897 40.0913 59.1961 43.0963 57.4889C46.1013 55.7817 48.7395 53.4949 50.8577 50.7613C52.9759 48.0278 54.5318 44.9021 55.4349 41.5659C56.3381 38.2297 56.5705 34.7495 56.1186 31.3276C55.6667 27.9057 54.5396 24.6104 52.8028 21.6331C51.0659 18.6558 48.754 16.0561 46.0013 13.9848C43.2486 11.9136 40.1102 10.4122 36.7682 9.56792L36.713 9.77353C48.6676 14.6513 55.3805 27.7949 51.9073 40.6224Z" fill="#2B003A"/>
<path d="M37.9164 5.3255C54.1293 9.66736 63.7068 26.3584 59.3094 42.6044C54.912 58.8503 38.2019 68.5009 21.9899 64.1579L23.139 59.9142L36.7682 9.56792L37.9174 5.32429L37.9164 5.3255ZM36.3177 4.89314L35.1694 9.13556L21.5402 59.4819L20.3911 63.7255C20.2793 64.1506 20.3394 64.6021 20.5585 64.9818C20.7775 65.3615 21.1378 65.6387 21.5609 65.7533C38.6295 70.3245 56.2855 60.1284 60.9122 43.0264C65.5389 25.9245 55.4499 8.33416 38.4254 3.72972L38.3568 3.71012C37.9328 3.59997 37.482 3.66182 37.1021 3.88224C36.7222 4.10265 36.4439 4.46384 36.3277 4.8874L36.3177 4.89314Z" fill="url(#paint2_linear_9_2348)"/>
<path d="M36.5969 4.32416C36.7973 4.06119 37.071 3.86347 37.3832 3.75602C37.6955 3.64856 38.0322 3.63624 38.3508 3.72063L38.4193 3.74022C55.4466 8.34104 65.5339 25.9511 60.9062 43.037C59.8329 47.0202 58.0002 50.7605 55.5091 54.0515C47.8351 64.1847 34.5269 69.2405 21.553 65.7662C21.1299 65.6517 20.7697 65.3744 20.5506 64.9947C20.3316 64.615 20.2714 64.1635 20.3833 63.7384L21.5324 59.4948L35.1616 9.14847L36.3098 4.90608C36.3659 4.69998 36.461 4.50643 36.5899 4.33597L36.5969 4.32416ZM36.0417 3.9208C35.8585 4.16193 35.7241 4.4364 35.6459 4.72876L34.4959 8.97358L20.8737 59.3081L19.7246 63.5517C19.5619 64.1538 19.6445 64.795 19.9542 65.3343C20.2639 65.8737 20.7754 66.267 21.3762 66.4278C25.5287 67.5402 29.8624 67.8221 34.1299 67.2574C38.3974 66.6926 42.5151 65.2924 46.2479 63.1365C49.9806 60.9807 53.2554 58.1114 55.8851 54.6927C58.5147 51.2739 60.4478 47.3726 61.574 43.2116C66.2939 25.7787 55.9927 7.7726 38.6011 3.0747C38.6011 3.0747 38.5627 3.06277 38.5313 3.0542C38.0804 2.93229 37.6029 2.94857 37.1604 3.10094C36.7179 3.25331 36.3307 3.53475 36.0487 3.90899L36.0417 3.9208Z" fill="#683600"/>
<path d="M31.1832 51.2698C32.2375 51.5525 32.954 52.2911 32.7799 52.9167C32.6057 53.5422 31.6176 53.8255 30.5633 53.5429C29.5091 53.2602 28.7904 52.5219 28.9658 51.8972C29.1412 51.2726 30.1268 50.9875 31.1832 51.2698Z" fill="#1A1A1A"/>
<path d="M44.1987 47.7428C44.3687 47.1147 43.6511 46.3764 42.5959 46.0939C41.5406 45.8113 40.5474 46.0915 40.3774 46.7196C40.2074 47.3477 40.925 48.086 41.9802 48.3685C43.0355 48.6511 44.0287 48.3709 44.1987 47.7428Z" fill="#1A1A1A"/>
<path d="M38.1213 35.7146C39.1777 35.997 39.8942 36.7357 39.7188 37.3603C39.5434 37.9849 38.5566 38.2691 37.5002 37.9867C36.4438 37.7044 35.7293 36.9654 35.9035 36.3399C36.0777 35.7143 37.0707 35.4271 38.1213 35.7146Z" fill="#1A1A1A"/>
<path d="M39.3596 21.0616C40.4148 21.343 41.4077 21.0634 41.5782 20.4351C41.7488 19.8068 41.0302 19.0684 39.9807 18.7894C38.9312 18.5104 37.9336 18.7864 37.763 19.4147C37.5924 20.043 38.3053 20.7789 39.3596 21.0616Z" fill="#1A1A1A"/>
<path d="M46.6479 31.2248C47.7031 31.5063 48.696 31.2267 48.8653 30.5975C49.0347 29.9683 48.3185 29.2317 47.2678 28.9518C46.2171 28.6719 45.2207 28.9488 45.0501 29.577C44.8795 30.2053 45.5924 30.9412 46.6479 31.2248Z" fill="#1A1A1A"/>
<path d="M52.2888 14.5559C52.2888 17.2413 50.1119 19.4182 47.4265 19.4182C44.7411 19.4182 42.5641 17.2413 42.5641 14.5559C42.5641 11.8705 44.7411 9.69355 47.4265 9.69355C50.1119 9.69355 52.2888 11.8705 52.2888 14.5559Z" fill="#C4C4C4" fill-opacity="0.43" stroke="black"/>
<path d="M51.1965 21.004L51.1965 22.4279L45.3019 22.4279L45.3019 21.2208L48.0558 18.3029C48.3137 18.006 48.5187 17.7443 48.6711 17.5177C48.8273 17.2911 48.9406 17.0861 49.0109 16.9025C49.0812 16.715 49.1164 16.5431 49.1164 16.3868C49.1164 16.1329 49.0754 15.9181 48.9933 15.7423C48.9152 15.5665 48.8 15.4318 48.6476 15.338C48.4953 15.2443 48.3098 15.1974 48.091 15.1974C47.8566 15.1974 47.6555 15.2579 47.4875 15.379C47.3195 15.5001 47.1906 15.6681 47.1008 15.8829C47.0109 16.0939 46.966 16.3341 46.966 16.6036L45.1262 16.6036C45.1262 16.0841 45.2512 15.6115 45.5012 15.1857C45.7512 14.756 46.1008 14.4142 46.55 14.1603C46.9992 13.9025 47.5246 13.7736 48.1262 13.7736C48.7433 13.7736 49.2609 13.8712 49.6789 14.0665C50.0969 14.2618 50.4133 14.5411 50.6281 14.9044C50.843 15.2677 50.9504 15.7052 50.9504 16.2169C50.9504 16.506 50.9035 16.7853 50.8098 17.0548C50.7199 17.3243 50.5891 17.5919 50.4172 17.8576C50.2453 18.1232 50.0383 18.3947 49.7961 18.672C49.5539 18.9454 49.2805 19.2345 48.9758 19.5392L47.6867 21.004L51.1965 21.004Z" fill="black"/>
</g>
<defs>
<linearGradient id="paint0_linear_9_2348" x1="54.7981" y1="52.1739" x2="21.4816" y2="26.9458" gradientUnits="userSpaceOnUse">
<stop stop-color="#549300"/>
<stop offset="0.11" stop-color="#61A408"/>
<stop offset="0.31" stop-color="#84D21C"/>
<stop offset="0.5" stop-color="#A6FF31"/>
<stop offset="0.57" stop-color="#92E228"/>
<stop offset="0.71" stop-color="#6DAF17"/>
<stop offset="0.84" stop-color="#538A0A"/>
<stop offset="0.94" stop-color="#437303"/>
<stop offset="1" stop-color="#3D6B00"/>
</linearGradient>
<linearGradient id="paint1_linear_9_2348" x1="51.2072" y1="49.6567" x2="22.6958" y2="28.0683" gradientUnits="userSpaceOnUse">
<stop stop-color="#6B0000"/>
<stop offset="0.06" stop-color="#730303"/>
<stop offset="0.16" stop-color="#8A0A0A"/>
<stop offset="0.29" stop-color="#AF1717"/>
<stop offset="0.43" stop-color="#E22828"/>
<stop offset="0.5" stop-color="#FF3131"/>
<stop offset="0.69" stop-color="#D21C1C"/>
<stop offset="0.89" stop-color="#A40808"/>
<stop offset="1" stop-color="#930000"/>
</linearGradient>
<linearGradient id="paint2_linear_9_2348" x1="56.1102" y1="53.172" x2="20.158" y2="25.9493" gradientUnits="userSpaceOnUse">
<stop stop-color="#BE6D00"/>
<stop offset="0.03" stop-color="#C67D0F"/>
<stop offset="0.12" stop-color="#DAA837"/>
<stop offset="0.21" stop-color="#EAC956"/>
<stop offset="0.29" stop-color="#F6E16D"/>
<stop offset="0.37" stop-color="#FDF07A"/>
<stop offset="0.43" stop-color="#FFF57F"/>
<stop offset="0.57" stop-color="#E8C653"/>
<stop offset="0.7" stop-color="#D69F2F"/>
<stop offset="0.82" stop-color="#C98415"/>
<stop offset="0.92" stop-color="#C17306"/>
<stop offset="1" stop-color="#BE6D00"/>
</linearGradient>
<clipPath id="clip0_9_2348">
<rect width="63.4542" height="46.4735" fill="white" transform="translate(0.506104 50.8417) rotate(-52.863)"/>
</clipPath>
</defs>
</svg>
