<svg width="169" height="176" viewBox="0 0 169 176" fill="none" xmlns="http://www.w3.org/2000/svg">
<g style="mix-blend-mode:luminosity" clip-path="url(#clip0_9_800)">
<path d="M131.592 94.7679C141.433 58.4121 120.003 21.0624 83.7182 11.3439L48.0773 143.001C84.3596 152.722 121.749 131.126 131.592 94.7679Z" fill="url(#paint0_linear_9_800)"/>
<path d="M122.115 92.2288C126.158 77.2881 124.112 61.3736 116.429 47.9857C108.746 34.5978 96.0535 24.8328 81.1439 20.8384L50.646 133.502C65.5558 137.494 81.4609 135.389 94.8635 127.649C108.266 119.909 118.068 107.168 122.115 92.2288Z" fill="url(#paint1_linear_9_800)"/>
<path opacity="0.2" d="M115.027 90.3325C107.26 119.038 79.4195 136.971 50.7723 133.044L50.6487 133.504C58.0699 135.606 65.8398 136.208 73.5069 135.277C81.1739 134.345 88.5851 131.897 95.3097 128.077C102.034 124.257 107.938 119.139 112.679 113.022C117.419 106.905 120.9 99.9098 122.922 92.4439C124.943 84.978 125.463 77.19 124.451 69.5324C123.44 61.8748 120.918 54.5003 117.031 47.8377C113.144 41.175 107.971 35.3572 101.811 30.7221C95.6506 26.0869 88.6272 22.7271 81.1486 20.8378L81.025 21.2979C107.777 32.2135 122.8 61.6268 115.027 90.3325Z" fill="#2B003A"/>
<path d="M83.7182 11.3439C120 21.0603 141.433 58.4121 131.592 94.7679C121.751 131.124 84.357 152.72 48.0773 143.001L50.6488 133.504L81.1487 20.8378L83.7203 11.3412L83.7182 11.3439ZM80.1404 10.3764L77.5709 19.8702L47.071 132.537L44.4995 142.033C44.2492 142.985 44.3838 143.995 44.8739 144.845C45.3641 145.695 46.1703 146.315 47.1172 146.571C85.3139 156.801 124.825 133.984 135.179 95.7124C145.533 57.4411 122.955 18.0768 84.8571 7.77286L84.7036 7.72899C83.7549 7.4825 82.746 7.62091 81.8959 8.11416C81.0457 8.60741 80.423 9.4157 80.1628 10.3636L80.1404 10.3764Z" fill="url(#paint2_linear_9_800)"/>
<path d="M80.7651 9.10325C81.2135 8.51478 81.826 8.07229 82.5247 7.83184C83.2235 7.59138 83.9771 7.5638 84.6899 7.75266L84.8433 7.7965C122.948 18.0924 145.521 57.5007 135.165 95.7361C132.763 104.65 128.662 113.02 123.087 120.385C105.914 143.061 76.1327 154.375 47.0993 146.6C46.1525 146.344 45.3463 145.724 44.8561 144.874C44.3659 144.024 44.2313 143.014 44.4816 142.063L47.0532 132.566L77.5531 19.8993L80.1225 10.4055C80.2481 9.94428 80.4609 9.51115 80.7493 9.12968L80.7651 9.10325ZM79.5225 8.20059C79.1127 8.74022 78.8119 9.35444 78.6369 10.0087L76.0633 19.5079L45.5792 132.148L43.0076 141.645C42.6435 142.992 42.8284 144.427 43.5215 145.634C44.2146 146.841 45.3592 147.721 46.7036 148.081C55.9961 150.57 65.6943 151.201 75.2443 149.937C84.7943 148.674 94.009 145.54 102.362 140.716C110.716 135.891 118.044 129.47 123.929 121.82C129.813 114.169 134.139 105.439 136.66 96.1268C147.222 57.1149 124.17 16.8203 85.25 6.30717C85.25 6.30717 85.1642 6.28047 85.0938 6.26128C84.0849 5.98848 83.0164 6.02492 82.0261 6.3659C81.0358 6.70687 80.1693 7.33669 79.5383 8.17416L79.5225 8.20059Z" fill="#683600"/>
<path d="M68.6503 114.16C71.0096 114.792 72.6131 116.445 72.2233 117.845C71.8335 119.245 69.6225 119.879 67.2631 119.246C64.9038 118.614 63.2956 116.962 63.6881 115.564C64.0806 114.166 66.2863 113.528 68.6503 114.16Z" fill="#1A1A1A"/>
<path d="M97.7768 106.267C98.1572 104.861 96.5513 103.209 94.1899 102.577C91.8285 101.945 89.6057 102.571 89.2253 103.977C88.8449 105.383 90.4508 107.035 92.8123 107.667C95.1737 108.299 97.3964 107.673 97.7768 106.267Z" fill="#1A1A1A"/>
<path d="M84.1765 79.3498C86.5406 79.9817 88.144 81.6347 87.7515 83.0325C87.359 84.4304 85.1506 85.0663 82.7865 84.4344C80.4225 83.8025 78.8237 82.1489 79.2135 80.749C79.6033 79.3491 81.8254 78.7064 84.1765 79.3498Z" fill="#1A1A1A"/>
<path d="M86.9478 46.5587C89.3091 47.1885 91.531 46.5627 91.9127 45.1567C92.2944 43.7507 90.6862 42.0984 88.3377 41.474C85.9892 40.8496 83.7565 41.4672 83.3748 42.8732C82.9931 44.2793 84.5885 45.9261 86.9478 46.5587Z" fill="#1A1A1A"/>
<path d="M103.258 69.3023C105.619 69.9321 107.841 69.3065 108.22 67.8984C108.599 66.4904 106.996 64.8421 104.645 64.2157C102.294 63.5893 100.064 64.2089 99.6821 65.6149C99.3004 67.0209 100.896 68.6677 103.258 69.3023Z" fill="#1A1A1A"/>
<circle cx="105" cy="32" r="11.5" fill="#C4C4C4" fill-opacity="0.43" stroke="black"/>
<path d="M105.451 34.5762V36H99.5566V34.793L102.311 31.875C102.568 31.5781 102.773 31.3164 102.926 31.0898C103.082 30.8633 103.195 30.6582 103.266 30.4746C103.336 30.2871 103.371 30.1152 103.371 29.959C103.371 29.7051 103.33 29.4902 103.248 29.3145C103.17 29.1387 103.055 29.0039 102.902 28.9102C102.75 28.8164 102.564 28.7695 102.346 28.7695C102.111 28.7695 101.91 28.8301 101.742 28.9512C101.574 29.0723 101.445 29.2402 101.355 29.4551C101.266 29.666 101.221 29.9063 101.221 30.1758H99.3809C99.3809 29.6563 99.5059 29.1836 99.7559 28.7578C100.006 28.3281 100.355 27.9863 100.805 27.7324C101.254 27.4746 101.779 27.3457 102.381 27.3457C102.998 27.3457 103.516 27.4434 103.934 27.6387C104.352 27.834 104.668 28.1133 104.883 28.4766C105.098 28.8398 105.205 29.2773 105.205 29.7891C105.205 30.0781 105.158 30.3574 105.064 30.627C104.975 30.8965 104.844 31.1641 104.672 31.4297C104.5 31.6953 104.293 31.9668 104.051 32.2441C103.809 32.5176 103.535 32.8066 103.23 33.1113L101.941 34.5762H105.451Z" fill="black"/>
</g>
<defs>
<linearGradient id="paint0_linear_9_800" x1="121.497" y1="116.183" x2="46.9396" y2="59.7265" gradientUnits="userSpaceOnUse">
<stop stop-color="#549300"/>
<stop offset="0.11" stop-color="#61A408"/>
<stop offset="0.31" stop-color="#84D21C"/>
<stop offset="0.5" stop-color="#A6FF31"/>
<stop offset="0.57" stop-color="#92E228"/>
<stop offset="0.71" stop-color="#6DAF17"/>
<stop offset="0.84" stop-color="#538A0A"/>
<stop offset="0.94" stop-color="#437303"/>
<stop offset="1" stop-color="#3D6B00"/>
</linearGradient>
<linearGradient id="paint1_linear_9_800" x1="113.461" y1="110.55" x2="49.6568" y2="62.2387" gradientUnits="userSpaceOnUse">
<stop stop-color="#6B0000"/>
<stop offset="0.06" stop-color="#730303"/>
<stop offset="0.16" stop-color="#8A0A0A"/>
<stop offset="0.29" stop-color="#AF1717"/>
<stop offset="0.43" stop-color="#E22828"/>
<stop offset="0.5" stop-color="#FF3131"/>
<stop offset="0.69" stop-color="#D21C1C"/>
<stop offset="0.89" stop-color="#A40808"/>
<stop offset="1" stop-color="#930000"/>
</linearGradient>
<linearGradient id="paint2_linear_9_800" x1="124.433" y1="118.416" x2="43.9778" y2="57.4966" gradientUnits="userSpaceOnUse">
<stop stop-color="#BE6D00"/>
<stop offset="0.03" stop-color="#C67D0F"/>
<stop offset="0.12" stop-color="#DAA837"/>
<stop offset="0.21" stop-color="#EAC956"/>
<stop offset="0.29" stop-color="#F6E16D"/>
<stop offset="0.37" stop-color="#FDF07A"/>
<stop offset="0.43" stop-color="#FFF57F"/>
<stop offset="0.57" stop-color="#E8C653"/>
<stop offset="0.7" stop-color="#D69F2F"/>
<stop offset="0.82" stop-color="#C98415"/>
<stop offset="0.92" stop-color="#C17306"/>
<stop offset="1" stop-color="#BE6D00"/>
</linearGradient>
<clipPath id="clip0_9_800">
<rect width="142" height="104" fill="white" transform="translate(0 113.202) rotate(-52.863)"/>
</clipPath>
</defs>
</svg>
