<svg width="212" height="208" viewBox="0 0 212 208" fill="none" xmlns="http://www.w3.org/2000/svg">
<g style="mix-blend-mode:luminosity" clip-path="url(#clip0_9_784)">
<path d="M142.422 106.776C142.733 94.3485 141.897 81.9193 139.925 69.6466C146.664 69.1007 153.446 69.4536 160.091 70.696C160.814 70.8497 161.561 70.8578 162.287 70.7196C163.014 70.5815 163.706 70.3 164.323 69.8916C164.94 69.4831 165.469 68.9559 165.88 68.3406C166.291 67.7254 166.576 67.0345 166.717 66.3083C166.859 65.582 166.854 64.8349 166.704 64.1106C166.553 63.3863 166.26 62.6994 165.841 62.0898C165.423 61.4802 164.887 60.9601 164.265 60.5601C163.643 60.16 162.947 59.888 162.219 59.7597C146.903 56.7814 129.979 58.1942 113.269 63.8374C99.3044 68.5544 85.4127 76.1084 70.8 86.9386C68.0088 89.011 65.1197 91.307 63.1405 94.6723C62.3937 95.9458 62.1825 97.4636 62.5533 98.8922C62.9241 100.321 63.8466 101.543 65.1183 102.292L65.1785 102.326C66.4498 103.053 67.9567 103.249 69.3723 102.872C70.7878 102.495 71.9979 101.575 72.7402 100.311C73.6371 98.7428 75.4836 97.328 77.4268 95.8837C91.1049 85.737 103.983 78.7262 116.825 74.3854C120.78 73.0576 124.813 71.9786 128.903 71.1547C130.795 82.8248 131.597 94.6462 131.301 106.466C131.122 113.496 130.514 121.599 127.359 128.399C126.773 129.664 126.682 131.103 127.105 132.431C127.527 133.759 128.432 134.881 129.641 135.574C129.776 135.651 129.919 135.733 130.058 135.812C131.398 136.432 132.93 136.495 134.316 135.986C135.703 135.477 136.83 134.438 137.452 133.097C141.455 124.466 142.208 114.949 142.422 106.776Z" fill="url(#paint0_linear_9_784)"/>
<path d="M134.519 120.709C131.866 110.957 122.044 104.686 112.208 106.953C107.009 108.149 102.116 110.415 97.8419 113.609C93.5672 116.802 90.0049 120.852 87.3823 125.499C77.4283 143.081 83.019 165.928 99.9844 176.882C106.64 181.184 114.461 183.329 122.382 183.023C130.302 182.717 137.937 179.976 144.247 175.173C150.556 170.371 155.233 163.74 157.64 156.184C160.047 148.628 160.067 140.515 157.697 132.95C154.643 123.322 144.259 118.053 134.519 120.709Z" fill="url(#paint1_linear_9_784)"/>
<path opacity="0.2" d="M108.275 162.322C93.6376 152.889 87.5007 134.591 92.4583 118.454C90.4913 120.605 88.7735 122.972 87.3373 125.508C77.3833 143.09 82.9739 165.937 99.9393 176.891C104.936 180.129 110.616 182.165 116.533 182.838C122.45 183.511 128.443 182.803 134.042 180.77C139.641 178.737 144.693 175.434 148.803 171.12C152.913 166.806 155.968 161.599 157.728 155.907C151.576 162.659 143.229 167.01 134.173 168.184C125.117 169.359 115.94 167.282 108.275 162.322Z" fill="#2B003A"/>
<g opacity="0.3">
<path opacity="0.3" d="M148.819 142.188C146.071 143.147 142.686 140.587 141.256 136.476C139.826 132.364 140.895 128.253 143.643 127.294C146.391 126.335 149.78 128.897 151.21 133.008C152.639 137.12 151.565 141.232 148.819 142.188Z" fill="#F2F2F2"/>
</g>
<g opacity="0.3">
<path opacity="0.3" d="M148.65 150.586C150.147 151.442 152.055 150.922 152.911 149.424C153.768 147.926 153.248 146.018 151.752 145.162C150.255 144.306 148.347 144.827 147.491 146.324C146.634 147.822 147.153 149.73 148.65 150.586Z" fill="#F2F2F2"/>
</g>
<path d="M76.512 87.5395C73.8624 77.7889 64.0402 71.5185 54.2045 73.7853C49.0055 74.9801 44.1122 77.2466 39.8374 80.44C35.5627 83.6334 32.0006 87.6835 29.3787 92.3314C19.4247 109.913 25.0153 132.76 41.9807 143.714C48.6368 148.001 56.4522 150.132 64.3643 149.818C72.2763 149.504 79.9011 146.76 86.2017 141.959C92.5023 137.159 97.173 130.534 99.5788 122.987C101.985 115.439 102.009 107.335 99.6476 99.7757C96.6358 90.1525 86.2512 84.8831 76.512 87.5395Z" fill="url(#paint2_linear_9_784)"/>
<path opacity="0.2" d="M50.279 129.159C35.6413 119.725 29.5045 101.427 34.462 85.2907C32.4956 87.4423 30.7766 89.8078 29.3372 92.3426C19.3833 109.924 24.9777 132.774 41.9431 143.728C46.9418 146.957 52.6205 148.985 58.5347 149.653C64.4489 150.321 70.4382 149.611 76.0337 147.578C81.6293 145.545 86.6794 142.245 90.7888 137.935C94.8981 133.626 97.9552 128.424 99.7209 122.737C93.569 129.487 85.2246 133.836 76.1716 135.012C67.1186 136.188 57.9438 134.114 50.279 129.159Z" fill="#2B003A"/>
<g opacity="0.3">
<path opacity="0.3" d="M90.8113 109.018C88.0632 109.977 84.6746 107.415 83.2449 103.303C81.8152 99.1917 82.8838 95.0811 85.6357 94.1242C88.3875 93.1673 91.7686 95.7245 93.1983 99.8362C94.6281 103.948 93.5573 108.062 90.8113 109.018Z" fill="#F2F2F2"/>
</g>
<g opacity="0.3">
<path opacity="0.3" d="M90.6427 117.416C92.1394 118.272 94.0471 117.752 94.9036 116.254C95.76 114.756 95.2409 112.848 93.7441 111.992C92.2473 111.136 90.3397 111.657 89.4832 113.154C88.6268 114.652 89.1459 116.56 90.6427 117.416Z" fill="#F2F2F2"/>
</g>
<path d="M163.913 60.4088C165.045 61.0695 165.908 62.109 166.35 63.3441C166.791 64.5792 166.782 65.9308 166.325 67.1606C165.868 68.3905 164.992 69.4197 163.851 70.0672C162.71 70.7146 161.378 70.9386 160.088 70.6998C153.443 69.4573 146.662 69.1044 139.923 69.6504C141.895 81.9231 142.731 94.3522 142.42 106.78C142.346 111.242 141.966 115.695 141.284 120.106C144.092 120.347 146.813 121.195 149.261 122.59C153.274 124.854 156.278 128.557 157.666 132.952C160.02 140.411 160.042 148.413 157.729 155.888C157.322 157.202 156.844 158.493 156.296 159.755C156.287 159.775 156.277 159.794 156.264 159.811C156.017 160.384 155.75 160.955 155.472 161.519C155.431 161.591 155.39 161.662 155.349 161.734C155.035 162.363 154.701 162.99 154.346 163.611C153.009 165.951 151.432 168.145 149.639 170.158C145.111 175.223 139.329 179.005 132.876 181.122C126.422 183.239 119.525 183.616 112.881 182.215C112.245 182.081 111.607 181.931 110.971 181.762C110.239 181.568 109.514 181.343 108.789 181.103C106.331 180.288 103.96 179.23 101.711 177.944C101.112 177.602 100.52 177.243 99.9328 176.868C88.7194 169.637 82.5175 157.201 82.4452 144.522C74.1383 149.416 64.3047 151.03 54.8738 149.045C54.2373 148.911 53.5998 148.761 52.9634 148.592C52.2314 148.398 51.503 148.171 50.7775 147.931C48.3204 147.117 45.9508 146.059 43.7038 144.774C43.1049 144.432 42.512 144.073 41.9253 143.698C28.9613 135.341 22.6703 120.035 24.8455 105.431C25.5172 100.821 27.0339 96.3732 29.3195 92.3125C29.3195 92.3125 29.3388 92.2786 29.3474 92.2636C29.7023 91.643 30.055 91.0262 30.4486 90.4426C30.5002 90.3524 30.5497 90.2658 30.6201 90.1863C30.968 89.6565 31.3211 89.1347 31.691 88.6275C31.7146 88.5861 31.7361 88.5485 31.7598 88.5072C32.588 87.3788 33.4757 86.2952 34.419 85.2612C39.6742 79.5188 46.5478 75.5073 54.1302 73.7578C58.6332 72.7214 63.3607 73.4323 67.3584 75.7469C70.6536 77.6367 73.3221 80.4519 75.0335 83.8441C88.0897 74.6544 100.627 68.0729 113.214 63.8207C129.912 58.1711 146.848 56.7647 162.164 59.743C162.762 59.8608 163.337 60.0749 163.866 60.3771L163.913 60.4088ZM88.6219 88.1603C89.5168 88.5066 90.3845 88.9193 91.2178 89.3952C95.2331 91.6583 98.2387 95.3625 99.6271 99.759C100.792 103.459 101.394 107.313 101.414 111.192C104.759 109.242 108.378 107.807 112.149 106.934C116.647 105.901 121.369 106.612 125.362 108.924C127.469 110.132 129.331 111.724 130.854 113.617C131.076 111.179 131.194 108.766 131.249 106.471C131.545 94.651 130.742 82.8296 128.85 71.1595C124.761 71.9834 120.727 73.0624 116.772 74.3902C107.501 77.5189 98.204 82.0801 88.6154 88.1716L88.6219 88.1603ZM166.626 55.5514C165.571 54.9498 164.425 54.5225 163.234 54.2859C146.961 51.1244 129.051 52.6027 111.417 58.5457C99.8267 62.4594 88.3474 68.2284 76.4663 76.1135C74.6492 74.0398 72.5 72.2829 70.1065 70.9147C64.891 67.9076 58.7303 66.9862 52.8613 68.3355C44.1761 70.3304 36.3038 74.9262 30.2941 81.5099C29.2096 82.691 28.193 83.9328 27.2495 85.2293L27.1893 85.3346C26.7479 85.9407 26.3399 86.5409 25.9431 87.1476C25.8872 87.2453 25.8237 87.3388 25.7528 87.428C25.3211 88.1045 24.9087 88.7821 24.5237 89.4554L24.4678 89.5532C21.8356 94.2131 20.089 99.3202 19.3164 104.616C16.7454 121.882 24.4288 139.063 38.8887 148.38C39.5514 148.809 40.2322 149.223 40.9164 149.614C43.4827 151.086 46.1892 152.3 48.9959 153.236C49.9063 153.537 50.7263 153.786 51.5062 153.993C52.286 154.199 52.9541 154.356 53.6996 154.518C61.6823 156.213 69.9802 155.652 77.6651 152.899C78.7577 158.735 81.0264 164.286 84.3331 169.216C87.6398 174.145 91.9152 178.349 96.899 181.571C97.5616 182 98.2425 182.414 98.9266 182.806C101.493 184.278 104.199 185.491 107.006 186.428C107.92 186.731 108.737 186.978 109.516 187.184C110.296 187.39 110.968 187.55 111.71 187.71C120.075 189.492 128.779 188.798 136.758 185.712C144.738 182.626 151.647 177.283 156.642 170.334C157.55 169.074 158.39 167.767 159.16 166.418C159.558 165.723 159.943 165.005 160.312 164.272L160.453 163.974C160.755 163.367 161.057 162.717 161.342 162.061C161.359 162.031 161.383 161.99 161.407 161.948C162.02 160.518 162.56 159.057 163.022 157.571C165.681 149.016 165.657 139.852 162.953 131.313C161.139 125.584 157.227 120.753 152.001 117.789C150.553 116.964 149.026 116.286 147.442 115.766C147.771 112.46 147.888 109.438 147.954 106.95C148.22 96.2774 147.665 85.6009 146.293 75.0148C150.552 75.0121 154.801 75.4114 158.984 76.2074C161.574 76.7124 164.26 76.2804 166.563 74.9883C168.865 73.6963 170.635 71.6284 171.555 69.1533C172.476 66.6782 172.487 63.957 171.588 61.4752C170.689 58.9933 168.937 56.9122 166.646 55.6029L166.626 55.5514ZM99.0888 88.4357C105.308 84.9226 111.838 81.9917 118.595 79.6803C120.445 79.0574 122.332 78.4877 124.257 77.9712C125.323 86.2411 125.83 94.5739 125.776 102.913C121.108 100.867 115.903 100.382 110.935 101.529C109.333 101.902 107.752 102.362 106.201 102.909C105.877 101.283 105.464 99.6771 104.961 98.0977C103.812 94.4438 101.792 91.125 99.0738 88.4271L99.0888 88.4357Z" fill="url(#paint3_linear_9_784)"/>
<path d="M166.679 55.5718C168.97 56.881 170.722 58.9622 171.621 61.444C172.52 63.9259 172.508 66.6471 171.588 69.1221C170.668 71.5972 168.898 73.6652 166.596 74.9572C164.293 76.2492 161.607 76.6813 159.017 76.1763C154.834 75.3802 150.584 74.9809 146.326 74.9836C147.698 85.5685 148.254 96.2437 147.989 106.915C147.923 109.403 147.823 112.44 147.477 115.731C149.061 116.251 150.588 116.929 152.036 117.754C157.262 120.718 161.174 125.549 162.988 131.278C165.692 139.817 165.716 148.981 163.057 157.536C162.594 159.022 162.055 160.483 161.442 161.913C161.42 161.951 161.394 161.996 161.377 162.026C161.092 162.682 160.79 163.333 160.488 163.939L160.347 164.237C159.978 164.97 159.593 165.688 159.195 166.384C158.425 167.732 157.585 169.039 156.676 170.299C151.682 177.248 144.773 182.592 136.793 185.677C128.814 188.763 120.11 189.457 111.745 187.675C111.014 187.522 110.286 187.339 109.551 187.149C108.817 186.959 107.955 186.696 107.041 186.393C104.234 185.456 101.528 184.243 98.9615 182.771C98.2774 182.38 97.5858 181.984 96.9339 181.536C91.9501 178.314 87.6747 174.11 84.3681 169.181C81.0614 164.251 78.7927 158.7 77.7 152.864C70.0155 155.619 61.7171 156.18 53.7346 154.483C53.0023 154.327 52.2712 154.152 51.5411 153.958C50.7613 153.751 49.9412 153.502 49.0309 153.201C46.2242 152.265 43.5177 151.051 40.9513 149.579C40.2672 149.188 39.5756 148.793 38.9237 148.345C24.4638 139.028 16.7803 121.847 19.3514 104.581C20.124 99.2852 21.8706 94.1782 24.5028 89.5183L24.5587 89.4205C24.9437 88.7472 25.356 88.0696 25.7877 87.3931C25.8437 87.2953 25.8996 87.1975 25.9781 87.1126C26.3748 86.506 26.7829 85.9058 27.2242 85.2997L27.2844 85.1944C28.228 83.8979 29.2446 82.6561 30.3291 81.475C36.3388 74.8912 44.2111 70.2955 52.8963 68.3006C58.7652 66.9513 64.926 67.8727 70.1415 70.8797C72.5348 72.2483 74.6839 74.0052 76.5012 76.0786C88.3824 68.1935 99.8616 62.4245 111.452 58.5108C129.075 52.5613 146.984 51.083 163.269 54.251C164.46 54.4875 165.606 54.9149 166.661 55.5165L166.679 55.5718ZM167.639 53.8051C166.399 53.0978 165.052 52.5957 163.651 52.3182C147.04 49.0932 128.78 50.5909 110.835 56.6505C99.5012 60.4814 88.3578 66.0033 76.819 73.5252C75.126 71.8274 73.2131 70.3642 71.1314 69.1748C65.4845 65.9198 58.8145 64.923 52.4607 66.3845C43.3887 68.4728 35.1659 73.2745 28.8864 80.1509C27.7558 81.3872 26.6929 82.6839 25.7026 84.0353L25.6618 84.1067C25.172 84.78 24.7473 85.4006 24.3334 86.0374C24.2946 86.1051 24.207 86.2147 24.1344 86.3329C23.686 87.0298 23.2543 87.7412 22.8521 88.4446L22.7962 88.5424C20.0416 93.4158 18.2135 98.7571 17.4043 104.296C14.7206 122.327 22.7554 140.297 37.8586 150.007C38.5438 150.449 39.2547 150.88 39.9764 151.293C42.6599 152.825 45.4891 154.087 48.4223 155.059C49.3648 155.374 50.2253 155.631 51.0432 155.849C51.779 156.045 52.5551 156.215 53.3269 156.391C60.9238 158.005 68.8067 157.665 76.2385 155.403C78.9272 166.86 85.9659 176.821 95.8662 183.177C96.5513 183.619 97.2623 184.05 97.984 184.463C100.667 185.995 103.496 187.257 106.43 188.229C107.39 188.548 108.246 188.804 109.054 189.021C109.79 189.217 110.566 189.387 111.338 189.563C120.887 191.591 130.835 190.529 139.745 186.531C148.655 182.533 156.064 175.805 160.904 167.321C161.321 166.591 161.726 165.839 162.106 165.078C162.175 164.958 162.239 164.845 162.277 164.717C162.566 164.134 162.886 163.453 163.186 162.771L163.27 162.624C167.618 152.5 168.186 141.152 164.87 130.648C162.911 124.444 158.678 119.214 153.021 116.006C151.916 115.376 150.767 114.826 149.583 114.36C149.817 111.499 149.909 108.921 149.963 106.926C150.215 96.932 149.753 86.9336 148.581 77.0067C151.964 77.1128 155.333 77.4857 158.657 78.1219C161.706 78.7165 164.868 78.2082 167.578 76.6877C170.288 75.1671 172.371 72.7331 173.454 69.82C174.537 66.9069 174.551 63.704 173.493 60.7829C172.435 57.8617 170.373 55.4121 167.676 53.8712L167.639 53.8051Z" fill="#683600"/>
<circle cx="143" cy="83" r="11.5" fill="#C4C4C4" fill-opacity="0.43" stroke="black"/>
<path d="M139.32 81.9551H140.252C140.518 81.9551 140.736 81.9082 140.908 81.8145C141.084 81.7207 141.213 81.5879 141.295 81.416C141.381 81.2441 141.424 81.043 141.424 80.8125C141.424 80.6133 141.385 80.4355 141.307 80.2793C141.229 80.123 141.109 80 140.949 79.9102C140.793 79.8164 140.59 79.7695 140.34 79.7695C140.16 79.7695 139.988 79.8066 139.824 79.8809C139.664 79.9512 139.533 80.0547 139.432 80.1914C139.33 80.3242 139.279 80.4844 139.279 80.6719H137.445C137.445 80.1953 137.574 79.7832 137.832 79.4355C138.094 79.0879 138.439 78.8203 138.869 78.6328C139.303 78.4414 139.775 78.3457 140.287 78.3457C140.877 78.3457 141.395 78.4395 141.84 78.627C142.289 78.8105 142.637 79.084 142.883 79.4473C143.133 79.8066 143.258 80.252 143.258 80.7832C143.258 81.0605 143.191 81.3281 143.059 81.5859C142.93 81.8398 142.744 82.0664 142.502 82.2656C142.264 82.4609 141.979 82.6172 141.646 82.7344C141.318 82.8477 140.953 82.9043 140.551 82.9043H139.32V81.9551ZM139.32 83.332V82.4004H140.551C140.996 82.4004 141.395 82.4512 141.746 82.5527C142.098 82.6543 142.396 82.8008 142.643 82.9922C142.889 83.1836 143.076 83.416 143.205 83.6895C143.334 83.9629 143.398 84.2676 143.398 84.6035C143.398 85.002 143.32 85.3574 143.164 85.6699C143.008 85.9824 142.789 86.2461 142.508 86.4609C142.227 86.6758 141.896 86.8398 141.518 86.9531C141.139 87.0625 140.729 87.1172 140.287 87.1172C139.932 87.1172 139.578 87.0684 139.227 86.9707C138.875 86.873 138.557 86.7246 138.271 86.5254C137.986 86.3223 137.758 86.0664 137.586 85.7578C137.414 85.4453 137.328 85.0742 137.328 84.6445H139.162C139.162 84.8437 139.213 85.0234 139.314 85.1836C139.42 85.3398 139.562 85.4648 139.742 85.5586C139.926 85.6484 140.125 85.6934 140.34 85.6934C140.598 85.6934 140.816 85.6465 140.996 85.5527C141.18 85.4551 141.318 85.3223 141.412 85.1543C141.51 84.9863 141.559 84.793 141.559 84.5742C141.559 84.2773 141.506 84.0391 141.4 83.8594C141.299 83.6758 141.15 83.543 140.955 83.4609C140.76 83.375 140.525 83.332 140.252 83.332H139.32Z" fill="black"/>
</g>
<defs>
<linearGradient id="paint0_linear_9_784" x1="96.6223" y1="120.331" x2="139.025" y2="46.1774" gradientUnits="userSpaceOnUse">
<stop stop-color="#3D6B00"/>
<stop offset="0.06" stop-color="#437303"/>
<stop offset="0.16" stop-color="#538A0A"/>
<stop offset="0.29" stop-color="#6DAF17"/>
<stop offset="0.43" stop-color="#92E228"/>
<stop offset="0.5" stop-color="#A6FF31"/>
<stop offset="0.69" stop-color="#84D21C"/>
<stop offset="0.89" stop-color="#61A408"/>
<stop offset="1" stop-color="#549300"/>
</linearGradient>
<linearGradient id="paint1_linear_9_784" x1="101.76" y1="177.982" x2="137.338" y2="115.763" gradientUnits="userSpaceOnUse">
<stop stop-color="#6B0000"/>
<stop offset="0.06" stop-color="#730303"/>
<stop offset="0.16" stop-color="#8A0A0A"/>
<stop offset="0.29" stop-color="#AF1717"/>
<stop offset="0.43" stop-color="#E22828"/>
<stop offset="0.5" stop-color="#FF3131"/>
<stop offset="0.69" stop-color="#D21C1C"/>
<stop offset="0.89" stop-color="#A40808"/>
<stop offset="1" stop-color="#930000"/>
</linearGradient>
<linearGradient id="paint2_linear_9_784" x1="105855" y1="191182" x2="111739" y2="180892" gradientUnits="userSpaceOnUse">
<stop stop-color="#6B0000"/>
<stop offset="0.06" stop-color="#730303"/>
<stop offset="0.16" stop-color="#8A0A0A"/>
<stop offset="0.29" stop-color="#AF1717"/>
<stop offset="0.43" stop-color="#E22828"/>
<stop offset="0.5" stop-color="#FF3131"/>
<stop offset="0.69" stop-color="#D21C1C"/>
<stop offset="0.89" stop-color="#A40808"/>
<stop offset="1" stop-color="#930000"/>
</linearGradient>
<linearGradient id="paint3_linear_9_784" x1="69.9921" y1="166.23" x2="141.502" y2="41.1749" gradientUnits="userSpaceOnUse">
<stop stop-color="#BE6D00"/>
<stop offset="0.03" stop-color="#C67D0F"/>
<stop offset="0.12" stop-color="#DAA837"/>
<stop offset="0.21" stop-color="#EAC956"/>
<stop offset="0.29" stop-color="#F6E16D"/>
<stop offset="0.37" stop-color="#FDF07A"/>
<stop offset="0.43" stop-color="#FFF57F"/>
<stop offset="0.57" stop-color="#E8C653"/>
<stop offset="0.7" stop-color="#D69F2F"/>
<stop offset="0.82" stop-color="#C98415"/>
<stop offset="0.92" stop-color="#C17306"/>
<stop offset="1" stop-color="#BE6D00"/>
</linearGradient>
<clipPath id="clip0_9_784">
<rect width="159" height="148" fill="white" transform="translate(73.4667) rotate(29.7619)"/>
</clipPath>
</defs>
</svg>
