<svg width="198" height="117" viewBox="0 0 198 117" fill="none" xmlns="http://www.w3.org/2000/svg">
<g style="mix-blend-mode:luminosity" clip-path="url(#clip0_9_761)">
<path d="M182.736 31.1991C187.844 31.1991 190.838 32.5868 191.717 35.3624C192.155 36.5327 192.372 38.5776 192.369 41.497C192.366 44.4165 191.417 48.0479 189.521 52.3911C187.567 56.8471 185.28 61.1493 182.679 65.2613C180.02 69.4981 177.338 73.7694 174.632 78.0751C168.21 88.5139 164.998 96.9109 164.998 103.266C165.029 104.456 164.955 105.647 164.778 106.824C164.585 107.694 164.213 108.514 163.685 109.232C162.972 110.15 161.934 110.759 160.785 110.931C158.96 111.263 157.106 111.409 155.252 111.368C153.4 111.409 151.548 111.263 149.725 110.931C149.15 110.845 148.598 110.646 148.1 110.345C147.602 110.045 147.169 109.649 146.825 109.18C146.299 108.445 145.943 107.601 145.783 106.711C145.651 105.494 145.597 104.27 145.619 103.046C145.655 98.0759 146.469 93.1425 148.031 88.4247C149.488 83.762 151.432 79.2657 153.831 75.0101C156.105 71.0611 158.368 67.4282 160.62 64.1113C162.873 60.7945 164.808 57.9469 166.425 55.5688C168.025 53.1985 168.832 51.5369 168.832 50.5841H143.869C140.95 50.5841 138.834 50.2195 137.52 49.4904C136.256 48.8222 135.309 47.6792 134.887 46.3128C134.399 44.531 134.178 42.6867 134.23 40.8399C134.179 38.9917 134.4 37.1459 134.887 35.3624C135.328 33.9777 136.023 33.0155 136.971 32.518C138.504 31.6418 140.62 31.2022 143.32 31.1991H182.736Z" fill="url(#paint0_linear_9_761)"/>
<path d="M54.1314 31.1991C59.2398 31.1991 62.2336 32.5868 63.1126 35.3624C63.5474 36.5327 63.7664 38.5776 63.7695 41.497C63.7727 44.4165 62.8232 48.0479 60.9213 52.3911C58.9655 56.8462 56.6786 61.1483 54.0798 65.2613C51.4145 69.4981 48.732 73.7694 46.0323 78.0751C39.61 88.5139 36.3988 96.9109 36.3988 103.266C36.4268 104.456 36.353 105.647 36.1783 106.824C35.9833 107.693 35.6111 108.513 35.085 109.232C34.5 110.074 33.5318 110.64 32.1804 110.931C30.3573 111.263 28.5053 111.409 26.6528 111.368C24.8002 111.409 22.9482 111.263 21.1251 110.931C19.9633 110.755 18.9186 110.126 18.2205 109.18C17.6964 108.444 17.3422 107.601 17.1835 106.711C17.0519 105.494 16.997 104.27 17.0193 103.046C17.0557 98.0763 17.8679 93.1433 19.4265 88.4247C20.8834 83.7611 22.829 79.2646 25.231 75.0101C27.4927 71.0674 29.7544 67.4345 32.0162 64.1113C34.2779 60.7882 36.2127 57.9407 37.8206 55.5688C39.4254 53.1969 40.2278 51.5353 40.2278 50.5841H15.269C12.3441 50.5841 10.2263 50.2195 8.91553 49.4904C8.29025 49.1595 7.73633 48.7085 7.28544 48.1632C6.83455 47.618 6.49553 46.9892 6.28779 46.3128C5.79968 44.531 5.57829 42.6867 5.63086 40.8399C5.579 38.9917 5.80037 37.1459 6.28779 35.3624C6.72888 33.9777 7.41867 33.0155 8.36653 32.518C9.89938 31.6418 12.0172 31.2022 14.72 31.1991H54.1314Z" fill="url(#paint1_linear_9_761)"/>
<path d="M182.736 31.1991C187.844 31.1991 190.838 32.5868 191.717 35.3624C192.155 36.5327 192.372 38.5776 192.369 41.497C192.366 44.4165 191.417 48.0479 189.521 52.3911C187.567 56.8471 185.28 61.1493 182.679 65.2613C180.02 69.4981 177.338 73.7694 174.632 78.0751C168.21 88.5202 164.998 96.9172 164.998 103.266C165.029 104.456 164.955 105.647 164.778 106.824C164.585 107.694 164.213 108.514 163.685 109.232C162.972 110.15 161.934 110.759 160.785 110.931C158.96 111.263 157.106 111.409 155.252 111.368C153.4 111.409 151.548 111.263 149.725 110.931C149.15 110.845 148.598 110.646 148.1 110.345C147.602 110.045 147.169 109.649 146.825 109.18C146.299 108.445 145.943 107.601 145.783 106.711C145.651 105.494 145.597 104.27 145.619 103.046C145.655 98.0759 146.469 93.1425 148.031 88.4247C149.488 83.762 151.432 79.2657 153.831 75.0101C156.105 71.0611 158.368 67.4282 160.62 64.1113C162.873 60.7944 164.808 57.9469 166.425 55.5688C168.025 53.1985 168.832 51.5369 168.832 50.5841H143.869C140.95 50.5841 138.829 50.2226 137.52 49.4904C136.256 48.8222 135.309 47.6792 134.887 46.3128C134.399 44.531 134.178 42.6867 134.23 40.8399C134.179 38.9917 134.4 37.1459 134.887 35.3624C135.329 33.9777 136.023 33.0155 136.971 32.518C138.504 31.6418 140.62 31.2022 143.32 31.1991H182.736ZM182.736 25.5666H143.32C139.617 25.5666 136.647 26.2331 134.23 27.5943C132.673 28.4532 130.622 30.1946 129.538 33.6633C128.861 35.9936 128.545 38.4138 128.6 40.8399C128.546 43.2629 128.862 45.6799 129.538 48.0072C130.391 50.7489 132.28 53.0493 134.803 54.4188C137.018 55.6439 139.904 56.2165 143.887 56.2165H159.199L155.984 60.9384C153.638 64.3789 151.292 68.1667 148.946 72.2033C146.354 76.8026 144.249 81.6604 142.667 86.6974C140.932 91.9732 140.028 97.487 139.988 103.041C139.961 104.531 140.035 106.02 140.209 107.5C140.485 109.223 141.144 110.862 142.137 112.297C143.118 113.766 145.018 115.672 148.538 116.432C150.75 116.853 153.001 117.042 155.252 116.995C157.506 117.042 159.758 116.853 161.972 116.432C165.43 115.686 167.326 113.855 168.302 112.452C169.283 111.087 169.967 109.531 170.31 107.885C170.556 106.357 170.663 104.809 170.629 103.262C170.629 99.638 172.154 92.8415 179.428 81.0227C182.102 76.7562 184.782 72.4896 187.447 68.2606C190.195 63.9102 192.614 59.3603 194.683 54.6488C196.916 49.5421 198 45.2379 198 41.5064C198 37.8688 197.704 35.4046 197.062 33.5271C195.856 29.8614 192.369 25.5478 182.759 25.5478L182.736 25.5666Z" fill="url(#paint2_linear_9_761)"/>
<path d="M54.1314 31.1991C59.2399 31.1991 62.2336 32.5868 63.1126 35.3624C63.5475 36.5327 63.7664 38.5776 63.7696 41.497C63.7727 44.4165 62.8233 48.0479 60.9213 52.3911C58.9655 56.8462 56.6786 61.1483 54.0798 65.2613C51.4145 69.4981 48.732 73.7694 46.0324 78.0751C39.61 88.5202 36.3989 96.9172 36.3989 103.266C36.4268 104.456 36.353 105.647 36.1783 106.824C35.9833 107.693 35.6111 108.513 35.085 109.232C34.5 110.074 33.5318 110.64 32.1804 110.931C30.3573 111.263 28.5054 111.409 26.6528 111.368C24.8003 111.409 22.9483 111.263 21.1252 110.931C19.9633 110.755 18.9186 110.126 18.2206 109.18C17.6964 108.444 17.3422 107.601 17.1836 106.711C17.0519 105.494 16.9971 104.27 17.0193 103.046C17.0558 98.0763 17.868 93.1432 19.4265 88.4247C20.8834 83.7611 22.8291 79.2646 25.231 75.0101C27.4927 71.0674 29.7545 67.4345 32.0162 64.1113C34.2779 60.7882 36.2128 57.9407 37.8207 55.5688C39.4255 53.1969 40.2279 51.5353 40.2279 50.5841H15.2691C12.3441 50.5841 10.2263 50.2195 8.91557 49.4904C8.29029 49.1595 7.73637 48.7085 7.28548 48.1632C6.83459 47.618 6.49557 46.9892 6.28783 46.3128C5.79971 44.531 5.57833 42.6867 5.6309 40.8399C5.57904 38.9917 5.80041 37.1459 6.28783 35.3624C6.72892 33.9777 7.41871 33.0155 8.36657 32.518C9.89942 31.6418 12.0172 31.2022 14.7201 31.1991H54.1361H54.1314ZM54.1361 25.5666H14.7201C11.0178 25.5666 8.04279 26.2331 5.6309 27.5943C4.07303 28.4485 2.01776 30.1946 0.938513 33.6633C0.263853 35.9941 -0.052589 38.414 3.55258e-05 40.8399C-0.0539026 43.2629 0.262575 45.6799 0.938513 48.0072C1.79013 50.7496 3.67947 53.0504 6.20337 54.4188C8.41349 55.6439 11.304 56.2165 15.2878 56.2165H30.5944L27.3848 60.9384C25.0386 64.3789 22.6924 68.1667 20.3462 72.2033C17.7502 76.8006 15.6458 81.6588 14.0678 86.6974C12.3321 91.9732 11.4282 97.487 11.3885 103.041C11.3617 104.531 11.4354 106.02 11.609 107.5C11.8845 109.223 12.5436 110.863 13.5376 112.297C14.5136 113.766 16.4187 115.672 19.9333 116.432C22.1475 116.853 24.3995 117.042 26.6528 116.995C28.9061 117.041 31.1581 116.853 33.3723 116.432C36.8306 115.686 38.7216 113.855 39.7023 112.456C40.6796 111.088 41.362 109.531 41.706 107.885C41.9562 106.357 42.0645 104.809 42.0298 103.262C42.0298 99.638 43.5548 92.8415 50.828 81.0227C53.5026 76.7562 56.182 72.4896 58.8473 68.2606C61.5909 63.9077 64.0094 59.3581 66.0829 54.6488C68.3165 49.5374 69.4004 45.2332 69.4004 41.5064C69.4004 37.8688 69.1048 35.4046 68.4385 33.5271C67.2326 29.8614 63.7461 25.5478 54.1314 25.5478L54.1361 25.5666Z" fill="url(#paint3_linear_9_761)"/>
<path d="M124.63 5.63245C131.374 5.63245 135.322 7.463 136.473 11.1241C137.049 12.6636 137.338 15.3609 137.341 19.216C137.345 23.0711 136.093 27.8603 133.588 33.5835C131.008 39.4602 127.992 45.1352 124.564 50.5606C121.051 56.1461 117.513 61.7786 113.95 67.458C105.479 81.2262 101.243 92.3002 101.243 100.68C101.281 102.25 101.185 103.82 100.957 105.374C100.7 106.521 100.208 107.603 99.5115 108.551C98.7372 109.664 97.4656 110.405 95.6872 110.79C93.2807 111.229 90.836 111.422 88.3905 111.368C85.9466 111.422 83.5034 111.229 81.0985 110.79C79.3154 110.405 78.0407 109.636 77.2742 108.481C76.5788 107.513 76.109 106.402 75.8994 105.228C75.7268 103.621 75.6547 102.005 75.6835 100.389C75.7386 93.8345 76.8168 87.3289 78.879 81.1072C80.8027 74.9567 83.3679 69.0256 86.5323 63.412C89.5167 58.2113 92.501 53.4206 95.4854 49.0398C98.4698 44.659 101.022 40.9041 103.143 37.7749C105.255 34.6458 106.312 32.4554 106.315 31.2037H73.3936C69.5427 31.2037 66.7508 30.7234 65.0177 29.7628C63.3531 28.8794 62.1062 27.3723 61.55 25.5713C60.9744 23.7439 60.6866 21.3376 60.6866 18.3524C60.6866 15.3672 60.9744 12.9593 61.55 11.1288C62.1319 9.30293 63.0422 8.04502 64.2951 7.37382C66.3191 6.21917 69.111 5.64027 72.671 5.63714L124.63 5.63245Z" fill="url(#paint4_linear_9_761)"/>
<path d="M124.63 5.63245C131.374 5.63245 135.322 7.463 136.473 11.1241C137.049 12.6668 137.338 15.3641 137.342 19.216C137.345 23.068 136.093 27.8571 133.588 33.5835C131.009 39.4592 127.993 45.1327 124.564 50.5559C121.051 56.1477 117.513 61.7801 113.95 67.4533C105.479 81.2215 101.243 92.2955 101.243 100.675C101.283 102.245 101.185 103.816 100.952 105.369C100.699 106.517 100.208 107.6 99.5115 108.547C98.7388 109.654 97.4641 110.401 95.6872 110.786C93.281 111.226 90.8361 111.42 88.3905 111.363C85.9465 111.42 83.5032 111.226 81.0986 110.786C79.3155 110.401 78.0407 109.631 77.2743 108.476C76.5788 107.508 76.1091 106.397 75.8994 105.223C75.7268 103.616 75.6547 102 75.6836 100.384C75.7392 93.8314 76.8173 87.3274 78.8791 81.1072C80.8027 74.9567 83.3679 69.0256 86.5324 63.4119C89.5167 58.2113 92.5011 53.4206 95.4854 49.0398C98.4698 44.659 101.022 40.9041 103.143 37.7749C105.255 34.6458 106.312 32.4554 106.315 31.2037H73.3937C69.5428 31.2037 66.7508 30.7234 65.0177 29.7628C63.3531 28.8794 62.1062 27.3723 61.5501 25.5713C60.9745 23.7439 60.6867 21.3376 60.6867 18.3524C60.6867 15.3672 60.9745 12.9593 61.5501 11.1288C62.1319 9.30293 63.0423 8.04502 64.2951 7.37382C66.3191 6.21917 69.1111 5.64027 72.671 5.63715H124.63V5.63245ZM124.63 0.00469829H72.6476C68.0772 0.00469829 64.4406 0.807332 61.536 2.45013C59.7717 3.41703 57.4348 5.40716 56.1585 9.42497C55.3984 11.8469 55.0323 14.7617 55.0323 18.343C55.0323 21.9243 55.3984 24.8532 56.1585 27.261C57.1479 30.435 59.3366 33.0974 62.2586 34.6818C64.9051 36.1509 68.4338 36.8315 73.3702 36.8315H96.9541C95.1648 39.4694 93.1173 42.4812 90.8118 45.8669C87.7477 50.3635 84.6601 55.3247 81.6288 60.6098C78.2679 66.5658 75.5423 72.8586 73.4969 79.3846C71.2646 86.1646 70.101 93.2509 70.048 100.389C70.0146 102.27 70.1055 104.152 70.3202 106.021C70.647 108.028 71.4199 109.935 72.5819 111.602C73.6893 113.264 75.8666 115.423 79.9067 116.296C82.701 116.824 85.5427 117.06 88.3858 117C91.2305 117.06 94.0738 116.824 96.8697 116.296C100.075 115.601 102.501 114.081 104.124 111.776C105.27 110.18 106.069 108.362 106.47 106.439C106.775 104.535 106.906 102.608 106.86 100.68C106.86 93.3953 110.853 83.2147 118.732 70.4103C122.27 64.7778 125.798 59.161 129.318 53.5599C132.891 47.8937 136.039 41.9695 138.735 35.8364C141.579 29.331 142.958 23.891 142.958 19.216C142.958 14.6772 142.588 11.5183 141.785 9.29353C140.378 5.02226 136.262 0 124.616 0L124.63 0.00469829Z" fill="url(#paint5_linear_9_761)"/>
<circle cx="117" cy="26" r="11.5" fill="#C4C4C4" fill-opacity="0.43" stroke="black"/>
<path d="M115.799 21.4629V30H113.965V23.5488L111.984 24.1523V22.7344L115.617 21.4629H115.799Z" fill="black"/>
</g>
<defs>
<linearGradient id="paint0_linear_9_761" x1="163.3" y1="111.368" x2="163.3" y2="31.1991" gradientUnits="userSpaceOnUse">
<stop stop-color="#900093"/>
<stop offset="0.11" stop-color="#A108A4"/>
<stop offset="0.31" stop-color="#CE1CD2"/>
<stop offset="0.5" stop-color="#FB31FF"/>
<stop offset="0.57" stop-color="#DF28E2"/>
<stop offset="0.71" stop-color="#AC17AF"/>
<stop offset="0.84" stop-color="#880A8A"/>
<stop offset="0.94" stop-color="#710373"/>
<stop offset="1" stop-color="#69006B"/>
</linearGradient>
<linearGradient id="paint1_linear_9_761" x1="-24889.7" y1="67144.4" x2="-24889.7" y2="53450.4" gradientUnits="userSpaceOnUse">
<stop stop-color="#900093"/>
<stop offset="0.11" stop-color="#A108A4"/>
<stop offset="0.31" stop-color="#CE1CD2"/>
<stop offset="0.5" stop-color="#FB31FF"/>
<stop offset="0.57" stop-color="#DF28E2"/>
<stop offset="0.71" stop-color="#AC17AF"/>
<stop offset="0.84" stop-color="#880A8A"/>
<stop offset="0.94" stop-color="#710373"/>
<stop offset="1" stop-color="#69006B"/>
</linearGradient>
<linearGradient id="paint2_linear_9_761" x1="163.3" y1="117" x2="163.3" y2="25.5666" gradientUnits="userSpaceOnUse">
<stop stop-color="#BE6D00"/>
<stop offset="0.03" stop-color="#C67D0F"/>
<stop offset="0.12" stop-color="#DAA837"/>
<stop offset="0.21" stop-color="#EAC956"/>
<stop offset="0.29" stop-color="#F6E16D"/>
<stop offset="0.37" stop-color="#FDF07A"/>
<stop offset="0.43" stop-color="#FFF57F"/>
<stop offset="0.57" stop-color="#E8C653"/>
<stop offset="0.7" stop-color="#D69F2F"/>
<stop offset="0.82" stop-color="#C98415"/>
<stop offset="0.92" stop-color="#C17306"/>
<stop offset="1" stop-color="#BE6D00"/>
</linearGradient>
<linearGradient id="paint3_linear_9_761" x1="-29716.3" y1="77677.6" x2="-29716.3" y2="59862.3" gradientUnits="userSpaceOnUse">
<stop stop-color="#BE6D00"/>
<stop offset="0.03" stop-color="#C67D0F"/>
<stop offset="0.12" stop-color="#DAA837"/>
<stop offset="0.21" stop-color="#EAC956"/>
<stop offset="0.29" stop-color="#F6E16D"/>
<stop offset="0.37" stop-color="#FDF07A"/>
<stop offset="0.43" stop-color="#FFF57F"/>
<stop offset="0.57" stop-color="#E8C653"/>
<stop offset="0.7" stop-color="#D69F2F"/>
<stop offset="0.82" stop-color="#C98415"/>
<stop offset="0.92" stop-color="#C17306"/>
<stop offset="1" stop-color="#BE6D00"/>
</linearGradient>
<linearGradient id="paint4_linear_9_761" x1="-22255.1" y1="88521.9" x2="-22255.1" y2="64700.9" gradientUnits="userSpaceOnUse">
<stop stop-color="#900093"/>
<stop offset="0.11" stop-color="#A108A4"/>
<stop offset="0.31" stop-color="#CE1CD2"/>
<stop offset="0.5" stop-color="#FB31FF"/>
<stop offset="0.57" stop-color="#DF28E2"/>
<stop offset="0.71" stop-color="#AC17AF"/>
<stop offset="0.84" stop-color="#880A8A"/>
<stop offset="0.94" stop-color="#710373"/>
<stop offset="1" stop-color="#69006B"/>
</linearGradient>
<linearGradient id="paint5_linear_9_761" x1="-25542" y1="99350.2" x2="-25542" y2="70183.3" gradientUnits="userSpaceOnUse">
<stop stop-color="#BE6D00"/>
<stop offset="0.03" stop-color="#C67D0F"/>
<stop offset="0.12" stop-color="#DAA837"/>
<stop offset="0.21" stop-color="#EAC956"/>
<stop offset="0.29" stop-color="#F6E16D"/>
<stop offset="0.37" stop-color="#FDF07A"/>
<stop offset="0.43" stop-color="#FFF57F"/>
<stop offset="0.57" stop-color="#E8C653"/>
<stop offset="0.7" stop-color="#D69F2F"/>
<stop offset="0.82" stop-color="#C98415"/>
<stop offset="0.92" stop-color="#C17306"/>
<stop offset="1" stop-color="#BE6D00"/>
</linearGradient>
<clipPath id="clip0_9_761">
<rect width="198" height="117" fill="white"/>
</clipPath>
</defs>
</svg>
