<svg width="247" height="216" viewBox="0 0 247 216" fill="none" xmlns="http://www.w3.org/2000/svg">
<g style="mix-blend-mode:luminosity" clip-path="url(#clip0_9_1021)">
<path d="M32.04 191.71C48.84 191.71 65.63 191.15 82.42 190.71C98.03 190.25 114.2 188.76 129.77 190.26C147.36 191.96 165.37 194.26 182.65 198.31C188.86 199.76 195.01 201.5 201.17 203.18C228.74 182.46 246.34 151 246.34 115.77C246.34 53.39 191.19 2.83 123.17 2.83C55.15 2.83 0 53.35 0 115.73C0 144.99 12.14 171.65 32.04 191.71Z" fill="url(#paint0_linear_9_1021)"/>
<g style="mix-blend-mode:screen">
<g style="mix-blend-mode:screen">
<path d="M88.55 34.69C88.55 34.89 88.32 35.05 88.04 35.05C87.76 35.05 87.53 34.89 87.53 34.69C87.53 34.49 87.76 34.32 88.04 34.32C88.32 34.32 88.55 34.48 88.55 34.69Z" fill="#F9F9F9"/>
</g>
<g style="mix-blend-mode:screen">
<path d="M169.22 45.1C169.579 45.1 169.87 44.8896 169.87 44.63C169.87 44.3704 169.579 44.16 169.22 44.16C168.861 44.16 168.57 44.3704 168.57 44.63C168.57 44.8896 168.861 45.1 169.22 45.1Z" fill="#F9F9F9"/>
</g>
<g style="mix-blend-mode:screen">
<path d="M88.8101 89.91C88.8101 90.25 88.4201 90.53 87.9501 90.53C87.4801 90.53 87.0801 90.25 87.0801 89.91C87.0801 89.57 87.4701 89.28 87.9501 89.28C88.4301 89.28 88.8101 89.56 88.8101 89.91Z" fill="#F9F9F9"/>
</g>
<g style="mix-blend-mode:screen">
<path d="M208.78 71.41C208.78 71.71 208.44 71.96 208.01 71.96C207.58 71.96 207.25 71.71 207.25 71.41C207.25 71.11 207.59 70.85 208.01 70.85C208.43 70.85 208.78 71.05 208.78 71.41Z" fill="#F9F9F9"/>
</g>
<g style="mix-blend-mode:screen">
<path d="M92.71 67.15C92.71 67.56 92.25 67.89 91.71 67.89C91.17 67.89 90.71 67.56 90.71 67.15C90.71 66.74 91.17 66.41 91.71 66.41C92.25 66.41 92.71 66.74 92.71 67.15Z" fill="#F9F9F9"/>
</g>
<g style="mix-blend-mode:screen">
<path d="M57.0201 77.65C57.0201 78.13 56.4801 78.53 55.8101 78.53C55.1401 78.53 54.6001 78.13 54.6001 77.65C54.6001 77.17 55.1501 76.77 55.8101 76.77C56.4701 76.77 57.0201 77.17 57.0201 77.65Z" fill="#F9F9F9"/>
</g>
<g style="mix-blend-mode:screen">
<path d="M194.15 71.11C194.15 71.24 194.01 71.34 193.84 71.34C193.67 71.34 193.52 71.24 193.52 71.11C193.52 70.98 193.66 70.88 193.84 70.88C194.02 70.88 194.15 70.99 194.15 71.11Z" fill="#F9F9F9"/>
</g>
<g style="mix-blend-mode:screen">
<path d="M111.23 76.04C111.23 76.46 110.76 76.8 110.18 76.8C109.6 76.8 109.12 76.46 109.12 76.04C109.12 75.62 109.6 75.28 110.18 75.28C110.76 75.28 111.23 75.62 111.23 76.04Z" fill="#F9F9F9"/>
</g>
<g style="mix-blend-mode:screen">
<path d="M43.9101 57.77C43.9101 58.13 43.5001 58.42 43.0001 58.42C42.5001 58.42 42.0901 58.13 42.0901 57.77C42.0901 57.41 42.5001 57.11 43.0001 57.11C43.5001 57.11 43.9101 57.41 43.9101 57.77Z" fill="#F9F9F9"/>
</g>
<g style="mix-blend-mode:screen">
<path d="M114.69 95.09C114.69 95.56 114.16 95.94 113.51 95.94C112.86 95.94 112.33 95.56 112.33 95.09C112.33 94.62 112.85 94.23 113.51 94.23C114.17 94.23 114.69 94.61 114.69 95.09Z" fill="#F9F9F9"/>
</g>
<g style="mix-blend-mode:screen">
<path d="M174.15 96.24C174.15 96.69 173.65 97.05 173.03 97.05C172.41 97.05 171.9 96.69 171.9 96.24C171.9 95.79 172.41 95.43 173.03 95.43C173.65 95.43 174.15 95.79 174.15 96.24Z" fill="#F9F9F9"/>
</g>
<g style="mix-blend-mode:screen">
<path d="M136 18.97C136 19.15 135.8 19.3 135.55 19.3C135.3 19.3 135.1 19.15 135.1 18.97C135.1 18.79 135.3 18.65 135.55 18.65C135.8 18.65 136 18.79 136 18.97Z" fill="#F9F9F9"/>
</g>
<g style="mix-blend-mode:screen">
<path d="M21.5 62.46C21.5 62.78 21.14 63.04 20.7 63.04C20.26 63.04 19.9 62.78 19.9 62.46C19.9 62.14 20.26 61.88 20.7 61.88C21.14 61.88 21.5 62.14 21.5 62.46Z" fill="#F9F9F9"/>
</g>
<g style="mix-blend-mode:screen">
<path d="M128.32 104.54C128.32 104.75 128.08 104.93 127.78 104.93C127.48 104.93 127.25 104.75 127.25 104.54C127.25 104.33 127.49 104.15 127.78 104.15C128.07 104.15 128.32 104.32 128.32 104.54Z" fill="#F9F9F9"/>
</g>
<g style="mix-blend-mode:screen">
<path d="M71.91 137.41C71.91 137.65 71.64 137.84 71.31 137.84C70.98 137.84 70.72 137.65 70.72 137.41C70.72 137.17 70.98 136.98 71.31 136.98C71.64 136.98 71.91 137.19 71.91 137.41Z" fill="#F9F9F9"/>
</g>
<g style="mix-blend-mode:screen">
<path d="M119.11 105.85C119.11 106.36 118.54 106.77 117.83 106.77C117.12 106.77 116.56 106.36 116.56 105.85C116.56 105.34 117.13 104.92 117.83 104.92C118.53 104.92 119.11 105.34 119.11 105.85Z" fill="#F9F9F9"/>
</g>
<g style="mix-blend-mode:screen">
<path d="M80.78 180.81C80.78 181.16 80.39 181.45 79.9 181.45C79.41 181.45 79.02 181.16 79.02 180.81C79.02 180.46 79.41 180.17 79.9 180.17C80.39 180.17 80.78 180.46 80.78 180.81Z" fill="#F9F9F9"/>
</g>
<g style="mix-blend-mode:screen">
<path d="M146.91 129.92C146.91 130.22 146.58 130.46 146.17 130.46C145.76 130.46 145.43 130.22 145.43 129.92C145.43 129.62 145.76 129.39 146.17 129.39C146.58 129.39 146.91 129.63 146.91 129.92Z" fill="#F9F9F9"/>
</g>
<g style="mix-blend-mode:screen">
<path d="M188.08 61.16C188.632 61.16 189.08 60.8377 189.08 60.44C189.08 60.0424 188.632 59.72 188.08 59.72C187.528 59.72 187.08 60.0424 187.08 60.44C187.08 60.8377 187.528 61.16 188.08 61.16Z" fill="#F9F9F9"/>
</g>
<g style="mix-blend-mode:screen">
<path d="M107.84 26.1C107.84 26.43 107.48 26.7 107.02 26.7C106.56 26.7 106.2 26.43 106.2 26.1C106.2 25.77 106.57 25.51 107.02 25.51C107.47 25.51 107.84 25.77 107.84 26.1Z" fill="#F9F9F9"/>
</g>
<g style="mix-blend-mode:screen">
<path d="M137.35 117.57C137.35 117.91 136.97 118.18 136.5 118.18C136.03 118.18 135.66 117.91 135.66 117.57C135.66 117.23 136.04 116.96 136.5 116.96C136.96 116.96 137.35 117.24 137.35 117.57Z" fill="#F9F9F9"/>
</g>
<g style="mix-blend-mode:screen">
<path d="M131.12 173.07C131.12 173.37 130.79 173.6 130.39 173.6C129.99 173.6 129.65 173.37 129.65 173.07C129.65 172.77 129.98 172.54 130.39 172.54C130.8 172.54 131.12 172.78 131.12 173.07Z" fill="#F9F9F9"/>
</g>
<g style="mix-blend-mode:screen">
<path d="M134.35 32.89C134.35 33.05 134.17 33.18 133.96 33.18C133.75 33.18 133.56 33.05 133.56 32.89C133.56 32.73 133.74 32.61 133.96 32.61C134.18 32.61 134.35 32.74 134.35 32.89Z" fill="#F9F9F9"/>
</g>
<g style="mix-blend-mode:screen">
<path d="M153.55 101.2C153.55 101.4 153.33 101.56 153.05 101.56C152.77 101.56 152.55 101.4 152.55 101.2C152.55 101 152.78 100.84 153.05 100.84C153.32 100.84 153.55 101 153.55 101.2Z" fill="#F9F9F9"/>
</g>
<g style="mix-blend-mode:screen">
<path d="M194 113.86C194 114.12 193.71 114.34 193.35 114.34C192.99 114.34 192.69 114.12 192.69 113.86C192.69 113.6 192.98 113.38 193.35 113.38C193.72 113.38 194 113.6 194 113.86Z" fill="#F9F9F9"/>
</g>
<g style="mix-blend-mode:screen">
<path d="M92.7501 146.73C92.7501 147.16 92.2701 147.51 91.6701 147.51C91.0701 147.51 90.5901 147.16 90.5901 146.73C90.5901 146.3 91.0701 145.95 91.6701 145.95C92.2701 145.95 92.7501 146.3 92.7501 146.73Z" fill="#F9F9F9"/>
</g>
<g style="mix-blend-mode:screen">
<path d="M29.2301 145.69C29.8487 145.69 30.3501 145.327 30.3501 144.88C30.3501 144.433 29.8487 144.07 29.2301 144.07C28.6115 144.07 28.1101 144.433 28.1101 144.88C28.1101 145.327 28.6115 145.69 29.2301 145.69Z" fill="#F9F9F9"/>
</g>
<g style="mix-blend-mode:screen">
<path d="M22.0701 103.53C22.0701 103.83 21.7301 104.08 21.3201 104.08C20.9101 104.08 20.5601 103.83 20.5601 103.53C20.5601 103.23 20.9001 102.98 21.3201 102.98C21.7401 102.98 22.0701 103.22 22.0701 103.53Z" fill="#F9F9F9"/>
</g>
<g style="mix-blend-mode:screen">
<path d="M65.58 116.66C65.58 116.92 65.28 117.14 64.92 117.14C64.56 117.14 64.25 116.92 64.25 116.66C64.25 116.4 64.55 116.17 64.92 116.17C65.29 116.17 65.58 116.41 65.58 116.66Z" fill="#F9F9F9"/>
</g>
<g style="mix-blend-mode:screen">
<path d="M148.62 32.12C148.62 32.47 148.22 32.76 147.73 32.76C147.24 32.76 146.84 32.47 146.84 32.12C146.84 31.77 147.24 31.47 147.73 31.47C148.22 31.47 148.62 31.76 148.62 32.12Z" fill="#F9F9F9"/>
</g>
<g style="mix-blend-mode:screen">
<path d="M240.29 126.95C240.29 127.48 239.69 127.95 238.96 127.95C238.23 127.95 237.63 127.51 237.63 126.95C237.63 126.39 238.23 125.95 238.96 125.95C239.69 125.95 240.29 126.41 240.29 126.95Z" fill="#F9F9F9"/>
</g>
<g style="mix-blend-mode:screen">
<path d="M123.12 111.6C123.12 111.97 122.71 112.27 122.19 112.27C121.67 112.27 121.26 111.97 121.26 111.6C121.26 111.23 121.68 110.92 122.19 110.92C122.7 110.92 123.12 111.22 123.12 111.6Z" fill="#F9F9F9"/>
</g>
<g style="mix-blend-mode:screen">
<path d="M125.28 38.05C125.28 38.28 125.02 38.47 124.7 38.47C124.38 38.47 124.13 38.28 124.13 38.05C124.13 37.82 124.39 37.63 124.7 37.63C125.01 37.63 125.28 37.82 125.28 38.05Z" fill="#F9F9F9"/>
</g>
<g style="mix-blend-mode:screen">
<path d="M79.1901 28.84C79.1901 29.16 78.8301 29.43 78.3801 29.43C77.9301 29.43 77.5701 29.16 77.5701 28.84C77.5701 28.52 77.9401 28.25 78.3801 28.25C78.8201 28.25 79.1901 28.52 79.1901 28.84Z" fill="#F9F9F9"/>
</g>
<g style="mix-blend-mode:screen">
<path d="M71.64 208.41C71.64 208.94 71.04 209.41 70.3 209.41C69.56 209.41 68.96 208.97 68.96 208.41C68.96 207.85 69.56 207.41 70.3 207.41C71.04 207.41 71.64 207.82 71.64 208.41Z" fill="#F9F9F9"/>
</g>
<g style="mix-blend-mode:screen">
<path d="M147.44 188.73C147.44 189.21 146.9 189.6 146.24 189.6C145.58 189.6 145.03 189.21 145.03 188.73C145.03 188.25 145.57 187.86 146.24 187.86C146.91 187.86 147.44 188.25 147.44 188.73Z" fill="#F9F9F9"/>
</g>
<g style="mix-blend-mode:screen">
<path d="M118.33 141.9C118.33 142.24 117.96 142.51 117.5 142.51C117.04 142.51 116.67 142.24 116.67 141.9C116.67 141.56 117.04 141.3 117.5 141.3C117.96 141.3 118.33 141.57 118.33 141.9Z" fill="#F9F9F9"/>
</g>
<g style="mix-blend-mode:screen">
<path d="M126.17 136.6C126.17 136.95 125.79 137.23 125.31 137.23C124.83 137.23 124.44 136.95 124.44 136.6C124.44 136.25 124.83 135.98 125.31 135.98C125.79 135.98 126.17 136.26 126.17 136.6Z" fill="#F9F9F9"/>
</g>
<g style="mix-blend-mode:screen">
<path d="M164.26 25.79C164.26 26 164.03 26.17 163.74 26.17C163.45 26.17 163.21 26 163.21 25.79C163.21 25.58 163.45 25.41 163.74 25.41C164.03 25.41 164.26 25.58 164.26 25.79Z" fill="#F9F9F9"/>
</g>
<g style="mix-blend-mode:screen">
<path d="M141.98 22.14C141.98 22.61 141.45 23 140.8 23C140.15 23 139.63 22.61 139.63 22.14C139.63 21.67 140.15 21.29 140.8 21.29C141.45 21.29 141.98 21.67 141.98 22.14Z" fill="#F9F9F9"/>
</g>
<g style="mix-blend-mode:screen">
<path d="M89.84 77.87C89.84 78.19 89.48 78.45 89.04 78.45C88.6 78.45 88.24 78.19 88.24 77.87C88.24 77.55 88.6 77.29 89.04 77.29C89.48 77.29 89.84 77.55 89.84 77.87Z" fill="#F9F9F9"/>
</g>
<g style="mix-blend-mode:screen">
<path d="M181.49 91.82C181.49 92.35 180.89 92.82 180.16 92.82C179.43 92.82 178.83 92.39 178.83 91.82C178.83 91.25 179.42 90.82 180.16 90.82C180.9 90.82 181.49 91.29 181.49 91.82Z" fill="#F9F9F9"/>
</g>
<g style="mix-blend-mode:screen">
<path d="M140.15 151.48C140.15 152.1 139.45 152.61 138.6 152.61C137.75 152.61 137.05 152.1 137.05 151.48C137.05 150.86 137.74 150.36 138.6 150.36C139.46 150.36 140.15 150.87 140.15 151.48Z" fill="#F9F9F9"/>
</g>
<g style="mix-blend-mode:screen">
<path d="M133.64 45.67C133.64 45.97 133.31 46.21 132.9 46.21C132.49 46.21 132.17 45.97 132.17 45.67C132.17 45.37 132.5 45.14 132.9 45.14C133.3 45.14 133.64 45.41 133.64 45.67Z" fill="#F9F9F9"/>
</g>
<g style="mix-blend-mode:screen">
<path d="M123.25 33.93C123.714 33.93 124.09 33.6569 124.09 33.32C124.09 32.9831 123.714 32.71 123.25 32.71C122.786 32.71 122.41 32.9831 122.41 33.32C122.41 33.6569 122.786 33.93 123.25 33.93Z" fill="#F9F9F9"/>
</g>
<g style="mix-blend-mode:screen">
<path d="M105.08 57.66C105.08 57.99 104.7 58.26 104.25 58.26C103.8 58.26 103.41 57.99 103.41 57.66C103.41 57.33 103.79 57.05 104.25 57.05C104.71 57.05 105.08 57.32 105.08 57.66Z" fill="#F9F9F9"/>
</g>
<g style="mix-blend-mode:screen">
<path d="M112.05 52.99C112.53 52.99 112.92 52.708 112.92 52.36C112.92 52.0121 112.53 51.73 112.05 51.73C111.569 51.73 111.18 52.0121 111.18 52.36C111.18 52.708 111.569 52.99 112.05 52.99Z" fill="#F9F9F9"/>
</g>
<g style="mix-blend-mode:screen">
<path d="M126.91 67.24C126.91 67.86 126.22 68.36 125.36 68.36C124.5 68.36 123.81 67.86 123.81 67.24C123.81 66.62 124.5 66.11 125.36 66.11C126.22 66.11 126.91 66.62 126.91 67.24Z" fill="#F9F9F9"/>
</g>
<g style="mix-blend-mode:screen">
<path d="M129.8 22.17C129.8 22.47 129.47 22.71 129.06 22.71C128.65 22.71 128.33 22.47 128.33 22.17C128.33 21.87 128.66 21.64 129.06 21.64C129.46 21.64 129.8 21.88 129.8 22.17Z" fill="#F9F9F9"/>
</g>
<g style="mix-blend-mode:screen">
<path d="M119.41 10.43C119.874 10.43 120.25 10.1569 120.25 9.82001C120.25 9.48311 119.874 9.21001 119.41 9.21001C118.946 9.21001 118.57 9.48311 118.57 9.82001C118.57 10.1569 118.946 10.43 119.41 10.43Z" fill="#F9F9F9"/>
</g>
<g style="mix-blend-mode:screen">
<path d="M100.41 34.76C100.868 34.76 101.24 34.4914 101.24 34.16C101.24 33.8286 100.868 33.56 100.41 33.56C99.9517 33.56 99.5801 33.8286 99.5801 34.16C99.5801 34.4914 99.9517 34.76 100.41 34.76Z" fill="#F9F9F9"/>
</g>
<g style="mix-blend-mode:screen">
<path d="M109.08 28.86C109.08 29.2 108.69 29.48 108.21 29.48C107.73 29.48 107.35 29.2 107.35 28.86C107.35 28.52 107.73 28.23 108.21 28.23C108.69 28.23 109.08 28.51 109.08 28.86Z" fill="#F9F9F9"/>
</g>
<g style="mix-blend-mode:screen">
<path d="M120.66 54.78C120.66 55.4 119.96 55.9 119.11 55.9C118.26 55.9 117.56 55.4 117.56 54.78C117.56 54.16 118.25 53.66 119.11 53.66C119.97 53.66 120.66 54.16 120.66 54.78Z" fill="#F9F9F9"/>
</g>
<g style="mix-blend-mode:screen">
<path d="M78.2 23.41C78.2 23.71 77.87 23.94 77.46 23.94C77.05 23.94 76.73 23.71 76.73 23.41C76.73 23.11 77.06 22.88 77.46 22.88C77.86 22.88 78.2 23.1 78.2 23.41Z" fill="#F9F9F9"/>
</g>
<g style="mix-blend-mode:screen">
<path d="M48.8 35.97C49.2584 35.97 49.63 35.7014 49.63 35.37C49.63 35.0386 49.2584 34.77 48.8 34.77C48.3416 34.77 47.97 35.0386 47.97 35.37C47.97 35.7014 48.3416 35.97 48.8 35.97Z" fill="#F9F9F9"/>
</g>
<g style="mix-blend-mode:screen">
<path d="M57.48 30.07C57.48 30.42 57.09 30.7 56.61 30.7C56.13 30.7 55.75 30.42 55.75 30.07C55.75 29.72 56.13 29.45 56.61 29.45C57.09 29.45 57.48 29.73 57.48 30.07Z" fill="#F9F9F9"/>
</g>
<g style="mix-blend-mode:screen">
<path d="M66.83 39.73C66.83 40.35 66.14 40.86 65.28 40.86C64.42 40.86 63.73 40.35 63.73 39.73C63.73 39.11 64.42 38.61 65.28 38.61C66.14 38.61 66.83 39.11 66.83 39.73Z" fill="#F9F9F9"/>
</g>
<g style="mix-blend-mode:screen">
<path d="M101.06 180.06C101.06 180.34 100.76 180.56 100.38 180.56C99.9999 180.56 99.7 180.34 99.7 180.06C99.7 179.78 99.9999 179.57 100.38 179.57C100.76 179.57 101.06 179.79 101.06 180.06Z" fill="#F9F9F9"/>
</g>
<g style="mix-blend-mode:screen">
<path d="M219.81 85.18C219.81 85.44 219.52 85.65 219.16 85.65C218.8 85.65 218.52 85.44 218.52 85.18C218.52 84.92 218.81 84.72 219.16 84.72C219.51 84.72 219.81 84.92 219.81 85.18Z" fill="#F9F9F9"/>
</g>
<g style="mix-blend-mode:screen">
<path d="M156.2 83.77C156.2 84.08 155.86 84.34 155.43 84.34C155 84.34 154.65 84.08 154.65 83.77C154.65 83.46 155 83.21 155.43 83.21C155.86 83.21 156.2 83.46 156.2 83.77Z" fill="#F9F9F9"/>
</g>
<g style="mix-blend-mode:screen">
<path d="M133.85 54.32C133.85 54.58 133.57 54.78 133.22 54.78C132.87 54.78 132.59 54.58 132.59 54.32C132.59 54.06 132.87 53.87 133.22 53.87C133.57 53.87 133.85 54.07 133.85 54.32Z" fill="#F9F9F9"/>
</g>
<g style="mix-blend-mode:screen">
<path d="M122.65 87.94C122.65 88.13 122.44 88.27 122.19 88.27C121.94 88.27 121.74 88.13 121.74 87.94C121.74 87.75 121.94 87.62 122.19 87.62C122.44 87.62 122.65 87.76 122.65 87.94Z" fill="#F9F9F9"/>
</g>
<g style="mix-blend-mode:screen">
<path d="M184.44 26.27C184.44 26.69 183.96 27.04 183.38 27.04C182.8 27.04 182.32 26.69 182.32 26.27C182.32 25.85 182.8 25.51 183.38 25.51C183.96 25.51 184.44 25.85 184.44 26.27Z" fill="#F9F9F9"/>
</g>
<g style="mix-blend-mode:screen">
<path d="M187.91 45.32C187.91 45.79 187.38 46.18 186.73 46.18C186.08 46.18 185.55 45.79 185.55 45.32C185.55 44.85 186.07 44.46 186.73 44.46C187.39 44.46 187.91 44.85 187.91 45.32Z" fill="#F9F9F9"/>
</g>
<g style="mix-blend-mode:screen">
<path d="M192.31 56.08C192.31 56.59 191.74 57 191.03 57C190.32 57 189.76 56.59 189.76 56.08C189.76 55.57 190.33 55.15 191.03 55.15C191.73 55.15 192.31 55.57 192.31 56.08Z" fill="#F9F9F9"/>
</g>
<g style="mix-blend-mode:screen">
<path d="M195.85 38.18C195.85 38.36 195.64 38.51 195.39 38.51C195.14 38.51 194.94 38.36 194.94 38.18C194.94 38 195.14 37.85 195.39 37.85C195.64 37.85 195.85 38 195.85 38.18Z" fill="#F9F9F9"/>
</g>
<g style="mix-blend-mode:screen">
<path d="M5.53003 104.27C5.53003 104.69 5.06004 105.03 4.48004 105.03C3.90004 105.03 3.42004 104.69 3.42004 104.27C3.42004 103.85 3.89004 103.5 4.48004 103.5C5.07004 103.5 5.53003 103.85 5.53003 104.27Z" fill="#F9F9F9"/>
</g>
<g style="mix-blend-mode:screen">
<path d="M8.98999 123.32C8.98999 123.79 8.46002 124.17 7.80002 124.17C7.14002 124.17 6.62 123.79 6.62 123.32C6.62 122.85 7.15002 122.46 7.80002 122.46C8.45002 122.46 8.98999 122.84 8.98999 123.32Z" fill="#F9F9F9"/>
</g>
<g style="mix-blend-mode:screen">
<path d="M13.4101 134.07C13.4101 134.59 12.8301 135 12.1301 135C11.4301 135 10.8501 134.59 10.8501 134.07C10.8501 133.55 11.4201 133.15 12.1301 133.15C12.8401 133.15 13.4101 133.56 13.4101 134.07Z" fill="#F9F9F9"/>
</g>
<g style="mix-blend-mode:screen">
<path d="M16.91 116.17C16.91 116.36 16.71 116.5 16.46 116.5C16.21 116.5 16 116.36 16 116.17C16 115.98 16.21 115.84 16.46 115.84C16.71 115.84 16.91 115.99 16.91 116.17Z" fill="#F9F9F9"/>
</g>
<g style="mix-blend-mode:screen">
<path d="M68.4701 150.41C68.9561 150.41 69.3501 150.123 69.3501 149.77C69.3501 149.417 68.9561 149.13 68.4701 149.13C67.9841 149.13 67.5901 149.417 67.5901 149.77C67.5901 150.123 67.9841 150.41 68.4701 150.41Z" fill="#F9F9F9"/>
</g>
<g style="mix-blend-mode:screen">
<path d="M232.91 154.63C232.91 154.87 232.64 155.06 232.32 155.06C232 155.06 231.72 154.87 231.72 154.63C231.72 154.39 231.99 154.2 232.32 154.2C232.65 154.2 232.91 154.41 232.91 154.63Z" fill="#F9F9F9"/>
</g>
<g style="mix-blend-mode:screen">
<path d="M52.97 142.92C52.97 143.42 52.41 143.83 51.72 143.83C51.03 143.83 50.47 143.42 50.47 142.92C50.47 142.42 51.03 142.02 51.72 142.02C52.41 142.02 52.97 142.41 52.97 142.92Z" fill="#F9F9F9"/>
</g>
<g style="mix-blend-mode:screen">
<path d="M78.7201 119.25C79.2226 119.25 79.6301 118.955 79.6301 118.59C79.6301 118.225 79.2226 117.93 78.7201 117.93C78.2175 117.93 77.8101 118.225 77.8101 118.59C77.8101 118.955 78.2175 119.25 78.7201 119.25Z" fill="#F9F9F9"/>
</g>
<g style="mix-blend-mode:screen">
<path d="M67.6201 180.09C67.6201 180.65 66.9901 181.09 66.2201 181.09C65.4501 181.09 64.8201 180.64 64.8201 180.09C64.8201 179.54 65.4501 179.09 66.2201 179.09C66.9901 179.09 67.6201 179.53 67.6201 180.09Z" fill="#F9F9F9"/>
</g>
<g style="mix-blend-mode:screen">
<path d="M53.5901 72.29C54.1424 72.29 54.5901 71.9632 54.5901 71.56C54.5901 71.1568 54.1424 70.83 53.5901 70.83C53.0378 70.83 52.5901 71.1568 52.5901 71.56C52.5901 71.9632 53.0378 72.29 53.5901 72.29Z" fill="#F9F9F9"/>
</g>
<g style="mix-blend-mode:screen">
<path d="M175.85 159.67C176.126 159.67 176.35 159.509 176.35 159.31C176.35 159.111 176.126 158.95 175.85 158.95C175.574 158.95 175.35 159.111 175.35 159.31C175.35 159.509 175.574 159.67 175.85 159.67Z" fill="#F9F9F9"/>
</g>
<g style="mix-blend-mode:screen">
<path d="M63.0901 185.2C63.0901 185.49 62.7601 185.73 62.3501 185.73C61.9401 185.73 61.6101 185.49 61.6101 185.2C61.6101 184.91 61.9401 184.66 62.3501 184.66C62.7601 184.66 63.0901 184.9 63.0901 185.2Z" fill="#F9F9F9"/>
</g>
<g style="mix-blend-mode:screen">
<path d="M49.02 104.6C49.02 104.9 48.68 105.15 48.26 105.15C47.84 105.15 47.49 104.9 47.49 104.6C47.49 104.3 47.83 104.04 48.26 104.04C48.69 104.04 49.02 104.29 49.02 104.6Z" fill="#F9F9F9"/>
</g>
<g style="mix-blend-mode:screen">
<path d="M58.3101 45.77C58.3101 45.92 58.1501 46.04 57.9401 46.04C57.7301 46.04 57.5701 45.92 57.5701 45.77C57.5701 45.62 57.7401 45.5 57.9401 45.5C58.1401 45.5 58.3101 45.62 58.3101 45.77Z" fill="#F9F9F9"/>
</g>
<g style="mix-blend-mode:screen">
<path d="M157.03 70.46C157.03 70.95 156.49 71.34 155.81 71.34C155.13 71.34 154.59 70.95 154.59 70.46C154.59 69.97 155.14 69.57 155.81 69.57C156.48 69.57 157.03 69.97 157.03 70.46Z" fill="#F9F9F9"/>
</g>
<g style="mix-blend-mode:screen">
<path d="M171.55 153.64C171.55 154.09 171.05 154.46 170.43 154.46C169.81 154.46 169.3 154.09 169.3 153.64C169.3 153.19 169.81 152.83 170.43 152.83C171.05 152.83 171.55 153.19 171.55 153.64Z" fill="#F9F9F9"/>
</g>
<g style="mix-blend-mode:screen">
<path d="M150.91 158.6C150.91 158.8 150.68 158.96 150.41 158.96C150.14 158.96 149.91 158.8 149.91 158.6C149.91 158.4 150.13 158.24 150.41 158.24C150.69 158.24 150.91 158.41 150.91 158.6Z" fill="#F9F9F9"/>
</g>
<g style="mix-blend-mode:screen">
<path d="M178.91 149.23C178.91 149.76 178.31 150.23 177.58 150.23C176.85 150.23 176.25 149.8 176.25 149.23C176.25 148.66 176.84 148.23 177.58 148.23C178.32 148.23 178.91 148.69 178.91 149.23Z" fill="#F9F9F9"/>
</g>
<g style="mix-blend-mode:screen">
<path d="M153.6 141.18C153.6 141.49 153.26 141.74 152.83 141.74C152.4 141.74 152.05 141.49 152.05 141.18C152.05 140.87 152.4 140.62 152.83 140.62C153.26 140.62 153.6 140.87 153.6 141.18Z" fill="#F9F9F9"/>
</g>
<g style="mix-blend-mode:screen">
<path d="M154.43 127.86C154.43 128.35 153.89 128.75 153.21 128.75C152.53 128.75 151.99 128.35 151.99 127.86C151.99 127.37 152.54 126.98 153.21 126.98C153.88 126.98 154.43 127.41 154.43 127.86Z" fill="#F9F9F9"/>
</g>
<g style="mix-blend-mode:screen">
<path d="M140.14 192.35C140.14 192.65 139.81 192.89 139.41 192.89C139.01 192.89 138.67 192.65 138.67 192.35C138.67 192.05 139 191.82 139.41 191.82C139.82 191.82 140.14 192.06 140.14 192.35Z" fill="#F9F9F9"/>
</g>
<g style="mix-blend-mode:screen">
<path d="M133.39 213.91C133.39 214.53 132.7 215.04 131.84 215.04C130.98 215.04 130.3 214.53 130.3 213.91C130.3 213.29 130.99 212.79 131.84 212.79C132.69 212.79 133.39 213.3 133.39 213.91Z" fill="#F9F9F9"/>
</g>
<g style="mix-blend-mode:screen">
<path d="M153.6 214.27C153.876 214.27 154.1 214.109 154.1 213.91C154.1 213.711 153.876 213.55 153.6 213.55C153.324 213.55 153.1 213.711 153.1 213.91C153.1 214.109 153.324 214.27 153.6 214.27Z" fill="#F9F9F9"/>
</g>
<g style="mix-blend-mode:screen">
<path d="M146.85 203.61C146.85 203.92 146.5 204.17 146.07 204.17C145.64 204.17 145.3 203.92 145.3 203.61C145.3 203.3 145.65 203.04 146.07 203.04C146.49 203.04 146.85 203.3 146.85 203.61Z" fill="#F9F9F9"/>
</g>
<g style="mix-blend-mode:screen">
<path d="M147.68 190.29C147.68 190.78 147.14 191.18 146.46 191.18C145.78 191.18 145.24 190.78 145.24 190.29C145.24 189.8 145.79 189.41 146.46 189.41C147.13 189.41 147.68 189.8 147.68 190.29Z" fill="#F9F9F9"/>
</g>
<g style="mix-blend-mode:screen">
<path d="M136.77 117.91C136.77 118.36 136.27 118.72 135.65 118.72C135.03 118.72 134.53 118.36 134.53 117.91C134.53 117.46 135.03 117.1 135.65 117.1C136.27 117.1 136.77 117.46 136.77 117.91Z" fill="#F9F9F9"/>
</g>
<g style="mix-blend-mode:screen">
<path d="M90.9101 126.21C90.9101 126.42 90.6701 126.6 90.3701 126.6C90.0701 126.6 89.8401 126.42 89.8401 126.21C89.8401 126 90.0801 125.82 90.3701 125.82C90.6601 125.82 90.9101 125.99 90.9101 126.21Z" fill="#F9F9F9"/>
</g>
<g style="mix-blend-mode:screen">
<path d="M109.52 151.59C109.52 151.89 109.19 152.13 108.78 152.13C108.37 152.13 108.04 151.89 108.04 151.59C108.04 151.29 108.37 151.06 108.78 151.06C109.19 151.06 109.52 151.3 109.52 151.59Z" fill="#F9F9F9"/>
</g>
<g style="mix-blend-mode:screen">
<path d="M99.12 139.85C99.584 139.85 99.96 139.577 99.96 139.24C99.96 138.903 99.584 138.63 99.12 138.63C98.6561 138.63 98.28 138.903 98.28 139.24C98.28 139.577 98.6561 139.85 99.12 139.85Z" fill="#F9F9F9"/>
</g>
<g style="mix-blend-mode:screen">
<path d="M93.74 194.74C93.74 195.04 93.42 195.27 93.01 195.27C92.6 195.27 92.27 195.04 92.27 194.74C92.27 194.44 92.6 194.21 93.01 194.21C93.42 194.21 93.74 194.41 93.74 194.74Z" fill="#F9F9F9"/>
</g>
<g style="mix-blend-mode:screen">
<path d="M116.17 122.87C116.17 123.07 115.95 123.23 115.67 123.23C115.39 123.23 115.17 123.07 115.17 122.87C115.17 122.67 115.4 122.51 115.67 122.51C115.94 122.51 116.17 122.67 116.17 122.87Z" fill="#F9F9F9"/>
</g>
<g style="mix-blend-mode:screen">
<path d="M156.62 135.53C156.62 135.79 156.33 136.01 155.97 136.01C155.61 136.01 155.31 135.79 155.31 135.53C155.31 135.27 155.6 135.05 155.97 135.05C156.34 135.05 156.62 135.27 156.62 135.53Z" fill="#F9F9F9"/>
</g>
<g style="mix-blend-mode:screen">
<path d="M85.7401 133.27C85.7401 133.64 85.3301 133.94 84.8101 133.94C84.2901 133.94 83.8801 133.64 83.8801 133.27C83.8801 132.9 84.3001 132.59 84.8101 132.59C85.3201 132.59 85.7401 132.89 85.7401 133.27Z" fill="#F9F9F9"/>
</g>
<g style="mix-blend-mode:screen">
<path d="M110.06 210.41C110.06 210.89 109.52 211.28 108.86 211.28C108.2 211.28 107.65 210.89 107.65 210.41C107.65 209.93 108.19 209.54 108.86 209.54C109.53 209.54 110.06 209.92 110.06 210.41Z" fill="#F9F9F9"/>
</g>
<g style="mix-blend-mode:screen">
<path d="M88.8001 158.27C88.8001 158.62 88.4101 158.9 87.9301 158.9C87.4501 158.9 87.0601 158.62 87.0601 158.27C87.0601 157.92 87.4501 157.65 87.9301 157.65C88.4101 157.65 88.8001 157.93 88.8001 158.27Z" fill="#F9F9F9"/>
</g>
<g style="mix-blend-mode:screen">
<path d="M142.78 114.45C143.514 114.45 144.11 114.02 144.11 113.49C144.11 112.96 143.514 112.53 142.78 112.53C142.045 112.53 141.45 112.96 141.45 113.49C141.45 114.02 142.045 114.45 142.78 114.45Z" fill="#F9F9F9"/>
</g>
<g style="mix-blend-mode:screen">
<path d="M102.77 173.15C102.77 173.77 102.07 174.28 101.22 174.28C100.37 174.28 99.6699 173.77 99.6699 173.15C99.6699 172.53 100.36 172.03 101.22 172.03C102.08 172.03 102.77 172.54 102.77 173.15Z" fill="#F9F9F9"/>
</g>
<g style="mix-blend-mode:screen">
<path d="M118.83 105.41C118.83 105.72 118.48 105.98 118.05 105.98C117.62 105.98 117.27 105.72 117.27 105.41C117.27 105.1 117.62 104.85 118.05 104.85C118.48 104.85 118.83 105.13 118.83 105.41Z" fill="#F9F9F9"/>
</g>
<g style="mix-blend-mode:screen">
<path d="M84.8101 109.94C85.0641 109.94 85.2701 109.792 85.2701 109.61C85.2701 109.428 85.0641 109.28 84.8101 109.28C84.556 109.28 84.3501 109.428 84.3501 109.61C84.3501 109.792 84.556 109.94 84.8101 109.94Z" fill="#F9F9F9"/>
</g>
<g style="mix-blend-mode:screen">
<path d="M138.47 181.34C138.746 181.34 138.97 181.179 138.97 180.98C138.97 180.781 138.746 180.62 138.47 180.62C138.194 180.62 137.97 180.781 137.97 180.98C137.97 181.179 138.194 181.34 138.47 181.34Z" fill="#F9F9F9"/>
</g>
<g style="mix-blend-mode:screen">
<path d="M134.17 175.31C134.17 175.76 133.67 176.13 133.05 176.13C132.43 176.13 131.92 175.76 131.92 175.31C131.92 174.86 132.43 174.5 133.05 174.5C133.67 174.5 134.17 174.86 134.17 175.31Z" fill="#F9F9F9"/>
</g>
<g style="mix-blend-mode:screen">
<path d="M113.57 180.27C113.57 180.47 113.35 180.63 113.07 180.63C112.79 180.63 112.57 180.47 112.57 180.27C112.57 180.07 112.8 179.91 113.07 179.91C113.34 179.91 113.57 180.07 113.57 180.27Z" fill="#F9F9F9"/>
</g>
<g style="mix-blend-mode:screen">
<path d="M141.51 170.9C141.51 171.43 140.91 171.9 140.18 171.9C139.45 171.9 138.85 171.47 138.85 170.9C138.85 170.33 139.44 169.9 140.18 169.9C140.92 169.9 141.51 170.41 141.51 170.9Z" fill="#F9F9F9"/>
</g>
<g style="mix-blend-mode:screen">
<path d="M116.22 162.85C116.22 163.16 115.88 163.41 115.45 163.41C115.02 163.41 114.67 163.16 114.67 162.85C114.67 162.54 115.02 162.29 115.45 162.29C115.88 162.29 116.22 162.54 116.22 162.85Z" fill="#F9F9F9"/>
</g>
<g style="mix-blend-mode:screen">
<path d="M117.05 149.53C117.05 150.02 116.51 150.42 115.83 150.42C115.15 150.42 114.61 150.02 114.61 149.53C114.61 149.04 115.16 148.65 115.83 148.65C116.5 148.65 117.05 149.04 117.05 149.53Z" fill="#F9F9F9"/>
</g>
<g style="mix-blend-mode:screen">
<path d="M182.73 200.14C182.73 200.47 182.35 200.74 181.89 200.74C181.43 200.74 181.06 200.47 181.06 200.14C181.06 199.81 181.43 199.53 181.89 199.53C182.35 199.53 182.73 199.8 182.73 200.14Z" fill="#F9F9F9"/>
</g>
<g style="mix-blend-mode:screen">
<path d="M190.57 194.84C190.57 195.18 190.18 195.46 189.7 195.46C189.22 195.46 188.83 195.18 188.83 194.84C188.83 194.5 189.22 194.21 189.7 194.21C190.18 194.21 190.57 194.49 190.57 194.84Z" fill="#F9F9F9"/>
</g>
<g style="mix-blend-mode:screen">
<path d="M173.91 209.82C173.91 210.12 173.58 210.36 173.17 210.36C172.76 210.36 172.44 210.12 172.44 209.82C172.44 209.52 172.77 209.29 173.17 209.29C173.57 209.29 173.91 209.53 173.91 209.82Z" fill="#F9F9F9"/>
</g>
<g style="mix-blend-mode:screen">
<path d="M181.45 207.76C181.45 208.25 180.9 208.65 180.23 208.65C179.56 208.65 179 208.25 179 207.76C179 207.27 179.55 206.88 180.23 206.88C180.91 206.88 181.45 207.28 181.45 207.76Z" fill="#F9F9F9"/>
</g>
<g style="mix-blend-mode:screen">
<path d="M102.77 214.02C102.77 214.32 102.44 214.56 102.03 214.56C101.62 214.56 101.29 214.32 101.29 214.02C101.29 213.72 101.62 213.49 102.03 213.49C102.44 213.49 102.77 213.73 102.77 214.02Z" fill="#F9F9F9"/>
</g>
<g style="mix-blend-mode:screen">
<path d="M116.91 213.91C116.91 214.4 116.37 214.8 115.69 214.8C115.01 214.8 114.47 214.4 114.47 213.91C114.47 213.42 115.02 213.03 115.69 213.03C116.36 213.03 116.91 213.41 116.91 213.91Z" fill="#F9F9F9"/>
</g>
<g style="mix-blend-mode:screen">
<path d="M215.82 167.01C215.82 167.31 215.49 167.55 215.09 167.55C214.69 167.55 214.35 167.31 214.35 167.01C214.35 166.71 214.68 166.48 215.09 166.48C215.5 166.48 215.82 166.72 215.82 167.01Z" fill="#F9F9F9"/>
</g>
<g style="mix-blend-mode:screen">
<path d="M207.52 189.7C208.376 189.7 209.07 189.199 209.07 188.58C209.07 187.961 208.376 187.46 207.52 187.46C206.664 187.46 205.97 187.961 205.97 188.58C205.97 189.199 206.664 189.7 207.52 189.7Z" fill="#F9F9F9"/>
</g>
<g style="mix-blend-mode:screen">
<path d="M219.91 195.7C219.91 195.89 219.68 196.06 219.41 196.06C219.14 196.06 218.91 195.89 218.91 195.7C218.91 195.51 219.13 195.33 219.41 195.33C219.69 195.33 219.91 195.5 219.91 195.7Z" fill="#F9F9F9"/>
</g>
<g style="mix-blend-mode:screen">
<path d="M222.53 178.27C222.53 178.58 222.18 178.83 221.75 178.83C221.32 178.83 220.98 178.58 220.98 178.27C220.98 177.96 221.33 177.71 221.75 177.71C222.17 177.71 222.53 177.96 222.53 178.27Z" fill="#F9F9F9"/>
</g>
<g style="mix-blend-mode:screen">
<path d="M223.36 164.96C223.36 165.44 222.81 165.84 222.14 165.84C221.47 165.84 220.92 165.44 220.92 164.96C220.92 164.48 221.47 164.07 222.14 164.07C222.81 164.07 223.36 164.47 223.36 164.96Z" fill="#F9F9F9"/>
</g>
<g style="mix-blend-mode:screen">
<path d="M35.3899 186.6C35.3899 186.9 35.0599 187.14 34.6499 187.14C34.2399 187.14 33.9199 186.9 33.9199 186.6C33.9199 186.3 34.2499 186.07 34.6499 186.07C35.0499 186.07 35.3899 186.31 35.3899 186.6Z" fill="#F9F9F9"/>
</g>
<g style="mix-blend-mode:screen">
<path d="M24.25 189.71C24.25 190.33 23.56 190.83 22.71 190.83C21.86 190.83 21.16 190.33 21.16 189.71C21.16 189.09 21.85 188.59 22.71 188.59C23.57 188.59 24.25 189.09 24.25 189.71Z" fill="#F9F9F9"/>
</g>
<g style="mix-blend-mode:screen">
<path d="M35.0601 196.82C35.0601 197.02 34.8301 197.18 34.5601 197.18C34.2901 197.18 34.0601 197.02 34.0601 196.82C34.0601 196.62 34.2801 196.46 34.5601 196.46C34.8401 196.46 35.0601 196.63 35.0601 196.82Z" fill="#F9F9F9"/>
</g>
<g style="mix-blend-mode:screen">
<path d="M42.1 197.86C42.1 198.17 41.75 198.42 41.32 198.42C40.89 198.42 40.54 198.17 40.54 197.86C40.54 197.55 40.89 197.3 41.32 197.3C41.75 197.3 42.1 197.55 42.1 197.86Z" fill="#F9F9F9"/>
</g>
<g style="mix-blend-mode:screen">
<path d="M42.91 184.54C42.91 185.03 42.36 185.43 41.69 185.43C41.02 185.43 40.47 185.03 40.47 184.54C40.47 184.05 41.01 183.66 41.69 183.66C42.37 183.66 42.91 184.06 42.91 184.54Z" fill="#F9F9F9"/>
</g>
</g>
<g style="mix-blend-mode:screen">
<g style="mix-blend-mode:screen">
<path d="M171.71 11.83C171.71 12.03 171.48 12.2 171.2 12.2C170.92 12.2 170.69 12.03 170.69 11.83C170.69 11.63 170.92 11.46 171.2 11.46C171.48 11.46 171.71 11.63 171.71 11.83Z" fill="#F9F9F9"/>
</g>
<g style="mix-blend-mode:screen">
<path d="M171.11 67.68C171.59 67.68 171.98 67.3979 171.98 67.05C171.98 66.7021 171.59 66.42 171.11 66.42C170.629 66.42 170.24 66.7021 170.24 67.05C170.24 67.3979 170.629 67.68 171.11 67.68Z" fill="#F9F9F9"/>
</g>
<g style="mix-blend-mode:screen">
<path d="M175.91 44.29C175.91 44.7 175.45 45.03 174.91 45.03C174.37 45.03 173.91 44.7 173.91 44.29C173.91 43.88 174.36 43.56 174.91 43.56C175.46 43.56 175.91 43.89 175.91 44.29Z" fill="#F9F9F9"/>
</g>
<g style="mix-blend-mode:screen">
<path d="M140.19 54.79C140.19 55.28 139.64 55.67 138.98 55.67C138.32 55.67 137.77 55.28 137.77 54.79C137.77 54.3 138.31 53.92 138.98 53.92C139.65 53.92 140.19 54.31 140.19 54.79Z" fill="#F9F9F9"/>
</g>
<g style="mix-blend-mode:screen">
<path d="M194.4 53.18C194.4 53.61 193.92 53.95 193.34 53.95C192.76 53.95 192.34 53.61 192.34 53.18C192.34 52.75 192.81 52.42 193.34 52.42C193.87 52.42 194.4 52.76 194.4 53.18Z" fill="#F9F9F9"/>
</g>
<g style="mix-blend-mode:screen">
<path d="M127.07 34.91C127.07 35.27 126.67 35.57 126.16 35.57C125.65 35.57 125.26 35.27 125.26 34.91C125.26 34.55 125.66 34.25 126.16 34.25C126.66 34.25 127.07 34.55 127.07 34.91Z" fill="#F9F9F9"/>
</g>
<g style="mix-blend-mode:screen">
<path d="M197.85 72.23C197.85 72.7 197.32 73.09 196.67 73.09C196.02 73.09 195.49 72.7 195.49 72.23C195.49 71.76 196.02 71.38 196.67 71.38C197.32 71.38 197.85 71.76 197.85 72.23Z" fill="#F9F9F9"/>
</g>
<g style="mix-blend-mode:screen">
<path d="M104.66 39.6C104.66 39.93 104.31 40.18 103.86 40.18C103.41 40.18 103.06 39.93 103.06 39.6C103.06 39.27 103.42 39.02 103.86 39.02C104.3 39.02 104.66 39.28 104.66 39.6Z" fill="#F9F9F9"/>
</g>
<g style="mix-blend-mode:screen">
<path d="M211.48 81.68C211.48 81.9 211.24 82.07 210.94 82.07C210.64 82.07 210.41 81.9 210.41 81.68C210.41 81.46 210.65 81.29 210.94 81.29C211.23 81.29 211.48 81.47 211.48 81.68Z" fill="#F9F9F9"/>
</g>
<g style="mix-blend-mode:screen">
<path d="M155.09 114.57C155.09 114.81 154.82 115.01 154.49 115.01C154.16 115.01 153.9 114.81 153.9 114.57C153.9 114.33 154.16 114.14 154.49 114.14C154.82 114.14 155.09 114.34 155.09 114.57Z" fill="#F9F9F9"/>
</g>
<g style="mix-blend-mode:screen">
<path d="M200.99 83.91C201.697 83.91 202.27 83.4981 202.27 82.99C202.27 82.4819 201.697 82.07 200.99 82.07C200.283 82.07 199.71 82.4819 199.71 82.99C199.71 83.4981 200.283 83.91 200.99 83.91Z" fill="#F9F9F9"/>
</g>
<g style="mix-blend-mode:screen">
<path d="M163.06 158.59C163.546 158.59 163.94 158.303 163.94 157.95C163.94 157.597 163.546 157.31 163.06 157.31C162.574 157.31 162.18 157.597 162.18 157.95C162.18 158.303 162.574 158.59 163.06 158.59Z" fill="#F9F9F9"/>
</g>
<g style="mix-blend-mode:screen">
<path d="M230.06 107.07C230.06 107.36 229.73 107.6 229.32 107.6C228.91 107.6 228.58 107.36 228.58 107.07C228.58 106.78 228.91 106.53 229.32 106.53C229.73 106.53 230.06 106.77 230.06 107.07Z" fill="#F9F9F9"/>
</g>
<g style="mix-blend-mode:screen">
<path d="M220.51 94.72C220.51 95.05 220.13 95.33 219.67 95.33C219.21 95.33 218.82 95.05 218.82 94.72C218.82 94.39 219.2 94.11 219.67 94.11C220.14 94.11 220.51 94.41 220.51 94.72Z" fill="#F9F9F9"/>
</g>
<g style="mix-blend-mode:screen">
<path d="M214.29 150.21C214.29 150.51 213.96 150.75 213.55 150.75C213.14 150.75 212.82 150.51 212.82 150.21C212.82 149.91 213.14 149.68 213.55 149.68C213.96 149.68 214.29 149.92 214.29 150.21Z" fill="#F9F9F9"/>
</g>
<g style="mix-blend-mode:screen">
<path d="M236.71 78.34C236.71 78.54 236.49 78.7 236.21 78.7C235.93 78.7 235.72 78.54 235.72 78.34C235.72 78.14 235.94 77.98 236.21 77.98C236.48 77.98 236.71 78.14 236.71 78.34Z" fill="#F9F9F9"/>
</g>
<g style="mix-blend-mode:screen">
<path d="M175.91 123.87C175.91 124.3 175.43 124.65 174.83 124.65C174.23 124.65 173.75 124.3 173.75 123.87C173.75 123.44 174.24 123.09 174.83 123.09C175.42 123.09 175.91 123.41 175.91 123.87Z" fill="#F9F9F9"/>
</g>
<g style="mix-blend-mode:screen">
<path d="M113.51 122.02C113.51 122.47 113.01 122.83 112.39 122.83C111.77 122.83 111.27 122.47 111.27 122.02C111.27 121.57 111.77 121.21 112.39 121.21C113.01 121.21 113.51 121.57 113.51 122.02Z" fill="#F9F9F9"/>
</g>
<g style="mix-blend-mode:screen">
<path d="M105.24 80.67C105.24 80.97 104.9 81.22 104.48 81.22C104.06 81.22 103.72 80.97 103.72 80.67C103.72 80.37 104.06 80.12 104.48 80.12C104.9 80.12 105.24 80.41 105.24 80.67Z" fill="#F9F9F9"/>
</g>
<g style="mix-blend-mode:screen">
<path d="M148.75 93.8C148.75 94.07 148.45 94.28 148.08 94.28C147.71 94.28 147.41 94.07 147.41 93.8C147.41 93.53 147.71 93.32 148.08 93.32C148.45 93.32 148.75 93.53 148.75 93.8Z" fill="#F9F9F9"/>
</g>
<g style="mix-blend-mode:screen">
<path d="M205.35 89.41C205.864 89.41 206.28 89.11 206.28 88.74C206.28 88.37 205.864 88.07 205.35 88.07C204.836 88.07 204.42 88.37 204.42 88.74C204.42 89.11 204.836 89.41 205.35 89.41Z" fill="#F9F9F9"/>
</g>
<g style="mix-blend-mode:screen">
<path d="M161.54 6.57C161.987 6.57 162.35 6.30585 162.35 5.98C162.35 5.65415 161.987 5.39 161.54 5.39C161.093 5.39 160.73 5.65415 160.73 5.98C160.73 6.30585 161.093 6.57 161.54 6.57Z" fill="#F9F9F9"/>
</g>
<g style="mix-blend-mode:screen">
<path d="M153.46 186.47C154.2 186.47 154.8 186.036 154.8 185.5C154.8 184.964 154.2 184.53 153.46 184.53C152.72 184.53 152.12 184.964 152.12 185.5C152.12 186.036 152.72 186.47 153.46 186.47Z" fill="#F9F9F9"/>
</g>
<g style="mix-blend-mode:screen">
<path d="M230.6 165.88C230.6 166.36 230.06 166.75 229.4 166.75C228.74 166.75 228.19 166.36 228.19 165.88C228.19 165.4 228.73 165 229.4 165C230.07 165 230.6 165.41 230.6 165.88Z" fill="#F9F9F9"/>
</g>
<g style="mix-blend-mode:screen">
<path d="M201.5 119.05C201.5 119.38 201.12 119.65 200.66 119.65C200.2 119.65 199.83 119.38 199.83 119.05C199.83 118.72 200.2 118.45 200.66 118.45C201.12 118.45 201.5 118.72 201.5 119.05Z" fill="#F9F9F9"/>
</g>
<g style="mix-blend-mode:screen">
<path d="M209.34 113.75C209.34 114.1 208.95 114.38 208.47 114.38C207.99 114.38 207.6 114.1 207.6 113.75C207.6 113.4 207.99 113.12 208.47 113.12C208.95 113.12 209.34 113.41 209.34 113.75Z" fill="#F9F9F9"/>
</g>
<g style="mix-blend-mode:screen">
<path d="M173 55.02C173 55.34 172.64 55.6 172.2 55.6C171.76 55.6 171.4 55.34 171.4 55.02C171.4 54.7 171.76 54.44 172.2 54.44C172.64 54.44 173 54.7 173 55.02Z" fill="#F9F9F9"/>
</g>
<g style="mix-blend-mode:screen">
<path d="M223.31 128.63C223.31 129.25 222.61 129.75 221.76 129.75C220.91 129.75 220.21 129.25 220.21 128.63C220.21 128.01 220.9 127.51 221.76 127.51C222.62 127.51 223.31 128.01 223.31 128.63Z" fill="#F9F9F9"/>
</g>
<g style="mix-blend-mode:screen">
<path d="M188.24 34.8C188.24 35.13 187.87 35.4 187.41 35.4C186.95 35.4 186.57 35.13 186.57 34.8C186.57 34.47 186.95 34.2 187.41 34.2C187.87 34.2 188.24 34.47 188.24 34.8Z" fill="#F9F9F9"/>
</g>
<g style="mix-blend-mode:screen">
<path d="M196.08 29.5C196.08 29.85 195.69 30.13 195.21 30.13C194.73 30.13 194.35 29.85 194.35 29.5C194.35 29.15 194.73 28.87 195.21 28.87C195.69 28.87 196.08 29.15 196.08 29.5Z" fill="#F9F9F9"/>
</g>
<g style="mix-blend-mode:screen">
<path d="M210.05 44.41C210.05 45.03 209.36 45.53 208.5 45.53C207.64 45.53 206.91 45 206.91 44.41C206.91 43.82 207.61 43.29 208.46 43.29C209.31 43.29 210.05 43.76 210.05 44.41Z" fill="#F9F9F9"/>
</g>
<g style="mix-blend-mode:screen">
<path d="M203.82 31.92C203.82 32.54 203.13 33.04 202.27 33.04C201.41 33.04 200.72 32.54 200.72 31.92C200.72 31.3 201.41 30.8 202.27 30.8C203.13 30.8 203.82 31.3 203.82 31.92Z" fill="#F9F9F9"/>
</g>
<g style="mix-blend-mode:screen">
<path d="M161.36 0.529999C161.36 0.829999 161.03 1.07001 160.63 1.07001C160.23 1.07001 159.89 0.829999 159.89 0.529999C159.89 0.229999 160.22 0 160.63 0C161.04 0 161.36 0.239999 161.36 0.529999Z" fill="#F9F9F9"/>
</g>
<g style="mix-blend-mode:screen">
<path d="M131.97 13.12C132.428 13.12 132.8 12.8514 132.8 12.52C132.8 12.1886 132.428 11.92 131.97 11.92C131.511 11.92 131.14 12.1886 131.14 12.52C131.14 12.8514 131.511 13.12 131.97 13.12Z" fill="#F9F9F9"/>
</g>
<g style="mix-blend-mode:screen">
<path d="M140.64 7.22C140.64 7.56 140.25 7.85001 139.77 7.85001C139.29 7.85001 138.91 7.56 138.91 7.22C138.91 6.88 139.3 6.59 139.77 6.59C140.24 6.59 140.64 6.87 140.64 7.22Z" fill="#F9F9F9"/>
</g>
<g style="mix-blend-mode:screen">
<path d="M149.99 16.88C149.99 17.5 149.3 18 148.44 18C147.58 18 146.89 17.5 146.89 16.88C146.89 16.26 147.59 15.76 148.44 15.76C149.29 15.76 149.99 16.26 149.99 16.88Z" fill="#F9F9F9"/>
</g>
<g style="mix-blend-mode:screen">
<path d="M183.54 157.7C183.915 157.7 184.22 157.481 184.22 157.21C184.22 156.939 183.915 156.72 183.54 156.72C183.164 156.72 182.86 156.939 182.86 157.21C182.86 157.481 183.164 157.7 183.54 157.7Z" fill="#F9F9F9"/>
</g>
<g style="mix-blend-mode:screen">
<path d="M205.81 65.09C205.81 65.27 205.61 65.42 205.35 65.42C205.09 65.42 204.9 65.27 204.9 65.09C204.9 64.91 205.1 64.76 205.35 64.76C205.6 64.76 205.81 64.91 205.81 65.09Z" fill="#F9F9F9"/>
</g>
<g style="mix-blend-mode:screen">
<path d="M88.6899 81.41C88.6899 81.83 88.2199 82.18 87.6899 82.18C87.1599 82.18 86.6299 81.83 86.6299 81.41C86.6299 80.99 87.1099 80.65 87.6899 80.65C88.2699 80.65 88.6899 80.99 88.6899 81.41Z" fill="#F9F9F9"/>
</g>
<g style="mix-blend-mode:screen">
<path d="M92.1498 100.46C92.1498 100.93 91.6198 101.31 90.9698 101.31C90.3198 101.31 89.7898 100.93 89.7898 100.46C89.7898 99.99 90.3098 99.6 90.9698 99.6C91.6298 99.6 92.1498 99.99 92.1498 100.46Z" fill="#F9F9F9"/>
</g>
<g style="mix-blend-mode:screen">
<path d="M95.2898 112.14C95.9967 112.14 96.5698 111.728 96.5698 111.22C96.5698 110.712 95.9967 110.3 95.2898 110.3C94.5828 110.3 94.0098 110.712 94.0098 111.22C94.0098 111.728 94.5828 112.14 95.2898 112.14Z" fill="#F9F9F9"/>
</g>
<g style="mix-blend-mode:screen">
<path d="M100.11 93.32C100.11 93.5 99.8999 93.65 99.6499 93.65C99.3999 93.65 99.2 93.5 99.2 93.32C99.2 93.14 99.3999 92.99 99.6499 92.99C99.8999 92.99 100.11 93.14 100.11 93.32Z" fill="#F9F9F9"/>
</g>
<g style="mix-blend-mode:screen">
<path d="M151.63 127.55C152.116 127.55 152.51 127.263 152.51 126.91C152.51 126.557 152.116 126.27 151.63 126.27C151.144 126.27 150.75 126.557 150.75 126.91C150.75 127.263 151.144 127.55 151.63 127.55Z" fill="#F9F9F9"/>
</g>
<g style="mix-blend-mode:screen">
<path d="M136.13 120.07C136.13 120.57 135.57 120.97 134.88 120.97C134.19 120.97 133.63 120.57 133.63 120.07C133.63 119.57 134.19 119.16 134.88 119.16C135.57 119.16 136.13 119.57 136.13 120.07Z" fill="#F9F9F9"/>
</g>
<g style="mix-blend-mode:screen">
<path d="M162.79 95.74C162.79 96.1 162.39 96.4 161.89 96.4C161.39 96.4 160.98 96.1 160.98 95.74C160.98 95.38 161.38 95.08 161.89 95.08C162.4 95.08 162.79 95.41 162.79 95.74Z" fill="#F9F9F9"/>
</g>
<g style="mix-blend-mode:screen">
<path d="M150.78 157.23C150.78 157.79 150.15 158.23 149.38 158.23C148.61 158.23 147.98 157.77 147.98 157.23C147.98 156.69 148.61 156.23 149.38 156.23C150.15 156.23 150.78 156.68 150.78 157.23Z" fill="#F9F9F9"/>
</g>
<g style="mix-blend-mode:screen">
<path d="M136.75 49.43C137.302 49.43 137.75 49.1032 137.75 48.7C137.75 48.2968 137.302 47.97 136.75 47.97C136.198 47.97 135.75 48.2968 135.75 48.7C135.75 49.1032 136.198 49.43 136.75 49.43Z" fill="#F9F9F9"/>
</g>
<g style="mix-blend-mode:screen">
<path d="M146.25 162.34C146.25 162.64 145.92 162.88 145.51 162.88C145.1 162.88 144.77 162.64 144.77 162.34C144.77 162.04 145.1 161.81 145.51 161.81C145.92 161.81 146.25 162.05 146.25 162.34Z" fill="#F9F9F9"/>
</g>
<g style="mix-blend-mode:screen">
<path d="M132.18 81.74C132.18 82.04 131.84 82.29 131.42 82.29C131 82.29 130.65 82.04 130.65 81.74C130.65 81.44 131 81.19 131.42 81.19C131.84 81.19 132.18 81.41 132.18 81.74Z" fill="#F9F9F9"/>
</g>
<g style="mix-blend-mode:screen">
<path d="M141.48 22.92C141.48 23.06 141.31 23.19 141.1 23.19C140.89 23.19 140.73 23.06 140.73 22.92C140.73 22.78 140.9 22.65 141.1 22.65C141.3 22.65 141.48 22.77 141.48 22.92Z" fill="#F9F9F9"/>
</g>
<g style="mix-blend-mode:screen">
<path d="M234.11 135.75C234.11 135.95 233.89 136.11 233.61 136.11C233.33 136.11 233.11 135.95 233.11 135.75C233.11 135.55 233.34 135.39 233.61 135.39C233.88 135.39 234.11 135.55 234.11 135.75Z" fill="#F9F9F9"/>
</g>
<g style="mix-blend-mode:screen">
<path d="M236.77 118.32C236.77 118.63 236.42 118.88 235.99 118.88C235.56 118.88 235.21 118.63 235.21 118.32C235.21 118.01 235.56 117.76 235.99 117.76C236.42 117.76 236.77 118.01 236.77 118.32Z" fill="#F9F9F9"/>
</g>
<g style="mix-blend-mode:screen">
<path d="M237.6 105.01C237.6 105.49 237.05 105.89 236.37 105.89C235.69 105.89 235.15 105.49 235.15 105.01C235.15 104.53 235.7 104.12 236.37 104.12C237.04 104.12 237.6 104.52 237.6 105.01Z" fill="#F9F9F9"/>
</g>
<g style="mix-blend-mode:screen">
<path d="M223.31 169.5C223.31 169.79 222.98 170.03 222.57 170.03C222.16 170.03 221.83 169.79 221.83 169.5C221.83 169.21 222.16 168.96 222.57 168.96C222.98 168.96 223.31 169.2 223.31 169.5Z" fill="#F9F9F9"/>
</g>
<g style="mix-blend-mode:screen">
<path d="M216.56 191.06C216.56 191.68 215.86 192.18 215.01 192.18C214.16 192.18 213.46 191.68 213.46 191.06C213.46 190.44 214.15 189.94 215.01 189.94C215.87 189.94 216.56 190.41 216.56 191.06Z" fill="#F9F9F9"/>
</g>
<g style="mix-blend-mode:screen">
<path d="M230.84 167.41C230.84 167.89 230.3 168.29 229.62 168.29C228.94 168.29 228.4 167.89 228.4 167.41C228.4 166.93 228.95 166.52 229.62 166.52C230.29 166.52 230.84 166.95 230.84 167.41Z" fill="#F9F9F9"/>
</g>
<g style="mix-blend-mode:screen">
<path d="M118.55 163.75C118.55 164.04 118.22 164.28 117.82 164.28C117.42 164.28 117.08 164.04 117.08 163.75C117.08 163.46 117.41 163.21 117.82 163.21C118.23 163.21 118.55 163.41 118.55 163.75Z" fill="#F9F9F9"/>
</g>
<g style="mix-blend-mode:screen">
<path d="M107.42 166.85C107.42 167.47 106.72 167.97 105.87 167.97C105.02 167.97 104.32 167.47 104.32 166.85C104.32 166.23 105.01 165.73 105.87 165.73C106.73 165.73 107.42 166.23 107.42 166.85Z" fill="#F9F9F9"/>
</g>
<g style="mix-blend-mode:screen">
<path d="M118.22 173.97C118.22 174.17 118 174.33 117.72 174.33C117.44 174.33 117.22 174.17 117.22 173.97C117.22 173.77 117.45 173.61 117.72 173.61C117.99 173.61 118.22 173.77 118.22 173.97Z" fill="#F9F9F9"/>
</g>
<g style="mix-blend-mode:screen">
<path d="M125.26 175C125.26 175.31 124.91 175.57 124.48 175.57C124.05 175.57 123.71 175.31 123.71 175C123.71 174.69 124.05 174.44 124.48 174.44C124.91 174.44 125.26 174.69 125.26 175Z" fill="#F9F9F9"/>
</g>
<g style="mix-blend-mode:screen">
<path d="M126.09 161.69C126.09 162.18 125.54 162.57 124.87 162.57C124.2 162.57 123.65 162.18 123.65 161.69C123.65 161.2 124.19 160.8 124.87 160.8C125.55 160.8 126.09 161.2 126.09 161.69Z" fill="#F9F9F9"/>
</g>
</g>
<g style="mix-blend-mode:screen">
<path d="M37.4501 77.17L27.29 74.97L23.03 83.59L22.49 73.91L12.8 74.03L22.06 70.03L19.35 60.15L26.84 68.99L34.5801 62.09L29.33 71.42L37.4501 77.17Z" fill="#FFCD49"/>
</g>
<g style="mix-blend-mode:screen">
<path d="M37.4501 77.17L27.29 74.97L23.03 83.59L22.49 73.91L12.8 74.03L22.06 70.03L19.35 60.15L26.84 68.99L34.5801 62.09L29.33 71.42L37.4501 77.17Z" fill="#FFCD49"/>
</g>
<circle cx="117" cy="26" r="11.5" fill="#C4C4C4" fill-opacity="0.43" stroke="black"/>
<path d="M115.799 21.4629V30H113.965V23.5488L111.984 24.1523V22.7344L115.617 21.4629H115.799Z" fill="black"/>
</g>
<defs>
<linearGradient id="paint0_linear_9_1021" x1="117.56" y1="207.99" x2="130.79" y2="-9.62" gradientUnits="userSpaceOnUse">
<stop stop-color="#4FABC0"/>
<stop offset="0.14" stop-color="#50A6BA"/>
<stop offset="0.32" stop-color="#5499A9"/>
<stop offset="0.53" stop-color="#5B848D"/>
<stop offset="0.76" stop-color="#646667"/>
<stop offset="1" stop-color="#6F4036"/>
</linearGradient>
<clipPath id="clip0_9_1021">
<rect width="246.33" height="215.03" fill="white"/>
</clipPath>
</defs>
</svg>
