<svg width="163" height="156" viewBox="0 0 163 156" fill="none" xmlns="http://www.w3.org/2000/svg">
<g style="mix-blend-mode:luminosity" clip-path="url(#clip0_9_1294)">
<path d="M125.846 142.925C111.553 152.064 96.1631 156 78.6969 156C70.658 156 56.6295 154.243 48.6302 151.549C15.9985 140.508 3.92687 112.047 9.41397 74.9492C15.4432 34.4172 50.9705 1.62446 89.7372 0.079253C120.055 -1.14899 148.958 19.5066 159.218 48.6939C168.302 74.5134 162.471 119.536 125.846 142.925Z" fill="#CC692E"/>
<g style="mix-blend-mode:multiply">
<path d="M132.404 100.782C120.015 95.2746 108.102 97.4934 95.0657 96.4368C73.223 94.6803 56.4973 80.7734 41.2259 66.1138C33.9935 59.1537 27.0388 51.9428 19.899 44.9167C14.5819 54.2112 11.0274 64.4059 9.41397 74.9888C3.92686 111.968 16.0249 140.495 48.6302 151.589C56.6295 154.23 70.658 156.04 78.6969 156.04C96.1631 156.04 111.553 152.078 125.846 142.965C139.175 134.468 149.619 122.144 155.807 107.61C142.731 111.915 140.695 104.48 132.404 100.782Z" fill="#CC692E"/>
</g>
<path d="M148.707 71.872C145.904 116.102 107.865 153.649 64.7875 153.649C22.6756 153.649 -5.43424 117.581 0.885848 75.0021C6.90183 34.4172 42.4292 1.62448 81.1959 0.0528542C120.769 -1.54518 151.391 29.7816 148.707 71.872Z" fill="#94260D"/>
<path d="M85.2286 0.0792275C122.832 0.686745 151.338 31.2872 148.694 71.938C145.891 116.009 108.129 153.425 65.2371 153.702H65.6866C109.385 153.702 147.98 116.155 150.836 71.9248C153.533 30.7853 123.982 -0.0264278 85.2286 0.0792275Z" fill="#EDA086"/>
<g style="mix-blend-mode:screen" opacity="0.55">
<path d="M79.6224 20.616C96.0044 19.5726 112.413 18.6614 128.795 17.5916C122.473 11.5867 114.991 6.93392 106.806 3.91814C98.6218 0.902366 89.9071 -0.412912 81.1958 0.0528404C62.5926 0.805634 44.743 8.76939 30.5426 21.3028C46.8585 21.6725 63.0421 21.6593 79.6224 20.616Z" fill="#B1604E"/>
</g>
<g style="mix-blend-mode:screen" opacity="0.55">
<path d="M40.4856 45.5506C56.6031 45.0355 71.5439 40.7961 87.3838 38.7358C105.273 36.4114 123.493 36.5435 141.382 34.7738C140.238 32.5005 138.962 30.2957 137.561 28.1703C116.829 29.6363 96.0706 30.8117 75.3253 32.0532C56.8146 33.1361 38.5419 32.806 20.137 32.2248C16.8149 36.3031 13.851 40.6599 11.2783 45.2469C21.0229 45.4978 30.7542 45.8676 40.4856 45.5506Z" fill="#B1604E"/>
</g>
<g style="mix-blend-mode:screen" opacity="0.55">
<path d="M53.4033 123.181C72.7338 118.202 91.7469 112.378 110.853 106.395C121.562 103.04 132.338 99.9499 143.141 96.9915C145.556 90.7461 147.229 84.239 148.125 77.6038L134.441 80.6414C108.142 86.5052 81.923 92.7125 55.5585 98.1934C38.251 101.799 20.9038 106.276 3.38477 109.036C6.08269 117.598 10.5209 125.511 16.4216 132.28C28.1891 127.737 41.1731 126.337 53.4033 123.181Z" fill="#B1604E"/>
</g>
<path d="M140.589 72.4135C138.09 111.81 104.215 145.25 65.8452 145.25C28.3346 145.25 3.30545 113.117 8.92477 75.253C14.2797 39.1057 45.9462 9.90519 80.4554 8.50526C115.705 7.02609 142.969 34.9191 140.589 72.4135Z" fill="#401A00"/>
<path d="M135.26 72.1625C132.682 108.336 101.518 138.897 66.3476 139.042C31.8251 139.174 8.44875 109.802 13.4599 74.7379C18.2065 41.0338 47.6782 13.6955 79.9133 12.4937C112.664 11.2655 137.746 37.4151 135.26 72.1625Z" fill="#CD7F33"/>
<path d="M126.349 72.3474C123.982 103.225 97.3531 129.23 67.379 129.428C37.8676 129.613 17.7042 104.625 21.803 74.5662C25.7696 45.511 51.1425 21.8707 78.9746 20.8933C107.217 19.8896 128.623 42.5262 126.349 72.3474Z" fill="#316D4E"/>
<path d="M106.199 72.7172C104.533 91.7352 88.0845 107.649 69.6664 107.861C51.2482 108.072 38.7138 92.8049 41.0673 74.1039C43.3547 55.7859 59.3136 40.8093 76.8856 40.2811C94.4575 39.7528 107.838 54.2275 106.199 72.7172Z" fill="#D2822C"/>
<g style="mix-blend-mode:screen" opacity="0.32">
<path d="M72.9453 68.6495C75.5897 64.2384 78.3795 59.8405 81.209 55.4426C83.1659 52.405 84.8715 48.8392 87.0002 45.7619C83.652 44.3755 80.045 43.7225 76.4227 43.847C71.3899 44.0491 66.4887 45.5114 62.1694 48.0995C63.4834 51.5132 65.0938 54.8055 66.9822 57.9387C69.2299 61.3989 71.0943 65.0176 72.9453 68.6495Z" fill="#D79132"/>
</g>
<g style="mix-blend-mode:screen" opacity="0.32">
<path d="M75.6427 76.085C74.1926 75.7822 72.7272 75.5574 71.253 75.4115C69.2301 77.9736 59.3533 96.3312 56.9998 98.8273C60.9885 101.217 65.5713 102.435 70.2217 102.34C74.2043 102.249 78.1268 101.35 81.7512 99.6989C81.7512 99.6989 77.4012 81.5923 75.6427 76.085Z" fill="#D79132"/>
</g>
<path d="M118.138 77.683C117.623 80.45 116.885 83.1707 115.93 85.8185L125.423 89.8466C126.934 85.8424 128.037 81.6966 128.716 77.4717L118.138 77.683Z" fill="#CA1C18"/>
<path d="M32.354 61.5838L23.7069 57.8462C22.0585 61.6327 20.7789 65.569 19.8857 69.6004L29.8683 69.3759C30.4926 66.7179 31.3237 64.1126 32.354 61.5838Z" fill="#CA1C18"/>
<path d="M118.971 67.4345L129.548 67.1968C129.505 63.1685 129.027 59.1567 128.12 55.2313L118.085 59.5103C118.613 62.1205 118.91 64.7722 118.971 67.4345Z" fill="#CA1C18"/>
<path d="M28.5329 79.4659L18.4975 79.6641C18.2731 83.658 18.4726 87.6644 19.0924 91.6163L28.9692 87.3505C28.6025 84.7392 28.4566 82.1017 28.5329 79.4659Z" fill="#CA1C18"/>
<path d="M31.455 96.8066L21.5121 101.099C22.8083 104.736 24.5303 108.207 26.6422 111.44L34.8927 103.595C33.5329 101.447 32.3818 99.1736 31.455 96.8066Z" fill="#CA1C18"/>
<path d="M104.929 37.0586L112.796 29.5703C110.01 27.1545 106.943 25.0837 103.66 23.4026L98.8999 32.9248C101.036 34.1092 103.055 35.4933 104.929 37.0586Z" fill="#CA1C18"/>
<path d="M42.2176 45.7752L36.1487 38.7887C33.3228 41.8484 30.7825 45.1595 28.5593 48.6806L37.1932 52.3522C38.7059 50.0409 40.3852 47.8427 42.2176 45.7752Z" fill="#CA1C18"/>
<path d="M90.3189 29.425L95.092 19.9424C91.4833 18.9198 87.7712 18.304 84.0253 18.1067L82.9675 28.1703C85.4516 28.3605 87.9126 28.7806 90.3189 29.425Z" fill="#CA1C18"/>
<path d="M73.3817 28.4873L74.4924 18.4501C70.6035 18.9349 66.7752 19.8201 63.0686 21.0914L65.7923 30.2438C68.2701 29.4531 70.8083 28.8656 73.3817 28.4873Z" fill="#CA1C18"/>
<path d="M115.044 50.2655L124.961 45.9865C123.414 42.5236 121.461 39.2562 119.143 36.253L111.21 43.8073C112.694 45.8308 113.979 47.9937 115.044 50.2655Z" fill="#CA1C18"/>
<path d="M56.5634 34.2059L53.919 25.0403C50.3171 26.9582 46.9002 29.2041 43.7117 31.7494L49.8202 38.6831C51.9527 37.0243 54.2067 35.5277 56.5634 34.2059Z" fill="#CA1C18"/>
<path d="M73.3157 121.028L72.1389 132.36C76.3136 131.932 80.4284 131.046 84.4089 129.718L81.3546 119.272C78.7328 120.096 76.0424 120.684 73.3157 121.028Z" fill="#CA1C18"/>
<path d="M91.1387 115.098L94.259 125.505C98.1212 123.429 101.766 120.974 105.141 118.175L98.2785 110.251C96.0286 112.05 93.6414 113.671 91.1387 115.098Z" fill="#CA1C18"/>
<path d="M55.6115 119.536L50.4021 129.969C54.1542 131.251 58.0476 132.076 61.9977 132.426L63.2274 121.121C60.6429 120.843 58.092 120.312 55.6115 119.536Z" fill="#CA1C18"/>
<path d="M106.159 102.644L113.034 110.463C115.944 107.13 118.526 103.526 120.743 99.6989L111.236 95.5916C109.73 98.0706 108.032 100.429 106.159 102.644Z" fill="#CA1C18"/>
<path d="M40.9218 110.938L32.6449 118.862C35.3396 121.579 38.3646 123.949 41.6491 125.915L46.9378 115.56C44.7815 114.226 42.7658 112.678 40.9218 110.938Z" fill="#CA1C18"/>
<path d="M68.2383 121.371C66.5645 121.382 64.8915 121.298 63.2272 121.121L61.9976 132.426C63.6371 132.571 65.3163 132.65 67.0351 132.637C68.754 132.624 70.4464 132.531 72.1388 132.36L73.3155 121.028C71.6313 121.242 69.936 121.357 68.2383 121.371Z" fill="#3C3C3C"/>
<path d="M78.2076 28.0647C79.795 28.0135 81.384 28.0487 82.9675 28.1703L84.0252 18.1066C82.465 18.0274 80.8784 18.0274 79.2653 18.1066C77.6655 18.1066 76.0656 18.2915 74.4922 18.4897L73.3816 28.5269C74.9808 28.2865 76.5918 28.1322 78.2076 28.0647Z" fill="#3C3C3C"/>
<path d="M98.2786 110.291L105.141 118.215C107.991 115.864 110.644 113.284 113.074 110.502L106.199 102.684C103.815 105.473 101.162 108.021 98.2786 110.291Z" fill="#3C3C3C"/>
<path d="M49.8202 38.683L43.6852 31.7758C41.0037 33.9345 38.4847 36.2873 36.1487 38.8151L42.2175 45.8015C44.5236 43.1967 47.0689 40.8135 49.8202 38.683Z" fill="#3C3C3C"/>
<path d="M118.839 72.5059C118.692 74.2423 118.458 75.9702 118.138 77.683L128.715 77.4717C128.993 75.7548 129.205 74.0247 129.337 72.2814C129.469 70.5381 129.509 68.8212 129.496 67.1307L118.918 67.3685C118.983 69.0811 118.957 70.7961 118.839 72.5059Z" fill="#3C3C3C"/>
<path d="M28.9428 74.4077C29.1632 72.7155 29.4722 71.0359 29.8683 69.3759L19.8857 69.6004C19.5155 71.2513 19.2114 72.9285 18.9734 74.619C18.7354 76.3095 18.59 78 18.4974 79.6641L28.5329 79.466C28.5858 77.8019 28.6651 76.1114 28.9428 74.4077Z" fill="#3C3C3C"/>
<path d="M111.249 43.7941L119.182 36.2398C117.297 33.7891 115.171 31.5327 112.836 29.5042L104.929 37.0586C107.301 39.0398 109.423 41.3015 111.249 43.7941Z" fill="#3C3C3C"/>
<path d="M34.8927 103.595L26.6422 111.44C28.3867 114.106 30.3979 116.589 32.645 118.849L40.9219 110.925C38.6134 108.743 36.5879 106.28 34.8927 103.595Z" fill="#3C3C3C"/>
<path d="M98.9001 32.8588L103.66 23.3366C100.925 21.922 98.0545 20.785 95.0922 19.9424L90.3191 29.425C93.3085 30.217 96.1901 31.3701 98.9001 32.8588Z" fill="#3C3C3C"/>
<path d="M46.885 115.547L41.5962 125.901C44.3655 127.555 47.2988 128.919 50.3491 129.969L55.5586 119.536C52.5117 118.574 49.5978 117.234 46.885 115.547Z" fill="#3C3C3C"/>
<path d="M65.7924 30.2174L63.0422 21.065C59.8806 22.1339 56.8117 23.459 53.8662 25.0271L56.5106 34.1927C59.4647 32.5631 62.574 31.2314 65.7924 30.2174Z" fill="#3C3C3C"/>
<path d="M81.3545 119.311L84.4088 129.758C87.8087 128.626 91.1043 127.203 94.2591 125.505L91.1387 115.098C88.0341 116.841 84.7547 118.253 81.3545 119.311Z" fill="#3C3C3C"/>
<path d="M37.1933 52.3522L28.5594 48.6806C26.7039 51.6041 25.0814 54.6687 23.7069 57.8462L32.354 61.5838C33.6725 58.3613 35.2928 55.2703 37.1933 52.3522Z" fill="#3C3C3C"/>
<path d="M111.236 95.5916L120.743 99.6989C122.567 96.5468 124.133 93.2519 125.423 89.8466L115.93 85.8185C114.688 89.2215 113.116 92.4948 111.236 95.5916Z" fill="#3C3C3C"/>
<path d="M28.9692 87.3505L19.0924 91.6163C19.5986 94.8461 20.4087 98.0211 21.512 101.099L31.4549 96.8066C30.2653 93.7605 29.4312 90.5875 28.9692 87.3505Z" fill="#3C3C3C"/>
<path d="M118.085 59.5103L128.068 55.2049C127.323 52.0332 126.282 48.9381 124.96 45.96L115.044 50.2391C116.415 53.2008 117.436 56.3122 118.085 59.5103Z" fill="#3C3C3C"/>
<path d="M84.0254 68.7552L73.9371 71.0532L73.3289 73.6021L80.4951 80.2848C80.4951 80.2848 87.397 76.0058 84.0254 68.7552Z" fill="#E0D4C6"/>
<g style="mix-blend-mode:multiply" opacity="0.55">
<path d="M78.4457 77.2604C81.9363 75.0284 81.6984 72.5191 80.8786 69.4419L73.9371 71.0135L73.3289 73.5625L77.8243 77.7491C78.0171 77.5687 78.225 77.4052 78.4457 77.2604Z" fill="#E4B97D"/>
</g>
<path d="M92.1568 91.2069L89.5124 93.7426L55.3337 54.637L57.912 52.2069L92.1568 91.2069Z" fill="#FFC400"/>
<path d="M59.4854 50.7145C60.0759 51.5071 60.3417 52.4947 60.2287 53.4762C60.1157 54.4577 59.6324 55.3593 58.8772 55.9973C58.5543 56.3511 58.1631 56.6361 57.7272 56.8351C57.2912 57.0342 56.8195 57.1431 56.3403 57.1554C55.8612 57.1678 55.3845 57.0833 54.9388 56.9069C54.4932 56.7306 54.0878 56.4661 53.7471 56.1294C53.1565 55.3348 52.8932 54.3444 53.0113 53.3618C53.1293 52.3792 53.6197 51.4791 54.3817 50.8466C54.7023 50.4935 55.0912 50.2091 55.525 50.0103C55.9587 49.8116 56.4283 49.7028 56.9053 49.6905C57.3823 49.6781 57.8569 49.7625 58.3004 49.9385C58.7438 50.1145 59.147 50.3785 59.4854 50.7145Z" fill="#FFC400"/>
<path d="M93.7567 89.6485C94.3921 90.4705 94.6921 91.5024 94.5964 92.5365C94.5008 93.5705 94.0165 94.53 93.2411 95.2218C92.9056 95.585 92.4997 95.8763 92.0481 96.0779C91.5964 96.2796 91.1084 96.3873 90.6137 96.3948C90.1191 96.4022 89.628 96.309 89.1705 96.121C88.713 95.933 88.2985 95.654 87.9523 95.3011C87.321 94.478 87.0259 93.4463 87.1265 92.4143C87.2271 91.3823 87.716 90.4269 88.4944 89.741C88.8287 89.381 89.2323 89.0921 89.681 88.8918C90.1298 88.6914 90.6144 88.5837 91.1059 88.5751C91.5973 88.5665 92.0854 88.6571 92.541 88.8416C92.9965 89.026 93.41 89.3005 93.7567 89.6485Z" fill="#FFC400"/>
<path d="M93.6113 51.2428L95.7269 53.5672L52.9803 94.3237L50.9177 91.8805L93.6113 51.2428Z" fill="#FFC400"/>
<path d="M49.6614 90.4013C49.9884 90.025 50.391 89.7216 50.843 89.5109C51.2951 89.3001 51.7864 89.1867 52.2852 89.178C52.784 89.1692 53.279 89.2654 53.7381 89.4603C54.1973 89.6551 54.6102 89.9442 54.9502 90.3089C55.5476 91.1428 55.8123 92.1692 55.6925 93.1876C55.5727 94.2061 55.077 95.1433 54.3023 95.8161C53.9755 96.1934 53.5726 96.4974 53.1199 96.7083C52.6673 96.9191 52.1751 97.0319 51.6757 97.0394C51.1763 97.0469 50.681 96.9488 50.2222 96.7517C49.7634 96.5545 49.3515 96.2627 49.0136 95.8954C48.417 95.0635 48.1528 94.0392 48.2726 93.023C48.3925 92.0068 48.8877 91.0719 49.6614 90.4013Z" fill="#FFC400"/>
<path d="M92.3155 49.8165C92.6464 49.4626 93.0444 49.1779 93.4863 48.9788C93.9282 48.7797 94.4053 48.6702 94.8899 48.6567C95.3745 48.6432 95.8569 48.7259 96.3092 48.9C96.7616 49.0742 97.1748 49.3363 97.525 49.6712C98.1372 50.4474 98.4266 51.4293 98.333 52.4131C98.2395 53.3968 97.7701 54.3068 97.0225 54.9539C96.6925 55.3121 96.2937 55.6004 95.8499 55.8016C95.4061 56.0028 94.9264 56.1128 94.4392 56.1251C93.952 56.1374 93.4673 56.0518 93.0139 55.8733C92.5605 55.6948 92.1476 55.4271 91.7999 55.086C91.1963 54.3079 90.9134 53.3286 91.0093 52.3489C91.1052 51.3691 91.5725 50.4632 92.3155 49.8165Z" fill="#FFC400"/>
<path d="M77.4541 68.7552C78.3017 69.8733 78.6926 71.2712 78.5478 72.6662C78.4029 74.0612 77.7332 75.3492 76.6741 76.2699C76.218 76.7738 75.6635 77.1793 75.0448 77.4612C74.426 77.7431 73.756 77.8955 73.076 77.9091C72.3961 77.9227 71.7205 77.7972 71.091 77.5403C70.4614 77.2834 69.8911 76.9004 69.4152 76.4151C68.5762 75.2932 68.1943 73.8953 68.3464 72.5032C68.4986 71.1111 69.1734 69.8284 70.235 68.9136C70.6897 68.415 71.2411 68.0138 71.8557 67.7345C72.4704 67.4552 73.1354 67.3035 73.8105 67.2886C74.4857 67.2738 75.1567 67.3962 75.7831 67.6483C76.4094 67.9004 76.9779 68.2769 77.4541 68.7552Z" fill="#FFC400"/>
<path d="M74.0297 68.7552C74.7169 68.6817 75.4062 68.8733 75.9567 69.2906C76.5072 69.7079 76.8773 70.3195 76.9914 71.0004C77.0786 71.317 77.1014 71.6478 77.0585 71.9734C77.0155 72.2989 76.9076 72.6125 76.7412 72.8957C76.5748 73.1789 76.3532 73.4259 76.0896 73.6221C75.826 73.8183 75.5257 73.9597 75.2064 74.0379C74.52 74.1043 73.834 73.9081 73.2868 73.4889C72.7396 73.0698 72.3719 72.4589 72.2579 71.7796C72.1706 71.4647 72.1474 71.1356 72.1897 70.8116C72.232 70.4876 72.3389 70.1754 72.5041 69.8935C72.6693 69.6115 72.8894 69.3655 73.1514 69.17C73.4135 68.9744 73.7121 68.8334 74.0297 68.7552Z" fill="#FFF3D9"/>
<g style="mix-blend-mode:multiply" opacity="0.55">
<path d="M136.609 82.3451C118.746 90.2692 98.7016 99.1839 78.644 97.0972C45.7081 93.6634 29.7228 67.6194 25.9413 38.2736C16.7582 49.3312 10.7453 62.667 8.54126 76.8642C2.8955 114.979 28.0568 147.257 65.7526 147.257C102.086 147.257 134.414 117.409 140.113 80.8263C138.923 81.3282 137.759 81.83 136.609 82.3451Z" fill="#9D7A6F"/>
</g>
<circle cx="134" cy="80" r="11.5" fill="#C4C4C4" fill-opacity="0.43" stroke="black"/>
<path d="M130.32 78.9551H131.252C131.518 78.9551 131.736 78.9082 131.908 78.8145C132.084 78.7207 132.213 78.5879 132.295 78.416C132.381 78.2441 132.424 78.043 132.424 77.8125C132.424 77.6133 132.385 77.4355 132.307 77.2793C132.229 77.123 132.109 77 131.949 76.9102C131.793 76.8164 131.59 76.7695 131.34 76.7695C131.16 76.7695 130.988 76.8066 130.824 76.8809C130.664 76.9512 130.533 77.0547 130.432 77.1914C130.33 77.3242 130.279 77.4844 130.279 77.6719H128.445C128.445 77.1953 128.574 76.7832 128.832 76.4355C129.094 76.0879 129.439 75.8203 129.869 75.6328C130.303 75.4414 130.775 75.3457 131.287 75.3457C131.877 75.3457 132.395 75.4395 132.84 75.627C133.289 75.8105 133.637 76.084 133.883 76.4473C134.133 76.8066 134.258 77.252 134.258 77.7832C134.258 78.0605 134.191 78.3281 134.059 78.5859C133.93 78.8398 133.744 79.0664 133.502 79.2656C133.264 79.4609 132.979 79.6172 132.646 79.7344C132.318 79.8477 131.953 79.9043 131.551 79.9043H130.32V78.9551ZM130.32 80.332V79.4004H131.551C131.996 79.4004 132.395 79.4512 132.746 79.5527C133.098 79.6543 133.396 79.8008 133.643 79.9922C133.889 80.1836 134.076 80.416 134.205 80.6895C134.334 80.9629 134.398 81.2676 134.398 81.6035C134.398 82.002 134.32 82.3574 134.164 82.6699C134.008 82.9824 133.789 83.2461 133.508 83.4609C133.227 83.6758 132.896 83.8398 132.518 83.9531C132.139 84.0625 131.729 84.1172 131.287 84.1172C130.932 84.1172 130.578 84.0684 130.227 83.9707C129.875 83.873 129.557 83.7246 129.271 83.5254C128.986 83.3223 128.758 83.0664 128.586 82.7578C128.414 82.4453 128.328 82.0742 128.328 81.6445H130.162C130.162 81.8438 130.213 82.0234 130.314 82.1836C130.42 82.3398 130.562 82.4648 130.742 82.5586C130.926 82.6484 131.125 82.6934 131.34 82.6934C131.598 82.6934 131.816 82.6465 131.996 82.5527C132.18 82.4551 132.318 82.3223 132.412 82.1543C132.51 81.9863 132.559 81.793 132.559 81.5742C132.559 81.2773 132.506 81.0391 132.4 80.8594C132.299 80.6758 132.15 80.543 131.955 80.4609C131.76 80.375 131.525 80.332 131.252 80.332H130.32Z" fill="black"/>
</g>
<defs>
<clipPath id="clip0_9_1294">
<rect width="163" height="156" fill="white"/>
</clipPath>
</defs>
</svg>
