<svg width="134" height="176" viewBox="0 0 134 176" fill="none" xmlns="http://www.w3.org/2000/svg">
<g style="mix-blend-mode:luminosity">
<path d="M117.555 43.66C117.555 43.66 126.361 63.9765 125.739 66.3233C125.118 68.6701 113.921 76.2373 113.921 76.2373L117.545 87.8946C117.545 87.8946 131.409 70.3463 130.625 67.4152C129.841 64.4841 119.897 41.4089 119.897 41.4089L117.555 43.66Z" fill="#780C0A"/>
<path d="M123.035 44.3565C125.524 41.2431 125.022 36.6978 121.914 34.2044C118.807 31.711 114.27 32.2136 111.781 35.327C109.292 38.4404 109.794 42.9857 112.901 45.4791C116.009 47.9726 120.546 47.4699 123.035 44.3565Z" fill="#CA1C18"/>
<g style="mix-blend-mode:screen">
<path d="M122.565 37.9318C122.658 38.75 122.506 39.5773 122.13 40.3093C121.753 41.0413 121.169 41.6452 120.451 42.0448C119.732 42.4443 118.911 42.6216 118.092 42.5543C117.273 42.4869 116.492 42.178 115.848 41.6664C115.204 41.1548 114.726 40.4635 114.474 39.6798C114.222 38.8961 114.207 38.0551 114.431 37.2631C114.656 36.471 115.11 35.7634 115.735 35.2295C116.361 34.6955 117.131 34.3593 117.947 34.2632C119.045 34.1365 120.148 34.4518 121.014 35.1397C121.88 35.8277 122.438 36.832 122.565 37.9318Z" fill="#CA1C18"/>
</g>
<path d="M6.1574 20.0387L0 156.373L54.0303 176L134 157.36L127.871 104.15L100.268 42.7883L120.633 0L43.6468 3.25678L6.1574 20.0387Z" fill="#CA1C18"/>
<path d="M26.8765 48.8037L43.685 3.25677H43.6468L6.1574 20.0387L0 156.373L54.0111 175.99L50.397 118.604L26.8765 48.8037Z" fill="#9C0100"/>
<path d="M52.0224 13.2953L40.9314 41.9645L92.1602 39.1675L104.552 11.5041L52.0224 13.2953Z" fill="#9C0100"/>
<path d="M41.3809 57.9227L57.7496 107.09L115.518 98.3929L95.4972 53.095L41.3809 57.9227Z" fill="#641508"/>
<path d="M60.3501 110.175C60.384 110.481 60.3274 110.79 60.1874 111.064C60.0473 111.338 59.83 111.565 59.5624 111.716C59.2948 111.867 58.9887 111.937 58.6821 111.915C58.3756 111.894 58.0821 111.782 57.8382 111.595C57.5942 111.408 57.4105 111.153 57.31 110.862C57.2094 110.571 57.1964 110.257 57.2725 109.959C57.3486 109.661 57.5105 109.391 57.7381 109.185C57.9657 108.978 58.2489 108.842 58.5526 108.795C58.9733 108.741 59.3985 108.855 59.7352 109.114C60.072 109.372 60.293 109.754 60.3501 110.175Z" fill="#FFCD49"/>
<path d="M54.5466 110.845C54.5823 111.151 54.5274 111.461 54.3887 111.736C54.2499 112.011 54.0335 112.24 53.7663 112.392C53.4991 112.545 53.1929 112.616 52.886 112.595C52.579 112.575 52.2847 112.465 52.0399 112.278C51.795 112.092 51.6103 111.837 51.5089 111.546C51.4074 111.255 51.3936 110.941 51.4692 110.642C51.5448 110.343 51.7065 110.073 51.9341 109.866C52.1616 109.658 52.445 109.523 52.7491 109.476C53.1683 109.421 53.5922 109.534 53.9287 109.791C54.2652 110.047 54.4872 110.426 54.5466 110.845Z" fill="#FFCD49"/>
<path d="M66.5747 109.217C66.6054 109.421 66.5957 109.63 66.546 109.83C66.4963 110.031 66.4077 110.22 66.2852 110.386C66.1627 110.553 66.0087 110.693 65.832 110.8C65.6552 110.907 65.4592 110.977 65.2552 111.008C65.0512 111.039 64.8431 111.029 64.6428 110.979C64.4425 110.93 64.254 110.841 64.088 110.718C63.9219 110.595 63.7817 110.441 63.6752 110.264C63.5687 110.087 63.498 109.891 63.4673 109.686C63.4365 109.482 63.4462 109.273 63.4959 109.073C63.5455 108.872 63.6341 108.683 63.7567 108.517C63.8792 108.351 64.0333 108.21 64.21 108.103C64.3867 107.997 64.5827 107.926 64.7867 107.895C64.9908 107.864 65.1988 107.874 65.3991 107.924C65.5994 107.973 65.7879 108.062 65.9539 108.185C66.1199 108.308 66.2602 108.462 66.3667 108.639C66.4732 108.816 66.5439 109.013 66.5747 109.217Z" fill="#FFCD49"/>
<path d="M72.7893 108.307C72.82 108.511 72.8103 108.72 72.7606 108.92C72.7109 109.121 72.6223 109.31 72.4998 109.476C72.3773 109.643 72.2233 109.783 72.0466 109.89C71.8698 109.997 71.6738 110.067 71.4698 110.098C71.2658 110.129 71.0577 110.119 70.8574 110.069C70.6571 110.02 70.4686 109.931 70.3026 109.808C70.1365 109.685 69.9963 109.531 69.8898 109.354C69.7833 109.177 69.7126 108.981 69.6819 108.776C69.6511 108.572 69.6608 108.363 69.7105 108.163C69.7601 107.962 69.8487 107.773 69.9713 107.607C70.0938 107.441 70.2479 107.3 70.4246 107.193C70.6013 107.087 70.7973 107.016 71.0013 106.985C71.2054 106.954 71.4134 106.964 71.6137 107.014C71.814 107.064 72.0025 107.152 72.1685 107.275C72.3345 107.398 72.4748 107.552 72.5813 107.729C72.6878 107.906 72.7585 108.103 72.7893 108.307Z" fill="#FFCD49"/>
<path d="M79.0137 107.368C79.0476 107.674 78.991 107.983 78.8509 108.257C78.7109 108.531 78.4935 108.758 78.2259 108.909C77.9583 109.061 77.6523 109.13 77.3457 109.109C77.0392 109.087 76.7457 108.976 76.5018 108.789C76.2578 108.601 76.0742 108.346 75.9736 108.056C75.873 107.765 75.8599 107.451 75.9361 107.152C76.0122 106.854 76.1741 106.585 76.4017 106.378C76.6293 106.171 76.9125 106.036 77.2162 105.989C77.6369 105.934 78.062 106.049 78.3988 106.307C78.7355 106.566 78.9566 106.947 79.0137 107.368Z" fill="#FFCD49"/>
<path d="M85.2283 106.43C85.2644 106.736 85.2095 107.046 85.0706 107.322C84.9316 107.598 84.7148 107.826 84.447 107.979C84.1793 108.131 83.8726 108.202 83.5652 108.181C83.2578 108.16 82.9633 108.049 82.7186 107.861C82.4738 107.674 82.2896 107.418 82.189 107.127C82.0884 106.835 82.0758 106.52 82.1528 106.221C82.2298 105.922 82.393 105.653 82.622 105.446C82.851 105.24 83.1356 105.105 83.4404 105.06C83.8586 105.005 84.2812 105.119 84.6162 105.375C84.9512 105.632 85.1712 106.011 85.2283 106.43Z" fill="#FFCD49"/>
<path d="M91.4527 105.5C91.4865 105.806 91.43 106.116 91.2899 106.39C91.1498 106.664 90.9325 106.89 90.6649 107.042C90.3973 107.193 90.0912 107.262 89.7847 107.241C89.4782 107.219 89.1847 107.108 88.9407 106.921C88.6968 106.733 88.5131 106.479 88.4125 106.188C88.312 105.897 88.2989 105.583 88.375 105.284C88.4511 104.986 88.6131 104.717 88.8407 104.51C89.0682 104.303 89.3515 104.168 89.6552 104.121C89.8637 104.093 90.0757 104.106 90.2791 104.16C90.4825 104.214 90.6731 104.308 90.8401 104.436C91.0072 104.565 91.1473 104.724 91.2524 104.907C91.3575 105.09 91.4256 105.291 91.4527 105.5Z" fill="#FFCD49"/>
<path d="M97.6771 104.562C97.7133 104.87 97.6579 105.182 97.5179 105.46C97.3779 105.737 97.1595 105.966 96.89 106.12C96.6205 106.273 96.3119 106.344 96.0026 106.323C95.6933 106.301 95.3971 106.189 95.151 106.001C94.9049 105.812 94.7198 105.554 94.6188 105.261C94.5178 104.967 94.5054 104.65 94.5831 104.35C94.6609 104.049 94.8253 103.778 95.0559 103.57C95.2865 103.363 95.573 103.228 95.8796 103.182C96.2999 103.13 96.7237 103.246 97.0599 103.504C97.3961 103.762 97.6177 104.142 97.6771 104.562Z" fill="#FFCD49"/>
<path d="M103.892 103.623C103.928 103.929 103.873 104.239 103.734 104.514C103.595 104.789 103.379 105.017 103.111 105.17C102.844 105.323 102.538 105.393 102.231 105.373C101.924 105.353 101.63 105.242 101.385 105.056C101.14 104.869 100.956 104.615 100.854 104.324C100.753 104.033 100.739 103.718 100.814 103.42C100.89 103.121 101.052 102.851 101.279 102.644C101.507 102.436 101.79 102.3 102.094 102.253C102.302 102.225 102.513 102.238 102.716 102.291C102.919 102.345 103.109 102.438 103.276 102.565C103.443 102.692 103.583 102.851 103.689 103.033C103.795 103.214 103.864 103.415 103.892 103.623Z" fill="#FFCD49"/>
<path d="M110.116 102.694C110.152 103.002 110.097 103.315 109.957 103.592C109.817 103.869 109.598 104.098 109.329 104.252C109.059 104.405 108.751 104.476 108.442 104.455C108.132 104.434 107.836 104.322 107.59 104.133C107.344 103.944 107.159 103.687 107.058 103.393C106.957 103.099 106.944 102.782 107.022 102.482C107.1 102.181 107.264 101.91 107.495 101.702C107.725 101.495 108.012 101.36 108.319 101.314C108.527 101.286 108.739 101.299 108.942 101.354C109.146 101.408 109.337 101.502 109.504 101.63C109.671 101.758 109.811 101.918 109.916 102.101C110.021 102.283 110.089 102.485 110.116 102.694Z" fill="#FFCD49"/>
<path d="M116.331 101.755C116.365 102.061 116.308 102.37 116.168 102.644C116.028 102.918 115.811 103.145 115.543 103.296C115.275 103.448 114.969 103.517 114.663 103.495C114.356 103.474 114.063 103.363 113.819 103.175C113.575 102.988 113.391 102.733 113.291 102.442C113.19 102.152 113.177 101.837 113.253 101.539C113.329 101.241 113.491 100.972 113.719 100.765C113.946 100.558 114.23 100.423 114.533 100.376C114.954 100.321 115.379 100.436 115.716 100.694C116.053 100.953 116.274 101.334 116.331 101.755Z" fill="#FFCD49"/>
<path d="M122.67 101.027C122.704 101.333 122.647 101.642 122.507 101.916C122.367 102.19 122.15 102.417 121.882 102.568C121.615 102.72 121.308 102.789 121.002 102.767C120.695 102.746 120.402 102.635 120.158 102.447C119.914 102.26 119.73 102.005 119.63 101.714C119.529 101.424 119.516 101.109 119.592 100.811C119.668 100.513 119.83 100.244 120.058 100.037C120.285 99.83 120.569 99.6947 120.872 99.6478C121.081 99.6195 121.293 99.6328 121.496 99.6869C121.7 99.741 121.89 99.8349 122.057 99.963C122.224 100.091 122.365 100.251 122.47 100.434C122.575 100.616 122.643 100.818 122.67 101.027Z" fill="#FFCD49"/>
<path d="M118.071 93.0384C118.366 92.9048 118.694 92.8621 119.014 92.9157C119.333 92.9692 119.63 93.1166 119.865 93.3392C120.101 93.5618 120.266 93.8495 120.338 94.1658C120.41 94.4822 120.387 94.8129 120.271 95.116C120.156 95.4191 119.953 95.681 119.688 95.8684C119.424 96.0558 119.11 96.1603 118.786 96.1686C118.462 96.1769 118.143 96.0887 117.869 95.9151C117.596 95.7416 117.38 95.4904 117.249 95.1936C117.161 94.9981 117.113 94.7871 117.107 94.5729C117.101 94.3586 117.137 94.1452 117.213 93.945C117.289 93.7447 117.405 93.5616 117.552 93.406C117.699 93.2504 117.875 93.1255 118.071 93.0384Z" fill="#FFCD49"/>
<path d="M115.394 87.0613C115.689 86.9277 116.017 86.885 116.337 86.9385C116.656 86.9921 116.953 87.1395 117.188 87.3621C117.424 87.5847 117.588 87.8723 117.661 88.1887C117.733 88.505 117.71 88.8357 117.594 89.1389C117.478 89.442 117.275 89.7039 117.011 89.8913C116.747 90.0787 116.433 90.1832 116.109 90.1915C115.785 90.1998 115.466 90.1116 115.192 89.938C114.919 89.7644 114.703 89.5133 114.572 89.2165C114.397 88.8212 114.386 88.3729 114.54 87.9692C114.694 87.5655 115.001 87.2392 115.394 87.0613Z" fill="#FFCD49"/>
<path d="M112.745 81.0841C113.041 80.9506 113.369 80.9079 113.688 80.9614C114.008 81.015 114.304 81.1623 114.54 81.3849C114.776 81.6075 114.94 81.8952 115.012 82.2115C115.084 82.5279 115.061 82.8586 114.946 83.1617C114.83 83.4648 114.627 83.7267 114.363 83.9141C114.098 84.1015 113.784 84.206 113.46 84.2143C113.136 84.2226 112.818 84.1344 112.544 83.9608C112.27 83.7873 112.054 83.5362 111.923 83.2394C111.749 82.8441 111.737 82.3958 111.891 81.9921C112.045 81.5884 112.352 81.262 112.745 81.0841Z" fill="#FFCD49"/>
<path d="M110.107 75.107C110.402 74.9751 110.73 74.9341 111.049 74.9892C111.368 75.0443 111.664 75.1931 111.898 75.4166C112.133 75.6401 112.296 75.9283 112.367 76.2447C112.438 76.5612 112.413 76.8916 112.296 77.1941C112.18 77.4965 111.976 77.7575 111.711 77.9439C111.446 78.1302 111.132 78.2336 110.808 78.2409C110.485 78.2482 110.166 78.1591 109.893 77.9848C109.62 77.8106 109.405 77.5591 109.275 77.2622C109.187 77.0661 109.14 76.8546 109.134 76.6399C109.129 76.4252 109.166 76.2115 109.243 76.0112C109.32 75.8109 109.436 75.6278 109.585 75.4726C109.733 75.3175 109.91 75.1932 110.107 75.107Z" fill="#FFCD49"/>
<path d="M107.458 69.1299C107.753 68.9963 108.081 68.9536 108.401 69.0071C108.72 69.0607 109.017 69.2081 109.252 69.4307C109.488 69.6532 109.653 69.9409 109.725 70.2572C109.797 70.5736 109.774 70.9043 109.658 71.2074C109.543 71.5106 109.34 71.7724 109.075 71.9598C108.811 72.1472 108.497 72.2517 108.173 72.2601C107.849 72.2684 107.53 72.1801 107.257 72.0066C106.983 71.833 106.767 71.5819 106.636 71.2851C106.461 70.8898 106.45 70.4415 106.604 70.0378C106.758 69.6341 107.065 69.3078 107.458 69.1299Z" fill="#FFCD49"/>
<path d="M106.139 66.1422C106.959 65.7758 107.325 64.8091 106.958 63.9829C106.59 63.1567 105.627 62.784 104.807 63.1504C103.987 63.5168 103.621 64.4835 103.989 65.3096C104.357 66.1358 105.319 66.5085 106.139 66.1422Z" fill="#FFCD49"/>
<path d="M103.494 60.1521C104.314 59.7857 104.68 58.819 104.312 57.9928C103.945 57.1666 102.982 56.7939 102.162 57.1603C101.342 57.5267 100.976 58.4934 101.344 59.3195C101.711 60.1457 102.674 60.5184 103.494 60.1521Z" fill="#FFCD49"/>
<path d="M99.5223 51.1889C99.8175 51.0553 100.146 51.0125 100.465 51.0661C100.785 51.1196 101.081 51.2671 101.317 51.4896C101.552 51.7122 101.717 51.9999 101.789 52.3163C101.861 52.6326 101.838 52.9633 101.723 53.2664C101.607 53.5695 101.404 53.8314 101.14 54.0188C100.875 54.2062 100.561 54.3107 100.237 54.319C99.9134 54.3274 99.5945 54.2391 99.3208 54.0656C99.0471 53.892 98.8311 53.6409 98.7001 53.3441C98.6124 53.1485 98.5641 52.9376 98.558 52.7233C98.5519 52.509 98.5881 52.2956 98.6645 52.0954C98.7409 51.8951 98.856 51.712 99.0032 51.5564C99.1504 51.4009 99.3268 51.276 99.5223 51.1889Z" fill="#FFCD49"/>
<path d="M90.1237 47.8171C90.0967 47.4987 90.1645 47.1793 90.3184 46.8993C90.4724 46.6194 90.7056 46.3913 90.9887 46.244C91.2718 46.0966 91.5921 46.0364 91.9092 46.0711C92.2264 46.1058 92.5262 46.2339 92.7708 46.439C93.0155 46.6441 93.1941 46.9172 93.284 47.2239C93.374 47.5306 93.3713 47.857 93.2764 48.1622C93.1814 48.4673 92.9984 48.7375 92.7505 48.9386C92.5025 49.1397 92.2006 49.2628 91.8829 49.2923C91.4546 49.3295 91.0289 49.1952 90.6992 48.9187C90.3695 48.6422 90.1626 48.2461 90.1237 47.8171Z" fill="#FFCD49"/>
<path d="M96.2716 47.0987C96.2458 46.7787 96.3155 46.4583 96.4719 46.1782C96.6284 45.898 96.8644 45.6707 97.15 45.5253C97.4357 45.3798 97.7581 45.3228 98.0762 45.3613C98.3943 45.3998 98.6938 45.5322 98.9366 45.7417C99.1794 45.9512 99.3545 46.2282 99.4398 46.5377C99.525 46.8471 99.5165 47.175 99.4153 47.4795C99.3142 47.7841 99.1249 48.0517 98.8716 48.2483C98.6182 48.4448 98.3123 48.5615 97.9926 48.5834C97.569 48.61 97.1519 48.4696 96.8303 48.1922C96.5087 47.9147 96.3082 47.5223 96.2716 47.0987Z" fill="#FFCD49"/>
<path d="M83.6508 48.3918C83.6238 48.0734 83.6916 47.754 83.8455 47.474C83.9995 47.1941 84.2327 46.966 84.5158 46.8186C84.7989 46.6712 85.1192 46.6111 85.4363 46.6458C85.7535 46.6806 86.0533 46.8086 86.2979 47.0137C86.5426 47.2188 86.7211 47.492 86.8111 47.7986C86.9011 48.1053 86.8984 48.4317 86.8035 48.7369C86.7085 49.042 86.5255 49.3122 86.2776 49.5133C86.0296 49.7144 85.7278 49.8375 85.4101 49.867C84.9817 49.9042 84.556 49.7699 84.2263 49.4934C83.8966 49.217 83.6897 48.8208 83.6508 48.3918Z" fill="#FFCD49"/>
<path d="M77.2353 48.9666C77.2083 48.6481 77.2761 48.3287 77.43 48.0488C77.5839 47.7688 77.8171 47.5408 78.1002 47.3934C78.3833 47.246 78.7037 47.1859 79.0208 47.2206C79.338 47.2553 79.6378 47.3833 79.8825 47.5884C80.1271 47.7935 80.3057 48.0667 80.3956 48.3733C80.4856 48.68 80.4829 49.0065 80.3879 49.3116C80.293 49.6167 80.11 49.8869 79.862 50.088C79.6141 50.2891 79.3122 50.4122 78.9946 50.4417C78.5662 50.4789 78.1406 50.3446 77.8108 50.0681C77.4811 49.7917 77.2741 49.3956 77.2353 48.9666Z" fill="#FFCD49"/>
<path d="M70.7909 49.5413C70.764 49.2228 70.8317 48.9035 70.9857 48.6235C71.1396 48.3435 71.3728 48.1155 71.6559 47.9681C71.939 47.8207 72.2593 47.7606 72.5765 47.7953C72.8936 47.83 73.1935 47.958 73.4381 48.1631C73.6828 48.3683 73.8613 48.6414 73.9513 48.948C74.0412 49.2547 74.0386 49.5812 73.9436 49.8863C73.8487 50.1915 73.6657 50.4616 73.4177 50.6627C73.1697 50.8638 72.8679 50.9869 72.5502 51.0164C72.1219 51.0537 71.6962 50.9193 71.3665 50.6429C71.0367 50.3664 70.8298 49.9703 70.7909 49.5413Z" fill="#FFCD49"/>
<path d="M64.3468 50.116C64.3199 49.7976 64.3876 49.4782 64.5416 49.1982C64.6955 48.9183 64.9287 48.6902 65.2118 48.5429C65.4949 48.3955 65.8152 48.3353 66.1324 48.37C66.4495 48.4047 66.7493 48.5327 66.994 48.7379C67.2386 48.943 67.4172 49.2161 67.5072 49.5228C67.5971 49.8295 67.5945 50.1559 67.4995 50.4611C67.4046 50.7662 67.2216 51.0364 66.9736 51.2375C66.7256 51.4386 66.4238 51.5617 66.1061 51.5912C65.6778 51.6284 65.2521 51.4941 64.9224 51.2176C64.5926 50.9411 64.3857 50.545 64.3468 50.116Z" fill="#FFCD49"/>
<path d="M57.9025 50.6908C57.8756 50.3723 57.9433 50.0529 58.0972 49.773C58.2512 49.493 58.4844 49.265 58.7675 49.1176C59.0506 48.9702 59.3709 48.9101 59.688 48.9448C60.0052 48.9795 60.305 49.1075 60.5496 49.3126C60.7943 49.5178 60.9729 49.7909 61.0628 50.0975C61.1528 50.4042 61.1501 50.7306 61.0552 51.0358C60.9602 51.3409 60.7772 51.6111 60.5293 51.8122C60.2813 52.0133 59.9794 52.1364 59.6617 52.1659C59.2334 52.2031 58.8077 52.0688 58.478 51.7923C58.1483 51.5159 57.9414 51.1198 57.9025 50.6908Z" fill="#FFCD49"/>
<path d="M51.4584 51.2655C51.4315 50.947 51.4992 50.6276 51.6532 50.3477C51.8071 50.0677 52.0403 49.8396 52.3234 49.6923C52.6065 49.5449 52.9268 49.4848 53.244 49.5195C53.5611 49.5542 53.8609 49.6822 54.1055 49.8873C54.3502 50.0925 54.5288 50.3656 54.6187 50.6722C54.7087 50.9789 54.706 51.3054 54.6111 51.6105C54.5161 51.9156 54.3331 52.1858 54.0852 52.3869C53.8372 52.588 53.5353 52.7111 53.2176 52.7406C52.7893 52.7778 52.3637 52.6435 52.0339 52.367C51.7042 52.0906 51.4973 51.6945 51.4584 51.2655Z" fill="#FFCD49"/>
<path d="M45.0141 51.8402C44.9871 51.5217 45.0548 51.2024 45.2088 50.9224C45.3627 50.6424 45.5959 50.4144 45.879 50.267C46.1621 50.1196 46.4824 50.0595 46.7996 50.0942C47.1167 50.1289 47.4165 50.2569 47.6612 50.462C47.9059 50.6672 48.0844 50.9403 48.1744 51.247C48.2644 51.5536 48.2617 51.8801 48.1668 52.1852C48.0718 52.4904 47.8888 52.7605 47.6408 52.9616C47.3929 53.1627 47.091 53.2858 46.7733 53.3153C46.561 53.3351 46.3468 53.3125 46.1432 53.2489C45.9396 53.1853 45.7506 53.0819 45.587 52.9448C45.4235 52.8077 45.2887 52.6395 45.1903 52.4499C45.092 52.2603 45.0321 52.0531 45.0141 51.8402Z" fill="#FFCD49"/>
<path d="M38.5697 52.4149C38.5428 52.0964 38.6106 51.7771 38.7645 51.4971C38.9184 51.2172 39.1516 50.9891 39.4347 50.8417C39.7178 50.6943 40.0381 50.6342 40.3553 50.6689C40.6724 50.7036 40.9723 50.8316 41.2169 51.0368C41.4616 51.2419 41.6402 51.515 41.7301 51.8217C41.8201 52.1283 41.8174 52.4548 41.7225 52.76C41.6275 53.0651 41.4445 53.3352 41.1965 53.5364C40.9485 53.7375 40.6467 53.8605 40.329 53.89C40.1167 53.9098 39.9025 53.8872 39.6989 53.8236C39.4953 53.76 39.3063 53.6567 39.1427 53.5196C38.9792 53.3824 38.8444 53.2142 38.746 53.0246C38.6477 52.835 38.5878 52.6278 38.5697 52.4149Z" fill="#FFCD49"/>
<path d="M31.9631 53.1812C31.9361 52.8627 32.0039 52.5434 32.1578 52.2634C32.3117 51.9835 32.5449 51.7554 32.828 51.608C33.1111 51.4606 33.4314 51.4005 33.7486 51.4352C34.0658 51.4699 34.3655 51.5979 34.6102 51.8031C34.8548 52.0082 35.0334 52.2813 35.1234 52.588C35.2133 52.8946 35.2107 53.2211 35.1157 53.5262C35.0208 53.8314 34.8378 54.1015 34.5898 54.3026C34.3418 54.5038 34.04 54.6268 33.7223 54.6564C33.294 54.6936 32.8683 54.5593 32.5386 54.2828C32.2088 54.0063 32.0019 53.6102 31.9631 53.1812Z" fill="#FFCD49"/>
<path d="M36.1127 61.3232C35.7938 61.4476 35.4449 61.4733 35.1112 61.3971C34.7774 61.3208 34.4742 61.1461 34.2406 60.8954C34.0071 60.6448 33.8539 60.3297 33.8009 59.9909C33.7479 59.6522 33.7975 59.3052 33.9433 58.995C34.0891 58.6848 34.3244 58.4255 34.6189 58.2506C34.9133 58.0757 35.2533 57.9933 35.5949 58.014C35.9366 58.0346 36.2642 58.1575 36.5355 58.3666C36.8067 58.5757 37.0092 58.8615 37.1166 59.1871C37.2644 59.6038 37.2418 60.0622 37.0537 60.4623C36.8657 60.8623 36.5275 61.1718 36.1127 61.3232Z" fill="#FFCD49"/>
<path d="M38.283 67.8272C37.9666 67.9597 37.6178 67.9939 37.2817 67.9254C36.9457 67.857 36.6379 67.6889 36.3983 67.4431C36.1587 67.1973 35.9984 66.885 35.9381 66.5468C35.8777 66.2086 35.9202 65.86 36.06 65.5463C36.1998 65.2326 36.4305 64.9681 36.7221 64.7873C37.0137 64.6065 37.3528 64.5176 37.6954 64.5322C38.038 64.5468 38.3684 64.6641 38.6437 64.869C38.9189 65.074 39.1264 65.357 39.2391 65.6815C39.3923 66.0933 39.378 66.5489 39.1992 66.9502C39.0203 67.3516 38.6913 67.6665 38.283 67.8272Z" fill="#FFCD49"/>
<path d="M40.4438 74.312C40.1248 74.4364 39.776 74.4621 39.4423 74.3859C39.1085 74.3096 38.8053 74.1349 38.5717 73.8842C38.3382 73.6336 38.185 73.3185 38.132 72.9797C38.079 72.641 38.1286 72.294 38.2744 71.9838C38.4202 71.6736 38.6555 71.4143 38.95 71.2394C39.2444 71.0645 39.5844 70.9821 39.926 71.0027C40.2677 71.0234 40.5953 71.1463 40.8666 71.3554C41.1378 71.5645 41.3402 71.8503 41.4477 72.1759C41.5221 72.3821 41.5553 72.6011 41.5451 72.8202C41.5349 73.0393 41.4816 73.2543 41.3883 73.4527C41.2951 73.6512 41.1636 73.8292 41.0015 73.9767C40.8395 74.1241 40.6499 74.2381 40.4438 74.312Z" fill="#FFCD49"/>
<path d="M42.6048 80.8063C42.2881 80.9396 41.9388 80.9744 41.6022 80.9062C41.2656 80.8379 40.9572 80.6698 40.7173 80.4236C40.4773 80.1774 40.3168 79.8646 40.2567 79.5259C40.1965 79.1871 40.2396 78.838 40.3801 78.5241C40.5206 78.2101 40.7522 77.9458 41.0446 77.7654C41.3371 77.5851 41.6771 77.4971 42.0201 77.5128C42.3632 77.5286 42.6936 77.6475 42.9684 77.8539C43.2432 78.0603 43.4496 78.3447 43.5609 78.6703C43.7163 79.0806 43.703 79.5359 43.5237 79.9364C43.3445 80.3369 43.014 80.6497 42.6048 80.8063Z" fill="#FFCD49"/>
<path d="M44.775 87.3007C44.4586 87.4333 44.1097 87.4675 43.7737 87.399C43.4376 87.3306 43.1298 87.1625 42.8902 86.9167C42.6507 86.6709 42.4903 86.3586 42.43 86.0204C42.3697 85.6822 42.4122 85.3336 42.552 85.0199C42.6918 84.7061 42.9225 84.4417 43.2141 84.2609C43.5057 84.0801 43.8448 83.9912 44.1874 84.0058C44.53 84.0204 44.8604 84.1377 45.1356 84.3427C45.4109 84.5476 45.6184 84.8306 45.7311 85.1551C45.8843 85.5669 45.8699 86.0225 45.6911 86.4238C45.5123 86.8251 45.1833 87.14 44.775 87.3007Z" fill="#FFCD49"/>
<path d="M46.9358 93.7856C46.6191 93.9189 46.2698 93.9537 45.9332 93.8854C45.5966 93.8171 45.2882 93.649 45.0483 93.4028C44.8083 93.1566 44.6479 92.8439 44.5877 92.5051C44.5276 92.1663 44.5706 91.8173 44.7111 91.5033C44.8516 91.1893 45.0832 90.925 45.3757 90.7446C45.6682 90.5643 46.0081 90.4763 46.3511 90.4921C46.6942 90.5079 47.0247 90.6267 47.2994 90.8331C47.5742 91.0395 47.7806 91.324 47.8919 91.6495C48.0422 92.0601 48.0263 92.5134 47.8477 92.9124C47.6691 93.3115 47.3418 93.6249 46.9358 93.7856Z" fill="#FFCD49"/>
<path d="M49.1062 100.28C48.7896 100.413 48.4402 100.448 48.1036 100.38C47.767 100.312 47.4586 100.143 47.2187 99.8972C46.9787 99.651 46.8183 99.3382 46.7581 98.9995C46.698 98.6607 46.741 98.3117 46.8815 97.9977C47.022 97.6837 47.2536 97.4194 47.5461 97.239C47.8386 97.0587 48.1785 96.9707 48.5216 96.9865C48.8646 97.0022 49.1951 97.121 49.4699 97.3275C49.7446 97.5339 49.951 97.8184 50.0623 98.1439C50.2151 98.5544 50.2005 99.0086 50.0216 99.4084C49.8426 99.8082 49.5138 100.121 49.1062 100.28Z" fill="#FFCD49"/>
<path d="M51.2671 106.774C50.9507 106.907 50.6019 106.941 50.2659 106.873C49.9298 106.804 49.622 106.636 49.3825 106.39C49.1429 106.144 48.9825 105.832 48.9222 105.494C48.8619 105.156 48.9044 104.807 49.0442 104.493C49.184 104.18 49.4146 103.915 49.7062 103.735C49.9978 103.554 50.3369 103.465 50.6795 103.479C51.0222 103.494 51.3525 103.611 51.6278 103.816C51.903 104.021 52.1105 104.304 52.2233 104.629C52.3765 105.041 52.3621 105.496 52.1833 105.897C52.0045 106.299 51.6755 106.614 51.2671 106.774Z" fill="#FFCD49"/>
<path d="M47.9492 69.3597L58.2084 94.8392L73.3533 92.7798L62.2145 68.0475L47.9492 69.3597Z" fill="#B1A19A"/>
<path d="M47.9492 69.3598L58.2084 94.8392L70.3415 93.1246L59.1932 68.4019L47.9492 69.3598Z" fill="#FFF4E7"/>
<path d="M52.0989 74.8484L53.2079 77.5687L59.1072 77.1377C58.6783 81.644 59.0867 86.1909 60.312 90.548L63.3141 90.1935C63.3141 90.1935 60.2833 82.3964 61.3063 76.7833L60.5701 74.2449L52.0989 74.8484Z" fill="#7D6F6D"/>
<path d="M65.2168 67.3578L75.476 92.8373L90.6209 90.7778L79.4821 66.0551L65.2168 67.3578Z" fill="#B1A19A"/>
<path d="M65.2168 67.3578L75.476 92.8373L87.6091 91.1322L76.4608 66.3999L65.2168 67.3578Z" fill="#FFF4E7"/>
<path d="M69.3091 72.8177L70.4182 75.5476L76.3175 75.1166C75.88 79.6222 76.2853 84.1701 77.5126 88.5268L80.5243 88.182C80.5243 88.182 77.4839 80.3753 78.5165 74.7717L77.7803 72.2334L69.3091 72.8177Z" fill="#7D6F6D"/>
<path d="M82.4844 65.3654L92.734 90.8449L107.888 88.7855L96.7401 64.0531L82.4844 65.3654Z" fill="#B1A19A"/>
<path d="M82.4844 65.3654L92.734 90.8449L104.867 89.1303L93.7283 64.4075L82.4844 65.3654Z" fill="#FFF4E7"/>
<path d="M86.5957 70.9019L87.7143 73.6223L93.6136 73.1913C93.1784 77.6969 93.5836 82.2444 94.8087 86.6015L97.8205 86.2471C97.8205 86.2471 94.78 78.45 95.8126 72.8368L95.0765 70.2889L86.5957 70.9019Z" fill="#7D6F6D"/>
<path d="M60.3598 10.1152L58.352 9.21476L56.0955 10.2205L56.7266 8.1611L55.082 6.68597L57.6349 6.28366L59.0595 4.1476L59.9009 6.21661L62.3963 6.47524L60.2929 8.06531L60.3598 10.1152Z" fill="#FFCD49"/>
<path d="M71.2021 9.83738L69.1942 8.93698L66.9378 9.94275L67.5688 7.8929L65.9243 6.40819L68.4772 6.01546L69.9018 3.86982L70.7431 5.94841L73.2386 6.19746L71.1352 7.79711L71.2021 9.83738Z" fill="#FFCD49"/>
<path d="M82.0446 9.56917L80.0368 8.66877L77.7803 9.67454L78.4114 7.61511L76.7668 6.13998L79.3197 5.73767L80.7443 3.60161L81.5857 5.67062L84.0812 5.92925L81.9777 7.51932L82.0446 9.56917Z" fill="#FFCD49"/>
<path d="M92.8869 9.29139L90.8791 8.40057L88.6226 9.39676L89.2537 7.34691L87.6091 5.8622L90.162 5.46947L91.5866 3.32383L92.428 5.40242L94.9139 5.65147L92.82 7.25112L92.8869 9.29139Z" fill="#FFCD49"/>
<path d="M103.729 9.02318L101.721 8.12278L99.4649 9.12855L100.096 7.06912L98.4514 5.59399L101.004 5.19168L102.429 3.05562L103.27 5.12463L105.756 5.38325L103.662 6.97333L103.729 9.02318Z" fill="#FFCD49"/>
<path d="M77.8567 121.535C78.1817 123.451 74.9883 125.625 70.6762 126.325C66.3641 127.024 62.6257 126.085 62.3006 124.15C61.9755 122.215 65.169 120.05 69.4811 119.361C73.7931 118.671 77.522 119.6 77.8567 121.535Z" fill="#FFCD49"/>
<path d="M75.7627 121.89C76.0018 123.307 73.6497 124.888 70.5136 125.424C67.3776 125.961 64.6335 125.242 64.3945 123.834C64.1554 122.426 66.4979 120.836 69.6435 120.3C72.7892 119.763 75.5141 120.472 75.7627 121.89Z" fill="#E79D00"/>
<path d="M99.5893 117.694C99.9239 119.61 96.7209 121.794 92.4088 122.484C88.0967 123.173 84.3679 122.254 84.0428 120.319C83.7177 118.384 86.9112 116.219 91.2232 115.481C95.5353 114.744 99.2642 115.759 99.5893 117.694Z" fill="#FFCD49"/>
<path d="M97.4953 118.049C97.7439 119.466 95.3919 121.047 92.2558 121.583C89.1198 122.12 86.3757 121.411 86.1367 119.993C85.8976 118.575 88.2402 117.004 91.3762 116.468C94.5123 115.932 97.2563 116.64 97.4953 118.049Z" fill="#E79D00"/>
<path d="M121.331 113.853C121.666 115.769 118.463 117.953 114.151 118.69C109.839 119.428 106.11 118.451 105.775 116.516C105.441 114.581 108.644 112.416 112.956 111.727C117.268 111.037 121.006 111.918 121.331 113.853Z" fill="#FFCD49"/>
<path d="M119.237 114.217C119.477 115.625 117.134 117.206 113.988 117.742C110.843 118.278 108.118 117.57 107.879 116.162C107.64 114.753 109.982 113.163 113.118 112.627C116.254 112.091 119.027 112.799 119.237 114.217Z" fill="#E79D00"/>
<path d="M59.6045 135.262L60.465 144.199L83.4405 140.223L82.4079 131.286L59.6045 135.262Z" fill="#FFCD49"/>
<path d="M61.9087 136.344L62.4441 142.149L81.098 139.131L80.4287 133.336L61.9087 136.344Z" fill="#E79D00"/>
<path d="M103.433 127.512L104.293 136.44L127.269 132.474L126.236 123.537L103.433 127.512Z" fill="#FFCD49"/>
<path d="M105.737 128.595L106.272 134.399L124.926 131.382L124.257 125.587L105.737 128.595Z" fill="#E79D00"/>
<path d="M60.3215 156.421L61.2012 164.065L126.676 149.496L126.141 141.948L60.3215 156.421Z" fill="#94A9A9"/>
<g style="mix-blend-mode:multiply" opacity="0.55">
<path d="M24.9069 160.482C26.2263 159.774 27.5267 158.998 28.8174 158.174C30.1082 157.35 31.1025 156.632 32.1925 155.827L32.8904 155.3C33.9326 154.496 34.9557 153.662 35.9214 152.8L36.2751 152.475C37.2313 151.651 38.0631 150.808 38.9045 149.936L39.2869 149.553C40.1952 148.595 41.0557 147.637 41.878 146.679L42.1744 146.315C43.8371 144.274 45.3578 142.12 46.7255 139.869C46.7255 139.792 46.8116 139.716 46.8594 139.639C48.2272 137.368 49.4379 135.007 50.4831 132.57C50.7316 132.014 50.942 131.449 51.1619 130.884L50.3875 118.652L31.5997 62.8749C23.5839 57.5665 14.2073 54.6925 4.59893 54.5989L0 156.411L18.9216 163.289C20.9682 162.468 22.9666 161.531 24.9069 160.482Z" fill="#9D7A6F"/>
</g>
<circle cx="39" cy="40" r="11.5" fill="#C4C4C4" fill-opacity="0.43" stroke="black"/>
<path d="M39.4512 42.5762V44H33.5566V42.793L36.3105 39.875C36.5684 39.5781 36.7734 39.3164 36.9258 39.0898C37.082 38.8633 37.1953 38.6582 37.2656 38.4746C37.3359 38.2871 37.3711 38.1152 37.3711 37.959C37.3711 37.7051 37.3301 37.4902 37.248 37.3145C37.1699 37.1387 37.0547 37.0039 36.9023 36.9102C36.75 36.8164 36.5645 36.7695 36.3457 36.7695C36.1113 36.7695 35.9102 36.8301 35.7422 36.9512C35.5742 37.0723 35.4453 37.2402 35.3555 37.4551C35.2656 37.666 35.2207 37.9062 35.2207 38.1758H33.3809C33.3809 37.6562 33.5059 37.1836 33.7559 36.7578C34.0059 36.3281 34.3555 35.9863 34.8047 35.7324C35.2539 35.4746 35.7793 35.3457 36.3809 35.3457C36.998 35.3457 37.5156 35.4434 37.9336 35.6387C38.3516 35.834 38.668 36.1133 38.8828 36.4766C39.0977 36.8398 39.2051 37.2773 39.2051 37.7891C39.2051 38.0781 39.1582 38.3574 39.0645 38.627C38.9746 38.8965 38.8438 39.1641 38.6719 39.4297C38.5 39.6953 38.293 39.9668 38.0508 40.2441C37.8086 40.5176 37.5352 40.8066 37.2305 41.1113L35.9414 42.5762H39.4512Z" fill="black"/>
</g>
</svg>
